<svg xmlns="http://www.w3.org/2000/svg" data-name="Layer 1" viewBox="0 0 376.99 271.59"><path fill="#f0fff0" d="M251,45c-19.44,11.56-14.23,36.6,13.6,31.38s38.49,46.23,77.33.77S324.77,13.28,297.32,36,269.75,33.87,251,45Z" class="colorfff7f0 svgShape"/><path fill="#f0fff0" d="M99.6,199.11c-62.64,0-71.5,48.32-15.29,41.42s57.2,24.66,75.94,8.38S159.26,199.11,99.6,199.11Z" class="colorfff7f0 svgShape"/><path fill="#f0fff0" d="M131.15,5.83c-123.1,9.11-167.64,168.63-68,177s114.48,20,134.11,52.76c22.19,37,149.4,34,157.29-40.43s-60.65-98.61-109-98.61S257.87-3.53,131.15,5.83Z" class="colorfff7f0 svgShape"/><path fill="#6dff6d" d="M326.57,65.74c.47-.12,25.42-3.42,39.64-5.3a9.52,9.52,0,0,1,9,3.85,9.35,9.35,0,0,1,1.76,4.57h0a9.52,9.52,0,0,1-5.59,9.73L333.76,95.33Z" class="colorff7c6d svgShape"/><path fill="#6c6" d="M322.59,184.52h-63a10.48,10.48,0,0,1-7.82-3.63,13.11,13.11,0,0,1-3.23-8.75V55.52a12.79,12.79,0,0,1,5-10.37,10.16,10.16,0,0,1,6-2h63a10.22,10.22,0,0,1,6.65,2.5,12.9,12.9,0,0,1,4.4,9.88V172.14a13.18,13.18,0,0,1-2.85,8.29A10.54,10.54,0,0,1,322.59,184.52Z" class="color997597 svgShape"/><path fill="#324232" d="M259.62,181.32a7.72,7.72,0,0,1-5.79-2.69,9.69,9.69,0,0,1-2.4-6.49V55.52a9.48,9.48,0,0,1,3.72-7.69,7.56,7.56,0,0,1,4.47-1.48h63a7.62,7.62,0,0,1,4.93,1.84,9.55,9.55,0,0,1,3.26,7.33V172.14a9.76,9.76,0,0,1-2.11,6.14,7.84,7.84,0,0,1-6.08,3Z" class="color423242 svgShape"/><path fill="#fff" d="M326.87,49.15a6.56,6.56,0,0,0-4.28-1.6H312.08a2.23,2.23,0,0,0-1.67.77,2.81,2.81,0,0,0-.7,1.88h0a3,3,0,0,1-.18,1,2.4,2.4,0,0,1-2.19,1.62H274.86a2.25,2.25,0,0,1-1.6-.7,2.82,2.82,0,0,1-.77-2h0a2.79,2.79,0,0,0-.69-1.87,2.21,2.21,0,0,0-1.68-.78h-10.5a6.54,6.54,0,0,0-3.88,1.28,8.26,8.26,0,0,0-3.24,6.69V172a8.85,8.85,0,0,0,1.78,5.46,6.8,6.8,0,0,0,5.34,2.69h62.85a6.71,6.71,0,0,0,4-1.28,8.27,8.27,0,0,0,3.24-6.69V55.52A8.3,8.3,0,0,0,326.87,49.15Z" class="colorffffff svgShape"/><rect width="52.02" height="49.55" x="265.09" y="70.92" fill="#0099cb" class="color4ec2cf svgShape"/><path fill="#fff" d="M285.87,107.82V84.42a1,1,0,0,1,1.49-.85l19.54,11.6a1,1,0,0,1,0,1.68l-19.53,11.81A1,1,0,0,1,285.87,107.82Z" class="colorffffff svgShape"/><path fill="#6dff6d" d="M331.45,184.57l-14.33,78.15L180.54,263l45.22-149.85a26.34,26.34,0,0,1,12.05-15.38,26.06,26.06,0,0,1,8.59-3.14,134.38,134.38,0,0,0,29.4-8.43,12.06,12.06,0,0,1,7.76-.58,12.18,12.18,0,0,1,4.16,2,12,12,0,0,1,4.33,6.12h0a11.9,11.9,0,0,1,.53,4.09,12.2,12.2,0,0,1-1.1,4.54C278.47,130.65,258.2,145,258.2,145c10.85,16.76,6,39.61,6,39.61h59.27a12.28,12.28,0,0,0,9.74-8.51Z" class="colorff7c6d svgShape"/><path fill="#96ff96" d="M268,89.15a4.06,4.06,0,0,0,0,2.13c.87,3.29,6,4.79,11.47,3.35,4.61-1.22,8-4.16,8.38-7l0,0a12.18,12.18,0,0,0-4.16-2,12.06,12.06,0,0,0-7.76.58C273.52,87.14,270.9,88.15,268,89.15Z" class="colorffa196 svgShape"/><path fill="#6dff6d" d="M333.76,95.33v23.54c-12.51,8.4-19.7,16.92-23.81,23.66a16.85,16.85,0,0,0-2.39,10.5,17.14,17.14,0,0,0,5.12,10.58h0l-1,2.41A8.7,8.7,0,0,0,315.58,177h0a8.4,8.4,0,0,0,2,.79,8.55,8.55,0,0,0,6.26-.76,78.78,78.78,0,0,0,30.06-29.88,15.57,15.57,0,0,0,.68-14.07h0l4-5.81a15.53,15.53,0,0,0,2.66-7.76,15.18,15.18,0,0,0-.43-4.78h0a15.54,15.54,0,0,0-8.28-10.22Z" class="colorff7c6d svgShape"/><path fill="#233b23" d="M315.64,162.94a.31.31,0,0,1-.29-.19.31.31,0,0,1,.17-.41c3.44-1.44,16.45-10.15,27.37-19.26a.32.32,0,0,1,.4.49c-11,9.14-24.05,17.9-27.53,19.35A.25.25,0,0,1,315.64,162.94Z" class="color3b232f svgShape"/><path fill="#233b23" d="M347.64,139.71a.29.29,0,0,1-.23-.1.32.32,0,0,1,0-.45c2-1.79,3.79-3.51,5.34-5.1a.31.31,0,0,1,.44,0,.32.32,0,0,1,0,.45c-1.56,1.6-3.36,3.33-5.37,5.13A.29.29,0,0,1,347.64,139.71Z" class="color3b232f svgShape"/><path fill="#233b23" d="M334.87,118.07a.32.32,0,0,1-.27-.15.31.31,0,0,1,.11-.43,44.45,44.45,0,0,1,7-3.73.32.32,0,0,1,.4.2.32.32,0,0,1-.19.4A43.9,43.9,0,0,0,335,118,.33.33,0,0,1,334.87,118.07Z" class="color3b232f svgShape"/><path fill="#96ff96" d="M328.74,146.38c1.87,2.84-.42,7.67-5.14,10.79s-10.05,3.34-11.93.5.42-7.66,5.13-10.78S326.86,143.54,328.74,146.38Z" class="colorffa196 svgShape"/><ellipse cx="324.5" cy="169.67" fill="#96ff96" class="colorffa196 svgShape" rx="9.76" ry="5.88" transform="rotate(-33.49 324.525 169.678)"/><circle cx="270.65" cy="152.15" r="5.42" fill="#43e243" class="colore2435f svgShape" transform="rotate(-82.55 270.64 152.153)"/><path fill="#6c6" d="M292.84,152h-11.1a1.76,1.76,0,0,1-1.76-1.77h0a1.75,1.75,0,0,1,.36-1.07,1.77,1.77,0,0,1,1.4-.7h11.1a1.8,1.8,0,0,1,1.13.41,1.75,1.75,0,0,1,.63,1.36h0a1.75,1.75,0,0,1-.39,1.12A1.8,1.8,0,0,1,292.84,152Z" class="color997597 svgShape"/><path fill="#6c6" d="M302.33,160.22H281.74a1.76,1.76,0,0,1-1.76-1.77h0a1.75,1.75,0,0,1,.36-1.07,1.77,1.77,0,0,1,1.4-.7h20.59a1.8,1.8,0,0,1,1.13.41,1.75,1.75,0,0,1,.64,1.36h0a1.74,1.74,0,0,1-.4,1.12A1.77,1.77,0,0,1,302.33,160.22Z" class="color997597 svgShape"/><path fill="#233b23" d="M323.47,184.88H264.2a.3.3,0,0,1-.31-.38c.05-.22,4.7-22.91-5.95-39.37a.31.31,0,0,1,.08-.43c.2-.14,20.35-14.59,33.17-42.51a11.9,11.9,0,0,0,1.07-4.42,11.68,11.68,0,0,0-.51-4,.31.31,0,0,1,.21-.39.31.31,0,0,1,.39.21,11.93,11.93,0,0,1,.54,4.2,12.31,12.31,0,0,1-1.13,4.65C279.64,128.87,261,143.3,258.63,145c9.83,15.47,6.51,36.16,5.95,39.21h58.89a.32.32,0,0,1,.31.32A.31.31,0,0,1,323.47,184.88Z" class="color3b232f svgShape"/><path fill="#233b23" d="M292.05,94a.32.32,0,0,1-.3-.22,11.57,11.57,0,0,0-4.22-6,.31.31,0,1,1,.38-.5,12.23,12.23,0,0,1,4.44,6.28.31.31,0,0,1-.2.39Z" class="color3b232f svgShape"/><path fill="#233b23" d="M258.2,145.28a.3.3,0,0,1-.26-.15c-2.8-4.24-8.71-7.67-8.77-7.7a.32.32,0,0,1-.12-.43.31.31,0,0,1,.43-.12c.25.14,6.1,3.54,9,7.91a.3.3,0,0,1-.09.43A.27.27,0,0,1,258.2,145.28Z" class="color3b232f svgShape"/><path fill="#324232" d="M296.17,129.76a1.89,1.89,0,1,1-1.89-1.89A1.89,1.89,0,0,1,296.17,129.76Z" class="color423242 svgShape"/><polygon fill="#6c6" points="300.3 134.22 300.3 126.27 308.8 130.33 300.3 134.22" class="color997597 svgShape"/><polygon fill="#6c6" points="288.34 134.22 288.34 126.27 279.83 130.33 288.34 134.22" class="color997597 svgShape"/><path fill="#a5f0a5" d="M371.28,271.59H4.44A4.43,4.43,0,0,1,0,267.16H0a4.43,4.43,0,0,1,4.44-4.44H371.28a4.44,4.44,0,0,1,4.43,4.44h0a4.42,4.42,0,0,1-4.43,4.43Z" class="colorf0c5a5 svgShape"/><rect width="47.99" height="42.4" x="147.49" y="144.96" fill="#6c6" class="color997597 svgShape"/><rect width="10.93" height="11.01" x="178.39" y="147.34" fill="#fff" class="colorffffff svgShape"/><rect width="8.71" height="1.48" x="179.87" y="161.81" fill="#233b23" class="color3b232f svgShape"/><rect width="8.71" height="1.48" x="179.87" y="165.59" fill="#233b23" class="color3b232f svgShape"/><rect width="109.95" height="75.19" x="110.59" y="187.46" fill="#75ff75" class="colorffb075 svgShape"/><rect width="109.95" height="13.38" x="110.59" y="187.46" fill="#a8ffa8" class="colorffcea8 svgShape"/><rect width="42.16" height="75.19" x="110.59" y="187.46" fill="#3efb3e" class="colorfb823e svgShape"/><rect width="42.16" height="13.38" x="110.59" y="187.46" fill="#75ff75" class="colorffb075 svgShape"/><path fill="#233b23" d="M195.89,197.31H179a2.63,2.63,0,0,1-2.63-2.63h0a2.63,2.63,0,0,1,2.63-2.63h16.93a2.63,2.63,0,0,1,2.63,2.63h0a2.6,2.6,0,0,1-.17.93A2.64,2.64,0,0,1,195.89,197.31Z" class="color3b232f svgShape"/><path fill="#0099cb" d="M53.81,143.27l-10.61-.22a21.59,21.59,0,0,0-20.87,14.62h0a21.58,21.58,0,0,0,3.56,20.41L42,198.21,73.2,148.65Z" class="color4ec2cf svgShape"/><path fill="#6dff6d" d="M39.21,238.92l2.84-8.5,20,1.73-2.19,13.07s-3.62,6.49-4.39,6.49-12.79-2.86-13-3.44S39.21,238.92,39.21,238.92Z" class="colorff7c6d svgShape"/><path fill="#43e243" d="M48,260.6l-4,0a1,1,0,0,0-.63.24.94.94,0,0,0-.31.7h0a.9.9,0,0,1-.23.62.92.92,0,0,1-.71.33l-36,.15a1,1,0,0,1-.78-.4.91.91,0,0,1-.12-.85c4-11.17,26.49-18.08,26.49-18.08,3.09-1.09,4.6-4.46,5.11-5.9a1,1,0,0,1,.39-.47,1,1,0,0,1,.62-.14c6.61.69,11.5,8,12.38,9.38a.65.65,0,0,0,.15.18.85.85,0,0,0,.25.17c4.49,2,7.64-1,9-2.9a1,1,0,0,1,1.59.12,30.27,30.27,0,0,1,3.19,17.84.87.87,0,0,1-.2.47.94.94,0,0,1-.73.34l-13.61.06a1,1,0,0,1-.87-.57,1.17,1.17,0,0,1-.08-.37h0a1,1,0,0,0-.24-.63A.94.94,0,0,0,48,260.6Z" class="colore2435f svgShape"/><path fill="#324232" d="M64.41,261.61a.87.87,0,0,1-.2.47.94.94,0,0,1-.73.34l-13.61.06a1,1,0,0,1-.87-.57,1.17,1.17,0,0,1-.08-.37,1,1,0,0,0-.24-.63.94.94,0,0,0-.7-.31l-4,0a1,1,0,0,0-.63.24.94.94,0,0,0-.31.7.9.9,0,0,1-.23.62.92.92,0,0,1-.71.33l-36,.15a1,1,0,0,1-.78-.4.91.91,0,0,1-.12-.85A13.85,13.85,0,0,1,7,258.14l57.67-.23A26.79,26.79,0,0,1,64.41,261.61Z" class="color423242 svgShape"/><path fill="#233b23" d="M36.94,245.81h0a.36.36,0,0,0,.13-.49,6.54,6.54,0,0,0-6.52-3.26.35.35,0,0,0-.29.41.36.36,0,0,0,.41.29,5.75,5.75,0,0,1,5.79,2.92A.35.35,0,0,0,36.94,245.81Z" class="color3b232f svgShape"/><path fill="#233b23" d="M30,248.71h0a.36.36,0,0,0,.13-.49A6.55,6.55,0,0,0,23.58,245a.35.35,0,0,0-.28.41.36.36,0,0,0,.41.29,5.75,5.75,0,0,1,5.79,2.92A.35.35,0,0,0,30,248.71Z" class="color3b232f svgShape"/><path fill="#6dff6d" d="M88,226.59l-9.17-6.36,4.44-21.69,11,7.43s6.49,3.63,6.49,4.4-2.86,12.79-3.43,13S88,226.59,88,226.59Z" class="colorff7c6d svgShape"/><path fill="#43e243" d="M109.64,217.83l0,4a.94.94,0,0,0,1,.94h0a.89.89,0,0,1,.61.23.92.92,0,0,1,.33.71l.15,36a1,1,0,0,1-.4.78.91.91,0,0,1-.85.12c-11.17-4-18.07-26.5-18.07-26.5-1.1-3.08-4.47-4.59-5.9-5.1a1,1,0,0,1-.48-.39,1,1,0,0,1-.13-.62c.68-6.61,8-11.5,9.37-12.38a.65.65,0,0,0,.18-.15.85.85,0,0,0,.17-.25c2-4.49-1-7.64-2.89-9a.9.9,0,0,1-.38-.78.93.93,0,0,1,.5-.8,30.26,30.26,0,0,1,17.84-3.19.87.87,0,0,1,.46.2.92.92,0,0,1,.34.72l.06,13.62a.94.94,0,0,1-.57.87.9.9,0,0,1-.37.07h0a1,1,0,0,0-.63.25A.94.94,0,0,0,109.64,217.83Z" class="colore2435f svgShape"/><path fill="#324232" d="M110.66,201.4a.87.87,0,0,1,.46.2.92.92,0,0,1,.34.72l.06,13.62a.94.94,0,0,1-.57.87.9.9,0,0,1-.37.07,1,1,0,0,0-.63.25.94.94,0,0,0-.31.7l0,4a.94.94,0,0,0,1,.94.89.89,0,0,1,.61.23.92.92,0,0,1,.33.71l.15,36a1,1,0,0,1-.4.78.91.91,0,0,1-.85.12,13.6,13.6,0,0,1-3.26-1.76L107,201.16A27.09,27.09,0,0,1,110.66,201.4Z" class="color423242 svgShape"/><path fill="#233b23" d="M94.85,228.86h0a.36.36,0,0,0-.49-.12,6.54,6.54,0,0,0-3.26,6.52.35.35,0,0,0,.41.29.37.37,0,0,0,.29-.41,5.74,5.74,0,0,1,2.93-5.79A.37.37,0,0,0,94.85,228.86Z" class="color3b232f svgShape"/><path fill="#233b23" d="M97.75,235.84h0a.36.36,0,0,0-.49-.13A6.54,6.54,0,0,0,94,242.22a.35.35,0,0,0,.41.29.35.35,0,0,0,.29-.41,5.74,5.74,0,0,1,2.93-5.79A.36.36,0,0,0,97.75,235.84Z" class="color3b232f svgShape"/><path fill="#0099cb" d="M75.09,151.78H68.73A23.79,23.79,0,0,0,46.65,166.7l-27,67.18h55l20.46-43.64,37.27-.82a22.05,22.05,0,0,0,22.06-22.07v-7.27Z" class="color4ec2cf svgShape"/><path fill="#233b23" d="M74.6,234.19h-55a.31.31,0,0,1-.26-.14.3.3,0,0,1,0-.29l27-67.18a24.08,24.08,0,0,1,9.2-11.2.31.31,0,0,1,.43.1.3.3,0,0,1-.09.43A23.31,23.31,0,0,0,47,166.81L20.09,233.56H74.4l20.37-43.45a.34.34,0,0,1,.28-.19l37.27-.82a21.75,21.75,0,0,0,21.76-21.75v-7l-79-8.27H68.73A23.38,23.38,0,0,0,59.4,154a.32.32,0,0,1-.42-.16.33.33,0,0,1,.16-.42,24,24,0,0,1,9.59-2h6.36l79.33,8.3a.32.32,0,0,1,.29.31v7.27a22.37,22.37,0,0,1-22.38,22.38l-37.07.82L74.88,234A.31.31,0,0,1,74.6,234.19Z" class="color3b232f svgShape"/><path fill="#fff" d="M84.05,164.35l50.51,10.58a19.06,19.06,0,0,0,15.18-3.31,17.45,17.45,0,0,0,1.57-1.3h0a18.79,18.79,0,0,0,3.85-4.92,19,19,0,0,0,2-12.73l-11-56a17.33,17.33,0,0,0-15.55-13.93l-2.18-.19H107.06l-3.59.67a18.74,18.74,0,0,0-13.31,10L72.5,128.61Z" class="colorffffff svgShape"/><path fill="#233b23" d="M154.35,138.92a.32.32,0,0,1-.31-.26l-8.21-41.9a17,17,0,0,0-15.26-13.68l-2.19-.18H107.06l-3.53.67a.32.32,0,0,1-.12-.62l3.59-.67h21.41l2.21.18a17.64,17.64,0,0,1,15.83,14.19l8.21,41.9a.31.31,0,0,1-.25.37Z" class="color3b232f svgShape"/><path fill="#233b23" d="M138.45,175.64a19.54,19.54,0,0,1-3.95-.4L84,164.66a.29.29,0,0,1-.23-.21L72.2,128.7a.31.31,0,0,1,0-.23L89.87,93.16a19.11,19.11,0,0,1,5.43-6.58.32.32,0,0,1,.44,0,.32.32,0,0,1-.06.45,18.35,18.35,0,0,0-5.24,6.36l-17.6,35.19,11.45,35.45,50.34,10.54a18.73,18.73,0,0,0,14.92-3.25,19.15,19.15,0,0,0,1.55-1.28,18.69,18.69,0,0,0,5.7-17.36.32.32,0,0,1,.62-.12,19.35,19.35,0,0,1-5.9,17.95,16.9,16.9,0,0,1-1.6,1.31A19.29,19.29,0,0,1,138.45,175.64Z" class="color3b232f svgShape"/><path fill="#233b23" d="M84.05,164.35h0a2.88,2.88,0,0,0,2.89-2.89V132.61a2.87,2.87,0,0,0-1.19-2.34,2.83,2.83,0,0,0-1.7-.55h0a2.83,2.83,0,0,0-1.7.55,2.87,2.87,0,0,0-1.2,2.34v28.85a3,3,0,0,0,.38,1.44A2.9,2.9,0,0,0,84.05,164.35Z" class="color3b232f svgShape"/><path fill="#233b23" d="M107,66.32c-2.25-1.8-2.18-4.08,3.23-4.29a7.77,7.77,0,0,1,9.94.14c2.69,2.44,6.17,9.08-.88,13.67-.19.39-.65,1.29-1,1.24C108.85,75.5,107,66.32,107,66.32Z" class="color3b232f svgShape"/><path fill="#43e243" d="M130.59,82.77l-2.18-.19H107.06l-1.85.34c.45,3.83,5.9,7,12.08,7a15.32,15.32,0,0,0,12.64-6.25l.69-.94Z" class="colore2435f svgShape"/><path fill="#6dff6d" d="M119.32,75.84c-3.89,1.21-4.36-4.51-4.42-5.54-2.12.19-5.7-3.17-6.26-6.81-2.58,2.31-2.11,5.55-1.82,7L105,72.33l1.15.84c1.06,2.9,1.13,6.63,2.51,6.51a9.57,9.57,0,0,0,2.78-.76l2.16,3.66h-6.58c.33,4.8,14.36,9.44,21.35,0l-4.93,0Z" class="colorff7c6d svgShape"/><path fill="#fff" d="M107.89,69.33a1.81,1.81,0,0,1,1.35.41,1.72,1.72,0,0,1-1,.7Z" class="colorffffff svgShape"/><path fill="#43e243" d="M107.12,76.62a1.06,1.06,0,0,1-.26-1.14s2-.79,2-.82A2.67,2.67,0,0,1,107.12,76.62Z" class="colore2435f svgShape"/><path fill="#59ff59" d="M116.78,70a1.48,1.48,0,1,1-1.85-1A1.48,1.48,0,0,1,116.78,70Z" class="colorff6a59 svgShape"/><path fill="#233b23" d="M115,71.34a.07.07,0,0,1-.06,0,.86.86,0,1,1,.8-1.53.08.08,0,0,1,0,.11.07.07,0,0,1-.1,0,.71.71,0,1,0-.66,1.25.08.08,0,0,1,0,.11Z" class="color3b232f svgShape"/><path fill="#233b23" d="M115.31,70.91a.07.07,0,0,1-.06,0,.08.08,0,0,1,0-.11.34.34,0,0,0-.12-.47.33.33,0,0,0-.26,0,.39.39,0,0,0-.21.15.08.08,0,0,1-.11,0,.07.07,0,0,1,0-.11.5.5,0,0,1,.69-.17.56.56,0,0,1,.23.31.5.5,0,0,1-.06.38A.1.1,0,0,1,115.31,70.91Z" class="color3b232f svgShape"/><path fill="#59ff59" d="M111.74,71.94a1.92,1.92,0,1,1-2.4-1.26A1.92,1.92,0,0,1,111.74,71.94Z" class="colorff6a59 svgShape"/><path fill="#43e243" d="M106.87,75.49a1,1,0,0,1-.39-1.21c1.06.16,1.51.56,2.35.41C107,75.6,106.87,75.49,106.87,75.49Z" class="colore2435f svgShape"/><path fill="#233b23" d="M107.54,75.33a.09.09,0,0,1-.12-.06.1.1,0,0,1,.06-.12,7,7,0,0,0,1.46-.64.1.1,0,1,1,.13.14,7.25,7.25,0,0,1-1.53.68Z" class="color3b232f svgShape"/><path fill="#233b23" d="M109.27,69.83a.06.06,0,0,1-.07,0,2,2,0,0,0-1.3-.4s0,0,0,0a.09.09,0,0,1-.1.09.1.1,0,0,1-.09-.1.24.24,0,0,1,.13-.2c.25-.14.85,0,1.48.4a.1.1,0,0,1,0,.13S109.29,69.83,109.27,69.83Z" class="color3b232f svgShape"/><path fill="#233b23" d="M109.36,70.19a.08.08,0,0,1-.08,0l-.18-.11a.09.09,0,0,1,0-.13.1.1,0,0,1,.13,0l.18.11a.1.1,0,0,1,0,.13S109.38,70.19,109.36,70.19Z" class="color3b232f svgShape"/><path fill="#233b23" d="M109.09,70.38a.09.09,0,0,1-.11,0l-.09-.13a.1.1,0,0,1,0-.13.09.09,0,0,1,.13,0l.09.13a.09.09,0,0,1,0,.13Z" class="color3b232f svgShape"/><circle cx="120.22" cy="57.5" r="5.32" fill="#233b23" class="color3b232f svgShape" transform="rotate(-21.88 120.21 57.503)"/><path fill="#59ff59" d="M106.82,70.53a8.45,8.45,0,0,0-.63,2.64s-1.51-.59-1.24-.89S106.82,70.53,106.82,70.53Z" class="colorff6a59 svgShape"/><path fill="#233b23" d="M108.56,69.81a.52.52,0,0,1-.26.68c-.23.08-.5-.11-.6-.41a.47.47,0,1,1,.86-.27Z" class="color3b232f svgShape"/><path fill="#fff" d="M108.61,69.68a.22.22,0,0,1-.16.28.22.22,0,1,1-.13-.42A.22.22,0,0,1,108.61,69.68Z" class="colorffffff svgShape"/><path fill="#233b23" d="M107.85,69.68h0a1.13,1.13,0,0,1-.59-.34.09.09,0,0,1,0-.13.11.11,0,0,1,.14,0,.89.89,0,0,0,.48.26.11.11,0,0,1,.07.12A.12.12,0,0,1,107.85,69.68Z" class="color3b232f svgShape"/><path fill="#233b23" d="M108,69.49h0a.66.66,0,0,1-.46-.34.11.11,0,0,1,0-.13.1.1,0,0,1,.14,0,.48.48,0,0,0,.32.25.09.09,0,0,1,.07.11A.09.09,0,0,1,108,69.49Z" class="color3b232f svgShape"/><path fill="#233b23" d="M108.77,68.43a.33.33,0,0,1-.16-.05,2,2,0,0,0-1.33-.16.38.38,0,0,1-.46-.25.38.38,0,0,1,.26-.47,2.55,2.55,0,0,1,1.91.24.37.37,0,0,1,.14.51A.37.37,0,0,1,108.77,68.43Z" class="color3b232f svgShape"/><path fill="#233b23" d="M106.05,72.84l.41.21C106.39,72.77,106.23,72.82,106.05,72.84Z" class="color3b232f svgShape"/><path fill="#fff" d="M115.65,72a.41.41,0,0,1-.41.41.42.42,0,0,1-.41-.41.41.41,0,0,1,.41-.41A.41.41,0,0,1,115.65,72Z" class="colorffffff svgShape"/><path fill="#233b23" d="M111.48,78.92a9.15,9.15,0,0,0,3.3-2.54L113.1,81.6Z" class="color3b232f svgShape"/><path fill="#324232" d="M71.56,141.34H50.85l-2.94-25a1.46,1.46,0,0,1,.63-1.37,1.48,1.48,0,0,1,.81-.24H67.12a1.47,1.47,0,0,1,1,.37,1.51,1.51,0,0,1,.49.93Z" class="color423242 svgShape"/><path fill="#0099cb" d="M60.13,121.54a1.64,1.64,0,1,1-1.64-1.64A1.63,1.63,0,0,1,60.13,121.54Z" class="color4ec2cf svgShape"/><path fill="#6dff6d" d="M86.92,133.91s-7.39-1.73-9.24-3.95-6.53-7.27-8.26-7.64l1.23,10.85c-5.2,5.42-16,1.78-22.32-2.54a2.73,2.73,0,0,0-2.6-.26,2.61,2.61,0,0,0-1.28,1.12h0a2.73,2.73,0,0,0-.22,2.31,2.76,2.76,0,0,0,.59.94,8.3,8.3,0,0,0,1.67,1.39l-.35,1a5.25,5.25,0,0,0-.26,1.16,4.54,4.54,0,0,0,.12,1.64,1.81,1.81,0,0,0,.25.64h0a3.41,3.41,0,0,0-.66,1.71,3.3,3.3,0,0,0,.33,1.79c1.88,3.84,5.8,6.44,14.25,6.86C70,151.41,86.93,160,86.93,160Z" class="colorff7c6d svgShape"/><path fill="#233b23" d="M55.7,142.11a.28.28,0,0,1-.13,0,31.09,31.09,0,0,1-7.9-5.27.33.33,0,0,1,0-.45.32.32,0,0,1,.45,0,30.73,30.73,0,0,0,7.71,5.16.31.31,0,0,1,.16.41A.3.3,0,0,1,55.7,142.11Z" class="color3b232f svgShape"/><path fill="#233b23" d="M52.74,146.55a.29.29,0,0,1-.16,0,18.85,18.85,0,0,1-5.53-5.15.32.32,0,0,1,.53-.36,18.39,18.39,0,0,0,5.31,5,.31.31,0,0,1,.12.43A.32.32,0,0,1,52.74,146.55Z" class="color3b232f svgShape"/><path fill="#233b23" d="M93.74,130.48a.31.31,0,0,1-.31-.26l-2.83-15.9a16,16,0,0,1-.06-5.26,16.21,16.21,0,0,1,1.66-5l4.72-8.89a.3.3,0,0,1,.42-.13.3.3,0,0,1,.13.42l-4.71,8.89a15.36,15.36,0,0,0-1.59,4.79,15.08,15.08,0,0,0,0,5.06l2.83,15.9a.32.32,0,0,1-.25.37Z" class="color3b232f svgShape"/><path fill="#233b23" d="M147.82,155.79a.31.31,0,0,1-.31-.25,19.62,19.62,0,0,0-15-15.18L85.75,130.09a.32.32,0,0,1-.24-.38.3.3,0,0,1,.37-.24l46.75,10.27a20.28,20.28,0,0,1,15.5,15.67.33.33,0,0,1-.25.38Z" class="color3b232f svgShape"/><path fill="#233b23" d="M132.56,140.36a.3.3,0,0,1-.3-.24l-4.8-21.39a.31.31,0,0,1,.61-.14l4.8,21.39a.32.32,0,0,1-.24.38Z" class="color3b232f svgShape"/><path fill="#233b23" d="M127.93,103.2h-.06a.32.32,0,0,1-.25-.37c.57-2.83,3.22-11.93,13.73-11.93h.56a.31.31,0,0,1,.3.33.3.3,0,0,1-.32.3c-10.21-.3-12.94,7.88-13.65,11.42A.31.31,0,0,1,127.93,103.2Z" class="color3b232f svgShape"/><path fill="#233b23" d="M94.32,189.57a.32.32,0,0,1-.24-.11c-.09-.11-2.16-2.58-3.52-7.89a.33.33,0,0,1,.23-.39.31.31,0,0,1,.38.23,20.64,20.64,0,0,0,3.39,7.64.31.31,0,0,1,0,.44A.32.32,0,0,1,94.32,189.57Z" class="color3b232f svgShape"/><path fill="#233b23" d="M93,190.43h0a30.11,30.11,0,0,1-11.23-3.12.31.31,0,1,1,.3-.55,29.53,29.53,0,0,0,11,3,.32.32,0,0,1,0,.63Z" class="color3b232f svgShape"/><path fill="#233b23" d="M73.86,226.06H26.52a.32.32,0,0,1-.31-.32.31.31,0,0,1,.31-.31H73.86a.31.31,0,0,1,.31.31A.32.32,0,0,1,73.86,226.06Z" class="color3b232f svgShape"/><path fill="#233b23" d="M60.54,224.33l-.11,0a.32.32,0,0,1-.18-.41s1.77-4.36,4.14-10.25a.31.31,0,1,1,.58.24c-2.36,5.88-4.13,10.24-4.13,10.24A.31.31,0,0,1,60.54,224.33Z" class="color3b232f svgShape"/><path fill="#233b23" d="M66.67,209.11a.22.22,0,0,1-.11,0,.32.32,0,0,1-.18-.41c.9-2.25,1.84-4.6,2.75-6.92a.32.32,0,0,1,.59.23c-.92,2.33-1.85,4.67-2.75,6.92A.31.31,0,0,1,66.67,209.11Z" class="color3b232f svgShape"/><path fill="#233b23" d="M71.37,197.27l-.12,0a.33.33,0,0,1-.18-.41c.71-1.81,1.39-3.55,2-5.15a.33.33,0,0,1,.41-.18.32.32,0,0,1,.18.41c-.61,1.6-1.29,3.34-2,5.15A.32.32,0,0,1,71.37,197.27Z" class="color3b232f svgShape"/><path fill="#233b23" d="M75.62,186.12a.2.2,0,0,1-.11,0,.31.31,0,0,1-.19-.4,23.69,23.69,0,0,0,.94-2.91c.23-1.4,1.49-2.42,3.72-3a.31.31,0,0,1,.39.22.33.33,0,0,1-.22.39c-2,.53-3.08,1.37-3.27,2.52a24.93,24.93,0,0,1-1,3A.31.31,0,0,1,75.62,186.12Z" class="color3b232f svgShape"/><path fill="#233b23" d="M84.46,179.71a.31.31,0,0,1-.31-.28.31.31,0,0,1,.27-.35c.71-.09.71-1.09.63-2.49,0-1-.09-1.79.3-2.2a.78.78,0,0,1,.59-.24.32.32,0,0,1,0,.63.16.16,0,0,0-.13,0c-.21.22-.16,1.06-.13,1.73.08,1.33.17,3-1.18,3.15Z" class="color3b232f svgShape"/><path fill="#233b23" d="M98.26,174.85h0l-7.07,0a.32.32,0,0,1-.31-.32.31.31,0,0,1,.32-.31h0l7.07,0a.32.32,0,1,1,0,.63Z" class="color3b232f svgShape"/><path fill="#233b23" d="M112.89,174.94h0l-9-.06a.31.31,0,0,1-.31-.31.34.34,0,0,1,.32-.32l9,.06a.32.32,0,1,1,0,.63Z" class="color3b232f svgShape"/><path fill="#233b23" d="M127.85,175h0l-9.37-.05a.32.32,0,0,1-.32-.32.33.33,0,0,1,.32-.31l9.37,0a.32.32,0,0,1,.31.32A.31.31,0,0,1,127.85,175Z" class="color3b232f svgShape"/><path fill="#233b23" d="M91.85,164.3a.31.31,0,0,1-.31-.32V133.54a.32.32,0,1,1,.63,0V164A.32.32,0,0,1,91.85,164.3Z" class="color3b232f svgShape"/><circle cx="296.38" cy="240.87" r="21.57" fill="#5cff5c" class="colorffa25c svgShape" transform="rotate(-76.59 296.381 240.872)"/><path fill="#233b23" d="M296.38,262.62a21.78,21.78,0,0,1-21.75-21.75.18.18,0,0,1,.17-.17.17.17,0,0,1,.17.17A21.41,21.41,0,1,0,306.44,222a.16.16,0,0,1-.07-.23.18.18,0,0,1,.23-.07,21.75,21.75,0,0,1-10.22,40.94Z" class="color3b232f svgShape"/><path fill="#233b23" d="M303.15,220.56h0a21.53,21.53,0,0,0-6.72-1.08.16.16,0,0,1-.17-.17.17.17,0,0,1,.17-.17,21.55,21.55,0,0,1,6.82,1.1.16.16,0,0,1,.11.21A.17.17,0,0,1,303.15,220.56Z" class="color3b232f svgShape"/><circle cx="296.38" cy="240.87" r="16.77" fill="#75ff75" class="colorffb075 svgShape" transform="rotate(-76.62 296.37 240.875)"/><path fill="#b0ffb0" d="M313.14,240.87A16.73,16.73,0,0,0,310,231l-23.41,23.42a16.77,16.77,0,0,0,26.59-13.59Z" class="colorffd2b0 svgShape"/><path fill="#b0ffb0" d="M303.26,225.59l-22.17,22.17a16.76,16.76,0,0,0,1.79,3.07l23.45-23.45A16.76,16.76,0,0,0,303.26,225.59Z" class="colorffd2b0 svgShape"/><path fill="#fff" d="M239.51,48.69A48.2,48.2,0,1,0,185,96.47l6.33,13.81,6.51-13.84A48.19,48.19,0,0,0,239.51,48.69Z" class="colorffffff svgShape"/><path fill="#233b23" d="M143.11,49.18a.49.49,0,0,1-.49-.49A48.74,48.74,0,0,1,191.31,0a.49.49,0,0,1,0,1A47.76,47.76,0,0,0,143.6,48.69.49.49,0,0,1,143.11,49.18Z" class="color3b232f svgShape"/><path fill="#233b23" d="M191.31,110.77a.49.49,0,0,1-.45-.28l-6.22-13.57A49,49,0,0,1,146.81,68.5a.5.5,0,0,1,.25-.65.49.49,0,0,1,.65.25A48,48,0,0,0,185,96a.48.48,0,0,1,.38.28l5.89,12.86,6.06-12.88a.48.48,0,0,1,.38-.28A47.72,47.72,0,0,0,205.15,3a.49.49,0,0,1,.29-.94,48.7,48.7,0,0,1-7.29,94.81l-6.4,13.6A.49.49,0,0,1,191.31,110.77Z" class="color3b232f svgShape"/><path fill="#3efb3e" d="M205.47,45.07l-10.92-19a2.29,2.29,0,0,1,.84-3.12h0a2.29,2.29,0,0,1,3.12.83l10.91,19a2.28,2.28,0,0,1-.83,3.12h0A2.28,2.28,0,0,1,205.47,45.07Z" class="colorfb823e svgShape"/><path fill="#3efb3e" d="M177.94,45.07l10.92-19A2.29,2.29,0,0,0,188,23h0a2.29,2.29,0,0,0-3.12.83L174,42.78a2.29,2.29,0,0,0,.84,3.12h0A2.29,2.29,0,0,0,177.94,45.07Z" class="colorfb823e svgShape"/><path fill="#3efb3e" d="M218.18,42.43h-7.37a3.69,3.69,0,0,1-1.51,4.7,3.8,3.8,0,0,1-1.85.5,3.71,3.71,0,0,1-3.21-1.86l-1.92-3.34H181.09l-1.92,3.34A3.71,3.71,0,0,1,176,47.63h0a3.75,3.75,0,0,1-1.85-.5,3.69,3.69,0,0,1-1.52-4.7h-8.15a3.6,3.6,0,1,0,0,7.2h0l5.68,21.62a5.19,5.19,0,0,0,5,3.87h32.18a5.18,5.18,0,0,0,5-3.87L218,49.63h.14a3.6,3.6,0,0,0,0-7.2ZM180.76,72.74h0a1.79,1.79,0,0,1-1.8-1.8l-2.2-14.75a1.81,1.81,0,0,1,3.61,0l2.19,14.75A1.8,1.8,0,0,1,180.76,72.74Zm12.35-1.8a1.8,1.8,0,1,1-3.6,0V56.19a1.8,1.8,0,0,1,3.6,0Zm10.62,0a1.8,1.8,0,1,1-3.6,0l2.19-14.75a1.8,1.8,0,0,1,1.8-1.8h0a1.79,1.79,0,0,1,1.8,1.8Zm7.39-19.6H194.49a.76.76,0,1,1,0-1.52h16.63a.76.76,0,1,1,0,1.52Z" class="colorfb823e svgShape"/><path fill="#b0ffb0" d="M352.23,210.44a3.42,3.42,0,0,0-.65-.72L332.18,193a3.19,3.19,0,0,0-2.5-.69,3.28,3.28,0,0,0-1.6.72l-19,17.07a3.39,3.39,0,0,0-.57.63,3.23,3.23,0,0,0-.58,1.86l.37,46.65a3.21,3.21,0,0,0,1.09,2.4,3.26,3.26,0,0,0,2.15.8l38.41-.3a3.21,3.21,0,0,0,3.19-3.25l-.36-46.65A3.25,3.25,0,0,0,352.23,210.44Zm-22-10.63a2.18,2.18,0,1,1,2.16-2.2A2.18,2.18,0,0,1,330.25,199.81Z" class="colorffd2b0 svgShape"/><path fill="#233b23" d="M311.11,262.62a3.47,3.47,0,0,1-3.08-3.43l-.37-46.65a3.51,3.51,0,0,1,.62-2,3.63,3.63,0,0,1,.62-.68l19-17.06a3.55,3.55,0,0,1,1.74-.79,3.5,3.5,0,0,1,2.7.74l19.41,16.78a4,4,0,0,1,.7.77h0a3.57,3.57,0,0,1,.58,1.9l.36,46.65a3.47,3.47,0,0,1-3.45,3.51l-38.41.3Zm19.37-70.11a2.76,2.76,0,0,0-.76,0,3,3,0,0,0-1.47.66l-19,17.07a2.93,2.93,0,0,0-.53.58,2.87,2.87,0,0,0-.52,1.7l.36,46.66a2.94,2.94,0,0,0,3,2.93l38.41-.29a2.93,2.93,0,0,0,2.49-1.42,3,3,0,0,0,.44-1.56l-.36-46.65a3,3,0,0,0-.5-1.62,2.89,2.89,0,0,0-.6-.66L332,193.14A3,3,0,0,0,330.48,192.51Zm-.53,7.55a2.44,2.44,0,0,1-1.43-.69,2.44,2.44,0,0,1,1.69-4.18,2.44,2.44,0,1,1,0,4.88Zm.5-4.34h-.23a1.91,1.91,0,0,0-1.91,1.93,2,2,0,0,0,.57,1.36,1.92,1.92,0,1,0,1.57-3.28Z" class="color3b232f svgShape"/><path fill="#43e243" d="M338.32,234.77a5.69,5.69,0,0,0-2.38-2.13,16.56,16.56,0,0,0-3.53-1.11l-.17,0-.17,0-.16,0-.14,0a26.66,26.66,0,0,1-2.82-.72,4.14,4.14,0,0,1-1.71-1.1,3.05,3.05,0,0,1-.69-2.1h0a3.57,3.57,0,0,1,1.15-2.93,5.48,5.48,0,0,1,3.53-1,7.57,7.57,0,0,1,2.49.42,11.08,11.08,0,0,1,2.59,1.31l2.17-3a16,16,0,0,0-2.39-1.3,12.1,12.1,0,0,0-2.42-.76,11.6,11.6,0,0,0-1.17-.12l0-3-3.64,0,0,3.08a9.29,9.29,0,0,0-2.37.69,6,6,0,0,0-2.81,2.61,9,9,0,0,0-.91,4.33v0a6.92,6.92,0,0,0,1.08,4.12,5.52,5.52,0,0,0,2.55,2,24.45,24.45,0,0,0,3.88,1l.19,0,.19,0a.15.15,0,0,0,.09,0l.1,0a13.86,13.86,0,0,1,2.47.64,3.67,3.67,0,0,1,1.58,1.11,3.21,3.21,0,0,1,.62,2v0a3.58,3.58,0,0,1-1.23,3,6,6,0,0,1-3.77,1,7.49,7.49,0,0,1-3.4-.75,8.92,8.92,0,0,1-2.87-2.3l-2.42,3a12.83,12.83,0,0,0,2.54,2.06,11.08,11.08,0,0,0,2.9,1.22,11.66,11.66,0,0,0,1.8.31l0,3,3.64,0,0-3.06a11,11,0,0,0,2.73-.68,6,6,0,0,0,2.91-2.52,8.15,8.15,0,0,0,.95-4.19v0A7.37,7.37,0,0,0,338.32,234.77Z" class="colore2435f svgShape"/><circle cx="148.49" cy="27.53" r="14.3" fill="#43e243" class="colore2435f svgShape"/><path fill="#fff" d="M147.89,23.62h0l-1.82,1-.27-1.08,2.29-1.22h1.21V32.76h-1.37Z" class="colorffffff svgShape"/><circle cx="24.28" cy="63.71" r="19.94" fill="#b0ffb0" class="colorffd2b0 svgShape"/><path fill="#233b23" d="M31.32,82.59a.22.22,0,0,1-.21-.14.23.23,0,0,1,.13-.29A19.81,19.81,0,0,0,44,63.71a.22.22,0,0,1,.23-.22.22.22,0,0,1,.22.22,20.26,20.26,0,0,1-13,18.87Z" class="color3b232f svgShape"/><path fill="#233b23" d="M17.13,82.55h-.08a20.17,20.17,0,0,1,7.23-39,20.08,20.08,0,0,1,19.2,14,.22.22,0,0,1-.14.28.23.23,0,0,1-.28-.15,19.72,19.72,0,0,0-38.5,6A19.85,19.85,0,0,0,17.21,82.12a.23.23,0,0,1,.13.29A.23.23,0,0,1,17.13,82.55Z" class="color3b232f svgShape"/><path fill="#43e243" d="M37.4,53.7a1.78,1.78,0,0,0-2.51.15L22.19,68.21l-8.19-7a1.78,1.78,0,0,0-2.51,2.51l9,10.52a2.94,2.94,0,0,0,.48.45,2.7,2.7,0,0,0,3.77-.62l0-.07,12.92-18A1.78,1.78,0,0,0,37.4,53.7Z" class="colore2435f svgShape"/><path fill="#3efb3e" d="M50.16,88.75a2.87,2.87,0,1,1-2.87-2.87A2.88,2.88,0,0,1,50.16,88.75Z" class="colorfb823e svgShape"/><rect width="11.49" height="3.48" x="53.72" y="87.01" fill="#b0ffb0" class="colorffd2b0 svgShape" rx="1.61"/><circle cx="47.29" cy="102.52" r="2.87" fill="#3efb3e" class="colorfb823e svgShape"/><rect width="17.27" height="3.48" x="53.72" y="100.78" fill="#b0ffb0" class="colorffd2b0 svgShape" rx="1.61"/><path fill="#233b23" d="M164.4,145.32a.32.32,0,1,1,0-.63l31.08,0h0a.31.31,0,0,1,.31.31.32.32,0,0,1-.31.32l-31.08,0Z" class="color3b232f svgShape"/><path fill="#233b23" d="M155.89,187.84a.31.31,0,0,1-.31-.31.31.31,0,0,1,.31-.32l11.22,0h0a.31.31,0,0,1,.31.31.32.32,0,0,1-.31.32l-11.22,0Z" class="color3b232f svgShape"/><path fill="#233b23" d="M170.19,187.81a.32.32,0,0,1-.32-.31.32.32,0,0,1,.32-.32l38.58-.09h0a.32.32,0,1,1,0,.63l-38.58.09Z" class="color3b232f svgShape"/></svg>