<svg xmlns="http://www.w3.org/2000/svg" data-name="Layer 1" viewBox="0 0 375.71 301.2"><defs><clipPath id="a"><path fill="none" d="M246.22,62.27a2.29,2.29,0,0,0,3.21,1.92,2.29,2.29,0,0,0-3.21-1.92Z"/></clipPath><clipPath id="b"><path fill="none" d="M255.26,65.75a2.87,2.87,0,0,1-2,.55A2.92,2.92,0,0,1,251.6,65a2.87,2.87,0,0,1,2-.55A2.92,2.92,0,0,1,255.26,65.75Z"/></clipPath></defs><path fill="#f0fff0" d="M251,74.59C231.6,86.15,236.81,111.2,264.64,106s38.49,46.23,77.33.77-17.2-63.86-44.65-41.17S269.75,63.47,251,74.59Z" class="colorfff7f0 svgShape"/><path fill="#f0fff0" d="M99.6,228.72C37,228.72,28.1,277,84.31,270.13s57.2,24.66,75.94,8.38S159.26,228.72,99.6,228.72Z" class="colorfff7f0 svgShape"/><path fill="#a5f0a5" d="M371.28,301.2H4.44a4.45,4.45,0,0,1-3.27-1.44,4.39,4.39,0,0,1-1.17-3H0a4.43,4.43,0,0,1,4.44-4.44H371.28a4.44,4.44,0,0,1,4.43,4.44h0a4.44,4.44,0,0,1-4.43,4.44Z" class="colorf0c5a5 svgShape"/><path fill="#f0fff0" d="M131.15,35.43c-123.1,9.11-167.64,168.63-68,177s114.48,20,134.11,52.76c22.19,37,149.4,34,157.29-40.43s-60.65-98.61-109-98.61S257.87,26.07,131.15,35.43Z" class="colorfff7f0 svgShape"/><path fill="#3b4d3b" d="M280.44,44.06h0A29.47,29.47,0,0,0,251,14.57H197.36a9.26,9.26,0,0,0-3.12.55,9.12,9.12,0,0,0-6,8.57h0a9.13,9.13,0,0,1-9.12,9.13H138.44a12.82,12.82,0,0,0-12.82,12.82h0a12.8,12.8,0,0,0,12.82,12.81h6.9a8.4,8.4,0,0,1,8.39,8.39h0a8.39,8.39,0,0,1-8.39,8.38h-.49a8.38,8.38,0,0,0-8.38,8.38v22.51h41.91v-4.27a9.36,9.36,0,0,1,9.37-9.36h0a9.38,9.38,0,0,0,9.36-9.37v-.5a9.36,9.36,0,0,1,9.37-9.36h54.18l7.17-5a29.49,29.49,0,0,0,12.23-19.42A30.07,30.07,0,0,0,280.44,44.06Z" class="color4d3b4c svgShape"/><path fill="#233b23" d="M300.25,205.61a.65.65,0,0,1-.46-.2.63.63,0,0,1,0-.89c9.24-8.94,12.58-21.26,8.72-32.16-4.18-11.8-15.9-19.64-31.35-21a.64.64,0,0,1-.57-.69.63.63,0,0,1,.68-.57c15.95,1.4,28.07,9.55,32.43,21.83,4,11.37.57,24.2-9,33.49A.61.61,0,0,1,300.25,205.61Z" class="color3b232f svgShape"/><rect width="9.32" height="12.47" x="293.29" y="202.3" fill="#6c6" class="color998197 svgShape" transform="rotate(36.78 297.928 208.494)"/><rect width="13.14" height="30" x="278.66" y="210.54" fill="#3b4d3b" class="color4d3b4c svgShape" transform="rotate(36.78 285.215 225.514)"/><rect width="1.95" height="6.32" x="295.2" y="204.23" fill="#3b4d3b" class="color4d3b4c svgShape" transform="rotate(36.78 296.15 207.365)"/><rect width="1.95" height="6.32" x="298.57" y="206.75" fill="#3b4d3b" class="color4d3b4c svgShape" transform="rotate(36.78 299.52 209.868)"/><path fill="#fff" d="M287.88,227.52a3.3,3.3,0,1,1-.67-4.62A3.3,3.3,0,0,1,287.88,227.52Z" class="colorffffff svgShape"/><path fill="#0099cb" d="M287.29,227.08a2.57,2.57,0,1,1-.52-3.6A2.56,2.56,0,0,1,287.29,227.08Z" class="color38a4b0 svgShape"/><circle cx="256.53" cy="57.3" r="20.22" fill="#fff" class="colorffffff svgShape" transform="rotate(-80.13 256.538 57.302)"/><path fill="#233b23" d="M264.57,76.17a.31.31,0,0,1-.29-.19.31.31,0,0,1,.16-.41A19.9,19.9,0,0,0,272,44.83a.32.32,0,1,1,.49-.4,20.53,20.53,0,0,1-7.83,31.72A.25.25,0,0,1,264.57,76.17Z" class="color3b232f svgShape"/><path fill="#233b23" d="M246.08,74.93a.32.32,0,0,1-.16,0A20.53,20.53,0,1,1,269,41a.31.31,0,0,1,.06.44.32.32,0,0,1-.44.06,19.9,19.9,0,1,0-22.32,32.89.31.31,0,0,1,.1.43A.31.31,0,0,1,246.08,74.93Z" class="color3b232f svgShape"/><path fill="#6c6" d="M251.34,45.53a1.28,1.28,0,0,1-.29-2.53,11.45,11.45,0,0,1,2.62-.31,1.28,1.28,0,0,1,0,2.56,9.07,9.07,0,0,0-2,.24A1.15,1.15,0,0,1,251.34,45.53Z" class="color998197 svgShape"/><path fill="#6c6" d="M243.77,55.15a1.28,1.28,0,0,1-1.28-1.28,11.17,11.17,0,0,1,5-9.3,1.28,1.28,0,1,1,1.43,2.13,8.63,8.63,0,0,0-3.84,7.17A1.28,1.28,0,0,1,243.77,55.15Z" class="color998197 svgShape"/><polygon fill="#3b8a3b" points="261.24 235.71 240.42 224.04 238.1 244.9 257.13 254.83 265.34 247.29 266.18 237.4 261.24 235.71" class="color8a433b svgShape"/><polygon fill="#fff" points="246.52 249.29 257.13 254.83 265.34 247.29 266.18 237.4 261.24 235.71 252.41 230.76 246.52 249.29" class="colorffffff svgShape"/><path fill="#43e243" d="M275.44,247.86l-.24,3.51a.82.82,0,0,0,.17.57.85.85,0,0,0,.6.32h0a.93.93,0,0,1,.54.24.85.85,0,0,1,.24.65l-2.22,31.93a.86.86,0,0,1-.4.66.84.84,0,0,1-.77.05c-9.62-4.31-14.28-24.65-14.28-24.65-.76-2.8-3.65-4.36-4.89-4.91a.76.76,0,0,1-.39-.38.8.8,0,0,1-.08-.55c1-5.81,7.81-9.67,9.11-10.35a1.09,1.09,0,0,0,.17-.13.87.87,0,0,0,.17-.21c2.1-3.84-.43-6.83-2-8.18a.82.82,0,0,1-.28-.72.84.84,0,0,1,.49-.68,26.88,26.88,0,0,1,16-1.66.86.86,0,0,1,.4.21.87.87,0,0,1,.26.66l-.84,12.07a.86.86,0,0,1-.57.73.72.72,0,0,1-.33,0h0a.88.88,0,0,0-.57.18A.83.83,0,0,0,275.44,247.86Z" class="colore2435f svgShape"/><path fill="#324232" d="M277.41,233.37a.86.86,0,0,1,.4.21.87.87,0,0,1,.26.66l-.84,12.07a.86.86,0,0,1-.57.73.72.72,0,0,1-.33,0,.88.88,0,0,0-.57.18.83.83,0,0,0-.32.6l-.24,3.51a.82.82,0,0,0,.17.57.85.85,0,0,0,.6.32.93.93,0,0,1,.54.24.85.85,0,0,1,.24.65l-2.22,31.93a.86.86,0,0,1-.4.66.84.84,0,0,1-.77.05,12,12,0,0,1-2.77-1.78l3.56-51.1A25.56,25.56,0,0,1,277.41,233.37Z" class="color423242 svgShape"/><path fill="#233b23" d="M261.61,256.67h0a.32.32,0,0,0-.42-.15,5.8,5.8,0,0,0-3.32,5.57.31.31,0,0,0,.34.28.32.32,0,0,0,.29-.34,5.09,5.09,0,0,1,3-4.94A.31.31,0,0,0,261.61,256.67Z" class="color3b232f svgShape"/><path fill="#233b23" d="M263.73,263h0a.31.31,0,0,0-.42-.14,5.84,5.84,0,0,0-3.32,5.57.32.32,0,0,0,.63-.07,5.1,5.1,0,0,1,3-4.93A.33.33,0,0,0,263.73,263Z" class="color3b232f svgShape"/><path fill="#3efb3e" d="M224.73,139.81a192.77,192.77,0,0,0-48.5,5.43,30.07,30.07,0,0,0-22.43,24h0a30.09,30.09,0,0,0,7.45,25.5c15.45,16.89,44.84,54.7,76.87,63.82l13.81-43.39c-24-14.8-36.82-26-36.82-26l22.68-22.68L245.35,136Z" class="colorfb823e svgShape"/><polygon fill="#3b8a3b" points="84.72 230.77 107.83 224.06 98.09 205.47 77.43 212.62 74.83 223.46 79.67 232.13 84.72 230.77" class="color8a433b svgShape"/><polygon fill="#fff" points="86.76 209.39 77.43 212.62 74.83 223.46 79.67 232.13 84.72 230.77 94.6 227.9 86.76 209.39" class="colorffffff svgShape"/><path fill="#43e243" d="M66.14,228.63l-1.76-3a.78.78,0,0,0-.46-.38.86.86,0,0,0-.68.07h0a.83.83,0,0,1-.57.1.87.87,0,0,1-.57-.41l-16-27.71a.87.87,0,0,1,0-.77.82.82,0,0,1,.61-.47c10.39-1.8,25.62,12.46,25.62,12.46,2.2,1.89,5.46,1.57,6.8,1.34a.74.74,0,0,1,.53.09.84.84,0,0,1,.38.41c2.39,5.4-1.08,12.39-1.77,13.68a.68.68,0,0,0-.07.2.82.82,0,0,0,0,.27c.4,4.36,4.17,5.42,6.21,5.68a.83.83,0,0,1,.61,1.27,26.93,26.93,0,0,1-12.35,10.33.83.83,0,0,1-1-.36l-6-10.47a.83.83,0,0,1,.06-.92.67.67,0,0,1,.25-.22h0a.86.86,0,0,0,.37-.47A.79.79,0,0,0,66.14,228.63Z" class="colore2435f svgShape"/><path fill="#324232" d="M72.61,241.75a.83.83,0,0,1-1-.36l-6-10.47a.83.83,0,0,1,.06-.92.67.67,0,0,1,.25-.22.86.86,0,0,0,.37-.47.78.78,0,0,0-.07-.68l-1.76-3a.78.78,0,0,0-.46-.38.86.86,0,0,0-.68.07.83.83,0,0,1-.57.1.87.87,0,0,1-.57-.41l-16-27.71a.87.87,0,0,1,0-.77.82.82,0,0,1,.61-.47,12.42,12.42,0,0,1,3.29-.08L75.57,240.3A25.85,25.85,0,0,1,72.61,241.75Z" class="color423242 svgShape"/><path fill="#233b23" d="M72.69,213.6h0a.32.32,0,0,0,.43-.12,5.83,5.83,0,0,0-.36-6.47.32.32,0,0,0-.45,0,.33.33,0,0,0,0,.45,5.1,5.1,0,0,1,.3,5.75A.3.3,0,0,0,72.69,213.6Z" class="color3b232f svgShape"/><path fill="#233b23" d="M67.38,209.5h0a.31.31,0,0,0,.43-.12,5.83,5.83,0,0,0-.36-6.47.32.32,0,0,0-.49.41,5.1,5.1,0,0,1,.3,5.75A.3.3,0,0,0,67.38,209.5Z" class="color3b232f svgShape"/><path fill="#3efb3e" d="M267.05,141.21c26,27.28,12.49,48-6.91,52.92s-69.68-.66-79.87,1.64-31.23,35.5-75.6,42.08L88.89,198.73c37.8-12.49,75.93-35.83,83.82-41.09s63.44-10.52,63.44-10.52l-2-12.82Z" class="colorfb823e svgShape"/><path fill="#233b23" d="M238.12,258.87H238C210.44,251,184.58,221.67,169,204l-1.64,1.44c-12.77,11.23-32.06,28.19-62.69,32.73a.32.32,0,0,1-.34-.2L88.6,198.85a.31.31,0,0,1,0-.25.35.35,0,0,1,.19-.17c24.53-8.1,48.74-20.57,64.78-29.63a30.41,30.41,0,0,1,22.59-23.87,194.68,194.68,0,0,1,48.57-5.44l9.65-1.81-.52-3.33a.31.31,0,0,1,.1-.27.27.27,0,0,1,.28-.08l9.35,2,1.7-.32a.31.31,0,0,1,.29.09.32.32,0,0,1,.08.29l-.09.36,21.54,4.52a.32.32,0,0,1,.17.09c15.07,15.84,15.7,28,13.57,35.37-2.5,8.67-10.21,15.43-20.63,18.07-8.7,2.22-23.34,2.27-35.41,2,5.83,4.35,15.09,10.92,27.28,18.44a.31.31,0,0,1,.14.36l-13.81,43.39A.32.32,0,0,1,238.12,258.87Zm-69.05-55.64a.32.32,0,0,1,.24.11c15.41,17.54,41.17,46.86,68.6,54.83l13.64-42.86c-12.66-7.82-22.16-14.61-27.9-18.94a.31.31,0,0,1-.11-.35.3.3,0,0,1,.31-.21c12.2.26,27.35.27,36.22-2,10.19-2.59,17.74-9.18,20.17-17.63,2.08-7.23,1.45-19.11-13.35-34.7l-21.77-4.57a.28.28,0,0,1-.2-.14.34.34,0,0,1,0-.24l.05-.19-1.29.24h-.12l-9-1.88.49,3.18a.33.33,0,0,1-.26.36l-10,1.87a193.67,193.67,0,0,0-48.47,5.43,29.78,29.78,0,0,0-22.15,23.51.36.36,0,0,1-.16.22c-16,9-40.16,21.5-64.69,29.64l15.55,38.58c30.31-4.57,49.45-21.4,62.12-32.54l1.88-1.65A.34.34,0,0,1,169.07,203.23Z" class="color3b232f svgShape"/><path fill="#fff" d="M266.39,79.23H270a19,19,0,0,1,16.79,10l3.47,6.43-8.87,29.09-21.94,15H224.73l-4.44-13.31-18.74-1.24-35.5-.24s8.38-18.25,9.37-18.49c17.82-2.78,36.08-13.59,46.35-20.55A37.63,37.63,0,0,1,233,80.82a36.74,36.74,0,0,1,8.55-1.28l2.14-.07Z" class="colorffffff svgShape"/><path fill="#43e243" d="M268.44,80.69l1.05-1.46h-3.1l-22.68.24-2.14.07-.62,0a7.69,7.69,0,0,0,.75,6.49c1.87,3.1,5.67,5,9.9,5C255.12,91.1,262,89.75,268.44,80.69Z" class="colore2435f svgShape"/><path fill="#233b23" d="M222.67,117.53a.33.33,0,0,1-.27-.16l-.15-.25a13.76,13.76,0,0,1,1.1-15.85l8.77-10.72a.33.33,0,0,1,.45,0,.32.32,0,0,1,0,.44l-8.77,10.72a13.12,13.12,0,0,0-1.05,15.12l.15.26a.32.32,0,0,1-.1.43A.37.37,0,0,1,222.67,117.53Z" class="color3b232f svgShape"/><path fill="#fff" d="M237.83,142.51l52.84,3.15a16.39,16.39,0,0,0,9.78-2.55h0a16.35,16.35,0,0,0,5.3-22.06L290.3,95.68l-25.64.25,12.08,20.95-38.91-.14Z" class="colorffffff svgShape"/><path fill="#57b1cf" d="M203.36,141.7H152.13a3.06,3.06,0,0,1-2.81-1.86l-15.67-36.95a1.64,1.64,0,0,1,1.51-2.28h51.22a3,3,0,0,1,2.81,1.87l15.67,37A1.63,1.63,0,0,1,203.36,141.7Z" class="color57c2cf svgShape"/><path fill="#0099cb" d="M201.47,141.7H150.24a3.06,3.06,0,0,1-2.81-1.86l-15.67-36.95a1.64,1.64,0,0,1,1.51-2.28h51.22a3,3,0,0,1,2.81,1.87l15.67,37A1.63,1.63,0,0,1,201.47,141.7Z" class="color38a4b0 svgShape"/><path fill="#233b23" d="M237.83,142.51h0a2.09,2.09,0,0,1-2.09-2.1V118.84a2.22,2.22,0,0,1,.16-.82,2.11,2.11,0,0,1,1.93-1.28h0a2.1,2.1,0,0,1,2.1,2.1v21.57a2.11,2.11,0,0,1-2.1,2.1Z" class="color3b232f svgShape"/><path fill="#233b23" d="M244.81,62.2a1.54,1.54,0,1,0,2-.87A1.56,1.56,0,0,0,244.81,62.2Z" class="color3b232f svgShape"/><path fill="#233b23" d="M245.54,64.55a1.55,1.55,0,1,0,2-.87A1.56,1.56,0,0,0,245.54,64.55Z" class="color3b232f svgShape"/><path fill="#233b23" d="M246.2,66.36a1.55,1.55,0,1,0,2-.87A1.55,1.55,0,0,0,246.2,66.36Z" class="color3b232f svgShape"/><path fill="#233b23" d="M246.55,58.82A10.44,10.44,0,1,0,260.09,53,10.43,10.43,0,0,0,246.55,58.82Z" class="color3b232f svgShape"/><path fill="#3b8a3b" d="M243.71,79.47h6l-2.14-7.83,9.69-1.73,2.56,9.32h6.53C254.64,95.68,239.76,86.93,243.71,79.47Z" class="color8a433b svgShape"/><path fill="#233b23" d="M245.07,79.47h-1.36c-2.63,5,3.09,10.5,10.66,8.8C247.68,89,242.91,84,245.07,79.47Z" class="color3b232f svgShape"/><path fill="#233b23" d="M255.2,71.31a18.89,18.89,0,0,1-7.4,1l1,3.72C250.57,76.07,253.32,74.17,255.2,71.31Z" class="color3b232f svgShape"/><path fill="#5cff5c" d="M244.57,67.42a2.1,2.1,0,0,0,1.24.11,2.19,2.19,0,0,0,1.41-.94.12.12,0,0,0,0-.17.13.13,0,0,0-.17,0,2,2,0,1,1-3.26-2.17,2,2,0,0,1,2.72-.54.12.12,0,0,0,.17,0,.13.13,0,0,0,0-.17A2.17,2.17,0,0,0,245,63.2a2.21,2.21,0,0,0-1.74,2.6,2.18,2.18,0,0,0,.94,1.4A2.12,2.12,0,0,0,244.57,67.42Z" class="colorffa25c svgShape"/><path fill="#3b8a3b" d="M248.51,57.86s1.56.8,2.43-.44c0,0,2.1,1.4,2.87.37,0,0,1.36,1.69,2.71.67-1,1.51.09,2.1.91,2.35-.77.89-.26,3,1.13,2.31-1.56,1.35-1.7,4.58.28,5.34h0l-.07.16h0c-2.76,3.25-7.45,6.53-12.16,4-.34-.18-.57-.26-.75-.59C243.69,68.16,245.69,62.41,248.51,57.86Z" class="color8a433b svgShape"/><path fill="#338a33" d="M248.81,66.57c-.64-.66-.72-1.72-.19-1.78S251.63,66.78,248.81,66.57Z" class="color8a3b33 svgShape"/><path fill="#338a33" d="M261.48,69.07a2.31,2.31,0,1,1-1.3-3A2.31,2.31,0,0,1,261.48,69.07Z" class="color8a3b33 svgShape"/><path fill="#233b23" d="M258,68.88a.11.11,0,0,1-.07-.06,1.35,1.35,0,1,1,2.47-1.08.13.13,0,0,1-.06.17.12.12,0,0,1-.17-.07,1.1,1.1,0,1,0-2,.88.14.14,0,0,1-.07.16A.07.07,0,0,1,258,68.88Z" class="color3b232f svgShape"/><path fill="#233b23" d="M258.84,68.69a.12.12,0,0,1-.07-.07.13.13,0,0,1,.07-.16.54.54,0,0,0,.31-.28.58.58,0,0,0,0-.41.55.55,0,0,0-.28-.3.53.53,0,0,0-.41,0,.14.14,0,0,1-.16-.07.14.14,0,0,1,.08-.17.78.78,0,0,1,.6,0,.77.77,0,0,1,.4.45.78.78,0,0,1,0,.6.75.75,0,0,1-.44.4A.14.14,0,0,1,258.84,68.69Z" class="color3b232f svgShape"/><path fill="#fff" d="M246.22,62.27a2.29,2.29,0,0,0,3.21,1.92,2.29,2.29,0,0,0-3.21-1.92Z" class="colorffffff svgShape"/><path fill="#233b23" d="M249.41,64.31a.1.1,0,0,1-.1-.1,2.83,2.83,0,0,0-1.06-1.7,2.78,2.78,0,0,0-2-.13.12.12,0,0,1-.14,0l-.33-.38a.11.11,0,0,1,0-.17.13.13,0,0,1,.18,0l.29.32a2.91,2.91,0,0,1,2.12.17,3,3,0,0,1,1.17,1.88.12.12,0,0,1-.1.14Z" class="color3b232f svgShape"/><path fill="#fff" d="M247.57,63.21c0,.15.12.31.33.35s.4-.06.43-.22A.36.36,0,0,0,248,63C247.79,63,247.6,63.05,247.57,63.21Z" class="colorffffff svgShape"/><path fill="#233b23" d="M245.86,63.09a.13.13,0,0,1-.1-.11.13.13,0,0,1,.11-.14l.4,0a.12.12,0,0,1,.14.11.14.14,0,0,1-.12.14l-.39,0Z" class="color3b232f svgShape"/><path fill="#233b23" d="M246.17,63.48a.14.14,0,0,1-.1-.08.13.13,0,0,1,.07-.16l.27-.1a.13.13,0,0,1,.17.07.12.12,0,0,1-.08.16l-.27.1Z" class="color3b232f svgShape"/><g class="color000000 svgShape" clip-path="url(#a)"><path fill="#233b23" d="M248.76,63a1.14,1.14,0,1,1-.64-1.48A1.14,1.14,0,0,1,248.76,63Z" class="color3b232f svgShape"/><path fill="#fff" d="M248.64,63.65a.35.35,0,1,1-.2-.46A.35.35,0,0,1,248.64,63.65Z" class="colorffffff svgShape"/></g><path fill="#fff" d="M255.26,65.75a2.87,2.87,0,0,1-2,.55A2.92,2.92,0,0,1,251.6,65a2.87,2.87,0,0,1,2-.55A2.92,2.92,0,0,1,255.26,65.75Z" class="colorffffff svgShape"/><path fill="#233b23" d="M251.53,65.07a.16.16,0,0,0,.15,0,2.16,2.16,0,0,1,3.47.75.12.12,0,0,0,.12.06l.51,0a.12.12,0,0,0,.11-.14.12.12,0,0,0-.13-.11l-.43,0a2.91,2.91,0,0,0-1.67-1.33,3,3,0,0,0-2.13.57.13.13,0,0,0,0,.18Z" class="color3b232f svgShape"/><path fill="#fff" d="M253.63,65.51a.4.4,0,0,1-.64-.42.34.34,0,0,1,.47,0C253.64,65.18,253.72,65.38,253.63,65.51Z" class="colorffffff svgShape"/><path fill="#233b23" d="M255,66.59a.14.14,0,0,0,.16,0,.12.12,0,0,0,0-.17l-.27-.3a.13.13,0,0,0-.18,0,.14.14,0,0,0,0,.18l.27.29Z" class="color3b232f svgShape"/><path fill="#233b23" d="M254.47,66.67a.15.15,0,0,0,.13,0,.13.13,0,0,0,.05-.17l-.13-.26a.12.12,0,0,0-.17,0,.12.12,0,0,0,0,.16l.13.26A.1.1,0,0,0,254.47,66.67Z" class="color3b232f svgShape"/><g class="color000000 svgShape" clip-path="url(#b)"><path fill="#233b23" d="M252.18,64.48a1.14,1.14,0,1,0,1.48-.65A1.15,1.15,0,0,0,252.18,64.48Z" class="color3b232f svgShape"/><path fill="#fff" d="M253.86,65.39a.35.35,0,1,0,.46-.2A.36.36,0,0,0,253.86,65.39Z" class="colorffffff svgShape"/></g><path fill="#233b23" d="M248.78,66.72a.1.1,0,0,1-.05,0c-.31-.4-.73-1.21-.51-1.69a.61.61,0,0,1,.59-.34A1.2,1.2,0,0,0,250,63.47a.13.13,0,0,1,.25,0,1.45,1.45,0,0,1-1.42,1.42.39.39,0,0,0-.37.19c-.15.33.13,1,.48,1.44a.13.13,0,0,1-.15.19Z" class="color3b232f svgShape"/><path fill="#338a33" d="M255.67,69.7a2.2,2.2,0,0,1-2.84,1.23,2.18,2.18,0,1,1,2.84-1.23Z" class="color8a3b33 svgShape"/><path fill="#338a33" d="M246.55,66.07A2.19,2.19,0,0,1,245,67.4a15.63,15.63,0,0,1,.82-3.9A2.17,2.17,0,0,1,246.55,66.07Z" class="color8a3b33 svgShape"/><path fill="#233b23" d="M262.32,68.89a1.55,1.55,0,0,0,.87,2A1.54,1.54,0,0,0,264.32,68,1.55,1.55,0,0,0,262.32,68.89Z" class="color3b232f svgShape"/><path fill="#233b23" d="M263.87,66.7a1.55,1.55,0,1,0,2-.87A1.55,1.55,0,0,0,263.87,66.7Z" class="color3b232f svgShape"/><path fill="#233b23" d="M264.52,64a1.55,1.55,0,1,0,2-.87A1.55,1.55,0,0,0,264.52,64Z" class="color3b232f svgShape"/><path fill="#233b23" d="M265,61.41a1.54,1.54,0,1,0,2.87,1.14A1.54,1.54,0,1,0,265,61.41Z" class="color3b232f svgShape"/><path fill="#233b23" d="M264.6,58.91a1.54,1.54,0,1,0,2.87,1.14,1.54,1.54,0,1,0-2.87-1.14Z" class="color3b232f svgShape"/><path fill="#233b23" d="M263.46,56.58a1.55,1.55,0,1,0,2-.87A1.55,1.55,0,0,0,263.46,56.58Z" class="color3b232f svgShape"/><path fill="#233b23" d="M261.7,54.68a1.54,1.54,0,0,0,.86,2,1.54,1.54,0,1,0,1.14-2.87A1.53,1.53,0,0,0,261.7,54.68Z" class="color3b232f svgShape"/><path fill="#233b23" d="M259.49,53.29a1.55,1.55,0,1,0,2-.87A1.55,1.55,0,0,0,259.49,53.29Z" class="color3b232f svgShape"/><path fill="#233b23" d="M257.08,52.16a1.54,1.54,0,1,0,2-.86A1.54,1.54,0,0,0,257.08,52.16Z" class="color3b232f svgShape"/><path fill="#233b23" d="M254.72,51.75a1.55,1.55,0,0,0,.87,2,1.54,1.54,0,0,0,1.14-2.87A1.56,1.56,0,0,0,254.72,51.75Z" class="color3b232f svgShape"/><path fill="#233b23" d="M252.35,52a1.54,1.54,0,1,0,2.87,1.13A1.54,1.54,0,0,0,252.35,52Z" class="color3b232f svgShape"/><path fill="#233b23" d="M250.22,53a1.54,1.54,0,1,0,2-.87A1.53,1.53,0,0,0,250.22,53Z" class="color3b232f svgShape"/><path fill="#233b23" d="M248.32,54.2a1.54,1.54,0,1,0,2.87,1.13,1.54,1.54,0,0,0-2.87-1.13Z" class="color3b232f svgShape"/><path fill="#233b23" d="M246.77,55.94a1.54,1.54,0,1,0,2-.87A1.55,1.55,0,0,0,246.77,55.94Z" class="color3b232f svgShape"/><path fill="#233b23" d="M245.54,57.91a1.54,1.54,0,1,0,2-.87A1.53,1.53,0,0,0,245.54,57.91Z" class="color3b232f svgShape"/><path fill="#233b23" d="M245.21,59.9A1.54,1.54,0,1,0,248.08,61a1.54,1.54,0,0,0-2.87-1.13Z" class="color3b232f svgShape"/><path fill="#233b23" d="M258.25,71.52a1.54,1.54,0,1,0,2-.87A1.53,1.53,0,0,0,258.25,71.52Z" class="color3b232f svgShape"/><path fill="#233b23" d="M260.43,70.49a1.55,1.55,0,0,0,.87,2,1.54,1.54,0,0,0,1.13-2.87A1.55,1.55,0,0,0,260.43,70.49Z" class="color3b232f svgShape"/><path fill="#233b23" d="M261,52.57a1,1,0,1,0,1.35.14A1,1,0,0,0,261,52.57Z" class="color3b232f svgShape"/><path fill="#233b23" d="M260.65,54.07a1,1,0,1,0,1.35.14A1,1,0,0,0,260.65,54.07Z" class="color3b232f svgShape"/><path fill="#233b23" d="M260.46,55.25a1,1,0,0,0-.13,1.36,1,1,0,1,0,1.48-1.22A1,1,0,0,0,260.46,55.25Z" class="color3b232f svgShape"/><path fill="#233b23" d="M262.93,51.26a6.5,6.5,0,1,0,9.14.92A6.5,6.5,0,0,0,262.93,51.26Z" class="color3b232f svgShape"/><path fill="#233b23" d="M268.45,61.52a1,1,0,0,0-.13,1.35,1,1,0,1,0,1.48-1.22A1,1,0,0,0,268.45,61.52Z" class="color3b232f svgShape"/><path fill="#233b23" d="M270,60.8a1,1,0,0,0-.13,1.35,1,1,0,1,0,1.48-1.22A1,1,0,0,0,270,60.8Z" class="color3b232f svgShape"/><path fill="#233b23" d="M271.12,59.55A1,1,0,0,0,272.34,61a1,1,0,0,0,.13-1.36A1,1,0,0,0,271.12,59.55Z" class="color3b232f svgShape"/><path fill="#233b23" d="M272.17,58.26a1,1,0,0,0-.14,1.36,1,1,0,0,0,1.36.13,1,1,0,0,0,.13-1.35A1,1,0,0,0,272.17,58.26Z" class="color3b232f svgShape"/><path fill="#233b23" d="M272.72,56.79a1,1,0,1,0,1.35.13A1,1,0,0,0,272.72,56.79Z" class="color3b232f svgShape"/><path fill="#233b23" d="M272.81,55.17A1,1,0,1,0,274,56.66a1,1,0,0,0,.13-1.35A1,1,0,0,0,272.81,55.17Z" class="color3b232f svgShape"/><path fill="#233b23" d="M272.43,53.6a1,1,0,1,0,1.35.14A1,1,0,0,0,272.43,53.6Z" class="color3b232f svgShape"/><path fill="#233b23" d="M271.65,52.18a1,1,0,0,0-.14,1.36,1,1,0,0,0,1.36.13,1,1,0,0,0,.13-1.35A1,1,0,0,0,271.65,52.18Z" class="color3b232f svgShape"/><path fill="#233b23" d="M270.68,50.84A1,1,0,1,0,272,51,1,1,0,0,0,270.68,50.84Z" class="color3b232f svgShape"/><path fill="#233b23" d="M269.52,49.9a1,1,0,0,0-.13,1.35,1,1,0,0,0,1.35.14,1,1,0,1,0-1.22-1.49Z" class="color3b232f svgShape"/><path fill="#233b23" d="M268.17,49.29a1,1,0,1,0,1.35.14A1,1,0,0,0,268.17,49.29Z" class="color3b232f svgShape"/><path fill="#233b23" d="M266.7,49.22a1,1,0,1,0,1.21,1.48,1,1,0,1,0-1.21-1.48Z" class="color3b232f svgShape"/><path fill="#233b23" d="M265.3,49.29a1,1,0,1,0,1.22,1.48,1,1,0,1,0-1.22-1.48Z" class="color3b232f svgShape"/><path fill="#233b23" d="M263.93,49.76a1,1,0,1,0,1.35.14A1,1,0,0,0,263.93,49.76Z" class="color3b232f svgShape"/><path fill="#233b23" d="M262.66,50.46A1,1,0,0,0,263.88,52a1,1,0,0,0,.13-1.36A1,1,0,0,0,262.66,50.46Z" class="color3b232f svgShape"/><path fill="#233b23" d="M261.88,51.44a1,1,0,0,0-.14,1.35,1,1,0,0,0,1.36.14,1,1,0,0,0-1.22-1.49Z" class="color3b232f svgShape"/><path fill="#233b23" d="M265.44,61.71a1,1,0,1,0,1.35.14A1,1,0,0,0,265.44,61.71Z" class="color3b232f svgShape"/><path fill="#233b23" d="M266.94,61.81a1,1,0,0,0-.14,1.36,1,1,0,0,0,1.36.13,1,1,0,0,0,.13-1.35A1,1,0,0,0,266.94,61.81Z" class="color3b232f svgShape"/><path fill="#233b23" d="M247.55,56A1.9,1.9,0,1,0,250,54.93,1.9,1.9,0,0,0,247.55,56Z" class="color3b232f svgShape"/><path fill="#233b23" d="M250.77,55.86a1.9,1.9,0,1,0,2.46-1.07A1.9,1.9,0,0,0,250.77,55.86Z" class="color3b232f svgShape"/><path fill="#233b23" d="M253.85,56.44a1.89,1.89,0,1,0,2.46-1.07A1.89,1.89,0,0,0,253.85,56.44Z" class="color3b232f svgShape"/><path fill="#233b23" d="M256.13,58.75a1.9,1.9,0,1,0,2.46-1.07A1.9,1.9,0,0,0,256.13,58.75Z" class="color3b232f svgShape"/><path fill="#233b23" d="M256.84,61.67a1.9,1.9,0,0,0,3.53,1.39,1.9,1.9,0,1,0-3.53-1.39Z" class="color3b232f svgShape"/><path fill="#5cff5c" d="M257.36,73.49a2.15,2.15,0,0,0,.76.16A2.26,2.26,0,0,0,259.7,73a2.22,2.22,0,0,0,.68-1.55.12.12,0,0,0-.12-.13.13.13,0,0,0-.13.12,2,2,0,1,1-3.92-.09,1.94,1.94,0,0,1,.61-1.37,2,2,0,0,1,1.4-.54.13.13,0,0,0,.13-.12.13.13,0,0,0-.13-.13,2.13,2.13,0,0,0-1.57.61,2.2,2.2,0,0,0-.08,3.12A2.08,2.08,0,0,0,257.36,73.49Z" class="colorffa25c svgShape"/><path fill="#233b23" d="M249.36,66.45l.36.47C250.07,66.69,249.82,66.43,249.36,66.45Z" class="color3b232f svgShape"/><path fill="#233b23" d="M252.84,62.16C255,60.27,256,64.07,256,64.07Z" class="color3b232f svgShape"/><path fill="#233b23" d="M247.52,60.32l2.44.57C250.26,59.53,248.15,59.49,247.52,60.32Z" class="color3b232f svgShape"/><path fill="#233b23" d="M250.7,68.35a3.21,3.21,0,0,1-2.35,0,2.43,2.43,0,0,1-1-1.2,1.32,1.32,0,0,1,1.07,1C249.25,67.61,250.7,68.35,250.7,68.35Z" class="color3b232f svgShape"/><path fill="#233b23" d="M247.33,67.23c0,1.76.28,3.57,3.27,1.15C249.62,68.67,248.36,69,247.33,67.23Z" class="color3b232f svgShape"/><path fill="#233b23" d="M248.46,68.56l-.17-.07A2.85,2.85,0,0,1,247,66.77a.12.12,0,0,1,.07-.15.13.13,0,0,1,.16.07,2.55,2.55,0,0,0,1.16,1.58,3.42,3.42,0,0,0,2.62-.15.13.13,0,0,1,.16.08.12.12,0,0,1-.08.15A3.88,3.88,0,0,1,248.46,68.56Z" class="color3b232f svgShape"/><path fill="#338a33" d="M247.78,70.24a1.18,1.18,0,0,1-.65-.65.12.12,0,0,1,.22-.1,1,1,0,0,0,1.33.49.12.12,0,0,1,.15.07.12.12,0,0,1-.06.16A1.35,1.35,0,0,1,247.78,70.24Z" class="color8a3b33 svgShape"/><path fill="#5cff5c" d="M259.86,69.93a.25.25,0,0,1-.32.14.25.25,0,1,1,.32-.14Z" class="colorffa25c svgShape"/><path fill="#5cff5c" d="M260.8,69.49a.25.25,0,0,1-.32.13.24.24,0,0,1-.14-.31.25.25,0,0,1,.46.18Z" class="colorffa25c svgShape"/><path fill="#3b8a3b" d="M142.4,127.41l1.87,5.08c-6.93,3.27-12.09-10-10.66-17.5C137.14,114.68,142.4,127.41,142.4,127.41Z" class="color8a433b svgShape"/><path fill="#3b8a3b" d="M148.15,118.26a.14.14,0,0,1,0,.07,2.08,2.08,0,0,1-1.33,2.62l-.13,0c-3.05,1-4.88,1.57-4.31,6.42a2.09,2.09,0,0,1-1.19,2.14,2,2,0,0,1-.63.17,2.07,2.07,0,0,1-2.31-1.82c-1-8.24,4.12-9.89,7.16-10.87l.12,0A2.08,2.08,0,0,1,148.15,118.26Z" class="color8a433b svgShape"/><path fill="#3b8a3b" d="M146.74,114.35s0,0,0,.06a2.07,2.07,0,0,1-1.34,2.62l-.13,0c-3,1-4.87,1.57-4.3,6.42a2.08,2.08,0,0,1-4.13.49c-1-8.24,4.11-9.89,7.15-10.87l.13,0A2.08,2.08,0,0,1,146.74,114.35Z" class="color8a433b svgShape"/><path fill="#3b8a3b" d="M145.33,110.44a.14.14,0,0,0,0,.06,2.09,2.09,0,0,1-1.34,2.62l-.13,0c-3,1-4.88,1.58-4.3,6.43a2.08,2.08,0,0,1-4.14.49c-1-8.25,4.12-9.89,7.16-10.87l.13,0A2.09,2.09,0,0,1,145.33,110.44Z" class="color8a433b svgShape"/><path fill="#3b8a3b" d="M143.49,105.35a.64.64,0,0,1,0,.07,2.07,2.07,0,0,1-1.34,2.62l-.13,0c-3,1-4.87,1.57-4.3,6.43a2.08,2.08,0,0,1-4.13.48c-1-8.24,4.11-9.89,7.15-10.87l.13,0A2.08,2.08,0,0,1,143.49,105.35Z" class="color8a433b svgShape"/><path fill="#233b23" d="M144.44,117.22v0a.2.2,0,0,1-.15.24c-.28.06-.55.12-.82.2a.2.2,0,0,1-.24-.14.19.19,0,0,1,.14-.24l.84-.2A.18.18,0,0,1,144.44,117.22Z" class="color3b232f svgShape"/><path fill="#233b23" d="M142.33,117.84a.19.19,0,0,1-.11.25c-2.13.81-3.73,2.09-4.28,3.42a2.3,2.3,0,0,0,0,1.89.2.2,0,0,1-.1.26.19.19,0,0,1-.26-.1,2.72,2.72,0,0,1,0-2.2c.6-1.45,2.24-2.77,4.5-3.64a.2.2,0,0,1,.25.12Z" class="color3b232f svgShape"/><path fill="#233b23" d="M142.61,113.47v0a.2.2,0,0,1-.15.24,14.57,14.57,0,0,0-1.82.51.21.21,0,0,1-.25-.12.19.19,0,0,1,.12-.25,15,15,0,0,1,1.87-.53A.19.19,0,0,1,142.61,113.47Z" class="color3b232f svgShape"/><path fill="#233b23" d="M139.33,114.55a.2.2,0,0,1-.11.25c-1.21.54-4,2-3.74,3.84a.2.2,0,1,1-.39,0c-.29-2,2.37-3.53,4-4.25a.19.19,0,0,1,.25.1Z" class="color3b232f svgShape"/><path fill="#233b23" d="M136.63,112.12a.19.19,0,0,1-.11.25A4,4,0,0,0,134.6,114a.2.2,0,0,1-.36-.15,4.17,4.17,0,0,1,2.14-1.79.19.19,0,0,1,.25.11Z" class="color3b232f svgShape"/><path fill="#499949" d="M140.87,104.67a1.27,1.27,0,0,1,1.69.47c.19.53-.26,1.17-1,1.44a1.26,1.26,0,0,1-1.68-.47C139.69,105.58,140.13,104.93,140.87,104.67Z" class="color995249 svgShape"/><path fill="#499949" d="M142.74,109.85a1.27,1.27,0,0,1,1.69.47c.19.53-.26,1.17-1,1.44a1.27,1.27,0,0,1-1.68-.47C141.56,110.76,142,110.11,142.74,109.85Z" class="color995249 svgShape"/><path fill="#499949" d="M144.21,113.82a1.26,1.26,0,0,1,1.68.47c.19.53-.25,1.17-1,1.44a1.27,1.27,0,0,1-1.69-.47C143,114.73,143.47,114.08,144.21,113.82Z" class="color995249 svgShape"/><path fill="#499949" d="M145.64,117.86a1.26,1.26,0,0,1,1.68.47c.19.53-.25,1.17-1,1.44a1.27,1.27,0,0,1-1.69-.47C144.45,118.77,144.9,118.12,145.64,117.86Z" class="color995249 svgShape"/><path fill="#3b8a3b" d="M215.18,113.62a21.27,21.27,0,0,0-14.06,1.67,20.27,20.27,0,0,0-3.72,2.42c-4.29,3.54-5.54,7.6-6.73,12.2a1.67,1.67,0,0,0,1.62,2.09,1.6,1.6,0,0,0,.81-.21,1.54,1.54,0,0,0,.61-.58c1.1-1.76,3.86-5.91,5.93-6.68l-.62,2a3.78,3.78,0,0,0,3.28,4.88,3.78,3.78,0,0,0,3.67,3.45l0-.11a3.73,3.73,0,0,0,.94,2.44,3.68,3.68,0,0,0,2.74,1.28l7.2-.06a1.64,1.64,0,0,0,.32-3.25l-.35-.08,2.5-2.21a14.66,14.66,0,0,0,6.93,3.13l13.66,1.71V118.89Z" class="color8a433b svgShape"/><path fill="#233b23" d="M202.66,130.55h0a.23.23,0,0,1-.21-.26c.25-2.26,2.83-5.58,2.94-5.73a.24.24,0,1,1,.37.3s-2.61,3.36-2.84,5.48A.24.24,0,0,1,202.66,130.55Z" class="color3b232f svgShape"/><path fill="#233b23" d="M206.42,133.76h0a.24.24,0,0,1-.2-.27,8.34,8.34,0,0,1,2.86-5.27.24.24,0,0,1,.33,0,.25.25,0,0,1,0,.34,7.93,7.93,0,0,0-2.68,5A.25.25,0,0,1,206.42,133.76Z" class="color3b232f svgShape"/><path fill="#499949" d="M191,129.74c.14-.77.71-1.31,1.26-1.21s.88.81.74,1.58-.71,1.32-1.26,1.22S190.9,130.52,191,129.74Z" class="color995249 svgShape"/><path fill="#233b23" d="M261.4,52.72a.18.18,0,0,1-.12,0,1.64,1.64,0,0,1-.51-1.66.89.89,0,0,1,.58-.57,1.11,1.11,0,0,1,.51-1,1.41,1.41,0,0,1,1.53,0,.15.15,0,0,1,.05.21.14.14,0,0,1-.21,0,1.12,1.12,0,0,0-1.19,0,.78.78,0,0,0-.36.81.24.24,0,0,1,0,.12.14.14,0,0,1-.11.06.56.56,0,0,0-.47.4,1.33,1.33,0,0,0,.44,1.33.16.16,0,0,1,0,.22A.16.16,0,0,1,261.4,52.72Z" class="color3b232f svgShape"/><path fill="#233b23" d="M274.69,55a.14.14,0,0,1-.12-.06.15.15,0,0,1,0-.22.85.85,0,0,0,.33-.78,1.26,1.26,0,0,0-.83-.93A.18.18,0,0,1,274,53a.2.2,0,0,1,0-.13,1.11,1.11,0,0,0,.07-1,.86.86,0,0,0-.73-.49.16.16,0,0,1-.14-.18.16.16,0,0,1,.17-.14,1.23,1.23,0,0,1,1,.67,1.45,1.45,0,0,1,0,1.19,1.5,1.5,0,0,1,.87,1.1,1.17,1.17,0,0,1-.45,1.06A.14.14,0,0,1,274.69,55Z" class="color3b232f svgShape"/><path fill="#233b23" d="M244.33,61.08a.17.17,0,0,1-.12,0,1.29,1.29,0,0,1-.3-1.17,1.6,1.6,0,0,1,1-1.14A.16.16,0,0,1,245,59a1.27,1.27,0,0,0-.82.92,1,1,0,0,0,.22.88.16.16,0,0,1,0,.22A.16.16,0,0,1,244.33,61.08Z" class="color3b232f svgShape"/><path fill="#57b1cf" d="M170.57,117.42l-5.71,5.7a4.46,4.46,0,0,0,.63.85l5.93-5.92A4.35,4.35,0,0,0,170.57,117.42Z" class="color57c2cf svgShape"/><path fill="#57b1cf" d="M169.84,117.1a4.2,4.2,0,0,0-5.3,5.3Z" class="color57c2cf svgShape"/><path fill="#57b1cf" d="M167,125a4.19,4.19,0,0,0,5.7-3.91,4.16,4.16,0,0,0-.28-1.5Z" class="color57c2cf svgShape"/><path fill="#233b23" d="M298.27,132.32A.32.32,0,0,1,298,132a16.46,16.46,0,0,0-16.38-14.68H240.26a.32.32,0,1,1,0-.63h41.32a17.09,17.09,0,0,1,17,15.24.32.32,0,0,1-.28.35Z" class="color3b232f svgShape"/><path fill="#233b23" d="M275.76,117.07a.3.3,0,0,1-.29-.19l-4-9.57c-2.32-5.17-2.25-10.39.21-14.71a13.2,13.2,0,0,1,9.58-6.76.31.31,0,0,1,.35.27.31.31,0,0,1-.28.35,12.62,12.62,0,0,0-9.11,6.45c-2.35,4.14-2.41,9.16-.17,14.15l3.95,9.58a.31.31,0,0,1-.17.41A.25.25,0,0,1,275.76,117.07Z" class="color3b232f svgShape"/><path fill="#233b23" d="M158.18,166.84a.31.31,0,0,1-.16-.58c6.78-3.93,11.94-7.17,14.51-8.88,7.63-5.09,58.15-10,63.25-10.54l-.76-4.33a.31.31,0,0,1,.25-.36.32.32,0,0,1,.37.26l.82,4.66a.34.34,0,0,1-.06.24.32.32,0,0,1-.22.13c-.56.05-55.56,5.31-63.3,10.46-2.58,1.72-7.75,5-14.54,8.9A.32.32,0,0,1,158.18,166.84Z" class="color3b232f svgShape"/><path fill="#233b23" d="M177.15,194.94h-.05l-4.11-.65a.32.32,0,0,1,.1-.63l3.49.56a12,12,0,0,1-1.06-5,.31.31,0,0,1,.31-.32.32.32,0,0,1,.32.32,11,11,0,0,0,1.26,5.26.3.3,0,0,1,0,.34A.31.31,0,0,1,177.15,194.94Z" class="color3b232f svgShape"/><path fill="#8cff8c" d="M259.82,159.27h-.06c-3.24-.56-5.51-2.13-6.74-4.7a13.63,13.63,0,0,1-.75-8.16.31.31,0,0,1,.37-.25.31.31,0,0,1,.25.36,13,13,0,0,0,.7,7.78,8,8,0,0,0,6.28,4.35.32.32,0,0,1,.26.36A.32.32,0,0,1,259.82,159.27Z" class="colorffb68c svgShape"/><path fill="#8cff8c" d="M110.91,217.29a.31.31,0,0,1-.11-.61c2.88-1.06,5.87-2.26,8.89-3.59a.31.31,0,1,1,.25.57c-3,1.34-6,2.55-8.92,3.61Z" class="colorffb68c svgShape"/><path fill="#8cff8c" d="M124.94,211.33a.33.33,0,0,1-.29-.18.32.32,0,0,1,.15-.42c3.34-1.6,6.78-3.38,10.24-5.29a.33.33,0,0,1,.43.13.32.32,0,0,1-.13.43c-3.47,1.91-6.92,3.69-10.26,5.3Z" class="colorffb68c svgShape"/><path fill="#8cff8c" d="M140.12,203.24a.32.32,0,0,1-.27-.16.31.31,0,0,1,.11-.43c2.69-1.57,5.44-3.24,8.17-5a.32.32,0,0,1,.44.1.31.31,0,0,1-.1.43c-2.74,1.74-5.49,3.41-8.19,5A.32.32,0,0,1,140.12,203.24Z" class="colorffb68c svgShape"/><path fill="#8cff8c" d="M153.2,195.09a.35.35,0,0,1-.27-.14.33.33,0,0,1,.09-.44c2.54-1.68,5.1-3.43,7.62-5.22a.32.32,0,0,1,.44.08.31.31,0,0,1-.08.44c-2.52,1.79-5.09,3.55-7.63,5.23A.34.34,0,0,1,153.2,195.09Z" class="colorffb68c svgShape"/><path fill="#8cff8c" d="M165.67,186.37a.33.33,0,0,1-.26-.13.32.32,0,0,1,.07-.44c5.78-4.27,9.65-7.43,10.92-8.47l0,0a.32.32,0,0,1,.45,0,.31.31,0,0,1-.05.44l0,0c-1.28,1-5.15,4.21-11,8.48A.26.26,0,0,1,165.67,186.37Z" class="colorffb68c svgShape"/><path fill="#8cff8c" d="M180.68,176.73a.32.32,0,0,1-.05-.63c2.57-.44,6.31-.91,11.45-1.44a.31.31,0,0,1,.34.28.32.32,0,0,1-.28.35c-5.12.52-8.85,1-11.41,1.43Z" class="colorffb68c svgShape"/><path fill="#8cff8c" d="M197.84,174.73a.31.31,0,0,1-.31-.29.31.31,0,0,1,.28-.34l4.79-.43a.31.31,0,0,1,.34.29.31.31,0,0,1-.29.34c-1.63.14-3.23.28-4.78.43Z" class="colorffb68c svgShape"/><path fill="#8cff8c" d="M206.7,174a.32.32,0,0,1-.31-.29.32.32,0,0,1,.29-.34l7.9-.66a.31.31,0,1,1,0,.62l-7.9.66Z" class="colorffb68c svgShape"/><path fill="#8cff8c" d="M220,172.84a.32.32,0,0,1-.31-.29.31.31,0,0,1,.29-.34c4.07-.34,8.07-.67,11.84-1a.32.32,0,0,1,.06.63c-3.77.33-7.78.66-11.85,1Z" class="colorffb68c svgShape"/><path fill="#8cff8c" d="M236.3,171.44a.32.32,0,0,1-.32-.28.33.33,0,0,1,.29-.35c3.95-.36,7.13-.68,9.7-1a.3.3,0,0,1,.35.27.31.31,0,0,1-.27.35c-2.59.3-5.77.63-9.72,1Z" class="colorffb68c svgShape"/><path fill="#8cff8c" d="M254.06,169.13a.32.32,0,0,1-.3-.22.31.31,0,0,1,.21-.39,10.52,10.52,0,0,0,5.92-4.5.32.32,0,0,1,.54.33,11.19,11.19,0,0,1-6.27,4.77Z" class="colorffb68c svgShape"/><path fill="#8cff8c" d="M261.84,160.36h-.08a.31.31,0,0,1-.23-.38c.84-3.52.77-8.1-.22-13.61a.32.32,0,0,1,.26-.37.32.32,0,0,1,.36.26c1,5.6,1.08,10.27.21,13.86A.31.31,0,0,1,261.84,160.36Z" class="colorffb68c svgShape"/><path fill="#8cff8c" d="M111.9,232.57a.32.32,0,0,1-.3-.19L98.13,198.52a.31.31,0,1,1,.58-.23l13.48,33.85a.31.31,0,0,1-.18.41A.2.2,0,0,1,111.9,232.57Z" class="colorffb68c svgShape"/><path fill="#8cff8c" d="M229.74,251.15l-.1,0a.31.31,0,0,1-.2-.4l12.82-37.64a.32.32,0,0,1,.4-.19.32.32,0,0,1,.2.4L230,250.93A.33.33,0,0,1,229.74,251.15Z" class="colorffb68c svgShape"/><path fill="#233b23" d="M170.17,202.9a.31.31,0,0,1-.24-.1.33.33,0,0,1,0-.45c4.53-3.92,7.66-6.3,10.24-6.88,4.19-.95,15.1-.58,27.72-.14,4.66.16,9.48.33,14.36.44a.33.33,0,0,1,.31.32.31.31,0,0,1-.33.31c-4.88-.11-9.7-.28-14.36-.44-12.58-.43-23.45-.81-27.56.12-2.45.55-5.63,3-10,6.75A.29.29,0,0,1,170.17,202.9Z" class="color3b232f svgShape"/><rect width="12.61" height="2.1" x="247.98" y="76.29" fill="#3b4d3b" class="color4d3b4c svgShape" rx=".97"/><path fill="#fff" d="M259.59,78.7H249a1.33,1.33,0,0,1-1.32-1.32v-.09A1.33,1.33,0,0,1,249,76h10.6a1.33,1.33,0,0,1,1.32,1.32v.09A1.33,1.33,0,0,1,259.59,78.7ZM249,76.6a.69.69,0,0,0-.69.69v.09a.69.69,0,0,0,.69.69h10.6a.69.69,0,0,0,.69-.69v-.09a.69.69,0,0,0-.69-.69Z" class="colorffffff svgShape"/><path fill="#3b4d3b" d="M133,166.27a41.1,41.1,0,0,1,11.83,2.2,5.84,5.84,0,0,0,7.58-4.55,18.15,18.15,0,0,0,.16-4.54,5.73,5.73,0,0,0-3-4.55,18.91,18.91,0,0,0-19.6.58,5.89,5.89,0,0,0-2.77,5.31h0A5.88,5.88,0,0,0,133,166.27Z" class="color4d3b4c svgShape"/><path fill="#6c6" d="M132.94,163.74a41.3,41.3,0,0,1,11.82,2.2,5.85,5.85,0,0,0,7.59-4.54,18.16,18.16,0,0,0,.16-4.54,5.77,5.77,0,0,0-3-4.56,18.91,18.91,0,0,0-19.6.58,5.92,5.92,0,0,0-2.78,5.31h0A5.89,5.89,0,0,0,132.94,163.74Z" class="color998197 svgShape"/><path fill="#3b4d3b" d="M137.25,156a2.41,2.41,0,0,0-4.77.19A15,15,0,0,1,137.25,156Z" class="color4d3b4c svgShape"/><path fill="#233b23" d="M127.84,157.81a.31.31,0,0,1-.29-.19.31.31,0,0,1,.17-.41,24.08,24.08,0,0,1,16.13-.19.32.32,0,0,1,.19.4.32.32,0,0,1-.41.19,23.36,23.36,0,0,0-15.67.18A.25.25,0,0,1,127.84,157.81Z" class="color3b232f svgShape"/><path fill="#233b23" d="M88.86,171.12a27.75,27.75,0,0,1-9.39-1.71A21.88,21.88,0,0,1,65.8,143.69c3.47-15,22.65-29.25,66.06-24.31a.63.63,0,1,1-.15,1.25C89.14,115.79,70.38,129.51,67,144A20.63,20.63,0,0,0,79.9,168.22c10.75,3.84,18.55.12,26.08-3.48,5.45-2.6,11.08-5.28,17.62-4.93a.63.63,0,0,1,.6.66.64.64,0,0,1-.67.6c-6.22-.34-11.46,2.16-17,4.81S95.55,171.12,88.86,171.12Z" class="color3b232f svgShape"/><path fill="#233b23" d="M74.75,175.66a.76.76,0,0,1-.21,0A26.69,26.69,0,0,1,57.9,158a29.05,29.05,0,0,1,4.87-25.91.63.63,0,1,1,1,.76,27.76,27.76,0,0,0-4.67,24.79A25.41,25.41,0,0,0,75,174.44a.63.63,0,0,1-.21,1.22Z" class="color3b232f svgShape"/><path fill="#43e243" d="M321.42,165.36A8.08,8.08,0,1,0,332,161.14,8.09,8.09,0,0,0,321.42,165.36Zm3.09,1.33a4.71,4.71,0,1,1,2.47,6.2A4.71,4.71,0,0,1,324.51,166.69Z" class="colore2435f svgShape"/><path fill="#43e243" d="M301.16,178.45l9.6,4.13a8.44,8.44,0,0,0,5.56.41,8.54,8.54,0,0,0,5.66-4.87l10.1-23.47L306.8,143.77l-10.1,23.47a8.53,8.53,0,0,0,4.46,11.21Z" class="colore2435f svgShape"/><path fill="#3b4d3b" d="M311,139.92v-.23a3.45,3.45,0,0,1,3.46-3.45h1.71a3.45,3.45,0,0,0,3.24-2.26,3.41,3.41,0,0,0,.22-1.2h0a6.4,6.4,0,0,1,6.4-6.41h11.29a5.12,5.12,0,0,1,5.11,5.12h0a5.05,5.05,0,0,1-.4,2,5.11,5.11,0,0,1-4.71,3.13h-6.22a3.44,3.44,0,0,0-3.46,3.45h0a3.46,3.46,0,0,1-3.5,3.46l-9.74-.15a3.45,3.45,0,0,1-3.4-3.45Z" class="color4d3b4c svgShape"/><path fill="#3b4d3b" d="M340.16,121.32a3.14,3.14,0,1,1-3.14-3.14A3.13,3.13,0,0,1,340.16,121.32Z" class="color4d3b4c svgShape"/><path fill="#fff" d="M192.84,259.9l-48.57,19.71a2.7,2.7,0,0,1-2.26-.1,2.63,2.63,0,0,1-1.27-1.39l-11.92-29.36a2.71,2.71,0,0,1,1.5-3.53l48.57-19.71a2.7,2.7,0,0,1,2.07,0,2.65,2.65,0,0,1,1.46,1.48l11.91,29.35a2.78,2.78,0,0,1,.12,1.68A2.68,2.68,0,0,1,192.84,259.9Z" class="colorffffff svgShape"/><path fill="#233b23" d="M190.23,246.57a.32.32,0,0,1-.3-.19l-7.8-19.25a2.35,2.35,0,0,0-1.29-1.3,2.42,2.42,0,0,0-1.83,0,.31.31,0,0,1-.41-.17.31.31,0,0,1,.17-.41,3,3,0,0,1,3.94,1.67l7.81,19.24a.32.32,0,0,1-.17.41A.25.25,0,0,1,190.23,246.57Z" class="color3b232f svgShape"/><path fill="#233b23" d="M143.25,280.12a3,3,0,0,1-2.81-1.88l-11.91-29.36a3,3,0,0,1,1.67-3.94l41.6-16.88a.31.31,0,1,1,.23.58l-41.59,16.88a2.39,2.39,0,0,0-1.32,3.12L141,278a2.4,2.4,0,0,0,3.12,1.32l39.16-15.89a.31.31,0,1,1,.24.58L144.38,279.9A3,3,0,0,1,143.25,280.12Z" class="color3b232f svgShape"/><path fill="#43e243" d="M144.9,254.36a3.49,3.49,0,0,1,.62-1.83,3.44,3.44,0,0,1,1.56-1.19,3.55,3.55,0,0,1,1.52-.24,3.9,3.9,0,0,1,1.55.45,4,4,0,0,1,1.27,1.08l2.35-1a6.85,6.85,0,0,0-2.11-2.11,6,6,0,0,0-2.66-.91,6.09,6.09,0,0,0-2.83.45,6.33,6.33,0,0,0-2.68,2,5.54,5.54,0,0,0-1.12,3,7.46,7.46,0,0,0,.59,3.49l1.82,4.49a7.46,7.46,0,0,0,2,2.92,5.46,5.46,0,0,0,2.86,1.32,6.18,6.18,0,0,0,3.29-.45,6,6,0,0,0,3.62-4.16,6.83,6.83,0,0,0,0-3l-2.35,1a3.85,3.85,0,0,1-.14,1.7,3.58,3.58,0,0,1-.8,1.38,3.73,3.73,0,0,1-1.28.87,3.35,3.35,0,0,1-3.67-.65,5.08,5.08,0,0,1-1.23-1.85l-1.82-4.49A5,5,0,0,1,144.9,254.36Z" class="colore2435f svgShape"/><polygon fill="#43e243" points="162.12 247.78 159.82 248.71 161.23 252.18 157.81 253.57 158.7 255.75 162.12 254.36 163.53 257.84 165.82 256.91 164.41 253.43 167.83 252.05 166.94 249.87 163.53 251.25 162.12 247.78" class="colore2435f svgShape"/><polygon fill="#43e243" points="179.11 244.93 175.69 246.32 174.28 242.84 171.99 243.77 173.4 247.25 169.98 248.63 170.86 250.81 174.28 249.43 175.69 252.9 177.98 251.97 176.57 248.5 179.99 247.11 179.11 244.93" class="colore2435f svgShape"/><path fill="#fff" d="M329.14,100.43,292.4,80.51a2.16,2.16,0,0,1-1.08-1.43,2.26,2.26,0,0,1,.21-1.5l12.05-22.2a2.14,2.14,0,0,1,1.28-1.05,2.18,2.18,0,0,1,1.65.18l36.74,19.92a2.16,2.16,0,0,1,1,1.28,2.22,2.22,0,0,1-.17,1.65L332.07,99.57a2.15,2.15,0,0,1-2.93.86Z" class="colorffffff svgShape"/><path fill="#233b23" d="M335.35,93.84a.28.28,0,0,1-.15,0,.32.32,0,0,1-.13-.43l8.77-16.16A1.83,1.83,0,0,0,344,75.8a1.81,1.81,0,0,0-.88-1.09L312.65,58.19a.3.3,0,0,1-.13-.42.31.31,0,0,1,.43-.13L343.4,74.15a2.49,2.49,0,0,1,1.19,1.47,2.45,2.45,0,0,1-.2,1.89l-8.76,16.16A.32.32,0,0,1,335.35,93.84Z" class="color3b232f svgShape"/><path fill="#233b23" d="M320.41,96a.26.26,0,0,1-.15,0l-28-15.18a2.48,2.48,0,0,1-1-3.36l12-22.2a2.47,2.47,0,0,1,3.36-1,.31.31,0,0,1,.12.43.3.3,0,0,1-.42.12,1.87,1.87,0,0,0-1.41-.14,1.84,1.84,0,0,0-1.1.89l-12,22.2a1.86,1.86,0,0,0,.74,2.51l28,15.18a.31.31,0,0,1,.12.43A.3.3,0,0,1,320.41,96Z" class="color3b232f svgShape"/><path fill="#0099cb" d="M301.24,76.31a4.64,4.64,0,0,1-.67-2.57,6.32,6.32,0,0,1,.82-2.86l1.94-3.58a6.55,6.55,0,0,1,1.95-2.25,4.69,4.69,0,0,1,2.52-.84,5.26,5.26,0,0,1,2.71.69,5,5,0,0,1,1.8,1.59,5.09,5.09,0,0,1,.84,2.21,5.83,5.83,0,0,1-.25,2.5l-1.87-1a3.48,3.48,0,0,0,0-1.4,3.26,3.26,0,0,0-.54-1.25,3,3,0,0,0-2.58-1.23,2.9,2.9,0,0,0-1.51.57,4,4,0,0,0-1.21,1.44l-1.94,3.58a4.21,4.21,0,0,0-.55,1.79,2.94,2.94,0,0,0,.35,1.59,2.83,2.83,0,0,0,1.19,1.13,2.92,2.92,0,0,0,1.25.37,3.05,3.05,0,0,0,1.32-.21,3.36,3.36,0,0,0,1.18-.82l1.88,1a5.88,5.88,0,0,1-2,1.57,4.92,4.92,0,0,1-2.31.5,5.14,5.14,0,0,1-2.32-.63A5.3,5.3,0,0,1,301.24,76.31Z" class="color38a4b0 svgShape"/><path fill="#0099cb" d="M312.26,82.83a7.62,7.62,0,0,1-2.17-3L312,79a5.69,5.69,0,0,0,1.12,1.85,6.47,6.47,0,0,0,1.77,1.38,4.44,4.44,0,0,0,2.48.67,1.9,1.9,0,0,0,1.58-1.06h0a1.82,1.82,0,0,0,.23-1.27,2.39,2.39,0,0,0-.59-1.09,13,13,0,0,0-1.26-1.14.1.1,0,0,0-.05,0l-.06,0-.12-.1a15.74,15.74,0,0,1-1.85-1.66,3.41,3.41,0,0,1-.85-1.79,3.94,3.94,0,0,1,.58-2.45h0a4.39,4.39,0,0,1,1.66-1.77,4,4,0,0,1,2.29-.45,7.75,7.75,0,0,1,4,1.81A7.67,7.67,0,0,1,324.06,73a8.73,8.73,0,0,1,.89,1.46l-1.83.89a7,7,0,0,0-1-1.63,4.76,4.76,0,0,0-1.34-1.08,4,4,0,0,0-2.36-.59,2,2,0,0,0-1.56,1.11h0a1.63,1.63,0,0,0-.2,1.26,2.62,2.62,0,0,0,.65,1.09,16.32,16.32,0,0,0,1.37,1.24l.06,0,.06,0,.09.07.09.07a11.74,11.74,0,0,1,1.66,1.65,3.47,3.47,0,0,1,.75,1.79,3.89,3.89,0,0,1-.56,2.31v0a4.11,4.11,0,0,1-1.67,1.73,4,4,0,0,1-2.34.4,7.66,7.66,0,0,1-2.83-1A9.89,9.89,0,0,1,312.26,82.83Z" class="color38a4b0 svgShape"/><path fill="#0099cb" d="M323.2,88.76a8,8,0,0,1-1.28-1.39,7.38,7.38,0,0,1-.88-1.64l1.9-.78a5.82,5.82,0,0,0,1.11,1.86,6.47,6.47,0,0,0,1.77,1.38,4.44,4.44,0,0,0,2.48.66,1.91,1.91,0,0,0,1.59-1.06h0a1.71,1.71,0,0,0,.23-1.27,2.41,2.41,0,0,0-.59-1.08,9.87,9.87,0,0,0-1.25-1.14l-.06,0s0,0-.05,0l-.12-.1a15.87,15.87,0,0,1-1.86-1.66,3.43,3.43,0,0,1-.84-1.79,3.83,3.83,0,0,1,.57-2.44h0a4.2,4.2,0,0,1,1.66-1.77,3.81,3.81,0,0,1,2.29-.45,7.18,7.18,0,0,1,2.74.91,6.85,6.85,0,0,1,1.3.9A7.62,7.62,0,0,1,335,79a9.12,9.12,0,0,1,.88,1.46l-1.83.89a6.81,6.81,0,0,0-1-1.62,4.9,4.9,0,0,0-1.34-1.08,4,4,0,0,0-2.36-.59,2,2,0,0,0-1.56,1.11h0a1.61,1.61,0,0,0-.19,1.26,2.57,2.57,0,0,0,.64,1.08,13.84,13.84,0,0,0,1.38,1.24l.06,0,.06,0a.22.22,0,0,0,.09.07.6.6,0,0,1,.08.08,11.87,11.87,0,0,1,1.67,1.64,3.55,3.55,0,0,1,.75,1.79,3.87,3.87,0,0,1-.57,2.31v0a3.86,3.86,0,0,1-4,2.14,7.6,7.6,0,0,1-2.83-1A9.46,9.46,0,0,1,323.2,88.76Z" class="color38a4b0 svgShape"/><path fill="#0099cb" d="M213.77,256l-22.29-1.82a1.5,1.5,0,0,0-1.78,1.8l2,22.24a1.49,1.49,0,0,0,2.51.73l5.78-5.8,8.89,8.8a2,2,0,0,0,2.9,0l5.86-5.88a2.07,2.07,0,0,0,0-2.94l-8.87-8.79,5.78-5.8A1.51,1.51,0,0,0,213.77,256Z" class="color38a4b0 svgShape"/><circle cx="330.77" cy="101.88" r="6.19" fill="#5cff5c" class="colorffa25c svgShape"/><polygon fill="#fff" points="334.1 99.7 332.94 98.55 330.76 100.72 328.59 98.55 327.44 99.7 329.61 101.88 327.44 104.05 328.59 105.21 330.76 103.03 332.94 105.21 334.1 104.05 331.92 101.88 334.1 99.7" class="colorffffff svgShape"/><path fill="#3b4d3b" d="M115,75.34V75.1a4.57,4.57,0,0,0-4.56-4.57H98.63a4.58,4.58,0,0,0-4.57,4.57v2.46a4.56,4.56,0,0,0,4.57,4.56h2.46a4.57,4.57,0,0,1,4.56,4.56h0a4.56,4.56,0,0,0,4.56,4.56h11.34a4.54,4.54,0,0,0,4.56-4.56V84.46a4.57,4.57,0,0,0-4.56-4.56h-2A4.56,4.56,0,0,1,115,75.34Z" class="color4d3b4c svgShape"/><rect width="8.14" height="8.14" x="144.11" y="42.18" fill="#3efb3e" class="colorfb823e svgShape"/><rect width="8.14" height="8.14" x="180.72" y="60.3" fill="#0099cb" class="color38a4b0 svgShape"/><path fill="#fff" d="M226.08,30.1H203.4a2.81,2.81,0,0,1-2.83-2.83h0a2.83,2.83,0,0,1,2.83-2.84h22.68a2.84,2.84,0,0,1,2.84,2.84h0a2.84,2.84,0,0,1-2.84,2.83Z" class="colorffffff svgShape"/><path fill="#fff" d="M247.41,30.1H235.53a2.81,2.81,0,0,1-2.83-2.83h0a2.83,2.83,0,0,1,2.83-2.84h11.88a2.84,2.84,0,0,1,2.83,2.84h0a2.82,2.82,0,0,1-2.83,2.83Z" class="colorffffff svgShape"/><path fill="#fff" d="M211.54,68.07H199.66a2.83,2.83,0,0,1-2.83-2.84h0A2.83,2.83,0,0,1,197.92,63a2.8,2.8,0,0,1,1.74-.6h11.88a2.84,2.84,0,0,1,2.83,2.83h0a2.82,2.82,0,0,1-2.83,2.84Z" class="colorffffff svgShape"/><path fill="#fff" d="M184,49.63H161.33a2.83,2.83,0,0,1-2.84-2.83h0A2.85,2.85,0,0,1,161.33,44H184a2.84,2.84,0,0,1,2.83,2.84h0A2.82,2.82,0,0,1,184,49.63Z" class="colorffffff svgShape"/><path fill="#fff" d="M219.8,49.63H193.46a2.83,2.83,0,0,1-2.84-2.83h0A2.85,2.85,0,0,1,193.46,44H219.8a2.84,2.84,0,0,1,2.83,2.84h0a2.82,2.82,0,0,1-2.83,2.83Z" class="colorffffff svgShape"/><polygon fill="#c4ffc4" points="53.63 103.57 56.22 82.18 58.72 103.66 72.75 106.16 58.51 108.44 56.22 130.91 53.85 108.53 39.69 106.16 53.63 103.57" class="colorffddc4 svgShape"/><polygon fill="#c4ffc4" points="330.98 227.08 333.57 205.69 336.07 227.17 350.1 229.67 335.85 231.96 333.57 254.42 331.2 232.04 317.04 229.67 330.98 227.08" class="colorffddc4 svgShape"/><polygon fill="#c4ffc4" points="301.49 21.39 304.07 0 306.57 21.48 320.6 23.98 306.36 26.26 304.07 48.73 301.7 26.35 287.54 23.98 301.49 21.39" class="colorffddc4 svgShape"/><path fill="#233b23" d="M286.83,89.56a.3.3,0,0,1-.27-.16A18.78,18.78,0,0,0,270,79.54a.32.32,0,1,1,0-.63,19.47,19.47,0,0,1,9.16,2.3,19.27,19.27,0,0,1,7.91,7.89.32.32,0,0,1-.13.43A.33.33,0,0,1,286.83,89.56Z" class="color3b232f svgShape"/><path fill="#233b23" d="M291.66,146l-1,0-13.82-.82a.32.32,0,0,1-.29-.34.31.31,0,0,1,.33-.29l13.82.82a16,16,0,0,0,14.79-24.13L290,95.84a.31.31,0,1,1,.54-.32L306,120.88A16.67,16.67,0,0,1,291.66,146Z" class="color3b232f svgShape"/><path fill="#233b23" d="M265,144.44h0l-27.2-1.62a.32.32,0,0,1,0-.63l27.2,1.62a.32.32,0,0,1,.3.34A.32.32,0,0,1,265,144.44Z" class="color3b232f svgShape"/><path fill="#233b23" d="M191.23,102.54a.3.3,0,0,1-.29-.2.31.31,0,0,1,.18-.41A151.89,151.89,0,0,0,221.6,85.72a37.7,37.7,0,0,1,20-6.5.31.31,0,0,1,.32.31.31.31,0,0,1-.3.32A37.12,37.12,0,0,0,222,86.24a152.36,152.36,0,0,1-30.61,16.28Z" class="color3b232f svgShape"/></svg>