<svg xmlns="http://www.w3.org/2000/svg" data-name="Layer 1" viewBox="0 0 419.56 266.38"><defs><clipPath id="a"><path fill="none" d="M205.44,64.07a3.44,3.44,0,0,0,5.58.56,3.44,3.44,0,0,0-5.58-.56Z"/></clipPath><clipPath id="b"><path fill="none" d="M220.48,64.12a3.45,3.45,0,0,1-5.58.57,3.45,3.45,0,0,1,5.58-.57Z"/></clipPath></defs><path fill="#f0fff0" d="M251,39.78c-19.44,11.56-14.23,36.6,13.6,31.37s38.49,46.23,77.33.77-17.2-63.86-44.65-41.16S269.75,28.66,251,39.78Z" class="colorfff7f0 svgShape"/><path fill="#f0fff0" d="M99.6,193.9c-62.64,0-71.5,48.32-15.29,41.42s57.2,24.65,75.94,8.38S159.26,193.9,99.6,193.9Z" class="colorfff7f0 svgShape"/><path fill="#f0fff0" d="M131.15.62c-123.1,9.1-167.64,168.63-68,177s114.48,20,134.11,52.76c22.19,37,149.4,34,157.29-40.44s-60.65-98.61-109-98.61S257.87-8.75,131.15.62Z" class="colorfff7f0 svgShape"/><rect width="158.27" height="75.93" x="260.97" y="40.99" fill="#a5f0a5" class="colorf0c5a5 svgShape"/><path fill="#fff" d="M350.38,92.76h-74A2.45,2.45,0,0,1,274,90.3v-69a2.47,2.47,0,0,1,2.46-2.47h74a2.49,2.49,0,0,1,2.47,2.47v69a2.48,2.48,0,0,1-2.47,2.46Z" class="colorffffff svgShape"/><path fill="#233b23" d="M350.38,93.08H325.05a.32.32,0,1,1,0-.63h25.33a2.18,2.18,0,0,0,1.52-.63,2.13,2.13,0,0,0,.63-1.52v-40a.32.32,0,0,1,.63,0v40a2.78,2.78,0,0,1-2.78,2.78Z" class="color3b232f svgShape"/><path fill="#233b23" d="M280.8,93.08h-4.38a2.77,2.77,0,0,1-2.78-2.78v-69a2.76,2.76,0,0,1,1-2.14,2.81,2.81,0,0,1,1.78-.64h74a2.77,2.77,0,0,1,2.78,2.78V31.42a.32.32,0,1,1-.63,0V21.27a2.15,2.15,0,0,0-2.15-2.15h-74a2.19,2.19,0,0,0-1.38.5,2.14,2.14,0,0,0-.77,1.65v69a2.13,2.13,0,0,0,.56,1.44,2.16,2.16,0,0,0,1.59.71h4.38a.32.32,0,0,1,0,.63Z" class="color3b232f svgShape"/><path fill="#233b23" d="M313.4,88.87a.63.63,0,0,1-.63-.63V23.32a.63.63,0,1,1,1.26,0V88.24A.63.63,0,0,1,313.4,88.87Z" class="color3b232f svgShape"/><path fill="#233b23" d="M347.09,56.41H279.71a.63.63,0,0,1-.63-.63.63.63,0,0,1,.63-.63h67.38a.63.63,0,0,1,.63.63A.63.63,0,0,1,347.09,56.41Z" class="color3b232f svgShape"/><path fill="#233b23" d="M306.41,62.83a1.54,1.54,0,0,1-.39-1.12V59.27a1.49,1.49,0,0,1,.4-1.12,1.51,1.51,0,0,1,1.14-.4,1.54,1.54,0,0,1,1.14.39,1.57,1.57,0,0,1,.39,1.13v2.44a1.61,1.61,0,0,1-2.68,1.12Zm1.73-.52a.85.85,0,0,0,.19-.6V59.27a.9.9,0,0,0-.18-.6.77.77,0,0,0-.59-.21.74.74,0,0,0-.59.21.85.85,0,0,0-.19.6v2.44a.85.85,0,0,0,.19.6.74.74,0,0,0,.59.21A.73.73,0,0,0,308.14,62.31Z" class="color3b232f svgShape"/><path fill="#43e243" d="M312.85,55.48v-.63a14,14,0,0,0,13.52-10.51l2.57-17.45.62.1L327,44.46a14.56,14.56,0,0,1-14.13,11Z" class="colore2435f svgShape"/><path fill="#43e243" d="M313.35,55.48a14.58,14.58,0,0,1-14.13-11L296.64,27l.62-.1,2.58,17.48a13.92,13.92,0,0,0,13.51,10.48Z" class="colore2435f svgShape"/><path fill="#233b23" d="M315.64,55.6a2.22,2.22,0,1,1-2.22-2.22A2.22,2.22,0,0,1,315.64,55.6Z" class="color3b232f svgShape"/><path fill="#43e243" d="M314.47,55.6a1.05,1.05,0,1,1-1.05-1.05A1,1,0,0,1,314.47,55.6Z" class="colore2435f svgShape"/><path fill="#a5f0a5" d="M371.28,266.38H4.44A4.43,4.43,0,0,1,0,261.94H0a4.47,4.47,0,0,1,1.58-3.4,4.42,4.42,0,0,1,2.86-1H371.28a4.44,4.44,0,0,1,4.43,4.44h0a4.42,4.42,0,0,1-4.43,4.44Z" class="colorf0c5a5 svgShape"/><path fill="#233b23" d="M141.7,98.41v29.05s-8.47-7.75-8.71-7.83-2.75-11.62-2.26-12.75,6.94-5.57,7-5.81S141.7,98.41,141.7,98.41Z" class="color3b232f svgShape"/><path fill="#0099cb" d="M17.59,112.78V236.53a21,21,0,0,0,21,21H141.94a2.68,2.68,0,0,0,2.68-2.69V131.11Z" class="color4ec2cf svgShape"/><path fill="#9cfc9c" d="M141.94,128.42h-1.55l-24.67-14.68,24.67-16.6h1.55a2.68,2.68,0,1,0,0-5.36H38.59a21,21,0,0,0-21,21h0a21,21,0,0,0,21,21H141.94a2.69,2.69,0,0,0,0-5.37Z" class="color9cf3fc svgShape"/><path fill="#fff" d="M38.87,97.11H140.43a1.33,1.33,0,0,1,.89,2.23l-1.59,1.74a17.54,17.54,0,0,0-.1,23.18l1.73,1.95a1.32,1.32,0,0,1-.89,2.21H38.87c-8.09,0-14.65-7-14.65-15.65h0C24.22,104.12,30.78,97.11,38.87,97.11Z" class="colorffffff svgShape"/><path fill="#a5f0a5" d="M80.53,115.11H32.05a2,2,0,0,0-2,2h0a1.93,1.93,0,0,0,.16.77,2,2,0,0,0,1.82,1.21H80.53a2,2,0,0,0,1.72-1,2,2,0,0,0,.25-1h0a2,2,0,0,0-2-2Z" class="colorf0c5a5 svgShape"/><path fill="#a5f0a5" d="M130.94,105.45H42a2,2,0,0,0-2,2h0a1.94,1.94,0,0,0,.58,1.39,2,2,0,0,0,1.4.58h88.94a2,2,0,0,0,1.72-1,2,2,0,0,0,.26-1h0a2,2,0,0,0-.84-1.62A1.93,1.93,0,0,0,130.94,105.45Z" class="colorf0c5a5 svgShape"/><polygon fill="#5cff5c" points="109.35 160.65 99.97 154.88 90.59 160.65 90.59 114.64 109.35 114.64 109.35 160.65" class="colorffa25c svgShape"/><path fill="#233b23" d="M109.35,161a.33.33,0,0,1-.17,0l-9.38-5.77a.32.32,0,0,1-.1-.43.31.31,0,0,1,.43-.1l8.9,5.47V115H90.91v45.7a.32.32,0,0,1-.32.31.31.31,0,0,1-.31-.31v-46a.31.31,0,0,1,.31-.32h18.76a.31.31,0,0,1,.31.32v46a.3.3,0,0,1-.16.27A.28.28,0,0,1,109.35,161Z" class="color3b232f svgShape"/><path fill="#fff" d="M58.48,158.41,38.72,212h8.11l4-11.76H72.51l4,11.76h8.11L64.9,158.41Zm-5.15,34.7,8.36-24.33,8.36,24.33Z" class="colorffffff svgShape"/><path fill="#fff" d="M119,179.75a11.65,11.65,0,0,0-5.16-4.87,18.2,18.2,0,0,0-8.15-1.68,20.71,20.71,0,0,0-7.91,1.46,14.43,14.43,0,0,0-5.74,4.07l5.5,3.76a13.52,13.52,0,0,1,3.89-2,14.51,14.51,0,0,1,4.48-.7,7.55,7.55,0,0,1,5.7,2.08,8.08,8.08,0,0,1,2,5.85v1.62H103.1q-6.5,0-9.7,2.84t-3.21,8.52q0,6,3.51,8.9t10.58,2.93a17.2,17.2,0,0,0,4.31-.49,10.74,10.74,0,0,0,3.38-1.5,9,9,0,0,0,1.68-1.52v3h7.15v-24.6A15.6,15.6,0,0,0,119,179.75Zm-7.5,25.79a17.14,17.14,0,0,1-6.44.92q-3.95,0-5.88-1.4a5,5,0,0,1-1.94-4.31,5.1,5.1,0,0,1,1.46-4,6.39,6.39,0,0,1,4.41-1.31h10.51v7.22A3,3,0,0,1,111.53,205.54Z" class="colorffffff svgShape"/><path fill="#3d573d" d="M201,97.51h191a5,5,0,0,1,4.7,6.79L354.1,217.92A16.1,16.1,0,0,1,339,228.36H148a5,5,0,0,1-4.7-6.79L185.94,108A16.07,16.07,0,0,1,201,97.51Z" class="color573d56 svgShape"/><path fill="#85ad85" d="M192.73,97.51h191a5,5,0,0,1,4.71,6.79L345.82,217.92a16.1,16.1,0,0,1-15.07,10.44h-191a5,5,0,0,1-4.71-6.79L177.66,108a16.07,16.07,0,0,1,15.07-10.44Z" class="colorad85ab svgShape"/><path fill="#fff" d="M144,213.86a2,2,0,0,1-1.76-1,2,2,0,0,1-.13-1.7L180.48,109a13.09,13.09,0,0,1,12.25-8.49h191a2,2,0,0,1,1.89,2.72L347.24,205.37A13.1,13.1,0,0,1,335,213.86Z" class="colorffffff svgShape"/><path fill="#3d573d" d="M52.62,227.54H34.06a2.61,2.61,0,0,0-.69.09,2.66,2.66,0,0,0-2,2.56v4.72H55.27v-4.72a2.64,2.64,0,0,0-.91-2A2.67,2.67,0,0,0,52.62,227.54Z" class="color573d56 svgShape"/><path fill="#3d573d" d="M151.28,227.54H132.72a2.61,2.61,0,0,0-.69.09,2.65,2.65,0,0,0-2,2.56v4.72h23.87v-4.72a2.66,2.66,0,0,0-2.66-2.65Z" class="color573d56 svgShape"/><path fill="#3d573d" d="M182.16,227.54H163.6a2.61,2.61,0,0,0-.69.09,2.66,2.66,0,0,0-2,2.56v4.72h23.88v-4.72a2.66,2.66,0,0,0-2.66-2.65Z" class="color573d56 svgShape"/><path fill="#3d573d" d="M213,227.54H194.48a2.61,2.61,0,0,0-.69.09,2.66,2.66,0,0,0-2,2.56v4.72H215.7v-4.72a2.66,2.66,0,0,0-2.66-2.65Z" class="color573d56 svgShape"/><path fill="#3d573d" d="M120.7,227.54H64.93a2.59,2.59,0,0,0-.68.09,2.66,2.66,0,0,0-2,2.56v4.72h61.07v-4.72a2.64,2.64,0,0,0-.91-2A2.69,2.69,0,0,0,120.7,227.54Z" class="color573d56 svgShape"/><path fill="#85ad85" d="M200.47,257.44H35.33a23.19,23.19,0,0,1-23.18-23.19h211.5a23.18,23.18,0,0,1-23.18,23.19Z" class="colorad85ab svgShape"/><path fill="#3d573d" d="M325.43,257.44H186.72a23.19,23.19,0,0,1-23.19-23.19H348.61a23.18,23.18,0,0,1-23.18,23.19Z" class="color573d56 svgShape"/><path fill="#a5f0a5" d="M167.47,184.85a1.49,1.49,0,0,1-1.39-2l22.26-59.62a9.72,9.72,0,0,1,9.09-6.29h95.26a1.47,1.47,0,0,1,1.14.53,1.5,1.5,0,0,1,.26,1.49l-22.27,59.62a9.63,9.63,0,0,1-2.06,3.28,9.75,9.75,0,0,1-7,3Z" class="colorf0c5a5 svgShape"/><path fill="#3b8a3b" d="M287.3,96.27C292,83.55,291,74.34,290.1,70.1a1.8,1.8,0,0,1,.1-1.08,1.86,1.86,0,0,1,1.27-1.12h0a1.85,1.85,0,0,1,.62-.07,1.93,1.93,0,0,1,1.51.92A35.5,35.5,0,0,1,298,81.28a54.31,54.31,0,0,1,22.26-11.12,2,2,0,0,1,2.21,1l0,.06a2,2,0,0,1,.15,1.62,2.06,2.06,0,0,1-1.1,1.22,26.22,26.22,0,0,0-6.76,4.35,35.07,35.07,0,0,1,7.47-2.15,2.55,2.55,0,0,1,2.21.52,2.61,2.61,0,0,1,.87,1.43h0a2.64,2.64,0,0,1-.08,1.37,2.58,2.58,0,0,1-1.4,1.52c-2,.9-3.15,1.49-3.15,1.49l3.62-.33A1.57,1.57,0,0,1,326,83.83h0a1.39,1.39,0,0,1-.06.4,1.59,1.59,0,0,1-.73.94C310.16,94,306.34,104.38,305.61,106s-5.43,34.36-36,40.48c-26.63,5.33-45.81-27.06-45.81-27.06l18.12-17.07C257.48,120.46,277.76,134,287.3,96.27Z" class="color8a433b svgShape"/><path fill="#3b8a3b" d="M312.74,73a40.18,40.18,0,0,1,3.43-3.12,2.09,2.09,0,0,0,.77-2,2.15,2.15,0,0,0-.51-1.09h0a2.16,2.16,0,0,0-.83-.58,2.12,2.12,0,0,0-1.86.17c-8.3,5-15.76,14.83-15.76,14.83L309.32,78C309.49,77.94,312.74,73,312.74,73Z" class="color8a433b svgShape"/><path fill="#233b23" d="M307.18,78.68a.16.16,0,0,0,.1-.08,24.63,24.63,0,0,1,5.57-5.42.2.2,0,0,0,0-.27.19.19,0,0,0-.26,0A24.84,24.84,0,0,0,307,78.39a.19.19,0,0,0,.21.29Z" class="color3b232f svgShape"/><path fill="#233b23" d="M313.84,86.94l.08,0a33.5,33.5,0,0,1,5-3.63A.18.18,0,0,0,319,83a.19.19,0,0,0-.26-.06,32.14,32.14,0,0,0-5.07,3.68.2.2,0,0,0,0,.27A.19.19,0,0,0,313.84,86.94Z" class="color3b232f svgShape"/><path fill="#233b23" d="M312.25,80.48l.07,0,2.09-1.67a.19.19,0,0,0-.24-.3l-2.09,1.67a.2.2,0,0,0,0,.27A.2.2,0,0,0,312.25,80.48Z" class="color3b232f svgShape"/><path fill="#233b23" d="M302.41,93.72a.19.19,0,0,1-.1,0,.2.2,0,0,1-.1-.18c0-.06-.15-6.15-3.89-10.41a.2.2,0,1,1,.3-.27c3.32,3.78,3.88,8.94,4,10.33,4.76-2.9,8.31-2.53,8.46-2.51a.19.19,0,0,1,.18.22.2.2,0,0,1-.22.18s-3.73-.38-8.5,2.63A.21.21,0,0,1,302.41,93.72Z" class="color3b232f svgShape"/><path fill="#233b23" d="M313.77,87a.18.18,0,0,1-.17-.11s-3.41-5.77-8.61-8.27a.2.2,0,0,1-.1-.27.2.2,0,0,1,.27-.1c5.33,2.55,8.75,8.38,8.79,8.44a.21.21,0,0,1-.08.28A.17.17,0,0,1,313.77,87Z" class="color3b232f svgShape"/><path fill="#338a33" d="M281.85,142a8.63,8.63,0,0,0-16.73,3,9.1,9.1,0,0,0,.25,2,29.86,29.86,0,0,0,4.23-.54A41.83,41.83,0,0,0,281.85,142Z" class="color8a3b33 svgShape"/><path fill="#233b23" d="M225.26,72.58h-2.15v-.67h2.15a.45.45,0,0,0,.42-.26.46.46,0,0,0,0-.49c-5.74-7.81-5.7-7.84-5.43-8.12l.24.23.32-.09c.11.26,1.58,2.38,5.41,7.59a1.14,1.14,0,0,1-.92,1.81Z" class="color3b232f svgShape"/><path fill="#43e243" d="M256.59,180.26c-6.31-17.84-14.27-35.66-23.35-46l-15.2-2.5-1.82,17.48-.64,31Z" class="colore2435f svgShape"/><path fill="#43e243" d="M194.43,134c-13.34,10.11-22.17,29.88-24.06,46.22h50.69l.38-15.8,6.13-5.45-1.36-26.21Z" class="colore2435f svgShape"/><path fill="#233b23" d="M226.41,139.73a.29.29,0,0,0-.27.31c.42,5.43,1.06,16.14.47,17.89-.72,2.17-5.32,6.27-5.36,6.31a.28.28,0,0,0-.1.21l-.38,15.81h.58l.38-15.67c.69-.62,4.71-4.31,5.43-6.47s-.39-17.48-.44-18.12A.29.29,0,0,0,226.41,139.73Z" class="color3b232f svgShape"/><path fill="#233b23" d="M221.59,156.8a.28.28,0,0,1-.29-.28l-.3-15.28a.29.29,0,0,1,.28-.3.28.28,0,0,1,.3.28l.3,15.29a.28.28,0,0,1-.28.29Z" class="color3b232f svgShape"/><rect width="38.02" height="3.97" x="195.22" y="130.3" fill="#233b23" class="color3b232f svgShape"/><rect width="2.84" height="6.13" x="199.99" y="129.96" fill="#43e243" class="colore2435f svgShape"/><rect width="2.84" height="6.13" x="228.99" y="129.96" fill="#43e243" class="colore2435f svgShape"/><path fill="#fff" d="M194.28,82.82h-9.15a21,21,0,0,0-12.77,4.33l-11.75,9,21.49,27.08,5.75-3.93s7.87,8.93,7.41,10.89h37.83s-2.87-8.77,1.21-13.31a13,13,0,0,0,3.63-9.23h10.14l-6.86-15.19a15.22,15.22,0,0,0-12.77-8.92l-5.56-.4Z" class="colorffffff svgShape"/><path fill="#233b23" d="M197.84,66.29c-3.27-5.38-3.32-9.64-1.6-12.53.09-.16.19-.31.29-.46a9.39,9.39,0,0,1,6.18-3.69c1.48-1.7,5.91-3,9-1.7s9.53.23,10.33,1.25a5.58,5.58,0,0,1-1.48,7.56c1.82,2,1.36,5.37-.57,7.3s-20.76,5.34-20.76,5.34Z" class="color3b232f svgShape"/><path fill="#5cff5c" d="M191,82.82l.78,1.41a20.82,20.82,0,0,0,18.07,10.41h0a16.44,16.44,0,0,0,15.75-10.42l.36-.87-3-.22-28.6-.31Z" class="colorffa25c svgShape"/><path fill="#3b8a3b" d="M202.45,70.26l-1.13,12.56h-7c5.9,10.67,23.45,12.94,28.6.31h-8.7l.3-7.27Z" class="color8a433b svgShape"/><path fill="#233b23" d="M214.26,81.22l.22-5.36-2.37-1.1-6.48-1.62C207.23,80,210.52,82.19,214.26,81.22Z" class="color3b232f svgShape"/><path fill="#3b8a3b" d="M207.52,54.3c-1.29,1-1.74,1-1.74,1-1,3.86-4.31,6-4.09,6.13,1.14,3.18-.22,8.1-.22,8.1,2.95,4.46,9,11.2,13.92,9.23s6.35-9.38,5.75-13.39a67.26,67.26,0,0,1-.61-8.63C215.69,59.75,209.64,57.78,207.52,54.3Z" class="color8a433b svgShape"/><path fill="#233b23" d="M209.86,70.26c2.12-.54,3.13-.34,3.37.89.81-1.34,2-.53,2.5-.2C214.63,73.59,211.81,73.56,209.86,70.26Z" class="color3b232f svgShape"/><path fill="#338a33" d="M196.38,69.69a3.36,3.36,0,1,0,1.45-4.52A3.35,3.35,0,0,0,196.38,69.69Z" class="color8a3b33 svgShape"/><path fill="#233b23" d="M201.37,68.92a.18.18,0,0,0,.09-.1,2,2,0,1,0-3.74-1.21.18.18,0,1,0,.35.11,1.6,1.6,0,0,1,3,1,.19.19,0,0,0,.12.23A.17.17,0,0,0,201.37,68.92Z" class="color3b232f svgShape"/><path fill="#233b23" d="M200.15,68.76a.16.16,0,0,0,.09-.12.18.18,0,0,0-.13-.22.81.81,0,0,1-.48-.35.76.76,0,0,1-.08-.59.77.77,0,0,1,.94-.57.18.18,0,1,0,.09-.35,1.11,1.11,0,0,0-.87.13,1.13,1.13,0,0,0-.39,1.56,1.09,1.09,0,0,0,.7.52A.15.15,0,0,0,200.15,68.76Z" class="color3b232f svgShape"/><path fill="#fff" d="M205.44,64.07a3.44,3.44,0,0,0,5.58.56,3.44,3.44,0,0,0-5.58-.56Z" class="colorffffff svgShape"/><path fill="#233b23" d="M211.07,64.81a.09.09,0,0,0,.06,0,.18.18,0,0,0,.05-.26,4.58,4.58,0,0,0-2.78-1.8,4.32,4.32,0,0,0-3,1.13l-.6-.25a.19.19,0,0,0-.14.35l.7.29a.17.17,0,0,0,.2,0,3.26,3.26,0,0,1,5.3.54A.2.2,0,0,0,211.07,64.81Z" class="color3b232f svgShape"/><path fill="#233b23" d="M205.8,65.8s0,0,0,0l.41-.43a.19.19,0,0,0,0-.27.2.2,0,0,0-.27,0l-.4.44a.19.19,0,0,0,0,.26A.18.18,0,0,0,205.8,65.8Z" class="color3b232f svgShape"/><path fill="#233b23" d="M206.6,66.2s.05,0,.06-.07l.21-.38a.21.21,0,0,0-.08-.26.2.2,0,0,0-.26.08l-.2.38a.19.19,0,0,0,.27.25Z" class="color3b232f svgShape"/><path fill="#233b23" d="M207.46,66.3a.2.2,0,0,0,0-.08l.07-.28a.19.19,0,0,0-.36-.09l-.07.28a.19.19,0,0,0,.14.23A.21.21,0,0,0,207.46,66.3Z" class="color3b232f svgShape"/><g class="color000000 svgShape" clip-path="url(#a)"><path fill="#233b23" d="M211.13,64.63a1.35,1.35,0,1,1-1.35-1.35A1.34,1.34,0,0,1,211.13,64.63Z" class="color3b232f svgShape"/></g><path fill="#fff" d="M220.48,64.12a3.45,3.45,0,0,1-5.58.57,3.45,3.45,0,0,1,5.58-.57Z" class="colorffffff svgShape"/><path fill="#233b23" d="M214.85,64.87l-.06,0a.18.18,0,0,1,0-.26,4.5,4.5,0,0,1,2.79-1.8,4.37,4.37,0,0,1,3,1.13l.59-.25a.18.18,0,1,1,.14.34l-.7.3a.19.19,0,0,1-.2,0,3.25,3.25,0,0,0-5.3.54A.2.2,0,0,1,214.85,64.87Z" class="color3b232f svgShape"/><path fill="#233b23" d="M220.12,65.86l0,0-.41-.43a.2.2,0,0,1,0-.27.19.19,0,0,1,.27,0l.41.43a.2.2,0,0,1,0,.27A.18.18,0,0,1,220.12,65.86Z" class="color3b232f svgShape"/><path fill="#233b23" d="M219.33,66.25a.16.16,0,0,1-.07-.07l-.2-.38a.18.18,0,0,1,.07-.25.19.19,0,0,1,.26.08l.2.38a.18.18,0,0,1-.08.25A.17.17,0,0,1,219.33,66.25Z" class="color3b232f svgShape"/><path fill="#233b23" d="M218.47,66.36a.13.13,0,0,1-.05-.09l-.07-.27a.19.19,0,0,1,.14-.23.18.18,0,0,1,.22.14l.07.28a.17.17,0,0,1-.13.22A.17.17,0,0,1,218.47,66.36Z" class="color3b232f svgShape"/><g class="color000000 svgShape" clip-path="url(#b)"><path fill="#233b23" d="M217.72,64.33A1.36,1.36,0,1,0,219.07,63,1.35,1.35,0,0,0,217.72,64.33Z" class="color3b232f svgShape"/></g><path fill="#338a33" d="M214.28,68.53c1.16-.52,1.8-1.86,1.14-2.2S210.52,67.37,214.28,68.53Z" class="color8a3b33 svgShape"/><path fill="#233b23" d="M214.23,68.74l.09,0c.61-.36,1.56-1.2,1.52-1.93a.85.85,0,0,0-.58-.74,1.66,1.66,0,0,1-.93-2.12.17.17,0,0,0-.11-.22.16.16,0,0,0-.22.1,2,2,0,0,0,1.11,2.56c.25.11.37.25.38.44,0,.49-.68,1.22-1.34,1.61a.17.17,0,0,0-.07.24A.19.19,0,0,0,214.23,68.74Z" class="color3b232f svgShape"/><path fill="#338a33" d="M209.75,69a2.85,2.85,0,1,1-2.82-2.46A2.66,2.66,0,0,1,209.75,69Z" class="color8a3b33 svgShape"/><path fill="#338a33" d="M217,69.17a2.65,2.65,0,0,0,2.81,2.46,3.24,3.24,0,0,0,.94-.14,18,18,0,0,0,.54-4.42,3.14,3.14,0,0,0-1.48-.36A2.65,2.65,0,0,0,217,69.17Z" class="color8a3b33 svgShape"/><path fill="#233b23" d="M209.79,60.64c0,.34-.91.62-2,.62s-2-.28-2-.62.91-.63,2-.63S209.79,60.29,209.79,60.64Z" class="color3b232f svgShape"/><path fill="#233b23" d="M220.49,60.83c0,.34-.9.62-2,.62s-2-.28-2-.62.9-.63,2-.63S220.49,60.48,220.49,60.83Z" class="color3b232f svgShape"/><path fill="#233b23" d="M212.57,68.55a.13.13,0,0,1-.11-.06.29.29,0,0,1,0-.33.58.58,0,0,1,.55-.22.14.14,0,0,1,.12.17.14.14,0,0,1-.16.12.3.3,0,0,0-.24.06l0,0a.16.16,0,0,1,0,.21A.11.11,0,0,1,212.57,68.55Z" class="color3b232f svgShape"/><path fill="#233b23" d="M213.73,71.39a8.44,8.44,0,0,1-4.13-1.11.15.15,0,1,1,.15-.25,7.49,7.49,0,0,0,6.11.71.15.15,0,0,1,.19.07A.14.14,0,0,1,216,71,5.85,5.85,0,0,1,213.73,71.39Z" class="color3b232f svgShape"/><path fill="#338a33" d="M211.71,73.58a3,3,0,0,0,2.72.23C213.89,75.26,212.39,74.89,211.71,73.58Z" class="color8a3b33 svgShape"/><path fill="#325432" d="M215.3,55.51c-2.88,0-5.73-1.36-6.81-3.27a.15.15,0,1,1,.25-.15c1,1.83,3.93,3.17,6.72,3.12a5.5,5.5,0,0,0,5-2.72.16.16,0,0,1,.2-.06.16.16,0,0,1,.06.2,5.66,5.66,0,0,1-5.25,2.87Z" class="color543243 svgShape"/><path fill="#325432" d="M214.61,53.25l-.51,0a6.08,6.08,0,0,1-4.47-2.41.15.15,0,0,1,0-.2.15.15,0,0,1,.2.05,5.78,5.78,0,0,0,4.25,2.27,4.82,4.82,0,0,0,4.09-1.55.15.15,0,1,1,.22.19A5,5,0,0,1,214.61,53.25Z" class="color543243 svgShape"/><path fill="#325432" d="M198.86,63.2a.15.15,0,0,1-.13-.07,8.75,8.75,0,0,1-.38-6.61,5.21,5.21,0,0,1,3.3-3.19.16.16,0,0,1,.18.09.14.14,0,0,1-.09.19,4.91,4.91,0,0,0-3.12,3A8.53,8.53,0,0,0,199,63a.15.15,0,0,1,0,.2Z" class="color543243 svgShape"/><path fill="#325432" d="M200.33,59.4a.14.14,0,0,1-.14-.13,5,5,0,0,1,1.63-4.09.15.15,0,0,1,.21,0,.14.14,0,0,1,0,.2,4.79,4.79,0,0,0-1.54,3.85.15.15,0,0,1-.13.16Z" class="color543243 svgShape"/><path fill="#325432" d="M196.24,45.82a.14.14,0,0,1,.19,0,5,5,0,0,1,1.35,4.2.15.15,0,0,1-.17.12.14.14,0,0,1-.12-.16,4.8,4.8,0,0,0-1.26-4,.15.15,0,0,1,0-.21Z" class="color543243 svgShape"/><path fill="#3b8a3b" d="M164.47,100.91,181,121.33l-14.53,21.34s21.34-7.95,27.92-8.63c5.73-.59,13.22,12.84,15.08,16.35a1.53,1.53,0,0,1,.11.27,1.21,1.21,0,0,1-.37,1.17h0a1.2,1.2,0,0,1-1.43.12l-10.44-6.63.83,16.71a1.75,1.75,0,0,1-.74,1.52,1.81,1.81,0,0,1-.76.3h0a1.74,1.74,0,0,1-1.86-1l-.5-1.15-.19,1.42a1,1,0,0,1-.35.64,1,1,0,0,1-.61.21h0a1,1,0,0,1-.55-.17,1,1,0,0,1-.36-.44l-3.08-7.71,1.36,6.52a1.08,1.08,0,0,1-.23.92.88.88,0,0,1-.25.22h0a1.07,1.07,0,0,1-.61.17,1.1,1.1,0,0,1-.95-.6c-2.31-4.65-3.39-5.67-12.6-1.11-4.5,2.24-14,7.88-22.39,10.85a16.89,16.89,0,0,1-21.4-9.86h0a16.62,16.62,0,0,1-1.11-5.17,16.84,16.84,0,0,1,1.35-7.62C144.26,122.55,164.47,100.91,164.47,100.91Z" class="color8a433b svgShape"/><path fill="#338a33" d="M137.23,158.44a7.93,7.93,0,0,0-5.69,2.41,16.24,16.24,0,0,0,.6,1.87h0a16.87,16.87,0,0,0,10.09,9.84,7.94,7.94,0,0,0-5-14.12Z" class="color8a3b33 svgShape"/><path fill="#233b23" d="M136.55,156a.27.27,0,0,1-.23-.12.29.29,0,0,1,.06-.41,99.37,99.37,0,0,1,28.35-13.09.29.29,0,1,1,.16.56,98.72,98.72,0,0,0-28.17,13A.27.27,0,0,1,136.55,156Z" class="color3b232f svgShape"/><path fill="#233b23" d="M194.51,160.06h0a.29.29,0,0,1-.28-.3,44.67,44.67,0,0,0-1.05-9.83.29.29,0,0,1,.2-.36.31.31,0,0,1,.36.21,45.41,45.41,0,0,1,1.07,10A.3.3,0,0,1,194.51,160.06Z" class="color3b232f svgShape"/><path fill="#233b23" d="M188.91,154.84a.29.29,0,0,1-.25-.14l-.68-1.14a.29.29,0,0,1,.5-.3l.68,1.14a.29.29,0,0,1-.1.39A.3.3,0,0,1,188.91,154.84Z" class="color3b232f svgShape"/><polygon fill="#5cff5c" points="160.61 96.14 182.1 123.22 186.27 120.37 165.04 92.75 160.61 96.14" class="colorffa25c svgShape"/><path fill="#5cff5c" d="M237.93,107.64h10.14l-1.84-4.09h-9.51A22.68,22.68,0,0,0,237.93,107.64Z" class="colorffa25c svgShape"/><path fill="#233b23" d="M190.35,108.46h-.06a.29.29,0,0,1-.23-.34c1.25-6,.2-14.93-4.24-20.53a.3.3,0,0,1,0-.41.29.29,0,0,1,.41,0c4.55,5.73,5.64,14.91,4.36,21A.3.3,0,0,1,190.35,108.46Z" class="color3b232f svgShape"/><path fill="#233b23" d="M184.77,86.27a.32.32,0,0,1-.21-.08,12.57,12.57,0,0,0-2-1.61.29.29,0,0,1,.32-.49A14.92,14.92,0,0,1,185,85.77a.29.29,0,0,1,0,.41A.27.27,0,0,1,184.77,86.27Z" class="color3b232f svgShape"/><path fill="#233b23" d="M237.93,107.93a.29.29,0,0,1-.28-.24,28.66,28.66,0,0,0-3-7.29c-1.39-2.68-2.69-5.22-2.87-7.64a.29.29,0,0,1,.27-.31.28.28,0,0,1,.31.26c.17,2.31,1.45,4.79,2.8,7.42a28.87,28.87,0,0,1,3,7.46.29.29,0,0,1-.23.33Z" class="color3b232f svgShape"/><path fill="#fff" d="M190.42,234a.29.29,0,0,1-.28-.22s-.44-1.83-1.11-4.71a.29.29,0,0,1,.21-.35.29.29,0,0,1,.35.22l1.11,4.71a.29.29,0,0,1-.21.35Z" class="colorffffff svgShape"/><path fill="#fff" d="M181.18,175.3h0a.29.29,0,0,1-.26-.32,70.46,70.46,0,0,1,1.38-8.83.29.29,0,0,1,.35-.22.3.3,0,0,1,.22.35,67.31,67.31,0,0,0-1.37,8.76A.29.29,0,0,1,181.18,175.3Z" class="colorffffff svgShape"/><path fill="#fff" d="M183.31,163.54h-.08a.29.29,0,0,1-.19-.36c.23-.82.49-1.61.75-2.36a.28.28,0,0,1,.37-.18.29.29,0,0,1,.18.37c-.26.74-.51,1.52-.75,2.33A.28.28,0,0,1,183.31,163.54Z" class="colorffffff svgShape"/><path fill="#fff" d="M209,64.09a.46.46,0,0,1-.92,0,.46.46,0,0,1,.92,0Z" class="colorffffff svgShape"/><path fill="#fff" d="M218.23,63.93a.46.46,0,0,1-.46.46.45.45,0,0,1-.46-.46.46.46,0,0,1,.46-.46A.47.47,0,0,1,218.23,63.93Z" class="colorffffff svgShape"/><path fill="#233b23" d="M222.47,73.43h-1.82a1.26,1.26,0,0,1-1-.45,1.24,1.24,0,0,1-.28-.8h0a1.2,1.2,0,0,1,.21-.69,1.24,1.24,0,0,1,1-.55h1.82a1.19,1.19,0,0,1,.75.25,1.25,1.25,0,0,1,.5,1h0a1.28,1.28,0,0,1-.23.72A1.23,1.23,0,0,1,222.47,73.43Z" class="color3b232f svgShape"/><path fill="#233b23" d="M196.87,54.55c1-6.57-5.34-13.15-5.09-5.09-5.84-6-16.68,8.46-.49,12.82-.33,2.71,4.52.57,5-3.78S196.87,54.55,196.87,54.55Z" class="color3b232f svgShape"/><rect width="12.08" height="7.15" x="194.9" y="102.01" fill="#f0fff0" class="colorfff7f0 svgShape"/><rect width="2.18" height="2.05" x="199.79" y="101.02" fill="#5cff5c" class="colorffa25c svgShape"/><path fill="#233b23" d="M199.89,105.2h-3.24a.32.32,0,1,1,0-.63h3.24a.32.32,0,1,1,0,.63Z" class="color3b232f svgShape"/><path fill="#233b23" d="M205,107.09h-6.07a.32.32,0,0,1,0-.63H205a.32.32,0,0,1,0,.63Z" class="color3b232f svgShape"/><path fill="#233b23" d="M197.67,107.09h-1a.32.32,0,1,1,0-.63h1a.32.32,0,1,1,0,.63Z" class="color3b232f svgShape"/><path fill="#0099cb" d="M358.94,155.32a22.21,22.21,0,0,0-5.38-3.19A26.33,26.33,0,0,0,343,149.94H318.77l-6.14.2a23.05,23.05,0,0,0-8.7,2A22.53,22.53,0,0,0,297,157a75.32,75.32,0,0,1-29,18.57l16.38,39,31.18,20.21,37.83,4.31,23.06,1.44C376.46,240.35,397.45,187.23,358.94,155.32Z" class="color4ec2cf svgShape"/><path fill="#fff" d="M340.33,231.13v6.48l13.07,1.49,23.06,1.44a88.74,88.74,0,0,0,2.8-9.41Z" class="colorffffff svgShape"/><rect width="22.87" height="6.53" x="353.6" y="237.27" fill="#233b23" class="color3b232f svgShape" rx="3.02"/><path fill="#6dff6d" d="M338.16,251.75c4.31-2.09,7.55,3,10.69,5s10.49-.26,14-4.83,4.58-14.51,4.58-14.51H344.58L335,243Z" class="colorff7c6d svgShape"/><path fill="#5cff5c" d="M224.47,207.21h0A17.58,17.58,0,0,0,229,228.49l18.88,15.71s48.87-3.66,50.17-5,28.49-13.06,29.79-16.2,9.94-18.55,9.94-18.55c-31.36,5-46-6.8-46-6.8l-51.44-.29a17.57,17.57,0,0,0-15.88,9.82Z" class="colorffa25c svgShape"/><path fill="#233b23" d="M247.89,244.51a.31.31,0,0,1-.2-.07L228.8,228.73a17.9,17.9,0,0,1,11.55-31.66l51.44.3a.29.29,0,0,1,.2.07c.14.11,14.91,11.61,45.75,6.73a.31.31,0,0,1,.32.46c-.09.16-8.63,15.44-9.91,18.52-.84,2-10.28,6.68-21.59,12.12a91.9,91.9,0,0,0-8.27,4.19c-1.33,1.32-42.2,4.44-50.38,5Zm-23.42-37.3.29.14a17.23,17.23,0,0,0,4.45,20.9L248,243.87c19.37-1.45,48.55-3.94,49.86-4.87.45-.45,3.2-1.79,8.43-4.3,8.15-3.92,20.47-9.84,21.28-11.79,1.18-2.81,8.05-15.18,9.64-18C307.74,209.37,293,199,291.69,198l-51.34-.3a17.23,17.23,0,0,0-15.59,9.65Z" class="color3b232f svgShape"/><polygon fill="#59ff59" points="319.15 133.94 318.32 139.07 316.88 138.7 319.15 133.94" class="colorff6a59 svgShape"/><path fill="#fff" d="M314.58,150.07l.4,1.17a11.85,11.85,0,0,0,11.35,8.09c4.66,0,9.14-2.47,12.6-6.94l1.9-2.45H318.77Z" class="colorffffff svgShape"/><path fill="#6dff6d" d="M318.77,149.94h3.77l.19-5.51s-3.75.14-4.22-.28-.32-5.83-.32-5.83l.67-3.78c-.07-3.29.81-4.69,2.71-5.43,9.26-1.86,10.74,1.8,10.51,7.63v13.2h3.68C329.55,158,320.93,156.22,318.77,149.94Z" class="colorff7c6d svgShape"/><path fill="#59ff59" d="M321.15,138.37a2.22,2.22,0,1,0,2.22-2.22A2.21,2.21,0,0,0,321.15,138.37Z" class="colorff6a59 svgShape"/><path fill="#fff" d="M320.83,134.79a2.37,2.37,0,0,1,1.53,1,2.59,2.59,0,0,1-1.56.39Z" class="colorffffff svgShape"/><path fill="#233b23" d="M322.36,135.82a.07.07,0,0,1-.06,0,2.36,2.36,0,0,0-1.48-.93.07.07,0,0,1-.07-.09.07.07,0,0,1,.09-.06,2.46,2.46,0,0,1,1.59,1,.09.09,0,0,1,0,.11Z" class="color3b232f svgShape"/><path fill="#233b23" d="M321.17,135.47c0,.37-.18.66-.37.66s-.35-.31-.34-.68.17-.67.37-.66S321.18,135.09,321.17,135.47Z" class="color3b232f svgShape"/><path fill="#233b23" d="M320,128.6c10.83-2,14.85-.3,12.79,7l-.74,2.08h-3.24l.09-.7-1.43.17h0a2.06,2.06,0,0,1-2.08-2.12l0-1.38s-.7-.28-.88-.37.55-2.32.51-3.15C325.09,130.17,320.7,131.24,320,128.6Z" class="color3b232f svgShape"/><path fill="#233b23" d="M323.14,134.27l-3.61-.11A2.14,2.14,0,0,1,323.14,134.27Z" class="color3b232f svgShape"/><path fill="#233b23" d="M320,140.57a2.53,2.53,0,0,0,1.58-.58.12.12,0,0,0-.16-.18,2,2,0,0,1-2.25.3.12.12,0,0,0-.13.21A1.83,1.83,0,0,0,320,140.57Z" class="color3b232f svgShape"/><circle cx="327.77" cy="136.9" r="1.69" fill="#59ff59" class="colorff6a59 svgShape"/><path fill="#233b23" d="M327.05,137.71a.09.09,0,0,1-.06,0,1,1,0,0,1,0-1.4,1,1,0,0,1,1.4,0,.1.1,0,0,1,0,.13.09.09,0,0,1-.13,0,.81.81,0,0,0-1.14,0,.8.8,0,0,0,0,1.14.1.1,0,0,1,0,.13A.09.09,0,0,1,327.05,137.71Z" class="color3b232f svgShape"/><path fill="#233b23" d="M327.56,137.35a.11.11,0,0,1-.07,0,.09.09,0,0,1,0-.13.35.35,0,0,0,.13-.27.37.37,0,0,0-.09-.28.41.41,0,0,0-.27-.13.35.35,0,0,0-.28.1.1.1,0,0,1-.13-.14.6.6,0,0,1,.42-.14.58.58,0,0,1,.4.19.57.57,0,0,1,.14.42.55.55,0,0,1-.2.39S327.58,137.35,327.56,137.35Z" class="color3b232f svgShape"/><path fill="#233b23" d="M322.73,144.43a8.75,8.75,0,0,0,3.55-1c-2.58,4.41-3.67,4.41-3.67,4.41Z" class="color3b232f svgShape"/><path fill="#233b23" d="M318.34,138.71l.68.4C318.89,138.59,318.58,138.64,318.34,138.71Z" class="color3b232f svgShape"/><polygon fill="#3d573d" points="247.6 193.95 290.05 193.95 279.85 167.4 237.4 167.4 247.6 193.95" class="color573d56 svgShape"/><polygon fill="#4e664e" points="245.79 193.95 288.24 193.95 278.04 167.4 235.59 167.4 245.79 193.95" class="color664e65 svgShape"/><path fill="#3d573d" d="M244.18,194.1h67.47a0,0,0,0,1,0,0v3.23a0,0,0,0,1,0,0H247.16a3,3,0,0,1-3-3v-.24A0,0,0,0,1,244.18,194.1Z" class="color573d56 svgShape" transform="rotate(180 277.915 195.71)"/><path fill="#3d573d" d="M288.79,194.1h22.86a0,0,0,0,1,0,0v3.23a0,0,0,0,1,0,0H291.78a3,3,0,0,1-3-3v-.24A0,0,0,0,1,288.79,194.1Z" class="color573d56 svgShape" transform="rotate(180 300.225 195.71)"/><circle cx="260.96" cy="180.7" r="1.83" fill="#6c6" class="colorab83a9 svgShape"/><path fill="#fff" d="M260.77,243.44c0,7.81-10.61,14.13-23.71,14.13s-17.65-6.32-17.65-14.13,4.56-14.12,17.65-14.12S260.77,235.64,260.77,243.44Z" class="colorffffff svgShape"/><path fill="#43e243" d="M264.18,243.44c0,7.81-10.62,14.13-23.71,14.13s-17.66-6.32-17.66-14.13,4.56-14.12,17.66-14.12S264.18,235.64,264.18,243.44Z" class="colore2435f svgShape"/><path fill="#fff" d="M239.71,238.53H223.53a16.07,16.07,0,0,0-.72,4.91,15.78,15.78,0,0,0,.89,5.43h16a5.17,5.17,0,0,0,5.17-5.17h0A5.16,5.16,0,0,0,239.71,238.53Z" class="colorffffff svgShape"/><path fill="#102b10" d="M228.86,250.33a.32.32,0,0,1-.2-.08c-1.58-1.34-2.55-4.2-2.43-7.13a8,8,0,0,1,3-6.37.32.32,0,1,1,.38.52,7.46,7.46,0,0,0-2.69,5.88c-.11,2.74.77,5.39,2.2,6.61a.31.31,0,0,1,0,.45A.3.3,0,0,1,228.86,250.33Z" class="color2b1710 svgShape"/><path fill="#102b10" d="M234.41,250.64a.27.27,0,0,1-.2-.08c-1.58-1.33-2.56-4.2-2.43-7.12a8,8,0,0,1,2.95-6.37.32.32,0,0,1,.45.07.33.33,0,0,1-.07.45,7.42,7.42,0,0,0-2.69,5.87c-.11,2.74.77,5.4,2.2,6.61a.33.33,0,0,1,0,.46A.33.33,0,0,1,234.41,250.64Z" class="color2b1710 svgShape"/><path fill="#5cff5c" d="M250.94,227.13C281.49,226,315.27,213.8,335.85,205a18.94,18.94,0,0,1,25.56,12h0a18.11,18.11,0,0,1,.7,3.44A19,19,0,0,1,351,239.82c-45.43,20.43-98.65,17.62-98.65,17.62Z" class="colorffa25c svgShape"/><path fill="#233b23" d="M258.78,257.87c-4,0-6.36-.11-6.46-.12a.3.3,0,0,1-.3-.3l-1.4-30.31a.33.33,0,0,1,.09-.23.29.29,0,0,1,.22-.1c29.8-1.08,62.56-12.59,84.79-22.06a19.27,19.27,0,0,1,26,12.19,19.93,19.93,0,0,1,.71,3.5,19.28,19.28,0,0,1-11.32,19.66C315.36,256.19,274.36,257.87,258.78,257.87Zm-6.15-.73c4.27.17,55.08,1.79,98.22-17.61a18.65,18.65,0,0,0,10.95-19,17.79,17.79,0,0,0-.69-3.38A18.63,18.63,0,0,0,336,205.33c-22.2,9.45-54.89,20.94-84.7,22.1Z" class="color3b232f svgShape"/><path fill="#233b23" d="M292.58,220a.34.34,0,0,1-.17,0c-.17-.1-17-10.48-36.37-15.38a.31.31,0,0,1-.22-.38.31.31,0,0,1,.38-.23c19.42,4.92,36.37,15.35,36.54,15.46a.31.31,0,0,1-.16.58Z" class="color3b232f svgShape"/><path fill="#233b23" d="M264.22,206.88a.32.32,0,0,1-.27-.15,10.72,10.72,0,0,0-3.92-3.54.32.32,0,0,1-.14-.42.31.31,0,0,1,.42-.14,11.15,11.15,0,0,1,4.18,3.77.32.32,0,0,1-.1.44A.33.33,0,0,1,264.22,206.88Z" class="color3b232f svgShape"/><path fill="#6dff6d" d="M322.62,256.93l.1.06a3.48,3.48,0,0,0,4.82-1l.12-.19c2.95-4.46,5.18-9.48,12.74-6.4,1.43.59,1.84,1,2.79-.08.23-.27,1.15.85,1.29.5a3.48,3.48,0,0,0-1.91-4.53c-12.85-5.24-17.77,2.22-20.71,6.68l-.13.19A3.48,3.48,0,0,0,322.62,256.93Z" class="colorff7c6d svgShape"/><path fill="#82ff82" d="M323.1,252.7c-.76,1.07-.76,2.38,0,2.92s2,.12,2.76-1,.76-2.38,0-2.92S323.86,251.62,323.1,252.7Z" class="colorff8f82 svgShape"/><path fill="#6dff6d" d="M315.28,256.93l.09.06a3.48,3.48,0,0,0,4.82-1l.13-.19c2.94-4.46,4.72-7.16,12.28-4.07a3.48,3.48,0,0,0,4-1,3.55,3.55,0,0,0,.56-.94,3.48,3.48,0,0,0-1.9-4.53c-12.85-5.24-17.78,2.22-20.72,6.68l-.12.19A3.47,3.47,0,0,0,315.28,256.93Z" class="colorff7c6d svgShape"/><path fill="#82ff82" d="M315.75,252.7c-.76,1.07-.76,2.38,0,2.92s2,.12,2.77-1,.75-2.38,0-2.92S316.51,251.62,315.75,252.7Z" class="colorff8f82 svgShape"/><path fill="#6dff6d" d="M303.92,256.93l.1.06a3.48,3.48,0,0,0,4.82-1l.12-.19c3-4.46,4.72-7.16,12.28-4.07a3.48,3.48,0,0,0,4-1,3.58,3.58,0,0,0,.57-.94,3.48,3.48,0,0,0-1.91-4.53c-12.85-5.24-17.77,2.22-20.71,6.68l-.13.19A3.48,3.48,0,0,0,303.92,256.93Z" class="colorff7c6d svgShape"/><path fill="#82ff82" d="M304.4,252.7c-.76,1.07-.76,2.38,0,2.92s2,.12,2.76-1,.76-2.38,0-2.92S305.16,251.62,304.4,252.7Z" class="colorff8f82 svgShape"/><path fill="#6dff6d" d="M330,256.93l.1.06a3.47,3.47,0,0,0,4.81-1l.13-.19c2.94-4.46,4.72-7.16,12.28-4.07a3.48,3.48,0,0,0,4-1,3.55,3.55,0,0,0,.56-.94,3.47,3.47,0,0,0-1.9-4.53c-12.85-5.24-17.77,2.22-20.72,6.68l-.12.19A3.48,3.48,0,0,0,330,256.93Z" class="colorff7c6d svgShape"/><path fill="#82ff82" d="M330.44,252.7c-.76,1.07-.75,2.38,0,2.92s2,.12,2.77-1,.75-2.38,0-2.92S331.2,251.62,330.44,252.7Z" class="colorff8f82 svgShape"/><path fill="#233b23" d="M316.36,249.61a.42.42,0,0,1-.16,0,.32.32,0,0,1-.11-.44,12.81,12.81,0,0,1,5-4.24.33.33,0,0,1,.42.15.32.32,0,0,1-.15.42,12.36,12.36,0,0,0-4.7,4A.33.33,0,0,1,316.36,249.61Z" class="color3b232f svgShape"/><path fill="#233b23" d="M322.11,251.37a.32.32,0,0,1-.25-.51,24.41,24.41,0,0,1,7.56-6.36.32.32,0,0,1,.27.57,24.3,24.3,0,0,0-7.34,6.19A.32.32,0,0,1,322.11,251.37Z" class="color3b232f svgShape"/><path fill="#233b23" d="M335.29,246.12A.33.33,0,0,1,335,246a.31.31,0,0,1,.08-.44,12.71,12.71,0,0,1,1.9-1.12.32.32,0,0,1,.25.58,12,12,0,0,0-1.8,1.06A.34.34,0,0,1,335.29,246.12Z" class="color3b232f svgShape"/><path fill="#233b23" d="M329.36,252.75a.37.37,0,0,1-.15,0,.32.32,0,0,1-.13-.43,19.82,19.82,0,0,1,4.75-5.76.31.31,0,0,1,.44,0,.32.32,0,0,1,0,.44,19.46,19.46,0,0,0-4.6,5.58A.29.29,0,0,1,329.36,252.75Z" class="color3b232f svgShape"/><path fill="#233b23" d="M298.67,190.16l-.11,0a.32.32,0,0,1-.18-.41c.06-.15,5.77-15.44,8.35-27a.31.31,0,0,1,.37-.24.32.32,0,0,1,.24.38c-2.58,11.56-8.31,26.89-8.37,27A.32.32,0,0,1,298.67,190.16Z" class="color3b232f svgShape"/><path fill="#233b23" d="M343.62,175a.31.31,0,0,1-.28-.18c-1.58-3.37-1.39-9.08.43-13.58a13.67,13.67,0,0,1,7.58-7.93.33.33,0,0,1,.41.18.31.31,0,0,1-.19.41,13,13,0,0,0-7.21,7.58c-2,4.93-1.74,10.31-.45,13.07a.32.32,0,0,1-.16.42A.28.28,0,0,1,343.62,175Z" class="color3b232f svgShape"/><path fill="#233b23" d="M349.89,203.92h0a.31.31,0,0,1-.3-.32,43.76,43.76,0,0,0-1.9-12.45.31.31,0,0,1,.21-.39.32.32,0,0,1,.39.21,44.54,44.54,0,0,1,1.93,12.65A.32.32,0,0,1,349.89,203.92Z" class="color3b232f svgShape"/><path fill="#233b23" d="M282.64,168.86a.31.31,0,0,1-.17-.58,75.75,75.75,0,0,0,14.29-11.51,22.66,22.66,0,0,1,7-4.91,23.26,23.26,0,0,1,8.82-2l6.14-.2a.32.32,0,1,1,0,.63l-6.14.2a22.75,22.75,0,0,0-8.58,2,22.19,22.19,0,0,0-6.85,4.78,75.82,75.82,0,0,1-14.4,11.6A.26.26,0,0,1,282.64,168.86Z" class="color3b232f svgShape"/><path fill="#233b23" d="M358.94,155.63a.31.31,0,0,1-.2-.07,21.9,21.9,0,0,0-5.31-3.14A25.87,25.87,0,0,0,343,150.25h-7.08c-2.23,2.75-5.22,5.5-10.44,5.31a.32.32,0,0,1-.31-.33.31.31,0,0,1,.33-.3c5,.18,7.88-2.52,10-5.19a.33.33,0,0,1,.25-.12H343a26.55,26.55,0,0,1,10.69,2.22,23,23,0,0,1,5.46,3.23.32.32,0,0,1-.2.56Z" class="color3b232f svgShape"/><path fill="#233b23" d="M376.46,240.85a.31.31,0,0,1-.31-.31c0-.06,0-.06.09-.33,2.23-6.18,12.58-38.39-2.17-66a.31.31,0,0,1,.13-.42.31.31,0,0,1,.43.13c14.87,27.86,4.45,60.3,2.21,66.52l-.07.19A.32.32,0,0,1,376.46,240.85Z" class="color3b232f svgShape"/><circle cx="91.93" cy="49.4" r="28.27" fill="#fff" class="colorffffff svgShape"/><path fill="#233b23" d="M101.91,76.17a.31.31,0,0,1-.3-.2.33.33,0,0,1,.18-.41A28.09,28.09,0,0,0,119.88,49.4a.32.32,0,0,1,.63,0A28.72,28.72,0,0,1,102,76.15.23.23,0,0,1,101.91,76.17Z" class="color3b232f svgShape"/><path fill="#233b23" d="M81.79,76.11a.25.25,0,0,1-.12,0,28.59,28.59,0,1,1,37.49-35.4.31.31,0,0,1-.6.19A28,28,0,1,0,81.9,75.5a.33.33,0,0,1,.18.41A.31.31,0,0,1,81.79,76.11Z" class="color3b232f svgShape"/><path fill="#43e243" d="M110.53,35.2a2.53,2.53,0,0,0-3.56.22L89,55.77,77.36,45.89a2.53,2.53,0,0,0-3.57,3.57L86.48,64.38a4.47,4.47,0,0,0,.68.62,3.83,3.83,0,0,0,5.35-.87l.07-.09,18.33-25.47A2.54,2.54,0,0,0,110.53,35.2Z" class="colore2435f svgShape"/><path fill="#0099cb" d="M140.45,44.47a4.07,4.07,0,1,1-4.07-4.07A4.07,4.07,0,0,1,140.45,44.47Z" class="color4ec2cf svgShape"/><rect width="16.3" height="4.93" x="145.51" y="42.01" fill="#fff" class="colorffffff svgShape" rx="2.28"/><path fill="#5cff5c" d="M140.45,64a4.07,4.07,0,1,1-4.07-4.07A4.07,4.07,0,0,1,140.45,64Z" class="colorffa25c svgShape"/><rect width="24.49" height="4.93" x="145.51" y="61.54" fill="#fff" class="colorffffff svgShape" rx="2.28"/><path fill="#fff" d="M391.34,56.62H365.51a3.26,3.26,0,0,1-3.26-3.25h0a3.26,3.26,0,0,1,3.26-3.26h25.83a3.25,3.25,0,0,1,3.25,3.26h0a3.22,3.22,0,0,1-.36,1.49A3.25,3.25,0,0,1,391.34,56.62Z" class="colorffffff svgShape"/><path fill="#fff" d="M378.44,71.21H365.51A3.26,3.26,0,0,1,362.25,68h0a3.26,3.26,0,0,1,3.26-3.26h12.93A3.27,3.27,0,0,1,381.7,68h0a3.25,3.25,0,0,1-3.26,3.25Z" class="colorffffff svgShape"/><path fill="#fff" d="M407.53,85.7h-42a3.26,3.26,0,0,1-3.26-3.25h0a3.26,3.26,0,0,1,3.26-3.26h42a3.27,3.27,0,0,1,3.26,3.26h0a3.25,3.25,0,0,1-3.26,3.25Z" class="colorffffff svgShape"/><path fill="#fff" d="M407,71.21h-15.7A3.24,3.24,0,0,1,388.09,68h0a3.24,3.24,0,0,1,3.25-3.26H407A3.27,3.27,0,0,1,410.3,68h0a3.16,3.16,0,0,1-.37,1.49A3.24,3.24,0,0,1,407,71.21Z" class="colorffffff svgShape"/><path fill="#233b23" d="M419.24,80.18a.31.31,0,0,1-.31-.31V41.07H353.07a.32.32,0,0,1,0-.63h66.17a.31.31,0,0,1,.32.31V79.87A.31.31,0,0,1,419.24,80.18Z" class="color3b232f svgShape"/><path fill="#233b23" d="M408.13,75.42H373.86a.32.32,0,0,1,0-.63h34.27a.32.32,0,0,1,0,.63Z" class="color3b232f svgShape"/><path fill="#233b23" d="M368.68,75.42h-7.39a.32.32,0,1,1,0-.63h7.39a.32.32,0,1,1,0,.63Z" class="color3b232f svgShape"/></svg>