<svg xmlns="http://www.w3.org/2000/svg" data-name="Layer 1" viewBox="0 0 391.49 282.94"><path fill="#a5f0a5" d="M371.28,282.94H4.44a4.45,4.45,0,0,1-3.27-1.44,4.39,4.39,0,0,1-1.17-3H0a4.43,4.43,0,0,1,4.44-4.44H371.28a4.44,4.44,0,0,1,4.43,4.44h0a4.44,4.44,0,0,1-4.43,4.44Z" class="colorf0c5a5 svgShape"/><path fill="#f0fff0" d="M131.15,17.17c-123.1,9.11-167.64,168.63-68,177s114.48,20,134.11,52.76c22.19,37,149.4,34,157.29-40.43s-60.65-98.61-109-98.61S257.87,7.81,131.15,17.17Z" class="colorfff7f0 svgShape"/><rect width="72.94" height="23.32" x="208.06" y="244.55" fill="#cfffcf" class="colorffe3cf svgShape"/><rect width="22.07" height="23.32" x="258.93" y="244.55" fill="#5cff5c" class="colorffa25c svgShape"/><circle cx="213.06" cy="256.29" r="1.8" fill="#fff" class="colorffffff svgShape"/><circle cx="222.36" cy="256.29" r="1.8" fill="#fff" class="colorffffff svgShape"/><path fill="#fff" d="M233.47,256.29a1.8,1.8,0,1,1-1.8-1.8A1.81,1.81,0,0,1,233.47,256.29Z" class="colorffffff svgShape"/><path fill="#fff" d="M242.77,256.29a1.8,1.8,0,1,1-1.8-1.8A1.81,1.81,0,0,1,242.77,256.29Z" class="colorffffff svgShape"/><path fill="#fff" d="M252.07,256.29a1.8,1.8,0,1,1-1.8-1.8A1.81,1.81,0,0,1,252.07,256.29Z" class="colorffffff svgShape"/><path fill="#fff" d="M269.25,249.52a2.37,2.37,0,0,0-2.38,2.37V256h4.75v-4.08A2.37,2.37,0,0,0,269.25,249.52Zm1.47,5.55h-3v-3.18a1.48,1.48,0,0,1,3,0Z" class="colorffffff svgShape"/><rect width="8.8" height="8.57" x="264.84" y="254.21" fill="#fff" class="colorffffff svgShape" rx="3.96"/><path fill="#5cff5c" d="M270.35,257.75a1.1,1.1,0,1,0-1.48,1v2h.75v-2A1.11,1.11,0,0,0,270.35,257.75Z" class="colorffa25c svgShape"/><path fill="#f0fff0" d="M251,56.33c-19.44,11.56-14.23,36.61,13.6,31.38s38.49,46.23,77.33.77-17.2-63.86-44.65-41.17S269.75,45.21,251,56.33Z" class="colorfff7f0 svgShape"/><path fill="#f0fff0" d="M99.6,210.46c-62.64,0-71.5,48.32-15.29,41.41s57.2,24.66,75.94,8.38S159.26,210.46,99.6,210.46Z" class="colorfff7f0 svgShape"/><circle cx="273.16" cy="77.89" r="52.89" fill="#75ff75" class="colorffb075 svgShape"/><path fill="#233b23" d="M273.16,131.09a.32.32,0,1,1,0-.63,52.56,52.56,0,0,0,37.7-89.2.32.32,0,0,1,.46-.44,53.2,53.2,0,0,1-38.16,90.27Z" class="color3b232f svgShape"/><path fill="#233b23" d="M229.44,48.44a.28.28,0,0,1-.18-.06.31.31,0,0,1-.08-.43,53.22,53.22,0,0,1,72.73-14.83.32.32,0,0,1,.09.43.31.31,0,0,1-.43.1A52.6,52.6,0,0,0,229.7,48.3.31.31,0,0,1,229.44,48.44Z" class="color3b232f svgShape"/><path fill="#233b23" d="M273.16,110.22a32.24,32.24,0,0,1-30.8-22.45,1.58,1.58,0,0,1,1-2,1.57,1.57,0,0,1,2,1,29.2,29.2,0,0,0,55.59,0,1.57,1.57,0,0,1,3,1A32.23,32.23,0,0,1,273.16,110.22Z" class="color3b232f svgShape"/><path fill="#233b23" d="M255.26,75.55h0a3.78,3.78,0,0,1-3.78-3.78V67.19a3.76,3.76,0,0,1,2.31-3.48,3.61,3.61,0,0,1,1.47-.3h0A3.77,3.77,0,0,1,259,67.19v4.58a3.78,3.78,0,0,1-3.78,3.78Z" class="color3b232f svgShape"/><path fill="#233b23" d="M291.06,75.55h0a3.78,3.78,0,0,1-3.78-3.78V67.19a3.77,3.77,0,0,1,2.3-3.48,3.66,3.66,0,0,1,1.48-.3h0a3.88,3.88,0,0,1,1.76.43,3.79,3.79,0,0,1,2,3.35v4.58a3.75,3.75,0,0,1-3.77,3.78Z" class="color3b232f svgShape"/><path fill="#75ff75" d="M273.16,17h0a2,2,0,0,1-2-2V2A2,2,0,0,1,272.22.23a2,2,0,0,1,.94-.23h0a2,2,0,0,1,2,2V15A2,2,0,0,1,273.16,17Z" class="colorffb075 svgShape"/><path fill="#75ff75" d="M246.75,23h0a2,2,0,0,1-2.7-.94L238.4,10.38a2,2,0,0,1,.94-2.71h0a2.05,2.05,0,0,1,2.71.94l5.64,11.66A2,2,0,0,1,246.75,23Z" class="colorffb075 svgShape"/><path fill="#75ff75" d="M300,23.34h0a2,2,0,0,1-.92-2.71L304.77,9a2,2,0,0,1,1.77-1.13,2.08,2.08,0,0,1,.94.21h0a2.08,2.08,0,0,1,.88.83,2,2,0,0,1,0,1.88l-5.74,11.61A2,2,0,0,1,300,23.34Z" class="colorffb075 svgShape"/><path fill="#fff" d="M151.56,71.05c5.57,9.09,12.28,45.86,12.28,45.86l31.8-16.56,10.53,23.16-33.75,22.38a21.23,21.23,0,0,1-16.31,4.23h0a21.21,21.21,0,0,1-17.67-17.56l-8.83-36.77Z" class="colorffffff svgShape"/><path fill="#233b23" d="M208.26,67.73C196,83.24,175.88,78.25,172.38,72s-6.88-8.63-32.52-7.15-15.78-29.68-5.26-29c-.13-7.69,22.26-9.18,28.06.54s21.32.67,30.63,1.35,9.58,4.85,5.93,8.9S221,51.67,208.26,67.73Z" class="color3b232f svgShape"/><path fill="#fff" d="M114.86,56.66c-16.16-8.32-35.8-12.15-47-13.78a23.11,23.11,0,0,0-16,3.54h0a23.14,23.14,0,0,0-9,27.41c5.11,13.8,12.3,29,12.3,29L79.8,94.38A123.67,123.67,0,0,1,68,67.73c22.54,2.83,37,13.62,37,13.62C116.39,76.77,117.65,63.81,114.86,56.66Z" class="colorffffff svgShape"/><path fill="#43e243" d="M55.16,102.79,79.8,94.38c-1.34-2.31-2.55-4.54-3.65-6.68L52.05,96C53.9,100.12,55.16,102.79,55.16,102.79Z" class="colore2435f svgShape"/><path fill="#0099cb" d="M122.65,117.76l67.43,156.38h-54.5S94,195.62,90.75,160.82L109.1,109Z" class="color38a4b0 svgShape"/><path fill="#0099cb" d="M85.14,99.32C67.55,107,36,130.33,39.22,165.13s26.71,109,26.71,109h54.51l-14-131.4c3.78-2.16,6.48-3.78,6.75-6.48s2.43-22.93,2.43-22.93Z" class="color38a4b0 svgShape"/><path fill="#233b23" d="M113.84,212.66a.32.32,0,0,1-.32-.28l-7.43-69.61a.34.34,0,0,1,.16-.31c3.92-2.24,6.34-3.74,6.59-6.23.18-1.82,1.23-11.67,1.83-17.39a.32.32,0,0,1,.63.07c-.61,5.71-1.65,15.57-1.84,17.38-.29,2.9-3.25,4.64-6.72,6.62l7.41,69.4a.32.32,0,0,1-.28.35Z" class="color3b232f svgShape"/><path fill="#233b23" d="M115.59,229.12a.32.32,0,0,1-.31-.28l-1.14-10.68a.32.32,0,0,1,.28-.35.32.32,0,0,1,.35.28l1.14,10.69a.31.31,0,0,1-.28.34Z" class="color3b232f svgShape"/><path fill="#233b23" d="M121,148.72a.31.31,0,0,1-.26-.14s-2.94-4-12.36-4.72a.32.32,0,0,1-.29-.34.32.32,0,0,1,.34-.29c9.75.73,12.7,4.82,12.82,5a.32.32,0,0,1-.07.44A.32.32,0,0,1,121,148.72Z" class="color3b232f svgShape"/><path fill="#233b23" d="M85.9,144a.31.31,0,0,1-.29-.19.31.31,0,0,1,.16-.41,35.68,35.68,0,0,1,15.08-2.37.32.32,0,0,1,.29.34.31.31,0,0,1-.33.29A34.94,34.94,0,0,0,86,144Z" class="color3b232f svgShape"/><path fill="#233b23" d="M99.39,140.26a.29.29,0,0,1-.18,0,20.32,20.32,0,0,0-9.73-2.82.32.32,0,0,1-.3-.34.31.31,0,0,1,.33-.29,20.63,20.63,0,0,1,10.06,2.93.32.32,0,0,1,.08.44A.3.3,0,0,1,99.39,140.26Z" class="color3b232f svgShape"/><path fill="#4eafcf" d="M85.76,118.78a25.24,25.24,0,0,1-8.42-1.56.31.31,0,0,1-.19-.4.31.31,0,0,1,.4-.19c11.33,4,18.85-.55,22.11-6.16a.31.31,0,1,1,.54.32A16.22,16.22,0,0,1,85.76,118.78Z" class="color4ec2cf svgShape"/><path fill="#4eafcf" d="M81.22,270.68a.31.31,0,0,1-.31-.25s-.8-3.89-2.09-10.27a.3.3,0,0,1,.24-.37.31.31,0,0,1,.37.25c1.3,6.37,2.1,10.26,2.1,10.26a.31.31,0,0,1-.25.37Z" class="color4ec2cf svgShape"/><path fill="#4eafcf" d="M77.52,252.5a.32.32,0,0,1-.3-.26c-.74-3.64-1.55-7.68-2.41-12a.32.32,0,0,1,.25-.37.31.31,0,0,1,.37.25c.86,4.31,1.67,8.36,2.4,12a.31.31,0,0,1-.24.37Z" class="color4ec2cf svgShape"/><path fill="#4eafcf" d="M73.48,232.22a.31.31,0,0,1-.31-.25c-1-5-2-10.23-3-15.51a.32.32,0,0,1,.25-.37.31.31,0,0,1,.37.25c1,5.28,2,10.51,3,15.51a.32.32,0,0,1-.25.37Z" class="color4ec2cf svgShape"/><path fill="#4eafcf" d="M69.1,209.75a.32.32,0,0,1-.31-.26c-.79-4.14-1.58-8.27-2.33-12.3a.32.32,0,0,1,.62-.12c.75,4,1.54,8.16,2.33,12.3a.32.32,0,0,1-.25.37Z" class="color4ec2cf svgShape"/><path fill="#4eafcf" d="M65.49,190.53a.3.3,0,0,1-.31-.25c-.67-3.63-1.3-7.14-1.89-10.46a.32.32,0,0,1,.26-.36.3.3,0,0,1,.36.25c.59,3.32,1.22,6.83,1.89,10.45a.32.32,0,0,1-.26.37Z" class="color4ec2cf svgShape"/><path fill="#4eafcf" d="M62.57,174.1a.3.3,0,0,1-.31-.26c-1-5.94-1.76-10.73-2.22-14.24a.32.32,0,0,1,.27-.36.33.33,0,0,1,.36.28c.46,3.5,1.2,8.29,2.21,14.22a.32.32,0,0,1-.26.36Z" class="color4ec2cf svgShape"/><path fill="#4eafcf" d="M60.05,151.4h0a.31.31,0,0,1-.29-.33,52.64,52.64,0,0,1,4.43-18,.32.32,0,0,1,.42-.17.32.32,0,0,1,.16.42,51.89,51.89,0,0,0-4.38,17.77A.32.32,0,0,1,60.05,151.4Z" class="color4ec2cf svgShape"/><path fill="#4eafcf" d="M67.07,128.22a.41.41,0,0,1-.16,0,.32.32,0,0,1-.12-.43c6.89-12.51,16.55-20.88,22.74-24.24a.3.3,0,0,1,.42.12.31.31,0,0,1-.12.43c-6.59,3.59-16.1,12.39-22.49,24A.3.3,0,0,1,67.07,128.22Z" class="color4ec2cf svgShape"/><path fill="#fff" d="M114.86,56.66c-6.3,6.66-7.56,37.6-26.8,40.66l36.42,18.17c4.68-3.78,12.15-12.06,12.15-12.06,4.13,0,7-1.62,8.27-4s6.66-28.43,6.66-28.43Z" class="colorffffff svgShape"/><path fill="#43e243" d="M144.78,68.4l-21.71-8.52.85,1.8c4.54,9.67,9.48,11.69,12.83,11.69a9.43,9.43,0,0,0,7.93-4.8Z" class="colore2435f svgShape"/><path fill="#6dff6d" d="M141.44,60.85a24.57,24.57,0,0,0-2,4.38l3.48,2.29c-2.45,4.17-10.16,8-17.11-6.72L130.51,62l3.61-8.37Z" class="colorff7c6d svgShape"/><path fill="#6dff6d" d="M146.83,43.29c.9.65,1.13,2,1.31,3.32.72,5.22.15,11.78-3.88,14.47a2.5,2.5,0,0,1-1.11.41c-5.6.68-8-4.63-9.43-8.87A7.11,7.11,0,0,0,136,48.21C143.71,46.56,146.83,43.29,146.83,43.29Z" class="colorff7c6d svgShape"/><path fill="#59ff59" d="M144.69,54.44c.88-.4,1.37-1.42.87-1.67S141.84,53.55,144.69,54.44Z" class="colorff6a59 svgShape"/><path fill="#59ff59" d="M130.91,52a2.43,2.43,0,1,0,2.43-2.43A2.42,2.42,0,0,0,130.91,52Z" class="colorff6a59 svgShape"/><path fill="#233b23" d="M134.38,53.17a.11.11,0,0,0,.09,0,1.42,1.42,0,1,0-2-2,.13.13,0,0,0,0,.18.14.14,0,0,0,.19,0A1.16,1.16,0,0,1,134.29,53a.13.13,0,0,0,0,.18A.11.11,0,0,0,134.38,53.17Z" class="color3b232f svgShape"/><path fill="#233b23" d="M133.65,52.66a.11.11,0,0,0,.09,0,.13.13,0,0,0,0-.19.56.56,0,0,1,0-.79.58.58,0,0,1,.39-.19.57.57,0,0,1,.41.14.13.13,0,0,0,.18,0,.13.13,0,0,0,0-.19.77.77,0,0,0-.6-.2.8.8,0,0,0-.57.28.83.83,0,0,0-.2.59.79.79,0,0,0,.28.57A.12.12,0,0,0,133.65,52.66Z" class="color3b232f svgShape"/><path fill="#233b23" d="M140.68,61.33A10.08,10.08,0,0,1,136,57.65C135.65,63.47,138.34,65.77,140.68,61.33Z" class="color3b232f svgShape"/><path fill="#fff" d="M138.76,50.81a2.44,2.44,0,0,0,3.68,1.42,2.42,2.42,0,0,0-3.68-1.42Z" class="colorffffff svgShape"/><path fill="#233b23" d="M142.44,52.36h.05a.13.13,0,0,0,.07-.17A3.13,3.13,0,0,0,141,50.45a3.06,3.06,0,0,0-2.23.2l-.36-.27a.13.13,0,1,0-.16.2l.42.33a.14.14,0,0,0,.14,0,2.93,2.93,0,0,1,2.1-.24,3,3,0,0,1,1.4,1.58A.14.14,0,0,0,142.44,52.36Z" class="color3b232f svgShape"/><path fill="#233b23" d="M141,50.6a3.11,3.11,0,0,1,1.41,1.63,3.71,3.71,0,0,1-1.38.36,1.15,1.15,0,0,1-.62-1A1.13,1.13,0,0,1,141,50.6Z" class="color3b232f svgShape"/><ellipse cx="140.38" cy="51.54" fill="#fff" class="colorffffff svgShape" rx=".4" ry=".3"/><path fill="#233b23" d="M138.54,51.73h0l.4-.11a.13.13,0,0,0,.09-.16.13.13,0,0,0-.16-.1l-.4.11a.13.13,0,0,0-.09.16A.12.12,0,0,0,138.54,51.73Z" class="color3b232f svgShape"/><path fill="#233b23" d="M138.93,52.08l.06,0,.26-.15a.13.13,0,0,0,.05-.18.12.12,0,0,0-.18,0l-.26.15a.14.14,0,0,0-.05.18A.15.15,0,0,0,138.93,52.08Z" class="color3b232f svgShape"/><path fill="#fff" d="M148.94,51.28a2.42,2.42,0,0,1-3.84.87,2.41,2.41,0,0,1,3.84-.87Z" class="colorffffff svgShape"/><path fill="#233b23" d="M145.08,52.28a.15.15,0,0,0,.13-.07,2.93,2.93,0,0,1,1.61-1.36,2.87,2.87,0,0,1,2,.53.14.14,0,0,0,.15,0l.46-.26a.13.13,0,0,0,.05-.18.13.13,0,0,0-.18-.05l-.39.22a3,3,0,0,0-2.18-.53A3.17,3.17,0,0,0,145,52.08a.13.13,0,0,0,.05.18Z" class="color3b232f svgShape"/><path fill="#233b23" d="M146.83,51.63a1.15,1.15,0,0,1,.76-.9,4.43,4.43,0,0,1,1,.33,3.86,3.86,0,0,1,.36.22,3.34,3.34,0,0,1-1.3,1.28l-.16.07h0l-.08,0a.45.45,0,0,1-.11,0A1.13,1.13,0,0,1,146.83,51.63Z" class="color3b232f svgShape"/><path fill="#fff" d="M147.28,51.77a.35.35,0,0,1-.44.24c-.23,0-.39-.19-.36-.35s.22-.27.44-.24S147.3,51.61,147.28,51.77Z" class="colorffffff svgShape"/><path fill="#233b23" d="M149,52.22a.12.12,0,0,0,.14-.08.12.12,0,0,0-.07-.17l-.38-.17a.13.13,0,0,0-.17.07.14.14,0,0,0,.07.18l.38.16Z" class="color3b232f svgShape"/><path fill="#233b23" d="M148.59,52.51a.19.19,0,0,0,.13,0,.15.15,0,0,0,0-.19l-.24-.19a.14.14,0,0,0-.19,0,.14.14,0,0,0,0,.18l.24.19Z" class="color3b232f svgShape"/><path fill="#233b23" d="M139.41,49.23c0,.27.65.49,1.45.49s1.45-.22,1.45-.49-.65-.49-1.45-.49S139.41,49,139.41,49.23Z" class="color3b232f svgShape"/><path fill="#233b23" d="M145.23,49.35c0,.27.68.43,1.48.37s1.42-.34,1.4-.61-.68-.44-1.48-.37S145.21,49.08,145.23,49.35Z" class="color3b232f svgShape"/><path fill="#233b23" d="M144.66,54.59h.06c.46-.27,1.18-.91,1.15-1.47a.63.63,0,0,0-.44-.56,1.26,1.26,0,0,1-.7-1.61.14.14,0,0,0-.08-.17.13.13,0,0,0-.17.08,1.53,1.53,0,0,0,.84,1.94.4.4,0,0,1,.29.34c0,.37-.51.92-1,1.22a.13.13,0,0,0-.05.18A.14.14,0,0,0,144.66,54.59Z" class="color3b232f svgShape"/><path fill="#40e640" d="M142,55.83a3.54,3.54,0,0,0,2.38,1,2.64,2.64,0,0,0,1.55-.81,1.47,1.47,0,0,0-1.48.56C143.73,55.65,142,55.83,142,55.83Z" class="colore6404d svgShape"/><path fill="#40e640" d="M145.83,56c-.72,1.78-1.73,3.52-3.79-.15C142.92,56.58,144.05,57.46,145.83,56Z" class="colore6404d svgShape"/><path fill="#233b23" d="M144.15,56.94h.19a3.13,3.13,0,0,0,2-1.23.13.13,0,0,0,0-.18.13.13,0,0,0-.19,0,2.86,2.86,0,0,1-1.82,1.14,3.8,3.8,0,0,1-2.61-1.21.14.14,0,0,0-.19,0,.13.13,0,0,0,0,.18A4.24,4.24,0,0,0,144.15,56.94Z" class="color3b232f svgShape"/><path fill="#59ff59" d="M144.16,58.92a1.3,1.3,0,0,0,.92-.4.13.13,0,0,0,0-.19.14.14,0,0,0-.19,0,1.05,1.05,0,0,1-1.55,0,.13.13,0,0,0-.19,0,.13.13,0,0,0,0,.18A1.47,1.47,0,0,0,144.16,58.92Z" class="colorff6a59 svgShape"/><path fill="#59ff59" d="M136.36,54.88a2.3,2.3,0,1,0,2.3-2.3A2.3,2.3,0,0,0,136.36,54.88Z" class="colorff6a59 svgShape"/><path fill="#59ff59" d="M146.57,54.93a2.3,2.3,0,0,0,.87,1.78,16.53,16.53,0,0,0,.86-4A2.3,2.3,0,0,0,146.57,54.93Z" class="colorff6a59 svgShape"/><path fill="#fff" d="M132.8,54.65a1,1,0,1,0,1-1A1,1,0,0,0,132.8,54.65Z" class="colorffffff svgShape"/><path fill="#233b23" d="M136.48,46.05a14.49,14.49,0,0,0,9.17-4,.13.13,0,0,0-.19-.18c-2.69,2.79-8.1,4.44-10.34,3.69a.12.12,0,0,0-.16.08.13.13,0,0,0,.08.17A4.68,4.68,0,0,0,136.48,46.05Z" class="color3b232f svgShape"/><path fill="#325432" d="M137.53,43.59a13.52,13.52,0,0,0,7.1-2.13.14.14,0,0,0-.16-.22c-2.54,1.88-7.35,2.49-8.71,1.78a.14.14,0,0,0-.18.06.15.15,0,0,0,.06.18A4.36,4.36,0,0,0,137.53,43.59Z" class="color543243 svgShape"/><path fill="#233b23" d="M143.76,54.28c0-.23.21-.24.38-.19Z" class="color3b232f svgShape"/><polygon fill="#4e664e" points="123.7 119.19 85.14 99.32 87.79 96.19 125.43 115.83 123.7 119.19" class="color664e65 svgShape"/><rect width="26.04" height="5.73" x="54.46" y="95.72" fill="#233b23" class="color3b232f svgShape" rx="2.65" transform="rotate(-18.85 67.478 98.607)"/><path fill="#43e243" d="M212.31,119.58l-11.9-23.16c-2.08,1.66-4.12,3.19-6.07,4.58L206,123.64C209.85,121.22,212.31,119.58,212.31,119.58Z" class="colore2435f svgShape"/><rect width="26.04" height="5.73" x="193.34" y="105.13" fill="#233b23" class="color3b232f svgShape" rx="2.65" transform="rotate(-117.18 206.357 108.005)"/><path fill="#6dff6d" d="M59.67,98.22l14.53-5c.13,3.65,2.39,7.92,2.39,7.92,3.37-.4,7.15-3.91,10.25-3.5,2.52.32,5,7.46,5.86,10.14a1.49,1.49,0,0,1-.13,1.17,1.46,1.46,0,0,1-.41.45h0a1.47,1.47,0,0,1-2-.27l-4.34-5.47,2.93,7.3a1.66,1.66,0,0,1,0,1,1.63,1.63,0,0,1-.62.78h0a1.6,1.6,0,0,1-1.51.14,1.57,1.57,0,0,1-.8-.71l-2.56-3.33,1.79,4.3a1.68,1.68,0,0,1,0,.74,1.52,1.52,0,0,1-.66.82h0a1.51,1.51,0,0,1-2.17-.69c-.73-1.73-3.51-4.83-6.74-4,2.28.84,3.32,3.28,3.76,4.81a1.48,1.48,0,0,1-.37,1.45,1.31,1.31,0,0,1-.49.34h0a1.31,1.31,0,0,1-.47.12,1.48,1.48,0,0,1-1.33-.61c-2.22-3.16-4.81-2.77-7-1.7C67,115.66,60.84,111.3,59.67,98.22Z" class="colorff7c6d svgShape"/><path fill="#233b23" d="M69.37,105.94a.27.27,0,0,1-.16-.06.25.25,0,0,1,0-.33,17.73,17.73,0,0,1,6.92-4.45.23.23,0,1,1,.15.44,17.51,17.51,0,0,0-6.71,4.32A.25.25,0,0,1,69.37,105.94Z" class="color3b232f svgShape"/><path fill="#233b23" d="M82.75,108.08a.25.25,0,0,1-.22-.15c-.58-1.36-1.67-2.94-3.62-2.73a.24.24,0,0,1-.26-.21.23.23,0,0,1,.21-.26c1.77-.19,3.19.85,4.11,3a.24.24,0,0,1-.13.31Z" class="color3b232f svgShape"/><path fill="#233b23" d="M85.58,103.17a.23.23,0,0,1-.21-.14,2.42,2.42,0,0,0-2.52-1.65.24.24,0,1,1,0-.48,2.9,2.9,0,0,1,3,1.94.23.23,0,0,1-.12.31A.16.16,0,0,1,85.58,103.17Z" class="color3b232f svgShape"/><path fill="#87ff87" d="M84.42,114.14h0a.92.92,0,0,1-.82,0,.89.89,0,0,1-.38-.34l-.29-.46a.9.9,0,0,1,0-.83.83.83,0,0,1,.34-.38h0a.84.84,0,0,1,.46-.13.86.86,0,0,1,.74.42l.28.46a.85.85,0,0,1,.06.8A.86.86,0,0,1,84.42,114.14Z" class="colorff9387 svgShape"/><path fill="#87ff87" d="M88.13,111.88h0a.92.92,0,0,1-.82.05.89.89,0,0,1-.38-.34l-.28-.46a.88.88,0,0,1-.05-.83.83.83,0,0,1,.34-.38h0a.84.84,0,0,1,.46-.13.86.86,0,0,1,.74.42l.28.46a.85.85,0,0,1,.06.8A.86.86,0,0,1,88.13,111.88Z" class="colorff9387 svgShape"/><path fill="#87ff87" d="M92.07,108.94h0a.85.85,0,0,1-.82,0,.92.92,0,0,1-.34-.39l-.22-.49a.9.9,0,0,1,.06-.83.85.85,0,0,1,.39-.33h0a.87.87,0,0,1,1.16.44l.21.5a.85.85,0,0,1,0,.79A.82.82,0,0,1,92.07,108.94Z" class="colorff9387 svgShape"/><path fill="#87ff87" d="M78.5,116h0a.88.88,0,0,1-.82-.07.93.93,0,0,1-.33-.4l-.21-.5a.88.88,0,0,1,.08-.82.83.83,0,0,1,.39-.32h0a.8.8,0,0,1,.48-.06.85.85,0,0,1,.67.52l.21.5a.9.9,0,0,1-.06.8A.89.89,0,0,1,78.5,116Z" class="colorff9387 svgShape"/><path fill="#233b23" d="M66.83,67.68a.29.29,0,0,1-.25-.13,10.15,10.15,0,0,0-5.49-3.38.32.32,0,0,1-.23-.38.32.32,0,0,1,.38-.24,10.64,10.64,0,0,1,5.85,3.63.32.32,0,0,1-.07.44A.35.35,0,0,1,66.83,67.68Z" class="color3b232f svgShape"/><path fill="#233b23" d="M58,68.49a.3.3,0,0,1-.3-.21.31.31,0,0,1,.19-.4,12.28,12.28,0,0,1,7.87-.09.32.32,0,0,1-.23.59,11.79,11.79,0,0,0-7.43.09A.2.2,0,0,1,58,68.49Z" class="color3b232f svgShape"/><path fill="#233b23" d="M106.41,81.08a.31.31,0,0,1-.27-.15.31.31,0,0,1,.1-.43,14.66,14.66,0,0,0,4.05-4,.31.31,0,1,1,.51.36A15.43,15.43,0,0,1,106.57,81,.32.32,0,0,1,106.41,81.08Z" class="color3b232f svgShape"/><path fill="#233b23" d="M112.74,73.37l-.14,0a.33.33,0,0,1-.14-.43c2.5-5,3.54-10.65,2.72-14.75a.32.32,0,0,1,.62-.12c.84,4.22-.22,10-2.77,15.15A.32.32,0,0,1,112.74,73.37Z" class="color3b232f svgShape"/><path fill="#233b23" d="M164.89,35.48c.81,3.78,7.28,5.67,13.56,2.9S170,39.39,164.89,35.48Z" class="color3b232f svgShape"/><path fill="#233b23" d="M203.54,41.28c-.63,4.14-3.33,5.85-1.17,6S206.33,45.87,203.54,41.28Z" class="color3b232f svgShape"/><path fill="#233b23" d="M136.63,103.75a.32.32,0,1,1,0-.63c3.78,0,6.7-1.38,8-3.79.67-1.24,2.78-10.13,5.8-24.41a.32.32,0,0,1,.62.13c-1.78,8.42-4.91,22.81-5.86,24.57C143.77,102.25,140.65,103.75,136.63,103.75Z" class="color3b232f svgShape"/><path fill="#233b23" d="M162.12,128.62a.31.31,0,0,1-.31-.31c0-.27-.12-6.59,1.38-9.85a.31.31,0,0,1,.41-.16.32.32,0,0,1,.16.42c-1.44,3.13-1.32,9.51-1.32,9.58a.33.33,0,0,1-.31.32Z" class="color3b232f svgShape"/><path fill="#233b23" d="M159.69,122.14a.28.28,0,0,1-.15,0,.32.32,0,0,1-.12-.43,28.27,28.27,0,0,1,2.46-3.42.33.33,0,0,1,.45,0,.32.32,0,0,1,0,.45A28.8,28.8,0,0,0,160,122,.31.31,0,0,1,159.69,122.14Z" class="color3b232f svgShape"/><path fill="#6dff6d" d="M200,102c8.37-4,20.38-27.42,20.38-27.42-.51,7.39,1.21,17.17,3.37,15.55A51.81,51.81,0,0,1,232,84.79a2.88,2.88,0,0,1,2.78.21,2.81,2.81,0,0,1,1.19,1.56h0a2.85,2.85,0,0,1-1.11,3.24c-5.31,3.67-7.5,6.89-8.35,11.65-.95,5.27-18.22,16.46-18.22,16.46Z" class="colorff7c6d svgShape"/><path fill="#87ff87" d="M233.07,88.78h0a1.3,1.3,0,0,1,.17-1.83l.61-.51a1.3,1.3,0,0,1,1.83.17h0a1.36,1.36,0,0,1,.29.65,1.3,1.3,0,0,1-.46,1.17l-.61.51a1.28,1.28,0,0,1-1.15.26A1.26,1.26,0,0,1,233.07,88.78Z" class="colorff9387 svgShape"/><path fill="#233b23" d="M55.16,103.11a.31.31,0,0,1-.28-.18c-.07-.15-7.26-15.34-12.32-29A23.46,23.46,0,0,1,67.92,42.57c9.77,1.42,24.3,4.26,38,9.71a.31.31,0,0,1,.17.41.32.32,0,0,1-.41.18C92,47.43,77.56,44.61,67.83,43.2A22.82,22.82,0,0,0,43.15,73.72c5.05,13.63,12.22,28.79,12.3,28.94a.33.33,0,0,1-.15.42A.35.35,0,0,1,55.16,103.11Z" class="color3b232f svgShape"/><path fill="#233b23" d="M122.62,60a.2.2,0,0,1-.11,0l-7.77-3a.32.32,0,0,1,.23-.59l7.77,3a.31.31,0,0,1,.17.41A.29.29,0,0,1,122.62,60Z" class="color3b232f svgShape"/><path fill="#233b23" d="M151.56,71.37l-.12,0-6.8-2.67a.32.32,0,0,1-.18-.41.33.33,0,0,1,.41-.18l6.8,2.67a.32.32,0,0,1-.11.61Z" class="color3b232f svgShape"/><path fill="#233b23" d="M163.84,117.22a.32.32,0,0,1-.14,0,.29.29,0,0,1-.17-.23c-.06-.3-5.58-30.4-10.7-42.61a.32.32,0,0,1,.17-.41.31.31,0,0,1,.41.17c4.82,11.48,10,38.62,10.66,42.32l31.43-16.36a.31.31,0,0,1,.42.13.32.32,0,0,1-.13.43L164,117.19A.32.32,0,0,1,163.84,117.22Z" class="color3b232f svgShape"/><path fill="#233b23" d="M172.42,146.2a.32.32,0,0,1-.17-.58L206,123.25a.31.31,0,0,1,.44.09.33.33,0,0,1-.09.44L172.6,146.15A.41.41,0,0,1,172.42,146.2Z" class="color3b232f svgShape"/><path fill="#233b23" d="M159.38,150.69a20.51,20.51,0,0,1-3.31-.26,21.46,21.46,0,0,1-17.94-17.82l-5.8-24.14c-2,2.1-3.83,3.87-5.37,5.28a.32.32,0,0,1-.45,0,.32.32,0,0,1,0-.44c1.63-1.5,3.57-3.4,5.75-5.67a.32.32,0,0,1,.31-.08.3.3,0,0,1,.22.23l5.93,24.72a20.91,20.91,0,0,0,25.78,16.93.3.3,0,0,1,.38.22.32.32,0,0,1-.22.39A21.68,21.68,0,0,1,159.38,150.69Z" class="color3b232f svgShape"/><path fill="#233b23" d="M92,96.55a.32.32,0,0,1-.29-.2.31.31,0,0,1,.17-.41c5.23-2.13,9.29-6.71,12.78-14.41a84.15,84.15,0,0,0-32-12.77.32.32,0,0,1-.26-.36.32.32,0,0,1,.37-.26A84.92,84.92,0,0,1,105,81h0a.31.31,0,0,1,.34.07.32.32,0,0,1,.07.35c-3.6,8.08-7.82,12.88-13.29,15.11A.27.27,0,0,1,92,96.55Z" class="color3b232f svgShape"/><path fill="#233b23" d="M79.8,94.7a.32.32,0,0,1-.27-.16A125.21,125.21,0,0,1,67.65,67.81a.31.31,0,0,1,.22-.39.33.33,0,0,1,.39.22A124.33,124.33,0,0,0,80.08,94.22a.32.32,0,0,1-.12.43A.3.3,0,0,1,79.8,94.7Z" class="color3b232f svgShape"/><path fill="#233b23" d="M190.08,274.46a.31.31,0,0,1-.29-.19L123.11,119.93a.33.33,0,0,1,.17-.42.31.31,0,0,1,.41.17L190.37,274a.32.32,0,0,1-.29.44Z" class="color3b232f svgShape"/><path fill="#233b23" d="M135.58,274.46a.3.3,0,0,1-.28-.17c-.09-.17-8.88-16.8-18.57-37.85l4,37.67a.32.32,0,0,1-.28.35.33.33,0,0,1-.35-.28l-4.22-39.59a.3.3,0,0,1,.23-.33.32.32,0,0,1,.37.17c10,21.85,19.26,39.39,19.35,39.56a.31.31,0,0,1-.13.43A.23.23,0,0,1,135.58,274.46Z" class="color3b232f svgShape"/><path fill="#233b23" d="M65.93,274.46a.32.32,0,0,1-.3-.22c-.23-.75-23.52-74.64-26.73-109.08-2.09-22.48,10.29-39.24,21-49.35a.33.33,0,0,1,.45,0,.32.32,0,0,1,0,.45c-10.64,10-22.91,26.61-20.84,48.83,3.2,34.38,26.47,108.21,26.7,109a.31.31,0,0,1-.2.39Z" class="color3b232f svgShape"/><path fill="#a5f0a5" d="M106.22,6.66H71.87a9.71,9.71,0,0,0-9.72,9.71V25.9a9.72,9.72,0,0,0,9.72,9.72h34.35l9.72,7V16.37A9.71,9.71,0,0,0,106.22,6.66Z" class="colorf0c5a5 svgShape"/><path fill="#fff" d="M92.46,20.6a3.42,3.42,0,1,1-3.41-3.42,3.35,3.35,0,0,1,1.85.55A3.41,3.41,0,0,1,92.46,20.6Z" class="colorffffff svgShape"/><path fill="#fff" d="M80.05,20.6a3.42,3.42,0,1,1-3.42-3.42A3.42,3.42,0,0,1,80.05,20.6Z" class="colorffffff svgShape"/><path fill="#fff" d="M104.88,20.6a3.42,3.42,0,1,1-3.42-3.42A3.42,3.42,0,0,1,104.88,20.6Z" class="colorffffff svgShape"/><path fill="#233b23" d="M89.05,24.33a3.74,3.74,0,1,1,0-7.47.32.32,0,0,1,0,.63,3.11,3.11,0,1,0,3.1,3.11.32.32,0,1,1,.63,0A3.74,3.74,0,0,1,89.05,24.33Z" class="color3b232f svgShape"/><path fill="#233b23" d="M76.63,24.33A3.74,3.74,0,0,1,72.9,20.6a.32.32,0,1,1,.63,0,3.11,3.11,0,1,0,3.1-3.11.32.32,0,0,1,0-.63,3.74,3.74,0,1,1,0,7.47Z" class="color3b232f svgShape"/><path fill="#233b23" d="M101.46,24.33a3.74,3.74,0,1,1,3.73-3.73.32.32,0,0,1-.63,0,3.1,3.1,0,1,0-3.1,3.1.32.32,0,0,1,0,.63Z" class="color3b232f svgShape"/><path fill="#233b23" d="M115.94,43a.33.33,0,0,1-.19-.06l-9.63-7-28,0h0a.32.32,0,0,1,0-.63l28.07-.05a.27.27,0,0,1,.19.06l9.71,7a.31.31,0,0,1,.07.44A.31.31,0,0,1,115.94,43Z" class="color3b232f svgShape"/><path fill="#fff" d="M317.21,191.05H194.75a3.27,3.27,0,0,1-2.09-.74,3.33,3.33,0,0,1-1.24-2.59V157.16a3.33,3.33,0,0,1,1.46-2.75,3.26,3.26,0,0,1,1.87-.58H317.21a3.32,3.32,0,0,1,3.32,3.33v30.56a3.32,3.32,0,0,1-3.32,3.33Z" class="colorffffff svgShape"/><path fill="#233b23" d="M265.1,154H252.72a.21.21,0,0,1-.2-.21.2.2,0,0,1,.2-.2H265.1a.2.2,0,0,1,.2.2A.21.21,0,0,1,265.1,154Z" class="color3b232f svgShape"/><path fill="#233b23" d="M317.21,191.26H228.46a.21.21,0,0,1-.2-.21.2.2,0,0,1,.2-.2h88.75a3.15,3.15,0,0,0,2.7-1.56,3.05,3.05,0,0,0,.42-1.57V157.16a3.12,3.12,0,0,0-3.12-3.12H279.69a.22.22,0,0,1-.21-.21.21.21,0,0,1,.21-.2h37.52a3.48,3.48,0,0,1,2.39.94,3.55,3.55,0,0,1,1.14,2.59v30.56a3.54,3.54,0,0,1-3.53,3.54Z" class="color3b232f svgShape"/><path fill="#5cff5c" d="M256.63,160.44l2.62,8.06a.67.67,0,0,0,.65.47h8.47a.69.69,0,0,1,.41,1.24l-6.86,5a.91.91,0,0,0-.2.24.65.65,0,0,0-.05.53l2.62,8.06a.66.66,0,0,1,0,.44.68.68,0,0,1-1.05.32l-6.86-5a.68.68,0,0,0-.8,0l-6.86,5a.66.66,0,0,1-.83,0,.65.65,0,0,1-.22-.74l2.61-8.06a.61.61,0,0,0,0-.42.67.67,0,0,0-.25-.35l-6.85-5a.66.66,0,0,1-.28-.64.68.68,0,0,1,.68-.6h8.48a.73.73,0,0,0,.4-.13.72.72,0,0,0,.25-.34l2.62-8.06A.66.66,0,0,1,256,160a.67.67,0,0,1,.34.09A.63.63,0,0,1,256.63,160.44Z" class="colorffa25c svgShape"/><path fill="#233b23" d="M250.28,175.74a.21.21,0,0,1-.19-.14.46.46,0,0,0-.17-.24l-6.86-5a.87.87,0,0,1-.36-.84.9.9,0,0,1,.88-.77h8.48a.47.47,0,0,0,.28-.09.19.19,0,0,1,.28,0,.21.21,0,0,1,0,.29.9.9,0,0,1-.52.17h-8.48a.47.47,0,0,0-.48.41.49.49,0,0,0,.2.46l6.85,5a.85.85,0,0,1,.33.44.22.22,0,0,1-.13.26Z" class="color3b232f svgShape"/><path fill="#233b23" d="M263.64,185.12a.9.9,0,0,1-.52-.17l-6.86-5a.5.5,0,0,0-.57,0l-6.85,5a.87.87,0,0,1-1.08,0,.2.2,0,0,1,.25-.31.49.49,0,0,0,.59,0l6.86-5a.9.9,0,0,1,1,0l6.86,5a.48.48,0,0,0,.42.08.49.49,0,0,0,.32-.62L261.48,176a.92.92,0,0,1,.06-.69.83.83,0,0,1,.26-.3l6.86-5a.49.49,0,0,0,.12-.66.46.46,0,0,0-.41-.21H259.9a.89.89,0,0,1-.54-.19.87.87,0,0,1-.3-.43l-2.62-8.06a.49.49,0,0,0-.22-.27.48.48,0,0,0-.24-.06.2.2,0,0,1-.2-.2.2.2,0,0,1,.2-.21.83.83,0,0,1,.44.12.87.87,0,0,1,.4.5l2.62,8.06a.48.48,0,0,0,.17.23.43.43,0,0,0,.29.1h8.47a.87.87,0,0,1,.75.41.88.88,0,0,1-.22,1.2l-6.86,5a.43.43,0,0,0-.14.16.5.5,0,0,0,0,.38l2.61,8.06a.86.86,0,0,1,0,.57.88.88,0,0,1-.59.55A.73.73,0,0,1,263.64,185.12Z" class="color3b232f svgShape"/><path fill="#5cff5c" d="M232.41,165l1.63,5a.43.43,0,0,0,.15.2.39.39,0,0,0,.26.09h5.27a.43.43,0,0,1,.25.77l-4.26,3.1a.37.37,0,0,0-.13.15.42.42,0,0,0,0,.33l1.63,5a.42.42,0,0,1,0,.27.43.43,0,0,1-.66.21l-4.26-3.1a.43.43,0,0,0-.25-.09.43.43,0,0,0-.26.09l-4.26,3.1a.43.43,0,0,1-.52,0,.41.41,0,0,1-.14-.46l1.63-5a.39.39,0,0,0,0-.26.48.48,0,0,0-.15-.22l-4.27-3.1a.39.39,0,0,1-.17-.4.42.42,0,0,1,.42-.37h5.27a.41.41,0,0,0,.25-.08A.37.37,0,0,0,230,170l1.63-5a.44.44,0,0,1,.62-.24A.39.39,0,0,1,232.41,165Z" class="colorffa25c svgShape"/><path fill="#5cff5c" d="M208.44,165l1.63,5a.48.48,0,0,0,.14.2.43.43,0,0,0,.26.09h5.28a.41.41,0,0,1,.36.2.42.42,0,0,1-.11.57l-4.27,3.1a.44.44,0,0,0-.12.15.38.38,0,0,0,0,.33l1.63,5a.42.42,0,0,1,0,.27.43.43,0,0,1-.66.21l-4.27-3.1a.38.38,0,0,0-.25-.09.4.4,0,0,0-.25.09l-4.27,3.1a.42.42,0,0,1-.51,0,.41.41,0,0,1-.14-.46l1.63-5a.46.46,0,0,0,0-.26.44.44,0,0,0-.16-.22l-4.27-3.1a.41.41,0,0,1-.17-.4.43.43,0,0,1,.43-.37h5.27a.44.44,0,0,0,.25-.08A.42.42,0,0,0,206,170l1.63-5a.4.4,0,0,1,.4-.29.42.42,0,0,1,.22,0A.47.47,0,0,1,208.44,165Z" class="colorffa25c svgShape"/><path fill="#5cff5c" d="M280.36,165l1.63,5a.41.41,0,0,0,.14.2.43.43,0,0,0,.26.09h5.28a.43.43,0,0,1,.25.77l-4.27,3.1a.44.44,0,0,0-.12.15.38.38,0,0,0,0,.33l1.63,5a.41.41,0,0,1,0,.27.42.42,0,0,1-.65.21L280.2,177a.38.38,0,0,0-.25-.09.4.4,0,0,0-.25.09l-4.27,3.1a.43.43,0,0,1-.52,0,.41.41,0,0,1-.13-.46l1.63-5a.57.57,0,0,0,0-.26.44.44,0,0,0-.16-.22l-4.27-3.1a.41.41,0,0,1-.17-.4.43.43,0,0,1,.42-.37h5.28a.44.44,0,0,0,.25-.08.42.42,0,0,0,.16-.21l1.63-5a.4.4,0,0,1,.4-.29.42.42,0,0,1,.22,0A.47.47,0,0,1,280.36,165Z" class="colorffa25c svgShape"/><path fill="#5cff5c" d="M304.33,165l1.63,5a.43.43,0,0,0,.15.2.39.39,0,0,0,.26.09h5.27a.43.43,0,0,1,.25.77l-4.27,3.1a.44.44,0,0,0-.12.15.42.42,0,0,0,0,.33l1.63,5a.42.42,0,0,1,0,.27.43.43,0,0,1-.66.21l-4.26-3.1a.43.43,0,0,0-.26-.09.43.43,0,0,0-.25.09l-4.26,3.1a.43.43,0,0,1-.52,0,.41.41,0,0,1-.14-.46l1.63-5a.39.39,0,0,0,0-.26.44.44,0,0,0-.16-.22l-4.26-3.1a.4.4,0,0,1-.18-.4.43.43,0,0,1,.43-.37h5.27a.41.41,0,0,0,.25-.08.42.42,0,0,0,.16-.21l1.63-5a.4.4,0,0,1,.4-.29.42.42,0,0,1,.22,0A.47.47,0,0,1,304.33,165Z" class="colorffa25c svgShape"/><circle cx="34.14" cy="243.83" r="29.91" fill="#5cff5c" class="colorffa25c svgShape" transform="rotate(-11.6 34.116 243.82)"/><path fill="#233b23" d="M34.14,274.3A30.48,30.48,0,0,1,7.67,228.72a.56.56,0,0,1,1,.55A29.36,29.36,0,1,0,63.5,243.83a.56.56,0,1,1,1.12,0A30.51,30.51,0,0,1,34.14,274.3Z" class="color3b232f svgShape"/><path fill="#233b23" d="M62.18,233.94a.56.56,0,0,1-.52-.36,29.56,29.56,0,0,0-21.6-18.51.57.57,0,0,1-.44-.66.58.58,0,0,1,.67-.44,30.69,30.69,0,0,1,22.42,19.22.56.56,0,0,1-.33.72A.64.64,0,0,1,62.18,233.94Z" class="color3b232f svgShape"/><circle cx="34.14" cy="243.83" r="23.25" fill="#75ff75" class="colorffb075 svgShape" transform="rotate(-11.6 34.116 243.82)"/><path fill="#b0ffb0" d="M57.4,243.83A23.1,23.1,0,0,0,53,230.2L20.51,262.66A23.25,23.25,0,0,0,57.4,243.83Z" class="colorffd2b0 svgShape"/><path fill="#b0ffb0" d="M43.7,222.63,12.94,253.38a23.66,23.66,0,0,0,2.49,4.25L48,225.12A22.86,22.86,0,0,0,43.7,222.63Z" class="colorffd2b0 svgShape"/><rect width="151.37" height="14.28" x="240.12" y="215.33" fill="#43e243" class="colore2435f svgShape" rx="6.61"/><circle cx="341.46" cy="221.84" r="29.79" fill="#fff" class="colorffffff svgShape" transform="rotate(-80.78 341.482 221.834)"/><path fill="#233b23" d="M341.46,251.84a29.83,29.83,0,0,1-7.71-1,.21.21,0,0,1-.15-.26.22.22,0,0,1,.26-.15,29.58,29.58,0,1,0-15.69-46.8.22.22,0,0,1-.34-.27,30,30,0,1,1,23.63,48.49Z" class="color3b232f svgShape"/><path fill="#43e243" d="M330,218.18a5.65,5.65,0,0,1-1.34-4v-2.66a5.64,5.64,0,0,1,1.34-4,5.75,5.75,0,0,1,7.61,0,5.69,5.69,0,0,1,1.34,4v2.62a5.61,5.61,0,0,1-1.35,4,5,5,0,0,1-3.8,1.42,4.92,4.92,0,0,1-3.8-1.43m17.85-11.8h3.8l-16.78,30.89H331ZM335,215.76a2,2,0,0,0,.43-1.37v-3.12A1.86,1.86,0,0,0,335,210a1.5,1.5,0,0,0-1.17-.47,1.47,1.47,0,0,0-1.17.47,1.94,1.94,0,0,0-.42,1.34v3.1a2,2,0,0,0,.42,1.38,1.68,1.68,0,0,0,2.34,0m10.39,20.39a5.64,5.64,0,0,1-1.34-4v-2.66a5.64,5.64,0,0,1,1.34-4,5.75,5.75,0,0,1,7.61,0,5.7,5.7,0,0,1,1.34,4v2.61a5.59,5.59,0,0,1-1.35,4,5,5,0,0,1-3.8,1.43,4.93,4.93,0,0,1-3.8-1.44m5-2.42a2,2,0,0,0,.43-1.37v-3.12a1.86,1.86,0,0,0-.43-1.32,1.5,1.5,0,0,0-1.17-.47,1.47,1.47,0,0,0-1.17.47,1.94,1.94,0,0,0-.42,1.34v3.1a2,2,0,0,0,.42,1.38,1.68,1.68,0,0,0,2.34,0" class="colore2435f svgShape"/><circle cx="326.42" cy="124.93" r="11.23" fill="#4eafcf" class="color4ec2cf svgShape" transform="rotate(-76.18 326.43 124.932)"/><path fill="#fff" d="M325.26,130.57a1,1,0,0,1-.72-.34l-5-6.11a.93.93,0,0,1,1.44-1.18l4.27,5.19,6.6-8.47a.93.93,0,1,1,1.47,1.15l-7.32,9.4a1,1,0,0,1-.72.36Z" class="colorffffff svgShape"/><path fill="#a5f0a5" d="M352.41,123.14h-6.88a3.07,3.07,0,0,1-2.53-1.33,3,3,0,0,1-.54-1.73h0a3.07,3.07,0,0,1,3.07-3.07h6.88a3,3,0,0,1,1.76.55,3.07,3.07,0,0,1,1.31,2.52h0a3.07,3.07,0,0,1-3.07,3.06Z" class="colorf0c5a5 svgShape"/><path fill="#a5f0a5" d="M379.68,123.14H362.07a3.07,3.07,0,0,1-2.53-1.33,3,3,0,0,1-.54-1.73h0a3.07,3.07,0,0,1,3.07-3.07h17.61a3,3,0,0,1,1.75.55,3,3,0,0,1,1.31,2.52h0a3.05,3.05,0,0,1-3.06,3.06Z" class="colorf0c5a5 svgShape"/><path fill="#a5f0a5" d="M363.28,135.2H345.53a3.08,3.08,0,0,1-3.07-3.07h0a3.07,3.07,0,0,1,3.07-3.07h17.75a3.08,3.08,0,0,1,3.07,3.07h0a3.07,3.07,0,0,1-3.07,3.07Z" class="colorf0c5a5 svgShape"/><rect width="84.91" height="50.55" x="139.19" y="208.42" fill="#fff" class="colorffffff svgShape"/><path fill="#233b23" d="M177,259.28H139.19a.31.31,0,0,1-.31-.31V231.49a.32.32,0,0,1,.63,0v27.16H177a.32.32,0,0,1,0,.63Z" class="color3b232f svgShape"/><path fill="#233b23" d="M224.1,259.28H190a.32.32,0,0,1,0-.63h33.79V208.73H178.49a.32.32,0,1,1,0-.63H224.1a.31.31,0,0,1,.31.32V259A.31.31,0,0,1,224.1,259.28Z" class="color3b232f svgShape"/><path fill="#233b23" d="M139.19,225.73a.31.31,0,0,1-.31-.32v-17a.31.31,0,0,1,.31-.32h16.62a.32.32,0,0,1,0,.63h-16.3v16.68A.32.32,0,0,1,139.19,225.73Z" class="color3b232f svgShape"/><circle cx="159.99" cy="224.06" r="11.04" fill="#43e243" class="colore2435f svgShape"/><path fill="#fff" d="M163.83,220.56a3.84,3.84,0,1,1-3.84-3.84A3.84,3.84,0,0,1,163.83,220.56Z" class="colorffffff svgShape"/><path fill="#fff" d="M160,234.33a10.24,10.24,0,0,0,6.8-2.59,6.81,6.81,0,0,0-13.6,0A10.24,10.24,0,0,0,160,234.33Z" class="colorffffff svgShape"/><rect width="8.94" height="24.58" x="178.99" y="222.38" fill="#6c6" class="color947892 svgShape"/><rect width="8.94" height="9.22" x="178.99" y="237.74" fill="#4e664e" class="color664e65 svgShape"/><rect width="8.94" height="24.58" x="193.62" y="222.38" fill="#6c6" class="color947892 svgShape"/><rect width="8.94" height="16.86" x="193.62" y="230.1" fill="#4e664e" class="color664e65 svgShape"/><rect width="8.94" height="24.58" x="208.25" y="222.38" fill="#6c6" class="color947892 svgShape"/><rect width="8.94" height="9.22" x="208.25" y="237.74" fill="#4e664e" class="color664e65 svgShape"/><rect width="8.94" height="7.96" x="208.25" y="229.78" fill="#6c6" class="color947892 svgShape"/><path fill="#a5f0a5" d="M159.11,243.61H146.64a2.06,2.06,0,0,1-2-2.05h0a2.06,2.06,0,0,1,.9-1.7,2.08,2.08,0,0,1,1.15-.35h12.47a2,2,0,0,1,1.52.67,2.06,2.06,0,0,1,.53,1.38h0a2,2,0,0,1-2,2.05Z" class="colorf0c5a5 svgShape"/><path fill="#a5f0a5" d="M166.63,251.1h-20a2.06,2.06,0,0,1-2-2h0a2,2,0,0,1,.9-1.69,2,2,0,0,1,1.15-.35h20a2.05,2.05,0,0,1,1.52.67,2,2,0,0,1,.53,1.37h0a2.06,2.06,0,0,1-2.05,2Z" class="colorf0c5a5 svgShape"/><path fill="#233b23" d="M388.53,125.8h-8a.32.32,0,1,1,0-.63h8a.32.32,0,1,1,0,.63Z" class="color3b232f svgShape"/><path fill="#233b23" d="M375.22,125.8H343.34a.32.32,0,1,1,0-.63h31.88a.32.32,0,0,1,0,.63Z" class="color3b232f svgShape"/></svg>