<svg xmlns="http://www.w3.org/2000/svg" data-name="Layer 1" viewBox="0 0 375.71 266.38"><defs><clipPath id="a"><path fill="none" d="M233.85,48.1a4.38,4.38,0,0,1-2.11,2.36,4.33,4.33,0,0,1-3.14-.34,4.35,4.35,0,0,1,2.1-2.37A4.4,4.4,0,0,1,233.85,48.1Z"/></clipPath><clipPath id="b"><path fill="none" d="M217.44,48.32a3.34,3.34,0,0,0,5.08,2,3.34,3.34,0,0,0-5.08-2Z"/></clipPath></defs><path fill="#f0fff0" d="M251,39.78c-19.44,11.56-14.23,36.6,13.6,31.37s38.49,46.23,77.33.77-17.2-63.86-44.65-41.16S269.75,28.66,251,39.78Z" class="colorfff7f0 svgShape"/><path fill="#f0fff0" d="M99.6,193.9c-62.64,0-71.5,48.32-15.29,41.42s57.2,24.65,75.94,8.38S159.26,193.9,99.6,193.9Z" class="colorfff7f0 svgShape"/><path fill="#f0fff0" d="M131.15.62c-123.1,9.1-167.64,168.63-68,177s114.48,20,134.11,52.76c22.19,37,149.4,34,157.29-40.44s-60.65-98.61-109-98.61S257.87-8.75,131.15.62Z" class="colorfff7f0 svgShape"/><path fill="#5cff5c" d="M60.32,99.42,31.05,163.58a35.33,35.33,0,0,0,.68,30.79h0a35.4,35.4,0,0,0,32,19.28l30.62-.45-8.21,43.92H241.44l13.93-54.76,12.77,1.55-.87,18.72,18,.84a42.82,42.82,0,0,0,44-34.24h0a42.91,42.91,0,0,0-4.16-28.74l-26.27-49.36A48.29,48.29,0,0,0,275.6,89.6L215.9,63.52a48.29,48.29,0,0,0-41.12-.21l-65.31,30.3Z" class="colorffa25c svgShape"/><path fill="#fff" d="M258,82.42,215.8,64l-.57-.25-.16.59c-2.39,9.17.28,15.2,2.94,18.64,3.84,5,10.28,7.83,17.68,7.83a35,35,0,0,0,20.27-7Z" class="colorffffff svgShape"/><path fill="#6dff6d" d="M244.2,53.85l-.44,22.35,9.58,4.06c-17,12.34-39.18,5.23-34-14.8l5.3,2.32-.37-2.1,19-12.56Z" class="colorff7c6d svgShape"/><path fill="#59ff59" d="M102.6,46.11l5.28,2A10.89,10.89,0,0,1,114,62.53l-2.73,6.41-5.61,8.71,6.38,35.6-48.18-.19C51.71,83.65,49.2,58.11,60.61,48.24,79,49.79,102.6,46.11,102.6,46.11Z" class="colorff6a59 svgShape"/><rect width="29.9" height="31.06" x="134.72" y="219.29" fill="#6c6" class="color664e65 svgShape"/><path fill="#3b4d3b" d="M198.43,249.48H100.91a1.85,1.85,0,0,0-1.29.51,1.87,1.87,0,0,0-.6,1.37v4.36a1.89,1.89,0,0,0,.32,1,1.91,1.91,0,0,0,1.57.84h97.52a1.89,1.89,0,0,0,1.69-1.05,1.83,1.83,0,0,0,.2-.84v-4.36a1.87,1.87,0,0,0-.55-1.33A1.9,1.9,0,0,0,198.43,249.48Z" class="color4d3b4c svgShape"/><rect width="186.05" height="121.03" x="56.65" y="109.29" fill="#3b4d3b" class="color4d3b4c svgShape" rx="4.5"/><rect width="109.17" height="181.6" x="95.09" y="75.3" fill="#fff" class="colorffffff svgShape" rx="1.5" transform="rotate(90 149.675 166.095)"/><rect width="44.13" height="98.12" x="192.75" y="116.74" fill="#a5f0a5" class="colorf0c5a5 svgShape"/><path fill="#a5f0a5" d="M104.14,87.79v63.88a6.75,6.75,0,0,0,4.24,6.25,2.75,2.75,0,1,0,5.26-.11,6.62,6.62,0,0,0,2-1.38,6.69,6.69,0,0,0,2-4.76V87.79Z" class="colorf0c5a5 svgShape"/><path fill="#43e243" d="M100.77,100.29a2.26,2.26,0,0,0,1.41.5h17.1A2.25,2.25,0,0,0,121,97.13a2.23,2.23,0,0,0-1.74-.83h-.22v-32a8.69,8.69,0,1,0-17.38,0V96.36a2.24,2.24,0,0,0-1.57,1.31,2.29,2.29,0,0,0-.17.87A2.25,2.25,0,0,0,100.77,100.29Z" class="colore2435f svgShape"/><path fill="#233b23" d="M111,161.69a3.06,3.06,0,0,1-3.07-3.07,2.32,2.32,0,0,1,.05-.51,7.33,7.33,0,0,1-2.12-1.45,7,7,0,0,1-2.06-5V101.1h-1.65a2.56,2.56,0,0,1-.82-5V64.28a9,9,0,1,1,18,0V96a2.57,2.57,0,0,1,1.9,1h0a2.61,2.61,0,0,1,.57,1.61,2.57,2.57,0,0,1-1,2.06,2.52,2.52,0,0,1-1.52.5h-1.35v50.57a7,7,0,0,1-2.06,5A6.83,6.83,0,0,1,114,158a2.49,2.49,0,0,1,.08.64A3.06,3.06,0,0,1,111,161.69Zm-.66-105.78A8.38,8.38,0,0,0,102,64.28V96.36a.32.32,0,0,1-.24.31,2,2,0,0,0-1.35,1.12,1.93,1.93,0,0,0-.15.75A1.91,1.91,0,0,0,101,100a1.92,1.92,0,0,0,1.21.43h2a.32.32,0,0,1,.32.32v50.88a6.38,6.38,0,0,0,1.88,4.54,6.5,6.5,0,0,0,2.15,1.42.31.31,0,0,1,.19.37,2.57,2.57,0,0,0-.09.62,2.44,2.44,0,1,0,4.87,0,2.52,2.52,0,0,0-.12-.72.32.32,0,0,1,.17-.38,6.31,6.31,0,0,0,1.91-1.31,6.38,6.38,0,0,0,1.88-4.54V100.79a.32.32,0,0,1,.32-.32h1.66a1.93,1.93,0,0,0,1.5-3.14h0a1.92,1.92,0,0,0-1.5-.72h-.22a.32.32,0,0,1-.32-.31v-32a8.36,8.36,0,0,0-8.37-8.37Z" class="color3b232f svgShape"/><path fill="#233b23" d="M239.41,59.15c-5.46,15.95-15,18.06-14.35,5.9C234.67,62.94,239.41,59.15,239.41,59.15Z" class="color3b232f svgShape"/><path fill="#233b23" d="M245.3,47.5c2-11.87-2.33-17.48-9.61-18.2S215.63,30.54,215.6,37,230,49.9,230.38,50.19s9.68,2.19,9.68,2.19,2.62.29,2.62,0S245.3,47.5,245.3,47.5Z" class="color3b232f svgShape"/><path fill="#6dff6d" d="M217.56,37c2.91,2.78,15-.75,15-.75.29,4.31,5,5.38,5,5.38.69,6.46.53,10,6.67,9.77h.05c-2.6,7.62-8.64,17.12-18.69,15.91a4.53,4.53,0,0,1-2-.73C214.55,60.54,215.77,47,217.56,37Z" class="colorff7c6d svgShape"/><path fill="#59ff59" d="M249.3,50.33A4.36,4.36,0,1,1,245,46,4.36,4.36,0,0,1,249.3,50.33Z" class="colorff6a59 svgShape"/><path fill="#233b23" d="M243.08,52.41a.24.24,0,0,1-.16-.07,2.55,2.55,0,1,1,3.6-3.61.23.23,0,1,1-.33.33A2.08,2.08,0,0,0,243.25,52a.25.25,0,0,1,0,.34A.26.26,0,0,1,243.08,52.41Z" class="color3b232f svgShape"/><path fill="#233b23" d="M244.4,51.49a.27.27,0,0,1-.18-.08.24.24,0,0,1,0-.33,1,1,0,0,0,.34-.7,1.06,1.06,0,0,0-.25-.73,1,1,0,0,0-.7-.34,1,1,0,0,0-.73.25.23.23,0,1,1-.31-.35,1.48,1.48,0,0,1,2.09.13,1.51,1.51,0,0,1,.37,1.07,1.47,1.47,0,0,1-.5,1A.25.25,0,0,1,244.4,51.49Z" class="color3b232f svgShape"/><path fill="#fff" d="M233.85,48.1a4.38,4.38,0,0,1-2.11,2.36,4.33,4.33,0,0,1-3.14-.34,4.35,4.35,0,0,1,2.1-2.37A4.4,4.4,0,0,1,233.85,48.1Z" class="colorffffff svgShape"/><path fill="#233b23" d="M228.6,50.2h0a.08.08,0,0,1,0-.1A3.53,3.53,0,0,1,233.88,48a.07.07,0,0,1,0,.1.09.09,0,0,1-.11,0,4.28,4.28,0,0,0-3.08-.34,4.34,4.34,0,0,0-2.06,2.31A.07.07,0,0,1,228.6,50.2Z" class="color3b232f svgShape"/><g class="color000000 svgShape" clip-path="url(#a)"><path fill="#233b23" d="M229.07,50a1.48,1.48,0,1,0,1.48-1.47A1.48,1.48,0,0,0,229.07,50Z" class="color3b232f svgShape"/></g><path fill="#fff" d="M232.12,49.14c0,.24-.26.43-.58.43s-.58-.19-.58-.43.26-.43.58-.43S232.12,48.91,232.12,49.14Z" class="colorffffff svgShape"/><path fill="#fff" d="M217.44,48.32a3.34,3.34,0,0,0,5.08,2,3.34,3.34,0,0,0-5.08-2Z" class="colorffffff svgShape"/><path fill="none" d="M217.44,48.32a3.34,3.34,0,0,0,5.08,2,3.34,3.34,0,0,0-5.08-2Z"/><g class="color000000 svgShape" clip-path="url(#b)"><circle cx="219.3" cy="49.98" r="1.43" fill="#233b23" class="color3b232f svgShape"/></g><path fill="#fff" d="M220,49.33a.5.5,0,0,0,.55.42c.31,0,.56-.19.56-.42s-.25-.41-.56-.41S220,49.1,220,49.33Z" class="colorffffff svgShape"/><path fill="#233b23" d="M222.52,50.35a.08.08,0,0,1-.07-.05,4.21,4.21,0,0,0-2-2.24,4.15,4.15,0,0,0-3,.33.09.09,0,0,1-.11,0,.08.08,0,0,1,0-.11,3.42,3.42,0,0,1,5.2,2,.08.08,0,0,1,0,.1Z" class="color3b232f svgShape"/><circle cx="235.9" cy="53.95" r="4.13" fill="#59ff59" class="colorff6a59 svgShape"/><path fill="#59ff59" d="M219.61,55.44a4.14,4.14,0,0,1-1.85,3.44,26.8,26.8,0,0,1-1.4-7.47A4.12,4.12,0,0,1,219.61,55.44Z" class="colorff6a59 svgShape"/><path fill="#233b23" d="M225.81,54.87l-.89-.61C225.91,54.13,226,54.76,225.81,54.87Z" class="color3b232f svgShape"/><path fill="#59ff59" d="M229.59,59.51l-2.8.5A1.6,1.6,0,0,0,229.59,59.51Z" class="colorff6a59 svgShape"/><path fill="#59ff59" d="M224,48.93s-1.83,5.51-1.69,5.61,2.11.37,2.11.37Z" class="colorff6a59 svgShape"/><path fill="#233b23" d="M224.34,55.13a8.84,8.84,0,0,1-2.19-.41c-.17-.12-.28-.19,1.6-5.86a.22.22,0,0,1,.28-.14.24.24,0,0,1,.14.28c-.6,1.8-1.52,4.68-1.66,5.38.32.07,1.15.21,1.9.31a.22.22,0,0,1,0,.44Zm-1.86-.62h0Z" class="color3b232f svgShape"/><path fill="#233b23" d="M233.83,45.23a.92.92,0,0,0,.83-.51.94.94,0,0,0-.41-1.25,8.43,8.43,0,0,0-6-.32.93.93,0,0,0,.84,1.66,6.92,6.92,0,0,1,4.31.32A.94.94,0,0,0,233.83,45.23Z" class="color3b232f svgShape"/><path fill="#233b23" d="M217.75,45.67a.94.94,0,0,0,.61-.22,4.14,4.14,0,0,1,3.34-.62.93.93,0,1,0,.42-1.81,6,6,0,0,0-5,1,.93.93,0,0,0,.6,1.63Z" class="color3b232f svgShape"/><rect width="51.19" height="11.44" x="241.39" y="191.8" fill="#233b23" class="color3b232f svgShape" rx="5.29" transform="rotate(-90 266.98 197.52)"/><path fill="#59ff59" d="M255.3,151.8c-5.41-14.67-27-24.9-42.14-15.93a4.83,4.83,0,0,0-1.24,7.25l.24.27a4.71,4.71,0,0,0,2.48,1.55,5,5,0,0,0,3.27-.31c5-2.25,10.32-.7,12.55,2.16l1.25,11A37.19,37.19,0,0,1,226,181.82l0,.05c-3,4.95-9,.32-14.32.92a4.41,4.41,0,0,0-1.51.46,4.47,4.47,0,0,0-1.46,1.21,4.39,4.39,0,0,0-.89,1.91,4.47,4.47,0,0,0,3.47,5.26,19.48,19.48,0,0,1,8.15,3.48c4.22,3.35,12.88,8.25,18.4,5l5.46,4.59,1-15.33,11.12-.2Z" class="colorff6a59 svgShape"/><path fill="#6dff6d" d="M229.87,193.8a15.09,15.09,0,0,1-.29-7.65,14.49,14.49,0,0,1,8-10.12c.26-.12.52-.24.8-.35-1.16.77-9.44-3.27-4.44-9.05,0,0-5.58-4.62-2.5-9-10.59-6-1.35-23.31,12.91-19.65,17.18,6.65,16.49,6.07,15.18,35.53a3.71,3.71,0,0,0,3.71,3.89l9.48.14v35.72l-29.2-4.58A15.17,15.17,0,0,1,231.28,198Z" class="colorff7c6d svgShape"/><path fill="#233b23" d="M236.65,152.17a.35.35,0,0,1-.3-.16.37.37,0,0,1,.09-.51c5-3.41,11.51-4.36,15.94-2.3a.38.38,0,0,1,.18.49.36.36,0,0,1-.49.18c-4.2-2-10.45-1-15.21,2.24A.37.37,0,0,1,236.65,152.17Z" class="color3b232f svgShape"/><path fill="#233b23" d="M231.71,157.42a.45.45,0,0,1-.19,0,.38.38,0,0,1-.13-.51,15.67,15.67,0,0,1,2.13-2.85.37.37,0,0,1,.52,0,.37.37,0,0,1,0,.52,15.4,15.4,0,0,0-2,2.72A.37.37,0,0,1,231.71,157.42Z" class="color3b232f svgShape"/><path fill="#233b23" d="M252.51,164.64a.32.32,0,0,1-.14,0,17.62,17.62,0,0,0-11.37-.5.37.37,0,1,1-.18-.71,18.37,18.37,0,0,1,11.84.53.37.37,0,0,1,.19.49A.36.36,0,0,1,252.51,164.64Z" class="color3b232f svgShape"/><path fill="#233b23" d="M234.6,166.66a.36.36,0,0,1-.32-.19.36.36,0,0,1,.14-.5c.88-.48,1.77-.92,2.66-1.3a.36.36,0,0,1,.48.2.36.36,0,0,1-.19.48,28.15,28.15,0,0,0-2.59,1.27A.39.39,0,0,1,234.6,166.66Z" class="color3b232f svgShape"/><path fill="#233b23" d="M239.51,187.9a.38.38,0,0,1-.36-.28c0-.07-1.43-6,5-10.82a10.51,10.51,0,0,1-6-.78.37.37,0,1,1,.31-.67,10,10,0,0,0,7.64.14.37.37,0,0,1,.33.66c-8.18,4.71-6.63,11.22-6.61,11.29a.37.37,0,0,1-.27.45Z" class="color3b232f svgShape"/><rect width="78.79" height="46.12" x="146.05" y="144.44" fill="#fff" class="colorffffff svgShape"/><path fill="#233b23" d="M224.84,190.87H146.05a.31.31,0,0,1-.32-.31V168.51a.32.32,0,1,1,.63,0v21.73h78.17V144.76H177.21a.32.32,0,0,1-.31-.32.31.31,0,0,1,.31-.31h47.63a.32.32,0,0,1,.32.31v46.12A.32.32,0,0,1,224.84,190.87Z" class="color3b232f svgShape"/><rect width="26.24" height="23.39" x="144.6" y="140.08" fill="#a5f0a5" class="colorf0c5a5 svgShape"/><rect width="26.24" height="23.39" x="140.78" y="135.6" fill="#43e243" class="colore2435f svgShape"/><rect width="16.06" height="14.32" x="151.73" y="170.61" fill="#0099cb" class="color4ec2cf svgShape"/><rect width="16.06" height="14.32" x="177.28" y="149.25" fill="#0099cb" class="color4ec2cf svgShape"/><rect width="16.06" height="14.32" x="177.28" y="170.61" fill="#5cff5c" class="colorffa25c svgShape"/><rect width="16.06" height="14.32" x="202.84" y="149.25" fill="#a5f0a5" class="colorf0c5a5 svgShape"/><rect width="16.06" height="14.32" x="202.84" y="170.61" fill="#43e243" class="colore2435f svgShape"/><path fill="#6dff6d" d="M56.18,67c3.29,8.35,11.64,16.35,15.53,19.77a4.49,4.49,0,0,0,4.51.82l1-.37a4.47,4.47,0,0,0,2.57-5.87h0L81,82.75a5.27,5.27,0,0,0,5.93,1.46l.81-.33A5.26,5.26,0,0,0,91,78h0l.17.24a5.39,5.39,0,0,0,5.76,2.1h0a5.38,5.38,0,0,0,4-5.82l-.43-3.68,7.06,16.61a4.33,4.33,0,0,0,5.59,2.34h0a4.33,4.33,0,0,0,2.65-4.94l-6.22-29.23a17.48,17.48,0,0,0-6.4-10.18l-4.69-3.65a17.52,17.52,0,0,0-16.4-2.72L66.9,44.31A17.49,17.49,0,0,0,55.53,56.93h0A17,17,0,0,0,56.18,67Z" class="colorff7c6d svgShape"/><rect width="5.51" height="6.68" x="108.7" y="82.39" fill="#82ff82" class="colorff8f82 svgShape" rx="2.55" transform="rotate(-21.56 111.444 85.713)"/><path fill="#233b23" d="M100.38,70.42a.31.31,0,0,1-.3-.22l-2.32-7.26a.3.3,0,0,1,.2-.39.32.32,0,0,1,.4.2L100.68,70a.31.31,0,0,1-.21.39Z" class="color3b232f svgShape"/><path fill="#233b23" d="M90.41,77.29a.33.33,0,0,1-.27-.16l-2.42-4.06a.31.31,0,0,1,.54-.32l2.42,4.06a.31.31,0,0,1-.11.43A.3.3,0,0,1,90.41,77.29Z" class="color3b232f svgShape"/><path fill="#233b23" d="M78.8,80.58a.32.32,0,0,1-.28-.17l-1.06-2a.32.32,0,0,1,.56-.3l1.06,2a.31.31,0,0,1-.13.42A.28.28,0,0,1,78.8,80.58Z" class="color3b232f svgShape"/><path fill="#233b23" d="M99.41,52.71a.32.32,0,0,1-.16,0,.31.31,0,0,1-.11-.43,2.92,2.92,0,0,1,2.4-1.6,2.75,2.75,0,0,1,2.09.7.32.32,0,0,1-.06.44.33.33,0,0,1-.45-.06,2.26,2.26,0,0,0-1.57-.45,2.3,2.3,0,0,0-1.87,1.29A.31.31,0,0,1,99.41,52.71Z" class="color3b232f svgShape"/><path fill="#233b23" d="M85.67,58h-.1a.33.33,0,0,1-.2-.4c.63-1.88,2.21-2.5,4.46-1.75a.31.31,0,0,1,.2.4.3.3,0,0,1-.39.2c-1.92-.64-3.16-.19-3.67,1.35A.31.31,0,0,1,85.67,58Z" class="color3b232f svgShape"/><path fill="#233b23" d="M74.84,63.55a.28.28,0,0,1-.15,0,.31.31,0,0,1-.13-.42,3.67,3.67,0,0,1,2.42-2,2.56,2.56,0,0,1,2,.29.32.32,0,0,1,.06.45.33.33,0,0,1-.44.06,1.92,1.92,0,0,0-1.49-.18,3,3,0,0,0-2,1.62A.29.29,0,0,1,74.84,63.55Z" class="color3b232f svgShape"/><path fill="#233b23" d="M65,70.61l-.12,0a.31.31,0,0,1-.17-.41c.77-1.89,3.23-1.74,3.65-1.64a.31.31,0,1,1-.15.61c-.27-.07-2.32-.18-2.92,1.27A.31.31,0,0,1,65,70.61Z" class="color3b232f svgShape"/><path fill="#0099cb" d="M87.25,128.82H11.69a8.4,8.4,0,0,1-8.41-8.41h0A8.41,8.41,0,0,1,11.69,112H87.25a8.41,8.41,0,0,1,8.41,8.41h0a8.39,8.39,0,0,1-8.41,8.41Z" class="color4ec2cf svgShape"/><path fill="#fff" d="M85.73,124.27h-75a3.86,3.86,0,0,1-3.86-3.86h0a3.81,3.81,0,0,1,.71-2.22,3.86,3.86,0,0,1,3.15-1.64h75a3.85,3.85,0,0,1,3.86,3.86h0a3.8,3.8,0,0,1-.3,1.51A3.86,3.86,0,0,1,85.73,124.27Z" class="colorffffff svgShape"/><path fill="#5cff5c" d="M40.78,120.41a6.21,6.21,0,1,1-6.2-6.2A6.2,6.2,0,0,1,40.78,120.41Z" class="colorffa25c svgShape"/><path fill="#a5f0a5" d="M129.67,175.93a21.3,21.3,0,1,0-9.2,28.68A21.29,21.29,0,0,0,129.67,175.93ZM98.24,192.1a14,14,0,1,1,18.91,6.06A14.05,14.05,0,0,1,98.24,192.1Z" class="colorf0c5a5 svgShape"/><path fill="#5cff5c" d="M101,166.74a21.17,21.17,0,0,0-2.6,1.58l3.36,6.55a14.55,14.55,0,0,1,2.56-1.69,14,14,0,0,1,18.91,6.07l.08.16,6.44-3.32c0-.05-.05-.1-.07-.16A21.29,21.29,0,0,0,101,166.74Z" class="colorffa25c svgShape"/><path fill="#43e243" d="M105.44,184a2.6,2.6,0,0,1-.61-1.84v-1.23a2.59,2.59,0,0,1,.61-1.84,2.28,2.28,0,0,1,1.75-.66,2.31,2.31,0,0,1,1.76.66,2.62,2.62,0,0,1,.61,1.86v1.21a2.58,2.58,0,0,1-.62,1.84,2.65,2.65,0,0,1-3.5,0m8.22-5.43h1.75l-7.73,14.22h-1.75Zm-5.93,4.31a.9.9,0,0,0,.2-.63v-1.43a.88.88,0,0,0-.2-.61.77.77,0,0,0-1.08,0,.89.89,0,0,0-.19.62v1.42a.92.92,0,0,0,.19.64.7.7,0,0,0,.54.21.67.67,0,0,0,.54-.22m4.78,9.39a2.59,2.59,0,0,1-.61-1.84V189.2a2.61,2.61,0,0,1,.61-1.85,2.66,2.66,0,0,1,3.51,0,2.63,2.63,0,0,1,.61,1.87v1.2a2.62,2.62,0,0,1-.62,1.85,2.67,2.67,0,0,1-3.5,0m2.29-1.11a.93.93,0,0,0,.2-.63v-1.44a.9.9,0,0,0-.2-.61.69.69,0,0,0-.53-.21.71.71,0,0,0-.55.21,1,1,0,0,0-.19.62v1.43a1,1,0,0,0,.19.63.68.68,0,0,0,.55.22.7.7,0,0,0,.53-.22" class="colore2435f svgShape"/><path fill="#fff" d="M223.8,57.27c.95,1.33,4.95,3,7.58-2.12Z" class="colorffffff svgShape"/><path fill="#233b23" d="M318.16,194.77a.65.65,0,0,1-.55-.32l-2.95-5.23a33.64,33.64,0,0,0-29.26-17.09H268.82a.63.63,0,0,1,0-1.26H285.4a34.9,34.9,0,0,1,30.36,17.73l2.95,5.23a.64.64,0,0,1-.24.86A.68.68,0,0,1,318.16,194.77Z" class="color3b232f svgShape"/><path fill="#233b23" d="M318.55,184.71a.63.63,0,0,1-.53-.29c-5-7.59-18-9-18.11-9a.62.62,0,0,1-.56-.69.63.63,0,0,1,.69-.56c.55.06,13.71,1.48,19,9.57a.63.63,0,0,1-.18.87A.66.66,0,0,1,318.55,184.71Z" class="color3b232f svgShape"/><path fill="#233b23" d="M264.56,127.62h-.12a.63.63,0,0,1-.49-.74c.2-1,5.28-25.22,20.24-28a.62.62,0,1,1,.22,1.23c-14.11,2.61-19.18,26.74-19.23,27A.62.62,0,0,1,264.56,127.62Z" class="color3b232f svgShape"/><path fill="#233b23" d="M173.62,102.08a.67.67,0,0,1-.28-.06.64.64,0,0,1-.29-.85l15.09-31a.64.64,0,1,1,1.14.56l-15.1,31A.63.63,0,0,1,173.62,102.08Z" class="color3b232f svgShape"/><rect width="21.69" height="5.92" x="64.06" y="136.46" fill="#a5f0a5" class="colorf0c5a5 svgShape"/><rect width="21.69" height="5.92" x="64.06" y="149.69" fill="#a5f0a5" class="colorf0c5a5 svgShape"/><rect width="21.69" height="5.92" x="64.06" y="150.32" fill="#a5f0a5" class="colorf0c5a5 svgShape"/><rect width="21.69" height="5.92" x="64.06" y="162.92" fill="#a5f0a5" class="colorf0c5a5 svgShape"/><rect width="16.02" height="2.47" x="169.08" y="116.74" fill="#a5f0a5" class="colorf0c5a5 svgShape"/><rect width="16.02" height="2.47" x="136.95" y="116.74" fill="#a5f0a5" class="colorf0c5a5 svgShape"/><path fill="#a5f0a5" d="M371.28,266.38H4.44A4.43,4.43,0,0,1,0,261.94H0a4.47,4.47,0,0,1,1.58-3.4,4.42,4.42,0,0,1,2.86-1H371.28a4.44,4.44,0,0,1,4.43,4.44h0a4.42,4.42,0,0,1-4.43,4.44Z" class="colorf0c5a5 svgShape"/><rect width="55.19" height="63.06" x="283.41" y="20.79" fill="#fff" class="colorffffff svgShape"/><path fill="#6c6" d="M339.07,84.31H283v-64h56.12Zm-55.2-.92h54.27V21.25H283.87Z" class="color664e65 svgShape"/><path fill="#43e243" d="M301.69,72.22v2.44H289V72.22h4.86L309.71,30H314l14.85,42.24H333v2.44H315.51V72.22h5.1l-4.57-13H301.68l-4.84,13ZM309,39.6l-6.42,17.16h12.57l-6-17.16Z" class="colore2435f svgShape"/><rect width="5.7" height="5.7" x="280.52" y="18.1" fill="#3b4d3b" class="color4d3b4c svgShape" transform="rotate(-90 283.37 20.94)"/><rect width="5.7" height="5.7" x="335.28" y="18.1" fill="#3b4d3b" class="color4d3b4c svgShape" transform="rotate(-90 338.125 20.945)"/><rect width="5.7" height="5.7" x="335.88" y="80.79" fill="#3b4d3b" class="color4d3b4c svgShape" transform="rotate(-90 338.73 83.64)"/><rect width="5.7" height="5.7" x="280.76" y="81.03" fill="#3b4d3b" class="color4d3b4c svgShape" transform="rotate(-90 283.61 83.88)"/><path fill="#5cff5c" d="M356.63,92.49a1.14,1.14,0,0,0-1.11.88H321.61A1.14,1.14,0,1,0,320.56,95a1.13,1.13,0,0,0,1-.66H355.7a1.14,1.14,0,1,0,.93-1.8Z" class="colorffa25c svgShape"/><path fill="#a5f0a5" d="M344.12,99.05v20.21a5.45,5.45,0,0,1,0,10.9v9.68H351l6.54-12.18a4.11,4.11,0,0,0,.51-2,4.28,4.28,0,0,0-.42-1.85l-12-25.11a.76.76,0,0,0-1.45.33Z" class="colorf0c5a5 svgShape"/><path fill="#a5f0a5" d="M342.85,99.05v20.21a5.45,5.45,0,0,0,0,10.9v9.68H336l-6.55-12.18a4.22,4.22,0,0,1-.5-2,4.14,4.14,0,0,1,.42-1.85l12-25.11a.76.76,0,0,1,1.45.33Z" class="colorf0c5a5 svgShape"/><rect width="17.42" height="4.4" x="334.61" y="139.58" fill="#0099cb" class="color4ec2cf svgShape"/><path fill="#0099cb" d="M349.66,144H337V250.7a6.33,6.33,0,0,0,6.33,6.33h0a6.34,6.34,0,0,0,6.34-6.33Z" class="color4ec2cf svgShape"/><rect width="5.1" height="5.1" x="341.04" y="91.28" fill="#5cff5c" class="colorffa25c svgShape"/><path fill="#43e243" d="M357.63,257.54H290.29a4.1,4.1,0,0,1-4.11-4.11V209.78a4.1,4.1,0,0,1,4.11-4.11h67.34a4.1,4.1,0,0,1,4.11,4.11v43.65a4,4,0,0,1-.32,1.6A4.12,4.12,0,0,1,357.63,257.54Z" class="colore2435f svgShape"/><path fill="#fff" d="M311.26,244.05a1.42,1.42,0,0,1-.83-.27l-15.81-11.31a1.44,1.44,0,0,1,0-2.33l15.8-11.57a1.44,1.44,0,0,1,1.7,2.32l-14.21,10.4,14.2,10.16a1.43,1.43,0,0,1-.84,2.6Z" class="colorffffff svgShape"/><path fill="#fff" d="M336.66,244.05a1.43,1.43,0,0,1-.84-2.6L350,231.29l-14.21-10.4a1.44,1.44,0,0,1,1.69-2.32l15.81,11.57a1.45,1.45,0,0,1,.59,1.17,1.47,1.47,0,0,1-.6,1.16l-15.81,11.31A1.42,1.42,0,0,1,336.66,244.05Z" class="colorffffff svgShape"/><path fill="#fff" d="M318.13,248.78a1.47,1.47,0,0,1-.54-.1,1.44,1.44,0,0,1-.78-1.87l12.9-31.49a1.43,1.43,0,0,1,2.65,1.09l-12.9,31.48A1.43,1.43,0,0,1,318.13,248.78Z" class="colorffffff svgShape"/><path fill="#fff" d="M298.48,211.18h-9.14a1.44,1.44,0,1,1,0-2.87h9.14a1.44,1.44,0,0,1,0,2.87Z" class="colorffffff svgShape"/><path fill="#fff" d="M298.48,216h-9.14a1.44,1.44,0,1,1,0-2.87h9.14a1.44,1.44,0,0,1,0,2.87Z" class="colorffffff svgShape"/><path fill="#3b4d3b" d="M66.5,257.52H26.08a5.28,5.28,0,0,1-4.44-2.4,5.34,5.34,0,0,1-.86-2.9v-70.6a5.29,5.29,0,0,1,5.3-5.3H66.5a5.24,5.24,0,0,1,2.72.75,5.32,5.32,0,0,1,2.58,4.55v70.6a5.29,5.29,0,0,1-5.3,5.3Z" class="color4d3b4c svgShape"/><path fill="#6c6" d="M68,257.52H27.62a5.29,5.29,0,0,1-5.3-5.3v-70.6a5.28,5.28,0,0,1,5.3-5.3H68a5.31,5.31,0,0,1,5.3,5.3v70.6a5.31,5.31,0,0,1-5.3,5.3Z" class="color664e65 svgShape"/><path fill="#fff" d="M24.25,251.87V182a3.73,3.73,0,0,1,2.22-3.41,3.77,3.77,0,0,1,1.51-.31H67.69A3.71,3.71,0,0,1,71.41,182v69.9a3.73,3.73,0,0,1-1.36,2.88,3.68,3.68,0,0,1-2.36.84H28a3.72,3.72,0,0,1-3.73-3.72Z" class="colorffffff svgShape"/><path fill="#3b4d3b" d="M74.6,257.52H34.18a5.29,5.29,0,0,1-5.3-5.3v-70.6a5.3,5.3,0,0,1,5.3-5.3H74.6a5.29,5.29,0,0,1,5.3,5.3v70.6a5.3,5.3,0,0,1-5.3,5.3Z" class="color4d3b4c svgShape"/><path fill="#6c6" d="M76.14,257.52H35.72a5.3,5.3,0,0,1-5.3-5.3v-70.6a5.31,5.31,0,0,1,5.3-5.3H76.14a5.31,5.31,0,0,1,5.3,5.3v70.6a5.28,5.28,0,0,1-5.3,5.3Z" class="color664e65 svgShape"/><rect width="4.68" height="81.2" x="66.16" y="176.17" fill="#43e243" class="colore2435f svgShape"/><circle cx="33.71" cy="185.27" r="1.61" fill="#3b4d3b" class="color4d3b4c svgShape"/><rect width="15.14" height="1.51" x="18.99" y="184.44" fill="#a6bda6" class="colorbda6bc svgShape" rx=".7"/><circle cx="33.71" cy="197.23" r="1.61" fill="#3b4d3b" class="color4d3b4c svgShape"/><rect width="15.14" height="1.51" x="18.99" y="196.4" fill="#a6bda6" class="colorbda6bc svgShape" rx=".7"/><circle cx="33.71" cy="209.19" r="1.61" fill="#3b4d3b" class="color4d3b4c svgShape"/><rect width="15.14" height="1.51" x="18.99" y="208.36" fill="#a6bda6" class="colorbda6bc svgShape" rx=".7"/><circle cx="33.71" cy="221.15" r="1.61" fill="#3b4d3b" class="color4d3b4c svgShape"/><rect width="15.14" height="1.51" x="18.99" y="220.32" fill="#a6bda6" class="colorbda6bc svgShape" rx=".7"/><circle cx="33.71" cy="233.1" r="1.61" fill="#3b4d3b" class="color4d3b4c svgShape"/><rect width="15.14" height="1.51" x="18.99" y="232.27" fill="#a6bda6" class="colorbda6bc svgShape" rx=".7"/><path fill="#3b4d3b" d="M35.32,245.06a1.61,1.61,0,1,1-1.61-1.61A1.61,1.61,0,0,1,35.32,245.06Z" class="color4d3b4c svgShape"/><rect width="15.14" height="1.51" x="18.99" y="244.23" fill="#a6bda6" class="colorbda6bc svgShape" rx=".7"/><path fill="#0099cb" d="M140.21,15.23a4.49,4.49,0,1,1-4.49-4.48A4.49,4.49,0,0,1,140.21,15.23Z" class="color4ec2cf svgShape"/><path fill="#a5f0a5" d="M165.2,19.07H151a3.84,3.84,0,0,1-3.84-3.84h0a3.84,3.84,0,0,1,2.24-3.49,3.89,3.89,0,0,1,1.6-.34H165.2A3.84,3.84,0,0,1,169,15.23h0a3.84,3.84,0,0,1-3.84,3.84Z" class="colorf0c5a5 svgShape"/><path fill="#0099cb" d="M140.21,33.8a4.49,4.49,0,1,1-4.49-4.49A4.49,4.49,0,0,1,140.21,33.8Z" class="color4ec2cf svgShape"/><path fill="#a5f0a5" d="M183.92,37.64H151a3.85,3.85,0,0,1-3.84-3.84h0a3.83,3.83,0,0,1,2.24-3.49A3.9,3.9,0,0,1,151,30h32.9a3.86,3.86,0,0,1,3.84,3.84h0a3.85,3.85,0,0,1-3.84,3.84Z" class="colorf0c5a5 svgShape"/><path fill="#233b23" d="M109.5,101.11a.33.33,0,0,1-.32-.31.32.32,0,0,1,.32-.32h8.12a.32.32,0,0,1,0,.63Z" class="color3b232f svgShape"/><rect width="66.17" height="46.44" x="77.02" y="211.16" fill="#0099cb" class="color4ec2cf svgShape"/><polygon fill="#fff" points="100.33 230.44 85.86 248.28 114.93 248.28 100.33 230.44" class="colorffffff svgShape"/><polygon fill="#fff" points="118.89 223.04 104.43 248.28 133.49 248.28 118.89 223.04" class="colorffffff svgShape"/><path fill="#fff" d="M110.37,221.33a3.07,3.07,0,1,1-3.07-3.07A3.08,3.08,0,0,1,110.37,221.33Z" class="colorffffff svgShape"/><polygon fill="#fff" points="136.48 237.89 136.48 230.87 139.74 234.34 136.48 237.89" class="colorffffff svgShape"/><polygon fill="#fff" points="83.33 237.89 83.33 230.87 80.08 234.34 83.33 237.89" class="colorffffff svgShape"/><path fill="#233b23" d="M133.49,248.6H104.43a.32.32,0,0,1-.27-.16.29.29,0,0,1,0-.31l2.54-4.45a.31.31,0,0,1,.43-.11.3.3,0,0,1,.12.43L105,248h28l-14-24.3L109.56,240l-.55.89a.37.37,0,0,1-.25.15.32.32,0,0,1-.26-.12l-8.42-10.24a.32.32,0,0,1,0-.45.31.31,0,0,1,.44.05l8.14,9.9.31-.5,9.6-16.76a.33.33,0,0,1,.27-.15h0a.33.33,0,0,1,.28.15l14.6,25.25a.34.34,0,0,1,0,.31A.32.32,0,0,1,133.49,248.6Z" class="color3b232f svgShape"/><path fill="#233b23" d="M136.48,238.2a.2.2,0,0,1-.11,0,.31.31,0,0,1-.2-.29v-7a.31.31,0,0,1,.2-.29.29.29,0,0,1,.34.08l3.26,3.46a.32.32,0,0,1,0,.43l-3.26,3.55A.29.29,0,0,1,136.48,238.2Zm.32-6.53v5.41l2.51-2.74Z" class="color3b232f svgShape"/><path fill="#233b23" d="M83.33,238.2a.32.32,0,0,1-.32-.31v-7a.32.32,0,0,1,.32-.31.31.31,0,0,1,.31.31v7A.31.31,0,0,1,83.33,238.2Z" class="color3b232f svgShape"/><path fill="#233b23" d="M204.41,42.77a.32.32,0,0,1-.26-.15L192.08,24h-50.7a.32.32,0,0,1,0-.63h50.87a.32.32,0,0,1,.27.14l12.16,18.74a.32.32,0,0,1-.09.43A.32.32,0,0,1,204.41,42.77Z" class="color3b232f svgShape"/><path fill="#233b23" d="M135.39,24H124.87a.32.32,0,1,1,0-.63h10.52a.32.32,0,0,1,0,.63Z" class="color3b232f svgShape"/><path fill="#233b23" d="M349.62,181.07h0a.31.31,0,0,1-.31-.32l0-36.77a.32.32,0,0,1,.32-.32h2.06v-3.77H334.61a.31.31,0,0,1-.31-.31.32.32,0,0,1,.31-.32H352a.32.32,0,0,1,.32.32V144a.31.31,0,0,1-.32.31H350l0,36.46A.32.32,0,0,1,349.62,181.07Z" class="color3b232f svgShape"/><path fill="#233b23" d="M349.62,198.24a.31.31,0,0,1-.31-.31v-8.38a.32.32,0,1,1,.63,0v8.38A.31.31,0,0,1,349.62,198.24Z" class="color3b232f svgShape"/><path fill="#233b23" d="M343.81,144.2h-6a.32.32,0,1,1,0-.63h6a.32.32,0,0,1,0,.63Z" class="color3b232f svgShape"/></svg>