<svg width="2400" height="1653" viewBox="0 0 2400 1653" fill="none" xmlns="http://www.w3.org/2000/svg">
<g clip-path="url(#clip0_276_4)">
<path opacity="0.05" d="M-4.17627 153.349C81.2404 176.474 237.074 282.891 405.824 264.349C574.574 245.807 639.157 83.7239 805.824 64.3489C972.49 44.9739 1039.16 169.891 1205.82 171.349C1372.49 172.807 1439.16 64.4739 1605.82 71.3489C1772.49 78.2239 1839.16 205.182 2005.82 204.349C2172.49 203.516 2270.41 -3.27608 2405.82 67.3489C2541.24 137.974 3259.99 340.016 2655.82 543.349C2051.66 746.682 162.074 939.182 -494.176 1043.35" fill="url(#paint0_linear_276_4)"/>
<path opacity="0.05" d="M-4.17627 243.349C81.2404 266.474 237.074 372.891 405.824 354.349C574.574 335.807 639.157 173.724 805.824 154.349C972.49 134.974 1039.16 259.891 1205.82 261.349C1372.49 262.807 1439.16 154.474 1605.82 161.349C1772.49 168.224 1839.16 295.182 2005.82 294.349C2172.49 293.516 2270.41 86.7239 2405.82 157.349C2541.24 227.974 3259.99 430.016 2655.82 633.349C2051.66 836.682 162.074 1029.18 -494.176 1133.35" fill="url(#paint1_linear_276_4)"/>
<path opacity="0.05" d="M-4.17627 343.349C81.2404 366.474 237.074 472.891 405.824 454.349C574.574 435.807 639.157 273.724 805.824 254.349C972.49 234.974 1039.16 359.891 1205.82 361.349C1372.49 362.807 1439.16 254.474 1605.82 261.349C1772.49 268.224 1839.16 395.182 2005.82 394.349C2172.49 393.516 2270.41 186.724 2405.82 257.349C2541.24 327.974 3259.99 530.016 2655.82 733.349C2051.66 936.682 162.074 1129.18 -494.176 1233.35" fill="url(#paint2_linear_276_4)"/>
<path opacity="0.13" d="M-4.17627 409.349C81.2404 432.474 237.074 538.891 405.824 520.349C574.574 501.807 639.157 339.724 805.824 320.349C972.49 300.974 1039.16 425.891 1205.82 427.349C1372.49 428.807 1439.16 320.474 1605.82 327.349C1772.49 334.224 1839.16 461.182 2005.82 460.349C2172.49 459.516 2270.41 252.724 2405.82 323.349C2541.24 393.974 3259.99 596.016 2655.82 799.349C2051.66 1002.68 162.074 1195.18 -494.176 1299.35" fill="url(#paint3_linear_276_4)"/>
<path opacity="0.21" d="M-4.17627 515.349C81.2404 538.474 237.074 644.891 405.824 626.349C574.574 607.807 639.157 445.724 805.824 426.349C972.49 406.974 1039.16 531.891 1205.82 533.349C1372.49 534.807 1439.16 426.474 1605.82 433.349C1772.49 440.224 1839.16 567.182 2005.82 566.349C2172.49 565.516 2270.41 358.724 2405.82 429.349C2541.24 499.974 3259.99 702.016 2655.82 905.349C2051.66 1108.68 162.074 1301.18 -494.176 1405.35" fill="url(#paint4_linear_276_4)"/>
<path opacity="0.29" d="M-4.17627 621.349C81.2404 644.474 237.074 750.891 405.824 732.349C574.574 713.807 639.157 551.724 805.824 532.349C972.49 512.974 1039.16 637.891 1205.82 639.349C1372.49 640.807 1439.16 532.474 1605.82 539.349C1772.49 546.224 1839.16 673.182 2005.82 672.349C2172.49 671.516 2270.41 464.724 2405.82 535.349C2541.24 605.974 3259.99 808.016 2655.82 1011.35C2051.66 1214.68 162.074 1407.18 -494.176 1511.35" fill="url(#paint5_linear_276_4)"/>
<path opacity="0.37" d="M-4.17627 687.349C81.2404 710.474 237.074 816.891 405.824 798.349C574.574 779.807 639.157 617.724 805.824 598.349C972.49 578.974 1039.16 703.891 1205.82 705.349C1372.49 706.807 1439.16 598.474 1605.82 605.349C1772.49 612.224 1839.16 739.182 2005.82 738.349C2172.49 737.516 2270.41 530.724 2405.82 601.349C2541.24 671.974 3259.99 874.016 2655.82 1077.35C2051.66 1280.68 162.074 1473.18 -494.176 1577.35" fill="url(#paint6_linear_276_4)"/>
<path opacity="0.45" d="M-4.17627 763.349C81.2404 786.474 237.074 892.891 405.824 874.349C574.574 855.807 639.157 693.724 805.824 674.349C972.49 654.974 1039.16 779.891 1205.82 781.349C1372.49 782.807 1439.16 674.474 1605.82 681.349C1772.49 688.224 1839.16 815.182 2005.82 814.349C2172.49 813.516 2270.41 606.724 2405.82 677.349C2541.24 747.974 3259.99 950.016 2655.82 1153.35C2051.66 1356.68 162.074 1549.18 -494.176 1653.35" fill="url(#paint7_linear_276_4)"/>
<path opacity="0.53" d="M-4.17627 979.349C81.2404 1002.47 237.074 1108.89 405.824 1090.35C574.574 1071.81 639.157 909.724 805.824 890.349C972.49 870.974 1039.16 995.891 1205.82 997.349C1372.49 998.807 1439.16 890.474 1605.82 897.349C1772.49 904.224 1839.16 1031.18 2005.82 1030.35C2172.49 1029.52 2270.41 822.724 2405.82 893.349C2541.24 963.974 3259.99 1166.02 2655.82 1369.35C2051.66 1572.68 162.074 1765.18 -494.176 1869.35" fill="url(#paint8_linear_276_4)"/>
<path opacity="0.6" d="M-4.17627 825.349C81.2404 848.474 237.074 954.891 405.824 936.349C574.574 917.807 639.157 755.724 805.824 736.349C972.49 716.974 1039.16 841.891 1205.82 843.349C1372.49 844.807 1439.16 736.474 1605.82 743.349C1772.49 750.224 1839.16 877.182 2005.82 876.349C2172.49 875.516 2270.41 668.724 2405.82 739.349C2541.24 809.974 3259.99 1012.02 2655.82 1215.35C2051.66 1418.68 162.074 1611.18 -494.176 1715.35" fill="url(#paint9_linear_276_4)"/>
<path opacity="0.68" d="M-4.17627 951.349C81.2404 974.474 237.074 1080.89 405.824 1062.35C574.574 1043.81 639.157 881.724 805.824 862.349C972.49 842.974 1039.16 967.891 1205.82 969.349C1372.49 970.807 1439.16 862.474 1605.82 869.349C1772.49 876.224 1839.16 1003.18 2005.82 1002.35C2172.49 1001.52 2270.41 794.724 2405.82 865.349C2541.24 935.974 3259.99 1138.02 2655.82 1341.35C2051.66 1544.68 162.074 1737.18 -494.176 1841.35" fill="url(#paint10_linear_276_4)"/>
<path opacity="0.76" d="M-4.17627 1037.35C81.2404 1060.47 237.074 1166.89 405.824 1148.35C574.574 1129.81 639.157 967.724 805.824 948.349C972.49 928.974 1039.16 1053.89 1205.82 1055.35C1372.49 1056.81 1439.16 948.474 1605.82 955.349C1772.49 962.224 1839.16 1089.18 2005.82 1088.35C2172.49 1087.52 2270.41 880.724 2405.82 951.349C2541.24 1021.97 3259.99 1224.02 2655.82 1427.35C2051.66 1630.68 162.074 1823.18 -494.176 1927.35" fill="url(#paint11_linear_276_4)"/>
<path opacity="0.84" d="M-4.17627 1103.35C81.2404 1126.47 237.074 1232.89 405.824 1214.35C574.574 1195.81 639.157 1033.72 805.824 1014.35C972.49 994.974 1039.16 1119.89 1205.82 1121.35C1372.49 1122.81 1439.16 1014.47 1605.82 1021.35C1772.49 1028.22 1839.16 1155.18 2005.82 1154.35C2172.49 1153.52 2270.41 946.724 2405.82 1017.35C2541.24 1087.97 3259.99 1290.02 2655.82 1493.35C2051.66 1696.68 162.074 1889.18 -494.176 1993.35" fill="url(#paint12_linear_276_4)"/>
<path opacity="0.92" d="M-4.17627 1039.35C81.2404 1062.47 237.074 1168.89 405.824 1150.35C574.574 1131.81 639.157 969.724 805.824 950.349C972.49 930.974 1039.16 1055.89 1205.82 1057.35C1372.49 1058.81 1439.16 950.474 1605.82 957.349C1772.49 964.224 1839.16 1091.18 2005.82 1090.35C2172.49 1089.52 2270.41 882.724 2405.82 953.349C2541.24 1023.97 3259.99 1226.02 2655.82 1429.35C2051.66 1632.68 162.074 1825.18 -494.176 1929.35" fill="url(#paint13_linear_276_4)"/>
<path d="M-4.17627 1118.35C81.2404 1141.47 237.074 1247.89 405.824 1229.35C574.574 1210.81 639.157 1048.72 805.824 1029.35C972.49 1009.97 1039.16 1134.89 1205.82 1136.35C1372.49 1137.81 1439.16 1029.47 1605.82 1036.35C1772.49 1043.22 1839.16 1170.18 2005.82 1169.35C2172.49 1168.52 2270.41 961.724 2405.82 1032.35C2541.24 1102.97 3259.99 1305.02 2655.82 1508.35C2051.66 1711.68 162.074 1904.18 -494.176 2008.35" fill="url(#paint14_linear_276_4)"/>
</g>
<defs>
<linearGradient id="paint0_linear_276_4" x1="168923" y1="52.6511" x2="168923" y2="99122.4" gradientUnits="userSpaceOnUse">
<stop stop-color="#00C8FF"/>
<stop offset="1" stop-color="#09F58F"/>
</linearGradient>
<linearGradient id="paint1_linear_276_4" x1="168923" y1="142.651" x2="168923" y2="99212.4" gradientUnits="userSpaceOnUse">
<stop stop-color="#09F58F"/>
<stop offset="1" stop-color="#00C8FF"/>
</linearGradient>
<linearGradient id="paint2_linear_276_4" x1="168923" y1="242.651" x2="168923" y2="99312.4" gradientUnits="userSpaceOnUse">
<stop stop-color="#09F58F"/>
<stop offset="1" stop-color="#00C8FF"/>
</linearGradient>
<linearGradient id="paint3_linear_276_4" x1="168923" y1="308.651" x2="168923" y2="99378.4" gradientUnits="userSpaceOnUse">
<stop stop-color="#09F58F"/>
<stop offset="1" stop-color="#00C8FF"/>
</linearGradient>
<linearGradient id="paint4_linear_276_4" x1="168923" y1="414.651" x2="168923" y2="99484.4" gradientUnits="userSpaceOnUse">
<stop stop-color="#09F58F"/>
<stop offset="1" stop-color="#00C8FF"/>
</linearGradient>
<linearGradient id="paint5_linear_276_4" x1="168923" y1="520.651" x2="168923" y2="99590.4" gradientUnits="userSpaceOnUse">
<stop stop-color="#09F58F"/>
<stop offset="1" stop-color="#00C8FF"/>
</linearGradient>
<linearGradient id="paint6_linear_276_4" x1="168923" y1="586.651" x2="168923" y2="99656.4" gradientUnits="userSpaceOnUse">
<stop stop-color="#00C8FF"/>
<stop offset="1" stop-color="#09F58F"/>
</linearGradient>
<linearGradient id="paint7_linear_276_4" x1="168923" y1="662.651" x2="168923" y2="99732.4" gradientUnits="userSpaceOnUse">
<stop stop-color="#09F58F"/>
<stop offset="1" stop-color="#00C8FF"/>
</linearGradient>
<linearGradient id="paint8_linear_276_4" x1="168923" y1="878.651" x2="168923" y2="99948.4" gradientUnits="userSpaceOnUse">
<stop stop-color="#09F58F"/>
<stop offset="1" stop-color="#00C8FF"/>
</linearGradient>
<linearGradient id="paint9_linear_276_4" x1="168923" y1="724.651" x2="168923" y2="99794.4" gradientUnits="userSpaceOnUse">
<stop stop-color="#00D1FF" stop-opacity="0.8"/>
<stop offset="0.11" stop-color="#00FF66" stop-opacity="0.38"/>
</linearGradient>
<linearGradient id="paint10_linear_276_4" x1="168923" y1="850.651" x2="168923" y2="99920.4" gradientUnits="userSpaceOnUse">
<stop stop-color="#09F58F"/>
<stop offset="1" stop-color="#00C8FF"/>
</linearGradient>
<linearGradient id="paint11_linear_276_4" x1="168923" y1="936.651" x2="168923" y2="100006" gradientUnits="userSpaceOnUse">
<stop stop-color="#09F58F"/>
<stop offset="1" stop-color="#00C8FF"/>
</linearGradient>
<linearGradient id="paint12_linear_276_4" x1="168923" y1="1002.65" x2="168923" y2="100072" gradientUnits="userSpaceOnUse">
<stop stop-color="#09F58F"/>
<stop offset="1" stop-color="#00C8FF"/>
</linearGradient>
<linearGradient id="paint13_linear_276_4" x1="168923" y1="938.651" x2="168923" y2="100008" gradientUnits="userSpaceOnUse">
<stop stop-color="#09F58F"/>
<stop offset="1" stop-color="#00C8FF"/>
</linearGradient>
<linearGradient id="paint14_linear_276_4" x1="1200" y1="1018" x2="1200" y2="1569.5" gradientUnits="userSpaceOnUse">
<stop stop-color="#0AF590"/>
<stop offset="1" stop-color="#EEF0F4"/>
</linearGradient>
<clipPath id="clip0_276_4">
<rect width="2400" height="1653" fill="white"/>
</clipPath>
</defs>
</svg>
