<svg xmlns="http://www.w3.org/2000/svg" version="1.1" xmlns:xlink="http://www.w3.org/1999/xlink" xmlns:svgjs="http://svgjs.dev/svgjs" viewBox="0 0 2400 800" opacity="0.75"><defs><linearGradient x1="50%" y1="0%" x2="50%" y2="100%" id="sssurf-grad"><stop stop-color="hsla(154, 80%, 60%, 1.00)" stop-opacity="1" offset="0%"></stop><stop stop-color="hsla(193, 80%, 60%, 1.00)" stop-opacity="1" offset="100%"></stop></linearGradient></defs><g fill="url(#sssurf-grad)" transform="matrix(1,0,0,1,5.82373046875,3.3489227294921875)"><path d="M-10,10C75.41666666666666,33.125,231.25,139.54166666666666,400,121C568.75,102.45833333333333,633.3333333333333,-59.625,800,-79C966.6666666666667,-98.375,1033.3333333333333,26.541666666666668,1200,28C1366.6666666666667,29.458333333333332,1433.3333333333333,-78.875,1600,-72C1766.6666666666667,-65.125,1833.3333333333333,61.833333333333336,2000,61C2166.6666666666665,60.166666666666664,2264.5833333333335,-146.625,2400,-76C2535.4166666666665,-5.375,3254.1666666666665,196.66666666666669,2650,400C2045.8333333333335,603.3333333333333,156.25,795.8333333333334,-500,900" transform="matrix(1,0,0,1,0,56)" opacity="0.05"></path><path d="M-10,10C75.41666666666666,33.125,231.25,139.54166666666666,400,121C568.75,102.45833333333333,633.3333333333333,-59.625,800,-79C966.6666666666667,-98.375,1033.3333333333333,26.541666666666668,1200,28C1366.6666666666667,29.458333333333332,1433.3333333333333,-78.875,1600,-72C1766.6666666666667,-65.125,1833.3333333333333,61.833333333333336,2000,61C2166.6666666666665,60.166666666666664,2264.5833333333335,-146.625,2400,-76C2535.4166666666665,-5.375,3254.1666666666665,196.66666666666669,2650,400C2045.8333333333335,603.3333333333333,156.25,795.8333333333334,-500,900" transform="matrix(1,0,0,1,0,112)" opacity="0.13"></path><path d="M-10,10C75.41666666666666,33.125,231.25,139.54166666666666,400,121C568.75,102.45833333333333,633.3333333333333,-59.625,800,-79C966.6666666666667,-98.375,1033.3333333333333,26.541666666666668,1200,28C1366.6666666666667,29.458333333333332,1433.3333333333333,-78.875,1600,-72C1766.6666666666667,-65.125,1833.3333333333333,61.833333333333336,2000,61C2166.6666666666665,60.166666666666664,2264.5833333333335,-146.625,2400,-76C2535.4166666666665,-5.375,3254.1666666666665,196.66666666666669,2650,400C2045.8333333333335,603.3333333333333,156.25,795.8333333333334,-500,900" transform="matrix(1,0,0,1,0,168)" opacity="0.21"></path><path d="M-10,10C75.41666666666666,33.125,231.25,139.54166666666666,400,121C568.75,102.45833333333333,633.3333333333333,-59.625,800,-79C966.6666666666667,-98.375,1033.3333333333333,26.541666666666668,1200,28C1366.6666666666667,29.458333333333332,1433.3333333333333,-78.875,1600,-72C1766.6666666666667,-65.125,1833.3333333333333,61.833333333333336,2000,61C2166.6666666666665,60.166666666666664,2264.5833333333335,-146.625,2400,-76C2535.4166666666665,-5.375,3254.1666666666665,196.66666666666669,2650,400C2045.8333333333335,603.3333333333333,156.25,795.8333333333334,-500,900" transform="matrix(1,0,0,1,0,224)" opacity="0.29"></path><path d="M-10,10C75.41666666666666,33.125,231.25,139.54166666666666,400,121C568.75,102.45833333333333,633.3333333333333,-59.625,800,-79C966.6666666666667,-98.375,1033.3333333333333,26.541666666666668,1200,28C1366.6666666666667,29.458333333333332,1433.3333333333333,-78.875,1600,-72C1766.6666666666667,-65.125,1833.3333333333333,61.833333333333336,2000,61C2166.6666666666665,60.166666666666664,2264.5833333333335,-146.625,2400,-76C2535.4166666666665,-5.375,3254.1666666666665,196.66666666666669,2650,400C2045.8333333333335,603.3333333333333,156.25,795.8333333333334,-500,900" transform="matrix(1,0,0,1,0,280)" opacity="0.37"></path><path d="M-10,10C75.41666666666666,33.125,231.25,139.54166666666666,400,121C568.75,102.45833333333333,633.3333333333333,-59.625,800,-79C966.6666666666667,-98.375,1033.3333333333333,26.541666666666668,1200,28C1366.6666666666667,29.458333333333332,1433.3333333333333,-78.875,1600,-72C1766.6666666666667,-65.125,1833.3333333333333,61.833333333333336,2000,61C2166.6666666666665,60.166666666666664,2264.5833333333335,-146.625,2400,-76C2535.4166666666665,-5.375,3254.1666666666665,196.66666666666669,2650,400C2045.8333333333335,603.3333333333333,156.25,795.8333333333334,-500,900" transform="matrix(1,0,0,1,0,336)" opacity="0.45"></path><path d="M-10,10C75.41666666666666,33.125,231.25,139.54166666666666,400,121C568.75,102.45833333333333,633.3333333333333,-59.625,800,-79C966.6666666666667,-98.375,1033.3333333333333,26.541666666666668,1200,28C1366.6666666666667,29.458333333333332,1433.3333333333333,-78.875,1600,-72C1766.6666666666667,-65.125,1833.3333333333333,61.833333333333336,2000,61C2166.6666666666665,60.166666666666664,2264.5833333333335,-146.625,2400,-76C2535.4166666666665,-5.375,3254.1666666666665,196.66666666666669,2650,400C2045.8333333333335,603.3333333333333,156.25,795.8333333333334,-500,900" transform="matrix(1,0,0,1,0,392)" opacity="0.53"></path><path d="M-10,10C75.41666666666666,33.125,231.25,139.54166666666666,400,121C568.75,102.45833333333333,633.3333333333333,-59.625,800,-79C966.6666666666667,-98.375,1033.3333333333333,26.541666666666668,1200,28C1366.6666666666667,29.458333333333332,1433.3333333333333,-78.875,1600,-72C1766.6666666666667,-65.125,1833.3333333333333,61.833333333333336,2000,61C2166.6666666666665,60.166666666666664,2264.5833333333335,-146.625,2400,-76C2535.4166666666665,-5.375,3254.1666666666665,196.66666666666669,2650,400C2045.8333333333335,603.3333333333333,156.25,795.8333333333334,-500,900" transform="matrix(1,0,0,1,0,448)" opacity="0.60"></path><path d="M-10,10C75.41666666666666,33.125,231.25,139.54166666666666,400,121C568.75,102.45833333333333,633.3333333333333,-59.625,800,-79C966.6666666666667,-98.375,1033.3333333333333,26.541666666666668,1200,28C1366.6666666666667,29.458333333333332,1433.3333333333333,-78.875,1600,-72C1766.6666666666667,-65.125,1833.3333333333333,61.833333333333336,2000,61C2166.6666666666665,60.166666666666664,2264.5833333333335,-146.625,2400,-76C2535.4166666666665,-5.375,3254.1666666666665,196.66666666666669,2650,400C2045.8333333333335,603.3333333333333,156.25,795.8333333333334,-500,900" transform="matrix(1,0,0,1,0,504)" opacity="0.68"></path><path d="M-10,10C75.41666666666666,33.125,231.25,139.54166666666666,400,121C568.75,102.45833333333333,633.3333333333333,-59.625,800,-79C966.6666666666667,-98.375,1033.3333333333333,26.541666666666668,1200,28C1366.6666666666667,29.458333333333332,1433.3333333333333,-78.875,1600,-72C1766.6666666666667,-65.125,1833.3333333333333,61.833333333333336,2000,61C2166.6666666666665,60.166666666666664,2264.5833333333335,-146.625,2400,-76C2535.4166666666665,-5.375,3254.1666666666665,196.66666666666669,2650,400C2045.8333333333335,603.3333333333333,156.25,795.8333333333334,-500,900" transform="matrix(1,0,0,1,0,560)" opacity="0.76"></path><path d="M-10,10C75.41666666666666,33.125,231.25,139.54166666666666,400,121C568.75,102.45833333333333,633.3333333333333,-59.625,800,-79C966.6666666666667,-98.375,1033.3333333333333,26.541666666666668,1200,28C1366.6666666666667,29.458333333333332,1433.3333333333333,-78.875,1600,-72C1766.6666666666667,-65.125,1833.3333333333333,61.833333333333336,2000,61C2166.6666666666665,60.166666666666664,2264.5833333333335,-146.625,2400,-76C2535.4166666666665,-5.375,3254.1666666666665,196.66666666666669,2650,400C2045.8333333333335,603.3333333333333,156.25,795.8333333333334,-500,900" transform="matrix(1,0,0,1,0,616)" opacity="0.84"></path><path d="M-10,10C75.41666666666666,33.125,231.25,139.54166666666666,400,121C568.75,102.45833333333333,633.3333333333333,-59.625,800,-79C966.6666666666667,-98.375,1033.3333333333333,26.541666666666668,1200,28C1366.6666666666667,29.458333333333332,1433.3333333333333,-78.875,1600,-72C1766.6666666666667,-65.125,1833.3333333333333,61.833333333333336,2000,61C2166.6666666666665,60.166666666666664,2264.5833333333335,-146.625,2400,-76C2535.4166666666665,-5.375,3254.1666666666665,196.66666666666669,2650,400C2045.8333333333335,603.3333333333333,156.25,795.8333333333334,-500,900" transform="matrix(1,0,0,1,0,672)" opacity="0.92"></path><path d="M-10,10C75.41666666666666,33.125,231.25,139.54166666666666,400,121C568.75,102.45833333333333,633.3333333333333,-59.625,800,-79C966.6666666666667,-98.375,1033.3333333333333,26.541666666666668,1200,28C1366.6666666666667,29.458333333333332,1433.3333333333333,-78.875,1600,-72C1766.6666666666667,-65.125,1833.3333333333333,61.833333333333336,2000,61C2166.6666666666665,60.166666666666664,2264.5833333333335,-146.625,2400,-76C2535.4166666666665,-5.375,3254.1666666666665,196.66666666666669,2650,400C2045.8333333333335,603.3333333333333,156.25,795.8333333333334,-500,900" transform="matrix(1,0,0,1,0,728)" opacity="1.00"></path></g></svg>