<svg width="500" height="480" fill="none" xmlns="http://www.w3.org/2000/svg"><rect width="500" height="480" rx="2" fill="#1D2430"/><rect x="35" y="117" width="225" height="156" rx="2" fill="#fff" fill-opacity=".14"/><path opacity=".1" stroke="#fff" d="M35 80.5L465 80.5"/><rect x="290" y="117" width="175" height="156" rx="2" fill="#fff" fill-opacity=".07"/><rect x="35" y="303" width="430" height="142" rx="2" fill="#fff" fill-opacity=".14"/><rect x="194" y="353" width="229" height="8" rx="2" fill="url(#paint0_linear_62_128)" fill-opacity=".18"/><rect x="194" y="370" width="152" height="8" rx="2" fill="url(#paint1_linear_62_128)" fill-opacity=".18"/><rect x="194" y="387" width="187" height="8" rx="2" fill="url(#paint2_linear_62_128)" fill-opacity=".18"/><rect x="59" y="324" width="100" height="100" rx="2" fill="#fff" fill-opacity=".22"/><rect opacity=".1" x="138" y="35" width="327" height="18" rx="2" fill="#fff"/><circle opacity=".3" cx="39.239" cy="44.239" r="4.239" fill="#fff"/><circle opacity=".3" cx="54.5" cy="44.239" r="4.239" fill="#fff"/><circle opacity=".3" cx="69.761" cy="44.239" r="4.239" fill="#fff"/><circle opacity=".8" cx="377.5" cy="194.5" r="37.5" fill="#4A6CF7"/><mask id="a" style="mask-type:alpha" maskUnits="userSpaceOnUse" x="340" y="157" width="75" height="75"><circle opacity=".8" cx="377.5" cy="194.5" r="37.5" fill="#4A6CF7"/></mask><g mask="url(#a)"><circle opacity=".8" cx="377.5" cy="194.5" r="37.5" fill="url(#paint3_radial_62_128)"/><circle cx="380.809" cy="176.853" r="15.441" fill="#fff" opacity=".8" filter="url(#filter0_f_62_128)"/></g><path d="M342.034 231.847c-17.07 30.902-64.095 81.339-115.64 35.871" stroke="url(#paint4_linear_62_128)" stroke-linecap="round" stroke-linejoin="round" stroke-dasharray="2 2"/><path d="M339.077 230.867l4.896-1.896.589 4.685" stroke="url(#paint5_linear_62_128)" stroke-linecap="round" stroke-linejoin="round" stroke-dasharray="2 2"/><defs><filter id="filter0_f_62_128" x="344.368" y="140.412" width="72.882" height="72.882" filterUnits="userSpaceOnUse" color-interpolation-filters="sRGB"><feFlood flood-opacity="0" result="BackgroundImageFix"/><feBlend in="SourceGraphic" in2="BackgroundImageFix" result="shape"/><feGaussianBlur stdDeviation="10.5" result="effect1_foregroundBlur_62_128"/></filter><linearGradient id="paint0_linear_62_128" x1="308.5" y1="353" x2="308.5" y2="361" gradientUnits="userSpaceOnUse"><stop stop-color="#fff"/><stop offset="1" stop-color="#fff" stop-opacity="0"/></linearGradient><linearGradient id="paint1_linear_62_128" x1="270" y1="370" x2="270" y2="378" gradientUnits="userSpaceOnUse"><stop stop-color="#fff"/><stop offset="1" stop-color="#fff" stop-opacity="0"/></linearGradient><linearGradient id="paint2_linear_62_128" x1="287.5" y1="387" x2="287.5" y2="395" gradientUnits="userSpaceOnUse"><stop stop-color="#fff"/><stop offset="1" stop-color="#fff" stop-opacity="0"/></linearGradient><radialGradient id="paint3_radial_62_128" cx="0" cy="0" r="1" gradientUnits="userSpaceOnUse" gradientTransform="rotate(90 91.5 286) scale(40.2574)"><stop stop-opacity=".47"/><stop offset="1" stop-opacity="0"/></radialGradient><linearGradient id="paint4_linear_62_128" x1="358.554" y1="226.723" x2="242.956" y2="282.349" gradientUnits="userSpaceOnUse"><stop stop-color="#fff" stop-opacity=".48"/><stop offset="1" stop-color="#fff" stop-opacity="0"/></linearGradient><linearGradient id="paint5_linear_62_128" x1="343.992" y1="228.548" x2="340.23" y2="234.571" gradientUnits="userSpaceOnUse"><stop stop-color="#fff" stop-opacity=".48"/><stop offset="1" stop-color="#fff" stop-opacity="0"/></linearGradient></defs></svg>