<svg fill="none" height="210" width="474" xmlns="http://www.w3.org/2000/svg" xmlns:xlink="http://www.w3.org/1999/xlink"><filter id="f" color-interpolation-filters="sRGB" filterUnits="userSpaceOnUse" height="116.412" width="116.412" x="175.337" y="-8.941"><feFlood flood-opacity="0" result="BackgroundImageFix"/><feBlend in="SourceGraphic" in2="BackgroundImageFix" result="shape"/><feGaussianBlur result="effect1_foregroundBlur_116:1137" stdDeviation="15"/></filter><linearGradient id="a"><stop offset="0" stop-color="#0099cb" stop-opacity="0"/><stop offset="1" stop-color="#6c6"/></linearGradient><linearGradient id="b" gradientUnits="userSpaceOnUse" x1="25" x2="126.155" xlink:href="#a" y1="183" y2="27.084"/><linearGradient id="c" gradientUnits="userSpaceOnUse" x1="307" x2="408.155" xlink:href="#a" y1="153" y2="-2.916"/><radialGradient id="e" cx="0" cy="0" gradientTransform="rotate(90 73 154.5) scale(73.5368)" gradientUnits="userSpaceOnUse" r="1"><stop offset="0" stop-opacity=".47"/><stop offset="1" stop-opacity="0"/></radialGradient><mask id="d" height="137" maskUnits="userSpaceOnUse" width="137" x="159" y="13"><circle cx="227.5" cy="81.5" fill="#0099cb" opacity=".8" r="68.5"/></mask><path d="M25 163.051h76.211V191h32.097v-27.949H153v-26.94h-19.692V32h-42.02L25 136.577zm76.831-26.94H58.802v-1.242l41.789-66.225h1.24z" opacity=".5" stroke="url(#b)" stroke-width="3"/><path d="M307 133.051h76.211V161h32.097v-27.949H435v-26.94h-19.692V2h-42.021L307 106.577zm76.831-26.94h-43.028v-1.242l41.788-66.225h1.24z" opacity=".5" stroke="url(#c)" stroke-width="3"/><circle cx="227.5" cy="81.5" fill="#6c6" opacity=".8" r="68.5"/><g mask="url(#d)"><circle cx="227.5" cy="81.5" fill="url(#e)" opacity=".8" r="68.5"/><circle cx="233.543" cy="49.264" fill="#fff" r="28.206" filter="url(#f)" opacity=".8"/></g><path d="M0 182h83.5v27h67v-31h19v-29.5s24.5 16.5 60 16.5 64.5-30.5 64.5-30.5V152h67v26h74v-26h39" stroke="#fff" stroke-opacity=".08" stroke-width="2"/></svg>