<svg width="219" height="40" fill="none" xmlns="http://www.w3.org/2000/svg"><path d="M40 0v40H15.433v-8.13h16.976v-7.913H15.433V16.15h16.976V8.345H7.7V40H0V0h40z" fill="#5750F1"/><path d="M73.548 22.375V18.07H63.364v-7.45h12.13V6.2H58.573v27.37h4.792V22.375h10.184zm2.52 1.91c0 5.766 4.156 9.735 9.884 9.735 5.728 0 9.885-3.97 9.885-9.735 0-5.766-4.157-9.735-9.885-9.735s-9.884 3.97-9.884 9.735zm4.567 0c0-3.37 2.172-5.654 5.317-5.654s5.317 2.284 5.317 5.654-2.172 5.654-5.317 5.654-5.317-2.284-5.317-5.654zM110.502 15a8.1 8.1 0 0 0-2.022-.262c-2.471 0-4.23 1.235-5.017 3.07l-.262-2.696h-4.305V33.57h4.567v-8.985c0-3.595 2.06-5.355 5.354-5.355h1.685V15zm7.098 18.57V23.087c0-2.995 1.76-4.418 3.932-4.418 2.171 0 3.556 1.385 3.556 3.969V33.57h4.568V23.087c0-3.033 1.685-4.456 3.894-4.456 2.172 0 3.594 1.386 3.594 4.044V33.57h4.531V21.477c0-4.268-2.471-6.964-6.964-6.964-2.808 0-4.98 1.385-5.916 3.52-.973-2.135-2.92-3.52-5.728-3.52-2.659 0-4.531 1.198-5.467 2.733l-.374-2.171h-4.194V33.57h4.568zm28.671 0h11.083c5.653 0 8.911-2.733 8.911-7.413 0-3.182-1.46-5.354-4.343-6.29 2.583-1.086 3.931-3.257 3.931-6.29 0-4.568-3.295-7.376-8.686-7.376h-10.896v27.37zm10.484-23.138c2.696 0 4.193 1.273 4.193 3.632 0 2.433-1.46 3.819-4.081 3.819h-5.803v-7.451h5.691zm.412 11.494c2.658 0 4.193 1.31 4.193 3.632 0 2.471-1.498 3.782-4.193 3.782h-6.103v-7.414h6.103zm11.171 2.359c0 5.766 4.156 9.735 9.884 9.735 5.729 0 9.885-3.97 9.885-9.735 0-5.766-4.156-9.735-9.885-9.735-5.728 0-9.884 3.97-9.884 9.735zm4.568 0c0-3.37 2.171-5.654 5.316-5.654s5.317 2.284 5.317 5.654-2.172 5.654-5.317 5.654-5.316-2.284-5.316-5.654zm22.865 9.285V5.714h-4.53V33.57h4.53zm11.83.487c2.809 0 5.205-1.235 6.328-3.37l.3 2.883h4.193V5.714h-4.53v11.72c-1.161-1.835-3.445-2.921-6.028-2.921-5.579 0-8.949 4.118-8.949 9.884 0 5.729 3.332 9.66 8.686 9.66zm1.011-4.193c-3.182 0-5.129-2.322-5.129-5.616 0-3.295 1.947-5.654 5.129-5.654 3.183 0 5.242 2.321 5.242 5.654 0 3.332-2.059 5.616-5.242 5.616z" fill="#0E0B3D"/></svg>