<svg width="219" height="40" fill="none" xmlns="http://www.w3.org/2000/svg"><path d="M40.4 0v40H15.833v-8.13h16.976v-7.913H15.833V16.15h16.976V8.345H8.1V40h-7.7V0h40zm33.548 22.376V18.07H63.764v-7.45h12.13V6.2H58.971v27.37h4.793V22.375h10.184zm2.52 1.909c0 5.766 4.155 9.735 9.884 9.735 5.728 0 9.884-3.969 9.884-9.735s-4.156-9.735-9.884-9.735c-5.729 0-9.885 3.97-9.885 9.735zm4.567 0c0-3.37 2.172-5.654 5.317-5.654s5.316 2.284 5.316 5.654-2.171 5.654-5.316 5.654-5.317-2.284-5.317-5.654zM110.902 15a8.104 8.104 0 0 0-2.022-.262c-2.471 0-4.231 1.235-5.017 3.07l-.262-2.696h-4.306V33.57h4.568v-8.985c0-3.595 2.059-5.355 5.354-5.355h1.685V15zM118 33.57V23.087c0-2.995 1.76-4.418 3.931-4.418 2.172 0 3.557 1.385 3.557 3.969V33.57h4.568V23.087c0-3.033 1.685-4.456 3.894-4.456 2.171 0 3.594 1.386 3.594 4.044V33.57h4.53V21.477c0-4.268-2.471-6.964-6.964-6.964-2.808 0-4.979 1.385-5.915 3.52-.974-2.135-2.921-3.52-5.729-3.52-2.658 0-4.53 1.198-5.466 2.733l-.375-2.171h-4.193V33.57H118zm28.671 0h11.082c5.654 0 8.911-2.733 8.911-7.413 0-3.182-1.46-5.354-4.343-6.29 2.584-1.086 3.932-3.257 3.932-6.29 0-4.568-3.295-7.376-8.687-7.376h-10.895v27.37zm10.483-23.138c2.696 0 4.194 1.273 4.194 3.632 0 2.433-1.46 3.819-4.081 3.819h-5.804v-7.451h5.691zm.412 11.494c2.659 0 4.194 1.31 4.194 3.632 0 2.471-1.498 3.782-4.194 3.782h-6.103v-7.414h6.103zm11.171 2.359c0 5.766 4.156 9.735 9.885 9.735 5.728 0 9.884-3.969 9.884-9.735s-4.156-9.735-9.884-9.735c-5.729 0-9.885 3.97-9.885 9.735zm4.568 0c0-3.37 2.172-5.654 5.317-5.654s5.317 2.284 5.317 5.654-2.172 5.654-5.317 5.654-5.317-2.284-5.317-5.654zm22.866 9.285V5.714h-4.531V33.57h4.531zm11.83.487c2.808 0 5.204-1.235 6.328-3.37l.299 2.883h4.194V5.714h-4.531v11.72c-1.16-1.835-3.444-2.921-6.028-2.921-5.579 0-8.948 4.118-8.948 9.884 0 5.729 3.332 9.66 8.686 9.66zm1.011-4.193c-3.182 0-5.129-2.322-5.129-5.616 0-3.295 1.947-5.654 5.129-5.654 3.182 0 5.242 2.321 5.242 5.654 0 3.332-2.06 5.616-5.242 5.616z" fill="#fff"/></svg>