<svg width="193" height="40" fill="none" xmlns="http://www.w3.org/2000/svg"><g clip-path="url(#clip0_2911_90)"><path d="M40.941 20c0-11.046-8.954-20-20-20s-20 8.954-20 20 8.954 20 20 20 20-8.954 20-20z" fill="url(#paint0_linear_2911_90)"/><path d="M40.941 20c0-11.046-8.954-20-20-20s-20 8.954-20 20 8.954 20 20 20 20-8.954 20-20z" fill="url(#paint1_linear_2911_90)" fill-opacity=".56"/><path d="M21.26 7.5c3.167 0 6.156 1.17 8.47 3.303.128.119.13.32.006.443l-4.897 4.897a.328.328 0 0 1-.439.015A4.966 4.966 0 0 0 16.296 20H8.755c0-6.893 5.61-12.5 12.505-12.5zM16.296 20a4.97 4.97 0 0 0 4.464 4.936c.166.017.3.154.3.321v6.926a.307.307 0 0 1-.319.308C14.085 32.218 8.754 26.719 8.754 20h7.543z" fill="#fff"/><path opacity=".56" d="M28.691 20.992h-2.95a.313.313 0 0 0-.312.313v2.947c0 .173.14.312.313.312h2.949c.172 0 .312-.14.312-.312v-2.947a.313.313 0 0 0-.312-.313z" fill="#fff"/><path opacity=".4" d="M32.66 20.992h-2.95a.313.313 0 0 0-.312.313v2.947c0 .173.14.312.312.312h2.95c.172 0 .312-.14.312-.312v-2.947a.313.313 0 0 0-.313-.313z" fill="#fff"/><path opacity=".72" d="M28.691 24.961h-2.95a.313.313 0 0 0-.312.313v2.947c0 .172.14.312.313.312h2.949c.172 0 .312-.14.312-.312v-2.947a.312.312 0 0 0-.312-.313z" fill="#fff"/><path opacity=".88" d="M24.72 24.961h-2.948a.312.312 0 0 0-.313.313v2.947c0 .172.14.312.313.312h2.949c.173 0 .313-.14.313-.312v-2.947a.313.313 0 0 0-.313-.313z" fill="#fff"/><path opacity=".56" d="M32.66 24.961h-2.95a.312.312 0 0 0-.312.313v2.947c0 .172.14.312.312.312h2.95c.172 0 .312-.14.312-.312v-2.947a.313.313 0 0 0-.313-.313z" fill="#fff"/><path opacity=".88" d="M28.691 28.928h-2.95a.312.312 0 0 0-.312.312v2.947c0 .173.14.313.313.313h2.949c.172 0 .312-.14.312-.313V29.24a.312.312 0 0 0-.312-.312z" fill="#fff"/><path opacity=".96" d="M24.72 28.928h-2.948a.312.312 0 0 0-.313.312v2.947c0 .173.14.313.313.313h2.949c.173 0 .313-.14.313-.313V29.24a.312.312 0 0 0-.313-.312z" fill="#fff"/><path opacity=".72" d="M32.66 28.928h-2.95a.312.312 0 0 0-.312.312v2.947c0 .173.14.313.312.313h2.95c.172 0 .312-.14.312-.313V29.24a.312.312 0 0 0-.313-.312z" fill="#fff"/><path d="M64.21 11.25h3.15v18.06a6.65 6.65 0 0 1-.806 3.22 8.324 8.324 0 0 1-2.138 2.608c-.9.746-1.925 1.324-3.075 1.732-1.15.42-2.35.63-3.6.63-1.3 0-2.556-.274-3.769-.822a10.471 10.471 0 0 1-3.187-2.17c-.9-.899-1.55-1.908-1.95-3.028l2.887-1.225a5.275 5.275 0 0 0 1.275 2.17 6.945 6.945 0 0 0 2.175 1.54 6.09 6.09 0 0 0 2.57.577c.824 0 1.618-.134 2.38-.402a7.155 7.155 0 0 0 2.082-1.12 5.134 5.134 0 0 0 1.462-1.662c.363-.63.544-1.313.544-2.048v-3.483a7.555 7.555 0 0 1-2.531 2.45c-1.038.619-2.25.928-3.638.928a9.71 9.71 0 0 1-3.731-.717 9.693 9.693 0 0 1-3.056-1.978 9.547 9.547 0 0 1-2.063-2.94 8.58 8.58 0 0 1-.75-3.57c0-1.272.25-2.462.75-3.57.5-1.12 1.188-2.1 2.063-2.94a9.538 9.538 0 0 1 3.056-1.995 9.71 9.71 0 0 1 3.731-.717c1.388 0 2.6.309 3.638.927a7.34 7.34 0 0 1 2.53 2.45V11.25zm-6.15 15.103c1.212 0 2.262-.292 3.15-.875a5.868 5.868 0 0 0 2.081-2.328 6.907 6.907 0 0 0 .731-3.15c0-1.167-.25-2.228-.75-3.185a5.742 5.742 0 0 0-2.08-2.31c-.888-.583-1.932-.875-3.132-.875-1.175 0-2.25.286-3.225.858a6.46 6.46 0 0 0-2.325 2.31c-.563.956-.844 2.024-.844 3.202s.288 2.252.863 3.22a6.714 6.714 0 0 0 2.325 2.293c.975.56 2.043.84 3.206.84zm12.308 2.397v-17.5h3.15v2.188c.663-.817 1.5-1.465 2.513-1.943 1.012-.49 2.112-.735 3.3-.735.725 0 1.425.088 2.1.263l-1.275 2.94a5.272 5.272 0 0 0-1.5-.228c-.938 0-1.8.216-2.588.648a4.976 4.976 0 0 0-1.856 1.715 4.39 4.39 0 0 0-.694 2.415V28.75h-3.15zm25.99-17.5h3.15v17.5h-3.15l-.131-2.957a6.899 6.899 0 0 1-2.438 2.467c-1.025.63-2.25.945-3.675.945-1.375 0-2.662-.24-3.862-.717-1.2-.49-2.263-1.161-3.188-2.013a9.513 9.513 0 0 1-2.137-2.975 8.601 8.601 0 0 1-.769-3.622c0-1.249.25-2.427.75-3.535a8.995 8.995 0 0 1 2.081-2.905 9.839 9.839 0 0 1 3.113-1.96c1.175-.479 2.437-.718 3.787-.718 1.475 0 2.769.327 3.882.98a8.014 8.014 0 0 1 2.7 2.503l-.113-2.993zm-6.3 15.102c1.237 0 2.306-.28 3.206-.84a5.697 5.697 0 0 0 2.1-2.31c.5-.968.75-2.035.75-3.202 0-1.19-.25-2.263-.75-3.22a5.708 5.708 0 0 0-2.118-2.292c-.9-.572-1.963-.858-3.188-.858-1.238 0-2.363.286-3.375.858a6.628 6.628 0 0 0-2.419 2.31c-.587.956-.881 2.024-.881 3.202s.306 2.252.919 3.22a6.834 6.834 0 0 0 2.437 2.293c1.013.56 2.119.84 3.319.84zm23.955-15.102h3.338L107.095 37.5h-3.338l3.394-8.75-6.731-17.5h3.45l4.856 13.457 5.287-13.457zm19.27 0h3.15v18.06a6.656 6.656 0 0 1-.806 3.22 8.326 8.326 0 0 1-2.138 2.608c-.9.746-1.925 1.324-3.075 1.732-1.15.42-2.35.63-3.6.63-1.3 0-2.556-.274-3.768-.822a10.474 10.474 0 0 1-3.188-2.17c-.9-.899-1.55-1.908-1.95-3.028l2.888-1.225a5.264 5.264 0 0 0 1.275 2.17 6.945 6.945 0 0 0 2.175 1.54 6.085 6.085 0 0 0 2.568.577c.825 0 1.619-.134 2.382-.402a7.162 7.162 0 0 0 2.081-1.12 5.132 5.132 0 0 0 1.462-1.662c.363-.63.544-1.313.544-2.048v-3.483a7.549 7.549 0 0 1-2.531 2.45c-1.038.619-2.25.928-3.638.928a9.71 9.71 0 0 1-3.731-.717 9.697 9.697 0 0 1-3.056-1.978 9.549 9.549 0 0 1-2.063-2.94 8.58 8.58 0 0 1-.75-3.57c0-1.272.25-2.462.75-3.57a9.28 9.28 0 0 1 2.063-2.94 9.543 9.543 0 0 1 3.056-1.995 9.71 9.71 0 0 1 3.731-.717c1.388 0 2.6.309 3.638.927a7.335 7.335 0 0 1 2.531 2.45V11.25zm-6.15 15.103c1.213 0 2.263-.292 3.15-.875a5.863 5.863 0 0 0 2.081-2.328 6.9 6.9 0 0 0 .732-3.15c0-1.167-.25-2.228-.75-3.185a5.747 5.747 0 0 0-2.082-2.31c-.887-.583-1.931-.875-3.131-.875-1.175 0-2.25.286-3.225.858a6.46 6.46 0 0 0-2.325 2.31c-.562.956-.844 2.024-.844 3.202s.288 2.252.863 3.22a6.705 6.705 0 0 0 2.325 2.293c.975.56 2.044.84 3.206.84zm12.308 2.397v-17.5h3.15v2.188c.663-.817 1.5-1.465 2.513-1.943a7.478 7.478 0 0 1 3.3-.735c.725 0 1.425.088 2.1.263l-1.275 2.94a5.266 5.266 0 0 0-1.5-.228c-.938 0-1.8.216-2.588.648a4.977 4.977 0 0 0-1.855 1.715 4.387 4.387 0 0 0-.695 2.415V28.75h-3.15zm11.867-17.5h3.15v17.5h-3.15v-17.5zm1.613-2.853c-.5 0-.919-.151-1.257-.455a1.467 1.467 0 0 1-.506-1.137c0-.455.169-.834.506-1.138.338-.303.75-.455 1.238-.455s.9.152 1.238.455c.337.304.505.683.505 1.138 0 .455-.168.834-.505 1.137-.326.304-.732.455-1.219.455zM172.3 2.5h3.15v26.25h-3.15v-2.975a7.349 7.349 0 0 1-2.569 2.485c-1.076.63-2.338.945-3.788.945-1.362 0-2.638-.24-3.825-.717a10.287 10.287 0 0 1-3.15-1.978 9.503 9.503 0 0 1-2.118-2.94 8.395 8.395 0 0 1-.769-3.57c0-1.272.256-2.462.769-3.57a9.236 9.236 0 0 1 2.118-2.94 10.116 10.116 0 0 1 3.15-1.995c1.187-.478 2.463-.717 3.825-.717 1.45 0 2.712.314 3.788.945a7.349 7.349 0 0 1 2.569 2.485V2.5zm-6.319 23.853c1.237 0 2.306-.28 3.206-.84a5.691 5.691 0 0 0 2.1-2.31c.5-.969.75-2.036.75-3.203 0-1.19-.25-2.263-.75-3.22a5.705 5.705 0 0 0-2.119-2.292c-.9-.572-1.963-.858-3.187-.858-1.238 0-2.363.286-3.376.858-1 .571-1.8 1.341-2.4 2.31-.6.956-.9 2.024-.9 3.202s.307 2.252.919 3.22a6.845 6.845 0 0 0 2.438 2.293c1.012.56 2.119.84 3.319.84zm18.185 2.73c-1.013-.036-2-.21-2.963-.526a8.966 8.966 0 0 1-2.512-1.312c-.712-.56-1.231-1.202-1.557-1.925l2.7-1.085c.188.397.526.77 1.014 1.12.486.35 1.05.63 1.686.84.638.21 1.282.315 1.932.315.687 0 1.332-.1 1.932-.297.6-.199 1.086-.49 1.462-.875.388-.397.581-.87.581-1.418 0-.583-.212-1.038-.638-1.365-.412-.338-.937-.6-1.574-.788a45.36 45.36 0 0 0-1.913-.56c-1.287-.303-2.437-.664-3.45-1.084-1.013-.432-1.813-.975-2.4-1.628-.575-.665-.863-1.51-.863-2.537 0-1.085.319-2.025.957-2.818.65-.793 1.5-1.406 2.55-1.837a8.781 8.781 0 0 1 3.374-.648c1.514 0 2.895.303 4.145.91 1.25.607 2.181 1.43 2.793 2.468l-2.531 1.382c-.212-.42-.538-.787-.975-1.102a5.233 5.233 0 0 0-1.5-.77 5.813 5.813 0 0 0-1.725-.298 6.157 6.157 0 0 0-2.043.263c-.626.198-1.131.501-1.519.91-.376.396-.563.892-.563 1.487 0 .583.2 1.027.6 1.33.413.303.944.548 1.594.735a66.1 66.1 0 0 1 2.156.613c1.137.338 2.2.729 3.187 1.172.988.443 1.781.998 2.381 1.663.614.665.914 1.487.9 2.467 0 1.073-.343 2.013-1.031 2.818-.687.793-1.581 1.4-2.681 1.82-1.088.42-2.256.606-3.506.56z" fill="#1E1983"/></g><defs><linearGradient id="paint0_linear_2911_90" x1="20.941" x2="20.941" y2="40" gradientUnits="userSpaceOnUse"><stop stop-color="#3558EA"/><stop offset="1" stop-color="#00F"/></linearGradient><linearGradient id="paint1_linear_2911_90" x1="26.263" y1="5.81" x2="8.644" y2="58.305" gradientUnits="userSpaceOnUse"><stop offset=".216" stop-color="#1E1983" stop-opacity="0"/><stop offset=".447" stop-color="#1E1983" stop-opacity=".19"/><stop offset=".62" stop-color="#1E1983"/></linearGradient><clipPath id="clip0_2911_90"><path fill="#fff" transform="translate(.941)" d="M0 0H191.111V40H0z"/></clipPath></defs></svg>