<svg width="192" height="40" fill="none" xmlns="http://www.w3.org/2000/svg"><path d="M40 20C40 8.954 31.046 0 20 0S0 8.954 0 20s8.954 20 20 20 20-8.954 20-20z" fill="url(#paint0_linear_3031_61)"/><path d="M40 20C40 8.954 31.046 0 20 0S0 8.954 0 20s8.954 20 20 20 20-8.954 20-20z" fill="url(#paint1_linear_3031_61)" fill-opacity=".1"/><path d="M20.318 7.5c3.167 0 6.157 1.17 8.47 3.303.13.119.13.32.007.443l-4.897 4.897a.328.328 0 0 1-.439.015A4.966 4.966 0 0 0 15.355 20H7.812c0-6.893 5.612-12.5 12.506-12.5zM15.355 20a4.97 4.97 0 0 0 4.464 4.936c.167.017.3.154.3.321v6.926a.307.307 0 0 1-.318.308C13.144 32.218 7.813 26.719 7.813 20h7.542z" fill="#fff"/><path opacity=".56" d="M27.75 20.992H24.8a.313.313 0 0 0-.312.313v2.947c0 .173.14.313.313.313h2.949c.172 0 .312-.14.312-.313v-2.947a.313.313 0 0 0-.312-.313z" fill="#fff"/><path opacity=".4" d="M31.718 20.992H28.77a.313.313 0 0 0-.313.313v2.947c0 .173.14.313.313.313h2.95c.172 0 .312-.14.312-.313v-2.947a.313.313 0 0 0-.313-.313z" fill="#fff"/><path opacity=".72" d="M27.75 24.961H24.8a.313.313 0 0 0-.312.313v2.947c0 .172.14.312.313.312h2.949c.172 0 .312-.14.312-.312v-2.947a.312.312 0 0 0-.312-.313z" fill="#fff"/><path opacity=".88" d="M23.78 24.961h-2.95a.312.312 0 0 0-.312.313v2.947c0 .172.14.312.313.312h2.949c.172 0 .312-.14.312-.312v-2.947a.313.313 0 0 0-.312-.313z" fill="#fff"/><path opacity=".56" d="M31.718 24.961H28.77a.312.312 0 0 0-.313.313v2.947c0 .172.14.312.313.312h2.95c.172 0 .312-.14.312-.312v-2.947a.313.313 0 0 0-.313-.313z" fill="#fff"/><path opacity=".88" d="M27.75 28.928H24.8a.312.312 0 0 0-.312.312v2.947c0 .173.14.313.313.313h2.949c.172 0 .312-.14.312-.313V29.24a.312.312 0 0 0-.312-.312z" fill="#fff"/><path opacity=".96" d="M23.78 28.928h-2.95a.312.312 0 0 0-.312.312v2.947c0 .173.14.313.313.313h2.949c.172 0 .312-.14.312-.313V29.24a.312.312 0 0 0-.312-.312z" fill="#fff"/><path opacity=".72" d="M31.718 28.928H28.77a.312.312 0 0 0-.313.312v2.947c0 .173.14.313.313.313h2.95c.172 0 .312-.14.312-.313V29.24a.312.312 0 0 0-.313-.312z" fill="#fff"/><path d="M63.269 11.25h3.15v18.06a6.65 6.65 0 0 1-.807 3.22 8.322 8.322 0 0 1-2.137 2.608c-.9.746-1.925 1.324-3.075 1.732-1.15.42-2.35.63-3.6.63-1.3 0-2.556-.274-3.769-.822a10.47 10.47 0 0 1-3.187-2.17c-.9-.899-1.55-1.908-1.95-3.028l2.887-1.225a5.277 5.277 0 0 0 1.275 2.17 6.943 6.943 0 0 0 2.175 1.54 6.091 6.091 0 0 0 2.569.577c.825 0 1.619-.134 2.381-.402a7.153 7.153 0 0 0 2.081-1.12 5.133 5.133 0 0 0 1.463-1.662c.362-.63.544-1.313.544-2.048v-3.482a7.557 7.557 0 0 1-2.532 2.45c-1.037.618-2.25.927-3.637.927a9.709 9.709 0 0 1-3.731-.717 9.692 9.692 0 0 1-3.057-1.978 9.545 9.545 0 0 1-2.062-2.94A8.58 8.58 0 0 1 47.5 20c0-1.272.25-2.462.75-3.57.5-1.12 1.187-2.1 2.062-2.94a9.541 9.541 0 0 1 3.057-1.995 9.709 9.709 0 0 1 3.731-.717c1.387 0 2.6.309 3.637.927a7.342 7.342 0 0 1 2.532 2.45V11.25zm-6.15 15.103c1.212 0 2.262-.292 3.15-.875a5.867 5.867 0 0 0 2.081-2.328 6.907 6.907 0 0 0 .731-3.15c0-1.167-.25-2.228-.75-3.185a5.74 5.74 0 0 0-2.081-2.31c-.888-.583-1.931-.875-3.131-.875-1.175 0-2.25.286-3.225.858a6.46 6.46 0 0 0-2.325 2.31c-.563.956-.844 2.024-.844 3.202s.287 2.252.863 3.22a6.713 6.713 0 0 0 2.324 2.293c.975.56 2.044.84 3.207.84zm12.308 2.397v-17.5h3.15v2.188c.663-.817 1.5-1.465 2.513-1.943 1.012-.49 2.112-.735 3.3-.735.725 0 1.425.088 2.1.263l-1.275 2.94a5.272 5.272 0 0 0-1.5-.228c-.938 0-1.8.216-2.588.648a4.976 4.976 0 0 0-1.856 1.715 4.39 4.39 0 0 0-.694 2.415V28.75h-3.15zm25.99-17.5h3.15v17.5h-3.15l-.131-2.957a6.899 6.899 0 0 1-2.438 2.467c-1.025.63-2.25.945-3.675.945-1.375 0-2.662-.24-3.862-.717a10.55 10.55 0 0 1-3.188-2.013 9.513 9.513 0 0 1-2.137-2.975 8.6 8.6 0 0 1-.77-3.622c0-1.249.25-2.427.75-3.535a8.994 8.994 0 0 1 2.082-2.905 9.837 9.837 0 0 1 3.113-1.96c1.175-.479 2.437-.718 3.787-.718 1.475 0 2.769.327 3.881.98a8.016 8.016 0 0 1 2.7 2.503l-.112-2.993zm-6.3 15.103c1.237 0 2.306-.28 3.206-.84a5.697 5.697 0 0 0 2.1-2.31c.5-.969.75-2.036.75-3.203 0-1.19-.25-2.263-.75-3.22a5.709 5.709 0 0 0-2.119-2.292c-.9-.572-1.962-.858-3.187-.858-1.238 0-2.363.286-3.375.858a6.629 6.629 0 0 0-2.419 2.31c-.587.956-.881 2.024-.881 3.202a5.9 5.9 0 0 0 .919 3.22 6.835 6.835 0 0 0 2.437 2.293c1.013.56 2.119.84 3.319.84zm23.955-15.103h3.338L106.154 37.5h-3.338l3.394-8.75-6.731-17.5h3.45l4.856 13.457 5.287-13.457zm19.27 0h3.15v18.06a6.646 6.646 0 0 1-.807 3.22 8.307 8.307 0 0 1-2.137 2.608c-.9.746-1.925 1.324-3.075 1.732-1.15.42-2.35.63-3.6.63-1.3 0-2.556-.274-3.769-.822a10.481 10.481 0 0 1-3.187-2.17c-.9-.899-1.55-1.908-1.95-3.028l2.887-1.225a5.277 5.277 0 0 0 1.276 2.17 6.939 6.939 0 0 0 2.174 1.54 6.093 6.093 0 0 0 2.569.577c.825 0 1.619-.134 2.381-.402a7.134 7.134 0 0 0 2.081-1.12 5.123 5.123 0 0 0 1.463-1.662c.363-.63.544-1.313.544-2.048v-3.482a7.56 7.56 0 0 1-2.531 2.45c-1.038.618-2.25.927-3.638.927a9.706 9.706 0 0 1-3.731-.717 9.713 9.713 0 0 1-3.057-1.978 9.56 9.56 0 0 1-2.062-2.94 8.58 8.58 0 0 1-.75-3.57c0-1.272.25-2.462.75-3.57.5-1.12 1.188-2.1 2.062-2.94a9.561 9.561 0 0 1 3.057-1.995 9.706 9.706 0 0 1 3.731-.717c1.388 0 2.6.309 3.638.927a7.344 7.344 0 0 1 2.531 2.45V11.25zm-6.15 15.103c1.212 0 2.262-.292 3.15-.875a5.87 5.87 0 0 0 2.081-2.328 6.899 6.899 0 0 0 .731-3.15c0-1.167-.25-2.228-.75-3.185a5.737 5.737 0 0 0-2.081-2.31c-.888-.583-1.931-.875-3.131-.875-1.175 0-2.25.286-3.225.858a6.46 6.46 0 0 0-2.325 2.31c-.562.956-.844 2.024-.844 3.202s.287 2.252.863 3.22a6.71 6.71 0 0 0 2.324 2.293c.976.56 2.045.84 3.207.84zM138.5 28.75v-17.5h3.15v2.188c.663-.817 1.5-1.465 2.513-1.943a7.478 7.478 0 0 1 3.3-.735c.725 0 1.425.088 2.1.263l-1.275 2.94a5.266 5.266 0 0 0-1.5-.228c-.938 0-1.8.216-2.588.648a4.987 4.987 0 0 0-1.856 1.715 4.394 4.394 0 0 0-.694 2.415V28.75h-3.15zm11.867-17.5h3.15v17.5h-3.15v-17.5zm1.613-2.852c-.5 0-.919-.152-1.257-.455a1.464 1.464 0 0 1-.506-1.138c0-.455.168-.834.506-1.137.338-.304.75-.455 1.238-.455s.9.151 1.238.455c.336.303.505.682.505 1.137 0 .455-.169.834-.505 1.138-.326.303-.732.455-1.219.455zM171.359 2.5h3.15v26.25h-3.15v-2.975a7.349 7.349 0 0 1-2.569 2.485c-1.076.63-2.338.945-3.788.945-1.362 0-2.638-.24-3.825-.717a10.287 10.287 0 0 1-3.15-1.978 9.503 9.503 0 0 1-2.118-2.94 8.38 8.38 0 0 1-.769-3.57 8.38 8.38 0 0 1 .769-3.57 9.236 9.236 0 0 1 2.118-2.94 10.116 10.116 0 0 1 3.15-1.995c1.187-.478 2.463-.717 3.825-.717 1.45 0 2.712.314 3.788.945a7.349 7.349 0 0 1 2.569 2.485V2.5zm-6.319 23.853c1.237 0 2.305-.28 3.205-.84a5.677 5.677 0 0 0 2.1-2.31c.5-.969.75-2.036.75-3.203 0-1.19-.25-2.263-.75-3.22a5.703 5.703 0 0 0-2.118-2.292c-.9-.572-1.963-.858-3.187-.858-1.238 0-2.363.286-3.376.858-1 .571-1.8 1.341-2.4 2.31-.6.956-.9 2.024-.9 3.202s.307 2.252.919 3.22a6.837 6.837 0 0 0 2.438 2.293c1.012.56 2.119.84 3.319.84zm18.186 2.73c-1.014-.035-2-.21-2.964-.525a8.967 8.967 0 0 1-2.512-1.313c-.712-.56-1.231-1.202-1.557-1.925l2.7-1.085c.188.397.526.77 1.014 1.12.486.35 1.05.63 1.686.84a6.15 6.15 0 0 0 1.933.315c.686 0 1.331-.1 1.931-.297.6-.199 1.086-.49 1.462-.875.388-.397.581-.87.581-1.418 0-.583-.212-1.038-.638-1.365-.412-.338-.936-.6-1.574-.788a45.461 45.461 0 0 0-1.912-.56c-1.288-.303-2.438-.664-3.45-1.084-1.014-.432-1.814-.975-2.4-1.628-.576-.665-.864-1.51-.864-2.537 0-1.085.319-2.025.957-2.818.65-.793 1.5-1.406 2.55-1.837a8.783 8.783 0 0 1 3.374-.648c1.514 0 2.895.303 4.145.91 1.25.607 2.181 1.43 2.793 2.468l-2.531 1.382c-.212-.42-.538-.787-.974-1.102a5.262 5.262 0 0 0-1.5-.77 5.825 5.825 0 0 0-1.726-.298 6.163 6.163 0 0 0-2.043.263c-.626.198-1.131.501-1.519.91-.376.396-.562.892-.562 1.487 0 .583.2 1.027.6 1.33.412.303.943.548 1.593.735.662.175 1.381.38 2.157.613 1.136.338 2.2.729 3.186 1.172.988.443 1.781.998 2.381 1.663.614.665.914 1.487.9 2.467 0 1.073-.343 2.013-1.031 2.818-.686.793-1.581 1.4-2.681 1.82-1.088.42-2.255.606-3.505.56z" fill="#fff"/><defs><linearGradient id="paint0_linear_3031_61" x1="20" x2="20" y2="40" gradientUnits="userSpaceOnUse"><stop stop-color="#fff" stop-opacity=".1"/><stop offset="1" stop-color="#fff" stop-opacity=".1"/></linearGradient><linearGradient id="paint1_linear_3031_61" x1="25.321" y1="5.81" x2="7.703" y2="58.305" gradientUnits="userSpaceOnUse"><stop offset=".216" stop-color="#fff" stop-opacity="0"/><stop offset=".447" stop-color="#fff" stop-opacity=".19"/><stop offset=".62" stop-color="#fff"/></linearGradient></defs></svg>