<svg width="246" height="40" fill="none" xmlns="http://www.w3.org/2000/svg"><g clip-path="url(#clip0_2911_30)"><path d="M58.687 3.074h-5.801v33.12H72.56V30.85H58.687V3.074zm20.53 6.25c1.811 0 3.307-1.497 3.307-3.36a3.286 3.286 0 0 0-3.308-3.297c-1.903 0-3.4 1.455-3.4 3.308 0 1.852 1.507 3.348 3.4 3.348zm-2.749 26.87h5.527V13.802h-5.527v22.392zm16.764 0V24.142c0-3.624 2.076-5.985 5.486-5.985 2.86 0 4.712 1.811 4.712 5.577v12.469h5.527V22.412c0-5.801-2.901-9.282-8.519-9.282-3.033 0-5.751 1.313-7.156 3.582l-.458-2.9h-5.12v22.392h5.528v-.01zm31.175.59c5.842 0 9.924-2.942 10.87-7.848h-5.119c-.642 2.128-2.626 3.308-5.67 3.308-3.674 0-5.75-1.995-6.157-5.933l16.855-.051v-1.67c0-6.982-4.265-11.47-10.972-11.47-6.565 0-11.145 4.844-11.145 11.877 0 6.932 4.671 11.787 11.338 11.787zm-.142-19.125c3.307 0 5.435 2.036 5.435 5.12h-11.237c.539-3.349 2.534-5.12 5.802-5.12zm18.106-8.336c1.812 0 3.308-1.496 3.308-3.359a3.286 3.286 0 0 0-3.308-3.297c-1.903 0-3.389 1.455-3.389 3.308 0 1.852 1.476 3.348 3.389 3.348zm-2.768 26.87h5.527V13.803h-5.527v22.392zm9.934-11.236c0 7.114 4.438 11.827 11.237 11.827 5.842 0 10.198-3.583 10.87-8.794h-5.578c-.59 2.453-2.534 3.807-5.303 3.807-3.531 0-5.71-2.627-5.71-6.84 0-4.214 2.362-6.89 5.894-6.89 2.625 0 4.488 1.312 5.119 3.857h5.527c-.59-5.395-4.764-8.794-10.87-8.794-6.606 0-11.186 4.896-11.186 11.827zm24.906 0c0 6.982 5.028 11.786 11.969 11.786 6.931 0 11.97-4.794 11.97-11.786 0-6.982-5.028-11.787-11.97-11.787-6.931.01-11.969 4.805-11.969 11.787zm5.537 0c0-4.082 2.625-6.84 6.432-6.84 3.807 0 6.433 2.769 6.433 6.84s-2.626 6.84-6.433 6.84c-3.807.01-6.432-2.759-6.432-6.84zm28.295 11.236v-12.05c0-3.624 2.076-5.985 5.486-5.985 2.86 0 4.712 1.811 4.712 5.577v12.469H224V22.412c0-5.801-2.901-9.282-8.519-9.282-3.033 0-5.751 1.313-7.155 3.582l-.458-2.9h-5.12v22.392h5.527v-.01zm37.659-6.748c0 4.53-3.847 7.349-9.374 7.349-5.578 0-9.099-3.003-9.11-7.38h5.242c.041 1.945 1.496 3.176 4.031 3.176 2.575 0 3.99-1.048 3.99-2.677 0-1.14-.581-1.944-2.576-2.401l-4.04-.957c-4.031-.906-5.975-2.81-5.975-6.392 0-4.397 3.705-7.033 8.876-7.033 5.028 0 8.417 2.91 8.468 7.257h-5.252c-.031-1.904-1.313-3.125-3.44-3.125-2.168 0-3.441.998-3.441 2.667 0 1.272 1.008 2.076 2.901 2.534l4.041.957c3.471.784 5.374 2.33 5.628 5.272l.031.753z" fill="#1C2033"/><path d="M31.623 35.27a3.717 3.717 0 0 0 0-5.262L6.351 4.736a3.717 3.717 0 0 0-5.262 0 3.717 3.717 0 0 0 0 5.262L26.36 35.27a3.716 3.716 0 0 0 5.262 0zm-.672-18.657a3.717 3.717 0 0 0 0-5.262l-10.26-10.26a3.717 3.717 0 0 0-5.261 0 3.717 3.717 0 0 0 0 5.263l10.26 10.26a3.735 3.735 0 0 0 5.261 0zm-13.669 22.3a3.717 3.717 0 0 0 0-5.261l-10.26-10.26a3.717 3.717 0 0 0-5.261 0 3.717 3.717 0 0 0 0 5.262l10.26 10.26a3.717 3.717 0 0 0 5.261 0z" fill="#6566FF"/></g><defs><clipPath id="clip0_2911_30"><path fill="#fff" d="M0 0H245.934V40H0z"/></clipPath></defs></svg>