<svg width="246" height="40" fill="none" xmlns="http://www.w3.org/2000/svg"><path d="M58.683 3.073h-5.801V36.19h19.672v-5.343H58.683V3.073zm20.526 6.249c1.811 0 3.307-1.496 3.307-3.358a3.286 3.286 0 0 0-3.307-3.298c-1.903 0-3.4 1.456-3.4 3.308 0 1.852 1.507 3.348 3.4 3.348zM76.46 36.189h5.526v-22.39H76.46v22.39zm16.761 0v-12.05c0-3.622 2.076-5.983 5.486-5.983 2.859 0 4.711 1.811 4.711 5.576V36.2h5.526v-13.79c0-5.8-2.9-9.28-8.518-9.28-3.032 0-5.75 1.312-7.154 3.582l-.458-2.9h-5.119v22.388h5.526v-.01zm31.173.59c5.841 0 9.922-2.941 10.868-7.846h-5.119c-.641 2.127-2.625 3.307-5.668 3.307-3.674 0-5.75-1.995-6.157-5.933l16.853-.05v-1.67c0-6.981-4.264-11.47-10.971-11.47-6.564 0-11.143 4.845-11.143 11.877 0 6.93 4.671 11.785 11.337 11.785zm-.143-19.122c3.308 0 5.434 2.035 5.434 5.119h-11.235c.54-3.349 2.534-5.12 5.801-5.12zm18.105-8.335c1.811 0 3.307-1.496 3.307-3.358a3.286 3.286 0 0 0-3.307-3.298c-1.903 0-3.389 1.456-3.389 3.308 0 1.852 1.475 3.348 3.389 3.348zm-2.768 26.867h5.526v-22.39h-5.526v22.39zm9.931-11.235c0 7.113 4.437 11.825 11.235 11.825 5.841 0 10.197-3.582 10.869-8.793h-5.577c-.59 2.453-2.534 3.806-5.302 3.806-3.532 0-5.709-2.625-5.709-6.838s2.361-6.89 5.892-6.89c2.626 0 4.488 1.313 5.119 3.857h5.526c-.59-5.394-4.763-8.793-10.869-8.793-6.605 0-11.184 4.895-11.184 11.826zm24.903 0c0 6.98 5.027 11.784 11.968 11.784 6.93 0 11.968-4.793 11.968-11.785 0-6.98-5.028-11.784-11.968-11.784-6.931.01-11.968 4.803-11.968 11.784zm5.536 0c0-4.082 2.626-6.84 6.432-6.84 3.806 0 6.431 2.769 6.431 6.84 0 4.07-2.625 6.838-6.431 6.838-3.806.01-6.432-2.758-6.432-6.839zm28.291 11.235v-12.05c0-3.622 2.076-5.983 5.485-5.983 2.86 0 4.712 1.811 4.712 5.576V36.2h5.526v-13.79c0-5.8-2.9-9.28-8.518-9.28-3.032 0-5.75 1.312-7.154 3.582l-.458-2.9h-5.119v22.388h5.526v-.01zm37.656-6.747c0 4.528-3.847 7.347-9.373 7.347-5.577 0-9.098-3.002-9.108-7.378h5.241c.041 1.944 1.496 3.175 4.03 3.175 2.575 0 3.989-1.048 3.989-2.676 0-1.14-.58-1.944-2.575-2.402l-4.04-.957c-4.03-.905-5.974-2.808-5.974-6.39 0-4.397 3.705-7.033 8.875-7.033 5.027 0 8.416 2.91 8.467 7.256h-5.252c-.03-1.903-1.312-3.124-3.439-3.124-2.168 0-3.44.997-3.44 2.666 0 1.272 1.007 2.076 2.9 2.534l4.041.957c3.47.784 5.373 2.33 5.627 5.271l.031.754zM31.622 35.265a3.716 3.716 0 0 0 0-5.261L6.353 4.735a3.716 3.716 0 0 0-5.261 0 3.716 3.716 0 0 0 0 5.261l25.268 25.27a3.716 3.716 0 0 0 5.262 0zm-.67-18.654a3.716 3.716 0 0 0 0-5.261L20.692 1.09a3.716 3.716 0 0 0-5.261 0 3.716 3.716 0 0 0 0 5.262L25.69 16.61a3.735 3.735 0 0 0 5.261 0zM17.282 38.91a3.716 3.716 0 0 0 0-5.262L7.025 23.39a3.716 3.716 0 0 0-5.261 0 3.716 3.716 0 0 0 0 5.261L12.022 38.91a3.716 3.716 0 0 0 5.261 0z" fill="#fff"/></svg>