<svg width="214" height="40" fill="none" xmlns="http://www.w3.org/2000/svg"><g clip-path="url(#clip0_3031_41)"><path d="M57.848 32.295V8.948h8.712c1.588 0 2.988.292 4.2.877 1.232.564 2.193 1.4 2.883 2.507.69 1.087 1.034 2.413 1.034 3.98 0 1.546-.355 2.873-1.066 3.98-.689 1.087-1.64 1.922-2.851 2.507-1.212.585-2.612.878-4.2.878h-4.45v8.618h-4.262zm4.262-12.379h4.513c.773 0 1.441-.146 2.006-.439a3.385 3.385 0 0 0 1.316-1.284c.313-.544.47-1.17.47-1.88 0-.732-.157-1.359-.47-1.881a3.173 3.173 0 0 0-1.316-1.254c-.565-.313-1.233-.47-2.006-.47H62.11v7.208zm15.088 12.38V8.57h4.105v23.724h-4.105zm12.44.375c-1.19 0-2.225-.198-3.103-.595-.877-.397-1.556-.961-2.037-1.692-.48-.753-.72-1.62-.72-2.602 0-.94.209-1.776.626-2.507.418-.752 1.066-1.379 1.944-1.88.877-.502 1.984-.857 3.321-1.066l5.579-.908v3.133l-4.795.815c-.815.147-1.42.408-1.818.784-.397.376-.595.867-.595 1.473 0 .585.22 1.055.658 1.41.46.334 1.024.501 1.692.501.857 0 1.609-.177 2.257-.532a3.879 3.879 0 0 0 1.535-1.536 4.169 4.169 0 0 0 .564-2.131V20.95c0-.73-.292-1.337-.877-1.817-.564-.502-1.316-.752-2.257-.752-.877 0-1.66.24-2.35.72a4.026 4.026 0 0 0-1.473 1.85l-3.353-1.63A5.863 5.863 0 0 1 86.003 17a8.008 8.008 0 0 1 2.57-1.566c.982-.376 2.047-.564 3.196-.564 1.4 0 2.633.26 3.698.783 1.066.502 1.89 1.212 2.476 2.131.606.899.909 1.954.909 3.165v11.345h-3.886v-2.914l.877-.063a7.14 7.14 0 0 1-1.567 1.849 7.07 7.07 0 0 1-2.068 1.128c-.773.251-1.63.376-2.57.376zm12.382-.376V15.247h4.105v17.048h-4.105zm2.052-18.96a2.053 2.053 0 0 1-2.052-2.053c0-1.133.919-2.117 2.052-2.117 1.134 0 2.053.984 2.053 2.117a2.053 2.053 0 0 1-2.053 2.053zm5.217 18.96V15.247h3.855V18.6l-.314-.596c.397-1.023 1.045-1.796 1.943-2.319.919-.543 1.985-.814 3.197-.814 1.253 0 2.36.271 3.322.814a5.745 5.745 0 0 1 2.288 2.288c.542.961.814 2.08.814 3.354v10.968h-4.105v-9.997c0-.752-.147-1.4-.439-1.943a3.07 3.07 0 0 0-1.222-1.253c-.501-.314-1.097-.47-1.786-.47-.669 0-1.264.156-1.787.47-.522.292-.929.71-1.222 1.253-.293.543-.439 1.191-.439 1.943v9.997h-4.105zm16.383 0l8.368-23.347h3.635l8.367 23.347h-3.29l-1.912-5.484h-9.966l-1.912 5.484h-3.29zm6.174-8.305h8.023l-4.45-12.817h.877l-4.45 12.818zm22.293 8.681c-1.587 0-3.019-.386-4.293-1.16-1.254-.772-2.246-1.827-2.978-3.164-.73-1.338-1.096-2.831-1.096-4.482 0-1.692.366-3.197 1.096-4.513.732-1.337 1.724-2.392 2.978-3.165 1.274-.773 2.706-1.16 4.293-1.16 1.4 0 2.643.303 3.729.91 1.087.584 1.944 1.378 2.571 2.381l-.471.72V8.572h2.946v23.724h-2.852v-3.604l.377.502a6.108 6.108 0 0 1-2.571 2.57c-1.107.605-2.35.908-3.729.908zm.25-2.82c1.066 0 2.017-.261 2.852-.784a5.543 5.543 0 0 0 1.975-2.13c.502-.92.752-1.944.752-3.072 0-1.149-.25-2.173-.752-3.071-.481-.92-1.138-1.64-1.975-2.163-.835-.522-1.786-.783-2.852-.783a5.214 5.214 0 0 0-2.851.815 5.543 5.543 0 0 0-1.975 2.13c-.48.878-.721 1.902-.721 3.072 0 1.128.241 2.152.721 3.071a5.543 5.543 0 0 0 1.975 2.131c.836.523 1.787.784 2.851.784zm11.47 2.444V15.403h2.851v3.448l-.408-.533c.419-1.066 1.087-1.88 2.006-2.445.92-.564 1.954-.846 3.102-.846 1.317 0 2.498.366 3.543 1.097 1.064.732 1.796 1.693 2.193 2.883l-.814.032c.438-1.316 1.18-2.309 2.224-2.978a6.184 6.184 0 0 1 3.479-1.034c1.17 0 2.225.272 3.165.815a6.088 6.088 0 0 1 2.288 2.257c.564.96.846 2.047.846 3.259v10.937h-2.946v-9.997c0-.94-.167-1.734-.501-2.382a3.698 3.698 0 0 0-1.379-1.504c-.565-.376-1.233-.564-2.006-.564-.752 0-1.432.188-2.037.564-.585.355-1.055.867-1.41 1.536-.334.647-.501 1.43-.501 2.35v9.997h-2.946v-9.997c0-.94-.168-1.734-.502-2.382a3.698 3.698 0 0 0-1.379-1.504c-.564-.376-1.233-.564-2.006-.564a3.78 3.78 0 0 0-2.036.564c-.585.355-1.056.867-1.411 1.536-.334.647-.501 1.43-.501 2.35v9.997h-2.914zm27.048.238V15.642h2.914v16.891h-2.914zm5.869-.238V15.403h2.852v3.291l-.469-.282c.417-1.066 1.086-1.89 2.006-2.476.94-.606 2.036-.909 3.29-.909 1.212 0 2.287.272 3.227.815a5.855 5.855 0 0 1 2.257 2.257c.564.96.847 2.047.847 3.259v10.937h-2.946v-9.997c0-.94-.167-1.734-.502-2.382a3.58 3.58 0 0 0-1.442-1.504c-.606-.376-1.306-.564-2.1-.564s-1.503.188-2.13.564c-.606.355-1.087.867-1.443 1.536-.354.647-.531 1.43-.531 2.35v9.997h-2.916zm-4.5-18.724a1.858 1.858 0 1 0 0-3.715 1.858 1.858 0 0 0 0 3.716z" fill="#fff"/><path d="M.459 17.391c0-8.198 0-12.297 2.547-14.844C5.553 0 9.652 0 17.85 0h5.217c8.199 0 12.298 0 14.845 2.547 2.547 2.547 2.547 6.646 2.547 14.844v5.218c0 8.198 0 12.297-2.547 14.844C35.365 40 31.266 40 23.067 40H17.85c-8.198 0-12.297 0-14.844-2.547C.459 34.906.459 30.807.459 22.61V17.39z" fill="#fff" fill-opacity=".21"/><path d="M32.628 16.522a8.696 8.696 0 1 1-17.392 0 8.696 8.696 0 0 1 17.392 0z" fill="url(#paint0_linear_3031_41)"/><path d="M17.845 27.826a4.348 4.348 0 1 1-8.696 0 4.348 4.348 0 0 1 8.696 0z" fill="url(#paint1_linear_3031_41)"/></g><defs><linearGradient id="paint0_linear_3031_41" x1="23.932" y1="7.826" x2="23.932" y2="38.261" gradientUnits="userSpaceOnUse"><stop stop-color="#fff"/><stop offset="1" stop-color="#fff" stop-opacity="0"/></linearGradient><linearGradient id="paint1_linear_3031_41" x1="13.497" y1="9.565" x2="13.497" y2="32.174" gradientUnits="userSpaceOnUse"><stop stop-color="#fff" stop-opacity="0"/><stop offset="1" stop-color="#fff"/></linearGradient><clipPath id="clip0_3031_41"><path fill="#fff" transform="translate(.459)" d="M0 0H212.941V40H0z"/></clipPath></defs></svg>