<svg width="213" height="40" fill="none" xmlns="http://www.w3.org/2000/svg"><g clip-path="url(#clip0_3035_132)"><path d="M57.39 32.295V8.948H66.1c1.588 0 2.988.292 4.2.877 1.233.564 2.194 1.4 2.883 2.507.69 1.087 1.034 2.413 1.034 3.98 0 1.546-.355 2.873-1.065 3.98-.69 1.087-1.64 1.922-2.852 2.507-1.212.585-2.612.878-4.2.878h-4.45v8.618H57.39zm4.261-12.379h4.513c.773 0 1.442-.146 2.006-.439a3.385 3.385 0 0 0 1.316-1.284c.313-.544.47-1.17.47-1.88 0-.732-.157-1.359-.47-1.881a3.174 3.174 0 0 0-1.316-1.254c-.564-.313-1.233-.47-2.006-.47h-4.513v7.208zm15.088 12.38V8.57h4.106v23.724h-4.106zm12.44.375c-1.19 0-2.225-.198-3.102-.595-.878-.397-1.557-.961-2.037-1.692-.48-.753-.721-1.62-.721-2.602 0-.94.209-1.775.627-2.507.418-.752 1.065-1.379 1.943-1.88.877-.502 1.985-.857 3.322-1.066l5.578-.908v3.134l-4.795.814c-.815.147-1.42.408-1.817.784-.398.376-.596.867-.596 1.473 0 .585.22 1.055.658 1.41.46.334 1.024.501 1.692.501.857 0 1.61-.177 2.257-.532a3.878 3.878 0 0 0 1.536-1.536 4.169 4.169 0 0 0 .564-2.131v-4.387c0-.732-.293-1.338-.878-1.818-.564-.502-1.316-.752-2.256-.752-.878 0-1.661.24-2.35.72a4.026 4.026 0 0 0-1.474 1.85l-3.353-1.63A5.862 5.862 0 0 1 85.544 17a8.01 8.01 0 0 1 2.57-1.566c.982-.376 2.047-.564 3.196-.564 1.4 0 2.633.26 3.698.783 1.066.502 1.891 1.212 2.476 2.131.606.899.91 1.954.91 3.166v11.344h-3.887v-2.914l.877-.063a7.143 7.143 0 0 1-1.566 1.85 7.07 7.07 0 0 1-2.069 1.127c-.773.251-1.63.376-2.57.376zm12.382-.376V15.247h4.105v17.048h-4.105zm2.053-18.96a2.053 2.053 0 0 1-2.053-2.053c0-1.133.919-2.117 2.053-2.117 1.133 0 2.052.984 2.052 2.117a2.053 2.053 0 0 1-2.052 2.053zm5.216 18.96V15.247h3.855V18.6l-.314-.595c.397-1.024 1.045-1.797 1.943-2.32.92-.543 1.985-.814 3.197-.814 1.254 0 2.361.271 3.322.814a5.739 5.739 0 0 1 2.288 2.288c.542.961.814 2.08.814 3.354v10.968h-4.104v-9.997c0-.752-.148-1.4-.439-1.943a3.073 3.073 0 0 0-1.223-1.253c-.501-.314-1.097-.47-1.786-.47-.669 0-1.264.156-1.786.47-.523.292-.93.71-1.223 1.253-.292.543-.439 1.191-.439 1.943v9.997h-4.105zm16.383 0l8.368-23.347h3.635l8.367 23.347h-3.29l-1.912-5.484h-9.966l-1.912 5.484h-3.29zm6.174-8.305h8.024l-4.451-12.817h.878l-4.451 12.818zm22.293 8.681c-1.587 0-3.019-.386-4.293-1.16-1.254-.772-2.246-1.827-2.978-3.164-.73-1.338-1.096-2.831-1.096-4.482 0-1.692.366-3.196 1.096-4.513.732-1.337 1.724-2.392 2.978-3.165 1.274-.773 2.706-1.16 4.293-1.16 1.4 0 2.644.303 3.729.91 1.088.584 1.944 1.378 2.571 2.381l-.471.72V8.572h2.946v23.724h-2.851v-3.604l.376.502a6.103 6.103 0 0 1-2.571 2.57c-1.107.605-2.35.908-3.729.908zm.251-2.82c1.066 0 2.016-.261 2.851-.784a5.545 5.545 0 0 0 1.976-2.13c.501-.92.751-1.944.751-3.072 0-1.149-.25-2.173-.751-3.071-.481-.92-1.139-1.64-1.976-2.163-.835-.522-1.785-.783-2.851-.783a5.214 5.214 0 0 0-2.852.815 5.548 5.548 0 0 0-1.974 2.13c-.48.878-.721 1.902-.721 3.072 0 1.128.241 2.152.721 3.071a5.547 5.547 0 0 0 1.974 2.131c.836.523 1.787.784 2.852.784zm11.469 2.444V15.403h2.852v3.448l-.409-.533c.419-1.066 1.087-1.88 2.006-2.445.92-.564 1.954-.846 3.103-.846 1.316 0 2.497.366 3.542 1.097 1.065.732 1.796 1.693 2.193 2.883l-.814.032c.439-1.316 1.18-2.309 2.225-2.978a6.178 6.178 0 0 1 3.478-1.034c1.17 0 2.225.272 3.165.815a6.08 6.08 0 0 1 2.288 2.257c.564.96.846 2.047.846 3.259v10.937h-2.946v-9.997c0-.94-.167-1.734-.501-2.382a3.698 3.698 0 0 0-1.379-1.504c-.564-.376-1.233-.564-2.006-.564-.751 0-1.431.188-2.037.564-.585.355-1.054.867-1.41 1.536-.334.647-.501 1.43-.501 2.35v9.997h-2.946v-9.997c0-.94-.168-1.734-.502-2.382a3.698 3.698 0 0 0-1.379-1.504c-.563-.376-1.233-.564-2.006-.564-.751 0-1.43.188-2.036.564-.585.355-1.056.867-1.411 1.536-.334.647-.501 1.43-.501 2.35v9.997H165.4zm27.048.238V15.642h2.914v16.891h-2.914zm5.87-.238V15.403h2.851v3.291l-.469-.282c.418-1.066 1.086-1.89 2.006-2.476.94-.606 2.036-.909 3.29-.909 1.212 0 2.287.272 3.227.815a5.841 5.841 0 0 1 2.257 2.257c.565.96.847 2.047.847 3.259v10.937h-2.946v-9.997c0-.94-.167-1.734-.502-2.382a3.572 3.572 0 0 0-1.441-1.504c-.606-.376-1.306-.564-2.1-.564s-1.504.188-2.131.564c-.606.355-1.087.867-1.442 1.536-.354.647-.532 1.43-.532 2.35v9.997h-2.915zm-4.5-18.724a1.857 1.857 0 1 0 0-3.713 1.857 1.857 0 0 0 0 3.713z" fill="#1A2142"/><path d="M0 17.391C0 9.193 0 5.094 2.547 2.547 5.094 0 9.193 0 17.39 0h5.218c8.198 0 12.297 0 14.844 2.547C40 5.094 40 9.193 40 17.39v5.218c0 8.198 0 12.297-2.547 14.844C34.906 40 30.807 40 22.61 40H17.39c-8.198 0-12.297 0-14.844-2.547C0 34.906 0 30.807 0 22.61V17.39z" fill="url(#paint0_linear_3035_132)"/><path d="M32.169 16.522a8.696 8.696 0 1 1-17.391 0 8.696 8.696 0 0 1 17.39 0z" fill="url(#paint1_linear_3035_132)"/><path d="M17.386 27.826a4.348 4.348 0 1 1-8.696 0 4.348 4.348 0 0 1 8.696 0z" fill="url(#paint2_linear_3035_132)"/></g><defs><linearGradient id="paint0_linear_3035_132" x1="31.389" y1="35" x2="2.144" y2=".196" gradientUnits="userSpaceOnUse"><stop stop-color="#365CF5"/><stop offset="1" stop-color="#946FFF"/></linearGradient><linearGradient id="paint1_linear_3035_132" x1="23.473" y1="7.826" x2="23.473" y2="38.261" gradientUnits="userSpaceOnUse"><stop stop-color="#fff"/><stop offset="1" stop-color="#fff" stop-opacity="0"/></linearGradient><linearGradient id="paint2_linear_3035_132" x1="13.038" y1="9.565" x2="13.038" y2="32.174" gradientUnits="userSpaceOnUse"><stop stop-color="#fff" stop-opacity="0"/><stop offset="1" stop-color="#fff"/></linearGradient><clipPath id="clip0_3035_132"><path fill="#fff" d="M0 0H212.941V40H0z"/></clipPath></defs></svg>