<svg width="161" height="40" fill="none" xmlns="http://www.w3.org/2000/svg"><g clip-path="url(#clip0_3035_122)" fill="#3758F9"><path opacity=".72" d="M40.14 18.352a.815.815 0 0 0-.802-.736H19.326a3.124 3.124 0 0 0-2.65 1.6 2.792 2.792 0 0 0 0 2.784.866.866 0 0 0 .722.464h21.988a.821.821 0 0 0 .803-.736v-1.6c0-.448 0-1.168-.048-1.776z"/><path d="M40.124 18.352a.799.799 0 0 0-.787-.736h-3.212a.804.804 0 0 0-.594.272.751.751 0 0 0-.193.608v1.6a15.154 15.154 0 0 1-1.889 7.301 15.223 15.223 0 0 1-5.178 5.499c-.225.144-.433.32-.674.448a15.005 15.005 0 0 1-3.759 1.504l2.104 3.728a.801.801 0 0 0 .707.4.73.73 0 0 0 .257 0l.514-.208.466-.192a20.088 20.088 0 0 0 9.607-8.424 19.988 19.988 0 0 0 2.712-10.2c0-.592-.033-1.056-.08-1.6z"/><path d="M28.756 33.539a.867.867 0 0 0-.482-.384h-.225a.918.918 0 0 0-.402.096 15.141 15.141 0 0 1-7.516 1.968 15.32 15.32 0 0 1-10.78-4.462A15.203 15.203 0 0 1 4.873 20.02 15.203 15.203 0 0 1 9.351 9.28a15.32 15.32 0 0 1 10.78-4.461c2.634 0 5.223.678 7.516 1.968.12.076.26.115.402.112h.177a.821.821 0 0 0 .53-.384l1.606-2.784a.813.813 0 0 0-.29-1.104A20.147 20.147 0 0 0 5.977 5.902a19.994 19.994 0 0 0-5.89 14.133 19.994 19.994 0 0 0 5.89 14.133 20.148 20.148 0 0 0 24.097 3.275.786.786 0 0 0 .289-1.088l-1.606-2.816z"/><path opacity=".56" d="M22.425 22.4H17.35a.903.903 0 0 1-.707-.432l9.332 16.464a.802.802 0 0 0 .706.4c.09.015.183.015.273 0a19.663 19.663 0 0 0 3.068-1.408.785.785 0 0 0 .289-1.088L22.425 22.4z"/></g><path d="M62.813 13.657v16.95H59.82v-16.95h-4.56v-2.802H67.36v2.802h-4.546zm14.78 4.49h2.903v12.46h-2.902v-1.304c-1.19 1.108-2.47 1.663-3.84 1.663-1.73 0-3.159-.623-4.29-1.868-1.12-1.27-1.681-2.857-1.681-4.759 0-1.868.56-3.424 1.682-4.67 1.121-1.245 2.525-1.867 4.212-1.867 1.455 0 2.761.597 3.917 1.79v-1.445zm-6.857 6.192c0 1.194.321 2.166.963 2.917.66.759 1.49 1.139 2.492 1.139 1.07 0 1.935-.367 2.594-1.1.659-.76.989-1.724.989-2.892s-.33-2.132-.99-2.891c-.658-.742-1.515-1.113-2.568-1.113-.993 0-1.823.375-2.49 1.125-.66.76-.99 1.698-.99 2.815zm16.297-6.192v12.46h-2.89v-12.46h2.89zm-3.326-5.181c0-.503.184-.938.552-1.305.368-.367.809-.55 1.323-.55.522 0 .967.183 1.335.55.368.358.552.797.552 1.318 0 .52-.184.963-.552 1.33-.36.367-.8.55-1.323.55-.522 0-.967-.183-1.335-.55a1.824 1.824 0 0 1-.552-1.343zM93.582 9v21.608h-2.89V9h2.89zm14.409 11.322h8.193v.652c0 1.484-.176 2.798-.527 3.94-.342 1.058-.92 2.048-1.733 2.969-1.841 2.064-4.182 3.096-7.025 3.096-2.774 0-5.149-.998-7.127-2.994-1.978-2.004-2.967-4.41-2.967-7.215 0-2.866 1.006-5.297 3.018-7.292 2.012-2.005 4.461-3.007 7.346-3.007 1.549 0 2.996.316 4.34.947 1.285.631 2.547 1.655 3.789 3.07l-2.132 2.034c-1.627-2.157-3.609-3.236-5.946-3.236-2.097 0-3.857.72-5.278 2.162-1.421 1.415-2.132 3.19-2.132 5.322 0 2.2.792 4.012 2.376 5.437 1.481 1.322 3.087 1.983 4.816 1.983 1.472 0 2.795-.495 3.968-1.484 1.173-.998 1.828-2.192 1.965-3.582h-4.944v-2.802zm11.416-2.175h2.89v1.113c.53-.554 1.001-.934 1.412-1.139.42-.213.916-.32 1.49-.32.762 0 1.558.248 2.389.743l-1.323 2.635c-.548-.392-1.083-.588-1.605-.588-1.576 0-2.363 1.185-2.363 3.556v6.46h-2.89v-12.46zm13.138 0v12.46h-2.89v-12.46h2.89zm-3.327-5.181c0-.503.185-.938.553-1.305.368-.367.809-.55 1.322-.55.523 0 .968.183 1.336.55.368.358.552.797.552 1.318 0 .52-.184.963-.552 1.33-.36.367-.8.55-1.323.55-.522 0-.967-.183-1.335-.55a1.825 1.825 0 0 1-.553-1.343zM145.425 9h2.902v21.608h-2.902v-1.305c-1.139 1.108-2.427 1.663-3.865 1.663-1.713 0-3.134-.623-4.264-1.868-1.121-1.27-1.682-2.857-1.682-4.759 0-1.86.561-3.412 1.682-4.657 1.113-1.253 2.513-1.88 4.199-1.88 1.464 0 2.774.597 3.93 1.79V9zm-6.858 15.339c0 1.194.321 2.166.964 2.917.659.759 1.489 1.139 2.491 1.139 1.07 0 1.935-.367 2.594-1.1.659-.76.989-1.724.989-2.892s-.33-2.132-.989-2.891c-.659-.742-1.515-1.113-2.568-1.113-.994 0-1.824.375-2.492 1.125-.659.76-.989 1.698-.989 2.815zm20.676-4.068l-2.389 1.266c-.376-.767-.843-1.151-1.399-1.151a.952.952 0 0 0-.681.269.857.857 0 0 0-.283.665c0 .477.557.95 1.67 1.42 1.532.657 2.564 1.262 3.095 1.817.531.554.796 1.3.796 2.238 0 1.203-.445 2.21-1.336 3.02-.864.767-1.909 1.15-3.133 1.15-2.097 0-3.583-1.018-4.456-3.057l2.466-1.138c.342.597.603.976.783 1.138.351.324.77.486 1.258.486.976 0 1.464-.443 1.464-1.33 0-.512-.376-.99-1.13-1.433a40.483 40.483 0 0 0-.873-.422 84.451 84.451 0 0 1-.886-.422c-.839-.41-1.43-.819-1.772-1.228-.437-.52-.655-1.19-.655-2.009 0-1.083.372-1.979 1.117-2.687.762-.707 1.687-1.061 2.774-1.061 1.601 0 2.791.823 3.57 2.469z" fill="#111928"/><defs><clipPath id="clip0_3035_122"><path fill="#fff" transform="translate(.052)" d="M0 0H40.153V40H0z"/></clipPath></defs></svg>