<svg width="221" height="40" fill="none" xmlns="http://www.w3.org/2000/svg"><g clip-path="url(#clip0_2911_56)"><path d="M55.934 11.47h7.847v22.476h4.693V11.47h7.846V7.143H55.934v4.327zm25.625 22.953c2.823 0 5.28-1.283 6.05-3.153l.33 2.677h3.923v-11c0-5.024-3.007-7.664-7.883-7.664-4.914 0-8.14 2.567-8.14 6.49h3.813c0-1.906 1.467-3.006 4.107-3.006 2.273 0 3.74.99 3.74 3.446v.403l-5.427.404c-4.29.33-6.71 2.42-6.71 5.757 0 3.41 2.347 5.646 6.197 5.646zm1.466-3.373c-2.016 0-3.116-.807-3.116-2.457 0-1.466 1.063-2.383 3.85-2.64l3.776-.293v.953c0 2.787-1.76 4.437-4.51 4.437zm15.468-18.847c1.467 0 2.677-1.21 2.677-2.713a2.668 2.668 0 0 0-2.677-2.677c-1.54 0-2.75 1.174-2.75 2.677 0 1.503 1.21 2.713 2.75 2.713zm-2.236 21.744h4.473V15.832h-4.474v18.114zm13.605 0V6.666h-4.437v27.28h4.437zm7.662 0l2.163-6.197h10.011l2.163 6.197h4.95l-9.68-26.804h-4.804l-9.68 26.803h4.877zm6.6-18.81c.257-.734.477-1.54.587-2.054.073.55.33 1.357.55 2.054l3.08 8.653h-7.26l3.043-8.653zm22.007 19.286c2.75 0 5.098-1.21 6.198-3.3l.292 2.823h4.108V6.666h-4.438v11.477c-1.136-1.796-3.372-2.86-5.902-2.86-5.464 0-8.764 4.034-8.764 9.68 0 5.61 3.264 9.46 8.506 9.46zm.99-4.107c-3.116 0-5.022-2.273-5.022-5.5 0-3.226 1.906-5.536 5.022-5.536 3.118 0 5.134 2.273 5.134 5.537 0 3.263-2.016 5.5-5.134 5.5zm18.743 3.63V23.68c0-2.933 1.722-4.327 3.85-4.327 2.126 0 3.482 1.357 3.482 3.887v10.707h4.474V23.68c0-2.97 1.65-4.363 3.814-4.363 2.126 0 3.52 1.356 3.52 3.96v10.67h4.436V22.102c0-4.18-2.42-6.82-6.82-6.82-2.75 0-4.876 1.357-5.794 3.447-.952-2.09-2.86-3.447-5.61-3.447-2.602 0-4.436 1.174-5.352 2.677l-.368-2.127h-4.106v18.114h4.474zm30.203-21.743c1.468 0 2.678-1.21 2.678-2.713a2.668 2.668 0 0 0-2.678-2.677c-1.54 0-2.75 1.174-2.75 2.677 0 1.503 1.21 2.713 2.75 2.713zm-2.236 21.744h4.474V15.832h-4.474v18.114zm13.569 0v-9.754c0-2.933 1.686-4.84 4.436-4.84 2.31 0 3.814 1.467 3.814 4.51v10.084h4.473V22.8c0-4.693-2.347-7.517-6.893-7.517-2.457 0-4.657 1.064-5.794 2.897l-.366-2.347h-4.144v18.114h4.474z" fill="#1C2434"/><path d="M.934 10.526C.934 4.713 5.647 0 11.46 0h18.947c5.814 0 10.527 4.713 10.527 10.526v18.948C40.934 35.287 36.22 40 30.408 40H11.46C5.647 40 .934 35.287.934 29.474V10.526z" fill="#3C50E0"/><path d="M11.46 10.527a2.105 2.105 0 0 1 4.211 0v18.947a2.105 2.105 0 0 1-4.21 0V10.527z" fill="#fff" filter="url(#filter0_d_2911_56)"/><path d="M19.355 18.947a2.105 2.105 0 0 1 4.21 0v10.526a2.105 2.105 0 1 1-4.21 0V18.947z" fill="#fff" opacity=".9" filter="url(#filter1_d_2911_56)"/><path d="M27.25 13.684a2.105 2.105 0 0 1 4.21 0v15.79a2.105 2.105 0 0 1-4.21 0v-15.79z" fill="#fff" opacity=".7" filter="url(#filter2_d_2911_56)"/></g><defs><filter id="filter0_d_2911_56" x="10.46" y="7.921" width="6.21" height="25.158" filterUnits="userSpaceOnUse" color-interpolation-filters="sRGB"><feFlood flood-opacity="0" result="BackgroundImageFix"/><feColorMatrix in="SourceAlpha" values="0 0 0 0 0 0 0 0 0 0 0 0 0 0 0 0 0 0 127 0" result="hardAlpha"/><feOffset dy=".5"/><feGaussianBlur stdDeviation=".5"/><feComposite in2="hardAlpha" operator="out"/><feColorMatrix values="0 0 0 0 0 0 0 0 0 0 0 0 0 0 0 0 0 0 0.12 0"/><feBlend in2="BackgroundImageFix" result="effect1_dropShadow_2911_56"/><feBlend in="SourceGraphic" in2="effect1_dropShadow_2911_56" result="shape"/></filter><filter id="filter1_d_2911_56" x="18.355" y="16.342" width="6.21" height="16.737" filterUnits="userSpaceOnUse" color-interpolation-filters="sRGB"><feFlood flood-opacity="0" result="BackgroundImageFix"/><feColorMatrix in="SourceAlpha" values="0 0 0 0 0 0 0 0 0 0 0 0 0 0 0 0 0 0 127 0" result="hardAlpha"/><feOffset dy=".5"/><feGaussianBlur stdDeviation=".5"/><feComposite in2="hardAlpha" operator="out"/><feColorMatrix values="0 0 0 0 0 0 0 0 0 0 0 0 0 0 0 0 0 0 0.12 0"/><feBlend in2="BackgroundImageFix" result="effect1_dropShadow_2911_56"/><feBlend in="SourceGraphic" in2="effect1_dropShadow_2911_56" result="shape"/></filter><filter id="filter2_d_2911_56" x="26.249" y="11.078" width="6.211" height="22" filterUnits="userSpaceOnUse" color-interpolation-filters="sRGB"><feFlood flood-opacity="0" result="BackgroundImageFix"/><feColorMatrix in="SourceAlpha" values="0 0 0 0 0 0 0 0 0 0 0 0 0 0 0 0 0 0 127 0" result="hardAlpha"/><feOffset dy=".5"/><feGaussianBlur stdDeviation=".5"/><feComposite in2="hardAlpha" operator="out"/><feColorMatrix values="0 0 0 0 0 0 0 0 0 0 0 0 0 0 0 0 0 0 0.12 0"/><feBlend in2="BackgroundImageFix" result="effect1_dropShadow_2911_56"/><feBlend in="SourceGraphic" in2="effect1_dropShadow_2911_56" result="shape"/></filter><clipPath id="clip0_2911_56"><path fill="#fff" transform="translate(.934)" d="M0 0H220V40H0z"/></clipPath></defs></svg>