<svg width="170" height="40" fill="none" xmlns="http://www.w3.org/2000/svg"><path d="M34.166 14.735v12.572a7.425 7.425 0 0 1-3.473 6.286L20.585 39.95a.325.325 0 0 1-.498-.272v-4.45c0-.73.362-1.41.97-1.817l6.448-4.3a3.24 3.24 0 0 0 1.442-2.69v-8.666c0-.692.368-1.333.97-1.682l3.279-1.888a.648.648 0 0 1 .97.562v-.012z" fill="#fff"/><path d="M33.383 10.971l-14.28 8.246a3.224 3.224 0 0 0-1.616 2.8v17.37a.32.32 0 0 1-.485.279L3.77 31.97A7.573 7.573 0 0 1 0 25.42V14.903a8.865 8.865 0 0 1 4.436-7.682L16.478.26a1.928 1.928 0 0 1 1.94 0l3.014 1.74a.971.971 0 0 1 0 1.682L7.056 11.98a3.224 3.224 0 0 0-1.617 2.8v9.999c0 1.157.614 2.224 1.617 2.8l4.766 2.748a.15.15 0 0 0 .226-.129v-9.933a5.633 5.633 0 0 1 2.82-4.883L28.68 7.408a1.934 1.934 0 0 1 2.064.078l2.696 1.843a.971.971 0 0 1-.064 1.642h.006zm16.335-1.796h4.612v12.526c0 1.028.14 1.944.422 2.75.281.795.698 1.469 1.25 2.021.563.553 1.257.975 2.081 1.266.825.281 1.785.422 2.88.422 1.087 0 2.042-.14 2.866-.422.834-.29 1.528-.713 2.08-1.265a5.236 5.236 0 0 0 1.266-2.023c.282-.805.422-1.721.422-2.75V9.176h4.612v13.079c0 1.493-.252 2.851-.757 4.073a8.65 8.65 0 0 1-2.196 3.142c-.96.873-2.139 1.547-3.535 2.022-1.387.476-2.973.713-4.758.713-1.784 0-3.374-.237-4.771-.713-1.387-.475-2.56-1.149-3.52-2.022a8.65 8.65 0 0 1-2.197-3.142c-.505-1.222-.757-2.58-.757-4.073V9.175zm25.677 0h4.64v22.738h-4.64V9.175zm6.808 14.228c0-1.367.257-2.6.77-3.695a8.277 8.277 0 0 1 2.125-2.822c.912-.786 1.988-1.387 3.23-1.804 1.25-.427 2.603-.64 4.058-.64.62 0 1.232.038 1.833.116.611.078 1.193.184 1.746.32.562.136 1.086.3 1.571.495.495.184.931.388 1.31.61V7.78h4.305v24.134h-4.306V30.3c-.378.261-.824.509-1.338.741a12.78 12.78 0 0 1-1.659.611c-.591.175-1.207.31-1.847.408-.63.106-1.256.16-1.877.16-1.454 0-2.793-.214-4.015-.64-1.212-.427-2.255-1.028-3.127-1.804a8.324 8.324 0 0 1-2.052-2.779c-.485-1.086-.727-2.284-.727-3.593zm4.524 0c0 .689.136 1.338.407 1.95.282.61.68 1.149 1.193 1.614.524.456 1.15.82 1.877 1.091.737.262 1.562.393 2.473.393a9.66 9.66 0 0 0 1.746-.16c.582-.116 1.14-.276 1.673-.48a8.435 8.435 0 0 0 1.513-.742 6.317 6.317 0 0 0 1.236-.975v-5.95a7.782 7.782 0 0 0-1.382-.887 9.692 9.692 0 0 0-1.484-.597 9.347 9.347 0 0 0-1.527-.334 10.035 10.035 0 0 0-1.498-.117c-.99 0-1.872.136-2.648.408-.766.262-1.416.625-1.95 1.09a4.787 4.787 0 0 0-1.207 1.645 4.976 4.976 0 0 0-.422 2.051zm19.028-.131c0-1.164.238-2.274.713-3.331a8.446 8.446 0 0 1 2.051-2.823c.893-.814 1.984-1.464 3.274-1.949 1.299-.485 2.773-.727 4.422-.727 1.639 0 3.113.247 4.422.742 1.319.485 2.435 1.154 3.346 2.007a8.596 8.596 0 0 1 2.11 3.012 9.328 9.328 0 0 1 .742 3.71c0 .164-.005.343-.015.537 0 .185-.01.354-.029.51h-16.235c.184.514.48.984.887 1.41A5.74 5.74 0 0 0 113 27.477c.621.31 1.338.553 2.153.728.815.165 1.717.247 2.706.247.989 0 1.974-.102 2.953-.306.98-.213 1.915-.48 2.808-.8l1.454 3.288c-.562.262-1.134.495-1.716.698-.572.194-1.174.36-1.804.495a19.43 19.43 0 0 1-1.964.29c-.679.069-1.397.103-2.153.103-1.93 0-3.622-.233-5.077-.699-1.455-.465-2.672-1.1-3.652-1.905-.979-.805-1.716-1.75-2.211-2.837a8.369 8.369 0 0 1-.742-3.506zm16.512-1.673a4.123 4.123 0 0 0-.728-1.324 4.468 4.468 0 0 0-1.207-1.076 6.067 6.067 0 0 0-1.688-.728 7.999 7.999 0 0 0-2.109-.262c-.815 0-1.557.093-2.226.277a6.771 6.771 0 0 0-1.76.742 5.14 5.14 0 0 0-1.266 1.076 4.22 4.22 0 0 0-.727 1.295h11.711zm6.313 1.775c0-1.26.228-2.434.684-3.52a7.978 7.978 0 0 1 2.022-2.837c.893-.805 1.979-1.436 3.259-1.892 1.29-.455 2.759-.683 4.408-.683a18.17 18.17 0 0 1 4.262.509c.679.155 1.314.344 1.906.567a8.79 8.79 0 0 1 1.542.713l-1.993 3.244a14.478 14.478 0 0 0-2.677-.96 10.688 10.688 0 0 0-2.546-.306c-.989 0-1.876.131-2.662.393-.785.252-1.455.611-2.007 1.077a4.65 4.65 0 0 0-1.251 1.63c-.282.62-.422 1.299-.422 2.036 0 .737.15 1.42.451 2.051.31.62.742 1.159 1.294 1.615.563.446 1.237.8 2.023 1.062.795.252 1.677.378 2.647.378 1.067 0 2.071-.15 3.012-.451.95-.3 1.832-.703 2.647-1.207l1.993 3.244c-.514.31-1.072.6-1.673.873-.601.261-1.246.49-1.935.683-.679.194-1.396.345-2.153.451-.746.117-1.522.175-2.327.175-1.639 0-3.109-.223-4.408-.67-1.3-.445-2.401-1.061-3.302-1.847a8.197 8.197 0 0 1-2.081-2.808c-.475-1.076-.713-2.25-.713-3.52zm21.385-15.595h4.306v14.256l8.031-7.288h6.59l-8.976 8.03 9.543 9.136H163l-6.386-6.182-2.343 2.094v4.088h-4.306V7.78z" fill="#fff"/></svg>