<svg width="171" height="40" fill="none" xmlns="http://www.w3.org/2000/svg"><path d="M35.1 14.735v12.572a7.425 7.425 0 0 1-3.474 6.286L21.518 39.95a.325.325 0 0 1-.498-.272v-4.45c0-.73.363-1.41.97-1.817l6.448-4.3a3.24 3.24 0 0 0 1.442-2.69v-8.666c0-.692.369-1.333.97-1.682l3.28-1.888a.648.648 0 0 1 .97.562v-.012z" fill="#625DF5"/><path d="M34.317 10.971l-14.28 8.246a3.224 3.224 0 0 0-1.616 2.8v17.37a.32.32 0 0 1-.485.279L4.704 31.97a7.573 7.573 0 0 1-3.77-6.551V14.903A8.865 8.865 0 0 1 5.37 7.221L17.412.26a1.928 1.928 0 0 1 1.94 0l3.014 1.74a.971.971 0 0 1 0 1.682L7.989 11.98a3.224 3.224 0 0 0-1.617 2.8v9.999c0 1.157.615 2.224 1.617 2.8l4.766 2.748a.15.15 0 0 0 .227-.129v-9.933a5.633 5.633 0 0 1 2.82-4.883l13.813-7.974a1.934 1.934 0 0 1 2.063.078l2.697 1.843a.971.971 0 0 1-.065 1.642h.007z" fill="#625DF5"/><path d="M50.652 9.175h4.611v12.526c0 1.028.141 1.944.422 2.75.282.795.699 1.469 1.251 2.021.563.553 1.256.975 2.08 1.266.825.281 1.785.422 2.881.422 1.086 0 2.042-.14 2.866-.422.834-.29 1.527-.713 2.08-1.265a5.236 5.236 0 0 0 1.266-2.023c.281-.805.422-1.721.422-2.75V9.176h4.611v13.079c0 1.493-.252 2.851-.756 4.073a8.65 8.65 0 0 1-2.197 3.142c-.96.873-2.138 1.547-3.535 2.022-1.387.476-2.972.713-4.757.713-1.784 0-3.375-.237-4.771-.713-1.387-.475-2.56-1.149-3.521-2.022a8.65 8.65 0 0 1-2.197-3.142c-.504-1.222-.756-2.58-.756-4.073V9.175zm25.676 0h4.64v22.738h-4.64V9.175zm6.808 14.228c0-1.367.258-2.6.772-3.695a8.278 8.278 0 0 1 2.123-2.822c.912-.786 1.989-1.387 3.23-1.804 1.251-.427 2.604-.64 4.059-.64.62 0 1.232.038 1.833.116.61.078 1.193.184 1.745.32.563.136 1.087.3 1.572.495.494.184.93.388 1.309.61V7.78h4.306v24.134h-4.306V30.3c-.378.261-.825.509-1.338.741-.514.233-1.067.437-1.659.611-.591.175-1.207.31-1.847.408-.63.106-1.256.16-1.877.16-1.455 0-2.793-.214-4.015-.64-1.213-.427-2.255-1.028-3.128-1.804a8.324 8.324 0 0 1-2.051-2.779c-.485-1.086-.728-2.284-.728-3.593zm4.525 0c0 .689.135 1.338.407 1.95.281.61.679 1.149 1.193 1.614.524.456 1.15.82 1.877 1.091.737.262 1.561.393 2.473.393a9.66 9.66 0 0 0 1.745-.16c.582-.117 1.14-.276 1.673-.48a8.422 8.422 0 0 0 1.513-.742 6.31 6.31 0 0 0 1.237-.975v-5.95a7.768 7.768 0 0 0-1.382-.887 9.678 9.678 0 0 0-1.484-.597 9.357 9.357 0 0 0-1.528-.334 10.048 10.048 0 0 0-1.498-.117c-.99 0-1.872.136-2.647.408-.767.262-1.416.625-1.95 1.09a4.788 4.788 0 0 0-1.207 1.645 4.978 4.978 0 0 0-.422 2.05zm19.028-.131c0-1.164.238-2.274.713-3.331a8.446 8.446 0 0 1 2.051-2.823c.892-.814 1.983-1.464 3.273-1.949 1.3-.485 2.774-.727 4.423-.727 1.639 0 3.113.247 4.422.742 1.319.485 2.434 1.154 3.346 2.007a8.607 8.607 0 0 1 2.109 3.012 9.31 9.31 0 0 1 .742 3.71c0 .164-.005.343-.014.537a4.2 4.2 0 0 1-.029.51H111.49c.184.514.48.984.887 1.41.417.427.936.796 1.557 1.106.62.31 1.338.553 2.153.728a13.66 13.66 0 0 0 2.705.247c.99 0 1.974-.102 2.954-.306.979-.213 1.915-.48 2.807-.8l1.455 3.288c-.562.262-1.135.495-1.717.698-.572.194-1.173.36-1.803.495a19.53 19.53 0 0 1-1.964.29 21.67 21.67 0 0 1-2.153.103c-1.93 0-3.623-.233-5.077-.699-1.455-.465-2.672-1.1-3.652-1.905-.979-.805-1.717-1.75-2.211-2.837a8.354 8.354 0 0 1-.742-3.506zm16.511-1.673a4.12 4.12 0 0 0-.727-1.324 4.483 4.483 0 0 0-1.207-1.076 6.083 6.083 0 0 0-1.688-.728 8.003 8.003 0 0 0-2.109-.262c-.815 0-1.557.093-2.226.277a6.764 6.764 0 0 0-1.76.742c-.505.31-.927.669-1.266 1.076-.33.408-.572.84-.727 1.295h11.71zm6.314 1.775c0-1.26.228-2.434.684-3.52a7.952 7.952 0 0 1 2.022-2.837c.892-.805 1.978-1.436 3.258-1.892 1.29-.455 2.76-.683 4.408-.683a18.174 18.174 0 0 1 4.263.509c.679.155 1.314.344 1.906.567.591.213 1.105.451 1.542.713l-1.993 3.244a14.47 14.47 0 0 0-2.677-.96 10.694 10.694 0 0 0-2.546-.306c-.989 0-1.877.131-2.662.393-.786.252-1.455.611-2.008 1.077a4.65 4.65 0 0 0-1.251 1.63 4.88 4.88 0 0 0-.422 2.036c0 .737.151 1.42.451 2.05.311.622.742 1.16 1.295 1.616.562.446 1.237.8 2.022 1.062.795.252 1.678.378 2.648.378 1.067 0 2.07-.15 3.011-.451.951-.3 1.833-.703 2.648-1.207l1.993 3.244c-.514.31-1.072.6-1.673.873a15.946 15.946 0 0 1-4.088 1.135c-.747.115-1.523.174-2.328.174-1.639 0-3.108-.223-4.408-.67-1.299-.446-2.4-1.061-3.302-1.847a8.193 8.193 0 0 1-2.08-2.808c-.475-1.076-.713-2.25-.713-3.52zm21.385-15.595h4.306v14.256l8.03-7.288h6.59l-8.976 8.03 9.544 9.136h-6.46l-6.386-6.183-2.342 2.095v4.088h-4.306V7.78z" fill="#101828"/></svg>