<svg width="654" height="154" fill="none" xmlns="http://www.w3.org/2000/svg"><path d="M198.046 27h-2.092c-4.945 0-8.954 4.15-8.954 9.27v84.46c0 5.12 4.009 9.27 8.954 9.27h2.092c4.945 0 8.954-4.15 8.954-9.27V36.27c0-5.12-4.009-9.27-8.954-9.27z" fill="#65BD56"/><path d="M273.379 30.696l-.453-.602a9.27 9.27 0 0 0-12.981-1.83l-38.592 29.049a9.27 9.27 0 0 0-1.831 12.98l.452.602a9.27 9.27 0 0 0 12.981 1.831l38.592-29.05c4.091-3.078 4.91-8.89 1.832-12.98z" fill="#0099CB"/><path d="M273.429 124.52l.444-.608a9.27 9.27 0 0 0-2.005-12.955l-38.979-28.528a9.27 9.27 0 0 0-12.955 2.005l-.445.608a9.27 9.27 0 0 0 2.006 12.955l38.979 28.528a9.27 9.27 0 0 0 12.955-2.005z" fill="#65BD56"/><path d="M297.65 119.827c-.559 1.152-1.251 2.04-2.062 2.636-.825.596-1.677 1.007-2.582 1.219-.904.212-1.663.318-2.262.318-.692 0-1.463-.106-2.328-.318-.865-.212-1.704-.623-2.515-1.219-.825-.596-1.504-1.484-2.063-2.636-.559-1.153-.838-2.637-.838-4.438v-47.23c0-1.709.279-3.113.838-4.186.559-1.073 1.224-1.908 2.01-2.504.771-.596 1.57-1.007 2.395-1.219.811-.212 1.53-.318 2.129-.318.598 0 1.33.106 2.195.318.865.212 1.677.623 2.462 1.219.772.596 1.437 1.444 2.009 2.504.559 1.073.838 2.464.838 4.186v3.22h.253c2.262-4.094 4.684-6.519 7.465-8.559 3.007-2.212 6.187-3.656 9.98-3.802 4.205-.146 5.442.623 7.026 1.391 1.995.967 3.126 2.65 3.326 4.875.2 2.226.186 4.001-2.595 6.571-1.45 1.352-3.912 1.736-8.116 1.71-4.911-.04-10.033 1.655-12.708 4.954-2.675 3.299-4.005 7.525-4.005 12.679v24.191c0 1.801-.28 3.285-.838 4.438h-.014zM354 42.953c0 2.567-.83 4.7-2.479 6.398-1.66 1.699-3.694 2.554-6.126 2.554-2.432 0-4.431-.895-6.022-2.672-1.578-1.778-2.373-3.871-2.373-6.28 0-2.41.795-4.49 2.373-6.28 1.579-1.778 3.59-2.673 6.022-2.673 2.432 0 4.466.856 6.126 2.554 1.661 1.698 2.479 3.831 2.479 6.399zm-1.882 72.713c0 1.738-.234 3.173-.714 4.292-.479 1.119-1.064 1.975-1.765 2.541-.702.579-1.438.974-2.21 1.185-.772.211-1.415.316-1.929.316-.585 0-1.251-.105-1.988-.316-.736-.211-1.449-.606-2.151-1.185-.701-.579-1.286-1.435-1.765-2.541-.48-1.119-.714-2.554-.714-4.292V70.429c0-1.738.234-3.173.714-4.292.479-1.119 1.064-1.962 1.765-2.554.702-.58 1.415-.974 2.151-1.185.737-.21 1.392-.316 1.988-.316.514 0 1.157.106 1.929.316.772.21 1.508.606 2.21 1.185.701.58 1.286 1.435 1.765 2.554.48 1.12.714 2.554.714 4.292v45.237zm28.192 4.161c-.546 1.152-1.222 2.04-2.015 2.636-.806.596-1.638 1.007-2.521 1.219-.884.212-1.625.318-2.21.318-.676 0-1.429-.106-2.274-.318-.845-.212-1.664-.623-2.457-1.219-.806-.596-1.468-1.484-2.014-2.636-.546-1.153-.819-2.637-.819-4.438v-47.23c0-1.709.273-3.113.819-4.186.546-1.073 1.196-1.908 1.962-2.504.754-.596 1.534-1.007 2.34-1.219.793-.212 1.494-.318 2.079-.318.585 0 1.3.106 2.145.318.845.212 1.637.623 2.404 1.219.754.596 1.404 1.444 1.963 2.504.546 1.073.818 2.464.818 4.186v3.22h.247c2.21-4.094 4.575-6.519 7.292-8.559 2.937-2.212 6.043-3.656 9.747-3.802 4.107-.146 5.316.623 6.863 1.391 1.949.967 3.054 2.65 3.249 4.875.195 2.226.182 4.001-2.535 6.571-1.416 1.352-3.821 1.736-7.928 1.71-4.796-.04-9.799 1.655-12.412 4.954-2.612 3.299-3.912 7.525-3.912 12.679v24.191c0 1.801-.273 3.285-.818 4.438h-.013zm87.69-4.17c0 1.687-.245 3.053-.734 4.111-.489 1.058-1.094 1.875-1.828 2.464-.734.59-1.481.964-2.253 1.139-.773.174-1.442.254-2.009.254s-1.236-.08-2.009-.254c-.772-.175-1.519-.549-2.253-1.139-.734-.589-1.339-1.406-1.828-2.464-.489-1.058-.734-2.424-.734-4.111v-.884h-.361c-1.455 2.692-3.811 4.915-7.055 6.642-3.245 1.728-6.927 2.585-11.06 2.585-2.357 0-4.803-.321-7.352-.951a21.512 21.512 0 0 1-7.056-3.16c-2.15-1.473-3.927-3.415-5.344-5.812-1.416-2.398-2.124-5.371-2.124-8.919 0-4.554 1.236-8.17 3.708-10.875 2.472-2.692 5.653-4.767 9.541-6.2 3.888-1.433 8.202-2.384 12.94-2.84 4.738-.468 9.373-.696 13.918-.696v-1.513c0-3.79-1.313-6.589-3.953-8.41-2.639-1.808-5.768-2.719-9.424-2.719-2.266 0-4.417.429-6.438 1.26-2.022.843-4.095 1.941-6.193 3.28-1.378.844-2.678 1.26-3.889 1.26-1.545 0-2.832-.55-3.888-1.648-1.056-1.098-1.584-2.491-1.584-4.178 0-.924.219-1.902.67-2.906.45-1.018 1.352-1.982 2.729-2.906 2.756-1.942 5.833-3.429 9.245-4.487 3.399-1.058 6.927-1.58 10.571-1.58 5.189 0 9.463.763 12.824 2.277 3.36 1.513 6.013 3.495 7.957 5.946a21.648 21.648 0 0 1 4.069 8.222 36.82 36.82 0 0 1 1.158 9.107v30.091l.039.014zm-17.137-20.865c-2.357 0-4.829.107-7.417.322-2.601.214-4.982.67-7.171 1.392-2.189.724-4.018 1.728-5.472 3.04-1.455 1.313-2.189 3.094-2.189 5.37 0 1.433.309 2.639.914 3.603a7.22 7.22 0 0 0 2.369 2.344 10.18 10.18 0 0 0 3.283 1.258c1.211.255 2.434.375 3.644.375 5.021 0 8.833-1.392 11.421-4.178 2.588-2.785 3.888-6.575 3.888-11.383v-2.156h-3.283l.013.013zm90.715 7.785h-40.513l-6.351 15.41c-1.004 2.509-2.219 4.141-3.684 4.885-1.453.756-2.853 1.128-4.173 1.128-2.166 0-4.014-.69-5.546-2.071-1.545-1.38-2.311-3.278-2.311-5.707 0-.664.079-1.354.251-2.071.172-.703.462-1.566.871-2.575l31.785-71.05c.752-1.673 1.531-3.013 2.363-4.009.832-.995 1.664-1.752 2.496-2.256.832-.505 1.664-.836 2.496-1.009a11.654 11.654 0 0 1 2.363-.252c.74 0 1.532.08 2.364.252.832.173 1.677.505 2.549 1.009.871.504 1.73 1.248 2.561 2.256.832 1.01 1.625 2.336 2.364 4.009l31.547 70.798c.409 1.009.686 1.885.805 2.628.119.757.185 1.381.185 1.885 0 2.588-.805 4.593-2.43 6.013-1.624 1.42-3.512 2.137-5.678 2.137-1.333 0-2.72-.372-4.173-1.129-1.452-.756-2.72-2.415-3.803-5.017l-6.364-15.29.026.026zm-34.9-13.538h29.42l-14.591-35.585-14.829 35.585zM589 115.092c0 1.925-.314 3.452-.943 4.58-.628 1.129-1.371 2.031-2.228 2.695-.858.664-1.772 1.102-2.772 1.314-.986.213-1.843.319-2.557.319s-1.571-.106-2.557-.319c-.986-.212-1.914-.65-2.772-1.314-.857-.664-1.6-1.566-2.228-2.695-.629-1.128-.943-2.655-.943-4.58V41.908c0-1.832.314-3.346.943-4.514.628-1.168 1.371-2.084 2.228-2.761.858-.664 1.772-1.102 2.772-1.314.986-.213 1.843-.319 2.557-.319s1.571.106 2.557.319c.986.212 1.914.65 2.772 1.314.857.664 1.6 1.593 2.228 2.761.629 1.168.943 2.668.943 4.514v73.184zm10-88.869c.013-.211.026-.41.052-.621.077-.648.129-1.296.219-1.93.129-.913.349-1.799.62-2.685a19.95 19.95 0 0 1 2.724-5.593 19.368 19.368 0 0 1 3.033-3.424 19.826 19.826 0 0 1 4.88-3.227c1.265-.581 2.582-1.044 3.95-1.309a25.022 25.022 0 0 1 2.221-.343c.904-.106 1.807-.106 2.711-.067a18.884 18.884 0 0 1 8.391 2.406 19.178 19.178 0 0 1 3.24 2.275 19.84 19.84 0 0 1 3.679 4.205 20.433 20.433 0 0 1 2.453 5.289c.271.899.478 1.798.607 2.724.077.581.155 1.176.181 1.771.038.767.051 1.534.026 2.301-.039.754-.142 1.494-.233 2.235-.142 1.057-.413 2.102-.749 3.12a19.807 19.807 0 0 1-1.484 3.411 19.997 19.997 0 0 1-1.911 2.87 20.306 20.306 0 0 1-2.117 2.26 19.854 19.854 0 0 1-3.279 2.434 19.972 19.972 0 0 1-3.356 1.573c-.956.344-1.924.608-2.931.78-.607.106-1.213.172-1.82.238a15.63 15.63 0 0 1-2.608.053 29 29 0 0 1-1.872-.198 17.71 17.71 0 0 1-3.395-.833 18.382 18.382 0 0 1-4.531-2.3 20.475 20.475 0 0 1-2.84-2.368 20.185 20.185 0 0 1-4.002-5.765 19.948 19.948 0 0 1-1.536-4.945c-.104-.608-.168-1.216-.233-1.825a18.78 18.78 0 0 1-.051-.82.476.476 0 0 0-.026-.131v-1.521l-.013-.04zm2.995.74c0 9.349 7.358 16.899 16.472 16.912 9.089.013 16.512-7.51 16.525-16.885 0-9.269-7.281-16.911-16.499-16.924-9.101 0-16.485 7.497-16.511 16.884l.013.014z" fill="#F7F7F7"/><path d="M622.399 29.401c1.689 2.538 3.378 5.047 5.082 7.599h-3.378c-.09 0-.151-.029-.196-.1-1.462-2.194-2.925-4.373-4.388-6.552l-.407-.602a.2.2 0 0 0-.151-.086H614.513v7.326H611V17h9.228c1.116 0 2.232.1 3.287.488.694.258 1.402.487 2.036.903.407.272.723.602 1.055.946.513.53.89 1.133 1.056 1.85.15.659.301 1.318.331 1.992.031.56-.045 1.119-.181 1.678a9.876 9.876 0 0 1-.392 1.347c-.271.645-.753 1.162-1.296 1.62-.86.732-1.885 1.119-2.986 1.391-.241.057-.467.115-.724.172l-.015.014zm-7.886-2.566H619.851c.362 0 .724-.057 1.071-.143.407-.086.799-.23 1.206-.344.317-.1.633-.172.905-.373.512-.387.95-.817 1.191-1.405.286-.746.316-1.52.181-2.28-.106-.573-.392-1.09-.905-1.448-.286-.186-.558-.387-.859-.544a5.303 5.303 0 0 0-.89-.373c-.256-.072-.543-.086-.814-.115-.438-.043-.86-.129-1.297-.129-1.659-.014-3.302 0-4.961 0h-.151v7.168l-.015-.014z" fill="#F7F7F7"/><path d="M11.2 66.69c.28-17.14 5.77-31.42 16.98-43.41.41-.44.85-.87 1.32-1.26 1.4-1.17 2.86-1.11 4.09.14 1.2 1.22.99 2.68-.01 3.94-1.81 2.25-3.86 4.32-5.54 6.66-8.8 12.21-12.2 25.78-10.22 40.75 1.38 10.48 5.49 19.68 12.05 27.89 1.04 1.3 1.77 2.06 3.71 1.11 3.58-1.75 7.6.05 9.07 3.63 1.39 3.4-.2 7.25-3.63 8.74-3.47 1.52-7.26-.01-9.01-3.51-.6-1.2-1.41-2.33-2.32-3.32C16.81 96.1 11.5 82 11.22 66.7l-.02-.01zm25.22 37.57c-2.39-.03-4.4 1.86-4.49 4.23-.09 2.42 1.97 4.53 4.42 4.54 2.34 0 4.31-1.97 4.36-4.37.04-2.39-1.89-4.37-4.28-4.4h-.01z" fill="#65BD56"/><path d="M3.6 73.43c0-.99-.1-1.99.02-2.96.2-1.59 1-2.73 2.8-2.71 1.83.02 2.77 1.05 2.95 2.82.34 3.4.47 6.82 1.03 10.18 1.82 11.05 6.83 20.57 14.56 28.61 10.36 10.78 23.01 16.66 38 17.38 1.54.07 2.45-.25 3.22-1.76 1.83-3.59 6.01-4.69 9.35-2.69 3.08 1.85 4.12 6.06 2.27 9.21-1.93 3.28-6.18 4.17-9.59 2.15-.97-.58-2.2-1.01-3.32-1.03-30.24-.59-55.35-21.92-60.49-51.5-.44-2.54-.59-5.13-.87-7.7h.08-.01zm72.93 54.78c.01-2.46-2.02-4.52-4.47-4.53-2.42 0-4.51 2.1-4.49 4.52.01 2.36 2.21 4.46 4.61 4.42 2.3-.04 4.34-2.11 4.35-4.42v.01z" fill="#0099CB"/><path d="M63.35 151.53c-.91-.11-1.81-.24-2.72-.32-1.62-.13-2.49-1.31-2.25-2.59.19-1.02 1.25-2.2 2.23-2.64 1.01-.45 2.38-.14 3.59-.07 19.29 1.13 35.04-5.97 47.41-20.63 6.3-7.47 10.18-16.14 11.91-25.78.21-1.16.21-1.89-1.09-2.53-3.47-1.71-4.81-5.44-3.31-8.6 1.57-3.31 5.38-4.87 8.62-3.53 3.38 1.4 5.31 5.34 3.45 8.68-1.79 3.21-1.89 6.66-2.74 9.99-6.14 23.95-21.15 39.3-44.79 46.19-6.6 1.92-13.42 2.51-20.31 1.81v.02zm62.45-64.92c-2.64-.29-4.88 1.47-5.11 4.01-.23 2.5 1.7 4.77 4.24 4.98 2.35.2 4.71-1.76 4.9-4.08.21-2.41-1.63-4.65-4.04-4.91h.01z" fill="#0099CB"/><path d="M65.66 141.73c-17.02-.23-31.07-5.51-42.97-16.32-.62-.56-1.24-1.14-1.75-1.8-.9-1.17-1.36-2.45-.13-3.69 1.24-1.25 2.59-1.13 3.87-.06 2.09 1.76 4.06 3.68 6.23 5.33 20.62 15.63 50.28 14.68 69.92-2.15 1.37-1.17 1.69-2.16.8-3.89-1.48-2.91.38-7.01 3.51-8.38 3.11-1.36 7.05.22 8.43 3.38 1.46 3.31-.08 6.71-3.09 8.5-3.03 1.79-5.68 4.22-8.51 6.36-11.04 8.34-23.5 12.53-36.31 12.72zm41.95-20.17c2.48-.02 4.71-2.23 4.69-4.64-.03-2.56-2.36-4.79-4.92-4.7-2.35.08-4.48 2.46-4.42 4.95.06 2.38 2.21 4.41 4.65 4.39z" fill="#65BD56"/><path d="M139.38 99.99c-2.23 17-9.3 30.56-21.8 41.2-.46.39-.95.77-1.45 1.1-1.52 1-2.97.78-4.05-.6-1.06-1.35-.68-2.78.46-3.91 2.05-2.03 4.32-3.85 6.26-5.98 10.13-11.13 15.05-24.22 14.78-39.32-.18-10.56-3.22-20.18-8.8-29.07-.88-1.41-1.53-2.25-3.56-1.52-3.75 1.34-7.54-.91-8.59-4.64-1-3.54 1.03-7.18 4.6-8.27 3.62-1.11 7.21.84 8.55 4.51.46 1.26 1.14 2.47 1.92 3.56 9.46 13.1 13.13 27.72 11.67 42.95l.01-.01zM118.59 59.8c2.37.3 4.58-1.35 4.94-3.69.37-2.39-1.44-4.73-3.87-5.02-2.33-.27-4.51 1.47-4.83 3.85a4.344 4.344 0 0 0 3.76 4.86z" fill="#65BD56"/><path d="M148.13 92.83c-.14.98-.19 1.98-.45 2.92-.43 1.54-1.39 2.56-3.16 2.27-1.81-.29-2.59-1.45-2.51-3.22.16-3.41.52-6.82.47-10.22-.19-11.2-3.76-21.34-10.24-30.42-8.68-12.17-20.34-19.82-35.07-22.72-1.52-.3-2.46-.11-3.44 1.27-2.33 3.29-6.63 3.77-9.64 1.31-2.78-2.28-3.19-6.6-.91-9.44 2.38-2.97 6.72-3.23 9.8-.73.88.71 2.03 1.32 3.13 1.5 29.83 4.99 51.58 29.74 52.36 59.75.07 2.58-.31 7.75-.34 7.74v-.01zm-64.19-64.8c-.37 2.43 1.34 4.77 3.76 5.13 2.39.36 4.76-1.42 5.1-3.82.33-2.34-1.53-4.74-3.91-5.04-2.28-.29-4.6 1.46-4.95 3.74v-.01zm2.92-21.02c.91.1 1.81.24 2.72.31 1.63.12 2.49 1.3 2.26 2.58-.19 1.02-1.24 2.21-2.22 2.65-1.01.45-2.38.15-3.59.08-19.29-1.05-35.01 6.1-47.33 20.81-6.27 7.49-10.12 16.18-11.81 25.82-.2 1.16-.2 1.89 1.1 2.53 3.47 1.7 4.83 5.42 3.34 8.58-1.56 3.32-5.36 4.89-8.61 3.57-3.39-1.39-5.33-5.32-3.48-8.67 1.78-3.22 1.86-6.67 2.7-10 6.05-23.97 21-39.38 44.61-46.37 6.59-1.95 13.41-2.56 20.3-1.88l.01-.01zm-62.2 65.16c2.64.28 4.88-1.49 5.1-4.03.22-2.51-1.72-4.76-4.26-4.96-2.35-.19-4.7 1.78-4.89 4.1-.2 2.41 1.65 4.64 4.06 4.89h-.01z" fill="#0099CB"/><path d="M92.77 15.11c16.98 1.22 30.7 7.31 41.95 18.79.58.6 1.17 1.21 1.64 1.9.83 1.22 1.21 2.52-.08 3.69-1.31 1.18-2.65.98-3.87-.17-1.99-1.88-3.84-3.91-5.91-5.68-1-.85-33.57-29.56-69.92-1.92-1.44 1.09-1.81 2.06-1.03 3.84 1.31 2.99-.79 6.98-3.99 8.16-3.19 1.17-7.02-.63-8.22-3.86-1.26-3.39.47-6.7 3.58-8.3 3.13-1.61 5.92-3.88 8.86-5.85 11.51-7.68 24.19-11.14 36.99-10.58v-.02zM49.71 32.8c-2.47-.13-4.83 1.95-4.95 4.36-.12 2.55 2.08 4.92 4.63 4.98 2.35.06 4.61-2.2 4.7-4.68.08-2.38-1.95-4.53-4.38-4.65v-.01z" fill="#65BD56"/></svg>