<svg width="533" height="154" fill="none" xmlns="http://www.w3.org/2000/svg"><path d="M195.66 41.989h-1.64a7.02 7.02 0 0 0-7.02 7.02v63.96a7.02 7.02 0 0 0 7.02 7.02h1.64a7.02 7.02 0 0 0 7.02-7.02v-63.96a7.02 7.02 0 0 0-7.02-7.02z" fill="#65BD56"/><path d="M252.203 44.945l-.343-.456a7.02 7.02 0 0 0-9.83-1.387l-29.226 22a7.02 7.02 0 0 0-1.387 9.83l.343.455a7.02 7.02 0 0 0 9.83 1.387l29.226-21.999a7.02 7.02 0 0 0 1.387-9.83z" fill="#0099CB"/><path d="M252.241 115.997l.337-.46a7.022 7.022 0 0 0-1.519-9.811L221.54 84.122a7.02 7.02 0 0 0-9.811 1.519l-.336.46a7.02 7.02 0 0 0 1.518 9.81l29.519 21.605a7.02 7.02 0 0 0 9.811-1.519z" fill="#65BD56"/><path d="M271.13 112.369c-.42.87-.94 1.539-1.55 1.989-.62.45-1.26.76-1.94.92-.68.16-1.25.24-1.7.24-.52 0-1.1-.08-1.75-.24-.65-.16-1.28-.47-1.89-.92-.62-.45-1.13-1.119-1.55-1.989-.42-.87-.63-1.991-.63-3.351v-35.65c0-1.29.21-2.35.63-3.16.42-.81.92-1.44 1.51-1.89.58-.45 1.18-.76 1.8-.92.61-.16 1.15-.24 1.6-.24.45 0 1 .08 1.65.24.65.16 1.26.47 1.85.92.58.45 1.08 1.09 1.51 1.89.42.81.63 1.86.63 3.16v2.43h.19c1.7-3.09 3.52-4.92 5.61-6.46 2.26-1.67 4.65-2.76 7.5-2.87 3.16-.11 4.09.47 5.28 1.05 1.5.73 2.35 2 2.5 3.68.15 1.68.14 3.02-1.95 4.96-1.09 1.02-2.94 1.31-6.1 1.29-3.69-.03-7.54 1.25-9.55 3.74-2.01 2.49-3.01 5.68-3.01 9.57v18.26c0 1.36-.21 2.481-.63 3.351h-.01zm42.58-58.4c0 1.95-.71 3.57-2.12 4.86-1.42 1.29-3.16 1.94-5.24 1.94s-3.79-.68-5.15-2.03c-1.35-1.35-2.03-2.94-2.03-4.77 0-1.83.68-3.41 2.03-4.77 1.35-1.35 3.07-2.03 5.15-2.03 2.08 0 3.82.65 5.24 1.94 1.42 1.29 2.12 2.91 2.12 4.86zm-1.61 55.229c0 1.32-.2 2.41-.61 3.26-.41.85-.91 1.5-1.51 1.93-.6.44-1.23.74-1.89.9-.66.16-1.21.24-1.65.24-.5 0-1.07-.08-1.7-.24-.63-.16-1.24-.46-1.84-.9-.6-.44-1.1-1.09-1.51-1.93-.41-.85-.61-1.94-.61-3.26v-34.36c0-1.32.2-2.41.61-3.26.41-.85.91-1.49 1.51-1.94.6-.44 1.21-.74 1.84-.9.63-.16 1.19-.24 1.7-.24.44 0 .99.08 1.65.24.66.16 1.29.46 1.89.9.6.44 1.1 1.09 1.51 1.94.41.85.61 1.94.61 3.26v34.36zm20.56 3.171c-.42.87-.94 1.539-1.55 1.989-.62.45-1.26.76-1.94.92-.68.16-1.25.24-1.7.24-.52 0-1.1-.08-1.75-.24-.65-.16-1.28-.47-1.89-.92-.62-.45-1.13-1.119-1.55-1.989-.42-.87-.63-1.991-.63-3.351v-35.65c0-1.29.21-2.35.63-3.16.42-.81.92-1.44 1.51-1.89.58-.45 1.18-.76 1.8-.92.61-.16 1.15-.24 1.6-.24.45 0 1 .08 1.65.24.65.16 1.26.47 1.85.92.58.45 1.08 1.09 1.51 1.89.42.81.63 1.86.63 3.16v2.43h.19c1.7-3.09 3.52-4.92 5.61-6.46 2.26-1.67 4.65-2.76 7.5-2.87 3.16-.11 4.09.47 5.28 1.05 1.5.73 2.35 2 2.5 3.68.15 1.68.14 3.02-1.95 4.96-1.09 1.02-2.94 1.31-6.1 1.29-3.69-.03-7.54 1.25-9.55 3.74-2.01 2.49-3.01 5.68-3.01 9.57v18.26c0 1.36-.21 2.481-.63 3.351h-.01zm67.68-3.07c0 1.26-.19 2.28-.57 3.07-.38.79-.85 1.4-1.42 1.84-.57.44-1.15.72-1.75.85-.6.13-1.12.19-1.56.19-.44 0-.96-.06-1.56-.19-.6-.13-1.18-.41-1.75-.85-.57-.44-1.04-1.05-1.42-1.84-.38-.79-.57-1.81-.57-3.07v-.66h-.28c-1.13 2.01-2.96 3.67-5.48 4.96-2.52 1.29-5.38 1.93-8.59 1.93-1.83 0-3.73-.24-5.71-.71s-3.81-1.26-5.48-2.36c-1.67-1.1-3.05-2.55-4.15-4.34-1.1-1.79-1.65-4.01-1.65-6.66 0-3.4.96-6.1 2.88-8.12 1.92-2.01 4.39-3.56 7.41-4.63 3.02-1.07 6.37-1.78 10.05-2.12 3.68-.35 7.28-.52 10.81-.52v-1.13c0-2.83-1.02-4.92-3.07-6.28-2.05-1.35-4.48-2.03-7.32-2.03-1.76 0-3.43.32-5 .94-1.57.63-3.18 1.45-4.81 2.45-1.07.63-2.08.94-3.02.94-1.2 0-2.2-.41-3.02-1.23-.82-.82-1.23-1.86-1.23-3.12 0-.69.17-1.42.52-2.17.35-.76 1.05-1.48 2.12-2.17 2.14-1.45 4.53-2.56 7.18-3.35 2.64-.79 5.38-1.18 8.21-1.18 4.03 0 7.35.57 9.96 1.7 2.61 1.13 4.67 2.61 6.18 4.44a15.92 15.92 0 0 1 3.16 6.14c.6 2.27.9 4.53.9 6.8v22.47l.03.01zm-13.31-15.58c-1.83 0-3.75.08-5.76.24-2.02.16-3.87.5-5.57 1.04-1.7.54-3.12 1.29-4.25 2.27s-1.7 2.31-1.7 4.01c0 1.07.24 1.97.71 2.69s1.09 1.31 1.84 1.75c.76.44 1.61.76 2.55.94.94.19 1.89.28 2.83.28 3.9 0 6.86-1.04 8.87-3.12 2.01-2.08 3.02-4.91 3.02-8.5v-1.61h-2.55l.01.01zm68.25 5.66H424.6l-4.81 11.609c-.76 1.89-1.68 3.12-2.79 3.68-1.1.57-2.16.85-3.16.85-1.64 0-3.04-.52-4.2-1.56-1.17-1.04-1.75-2.47-1.75-4.3 0-.5.06-1.02.19-1.56.13-.53.35-1.18.66-1.94l24.07-53.53c.57-1.26 1.16-2.27 1.79-3.02.63-.75 1.26-1.32 1.89-1.7a6 6 0 0 1 1.89-.76c.63-.13 1.23-.19 1.79-.19s1.16.06 1.79.19c.63.13 1.27.38 1.93.76.66.38 1.31.94 1.94 1.7.63.76 1.23 1.76 1.79 3.02l23.89 53.34c.31.76.52 1.42.61 1.98.09.57.14 1.04.14 1.42 0 1.95-.61 3.46-1.84 4.53-1.23 1.07-2.66 1.61-4.3 1.61-1.01 0-2.06-.28-3.16-.85s-2.06-1.82-2.88-3.78l-4.82-11.52.02.02zm-26.43-10.2h22.28l-11.05-26.81-11.23 26.81zm61.95 19.64c0 1.45-.22 2.6-.66 3.45-.44.85-.96 1.53-1.56 2.03-.6.5-1.24.83-1.94.99-.69.16-1.29.24-1.79.24s-1.1-.08-1.79-.24c-.69-.16-1.34-.49-1.94-.99-.6-.5-1.12-1.18-1.56-2.03-.44-.85-.66-2-.66-3.45v-55.13c0-1.38.22-2.52.66-3.4.44-.88.96-1.57 1.56-2.08.6-.5 1.24-.83 1.94-.99.69-.16 1.29-.24 1.79-.24s1.1.08 1.79.24c.69.16 1.34.49 1.94.99.6.5 1.12 1.2 1.56 2.08.44.88.66 2.01.66 3.4v55.13zm7.66-67.28c.01-.16.02-.31.04-.47.06-.49.1-.98.17-1.46.1-.69.27-1.36.48-2.03.48-1.52 1.18-2.93 2.11-4.23.68-.95 1.46-1.82 2.35-2.59 1.14-1 2.4-1.81 3.78-2.44.98-.44 2-.79 3.06-.99.57-.11 1.14-.2 1.72-.26.7-.08 1.4-.08 2.1-.05 1.09.05 2.17.22 3.22.5 1.15.31 2.24.75 3.28 1.32.9.49 1.73 1.06 2.51 1.72 1.1.93 2.05 1.98 2.85 3.18a15.3 15.3 0 0 1 1.9 4c.21.68.37 1.36.47 2.06.06.44.12.89.14 1.34.03.58.04 1.16.02 1.74-.03.57-.11 1.13-.18 1.69-.11.8-.32 1.59-.58 2.36-.3.89-.68 1.75-1.15 2.58a15.111 15.111 0 0 1-3.12 3.88c-.78.7-1.63 1.31-2.54 1.84-.83.48-1.7.87-2.6 1.19-.74.26-1.49.46-2.27.59-.47.08-.94.13-1.41.18-.67.07-1.35.08-2.02.04-.49-.03-.97-.09-1.45-.15-.9-.12-1.77-.34-2.63-.63-1.25-.42-2.42-1-3.51-1.74a15.78 15.78 0 0 1-2.2-1.79 15.26 15.26 0 0 1-3.1-4.36c-.56-1.19-.96-2.44-1.19-3.74-.08-.46-.13-.92-.18-1.38-.02-.21-.03-.41-.04-.62 0-.03-.01-.07-.02-.1v-1.15l-.01-.03zm2.32.56c0 7.07 5.7 12.78 12.76 12.79 7.04.01 12.79-5.68 12.8-12.77 0-7.01-5.64-12.79-12.78-12.8-7.05 0-12.77 5.67-12.79 12.77l.01.01z" fill="#000"/><path d="M516.47 43.788c1.12 1.77 2.24 3.52 3.37 5.3h-2.24c-.06 0-.1-.02-.13-.07-.97-1.53-1.94-3.05-2.91-4.57l-.27-.42c-.02-.03-.06-.06-.1-.06h-2.95v5.11h-2.33v-13.94h6.12c.74 0 1.48.07 2.18.34.46.18.93.34 1.35.63.27.19.48.42.7.66.34.37.59.79.7 1.29.1.46.2.92.22 1.39.02.39-.03.78-.12 1.17-.07.32-.15.64-.26.94-.18.45-.5.81-.86 1.13-.57.51-1.25.78-1.98.97-.16.04-.31.08-.48.12l-.01.01zm-5.23-1.79h3.54c.24 0 .48-.04.71-.1.27-.06.53-.16.8-.24.21-.07.42-.12.6-.26.34-.27.63-.57.79-.98.19-.52.21-1.06.12-1.59-.07-.4-.26-.76-.6-1.01-.19-.13-.37-.27-.57-.38-.19-.1-.39-.2-.59-.26-.17-.05-.36-.06-.54-.08-.29-.03-.57-.09-.86-.09-1.1-.01-2.19 0-3.29 0h-.1v5l-.01-.01z" fill="#000"/><path d="M11.2 66.69c.28-17.14 5.77-31.42 16.98-43.41.41-.44.85-.87 1.32-1.26 1.4-1.17 2.86-1.11 4.09.14 1.2 1.22.99 2.68-.01 3.94-1.81 2.25-3.86 4.32-5.54 6.66-8.8 12.21-12.2 25.78-10.22 40.75 1.38 10.48 5.49 19.68 12.05 27.89 1.04 1.3 1.77 2.06 3.71 1.11 3.58-1.75 7.6.05 9.07 3.63 1.39 3.4-.2 7.25-3.63 8.74-3.47 1.52-7.26-.01-9.01-3.51-.6-1.2-1.41-2.33-2.32-3.32C16.81 96.1 11.5 82 11.22 66.7l-.02-.01zm25.22 37.57c-2.39-.03-4.4 1.86-4.49 4.23-.09 2.42 1.97 4.53 4.42 4.54 2.34 0 4.31-1.97 4.36-4.37.04-2.39-1.89-4.37-4.28-4.4h-.01z" fill="#65BD56"/><path d="M3.6 73.43c0-.99-.1-1.99.02-2.96.2-1.59 1-2.73 2.8-2.71 1.83.02 2.77 1.05 2.95 2.82.34 3.4.47 6.82 1.03 10.18 1.82 11.05 6.83 20.57 14.56 28.61 10.36 10.78 23.01 16.66 38 17.38 1.54.07 2.45-.25 3.22-1.76 1.83-3.59 6.01-4.69 9.35-2.69 3.08 1.85 4.12 6.06 2.27 9.21-1.93 3.28-6.18 4.17-9.59 2.15-.97-.58-2.2-1.01-3.32-1.03-30.24-.59-55.35-21.92-60.49-51.5-.44-2.54-.59-5.13-.87-7.7h.08-.01zm72.93 54.78c.01-2.46-2.02-4.52-4.47-4.53-2.42 0-4.51 2.1-4.49 4.52.01 2.36 2.21 4.46 4.61 4.42 2.3-.04 4.34-2.11 4.35-4.42v.01z" fill="#0099CB"/><path d="M63.35 151.53c-.91-.11-1.81-.24-2.72-.32-1.62-.13-2.49-1.31-2.25-2.59.19-1.02 1.25-2.2 2.23-2.64 1.01-.45 2.38-.14 3.59-.07 19.29 1.13 35.04-5.97 47.41-20.63 6.3-7.47 10.18-16.14 11.91-25.78.21-1.16.21-1.89-1.09-2.53-3.47-1.71-4.81-5.44-3.31-8.6 1.57-3.31 5.38-4.87 8.62-3.53 3.38 1.4 5.31 5.34 3.45 8.68-1.79 3.21-1.89 6.66-2.74 9.99-6.14 23.95-21.15 39.3-44.79 46.19-6.6 1.92-13.42 2.51-20.31 1.81v.02zm62.45-64.92c-2.64-.29-4.88 1.47-5.11 4.01-.23 2.5 1.7 4.77 4.24 4.98 2.35.2 4.71-1.76 4.9-4.08.21-2.41-1.63-4.65-4.04-4.91h.01z" fill="#0099CB"/><path d="M65.66 141.73c-17.02-.23-31.07-5.51-42.97-16.32-.62-.56-1.24-1.14-1.75-1.8-.9-1.17-1.36-2.45-.13-3.69 1.24-1.25 2.59-1.13 3.87-.06 2.09 1.76 4.06 3.68 6.23 5.33 20.62 15.63 50.28 14.68 69.92-2.15 1.37-1.17 1.69-2.16.8-3.89-1.48-2.91.38-7.01 3.51-8.38 3.11-1.36 7.05.22 8.43 3.38 1.46 3.31-.08 6.71-3.09 8.5-3.03 1.79-5.68 4.22-8.51 6.36-11.04 8.34-23.5 12.53-36.31 12.72zm41.95-20.17c2.48-.02 4.71-2.23 4.69-4.64-.03-2.56-2.36-4.79-4.92-4.7-2.35.08-4.48 2.46-4.42 4.95.06 2.38 2.21 4.41 4.65 4.39z" fill="#65BD56"/><path d="M139.38 99.99c-2.23 17-9.3 30.56-21.8 41.2-.46.39-.95.77-1.45 1.1-1.52 1-2.97.78-4.05-.6-1.06-1.35-.68-2.78.46-3.91 2.05-2.03 4.32-3.85 6.26-5.98 10.13-11.13 15.05-24.22 14.78-39.32-.18-10.56-3.22-20.18-8.8-29.07-.88-1.41-1.53-2.25-3.56-1.52-3.75 1.34-7.54-.91-8.59-4.64-1-3.54 1.03-7.18 4.6-8.27 3.62-1.11 7.21.84 8.55 4.51.46 1.26 1.14 2.47 1.92 3.56 9.46 13.1 13.13 27.72 11.67 42.95l.01-.01zM118.59 59.8c2.37.3 4.58-1.35 4.94-3.69.37-2.39-1.44-4.73-3.87-5.02-2.33-.27-4.51 1.47-4.83 3.85a4.344 4.344 0 0 0 3.76 4.86z" fill="#65BD56"/><path d="M148.13 92.83c-.14.98-.19 1.98-.45 2.92-.43 1.54-1.39 2.56-3.16 2.27-1.81-.29-2.59-1.45-2.51-3.22.16-3.41.52-6.82.47-10.22-.19-11.2-3.76-21.34-10.24-30.42-8.68-12.17-20.34-19.82-35.07-22.72-1.52-.3-2.46-.11-3.44 1.27-2.33 3.29-6.63 3.77-9.64 1.31-2.78-2.28-3.19-6.6-.91-9.44 2.38-2.97 6.72-3.23 9.8-.73.88.71 2.03 1.32 3.13 1.5 29.83 4.99 51.58 29.74 52.36 59.75.07 2.58-.31 7.75-.34 7.74v-.01zm-64.19-64.8c-.37 2.43 1.34 4.77 3.76 5.13 2.39.36 4.76-1.42 5.1-3.82.33-2.34-1.53-4.74-3.91-5.04-2.28-.29-4.6 1.46-4.95 3.74v-.01zm2.92-21.02c.91.1 1.81.24 2.72.31 1.63.12 2.49 1.3 2.26 2.58-.19 1.02-1.24 2.21-2.22 2.65-1.01.45-2.38.15-3.59.08-19.29-1.05-35.01 6.1-47.33 20.81-6.27 7.49-10.12 16.18-11.81 25.82-.2 1.16-.2 1.89 1.1 2.53 3.47 1.7 4.83 5.42 3.34 8.58-1.56 3.32-5.36 4.89-8.61 3.57-3.39-1.39-5.33-5.32-3.48-8.67 1.78-3.22 1.86-6.67 2.7-10 6.05-23.97 21-39.38 44.61-46.37 6.59-1.95 13.41-2.56 20.3-1.88l.01-.01zm-62.2 65.16c2.64.28 4.88-1.49 5.1-4.03.22-2.51-1.72-4.76-4.26-4.96-2.35-.19-4.7 1.78-4.89 4.1-.2 2.41 1.65 4.64 4.06 4.89h-.01z" fill="#0099CB"/><path d="M92.77 15.11c16.98 1.22 30.7 7.31 41.95 18.79.58.6 1.17 1.21 1.64 1.9.83 1.22 1.21 2.52-.08 3.69-1.31 1.18-2.65.98-3.87-.17-1.99-1.88-3.84-3.91-5.91-5.68-1-.85-33.57-29.56-69.92-1.92-1.44 1.09-1.81 2.06-1.03 3.84 1.31 2.99-.79 6.98-3.99 8.16-3.19 1.17-7.02-.63-8.22-3.86-1.26-3.39.47-6.7 3.58-8.3 3.13-1.61 5.92-3.88 8.86-5.85 11.51-7.68 24.19-11.14 36.99-10.58v-.02zM49.71 32.8c-2.47-.13-4.83 1.95-4.95 4.36-.12 2.55 2.08 4.92 4.63 4.98 2.35.06 4.61-2.2 4.7-4.68.08-2.38-1.95-4.53-4.38-4.65v-.01z" fill="#65BD56"/></svg>