<svg width="64" height="64" fill="none" xmlns="http://www.w3.org/2000/svg"><path d="M12.075 2.396h-1.264A5.413 5.413 0 0 0 5.398 7.81v49.319a5.413 5.413 0 0 0 5.413 5.413h1.264a5.413 5.413 0 0 0 5.413-5.413V7.809a5.413 5.413 0 0 0-5.413-5.413z" fill="#65BD56"/><path d="M55.674 4.676l-.264-.351a5.413 5.413 0 0 0-7.58-1.07L25.295 20.218a5.413 5.413 0 0 0-1.07 7.58l.265.352a5.413 5.413 0 0 0 7.58 1.07l22.535-16.964a5.413 5.413 0 0 0 1.07-7.58z" fill="#0099CB"/><path d="M55.704 59.464l.26-.355a5.413 5.413 0 0 0-1.172-7.565L32.031 34.885a5.413 5.413 0 0 0-7.565 1.171l-.26.355a5.413 5.413 0 0 0 1.172 7.565l22.76 16.659a5.413 5.413 0 0 0 7.566-1.171z" fill="#65BD56"/></svg>