<svg width="356" height="120" fill="none" xmlns="http://www.w3.org/2000/svg"><path d="M15.66 26.358h-1.64c-3.877 0-7.02 3.28-7.02 7.326v66.74c0 4.046 3.143 7.326 7.02 7.326h1.64c3.877 0 7.02-3.28 7.02-7.326v-66.74c0-4.046-3.143-7.326-7.02-7.326z" fill="#6C6"/><path d="M72.203 29.443l-.343-.475c-2.332-3.233-6.733-3.88-9.83-1.447L32.804 50.476c-3.098 2.433-3.719 7.026-1.387 10.258l.343.475c2.332 3.233 6.733 3.88 9.83 1.447l29.226-22.955c3.097-2.433 3.718-7.026 1.387-10.258z" fill="#0099CB"/><path d="M72.24 103.585l.338-.48c2.29-3.265 1.61-7.848-1.52-10.238L41.54 70.324c-3.129-2.39-7.521-1.68-9.81 1.585l-.337.48c-2.29 3.264-1.61 7.848 1.518 10.237L62.43 105.17c3.129 2.389 7.521 1.679 9.81-1.585z" fill="#6C6"/><path d="M91.13 99.798c-.42.908-.94 1.607-1.55 2.077-.62.469-1.26.793-1.94.96-.68.167-1.25.25-1.7.25-.52 0-1.1-.083-1.75-.25-.65-.167-1.28-.491-1.89-.96-.62-.47-1.13-1.169-1.55-2.077-.42-.908-.63-2.076-.63-3.495v-37.2c0-1.346.21-2.453.63-3.298.42-.845.92-1.502 1.51-1.972.58-.47 1.18-.793 1.8-.96.61-.167 1.15-.25 1.6-.25.45 0 1 .083 1.65.25.65.167 1.26.49 1.85.96.58.47 1.08 1.137 1.51 1.972.42.845.63 1.941.63 3.298v2.535h.19c1.7-3.224 3.52-5.134 5.61-6.74 2.26-1.743 4.65-2.88 7.5-2.995 3.16-.115 4.09.49 5.28 1.095 1.5.762 2.35 2.087 2.5 3.84.15 1.753.14 3.151-1.95 5.176-1.09 1.064-2.94 1.367-6.1 1.346-3.69-.031-7.54 1.304-9.55 3.903-2.01 2.598-3.01 5.926-3.01 9.986v19.054c0 1.419-.21 2.587-.63 3.495h-.01zm42.58-60.94c0 2.036-.71 3.726-2.12 5.072-1.42 1.346-3.16 2.025-5.24 2.025s-3.79-.71-5.15-2.119c-1.35-1.408-2.03-3.067-2.03-4.977 0-1.91.68-3.558 2.03-4.977 1.35-1.41 3.07-2.119 5.15-2.119 2.08 0 3.82.679 5.24 2.025 1.42 1.346 2.12 3.036 2.12 5.07zM132.1 96.49c0 1.378-.2 2.515-.61 3.402s-.91 1.565-1.51 2.014c-.6.459-1.23.772-1.89.939-.66.167-1.21.25-1.65.25-.5 0-1.07-.083-1.7-.25-.63-.167-1.24-.48-1.84-.939-.6-.459-1.1-1.137-1.51-2.014-.41-.887-.61-2.024-.61-3.402V60.636c0-1.377.2-2.514.61-3.401s.91-1.555 1.51-2.025c.6-.459 1.21-.772 1.84-.939.63-.167 1.19-.25 1.7-.25.44 0 .99.083 1.65.25.66.167 1.29.48 1.89.94.6.458 1.1 1.137 1.51 2.024.41.887.61 2.024.61 3.401V96.49zm20.56 3.308c-.42.908-.94 1.607-1.55 2.077-.62.469-1.26.793-1.94.96-.68.167-1.25.25-1.7.25-.52 0-1.1-.083-1.75-.25-.65-.167-1.28-.491-1.89-.96-.62-.47-1.13-1.169-1.55-2.077-.42-.908-.63-2.076-.63-3.495v-37.2c0-1.346.21-2.453.63-3.298.42-.845.92-1.502 1.51-1.972.58-.47 1.18-.793 1.8-.96.61-.167 1.15-.25 1.6-.25.45 0 1 .083 1.65.25.65.167 1.26.49 1.85.96.58.47 1.08 1.137 1.51 1.972.42.845.63 1.941.63 3.298v2.535h.19c1.7-3.224 3.52-5.134 5.61-6.74 2.26-1.743 4.65-2.88 7.5-2.995 3.16-.115 4.09.49 5.28 1.095 1.5.762 2.35 2.087 2.5 3.84.15 1.753.14 3.151-1.95 5.176-1.09 1.064-2.94 1.367-6.1 1.346-3.69-.031-7.54 1.304-9.55 3.903-2.01 2.598-3.01 5.926-3.01 9.986v19.054c0 1.419-.21 2.587-.63 3.495h-.01zm67.68-3.203c0 1.314-.19 2.379-.57 3.203-.38.825-.85 1.461-1.42 1.92-.57.459-1.15.751-1.75.887-.6.136-1.12.198-1.56.198-.44 0-.96-.062-1.56-.198-.6-.136-1.18-.428-1.75-.887-.57-.459-1.04-1.095-1.42-1.92-.38-.824-.57-1.889-.57-3.203v-.689h-.28c-1.13 2.097-2.96 3.83-5.48 5.176-2.52 1.346-5.38 2.014-8.59 2.014-1.83 0-3.73-.251-5.71-.741a16.704 16.704 0 0 1-5.48-2.463c-1.67-1.148-3.05-2.66-4.15-4.529-1.1-1.867-1.65-4.184-1.65-6.95 0-3.547.96-6.364 2.88-8.472 1.92-2.098 4.39-3.715 7.41-4.832 3.02-1.116 6.37-1.857 10.05-2.212 3.68-.365 7.28-.542 10.81-.542v-1.18c0-2.953-1.02-5.133-3.07-6.552-2.05-1.41-4.48-2.119-7.32-2.119-1.76 0-3.43.334-5 .981-1.57.658-3.18 1.513-4.81 2.557-1.07.657-2.08.98-3.02.98-1.2 0-2.2-.427-3.02-1.283-.82-.856-1.23-1.94-1.23-3.256 0-.72.17-1.481.52-2.264.35-.793 1.05-1.544 2.12-2.264 2.14-1.513 4.53-2.672 7.18-3.496a27.394 27.394 0 0 1 8.21-1.231c4.03 0 7.35.594 9.96 1.774 2.61 1.179 4.67 2.723 6.18 4.633a16.882 16.882 0 0 1 3.16 6.407c.6 2.368.9 4.727.9 7.095v23.447l.03.01zm-13.31-16.258c-1.83 0-3.75.084-5.76.25-2.02.168-3.87.522-5.57 1.086-1.7.564-3.12 1.346-4.25 2.369-1.13 1.022-1.7 2.41-1.7 4.184 0 1.117.24 2.056.71 2.807a5.613 5.613 0 0 0 1.84 1.826c.76.46 1.61.793 2.55.98.94.2 1.89.293 2.83.293 3.9 0 6.86-1.085 8.87-3.256 2.01-2.17 3.02-5.123 3.02-8.87v-1.68h-2.55l.01.011zm68.25 5.906H244.6l-4.81 12.115c-.76 1.972-1.68 3.256-2.79 3.84-1.1.595-2.16.887-3.16.887-1.64 0-3.04-.542-4.2-1.628-1.17-1.085-1.75-2.577-1.75-4.487 0-.521.06-1.064.19-1.627.13-.553.35-1.232.66-2.025l24.07-55.857c.57-1.315 1.16-2.369 1.79-3.151.63-.783 1.26-1.378 1.89-1.774a5.858 5.858 0 0 1 1.89-.793 8.515 8.515 0 0 1 1.79-.199c.56 0 1.16.063 1.79.199.63.135 1.27.396 1.93.793.66.396 1.31.98 1.94 1.773.63.794 1.23 1.837 1.79 3.152l23.89 55.659c.31.793.52 1.482.61 2.066.09.595.14 1.085.14 1.482 0 2.035-.61 3.61-1.84 4.727-1.23 1.116-2.66 1.68-4.3 1.68-1.01 0-2.06-.292-3.16-.887s-2.06-1.899-2.88-3.945l-4.82-12.02.02.02zM248.85 75.6h22.28l-11.05-27.976L248.85 75.6zm61.95 20.494c0 1.513-.22 2.713-.66 3.6-.44.887-.96 1.596-1.56 2.118-.6.522-1.24.866-1.94 1.033-.69.167-1.29.251-1.79.251s-1.1-.084-1.79-.251c-.69-.167-1.34-.511-1.94-1.033-.6-.522-1.12-1.231-1.56-2.118-.44-.887-.66-2.087-.66-3.6V38.567c0-1.44.22-2.63.66-3.548.44-.918.96-1.638 1.56-2.17.6-.522 1.24-.866 1.94-1.033.69-.167 1.29-.25 1.79-.25s1.1.083 1.79.25c.69.167 1.34.51 1.94 1.033.6.521 1.12 1.252 1.56 2.17.44.918.66 2.098.66 3.548v57.527zm7.66-70.205c.01-.167.02-.324.04-.49.06-.512.1-1.024.17-1.524.1-.72.27-1.42.48-2.119a15.892 15.892 0 0 1 2.11-4.413c.68-.992 1.46-1.9 2.35-2.703a15.325 15.325 0 0 1 3.78-2.546c.98-.46 2-.824 3.06-1.033.57-.115 1.14-.209 1.72-.272.7-.083 1.4-.083 2.1-.052a14.466 14.466 0 0 1 6.5 1.9c.9.51 1.73 1.105 2.51 1.794 1.1.97 2.05 2.066 2.85 3.319a16.279 16.279 0 0 1 1.9 4.173c.21.71.37 1.42.47 2.15.06.46.12.929.14 1.398.03.605.04 1.21.02 1.816-.03.595-.11 1.179-.18 1.763-.11.835-.32 1.66-.58 2.463-.3.929-.68 1.826-1.15 2.692-.43.793-.92 1.555-1.48 2.264a15.97 15.97 0 0 1-1.64 1.785c-.78.73-1.63 1.367-2.54 1.92-.83.5-1.7.908-2.6 1.242-.74.27-1.49.48-2.27.615-.47.084-.94.136-1.41.188-.67.073-1.35.084-2.02.042-.49-.032-.97-.094-1.45-.157-.9-.125-1.77-.355-2.63-.657a14.132 14.132 0 0 1-3.51-1.816 15.93 15.93 0 0 1-2.2-1.868 15.935 15.935 0 0 1-4.29-8.452c-.08-.48-.13-.96-.18-1.44-.02-.219-.03-.428-.04-.647a.385.385 0 0 0-.02-.104v-1.2l-.01-.031zm2.32.584c0 7.377 5.7 13.336 12.76 13.346 7.04.01 12.79-5.927 12.8-13.325 0-7.315-5.64-13.346-12.78-13.357-7.05 0-12.77 5.917-12.79 13.325l.01.01z" fill="#F7F7F7"/><path d="M336.47 28.236c1.12 1.848 2.24 3.674 3.37 5.531H337.6c-.06 0-.1-.02-.13-.073-.97-1.597-1.94-3.183-2.91-4.769l-.27-.438c-.02-.031-.06-.063-.1-.063H331.24v5.333h-2.33V19.21h6.12c.74 0 1.48.073 2.18.355.46.188.93.355 1.35.658.27.198.48.438.7.688.34.386.59.825.7 1.346.1.48.2.96.22 1.45.02.408-.03.815-.12 1.222a7.81 7.81 0 0 1-.26.98c-.18.47-.5.846-.86 1.18-.57.532-1.25.814-1.98 1.012-.16.042-.31.083-.48.125l-.01.01zm-5.23-1.867h3.54c.24 0 .48-.042.71-.105.27-.062.53-.167.8-.25.21-.073.42-.125.6-.271.34-.282.63-.595.79-1.023.19-.543.21-1.106.12-1.66-.07-.416-.26-.792-.6-1.053-.19-.136-.37-.282-.57-.397a3.349 3.349 0 0 0-.59-.27c-.17-.053-.36-.064-.54-.084-.29-.032-.57-.094-.86-.094-1.1-.01-2.19 0-3.29 0h-.1v5.217l-.01-.01z" fill="#F7F7F7"/></svg>