<svg width="1260" height="840" fill="none" xmlns="http://www.w3.org/2000/svg"><g clip-path="url(#clip0_212_2)"><path d="M1260 160v680H181.98c.3-1.32.22-2.91.95-3.93 6.76-9.45 13.55-18.88 20.55-28.16 14.58-19.33 29.72-38.24 43.84-57.89 22.75-31.65 38.27-66.71 44.07-105.32 2.85-18.99 3.3-38.45 3.42-57.71.1-16.52-1.72-33.07-2.84-49.59-.86-12.56-1.93-25.1-2.96-37.64-.93-11.32-2.37-22.62-2.8-33.96-.91-23.92.72-47.61 7.58-70.77 5.1-17.21 13.12-32.7 26.52-44.75 16.45-14.79 35.72-20.49 57.33-13.99 15.27 4.59 26.98 14.6 36.13 27.51 11.47 16.18 18.82 34.21 22.33 53.64 3.13 17.36 5.66 34.84 8.03 52.32 1.38 10.16 1.52 20.49 2.93 30.64 1.9 13.69 4.55 27.29 6.77 40.94 2.14 13.11 6.5 25.48 12.58 37.21 10.15 19.59 25.47 33.56 47.12 38.76 19.71 4.73 39.08 1.28 57.65-6.38 20.65-8.52 39.01-20.88 55.7-35.49 16.91-14.8 33.17-30.34 49.43-45.85 11.4-10.88 22.34-22.24 33.48-33.39.17-.02.36-.11.49-.05 20.92 8.54 41.82 17.19 64.48 20.16 14.87 1.95 29.72 4.37 44.66 5.34 17.55 1.13 35.07-.63 52.44-3.51 9.41-1.56 18.97-2.46 28.23-4.65 10.97-2.59 21.9-5.66 32.47-9.56 17.81-6.57 35.79-12.99 52.85-21.22 24.28-11.7 47.66-25.24 68.9-42.04 17.16-13.58 34.56-26.96 50.86-41.54 22.22-19.87 41.62-42.54 59.98-65.96 12.17-15.53 23.56-31.78 34.09-48.47 17.67-28 33.34-57.16 45.6-88 3.82-9.61 6.73-19.57 10.38-29.25 1.02-2.71 3.18-4.98 4.82-7.46l-.04.01z" fill="#141414"/><path d="M131.98 840H0V0h589.99c-1.68 4.59-3.4 9.16-5.02 13.76-4.33 12.3-8.79 24.56-12.85 36.95-2.85 8.68-5.3 17.49-7.6 26.33-1.51 5.83-2.54 11.79-3.6 17.72-.84 4.71-1.14 9.53-2.13 14.21-1.31 6.16-3.52 12.16-4.51 18.36-1.69 10.57-3 21.23-3.97 31.89-.99 10.89-1.96 21.83-1.87 32.74.13 17.08 1.16 34.16 1.82 51.24.03.66.14 1.32.25 1.98 1.8 11.38 3.39 22.81 5.49 34.14 1.89 10.22 3.74 20.51 6.69 30.45 3.81 12.81 8.58 25.34 13.15 37.91 6.67 18.33 15.95 35.39 26.42 51.76 5.55 8.68 11.45 17.27 18.18 25.03 9.02 10.41 18.72 20.26 28.65 29.82 7.3 7.02 15.43 13.19 23.19 19.73-7.48 7.66-14.86 15.42-22.46 22.95-21.41 21.23-42.61 42.74-67.5 60.02-16.21 11.25-33.12 20.96-54.02 20.04-8.75-.39-15.31-4.2-20.36-10.95-10.33-13.82-13.03-30.35-15.79-46.69-1.7-10.08-1.97-20.39-3.17-30.56-1.87-15.79-4.21-31.53-5.93-47.34-1.88-17.27-5.59-34.07-10.62-50.69-6.38-21.1-15.74-40.56-29.64-57.75-15.67-19.37-35.36-32.95-59.61-38.66-16.03-3.77-32.31-3.56-48.52 1.24-15.24 4.51-28.71 11.79-40.59 22.14-23.72 20.66-36.69 47.51-43.86 77.49-4.5 18.81-6.44 38.03-5.99 57.34.4 17.01 1.77 34 2.79 50.99.58 9.72 1.17 19.44 2.01 29.13 1.39 16.08 3.5 32.11 4.38 48.21 1.2 21.96.12 43.91-5.3 65.33-3.22 12.7-6.72 25.45-11.53 37.6-10.59 26.76-28.22 49.25-45.34 72.03-17.51 23.29-34.73 46.8-51.86 70.38-3.02 4.16-4.93 9.12-7.36 13.71l-.03.02z" fill="#141414"/><path d="M637.99 0H1142c-.55 1.36-1.13 2.71-1.65 4.08-10.43 27.59-23.62 53.77-40.54 77.96-13.53 19.34-29.04 36.75-49.66 49.01-15.82 9.41-32.85 13.21-50.93 10.39-15.47-2.42-29.89-8.5-44.24-14.66-27.48-11.8-54.85-23.74-85.07-27.46-20.61-2.53-40.86-1.55-60.83 3.17-18.08 4.27-35.31 11.31-50.81 21.73-32.24 21.67-58.57 47.99-66.83 87.97-4.05 19.62.09 37.12 13.98 51.73 14.97 15.76 34.93 19.99 55.33 21.43 12.32.87 24.83-.75 37.24-1.56 5.9-.39 11.79-1.31 17.63-2.31 9.94-1.7 19.85-3.62 29.76-5.53 7.45-1.43 14.9-2.89 22.31-4.51 10.79-2.36 21.51-5.03 32.32-7.27 11.49-2.38 23.03-4.58 34.6-6.56 12.04-2.06 24.09-4.49 36.23-5.4 12.26-.93 24.71-.98 36.94.11 7.31.65 14.64 3.62 21.44 6.69 5.85 2.63 7.64 9.46 4.61 14.07-2.06 3.14-4.49 6.14-7.22 8.71-10.56 9.92-23.25 16.74-36.5 21.88-25.71 9.97-51.84 18.84-77.82 28.09-18.86 6.71-37.81 13.15-56.63 19.98-32.49 11.8-63.16 27.28-91.95 46.43-19.81 13.17-38.76 27.47-56.16 43.74-.94-.1-2.11.13-2.78-.34-5.6-4.02-11.51-7.73-16.56-12.37-9.42-8.66-19.06-17.27-27.26-27.03-9.67-11.51-18.96-23.62-26.49-36.58-8-13.77-14.04-28.73-20.34-43.42-3.33-7.77-5.87-15.97-7.93-24.18-2.62-10.48-4.66-21.12-6.47-31.77-2.11-12.48-5.07-25.02-5.24-37.57-.33-24.59.92-49.2 1.74-73.8.18-5.43 1.13-10.87 2.07-16.24 1.74-10.01 3.6-20 5.66-29.95 2.05-9.95 4.04-19.93 6.71-29.73 2.66-9.75 5.82-19.39 9.3-28.88 5.44-14.85 11.38-29.53 17-44.32.67-1.77.7-3.8 1.03-5.7V0z" fill="#141414"/><path d="M1186 0h58c-.7 11.61-1.16 23.24-2.19 34.83-.64 7.25-2.08 14.44-3.26 21.63-1.4 8.49-2.75 17-4.43 25.44-1.61 8.06-3.47 16.08-5.49 24.05-2.01 7.95-4.4 15.8-6.54 23.72-1.54 5.7-2.51 11.61-4.52 17.13-2.97 8.18-6.61 16.13-10.03 24.15-10.83 25.45-22.89 50.22-36.8 74.21-18.77 32.35-40.63 62.36-65.61 90-13.76 15.22-29.1 29.05-44.16 43.04-8.79 8.16-18.13 15.8-27.75 22.96-21.77 16.18-44.6 30.79-69.34 42.03-14.89 6.76-30.05 13.05-45.47 18.48-10.9 3.84-22.34 6.36-33.72 8.59-12.58 2.46-25.32 5-38.07 5.55-21.33.91-42.81 1.87-63.87-3.61-9.17-2.39-18.49-4.22-27.68-6.58-2.51-.64-4.76-2.27-7.14-3.45 6.42-5.11 12.79-10.29 19.28-15.31 39.33-30.43 84.07-50.31 130.63-66.54 19.79-6.9 39.72-13.42 59.66-19.88 22.66-7.34 45-15.45 66.13-26.53 17.69-9.28 33.78-20.54 44.99-37.71 14.76-22.61 10.09-52.34-11.58-68.71-14.78-11.16-31.52-16.41-49.49-17.26-14.71-.69-29.54.15-44.28.98-9.71.54-19.4 1.99-29.02 3.52-8.79 1.4-17.46 3.48-26.19 5.22-7.78 1.55-15.59 2.93-23.34 4.61-10.8 2.34-21.52 5.09-32.34 7.29-11.99 2.43-24.06 4.44-36.1 6.6-17.78 3.18-35.64 6.4-53.74 4.96-7.76-.61-15.5-3.04-22.93-5.59-5.17-1.77-8.36-6.49-7.5-12.09 1.03-6.73 2.34-13.67 5.09-19.82 6.59-14.73 17.29-26.33 29.79-36.5 29.47-23.96 63.03-33.17 100.48-28.24 18.24 2.4 35.33 8.92 52.22 15.96 20.55 8.57 40.63 18.26 62.51 23.43 15.57 3.68 31.22 4.89 46.84 2.3 23.51-3.89 44.16-14.6 62.4-29.75 20.2-16.78 36.58-36.93 50.67-59.03 15.03-23.57 26.94-48.72 37.5-74.52 2.59-6.33 4.29-13.02 6.39-19.54V0z" fill="#141414"/><path d="M747.94 462.16c2.37 1.18 4.63 2.81 7.14 3.45 9.18 2.36 18.5 4.19 27.68 6.58 21.06 5.48 42.54 4.52 63.87 3.61 12.75-.54 25.49-3.09 38.07-5.55 11.37-2.22 22.81-4.75 33.72-8.59 15.42-5.43 30.58-11.72 45.47-18.48 24.75-11.24 47.57-25.85 69.34-42.03 9.63-7.15 18.97-14.8 27.75-22.96 15.06-13.99 30.4-27.81 44.16-43.04 24.98-27.64 46.84-57.65 65.61-90 13.91-23.98 25.98-48.76 36.8-74.21 3.41-8.02 7.05-15.97 10.03-24.15 2.01-5.53 2.98-11.43 4.52-17.13 2.14-7.92 4.52-15.77 6.54-23.72 2.02-7.97 3.88-15.99 5.49-24.05 1.68-8.44 3.03-16.95 4.43-25.44 1.19-7.2 2.62-14.38 3.26-21.63 1.03-11.58 1.49-23.21 2.19-34.83h16V160c-1.64 2.47-3.8 4.75-4.82 7.46-3.65 9.68-6.56 19.64-10.38 29.25-12.26 30.84-27.93 60-45.6 88-10.53 16.69-21.91 32.94-34.09 48.47-18.36 23.42-37.76 46.09-59.98 65.96-16.3 14.58-33.69 27.95-50.86 41.54-21.23 16.8-44.62 30.34-68.9 42.04-17.07 8.23-35.04 14.65-52.85 21.22-10.57 3.9-21.5 6.97-32.47 9.56-9.26 2.18-18.82 3.09-28.23 4.65-17.37 2.88-34.89 4.64-52.44 3.51-14.94-.96-29.79-3.39-44.66-5.34-22.65-2.97-43.55-11.62-64.48-20.16-.13-.06-.33.03-.49.05-5.33-3.13-10.66-6.26-15.98-9.4-7.18-4.25-14.35-8.51-21.52-12.77-7.76-6.55-15.89-12.71-23.19-19.73-9.93-9.55-19.63-19.41-28.65-29.82-6.73-7.77-12.63-16.35-18.18-25.03-10.47-16.37-19.75-33.43-26.42-51.76-4.57-12.57-9.34-25.1-13.15-37.91-2.95-9.94-4.8-20.23-6.69-30.45-2.1-11.33-3.68-22.76-5.49-34.14-.1-.66-.22-1.32-.25-1.98-.66-17.08-1.68-34.16-1.82-51.24-.09-10.91.89-21.86 1.87-32.74.97-10.66 2.28-21.32 3.97-31.89.99-6.2 3.2-12.2 4.51-18.36.99-4.68 1.29-9.5 2.13-14.21 1.06-5.94 2.08-11.9 3.6-17.72 2.3-8.84 4.75-17.65 7.6-26.33 4.06-12.39 8.52-24.65 12.85-36.95 1.62-4.61 3.35-9.18 5.02-13.76h48c-.33 1.91-.36 3.93-1.03 5.7-5.62 14.79-11.56 29.46-17 44.32-3.48 9.49-6.64 19.13-9.3 28.88-2.67 9.79-4.66 19.78-6.71 29.73s-3.91 19.94-5.66 29.95c-.94 5.37-1.88 10.81-2.07 16.24-.83 24.6-2.07 49.21-1.74 73.8.17 12.55 3.12 25.09 5.24 37.57 1.81 10.65 3.84 21.3 6.47 31.77 2.06 8.21 4.59 16.41 7.93 24.18 6.3 14.69 12.34 29.65 20.34 43.42 7.53 12.97 16.82 25.07 26.49 36.58 8.2 9.76 17.84 18.37 27.26 27.03 5.05 4.64 10.96 8.35 16.56 12.37.67.48 1.84.25 2.78.34.98 1.12 1.76 2.55 2.96 3.32 5.14 3.29 10.34 6.51 15.67 9.48 2.25 1.25 4.87 1.85 7.35 2.69 4.8 1.62 9.61 3.2 14.42 4.79l.01-.02z" fill="#6C6"/><path d="M747.94 462.16c-4.81-1.6-9.62-3.17-14.42-4.79-2.47-.84-5.1-1.44-7.35-2.69-5.33-2.97-10.52-6.19-15.67-9.48-1.2-.77-1.98-2.2-2.96-3.32 17.41-16.27 36.36-30.56 56.16-43.74 28.79-19.15 59.46-34.63 91.95-46.43 18.81-6.83 37.77-13.27 56.63-19.98 25.98-9.25 52.12-18.12 77.82-28.09 13.25-5.14 25.94-11.95 36.5-21.88 2.73-2.57 5.16-5.57 7.22-8.71 3.03-4.61 1.24-11.44-4.61-14.07-6.81-3.06-14.13-6.04-21.44-6.69-12.23-1.09-24.68-1.03-36.94-.11-12.14.92-24.19 3.35-36.23 5.4-11.57 1.98-23.11 4.18-34.6 6.56-10.81 2.24-21.53 4.92-32.32 7.27-7.41 1.62-14.86 3.08-22.31 4.51-9.91 1.91-19.82 3.82-29.76 5.53-5.84 1-11.72 1.92-17.63 2.31-12.4.81-24.92 2.43-37.24 1.56-20.39-1.44-40.35-5.67-55.33-21.43-13.89-14.62-18.03-32.11-13.98-51.73 8.26-39.98 34.59-66.3 66.83-87.97 15.5-10.42 32.73-17.45 50.81-21.73 19.98-4.72 40.23-5.7 60.83-3.17 30.23 3.72 57.59 15.66 85.07 27.46 14.35 6.16 28.77 12.25 44.24 14.66 18.09 2.83 35.11-.97 50.93-10.39 20.62-12.27 36.13-29.67 49.66-49.01 16.92-24.19 30.1-50.37 40.54-77.96.52-1.37 1.1-2.72 1.65-4.08h44c-2.11 6.52-3.8 13.22-6.39 19.54-10.56 25.8-22.47 50.95-37.5 74.52-14.09 22.09-30.47 42.24-50.67 59.03-18.24 15.15-38.89 25.85-62.4 29.75-15.61 2.59-31.26 1.38-46.84-2.3-21.88-5.17-41.97-14.86-62.51-23.43-16.89-7.04-33.98-13.56-52.22-15.96-37.45-4.93-71.01 4.28-100.48 28.24-12.5 10.17-23.2 21.77-29.79 36.5-2.75 6.15-4.06 13.09-5.09 19.82-.86 5.61 2.33 10.32 7.5 12.09 7.43 2.54 15.17 4.97 22.93 5.59 18.11 1.43 35.97-1.78 53.74-4.96 12.04-2.16 24.11-4.17 36.1-6.6 10.83-2.19 21.54-4.95 32.34-7.29 7.75-1.68 15.56-3.05 23.34-4.61 8.73-1.74 17.41-3.82 26.19-5.22 9.62-1.53 19.31-2.98 29.02-3.52 14.74-.82 29.56-1.67 44.28-.98 17.97.85 34.72 6.1 49.49 17.26 21.68 16.37 26.34 46.09 11.58 68.71-11.21 17.17-27.3 28.43-44.99 37.71-21.12 11.09-43.47 19.19-66.13 26.53-19.94 6.46-39.87 12.98-59.66 19.88-46.55 16.24-91.29 36.11-130.63 66.54-6.49 5.02-12.86 10.2-19.28 15.31l.02.04zm-75.67 11.87c7.17 4.26 14.34 8.52 21.52 12.77 5.32 3.15 10.65 6.27 15.98 9.4-11.14 11.15-22.08 22.52-33.48 33.39-16.26 15.51-32.53 31.06-49.43 45.85-16.69 14.61-35.05 26.97-55.7 35.49-18.57 7.67-37.94 11.12-57.65 6.38-21.65-5.2-36.97-19.16-47.12-38.76-6.08-11.73-10.44-24.1-12.58-37.21-2.23-13.65-4.87-27.24-6.77-40.94-1.41-10.15-1.55-20.48-2.93-30.64-2.37-17.48-4.9-34.96-8.03-52.32-3.51-19.43-10.85-37.47-22.33-53.64-9.15-12.9-20.86-22.91-36.13-27.51-21.61-6.5-40.89-.8-57.33 13.99-13.39 12.05-21.42 27.53-26.52 44.75-6.86 23.16-8.49 46.85-7.58 70.77.43 11.34 1.87 22.64 2.8 33.96 1.03 12.54 2.11 25.08 2.96 37.64 1.13 16.52 2.95 33.07 2.84 49.59-.12 19.26-.57 38.72-3.42 57.71-5.8 38.61-21.31 73.67-44.07 105.32-14.13 19.65-29.27 38.57-43.84 57.89-7 9.28-13.78 18.71-20.55 28.16-.73 1.02-.65 2.6-.95 3.93h-50c2.42-4.59 4.34-9.55 7.36-13.71 17.12-23.58 34.35-47.09 51.86-70.38 17.12-22.78 34.75-45.27 45.34-72.03 4.81-12.16 8.31-24.9 11.53-37.6 5.42-21.42 6.5-43.37 5.3-65.33-.88-16.1-2.99-32.13-4.38-48.21-.84-9.7-1.42-19.42-2.01-29.13-1.02-16.99-2.4-33.98-2.79-50.99-.45-19.31 1.5-38.53 5.99-57.34 7.17-29.98 20.15-56.84 43.86-77.49 11.88-10.35 25.35-17.63 40.59-22.14 16.21-4.8 32.5-5.01 48.52-1.24 24.25 5.71 43.94 19.29 59.61 38.66 13.9 17.18 23.26 36.64 29.64 57.75 5.03 16.62 8.74 33.42 10.62 50.69 1.72 15.81 4.07 31.55 5.93 47.34 1.2 10.17 1.47 20.48 3.17 30.56 2.76 16.34 5.46 32.87 15.79 46.69 5.05 6.76 11.61 10.57 20.36 10.95 20.9.92 37.8-8.79 54.02-20.04 24.89-17.28 46.09-38.79 67.5-60.02 7.6-7.53 14.98-15.29 22.46-22.95l.04-.01z" fill="#0099CB"/></g><defs><clipPath id="clip0_212_2"><path fill="#fff" d="M0 0H1260V840H0z"/></clipPath></defs></svg>