<svg viewBox="0 0 1670.893 1216.326" xmlns="http://www.w3.org/2000/svg" xmlns:xlink="http://www.w3.org/1999/xlink"><linearGradient id="a" gradientTransform="translate(475.166)" gradientUnits="userSpaceOnUse" x1="201.369" x2="265.157" y1="659.212" y2="659.212"><stop offset=".427" stop-color="#d1ebf3"/><stop offset=".486" stop-color="#d7eef5"/><stop offset=".813" stop-color="#f4fafc"/><stop offset="1" stop-color="#fff"/></linearGradient><linearGradient id="b" gradientTransform="translate(475.166)" gradientUnits="userSpaceOnUse" x1="189.424" x2="244.551" y1="658.222" y2="658.222"><stop offset="0" stop-color="#ceeef8"/><stop offset=".417" stop-color="#c4e4ef"/><stop offset="1" stop-color="#bbdbe6"/></linearGradient><linearGradient id="c" x1="891.803" x2="955.59" xlink:href="#a" y1="930.135" y2="930.135"/><linearGradient id="d" x1="879.856" x2="934.985" xlink:href="#b" y1="929.145" y2="929.145"/><linearGradient id="e" x1="-92.88" x2="-29.093" xlink:href="#a" y1="1124.084" y2="1124.084"/><linearGradient id="f" x1="-104.827" x2="-49.699" xlink:href="#b" y1="1123.094" y2="1123.094"/><linearGradient id="g" gradientUnits="userSpaceOnUse" x1="1124.475" x2="1160.415" y1="971.372" y2="971.372"><stop offset="0" stop-color="#c4dfe8"/><stop offset=".247" stop-color="#cde4eb"/><stop offset=".646" stop-color="#e4f1f5"/><stop offset="1" stop-color="#fff"/></linearGradient><linearGradient id="h" x1="1122.868" x2="1158.71" xlink:href="#g" y1="1015.914" y2="1015.914"/><linearGradient id="i" gradientUnits="userSpaceOnUse" x1="1211.647" x2="1250.173" y1="1046.477" y2="1046.477"><stop offset="0" stop-color="#c4dfe8"/><stop offset="1" stop-color="#daeef5"/></linearGradient><linearGradient id="j" x1="1233.376" x2="1311.799" xlink:href="#g" y1="1056.518" y2="1056.518"/><linearGradient id="k" x1="1088.635" x2="1109.46" xlink:href="#g" y1="996.151" y2="996.151"/><linearGradient id="l" x1="1166.249" x2="1208.717" xlink:href="#g" y1="1000.453" y2="1000.453"/><linearGradient id="m" gradientUnits="userSpaceOnUse" x1="1205.885" x2="1260.891" y1="1033.677" y2="1033.677"><stop offset="0" stop-color="#00e100"/><stop offset="1" stop-color="#05fb05"/></linearGradient><linearGradient id="n" gradientUnits="userSpaceOnUse" x1="1188.602" x2="1278.182" y1="1059.403" y2="1059.403"><stop offset="0" stop-color="#05fb05"/><stop offset="1" stop-color="#00e100"/></linearGradient><linearGradient id="o" x1="223.889" x2="268.259" xlink:href="#i" y1="810.243" y2="810.243"/><linearGradient id="p" x1="117.034" x2="252.49" xlink:href="#g" y1="866.285" y2="866.285"/><linearGradient id="q" x1="252.744" x2="329.82" xlink:href="#g" y1="810.243" y2="810.243"/><linearGradient id="r" gradientUnits="userSpaceOnUse" x1="134.537" x2="134.543" y1="894.979" y2="894.979"><stop offset="0" stop-color="#c4dfe8"/><stop offset="1" stop-color="#fff"/></linearGradient><linearGradient id="s" gradientUnits="userSpaceOnUse" x1="223.903" x2="278.909" y1="787.74" y2="787.74"><stop offset="0" stop-color="#3e93af"/><stop offset="1" stop-color="#52aecc"/></linearGradient><linearGradient id="t" gradientUnits="userSpaceOnUse" x1="226.413" x2="296.198" y1="813.465" y2="813.465"><stop offset="0" stop-color="#52aecc"/><stop offset="1" stop-color="#3e93af"/></linearGradient><linearGradient id="u" gradientUnits="userSpaceOnUse" x1="595.678" x2="921.403" y1="504.065" y2="504.065"><stop offset="0" stop-color="#c4dfe8"/><stop offset=".038" stop-color="#c8e2ea"/><stop offset=".343" stop-color="#e6f1f5"/><stop offset=".604" stop-color="#f8fbfc"/><stop offset=".79" stop-color="#fff"/></linearGradient><linearGradient id="v" gradientUnits="userSpaceOnUse" x1="841.403" x2="1000.726" y1="56.062" y2="332.017"><stop offset=".551" stop-color="#52aecc"/><stop offset=".595" stop-color="#328099"/><stop offset=".6" stop-color="#2e7a93"/></linearGradient><linearGradient id="w" gradientUnits="userSpaceOnUse" x1="1162.996" x2="1049.011" y1="412.858" y2="105.472"><stop offset="0" stop-color="#ceebf4"/><stop offset=".741" stop-color="#f5f8f9"/></linearGradient><linearGradient id="x" gradientUnits="userSpaceOnUse" x1="1254.429" x2="1113.348" y1="372.728" y2="216.698"><stop offset="0" stop-color="#c2dae2"/><stop offset="1" stop-color="#ceebf4"/></linearGradient><linearGradient id="y" gradientUnits="userSpaceOnUse" x1="1137.626" x2="1255.493" y1="326.874" y2="326.874"><stop offset="0" stop-color="#fff"/><stop offset="1" stop-color="#daecf2"/></linearGradient><linearGradient id="z" gradientUnits="userSpaceOnUse" x1="1058.885" x2="1115.317" y1="66.187" y2="163.93"><stop offset=".259" stop-color="#0099cb"/><stop offset=".941" stop-color="#7ad1ed"/><stop offset="1" stop-color="#7ed5f1"/></linearGradient><linearGradient id="A" x1="1168.339" x2="1221.989" xlink:href="#z" y1="133.313" y2="226.238"/><linearGradient id="B" gradientUnits="userSpaceOnUse" x1="1229.436" x2="1229.436" y1="408.014" y2="203.399"><stop offset="0" stop-color="#1c586b"/><stop offset=".692" stop-color="#357d94"/><stop offset="1" stop-color="#408ea8"/></linearGradient><linearGradient id="C" gradientTransform="translate(-2.29)" gradientUnits="userSpaceOnUse" x1="372.555" x2="521.884" y1="924.889" y2="924.889"><stop offset="0" stop-color="#c4e0e9"/><stop offset=".095" stop-color="#cee5ed"/><stop offset=".409" stop-color="#e9f4f7"/><stop offset=".687" stop-color="#f9fcfd"/><stop offset=".899" stop-color="#fff"/></linearGradient><linearGradient id="D" gradientTransform="translate(-23.713)" x1="370.327" x2="509.462" xlink:href="#C" y1="886.928" y2="886.928"/><linearGradient id="E" gradientUnits="userSpaceOnUse" x1="347.005" x2="330.188" y1="894.44" y2="853.432"><stop offset="0" stop-color="#195a6f"/><stop offset=".512" stop-color="#2b768e"/><stop offset="1" stop-color="#3e93af"/></linearGradient><linearGradient id="F" x1="352.52" x2="335.701" xlink:href="#E" y1="892.183" y2="851.169"/><linearGradient id="G" gradientUnits="userSpaceOnUse" x1="333.134" x2="414.303" y1="798.802" y2="798.802"><stop offset="0" stop-color="#195a6f"/><stop offset=".788" stop-color="#134150"/><stop offset="1" stop-color="#114711"/></linearGradient><linearGradient id="H" gradientUnits="userSpaceOnUse" x1="390.285" x2="354.143" y1="935.303" y2="911.7"><stop offset="0" stop-color="#195a6f"/><stop offset=".846" stop-color="#2a758e"/><stop offset="1" stop-color="#2e7b94"/></linearGradient><linearGradient id="I" x1="393.808" x2="357.658" xlink:href="#H" y1="929.917" y2="906.308"/><linearGradient id="J" gradientTransform="matrix(-1 0 0 1 598.846 0)" gradientUnits="userSpaceOnUse" x1="211.885" x2="260.461" y1="816.209" y2="827.639"><stop offset="0" stop-color="#195a6f"/><stop offset=".609" stop-color="#2f7c95"/><stop offset="1" stop-color="#3e93af"/></linearGradient><linearGradient id="K" gradientTransform="matrix(-1 0 0 1 598.846 0)" gradientUnits="userSpaceOnUse" x1="264.84" x2="177.668" y1="709.326" y2="709.326"><stop offset="0" stop-color="#06fc06"/><stop offset=".252" stop-color="#04f504"/><stop offset="1" stop-color="#00e100"/></linearGradient><linearGradient id="L" gradientUnits="userSpaceOnUse" x1="499.797" x2="658.374" y1="679.777" y2="849.452"><stop offset="0" stop-color="#daeef5"/><stop offset="1" stop-color="#95b6c1"/></linearGradient><linearGradient id="M" gradientUnits="userSpaceOnUse" x1="495.745" x2="661.57" y1="681.183" y2="852.9"><stop offset="0" stop-color="#f6fafb"/><stop offset=".565" stop-color="#d7eaf0"/><stop offset="1" stop-color="#c4e0e9"/></linearGradient><linearGradient id="N" gradientUnits="userSpaceOnUse" x1="394.295" x2="584.25" y1="723.271" y2="913.226"><stop offset="0" stop-color="#f6fafb"/><stop offset="1" stop-color="#abceda"/></linearGradient><linearGradient id="O" x1="395.219" x2="582.551" xlink:href="#M" y1="727.593" y2="914.925"/><linearGradient id="P" gradientUnits="userSpaceOnUse" x1="388.76" x2="344.26" y1="784.673" y2="669.172"><stop offset="0" stop-color="#06fc06"/><stop offset=".636" stop-color="#2dfe2d"/><stop offset="1" stop-color="#3eff3e"/></linearGradient><linearGradient id="Q" gradientTransform="matrix(-1 0 0 1 1512.613 0)" gradientUnits="userSpaceOnUse" x1="712.22" x2="816.341" y1="1058.523" y2="1058.523"><stop offset=".006" stop-color="#fff"/><stop offset=".246" stop-color="#fafcfd"/><stop offset=".53" stop-color="#ecf5f8"/><stop offset=".835" stop-color="#d4e8ef"/><stop offset="1" stop-color="#c4e0e9"/></linearGradient><linearGradient id="R" x1="758.98" x2="870.933" xlink:href="#Q" y1="1089.989" y2="1089.989"/><linearGradient id="S" gradientTransform="translate(541.953)" gradientUnits="userSpaceOnUse" x1="122.791" x2="166.87" y1="1054.55" y2="1054.55"><stop offset="0" stop-color="#3e93af"/><stop offset=".304" stop-color="#3586a0"/><stop offset=".891" stop-color="#1e6177"/><stop offset="1" stop-color="#195a6f"/></linearGradient><linearGradient id="T" x1="68.668" x2="112.796" xlink:href="#S" y1="1085.894" y2="1085.894"/><linearGradient id="U" gradientUnits="userSpaceOnUse" x1="633.975" x2="698.241" y1="980.816" y2="980.816"><stop offset="0" stop-color="#3e93af"/><stop offset=".244" stop-color="#33829c"/><stop offset=".732" stop-color="#20657b"/><stop offset="1" stop-color="#195a6f"/></linearGradient><linearGradient id="V" gradientTransform="matrix(.96141549 -.27510044 .27510044 .96141549 378.286441 233.692651)" gradientUnits="userSpaceOnUse" x1="46.144" x2="134.028" y1="683.414" y2="683.414"><stop offset="0" stop-color="#00e100"/><stop offset=".46" stop-color="#03ef03"/><stop offset="1" stop-color="#06fc06"/></linearGradient><linearGradient id="W" gradientUnits="userSpaceOnUse" x1="613.03" x2="646.592" y1="880.675" y2="880.675"><stop offset="0" stop-color="#d6e7ec"/><stop offset=".474" stop-color="#e7f1f4"/><stop offset="1" stop-color="#fff"/></linearGradient><linearGradient id="X" gradientTransform="matrix(-.40459899 .91449421 .91449421 .40459899 758.128054 -1.234466)" gradientUnits="userSpaceOnUse" x1="791.25" x2="896.363" y1="205.476" y2="205.476"><stop offset="0" stop-color="#3eff3e"/><stop offset="1" stop-color="#06fc06"/></linearGradient><linearGradient id="Y" gradientUnits="userSpaceOnUse" x1="828.928" x2="1273.997" y1="697.523" y2="697.523"><stop offset=".402" stop-color="#cfe9f1"/><stop offset="1" stop-color="#fff"/></linearGradient><linearGradient id="Z" gradientUnits="userSpaceOnUse" x1="781.356" x2="1226.423" y1="747.234" y2="747.234"><stop offset="0" stop-color="#ceeef8"/><stop offset="1" stop-color="#bbdbe6"/></linearGradient><linearGradient id="aa" gradientUnits="userSpaceOnUse" x1="1008.499" x2="1226.423" y1="647.316" y2="647.316"><stop offset="0" stop-color="#c4e0e9"/><stop offset="1" stop-color="#fff"/></linearGradient><linearGradient id="ab" gradientUnits="userSpaceOnUse" x1="977.146" x2="1176.212" y1="597.983" y2="597.983"><stop offset="0" stop-color="#52aecc"/><stop offset="1" stop-color="#2e7b94"/></linearGradient><linearGradient id="ac" gradientUnits="userSpaceOnUse" x1="882.762" x2="1129.774" y1="558.605" y2="558.605"><stop offset="0" stop-color="#c4e0e9"/><stop offset=".677" stop-color="#d2e9f0"/><stop offset="1" stop-color="#daeef5"/></linearGradient><linearGradient id="ad" gradientUnits="userSpaceOnUse" x1="828.596" x2="1107.047" y1="384.542" y2="569.649"><stop offset="0" stop-color="#fff"/><stop offset=".486" stop-color="#e0eff4"/><stop offset="1" stop-color="#bbdbe6"/></linearGradient><linearGradient id="ae" gradientUnits="userSpaceOnUse" x1="929.979" x2="1117.188" y1="631.168" y2="360.227"><stop offset="0" stop-color="#ceeef8"/><stop offset="1" stop-color="#fff"/></linearGradient><linearGradient id="af" gradientUnits="userSpaceOnUse" x1="791.729" x2="1004.938" y1="489.177" y2="489.177"><stop offset="0" stop-color="#67c9e9"/><stop offset=".906" stop-color="#21657b"/><stop offset="1" stop-color="#195a6f"/></linearGradient><linearGradient id="ag" gradientUnits="userSpaceOnUse" x1="863.155" x2="1004.938" y1="533.99" y2="533.99"><stop offset="0" stop-color="#d1ebf3"/><stop offset="1" stop-color="#fff"/></linearGradient><linearGradient id="ah" x1="818.95" x2="1101.071" xlink:href="#ab" y1="367.988" y2="367.988"/><linearGradient id="ai" gradientUnits="userSpaceOnUse" x1="1099.959" x2="1070.662" y1="740.013" y2="690.336"><stop offset=".038" stop-color="#195a6f"/><stop offset=".146" stop-color="#357f97"/><stop offset=".308" stop-color="#5cb1cd"/><stop offset=".43" stop-color="#74d0ee"/><stop offset=".496" stop-color="#7ddcfb"/><stop offset=".583" stop-color="#6fc9e7"/><stop offset=".762" stop-color="#4999b3"/><stop offset=".97" stop-color="#195a6f"/></linearGradient><linearGradient id="aj" gradientUnits="userSpaceOnUse" x1="1123.114" x2="1093.817" y1="726.358" y2="676.681"><stop offset=".038" stop-color="#195a6f"/><stop offset=".072" stop-color="#245565"/><stop offset=".224" stop-color="#3a7c3a"/><stop offset=".351" stop-color="#1bb31b"/><stop offset=".445" stop-color="#07d407"/><stop offset=".496" stop-color="#00e100"/><stop offset=".562" stop-color="#0ccd0c"/><stop offset=".698" stop-color="#2a982a"/><stop offset=".889" stop-color="#305a30"/><stop offset=".97" stop-color="#195a6f"/></linearGradient><linearGradient id="ak" gradientUnits="userSpaceOnUse" x1="833.042" x2="1096.469" y1="365.777" y2="365.777"><stop offset="0" stop-color="#06fc06"/><stop offset=".563" stop-color="#558e55"/><stop offset="1" stop-color="#2e7b94"/></linearGradient><linearGradient id="al" gradientUnits="userSpaceOnUse" x1="960.01" x2="1055.991" y1="367.987" y2="367.987"><stop offset="0" stop-color="#a5c2cc"/><stop offset="1" stop-color="#fff"/></linearGradient><linearGradient id="am" gradientTransform="matrix(.866 -.5 0 1.1547 78.196 -150.728)" gradientUnits="userSpaceOnUse" x1="421.123" x2="301.991" y1="762.403" y2="643.271"><stop offset="0" stop-color="#195a6f"/><stop offset="1" stop-color="#7ddcfb"/></linearGradient><linearGradient id="an" gradientTransform="matrix(1 -1.1547 0 1 3.04 272.565)" x1="414.542" x2="361.423" xlink:href="#am" y1="698.35" y2="620.022"/><linearGradient id="ao" gradientTransform="matrix(1 -1.1547 0 1 3.04 272.565)" x1="425.035" x2="371.89" xlink:href="#am" y1="691.334" y2="612.967"/><linearGradient id="ap" gradientTransform="matrix(1 -1.1547 0 1 3.04 272.565)" x1="442.551" x2="389.398" xlink:href="#am" y1="686.601" y2="608.223"/><linearGradient id="aq" gradientTransform="matrix(1 -1.1547 0 1 3.04 272.565)" x1="391.957" x2="338.84" xlink:href="#am" y1="713.615" y2="635.289"/><linearGradient id="ar" gradientTransform="matrix(1 -1.1547 0 1 3.04 272.565)" x1="397.92" x2="344.822" xlink:href="#am" y1="709.594" y2="631.298"/><linearGradient id="as" gradientTransform="matrix(1 -1.1547 0 1 3.04 272.565)" x1="405.215" x2="351.988" xlink:href="#am" y1="705.996" y2="627.507"/><linearGradient id="at" gradientTransform="matrix(1 -1.1547 0 1 3.04 272.565)" x1="414.541" x2="361.446" xlink:href="#am" y1="702.844" y2="624.552"/><linearGradient id="au" gradientUnits="userSpaceOnUse" x1="1315.858" x2="1562.137" y1="792.106" y2="792.106"><stop offset="0" stop-color="#cfe9f1"/><stop offset=".585" stop-color="#eef7fa"/><stop offset="1" stop-color="#fff"/></linearGradient><linearGradient id="av" gradientUnits="userSpaceOnUse" x1="1417.471" x2="1288.868" y1="650.94" y2="650.94"><stop offset="0" stop-color="#fff"/><stop offset="1" stop-color="#c4dfe8"/></linearGradient><linearGradient id="aw" gradientUnits="userSpaceOnUse" x1="1219.383" x2="1306.381" y1="653.185" y2="502.501"><stop offset=".414" stop-color="#ceeef8"/><stop offset=".62" stop-color="#f6fafb"/></linearGradient><linearGradient id="ax" gradientUnits="userSpaceOnUse" x1="221.222" x2="310.028" y1="688.36" y2="688.36"><stop offset="0" stop-color="#cfe9f1"/><stop offset=".283" stop-color="#e1f1f6"/><stop offset=".719" stop-color="#f7fcfd"/><stop offset="1" stop-color="#fff"/></linearGradient><linearGradient id="ay" gradientUnits="userSpaceOnUse" x1="885.792" x2="1050.176" y1="923.42" y2="923.42"><stop offset=".331" stop-color="#c2e1eb"/><stop offset=".577" stop-color="#d5eaf1"/><stop offset="1" stop-color="#fff"/></linearGradient><linearGradient id="az" gradientUnits="userSpaceOnUse" x1="922.684" x2="972.344" y1="904.431" y2="904.431"><stop offset="0" stop-color="#b9dce8"/><stop offset="1" stop-color="#d8eff6"/></linearGradient><linearGradient id="aA" gradientUnits="userSpaceOnUse" x1="908.659" x2="940.339" y1="941.02" y2="941.02"><stop offset="0" stop-color="#b9dce8"/><stop offset="1" stop-color="#cceffa"/></linearGradient><linearGradient id="aB" gradientTransform="matrix(-.50001511 .86601668 -.86601668 -.50001511 1338.399919 722.62602)" gradientUnits="userSpaceOnUse" x1="365.849" x2="381.469" y1="197.42" y2="223.544"><stop offset="0" stop-color="#cceffa"/><stop offset="1" stop-color="#b9dce8"/></linearGradient><linearGradient id="aC" gradientUnits="userSpaceOnUse" x1="987.571" x2="1009.176" y1="916.376" y2="916.376"><stop offset=".404" stop-color="#b9dce8"/><stop offset="1" stop-color="#cceffa"/></linearGradient><radialGradient id="aD" cx="1046.992" cy="420.087" gradientTransform="matrix(.6238 .4973 -.3521 .7159 414.894 -294.117)" gradientUnits="userSpaceOnUse" r="27.898"><stop offset=".169" stop-color="#06fc06"/><stop offset=".259" stop-color="#05e405"/><stop offset=".452" stop-color="#04a504"/><stop offset=".728" stop-color="#024302"/><stop offset=".904"/></radialGradient><radialGradient id="aE" cx="838.591" cy="394.626" gradientTransform="matrix(.6465 .763 -.3375 .9413 397.385 -542.3)" gradientUnits="userSpaceOnUse" r="20.245"><stop offset="0" stop-color="#06fc06"/><stop offset=".177" stop-color="#05c105"/><stop offset=".442" stop-color="#15c215"/><stop offset=".661" stop-color="#013301"/><stop offset=".82" stop-color="#000e00"/><stop offset=".904"/></radialGradient><path d="m732.188 647.921c-5.758-3.326-13.416-4.855-20.937-4.633h-20.475v1.93a31.296 31.296 0 0 0 -6.24 2.703c-10.719 6.236-10.658 16.34.13 22.576a31.205 31.205 0 0 0 6.11 2.643v2.017h22.828c6.799-.109 13.535-1.654 18.713-4.656 10.723-6.24 10.67-16.344-.129-22.58z" fill="url(#a)"/><path d="m672.725 670.48c-5.433-3.135-8.146-7.25-8.134-11.362l.023-17.834c-.012 4.114 2.701 8.229 8.133 11.368 10.797 6.232 28.238 6.232 38.965.005 5.328-3.101 7.994-7.15 8.005-11.209l-.023 17.827c-.014 4.06-2.678 8.113-8.008 11.213-10.72 6.23-28.166 6.23-38.96-.008z" fill="url(#b)"/><path d="m672.747 652.652c-10.795-6.233-10.852-16.334-.131-22.567 10.728-6.234 28.178-6.234 38.969 0 10.798 6.233 10.85 16.334.127 22.572-10.727 6.227-28.168 6.227-38.965-.005z" fill="#f1f5f6"/><path d="m685.208 647.798-3.854-2.223 14.865-8.584-6.015-1.834 3.105-1.792 10.916 2.976.412.242z" fill="#d1ebf3"/><path d="m1422.622 918.843c-5.76-3.326-13.416-4.857-20.94-4.63h-20.472v1.927a31.244 31.244 0 0 0 -6.24 2.703c-10.72 6.236-10.659 16.34.128 22.57a31.115 31.115 0 0 0 6.112 2.649v2.017h22.826c6.8-.111 13.539-1.654 18.715-4.662 10.722-6.234 10.668-16.338-.13-22.574z" fill="url(#c)"/><path d="m1363.157 941.405c-5.432-3.138-8.145-7.25-8.135-11.367l.024-17.83c-.008 4.111 2.703 8.227 8.134 11.365 10.795 6.237 28.239 6.237 38.965.004 5.324-3.1 7.994-7.146 8.006-11.207l-.023 17.826c-.014 4.06-2.68 8.108-8.008 11.213-10.723 6.23-28.17 6.23-38.963-.004z" fill="url(#d)"/><path d="m1363.18 923.573c-10.795-6.23-10.853-16.333-.132-22.57 10.728-6.23 28.18-6.23 38.97 0 10.797 6.236 10.85 16.34.127 22.574-10.726 6.233-28.17 6.233-38.965-.004z" fill="#f1f5f6"/><path d="m1388.032 916.962a18.315 18.315 0 0 1 -7.82 2.594 12.015 12.015 0 0 1 -7.012-1.586q-3.17-1.831-2.76-4.01.416-2.18 4.28-4.457l3.57-2.059a18.052 18.052 0 0 1 7.855-2.59 12.08 12.08 0 0 1 6.965 1.588q3.173 1.834 2.766 4.004-.405 2.174-4.272 4.453zm.076-4.49q2.414-1.4 2.858-2.414.436-1.017-.961-1.82a4.662 4.662 0 0 0 -3.053-.555 11.818 11.818 0 0 0 -3.965 1.492l-4.719 2.73a7.24 7.24 0 0 0 -2.883 2.409q-.51 1.037.922 1.865a4.651 4.651 0 0 0 3.143.537 12.62 12.62 0 0 0 4.043-1.582z" fill="#d1ebf3"/><path d="m437.938 1112.792c-5.76-3.326-13.416-4.857-20.94-4.63h-20.472v1.927a31.241 31.241 0 0 0 -6.24 2.703c-10.719 6.236-10.656 16.34.129 22.57a31.115 31.115 0 0 0 6.111 2.649v2.018h22.828c6.799-.112 13.54-1.655 18.713-4.663 10.723-6.234 10.67-16.338-.129-22.574z" fill="url(#e)"/><path d="m378.473 1135.355c-5.431-3.14-8.144-7.25-8.133-11.367l.023-17.83c-.009 4.11 2.702 8.226 8.134 11.365 10.797 6.234 28.24 6.234 38.965.004 5.326-3.1 7.996-7.149 8.005-11.208l-.023 17.827c-.014 4.06-2.678 8.107-8.008 11.212-10.72 6.231-28.17 6.231-38.963-.003z" fill="url(#f)"/><path d="m378.497 1117.523c-10.795-6.23-10.853-16.334-.133-22.57 10.728-6.231 28.18-6.231 38.97 0 10.8 6.236 10.85 16.34.128 22.573-10.725 6.23-28.168 6.23-38.965-.003z" fill="#f1f5f6"/><path d="m403.35 1110.911a18.327 18.327 0 0 1 -7.822 2.594 12.015 12.015 0 0 1 -7.012-1.586q-3.17-1.831-2.76-4.01.416-2.18 4.282-4.457l3.568-2.058a18.06 18.06 0 0 1 7.856-2.59 12.092 12.092 0 0 1 6.964 1.586c2.116 1.224 3.038 2.554 2.766 4.006q-.404 2.173-4.27 4.453zm.074-4.49q2.414-1.4 2.858-2.414.44-1.016-.959-1.82a4.666 4.666 0 0 0 -3.055-.555 11.764 11.764 0 0 0 -3.963 1.492l-4.72 2.73a7.223 7.223 0 0 0 -2.883 2.409q-.507 1.037.922 1.865a4.653 4.653 0 0 0 3.142.537 12.62 12.62 0 0 0 4.043-1.582z" fill="#d1ebf3"/><path d="m1159.799 965.851h-33.621l-1.703.98 15.578 8.994 1.85 1.069 18.512-10.69z" fill="url(#g)"/><path d="m1158.71 1020.124-16.809-9.705-19.033 10.99h33.619z" fill="url(#h)"/><path d="m1233.376 1052.651a46.912 46.912 0 0 0 7.048-.543 16.576 16.576 0 0 1 7.11-7.17 28.204 28.204 0 0 1 2.639-1.327c-10.784-4.813-26.37-4.377-36.256 1.33a22.453 22.453 0 0 0 -2.27 1.507 20.345 20.345 0 0 0 2.274 1.547c5.197 3.004 12.105 4.657 19.455 4.657z" fill="url(#i)"/><path d="m1298.676 1037.882a59.11 59.11 0 0 0 -21.652-6.889 15.783 15.783 0 0 1 1.158 5.772v19.408c0 6.91-4.666 13.408-13.127 18.291-8.463 4.887-19.713 7.578-31.68 7.578h32.528l.05-.03c.348.005.69.03 1.04.03 11.967 0 23.219-2.693 31.68-7.578 8.46-4.885 13.126-11.38 13.126-18.29-.003-6.91-4.666-13.405-13.123-18.292z" fill="url(#j)"/><path d="m1109.46 990.656h-1.791l-19.034 10.99h20.825z" fill="url(#k)"/><path d="m1208.717 1005.251-12.125-6.998 9.665-5.58-12.225-7.059h-19.326l.394.227-8.851 5.11 42.16 24.341-8.543-4.932zm-33.199-8.95h.006l-.004.003z" fill="url(#l)"/><path d="m1166.249 990.95 8.851-5.109v19.41l-8.851 5.11z" fill="#00e100"/><path d="m1118.311 977.39-10.638-6.145v19.411l10.638 6.142zm77.875 44.959-54.283-31.34v19.412l54.283 31.34z" fill="#05fb05"/><path d="m1141.903 991.009-19.035 10.99v19.41l19.035-10.988z" fill="#00e100"/><path d="m1121.684 989.554-12.224-7.059v19.412l12.224 7.059zm-33.049-7.318-12.224-7.059v19.41l12.224 7.059zm6.813-18.049-8.656-4.996v19.412l8.656 4.996z" fill="#05fb05"/><path d="m1119.895 964.187 18.512-10.688v19.412l-18.512 10.688zm43.08 14.656 9.664-5.58v19.412l-9.664 5.578zm-55.302-7.598-19.038 10.991v19.41l19.038-10.99z" fill="#00e100"/><path d="m1208.409 1015.292-42.16-24.342 8.851-5.11-12.125-6.997 9.664-5.58-12.224-7.059-18.512 10.69-22.008-12.707 18.512-10.688-12.225-7.058-18.511 10.69-8.657-5-12.222 7.06 8.656 4.996-19.037 10.99 12.224 7.059 19.038-10.99 10.638 6.144-8.851 5.105 11.369 6.565-10.186 5.88 12.225 7.06 19.035-10.991 54.283 31.34c-11.695 10.053-9.869 23.828 5.51 32.705 8.461 4.887 19.713 7.58 31.68 7.58s23.216-2.693 31.68-7.58c8.46-4.885 13.126-11.38 13.126-18.29-.004-6.91-4.666-13.403-13.123-18.292-15.379-8.877-39.242-9.93-56.65-3.18zm52.482 21.473c0 4.244-2.865 8.23-8.06 11.23-5.198 3.004-12.108 4.656-19.455 4.656-7.35 0-14.258-1.652-19.455-4.656-10.729-6.193-10.733-16.271-.004-22.467 10.728-6.19 28.183-6.19 38.914.002 5.195 3.002 8.06 6.99 8.06 11.235z" fill="#3eff3e"/><path d="m1211.622 1046.468a23.085 23.085 0 0 1 2.295-1.527c10.728-6.194 28.183-6.194 38.914 0a24.36 24.36 0 0 1 2.299 1.527c3.718-2.768 5.761-6.143 5.761-9.703 0-4.244-2.865-8.233-8.06-11.234-10.73-6.194-28.186-6.194-38.914-.002-9.889 5.71-10.637 14.71-2.295 20.939z" fill="url(#m)"/><path d="m1265.055 1055.054c-8.463 4.887-19.713 7.58-31.68 7.58s-23.218-2.693-31.679-7.58c-8.47-4.889-12.803-11.262-13.049-17.68l-.045.008v18.877h.006c.035 6.596 4.389 13.186 13.088 18.205 8.461 4.887 19.713 7.578 31.68 7.578s23.216-2.691 31.68-7.578c8.46-4.883 13.126-11.38 13.126-18.29v-19.41c0 6.91-4.666 13.405-13.127 18.29z" fill="url(#n)"/><path d="m1122.868 1001.999-12.225-7.058v19.412l12.225 7.056z" fill="#05fb05"/><path d="m231.935 821.468c5.197 3 12.104 4.654 19.452 4.654a41.72 41.72 0 0 0 16.67-3.265c-.615-.307-1.386-.744-2.5-1.387-10.725-6.192-10.725-16.272.004-22.467a28.627 28.627 0 0 1 2.698-1.303c-10.784-4.843-26.415-4.418-36.322 1.301-10.73 6.196-10.73 16.276-.002 22.467z" fill="url(#o)"/><path d="m117.034 894.865h17.31l-8.653-4.999zm113.571-17.477-15.99-9.232 12.124-6.999-8.85-5.109 34.601-19.976c-.37.005-.73.03-1.099.03a69.49 69.49 0 0 1 -24.978-4.39l-41.15 23.758-.763.71 8.617 4.976-12.123 6.998 15.989 9.234-12.224 7.059-24.838-14.344-9.784 5.648 8.85 5.11-12.226 7.058 10.187 5.88-2.047 1.18h.009l-10.185 5.88h33.62l12.228-7.06-10.19-5.878 6.021-3.474h31.976l.003.001 12.224-7.058v-.002z" fill="url(#p)"/><path d="m316.695 791.945c-13.084-7.555-32.314-9.45-48.484-5.686a54.6 54.6 0 0 1 14.862 5.684c8.464 4.884 13.123 11.382 13.125 18.293-.002 6.908-4.663 13.404-13.125 18.289-8.124 4.69-18.825 7.33-30.255 7.539l-.074.04h33.622l.07-.038c11.43-.207 22.135-2.85 30.259-7.54 8.462-4.884 13.123-11.38 13.125-18.288-.002-6.91-4.661-13.407-13.125-18.293z" fill="url(#q)"/><path d="m134.537 894.98h.006l-.002-.002z" fill="url(#r)"/><path d="m112.47 869.74 12.225 7.056v-19.408l-12.225-7.059z" fill="#52aecc"/><path d="m104.994 877.921 12.222 7.057v-19.41l-12.222-7.057zm101.704-88.187h-.076v19.882l7.578-4.376c-5.414-4.657-7.89-10.11-7.502-15.506z" fill="#52aecc"/><path d="m229.638 800.532a23.17 23.17 0 0 1 2.3-1.53c10.728-6.194 28.184-6.194 38.91 0a23.476 23.476 0 0 1 2.3 1.526c3.72-2.765 5.76-6.142 5.76-9.705 0-4.242-2.861-8.228-8.06-11.232-10.726-6.191-28.182-6.191-38.91 0-9.892 5.71-10.641 14.717-2.3 20.941z" fill="url(#s)"/><path d="m283.073 809.115c-8.463 4.886-19.714 7.578-31.682 7.58a69.49 69.49 0 0 1 -24.978-4.391v19.41a69.534 69.534 0 0 0 24.978 4.39c11.968-.001 23.219-2.693 31.682-7.58 8.462-4.884 13.123-11.38 13.125-18.286v-19.413c-.002 6.909-4.663 13.405-13.125 18.29z" fill="url(#t)"/><path d="m184.267 856.048 42.146-24.334v-19.41l-42.146 24.332z" fill="#3e93af"/><path d="m180.994 868.156 12.123-6.999v-19.412l-12.123 7z" fill="#3e93af"/><path d="m184.759 884.447 12.224-7.059v-19.41l-12.224 7.058zm-34.622-8.694 9.784-5.648v-19.412l-9.784 5.65z" fill="#3e93af"/><path d="m146.761 887.919 12.226-7.058v-19.409l-12.226 7.057z" fill="#3e93af"/><path d="m144.725 900.859 12.223-7.059v-19.41l-12.223 7.057zm-27.691-5.995 8.653-4.996v-19.412l-8.653 4.998z" fill="#3e93af"/><path d="m125.687 889.868 19.036 10.991v-19.412l-19.036-10.991zm34.234-19.763 24.838 14.342v-19.411l-24.838-14.343zm-55.113 17.701 12.226 7.058v-19.41l-12.226-7.056z" fill="#52aecc"/><path d="m214.2 805.24-77.687 44.853-11.815-6.822-12.228 7.058 3.348 1.932-10.824 6.25 8.47 4.889-8.656 4.998 12.226 7.056 8.653-4.998 19.036 10.99 12.225-7.056-10.187-5.881 12.226-7.057-8.85-5.11 9.784-5.65 24.838 14.344 12.224-7.058-15.99-9.233 12.124-7-8.85-5.11 42.146-24.331a69.49 69.49 0 0 0 24.978 4.39c11.968-.002 23.219-2.693 31.682-7.58 8.462-4.884 13.123-11.38 13.125-18.289-.002-6.908-4.661-13.406-13.125-18.293-17.469-10.085-45.892-10.084-63.36 0-15.377 8.88-17.206 22.655-5.513 32.707zm56.648-25.65c5.199 3.005 8.06 6.991 8.06 11.233 0 4.247-2.861 8.233-8.06 11.235-5.195 3-12.108 4.654-19.46 4.654-7.35 0-14.256-1.652-19.453-4.652-10.728-6.194-10.728-16.274.002-22.47 10.729-6.19 28.185-6.19 38.911 0z" fill="#7cdcfb"/><path d="m921.403 504.076-30.834-17.804h-16.088l8.041-4.645-30.832-17.804h-16.09l8.041-4.645-30.832-17.805h-217.131l30.832 17.805-30.832 17.806h61.672l8.041 4.643-30.832 17.805h61.672l8.041 4.644-8.031 4.637h-61.67l30.842 17.802-8.024 4.633h-61.691l30.848 17.804-30.848 17.805h169.004l30.834-17.805-8.024-4.634h42.739v.002l.002-.002 30.834-17.803-8.024-4.634h37.506z" fill="url(#u)"/><path d="m556.833 525.069h30.83v19.245h-30.83zm-38.871-22.438h30.828v19.245h-30.828z" fill="#c4dfe8"/><path d="m595.694 476.996-30.84-17.804v-125.361l30.84 17.806z" fill="#ceeef8"/><path d="m595.694 476.996 30.838-17.804v-125.361l-30.838 17.806z" fill="#bbdbe6"/><path d="m595.694 351.637-30.84-17.806 30.84-17.803 30.838 17.803z" fill="#f6fafb"/><path d="m634.559 499.432-30.84-17.801v-125.36l30.84 17.802z" fill="#ceeef8"/><path d="m634.559 499.432 30.836-17.801v-125.36l-30.836 17.802z" fill="#bbdbe6"/><path d="m634.559 374.073-30.84-17.802 30.84-17.805 30.836 17.805z" fill="#f6fafb"/><path d="m673.423 521.872-30.84-17.802v-125.361l30.84 17.803z" fill="#ceeef8"/><path d="m673.423 521.872 30.839-17.802v-125.361l-30.839 17.803z" fill="#bbdbe6"/><path d="m673.423 396.512-30.84-17.803 30.84-17.803 30.839 17.803z" fill="#f6fafb"/><path d="m556.827 499.439-30.836-17.806v-125.36l30.836 17.803z" fill="#ceeef8"/><path d="m556.827 499.439 30.836-17.806v-125.36l-30.836 17.803z" fill="#bbdbe6"/><path d="m556.827 374.076-30.836-17.803 30.836-17.805 30.836 17.805z" fill="#f6fafb"/><path d="m595.694 521.876-30.84-17.806v-97.269l30.84 17.803z" fill="#05fb05"/><path d="m595.694 521.876 30.838-17.806v-97.269l-30.838 17.803z" fill="#00e100"/><path d="m595.694 424.604-30.84-17.803 30.84-17.804 30.838 17.804z" fill="#50ff50"/><path d="m573.075 402.053h45.23l-22.611-13.056z" fill="#f1f5f6"/><path d="m634.563 544.31-30.842-17.805v-112.973l30.842 17.803z" fill="#ceeef8"/><path d="m634.563 544.31 30.832-17.805v-112.973l-30.832 17.803z" fill="#bbdbe6"/><path d="m634.563 431.335-30.842-17.803 30.842-17.804 30.832 17.804z" fill="#f6fafb"/><path d="m517.962 521.876-30.836-17.803v-97.572l30.836 17.804z" fill="#ceeef8"/><path d="m517.962 521.876 30.836-17.803v-97.572l-30.836 17.804z" fill="#bbdbe6"/><path d="m517.962 424.305-30.836-17.804 30.836-17.805 30.836 17.805z" fill="#f6fafb"/><path d="m556.833 544.314-30.842-17.803v-68.878l30.842 17.803z" fill="#ceeef8"/><path d="m556.833 544.314 30.834-17.803v-68.878l-30.834 17.803z" fill="#bbdbe6"/><path d="m556.833 475.436-30.842-17.803 30.842-17.804 30.834 17.804z" fill="#f6fafb"/><path d="m534.216 452.885h45.228l-22.611-13.056z" fill="#f1f5f6"/><path d="m595.698 566.757-30.84-17.809v-97.57l30.84 17.802z" fill="#ceeef8"/><path d="m595.698 566.757 30.838-17.809v-97.57l-30.838 17.802z" fill="#bbdbe6"/><path d="m595.698 469.18-30.84-17.802 30.84-17.804 30.838 17.804zm379.728-125.895c0 4.471-3.166 6.3-7.039 4.064l-169.931-98.11a15.616 15.616 0 0 1 -7.04-12.192v-148.773c0-4.47 3.167-6.3 7.04-4.065l169.931 98.112a15.611 15.611 0 0 1 7.04 12.192z" fill="#f6fafb"/><path d="m974.253 178.935-169.933-98.112c-1.918-1.107-3.66-1.214-4.934-.5h-.002l-.015.007-.04.025-5.812 3.353.002.001c1.274-.714 3.016-.606 4.936.5l169.931 98.112a15.611 15.611 0 0 1 7.04 12.192v148.772c0 2.138-.731 3.665-1.91 4.437l5.439-3.14-.006-.009c1.433-.66 2.344-2.286 2.344-4.675v-148.773a15.61 15.61 0 0 0 -7.041-12.19z" fill="url(#v)"/><path d="m968.387 182.32-169.931-98.11c-3.873-2.235-7.04-.406-7.04 4.064v7.789l184.01 106.239v-7.79a15.611 15.611 0 0 0 -7.039-12.191z" fill="#06fc06"/><path d="m798.673 89.096 5.543 3.199v6.398l-5.543-3.199zm10.851 6.266 5.543 3.199v6.397l-5.543-3.199zm10.854 6.264 5.541 3.2v6.397l-5.541-3.198z" fill="#fff"/><path d="m962.743 233.161-84.74-48.925v-3.88l84.74 48.925zm0 9.144-84.74-48.926v-3.881l84.74 48.926zm0 9.143-84.74-48.924v-3.881l84.74 48.925zm0 9.145-105.684-61.017v-3.88l105.684 61.016zm0 9.144-105.684-61.017v-3.881l105.684 61.017zm0 9.143-105.684-61.017v-3.879l105.684 61.015zm0 9.145-105.684-61.018v-3.88l105.684 61.017zm0 9.143-105.684-61.016v-3.881l105.684 61.016zm0 9.144-105.684-61.016v-3.881l105.684 61.016zm-68.195-30.229-37.489-21.643v-3.881l37.489 21.642zm-48.965-134.871-2.096-2.42-23.313 44.366 2.094 2.421zm-1.41 14.283 12.814 21.017-12.814 6.218 2.36 4.327 15.604-7.572-15.603-25.588zm-42.887-11.142 15.6 25.587 2.36-1.6-12.814-21.015 12.815-6.22-2.362-4.325z" fill="#7cdcfb"/><path d="m1082.04 152.267c-19.92-19.602-33.065-48.087-46.703-72.48l-.002 105.653c-.155 82.808 46.693 180.173 109.754 233.373-20.055-85.603-16.446-175.359-16.297-262.663-16.375 9.458-29.477 13.123-46.752-3.883z" fill="url(#w)"/><path d="m1192.112 215.816c-29.463-9.606-46.768-35.514-63.318-59.671l-.002.005c-.149 87.304-3.758 177.06 16.297 262.663 59.09 15.328 110.404-69.693 110.404-106.268v-105.65c-16.385 9.452-35.801 17.907-63.381 8.92z" fill="url(#x)"/><path d="m1255.493 233.108c-36.244 22.796-80.371 144.538-117.867 146.894 2.037 13.01 4.457 25.967 7.463 38.81 59.09 15.329 110.404-69.692 110.404-106.267z" fill="url(#y)"/><path d="m1128.792 156.15 10.818-6.245c-16.385 9.457-29.482 13.125-46.764-3.88-19.914-19.601-37.83-45.33-51.468-69.73l-6.041 3.491c13.638 24.394 26.783 52.88 46.703 72.48 17.275 17.007 30.377 13.342 46.752 3.884z" fill="url(#z)"/><path d="m1202.923 209.573c-29.461-9.602-46.768-35.511-63.313-59.668l-10.816 6.24c16.55 24.157 33.855 50.065 63.318 59.67 27.58 8.987 46.996.532 63.38-8.92l6.04-3.491c-16.387 9.456-31.025 15.157-58.61 6.17z" fill="url(#A)"/><path d="m1255.493 206.895v105.65c0 25.037-24.043 72.755-58.16 95.469 38.017-18.384 64.207-71.52 64.207-98.957v-105.658c0 .005-.008.005-.008.005z" fill="url(#B)"/><path d="m519.594 912.228h-149.329l11.542 25.322h137.787z" fill="url(#C)"/><path d="m485.749 878.874h-139.135l1.349 16.107h137.786z" fill="url(#D)"/><path d="m337.492 855.366c-4.647-3.164-11.974 2.221-13.824 8.204-.081 2.578 1.829 6.884 1.829 6.884s7.762 17.291 10.404 20.229c2.638 2.95 13.347 7.166 18.503 2.765 3.704-4.802-3.647-7.671-4.985-12.423-1.753-6.184-1-11.13-2.717-15.791-1.414-3.829-9.21-9.868-9.21-9.868z" fill="url(#E)"/><path d="m324.111 862.382a.706.706 0 0 0 -.021.068c-.08 2.573 1.82 6.89 1.82 6.89s7.77 17.282 10.405 20.227c2.64 2.95 13.353 7.172 18.512 2.764a6.67 6.67 0 0 0 .514-.793 4.661 4.661 0 0 1 -.937 1.91c-5.156 4.4-15.865.186-18.503-2.765-2.642-2.938-10.404-20.229-10.404-20.229s-1.91-4.306-1.83-6.885a11.685 11.685 0 0 1 .444-1.187z" fill="#114711"/><path d="m350.24 859.274c-2.268-1.543-11.633-4.945-11.633-4.945a5.329 5.329 0 0 1 -2.115 1.575c-.137.035-.267.086-.412.132-2.312.018-6.506 2.192-3.915 6.848 5.024 9.047 16.633 8.729 15.358 4.438-.866-2.881 1.518-6.284 2.717-8.048z" fill="#fff"/><path d="m347.736 869.677c.358-1.43.774-4.523-2.885-5.033-3.83-.545-8.157 1.226-7.804 3.474.74 4.674 10.33 2.998 10.689 1.559z" fill="url(#F)"/><path d="m333.427 854.505c4.344-5.856 36.541-44.613 51.71-52.332-5.1-21.39-18.333-49.183-14.13-72.098h32.302s19.157 67.85 6.895 84.018c-9.285 12.256-50.375 43.563-65.679 53.436-5.25 0-12.998-8.48-11.098-13.024z" fill="url(#G)"/><path d="m360.842 910.84c-5.548.91-7.154 9.849-4.38 15.466 1.721 1.928 6.073 3.738 6.073 3.738s17.526 7.192 21.468 7.506c3.945.324 12.7-1.156 13.42-7.889-.682-4.119-4.133-5.246-8.383-7.767-5.524-3.28-10.264-8.045-14.721-10.233-3.664-1.796-13.477-.82-13.477-.82z" fill="url(#H)"/><path d="m383.882 935.745c-4.057-.318-22.095-7.71-22.095-7.71s-4.207-1.77-6.063-3.686a12.88 12.88 0 0 0 .738 1.957c1.721 1.927 6.073 3.738 6.073 3.738s17.526 7.191 21.468 7.506c3.945.324 12.7-1.156 13.42-7.889-.032-.138-.084-.265-.108-.412-1.861 5.547-9.724 6.803-13.433 6.496z" fill="#114711"/><path d="m372.786 904.902c-2.706.439-11.853 4.416-11.853 4.416a5.29 5.29 0 0 1 -.447 2.597c-.07.121-.137.248-.207.375-1.661 1.612-3.416 4.46 1.668 6.06 9.866 3.104 18.278-3.519 14.397-5.745-2.607-1.493-3.216-5.608-3.558-7.703z" fill="#fff"/><path d="m378.02 913.935c-.732-.977-2.441-3.58-5.453-1.434-3.154 2.248-3.863 4.944-3.494 7.194.369 2.246 6.861.584 7.11.244.243-.336 1.837-6.004 1.837-6.004z" fill="url(#I)"/><path d="m374.973 739.265c0 30.34.309 53.984.309 80.478 0 30.295 2.316 67.856 1.994 93.25-4.871 6.03-17.244 4.516-19.852-.146-3.216-23.047-10.398-58.152-8.62-83.307-7.67-33.148-15.069-72.146-11.946-98.158 7.338 2.33 30.772 5.555 38.115 7.883z" fill="url(#J)"/><path d="m411.805 654.259c10.893 6.064 21.325 39.652 26.012 45.814 4.684 6.163 13.436 14 13.436 14-5.04 4.198-16.069 10.358-16.069 10.358-5.32-4.48-14.263-3.559-24.96-30.309-10.696-26.752 1.581-39.863 1.581-39.863z" fill="#02ce02"/><path d="m355.213 665.42c6.414-8.03 22.186-19.235 32.512-19.999 17.56-1.293 30.801 12.127 33.295 25.346 2.203 11.697-19.445 70.765-15.68 86.281-1.855 8.186-15.462 12.62-21.166 13.871-24.785 5.438-49.842 1.961-50.122-13.87-.919-52.495 11.902-82.37 21.16-91.63z" fill="url(#K)"/><path d="m474.122 704.605c7.394-14.14 32.935-32.287 58.049-24.88 15.57 4.597 16.048 10.36 15.93 11.655 11.093-6.342 42.634-14.576 48.482 22.73 14.996-1.47 40.529 6.483 39.336 42.278 11.214 6.922 31.203 29.566 20.728 60.59 11.453 4.244 10.059 32.007-7.365 47.757-17.42 15.75-17.42 20.52-39.734 17.778-22.313-2.744-135.426-177.908-135.426-177.908z" fill="url(#L)"/><path d="m625.151 877.948c-9.309 3.133-10.56-8.859-7.518-10.29 6.743-3.173 17.854-13.38 15.93-15.393-1.006-1.053-12.262 10.47-15.84 9.754-3.58-.715-4.924-7.338-5.877-17.24-.955-9.907-4.326-15.123-5.279-20.256-.955-5.131.834-7.875 7.656-15.213 10.83-11.653 26.498-9.04 23.366-12.887-3.846-4.728-23.366 1.52-31.948 13.154-3.718 5.041-6.531 6.727-8.816-.984-5.74-19.408-19.223-25.463-19.64-29.8-1.696-17.503 19.33-25.237 16.286-27.204-3.043-1.97-14.857 8.768-17.363 11.81-2.504 3.044-7.516 8.413-10.559-2.236-3.042-10.65-15.482-22.373-17.808-24.252s-6.086-5.101-2.057-11.277c4.026-6.172 12.617-9.037 10.022-11.008-2.596-1.967-15.75 8.682-20.852 11.278-5.101 2.595-6.443-4.832-14.068-8.682-7.629-3.846-8.604-4.979-6.695-10.111 1.912-5.131 9.308-6.086 5.728-8.125-3.58-2.034-17.06 8.841-25.535 4.066-8.463-4.768-4.303-13.463-1.473-16.898-8.681 5.252-15.44 12.238-18.69 18.45 0 0 113.114 175.165 135.427 177.909 22.314 2.742 22.314-2.028 39.734-17.778a45.927 45.927 0 0 0 13.139-21.44c-9.512 20.28-27.975 31.524-37.27 34.653zm2.893-47.18c1.076 4.014 16.347-.755 22.076-4.935 5.623-4.098 9.451-6.457 12.148-2.975a10.288 10.288 0 0 0 -5.62-5.88c4.884-14.47 3.142-27.117-1.247-37.194 1.16 5.971 3.164 22.752-5.281 34.834-8.592 12.29-23.149 12.135-22.076 16.15zm3.85-63.798c3.548-4.014 9.046-5.314 13.275-2.762a46.33 46.33 0 0 0 -9.25-7.82c.287-8.621-.987-15.613-3.28-21.262-2.785.18 2.983 9.828-.539 18.043-5.728 13.363-21.236 21.475-18.373 24.102 2.864 2.625 14.62-6.285 18.166-10.301zm-45.255-42.916c-2.568 4.535-15.69 14.5-11.634 17.3 4.058 2.805 14.855-8.529 17.244-12.171 2.384-3.637 4.656-14.678 13.543-14.795a37.764 37.764 0 0 0 -9.21-.277c-1.279-8.163-3.788-14.149-7.046-18.448-2.778-2.033-5.14 2.577-3.432 10.135 1.848 8.172 3.102 13.72.535 18.256zm-31.2-31.887c4.902-2.498 18.064-6.836 26.876-2.898-11.74-6.733-27.137-1.936-34.215 2.111 0 3.74-11.994 14.479-9.578 15.73 2.416 1.255 11.994-12.439 16.916-14.943z" fill="url(#M)"/><path d="m503.86 716.448c-7.576-15.066-53.127-26.697-75.322-7.191-8.77-5.726-30.604-1.43-44.744 35.44-18.973 8.949-36.363 41.367-18.736 77.8 8.841 18.266 25.058 24.578 37.468 30.305 1.67 13.365 14.08 48.445 63.72 40.092 5.964 10.976 33.17 27.207 58.466 5.248 25.21 10.894 71.51 13.19 86.627-13.84 7.875-14.08-2.666-20.768-4.575-20.527 3.58-6.446 3.438-34.782-9.45-40.504.984-9.815-9.9-37.467-29.886-40.63.358-10.917-11.697-47.14-36.035-47.966-4.146-8.861-11.543-18.227-27.533-18.227z" fill="url(#N)"/><path d="m613.91 871.872c-2.653 14.075-25.208 23.717-43.32 25.96-17.646 2.185-36.802-1.427-35.71-9.579l-.03.135c.203-1.694.444-3.108.6-3.907.6-3.042-1.67-8.769 13.543-11.992 15.215-3.22 25.234-13.695 28.639-17.181 3.404-3.488 2.99-9.156-3.399-3.58-15.574 13.603-33.115 15.93-38.783 16.646-5.666.715-13.842-2.148-18.137-7.697s-1.074-20.404 5.192-23.648a62.445 62.445 0 0 0 19.687-16.497c7.195-9.039 17.182-8.359 15.75-11.582-1.43-3.22-15.033 1.434-19.742 8.573-3.82 5.796-11.442 8.279-16.584 11.97 0-.017.008-.04.008-.056-9.889 4.078-17.674-2.409-22.33-11.237-4.653-8.832 8.66-12.166 15.75-24.705 3.474-6.14 9.787-18.014 10.636-25.53.852-7.519-3.834-4.296-4.908-.12-1.072 4.176-10.26 20.402-13.72 25.056-3.461 4.655-14.557 15.633-29.95 9.19-15.394-6.442-5.011-22.908-1.908-32.457 3.102-9.545 4.176-21.834 1.434-22.31-2.748-.48-3.53 15.048-5.916 19.857-3.979 8.017-7.092 14.982-20.215 19.877-13.13 4.888-20.168 0-25.18-2.36-5.012-2.355-2.863-12.677-11.217-20.312-8.351-7.639-19.687-6.086-27.207-1.076-7.515 5.011-13.136 16.474-10.777 38.576 2.797 26.191 19.64 31.215 22.36 33.068-4.003 5.315-8.448 9.201-13.512 9.026 5.96 3.69 12.127 6.312 17.562 8.822 1.613 12.906 13.252 46.054 58.754 40.789.082-.008.158-.012.24-.022a99.812 99.812 0 0 0 4.727-.675 26.523 26.523 0 0 0 7.152 7.804l-.01.018c.243.185.494.37.744.55.106.079.206.157.313.233q1.04.741 2.174 1.443c.06.038.119.077.181.114q1.205.738 2.508 1.418l.098.047q1.3.673 2.691 1.27c.014.005.024.01.037.017l-.003-.004c11.55 4.935 27.406 5.511 42.58-7.662.761.33 1.545.65 2.343.963l.002-.006a81.482 81.482 0 0 0 5.106 1.795l-.004.015c.34.11.693.21 1.037.315l.564.172c26.004 7.78 64.127 6.955 77.579-17.094 2.86-5.117 3.275-9.244 2.572-12.43zm-212.525-41.111c-14.61-13.262-17.681-22.854-19.38-32.012-1.012-5.431-2.655-19.36 4.832-28.275 8.648-10.305 19.804-8.436 25.234.11 3.574 5.616 5.549 18.68 9.129 19.445 3.582.763 10.74 3.171 8.586 6.683l-.002.006a60.938 60.938 0 0 0 -14.793 12.178c0-.008.004-.016 0-.024-6.205-11.174-19.563-22.531-21.354-18.593-1.222 2.687 19.33 18.015 15.534 27.244l.007-.006c-2.418 4.168-4.994 8.91-7.793 13.244zm126.034 61.338c-15.305 19.152-50.377 6.488-50.377-14.955 0-18.801-9.127-27.684-12.559-27.205-3.432.476 7.506 11.99 7.488 25.535a15.983 15.983 0 0 1 -2.896 8.611c-2.928 2.85-27.225 7.482-41.863-2.498-14.633-9.975-21.961-24.592-24.313-32.936 1.22-7.87 5.55-20.054 13.469-32.003 6.707-10.124 16.56-15.987 20.924-19.477a.486.486 0 0 0 .056-.037c6.182-4.582 22.514-11.271 23.772-3.639 1.26 7.627 10.732 14.416 19.324 17.424 6.59 2.307 12.35 2.863 13.064 15.395.717 12.527-13.78 4.472-16.287 2.683-2.505-1.79-15.392-9.844-27.384-4.183-11.99 5.662-16.108 20.113-14.264 31.441 1.95 11.99 12.654 17.846 14.443 16.414 1.791-1.432-7.158-7.877-8.234-20.045-.775-8.8 9.846-17.184 19.332-18.435 9.486-1.254 21.844 5.549 23.088 11.275s.537 22.73 3.22 22.73c2.686 0 2.801-15.392 5.012-25.037 1.551-6.755 6.266-7.359 8.592-7.18s11.809 1.968 10.713 7.18l.004-.003a48.53 48.53 0 0 0 -2.541 10.543c-1.674 11.634 9.166 14.13 15.338 20.566 3.168 3.303 4.138 11.66 2.879 17.836zm20.713-55.168c-5.93 7.28-1.584 8.475 0 6.799a174.148 174.148 0 0 1 16.912-15.864c9.78-8.117 26.488-7.402 32.27-4.595.349-3.49-.829-9.244-3.354-15.336-.934 7.793-11.088 6.771-20.565 9.787-12.947 4.115-19.332 11.933-25.263 19.209zm-55.518-72.785c-2.39 13.601 1.209 3.328 10.619-9.426 10.479-14.2 20.33-17.066 28.16-20.045a38.985 38.985 0 0 0 -4.892-8.012c.3 5.39-7.178 6.155-10.977 8.463-6.277 3.817-19.687 10.692-22.91 29.02zm104.047 100.947c-7.307 7.707-24.936 10.74-22.79 15.152 2.15 4.416 21.778-7.816 24.702-9.904 2.918-2.082 10.836-3.932 13.805-2.21-1.905-3.02-4.711-4.47-5.614-4.356 2.21-3.979 2.99-16.297.24-26.493 1.317 6.864.63 16.242-10.343 27.81zm-68.608-73.266c-4.775 5.37-5.283 13.573 2.268 4.776a40.519 40.519 0 0 1 37.107-13.961c.116-3.508-1.056-9.63-3.502-16.348 1.143 8.201-3.304 9.188-12.248 10.62-8.949 1.433-18.851 9.544-23.625 14.913zm-86.39-21.357c3.82-.238 5.388-27.012 28.043-42.002 10.117-6.695 24.789-12.02 34.154-12.02-1.43-2.845-4.215-5.562-7.936-7.974 1.672 4.168-20.466 7.617-37.05 21.639-16.584 14.023-21.028 40.595-17.211 40.357zm-36.631-24.205c1.629-2.406-2.416-11.098-16.742-11.742a107.75 107.75 0 0 0 -4.496 10.174c10.857-4.774 19.449 4.203 21.238 1.568zm27.355-.135c4.832 1.43 10.202-8.861 9.127-22.285-1.07-13.387-.91-20.461 5.493-23.467a41.017 41.017 0 0 0 -18.47 8.879c10.741 13.873-.982 35.44 3.85 36.873z" fill="url(#O)"/><path d="m390.305 780.27c.717 1.016 2.623 12.151-5.85 13.893-3.665-2.845-3.134-13.726 5.85-13.892z" fill="#00e100"/><path d="m385.606 779.327 4.68 2.772c2.67 1.369 10.068 1.34 14.814-1.881 4.744-3.22 4.055 4.834-1.029 6.2-5.094 1.363-5.523 3.31 1.74 6.1a19.2 19.2 0 0 1 7.676 5.436c2.182 3.215 4.025 9.754-.81 11.84-3.919 1.687-13.36-4.93-16.239-6.799-7.941-5.154-5.887-6.53-10.281-9.752-4.387-3.228-5.486-3.338-5.486-3.338z" fill="#a9e8fc"/><path d="m366.549 665.835c-5.212-2.152-14.61-3.508-20.204 12.63-3.174 9.153-5.877 41.269-1.758 57.507 5.635 22.21 19.56 45.185 39.869 58.191-2.643-4.521 1.06-12.738 5.85-13.892-13.995-15.9-23.813-36.596-23.813-46.774 0-16.828 3.097-42.556 4.329-47.72 2.597-10.854.874-17.819-4.273-19.942z" fill="url(#P)"/><path d="m385.514 622.107c-.644-5.69 19.022 5.898 18.23 13.416-.644 6.11-2.425 11.492 3.76 15.316 2.133 1.705 9.422 13.588-1.794 13.715-16.041.195-20.319-4.207-31.912-14.145 6.914-3.906 13.8-9.85 11.716-28.302z" fill="#a9e8fc"/><path d="m380.883 618.741 7.987-11.238h34.775v20.93c0 11.566-7.787 20.932-17.383 20.932-9.322 0-17.98-7.717-18.43-18.795l-4.22-1.46z" fill="#a9e8fc"/><path d="m405.452 654.962c-8.307 0-18.594-13.347-17.62-24.385.423 10.405 9.079 17.905 17.73 18.768a14.981 14.981 0 0 0 1.943 1.494 5.34 5.34 0 0 1 .578.588c0 1.686-1.121 3.535-2.631 3.535z" fill="#9dddf2"/><path d="m421.614 598.052c3.18-.553 3.469-3.2-9.424-7.658-7.488-3.676-18.103-4.803-24.976-.551-9.311 5.764-12.12 14.236-10.45 24.867 1.662 10.639 8.477 20.75 8.477 20.75 1.031 1.041 1.182-3.863.342-7.49a7.002 7.002 0 0 1 -1.211-3.11c-2.465-10.804 4.144-9.193 5.05-8.283 2.04.84-1.906 9.78 4.069 8.887 2.894-.424 2.498-8.498 2.486-11.336a11.667 11.667 0 0 1 1.305.344c4.932 2.74 21.7 4.73 12.39-1.092 6.485 0 15.325 2.992 18.31-1.121 3.544-4.9-2.136-10.236-6.368-14.207z" fill="#195a6f"/><path d="m696.272 1047.62h104.121v21.805h-104.121z" fill="url(#Q)"/><path d="m641.68 1079.089h111.953v21.801h-111.953z" fill="url(#R)"/><path d="m708.823 1062.702c0-17.123-10.857-17.617-10.857-17.617s-6.032.613-15.713-3.023c-12.194-4.58-22.42-3.35-14.995 10.347a5.135 5.135 0 0 0 .256.508 6.728 6.728 0 0 0 2.4 2.106l23.725 13.91c3.614 2.07 15.104-2.705 15.184-6.23z" fill="url(#S)"/><path d="m708.758 1061.167c-.203 3.516-11.53 8.201-15.119 6.154l-23.724-13.912a21.675 21.675 0 0 1 -3.344-2.435c.227.472.41.922.687 1.435a5.135 5.135 0 0 0 .256.508 6.728 6.728 0 0 0 2.4 2.106l23.725 13.91c3.38 1.94 13.678-2.13 15.03-5.551a3.096 3.096 0 0 0 .1-.69 10.72 10.72 0 0 0 -.01-1.525z" fill="#114711"/><path d="m704.409 1042.831a48.013 48.013 0 0 0 -7.416 1.262c-2.334-.602-10.031-.88-15.069-2.367-1.496-.44-2.908-1.383-4.494-.18-1.992 2.447 3.19 8.426 13.877 13.035 3.78 2.381 6.842.87 8.3-.578a7.686 7.686 0 0 1 2.669-3.04 7.038 7.038 0 0 1 2.565-1.081.896.896 0 0 1 .033-.232s.699-6.819-.465-6.819z" fill="#a9e8fc"/><path d="m699.044 930.245c4.763-14.607 2.568-31.474-.97-48.43-10.72.194-31.02-5.806-41.743-5.613 3.992 32.23 12.982 60.565 18.347 91.784 5.758 30.341 12.594 52.623 18.262 77.88 2.074 4.705 12.168 2.58 12.168-.236 1.502-23.258.494-50.234-6.392-77.06.482-12.135-1.596-26.247.328-38.325z" fill="#195a6f"/><path d="m654.749 1094.175c0-17.129-10.85-17.62-10.85-17.62s-6.363.28-16.045-3.358c-12.193-4.582-22.096-3.014-14.676 10.683.079.162.168.328.266.51a6.66 6.66 0 0 0 2.404 2.103l23.723 13.91c3.611 2.07 15.098-2.707 15.178-6.228z" fill="url(#T)"/><path d="m654.694 1092.636c-.209 3.516-11.537 8.203-15.123 6.162l-23.723-13.918a22.332 22.332 0 0 1 -3.347-2.436c.222.47.41.926.677 1.436.079.162.168.328.266.51a6.66 6.66 0 0 0 2.404 2.103l23.723 13.91c3.373 1.936 13.668-2.126 15.03-5.552a3.448 3.448 0 0 0 .1-.694 12.33 12.33 0 0 0 -.007-1.521z" fill="#114711"/><path d="m650.339 1074.3a47.725 47.725 0 0 0 -7.42 1.264c-2.325-.61-10.028-.88-15.065-2.368-1.5-.44-2.912-1.382-4.494-.177-1.988 2.443 3.193 8.426 13.877 13.035 3.78 2.377 6.838.865 8.295-.578a7.676 7.676 0 0 1 2.68-3.043 6.9 6.9 0 0 1 2.558-1.082 1.307 1.307 0 0 1 .03-.23s.703-6.821-.461-6.821z" fill="#a9e8fc"/><path d="m670.55 951.995c9.136-36.707 29.744-15.687 27.525-70.18-10.61-1.556-48.512 22.41-59.127 20.852-6.215 39.506-4.926 63.902-4.73 95.574.716 30.881 2.738 52.006 4.205 77.836 1.275 4.985 12.582 4.598 12.582 1.602 5.279-22.695 9.488-50.38 7.066-77.967 3.16-15.289 9.041-31.492 12.478-47.717z" fill="url(#U)"/><path d="m692.608 938.413c-17.289 10.569-44.486 17.112-61.986 9.377-1.807-10.215 13.998-77.562 3.595-95.299-2.267-3.869-9.566-.709-11.54-4.912-5.122-10.902-10-33.572-10-37.015 0-7.332 5.888-14.94 11.98-18.99 8.336-5.555 20.172-12.983 30.617-10.946 22.799 6.395 38.942 65.236 55.682 133.312-1.694 7.712-7.955 18.116-18.348 24.473z" fill="url(#V)"/><path d="m646.493 870.126c1.121-8.4-7.559-23.236-12.518-24.916-4.96-1.68-9.318-3.639-9.318-9.346 0-5.709 2.35-14.695 1.111-21.468l-12.738-.836c1.21 7.386 5.344 24.857 9.646 34.02 1.975 4.202 9.274 1.042 11.541 4.911 10.399 17.737-5.402 85.084-3.595 95.3 0 0 6.355-32.313 8.326-45.124 1.975-12.808 6.428-24.143 7.545-32.54z" fill="url(#W)"/><path d="m651.387 785.788c-6.99-4.672-6.562-8.427-5.798-15.17a33.11 33.11 0 0 0 1.625-11.638c-.559-14.926-10.54-27.47-22.157-26.229-23.414 2.492-18.779 14.688-18.22 29.612.517 13.826 7.148 23.1 17.691 24.312.09 2.27-.602 4.406-3.43 6.51 7.84 4.303 20.008 1.982 24.912-.043 4.786-1.97 8.696-4.168 5.377-7.354zm-78.453 101.052c-1.937.722-4.699-3.661-8.064-3.173-3.363.496-10.543 1.324-9.848 3.273.586 1.631 6.379-.269 5.817.813-1.622 3.107-7.819 2.168-9.735.416-1.93-1.758-3.898-1.398-3.113.705.783 2.102 4.685 11.416 13.074 11.448 8.385.027 17.098-3.758 17.098-3.758z" fill="#a9e8fc"/><path d="m575.592 898.163s-8.2-2.675-3.962-12.26c21.423-10.187 42.468-43.265 41.046-75.34.94-12.911 16.391-8.312 17.75 7.395 2.143 24.744-15.431 68.196-54.834 80.205z" fill="url(#X)"/><path d="m603.723 752.925c.428-8.664 7.448-23.228 22.903-22.139 14.931 1.051 21.295 11.659 21.453 24.598.123 10.154 9.191 38.88 31.994 37.215-9.758 18.04-79.356 21.265-76.35-39.674z" fill="#195a6f"/><path d="m828.928 697.523c-.002-32.88 21.723-65.762 65.178-90.85 86.904-50.172 227.805-50.172 314.713.002 43.447 25.088 65.178 57.969 65.178 90.848.002 32.88-21.727 65.761-65.178 90.85-86.904 50.175-227.809 50.171-314.713-.003-43.451-25.088-65.176-57.966-65.178-90.847z" fill="url(#Y)"/><path d="m1161.245 759.316c-86.904 50.175-227.809 50.172-314.711-.002-43.451-25.088-65.176-57.967-65.178-90.848v29.059c.002 32.88 21.727 65.76 65.178 90.845 86.902 50.174 227.807 50.178 314.71.002 43.452-25.086 65.18-57.966 65.179-90.847v-29.06c.001 32.882-21.727 65.763-65.178 90.85z" fill="url(#Z)"/><path d="m781.356 668.466c-.002-32.879 21.723-65.762 65.176-90.85 86.904-50.171 227.807-50.171 314.713.002 43.449 25.088 65.178 57.97 65.178 90.848.001 32.88-21.727 65.762-65.178 90.85-86.904 50.175-227.809 50.172-314.711-.002-43.451-25.088-65.176-57.967-65.178-90.848z" fill="#f6fafb"/><path d="m1226.423 668.466c0-32.879-21.729-65.76-65.178-90.848-18.826-10.867-40.188-19.373-62.983-25.53l-89.762 190.455c67.96 0 138.945-4.252 193.416-15.406 16.33-18.36 24.51-38.516 24.508-58.672z" fill="url(#aa)"/><path d="m1141.313 646.279c-6.85-41.19-26.33-154.26-26.33-154.26.04 12.63-111.187 66.248-171.986 31.141-37.57-21.69-58.694-47.757-60.235-69.82v140.148l.075.019c-1.565 10.438 2.972 12.559-1.61 25.565-11.832 11.36-18.43 24.02-19.82 36.843a.508.508 0 0 0 -.03.047.127.127 0 0 0 .024.012 47.195 47.195 0 0 0 -.307 5.086c.004 20.875 13.8 41.75 41.381 57.674 55.178 31.857 144.633 31.857 199.809 0 27.588-15.924 41.38-36.803 41.38-57.68a48.683 48.683 0 0 0 -2.35-14.775z" fill="url(#ab)"/><path d="m1129.774 578.208c-7.33-42.814-14.791-86.19-14.791-86.19.04 12.647-111.187 66.249-171.986 31.142-29.32-16.917-48.451-36.48-56.252-54.748l-3.983.375v76.099l121.3 103.912c62.845-70.59 94.458-22.701 125.712-70.59z" fill="url(#ac)"/><path d="m791.327 453.34c0-37.982 6.978-73.778 19.308-105.201 28.229-71.94 269.891-72.375 298.235-.96 12.564 31.656 19.681 67.792 19.681 106.16 0 57.136-59.39 91.698-85.437 131.524-30.897 47.248-32.627 94.685-83.164 94.685-93.127 0-168.623-101.281-168.623-226.208z" fill="url(#ad)"/><path d="m1079.66 317.906c-10.743-.553-22.193 3.167-34.103 13.344-61.947 52.927 19.848 164.189-22.254 211.1-41.796 46.573-48.056 129.83-73.521 136.503.135.01.267.135.402.308 3.233.248 6.489.387 9.766.387 50.537 0 52.267-47.437 83.164-94.685 26.047-39.826 85.437-74.388 85.437-131.523 0-38.37-7.117-74.505-19.681-106.161-4.639-11.686-15.014-21.436-29.21-29.273z" fill="url(#ae)"/><path d="m970.612 496.505c-45.252 1.693-91.482-7.446-126.064-27.419-31.852-18.386-44.608-42.495-47.805-66.606v-.036l-.565.01a292.227 292.227 0 0 0 -1.523 92.048c4.844 20.054 20.424 39.41 47.14 54.834 22.243 12.84 49.206 21.31 77.645 25.402 55.03 7.914 81.576-25.895 84.992-50.594.934-6.783 4.325-29.078-33.82-27.639z" fill="url(#af)"/><path d="m902.676 513.426c5.457-11.046 17.573-13.773 27.207-6.118 9.66 7.691 13.002 22.845 7.622 33.869-5.407 11.01-17.575 13.76-27.21 6.093-9.681-7.655-13.001-22.832-7.619-33.844z" fill="url(#aD)"/><path d="m793.278 453.54c3.785-10.516 12.635-12.129 19.908-3.6 7.276 8.529 10.053 23.953 6.244 34.498-3.76 10.529-12.634 12.14-19.931 3.623-7.203-8.538-10.006-23.96-6.221-34.52z" fill="url(#aE)"/><path d="m1004.432 524.144c.934-6.783 4.325-29.078-33.82-27.639a277.048 277.048 0 0 1 -59.186-4.435c-31.46 14.683-47.95 45.85-48.271 67.54a237.993 237.993 0 0 0 56.285 15.128c55.03 7.914 81.576-25.895 84.992-50.594z" fill="url(#ag)"/><path d="m810.262 438.413a82.758 82.758 0 0 1 -13.52-35.933v-.036l-.564.01a292.227 292.227 0 0 0 -1.523 92.048c2.95 12.215 10.396 24.048 21.408 35.01-8.576-24.505-14.894-55.67-5.8-91.099z" fill="#2e7b94"/><path d="m806.766 367.988c0-22.645 14.96-45.288 44.881-62.562 59.846-34.556 156.881-34.556 216.733 0 29.92 17.274 44.878 39.917 44.878 62.56.004 22.644-14.959 45.29-44.878 62.567-59.852 34.55-156.887 34.55-216.735-.002-29.922-17.277-44.879-39.92-44.879-62.563z" fill="#f6fafb"/><path d="m818.95 367.988c0-20.843 13.77-41.685 41.314-57.59 55.09-31.804 144.407-31.804 199.496 0 27.541 15.905 41.311 36.747 41.311 57.588.002 20.843-13.77 41.688-41.31 57.592-55.09 31.803-144.407 31.803-199.499-.003-27.545-15.903-41.312-36.746-41.312-57.587z" fill="url(#ah)"/><path d="m1086.079 738.626a13.423 13.423 0 0 1 12.16 0c3.361 1.938 3.361 5.08 0 7.02a13.447 13.447 0 0 1 -12.16 0c-3.36-1.94-3.36-5.082 0-7.02zm-27.324-38.623a15.071 15.071 0 0 1 6.81-11.795c3.758-2.168 6.809-.41 6.809 3.932a15.049 15.049 0 0 1 -6.809 11.793c-3.76 2.174-6.81.412-6.81-3.93z" fill="#195a6f"/><path d="m1092.157 745.411a3.277 3.277 0 0 1 -3.275-3.275l-.002-28.818-24.954-14.409a3.275 3.275 0 1 1 3.276-5.671l26.592 15.353a3.274 3.274 0 0 1 1.636 2.836l.002 30.709a3.276 3.276 0 0 1 -3.275 3.275z" fill="url(#ai)"/><path d="m1109.358 725.185a13.427 13.427 0 0 1 12.162 0c3.36 1.937 3.36 5.082 0 7.017a13.427 13.427 0 0 1 -12.162 0c-3.36-1.935-3.36-5.08 0-7.017zm-27.322-38.625a15.061 15.061 0 0 1 6.808-11.793c3.76-2.168 6.807-.408 6.807 3.933a15.038 15.038 0 0 1 -6.807 11.791c-3.761 2.172-6.808.413-6.808-3.931z" fill="#195a6f"/><path d="m1115.438 731.97a3.276 3.276 0 0 1 -3.275-3.275l-.002-28.819-24.955-14.408a3.275 3.275 0 0 1 3.275-5.672l26.592 15.354a3.274 3.274 0 0 1 1.639 2.836l.002 30.709a3.276 3.276 0 0 1 -3.276 3.275z" fill="url(#aj)"/><path d="m939.962 379.565a1.588 1.588 0 0 0 -2.168-.582l-79.077 45.655c.522.31 1.014.63 1.545.937.534.308 1.092.594 1.631.897l77.489-44.74a1.584 1.584 0 0 0 .58-2.167zm130.955-35.152-31.178 18a11.662 11.662 0 0 0 -9.729.414 4.3 4.3 0 0 0 0 7.954 11.563 11.563 0 0 0 10.6 0 4.721 4.721 0 0 0 2.66-3.975 3.97 3.97 0 0 0 -.785-2.312l29.652-17.117h24.332a58.528 58.528 0 0 0 -1.54-3.175h-23.22a1.585 1.585 0 0 0 -.792.211zm-31.895 23.618a8.345 8.345 0 0 1 -7.426 0c-.66-.382-1.072-.854-1.072-1.225 0-.375.412-.844 1.072-1.229a8.356 8.356 0 0 1 7.426 0c.662.385 1.072.854 1.072 1.227 0 .375-.41.845-1.072 1.227zm-39.314-21.245a1.589 1.589 0 1 0 1.59 2.751l33.191-19.162a11.678 11.678 0 0 0 9.73-.413 4.304 4.304 0 0 0 0-7.954 11.56 11.56 0 0 0 -10.603 0 4.727 4.727 0 0 0 -2.66 3.977 3.994 3.994 0 0 0 .785 2.31zm35.496-22.027a8.345 8.345 0 0 1 7.426 0c.662.382 1.07.85 1.07 1.224 0 .375-.408.846-1.07 1.228a8.356 8.356 0 0 1 -7.426 0c-.66-.384-1.072-.853-1.072-1.226 0-.375.412-.844 1.072-1.226zm-65.194 21.83a1.587 1.587 0 0 0 2.168.582l38.414-22.181a1.584 1.584 0 0 0 .795-1.375v-31.478q-1.582-.359-3.177-.691v31.252l-37.62 21.722a1.584 1.584 0 0 0 -.58 2.168zm-8.062-9.65 38.412-22.18a1.587 1.587 0 0 0 .797-1.375v-9.727a1.587 1.587 0 0 0 -.797-1.376l-26.576-15.345q-3.422-.195-6.856-.292l31.051 17.93v7.893l-37.621 21.722a1.588 1.588 0 0 0 1.59 2.75zm68.305 57.129 25.068-14.474a11.654 11.654 0 0 0 9.727-.413 4.303 4.303 0 0 0 0-7.954 11.557 11.557 0 0 0 -10.6-.002 4.736 4.736 0 0 0 -2.664 3.978 3.976 3.976 0 0 0 .789 2.31l-23.113 13.345-59.604-34.411a1.588 1.588 0 1 0 -1.588 2.75l60.397 34.87a1.59 1.59 0 0 0 1.588 0zm25.78-20.088a8.337 8.337 0 0 1 7.427-.002c.662.38 1.072.85 1.072 1.225 0 .376-.41.845-1.072 1.229a8.356 8.356 0 0 1 -7.426 0c-.66-.384-1.072-.853-1.072-1.229 0-.373.412-.844 1.072-1.223zm-19.429-25.36a1.585 1.585 0 0 0 2.168.582l41.375-23.888c-.803-.753-1.598-1.51-2.449-2.252l-40.514 23.39a1.585 1.585 0 0 0 -.58 2.168zm-72.217 87.051a11.571 11.571 0 0 0 -10.603 0 5.452 5.452 0 0 0 -2.174 2.205q-7.08-.275-13.988-1.021l14.377-8.302a1.588 1.588 0 1 0 -1.588-2.751l-18.026 10.41a177.576 177.576 0 0 1 -42.218-10.73l61.148-35.31a1.588 1.588 0 0 0 -1.588-2.752l-64.002 36.957a1.588 1.588 0 0 0 .174 2.837 178.202 178.202 0 0 0 46.287 12.189 1.659 1.659 0 0 0 .315.043q9.298 1.205 18.925 1.598a5.299 5.299 0 0 0 2.358 2.581 11.576 11.576 0 0 0 10.603 0 4.304 4.304 0 0 0 0-7.954zm-1.59 5.203a8.352 8.352 0 0 1 -7.423 0c-.664-.384-1.076-.853-1.076-1.224 0-.375.412-.847 1.076-1.228a8.333 8.333 0 0 1 7.424 0c.662.38 1.07.853 1.07 1.226 0 .375-.408.844-1.07 1.226zm74.41-20.288a11.666 11.666 0 0 0 -9.73-.414l-55.176-31.856a1.588 1.588 0 0 0 -1.587 2.75l28.644 16.538v10.024a10.035 10.035 0 0 0 -3.713 1.18 4.303 4.303 0 0 0 0 7.954 11.577 11.577 0 0 0 10.604 0 4.304 4.304 0 0 0 0-7.954 10.025 10.025 0 0 0 -3.713-1.18v-8.19l22.195 12.815a3.985 3.985 0 0 0 -.787 2.31 4.727 4.727 0 0 0 2.66 3.977 11.575 11.575 0 0 0 10.604 0 4.304 4.304 0 0 0 0-7.954zm-32.546.973c.66.38 1.07.85 1.07 1.223 0 .375-.41.847-1.07 1.229a8.356 8.356 0 0 1 -7.426 0c-.662-.384-1.072-.854-1.072-1.227 0-.375.41-.844 1.072-1.225a7.61 7.61 0 0 1 3.688-.87c.007 0 .015.004.025.004.008 0 .016-.004.025-.004a7.598 7.598 0 0 1 3.688.87zm30.957 4.23a8.354 8.354 0 0 1 -7.424 0c-.662-.383-1.074-.853-1.074-1.226 0-.375.412-.845 1.074-1.226a8.34 8.34 0 0 1 7.424 0c.662.38 1.07.85 1.07 1.224 0 .378-.408.846-1.07 1.228zm-167.156-27.937h16.023a1.602 1.602 0 0 0 .795-.211l41.562-23.998a1.588 1.588 0 1 0 -1.585-2.751l-41.198 23.785h-15.172l-17.98-10.383a3.969 3.969 0 0 0 .785-2.304 4.728 4.728 0 0 0 -2.66-3.98 11.567 11.567 0 0 0 -10.602 0 4.302 4.302 0 0 0 0 7.954 11.67 11.67 0 0 0 9.73.413l19.507 11.264a1.597 1.597 0 0 0 .795.21zm-21.018-14.639a8.356 8.356 0 0 1 -7.426 0c-.66-.384-1.072-.853-1.072-1.223 0-.376.412-.847 1.072-1.23a8.344 8.344 0 0 1 7.426 0c.662.383 1.07.854 1.07 1.227 0 .376-.408.844-1.07 1.226zm135.479-4.59a1.588 1.588 0 1 0 -1.588 2.75l41.256 23.819a1.599 1.599 0 0 0 .794.214h61.942a76.455 76.455 0 0 0 2.715-3.178h-64.23zm-102.04-18.743h30.463a1.589 1.589 0 1 0 0-3.178h-30.036l-46.16-26.651c-.738.81-1.418 1.634-2.107 2.453l47.045 27.162a1.583 1.583 0 0 0 .796.214zm25.372-41.623a4.728 4.728 0 0 0 2.664 3.977 11.563 11.563 0 0 0 10.6 0 4.303 4.303 0 0 0 0-7.953 11.659 11.659 0 0 0 -9.731-.415l-25.354-14.64q-1.93.708-3.828 1.458l26.438 15.264a3.974 3.974 0 0 0 -.79 2.309zm4.25-1.226a8.344 8.344 0 0 1 7.425 0c.662.381 1.073.85 1.073 1.224 0 .377-.41.847-1.073 1.229a8.363 8.363 0 0 1 -7.425 0c-.663-.382-1.073-.854-1.073-1.227s.41-.845 1.073-1.226zm28.798 12.13a1.589 1.589 0 0 0 3.178 0v-18.856a1.583 1.583 0 0 0 -.797-1.373l-30.172-17.422c-1.543.326-3.086.648-4.611 1.007l32.402 18.705zm-66.959 6.02h30.395l27.785 16.043a1.588 1.588 0 0 0 1.588-2.75l-60.398-34.872a1.588 1.588 0 1 0 -1.586 2.75l27.107 15.653h-24.465l-24.16-13.951c-.932.691-1.865 1.378-2.75 2.082l25.691 14.833a1.588 1.588 0 0 0 .793.213zm56.059 76.223a1.576 1.576 0 0 0 .795 1.373l10.094 5.83a1.588 1.588 0 0 0 1.59-2.75l-7.713-4.453 27.636-15.957a1.588 1.588 0 0 0 -1.588-2.751l-30.019 17.33a1.585 1.585 0 0 0 -.795 1.378z" fill="url(#ak)"/><path d="m996.417 333.591h-36.407l59.577 34.397-59.577 34.396h36.407l59.574-34.396z" fill="url(#al)"/><path d="m900.438 346.97 59.572 34.396v21.018l-59.572-34.396z" fill="#ceeef8"/><path d="m960.01 381.366 59.577-34.396v21.018l-59.577 34.396z" fill="#bbdbe6"/><path d="m960.01 310.595 56.434 32.579-56.434 32.582-56.429-32.582z" fill="#f6fafb"/><path d="m987.29 372.142 5.019-2.897v14.493l-5.019 2.895zm13.273-7.664 5.02-2.897v14.492l-5.02 2.899zm-26.551 15.328 5.022-2.899v14.493l-5.022 2.897z" fill="#a5c2cc"/><path d="m932.735 372.142-5.019-2.897v14.493l5.019 2.895zm-13.273-7.664-5.024-2.897v14.492l5.024 2.899zm26.546 15.328-5.021-2.899v14.493l5.021 2.897z" fill="#bbdbe6"/><path d="m900.438 346.97 3.143-3.796 56.429 32.582v5.61z" fill="#e8f3f7"/><path d="m960.01 375.756v5.61l59.577-34.396-3.143-3.796z" fill="#ceeef8"/><path d="m444.788 389.832-106.964 61.755c-6.243 3.606-11.349 12.435-11.349 19.621v92.563c0 7.183 5.108 10.115 11.346 6.516l33.2-19.17 20.28 11.652 20.28-35.067.002-.003 33.205-19.17c6.238-3.602 11.344-12.427 11.344-19.616l.003-92.563c-.003-7.186-5.109-10.118-11.347-6.518z" fill="url(#am)"/><path d="m356.24 471.225v-8.057l3.14-1.81v8.055l4.71-2.72v-8.057l3.138-1.813v8.058l4.25-2.453v3.407l-4.25 2.453v5.838l4.248-2.453.001 3.41-4.249 2.453v8.054l-3.138 1.812v-8.055l-4.71 2.722v8.053l-3.141 1.812.001-8.054-4.247 2.452v-3.412l4.247-2.45v-5.836l-4.246 2.452v-3.41zm3.14 7.432 4.71-2.718v-5.836l-4.71 2.719z" fill="url(#an)"/><path d="m375.731 460.095a13.823 13.823 0 0 1 7.135-12.297l17.127-9.891c4.355-2.512 6.709-1.243 6.709 3.813v17.382a6.44 6.44 0 0 1 -3.246 5.571l-4.996 2.885c-1.604.928-2.602.435-2.604-1.29l.002-.493-.502.29a10.962 10.962 0 0 1 -5.031 6.764c-4.352 2.516-7.315-.212-7.315-5.966v-.699c.002-5.796 2.928-11.882 7.1-14.29 3.107-1.793 4.39-.56 5.066.692l.502-.292v-3.037l3.246-1.877v15.41c0 .779.29.946.891.595l2.322-1.34a2.318 2.318 0 0 0 1.246-2.24v-16.27c0-2.633-1.246-3.35-3.533-2.03l-16.445 9.494a8.192 8.192 0 0 0 -4.356 7.53v19.97c0 3.33 1.465 4.167 4.358 2.498l22.76-13.14v3.494l-23.301 13.453c-4.567 2.634-7.135 1.158-7.135-4.057zm15.236 8.83c2.786-1.606 4.678-5.288 4.676-9.477v-.454c0-4.192-1.89-5.69-4.676-4.08-2.783 1.606-4.638 5.309-4.638 9.42l.002.491c0 4.15 1.853 5.71 4.636 4.1z" fill="url(#ao)"/><path d="m417.762 441.513 1.926-.33.178-.678-2.068.005-2.924-1.766 1.96-3.392 2.999 1.636 1.037 1.786.498-.493-.678-1.829v-5.18l2.854-1.646v5.179l-.678 2.611.504-.085 1.031-2.98 2.994-5.098 1.967 1.127-2.928 5.142-2.068 2.385.176.474 1.931-1.898 4.493-2.593v3.287l-4.495 2.594-1.93.337-.175.674h2.07l2.924 1.76-1.963 3.395-2.996-1.642-1.033-1.786-.502.495.678 1.826v5.179l-2.854 1.648v-5.178l.674-2.61-.496.082-1.035 2.98-2.998 5.101-1.961-1.127 2.924-5.136 2.068-2.386-.178-.473-1.926 1.89-4.496 2.6v-3.291z" fill="url(#ap)"/><path d="m361.522 508.882c5.064-2.922 8.704-1.571 8.702 3.236v.207c0 4.645-2.564 8.178-5.351 11.186l-.892.925a4.068 4.068 0 0 0 -1.214 3.083v1.851l-3.531 2.038v-2.053a9.057 9.057 0 0 1 2.854-6.865l.893-.93c2.39-2.57 3.708-4.526 3.708-7.194 0-2.959-2.244-3.391-5.17-1.702-3.033 1.752-5.459 4.878-5.46 8.413v1.316l-3.531 2.04-.001-1.482c.002-5.63 3.852-11.1 8.993-14.07zm-.5 23.8c1.569-.91 2.783-.254 2.783 1.598a5.962 5.962 0 0 1 -2.784 4.807c-1.607.932-2.783.253-2.783-1.597a5.904 5.904 0 0 1 2.783-4.808z" fill="url(#aq)"/><path d="m376.803 523.568c1.608-.931 2.786-.251 2.786 1.593a5.915 5.915 0 0 1 -2.784 4.817c-1.572.906-2.783.248-2.785-1.596a5.975 5.975 0 0 1 2.783-4.814zm1.786-23.961v20.63l-3.534 2.04v-20.633z" fill="url(#ar)"/><path d="m396.065 504.349a4.002 4.002 0 0 0 1.25-1.421l3.033-4.46 1.928 1.68-3.639 5.387a9.87 9.87 0 0 1 -2.892 3.15c-1.531.885-2.319.473-2.922-.37-.502-.693-.75-1.002-1.43-.61a3.862 3.862 0 0 0 -1.213 1.4l-3.033 4.463-1.928-1.68 3.641-5.39a9.718 9.718 0 0 1 2.854-3.087c1.572-.909 2.355-.537 2.96.306.5.694.752.999 1.391.632z" fill="url(#as)"/><path d="m411.645 503.452c1.608-.928 2.783-.246 2.783 1.6a5.913 5.913 0 0 1 -2.783 4.813c-1.57.905-2.783.247-2.783-1.6a5.966 5.966 0 0 1 2.783-4.813zm1.785-23.959.002 20.625-3.535 2.042v-20.63z" fill="url(#at)"/><path d="m1310.985 728.724h255.1v126.764h-255.1z" fill="url(#au)"/><path d="m1310.985 732.527-106.482-61.481 106.482-61.474 106.486 61.474z" fill="#f6fafb"/><path d="m1310.985 855.488-106.482-61.483v-122.959l106.482 61.481z" fill="#ceeef8"/><path d="m1310.985 855.488 106.486-61.483v-122.959l-106.486 61.481z" fill="#bbdbe6"/><path d="m1310.985 630.165-8.514-4.914 8.514-4.918 8.518 4.918zm19.836 11.448-8.52-4.918 8.52-4.913 8.512 4.913zm19.83 11.449-8.514-4.91 8.514-4.916 8.518 4.916zm19.832 11.451-8.514-4.914 8.514-4.916 8.51 4.916zm19.832 11.453-8.514-4.92 8.514-4.914 8.516 4.914zm-99.16-34.353-8.516-4.918 8.516-4.913 8.514 4.913zm19.83 11.449-8.514-4.91 8.514-4.916 8.518 4.916zm19.836 11.451-8.52-4.914 8.52-4.916 8.512 4.916zm19.83 11.453-8.514-4.92 8.514-4.914 8.518 4.914zm19.832 11.449-8.514-4.92 8.514-4.914 8.51 4.914zm-99.16-34.353-8.514-4.91 8.514-4.916 8.51 4.916zm19.832 11.451-8.516-4.914 8.516-4.916 8.514 4.916zm19.83 11.453-8.514-4.92 8.514-4.914 8.518 4.914zm19.836 11.447-8.52-4.918 8.52-4.914 8.512 4.914zm19.83 11.455-8.514-4.916 8.514-4.916 8.518 4.916zm-99.16-34.355-8.518-4.914 8.518-4.916 8.514 4.916zm19.832 11.453-8.514-4.92 8.514-4.914 8.51 4.914zm19.832 11.447-8.516-4.918 8.516-4.914 8.514 4.914zm19.83 11.455-8.514-4.916 8.514-4.916 8.518 4.916zm19.836 11.45-8.52-4.918 8.52-4.916 8.512 4.916zm-99.158-34.352-8.522-4.92 8.522-4.914 8.51 4.914zm19.828 11.447-8.518-4.918 8.518-4.914 8.514 4.914zm19.832 11.455-8.514-4.921 8.514-4.911 8.51 4.911zm19.832 11.45-8.516-4.918 8.516-4.916 8.514 4.916zm19.83 11.449-8.514-4.916 8.514-4.916 8.518 4.916zm-88.644-19.826-8.516-4.916v-9.828l8.516 4.91zm19.83 11.451-8.516-4.916v-9.832l8.516 4.914zm19.83 11.449-8.518-4.916v-9.832l8.518 4.916zm19.84 11.445-8.524-4.914v-9.834l8.524 4.92zm19.828 11.459-8.516-4.923v-9.834l8.516 4.923zm-79.328-22.904-8.516-4.916v-9.832l8.516 4.916zm19.83 11.445-8.516-4.914v-9.834l8.516 4.92zm19.83 11.459-8.518-4.923v-9.834l8.518 4.923zm19.84 11.45-8.524-4.924v-9.828l8.524 4.912zm19.828 11.449-8.516-4.926v-9.826l8.516 4.914zm-79.328-22.899-8.516-4.923v-9.834l8.516 4.923zm19.83 11.45-8.516-4.924v-9.828l8.516 4.912zm19.83 11.449-8.518-4.926v-9.826l8.518 4.914zm19.84 11.447-8.524-4.916v-9.834l8.524 4.918zm19.828 11.451-8.516-4.918v-9.834l8.516 4.918zm-79.328-22.898-8.516-4.926v-9.826l8.516 4.914zm19.83 11.447-8.516-4.916v-9.834l8.516 4.918zm19.83 11.451-8.518-4.918v-9.834l8.518 4.914zm19.84 11.446-8.524-4.913v-9.83l8.524 4.907zm19.828 11.455-8.516-4.918v-9.83l8.516 4.916zm-79.328-22.901-8.516-4.918v-9.834l8.516 4.914zm19.83 11.446-8.516-4.913v-9.83l8.516 4.907zm19.83 11.455-8.518-4.918v-9.83l8.518 4.916zm19.84 11.449-8.524-4.918v-9.83l8.524 4.914zm19.828 11.447-8.516-4.916v-9.828l8.516 4.912zm97.964-137.398 8.518-4.916v-9.828l-8.518 4.91zm-19.83 11.451 8.512-4.916v-9.832l-8.512 4.914zm-19.832 11.449 8.514-4.916v-9.832l-8.514 4.916zm-19.83 11.445 8.512-4.914v-9.834l-8.512 4.92zm-19.836 11.459 8.514-4.923v-9.834l-8.514 4.923zm79.328-22.904 8.518-4.916v-9.832l-8.518 4.916zm-19.83 11.445 8.512-4.914v-9.834l-8.512 4.92zm-19.832 11.459 8.514-4.923v-9.834l-8.514 4.923zm-19.83 11.45 8.512-4.924v-9.828l-8.512 4.912zm-19.836 11.449 8.514-4.926v-9.826l-8.514 4.914zm79.328-22.899 8.518-4.923v-9.834l-8.518 4.923zm-19.83 11.45 8.512-4.924v-9.828l-8.512 4.912zm-19.832 11.449 8.514-4.926v-9.826l-8.514 4.914zm-19.83 11.447 8.512-4.916v-9.834l-8.512 4.918zm-19.836 11.451 8.514-4.918v-9.834l-8.514 4.918zm79.328-22.898 8.518-4.926v-9.826l-8.518 4.914zm-19.83 11.447 8.512-4.916v-9.834l-8.512 4.918zm-19.832 11.451 8.514-4.918v-9.834l-8.514 4.914zm-19.83 11.446 8.512-4.913v-9.83l-8.512 4.907zm-19.836 11.455 8.514-4.918v-9.83l-8.514 4.916zm79.328-22.901 8.518-4.918v-9.834l-8.518 4.914zm-19.83 11.446 8.512-4.913v-9.83l-8.512 4.907zm-19.832 11.455 8.514-4.918v-9.83l-8.514 4.916zm-19.83 11.449 8.512-4.918v-9.83l-8.512 4.914zm-19.836 11.447 8.514-4.916v-9.828l-8.514 4.912z" fill="#daeef5"/><path d="m1417.471 671.046-106.486-61.474-22.117 82.736h91.778z" fill="url(#av)"/><path d="m1363.048 651.275-67.895 39.19c-3.73 2.153-7.104 2.357-9.56.946-2.436-1.408-3.956-4.431-3.956-8.744v-78.39a29.83 29.83 0 0 1 13.516-23.403l67.895-39.2c3.734-2.151 7.113-2.354 9.55-.942 2.446 1.407 3.957 4.433 3.957 8.745v78.39a29.87 29.87 0 0 1 -13.507 23.408z" fill="#bbdbe6"/><path d="m1281.637 682.667v-78.39a29.83 29.83 0 0 1 13.516-23.403l67.895-39.2c3.734-2.151 7.113-2.354 9.55-.942l-88.933-51.343c-2.446-1.416-5.82-1.211-9.555.94l-67.893 39.2a29.849 29.849 0 0 0 -13.507 23.4v78.398c0 4.3 1.513 7.327 3.957 8.74l88.925 51.344c-2.435-1.408-3.955-4.431-3.955-8.744z" fill="url(#aw)"/><g fill="#daeef5"><path d="m1271.55 582.847a27.627 27.627 0 0 1 9.55-10.08l67.899-39.2c3.732-2.164 7.107-2.359 9.547-.953l4.263 2.47c-2.437-1.413-5.82-1.208-9.552.946l-67.89 39.194a29.825 29.825 0 0 0 -13.509 23.402v78.389c0 4.312 1.512 7.338 3.953 8.748l-4.262-2.463c-2.445-1.402-3.957-4.44-3.957-8.75v-78.39a27.618 27.618 0 0 1 3.957-13.314z"/><path d="m1260.133 576.251a27.683 27.683 0 0 1 9.557-10.08l67.885-39.2c3.74-2.158 7.113-2.362 9.558-.937l4.26 2.45c-2.44-1.409-5.818-1.205-9.55.95l-67.895 39.192a29.901 29.901 0 0 0 -13.508 23.408v78.399c0 4.303 1.508 7.334 3.96 8.742l-4.267-2.463c-2.439-1.42-3.957-4.44-3.957-8.744v-78.396a27.703 27.703 0 0 1 3.957-13.32z"/><path d="m1248.717 569.662a27.59 27.59 0 0 1 9.559-10.078l67.89-39.204c3.731-2.145 7.108-2.354 9.551-.947l4.262 2.465c-2.443-1.416-5.818-1.207-9.555.95l-67.886 39.19a29.842 29.842 0 0 0 -13.514 23.4v78.403c0 4.3 1.516 7.33 3.957 8.732l-4.264-2.453c-2.439-1.41-3.955-4.435-3.955-8.744v-78.398a27.672 27.672 0 0 1 3.955-13.316z"/><path d="m1237.31 563.075a27.512 27.512 0 0 1 9.55-10.088l67.887-39.197c3.73-2.151 7.113-2.358 9.556-.94l4.26 2.46c-2.445-1.415-5.824-1.206-9.55.943l-67.887 39.198a29.875 29.875 0 0 0 -13.52 23.4v78.396c0 4.309 1.52 7.33 3.961 8.752l-4.258-2.467c-2.455-1.41-3.96-4.435-3.96-8.748v-78.394a27.494 27.494 0 0 1 3.96-13.315z"/><path d="m1225.891 556.489a27.505 27.505 0 0 1 9.551-10.09l67.889-39.2c3.736-2.152 7.111-2.358 9.558-.94l4.262 2.454c-2.443-1.401-5.824-1.207-9.559.95l-67.888 39.187a29.917 29.917 0 0 0 -13.51 23.407v78.395c0 4.312 1.512 7.338 3.959 8.748l-4.262-2.46c-2.447-1.41-3.955-4.439-3.955-8.74v-78.397a27.523 27.523 0 0 1 3.955-13.314z"/><path d="m1214.473 549.897a27.585 27.585 0 0 1 9.557-10.091l67.893-39.198c3.724-2.154 7.1-2.359 9.548-.939l4.264 2.457c-2.45-1.41-5.82-1.203-9.56.953l-67.887 39.192a29.848 29.848 0 0 0 -13.508 23.395v78.4c0 4.304 1.512 7.338 3.955 8.744l-4.262-2.461c-2.445-1.412-3.957-4.436-3.957-8.754v-78.38a27.593 27.593 0 0 1 3.957-13.318z"/><path d="m1203.055 543.308a27.792 27.792 0 0 1 9.555-10.093l67.893-39.196c3.736-2.156 7.109-2.363 9.55-.946l4.264 2.47c-2.45-1.42-5.824-1.223-9.547.93l-67.892 39.207a29.808 29.808 0 0 0 -13.512 23.4v78.392c0 4.307 1.506 7.34 3.95 8.752l-4.26-2.469c-2.44-1.408-3.958-4.44-3.958-8.742v-78.395a27.608 27.608 0 0 1 3.957-13.31z"/></g><path d="m1318.85 573.603 33.961-19.611v-39.821l-33.961 19.606z" fill="#00e100"/><path d="m1318.85 573.603-33.968-19.611v-39.821l33.968 19.606z" fill="#06fc06"/><path d="m1318.85 533.777-33.968-19.606 33.968-19.603 33.961 19.603z" fill="#3eff3e"/><path d="m275.549 668.447h-54.327l33.961 20.214-33.961 19.612h54.327l34.479-19.907z" fill="url(#ax)"/><path d="m221.222 708.273 33.961-19.612v-39.82l-33.961 19.606z" fill="#b9d9e4"/><path d="m221.222 708.273-33.969-19.612v-39.82l33.969 19.606z" fill="#ccecf6"/><path d="m221.222 668.447-33.969-19.606 33.969-19.601 33.961 19.601z" fill="#f4f8f9"/><path d="m1031.938 915a23.12 23.12 0 0 0 -2.394-3.366c-3.252-3.232 4.244-8.637 7.627-10.588.064 0-9.86-5.732-9.86-5.732l-29.17.033a13.18 13.18 0 0 1 -2.45-7.623l-13.999-.004c-.002 2.281-.935 7.383-4.799 9.61a7.906 7.906 0 0 1 -2.826.974 66.022 66.022 0 0 0 -5.826 1.394.786.786 0 0 1 -.244-.042q-2.842-.812-5.807-1.393c-6.252-.943-7.535-7.824-7.521-10.582l-13.998-.002c-.002 2.277-.932 7.383-4.797 9.613a7.974 7.974 0 0 1 -2.828.969c-1.98.387-3.932.852-5.82 1.395-6.45 1.39-14.887-2.426-18.25-4.38l-9.927 5.73c3.364 1.954 10.792 7.36 7.504 10.58a22.566 22.566 0 0 0 -2.425 3.374 3.915 3.915 0 0 1 -1.686 1.633c-3.863 2.229-12.672 2.752-16.625 2.752l-.025 8.103c4.761 0 16.64.766 18.24 4.385a21.577 21.577 0 0 0 2.392 3.37c3.25 3.226-4.244 8.63-7.626 10.587l9.86 5.733c.347-.2.768-.424 1.225-.666l-1.154.666 29.149.033a13.128 13.128 0 0 1 2.392 7.562l55.004.043c0-.005 13.707-7.617 13.707-7.617l18.014.018 9.928-5.73c-3.37-1.956-10.8-7.362-7.51-10.585a22.952 22.952 0 0 0 1.55-2.039l9.235.012 9.922-5.732c.008 0 .056-8.098.056-8.098-5.105.197-16.638-.768-18.238-4.39z" fill="url(#ay)"/><path d="m907.376 886.083c-.008-3.144-5.553-7.107-8.327-8.72l.065 23.644c2.773 1.61 8.322 5.568 8.326 8.72z" fill="#f5f9fa"/><path d="m996.221 901.007-.068-23.644c-2.803 1.615-8.436 5.61-8.426 8.765l.067 23.645c-.008-3.157 5.62-7.145 8.427-8.766z" fill="#b9dce8"/><path d="m930.063 913.25c9.727-5.616 25.412-5.616 35.072-.003 4.795 2.785 7.196 6.432 7.21 10.088l-.07-23.645c-.017-3.65-2.413-7.3-7.21-10.087-9.658-5.61-25.346-5.61-35.066 0-4.887 2.82-7.326 6.525-7.315 10.219l.067 23.644c-.01-3.695 2.43-7.399 7.312-10.217z" fill="url(#az)"/><path d="m908.659 927.88-9.861-5.732.07 23.642 9.861 5.733z" fill="#cceffa"/><path d="m995.969 945.79-.062-23.642-9.934 5.732.069 23.643z" fill="#b9dce8"/><path d="m927.024 947.138a65.78 65.78 0 0 0 5.809 1.394c6.172.928 7.496 7.653 7.506 10.479l-.069-23.645c-.01-2.826-1.336-9.546-7.502-10.474a67.72 67.72 0 0 1 -5.812-1.395c-5.559-1.892-14.914 2.424-18.297 4.383l.07 23.643c3.381-1.96 12.735-6.282 18.295-4.385z" fill="url(#aA)"/><path d="m959.16 949.491a7.97 7.97 0 0 1 2.811-.957 69.349 69.349 0 0 0 5.811-1.39c5.592-1.903 14.898 2.42 18.26 4.379l-.069-23.643c-3.357-1.955-12.666-6.275-18.254-4.379a70.85 70.85 0 0 1 -5.812 1.39 8.045 8.045 0 0 0 -2.816.958c-3.809 2.203-4.616 7.23-4.833 9.625l.067 23.64c.219-2.392 1.023-7.423 4.836-9.623z" fill="url(#aB)"/><path d="m906.424 911.564c3.25 3.224-4.244 8.63-7.626 10.584l9.86 5.732c3.384-1.959 12.74-6.275 18.298-4.383a67.72 67.72 0 0 0 5.812 1.395c6.242.933 7.526 7.822 7.502 10.582h13.988c.217-2.395 1.024-7.422 4.833-9.625a8.045 8.045 0 0 1 2.816-.957 70.85 70.85 0 0 0 5.812-1.39c5.588-1.897 14.897 2.423 18.254 4.378l9.934-5.732c-3.37-1.951-10.803-7.36-7.516-10.584a23.183 23.183 0 0 0 2.432-3.371 3.915 3.915 0 0 1 1.685-1.633c3.856-2.23 12.668-2.756 16.6-2.748l.047-8.108c-5.107.202-16.639-.763-18.238-4.39a22.936 22.936 0 0 0 -2.391-3.366c-3.252-3.23 4.244-8.632 7.627-10.585l-9.863-5.731c-3.383 1.951-12.742 6.275-18.293 4.38q-2.842-.808-5.807-1.392c-6.252-.943-7.535-7.826-7.521-10.58l-13.998-.008c-.002 2.286-.932 7.391-4.797 9.62a7.973 7.973 0 0 1 -2.828.966c-1.98.389-3.932.85-5.82 1.395-6.45 1.39-14.887-2.43-18.25-4.381l-9.927 5.73c3.364 1.954 10.792 7.36 7.504 10.58a22.669 22.669 0 0 0 -2.425 3.376 3.933 3.933 0 0 1 -1.686 1.636c-3.863 2.225-12.672 2.75-16.625 2.75l-.025 8.108c4.761-.008 16.64.76 18.24 4.38a21.877 21.877 0 0 0 2.392 3.372zm23.576-21.961c9.72-5.61 25.408-5.61 35.066 0 9.649 5.613 9.608 14.7-.113 20.316-9.71 5.608-25.408 5.602-35.059-.004-9.658-5.619-9.605-14.7.106-20.312z" fill="#f6fafb"/><path d="m898.798 922.148c3.382-1.954 10.876-7.36 7.626-10.584a21.877 21.877 0 0 1 -2.392-3.371c-1.6-3.621-13.479-4.39-18.24-4.381l.07 23.636a59.182 59.182 0 0 1 12.951 1.395z" fill="#cceffa"/><path d="m954.325 959.114-.067-23.64h-13.988l.069 23.644z" fill="#b9dce8"/><path d="m1009.176 927.448-.068-23.636c-3.932-.008-12.744.517-16.6 2.748a3.915 3.915 0 0 0 -1.685 1.633 23.183 23.183 0 0 1 -2.432 3.37c-3.287 3.225 4.147 8.634 7.516 10.585l.017 6.792a58.286 58.286 0 0 1 13.252-1.492z" fill="url(#aC)"/></svg>