<svg xmlns="http://www.w3.org/2000/svg" xmlns:xlink="http://www.w3.org/1999/xlink" viewBox="0 0 800 700"><defs><linearGradient id="q" x1="853.6" x2="622.93" y1="273.99" y2="203.06" gradientTransform="matrix(-1 0 0 1 1253.04 0)" gradientUnits="userSpaceOnUse"><stop class="stopColor20196f svgShape" offset="0" stop-color="#195a6f"/><stop class="stopColor5652cc svgShape" offset="1" stop-color="#52aecc"/></linearGradient><linearGradient id="r" x1="613.54" x2="796.42" y1="377.36" y2="60.6" gradientTransform="matrix(-1 0 0 1 1253.04 0)" gradientUnits="userSpaceOnUse"><stop class="stopColor241e77 svgShape" offset=".32" stop-color="#1e6177"/><stop class="stopColor5652cc svgShape" offset=".37" stop-color="#52aecc"/></linearGradient><linearGradient id="s" x1="488.79" x2="537.89" y1="301.51" y2="216.45" gradientUnits="userSpaceOnUse"><stop class="stopColor000000 svgShape" offset="0"/><stop class="stopColor362200 svgShape" offset=".15" stop-color="#003600"/><stop class="stopColor684200 svgShape" offset=".3" stop-color="#006800"/><stop class="stopColor925c00 svgShape" offset=".46" stop-color="#009200"/><stop class="stopColorb27100 svgShape" offset=".61" stop-color="#00b200"/><stop class="stopColorc97f00 svgShape" offset=".75" stop-color="#00c900"/><stop class="stopColord78800 svgShape" offset=".88" stop-color="#00d700"/><stop class="stopColordc8b00 svgShape" offset="1" stop-color="#00dc00"/></linearGradient><linearGradient id="t" x1="503.55" x2="503.55" y1="310.69" y2="230.65" gradientUnits="userSpaceOnUse"><stop class="stopColor000000 svgShape" offset="0"/><stop class="stopColor664000 svgShape" offset=".44" stop-color="#060"/><stop class="stopColorbb7600 svgShape" offset=".82" stop-color="#0b0"/><stop class="stopColordc8b00 svgShape" offset="1" stop-color="#00dc00"/></linearGradient><linearGradient id="u" x1="393.33" x2="762.28" y1="315.82" y2="315.82" gradientUnits="userSpaceOnUse"><stop class="stopColord1d7f3 svgShape" offset="0" stop-color="#d1f3d1"/><stop class="stopColorf1f2fb svgShape" offset=".71" stop-color="#f1fbf1"/><stop class="stopColorffffff svgShape" offset="1" stop-color="#fff"/></linearGradient><linearGradient id="a" x1="485.47" x2="684.27" y1="549.92" y2="549.92" gradientUnits="userSpaceOnUse"><stop class="stopColord1d7f3 svgShape" offset=".37" stop-color="#d1f3d1"/><stop class="stopColordadff5 svgShape" offset=".56" stop-color="#daf5da"/><stop class="stopColorf2f4fc svgShape" offset=".87" stop-color="#f2fcf2"/><stop class="stopColorffffff svgShape" offset="1" stop-color="#fff"/></linearGradient><linearGradient id="b" x1="466.11" x2="664.89" y1="572.95" y2="572.95" gradientUnits="userSpaceOnUse"><stop class="stopColorced3f8 svgShape" offset=".43" stop-color="#cef8ce"/><stop class="stopColorccd1f6 svgShape" offset=".45" stop-color="#ccf6cc"/><stop class="stopColorbbc0e6 svgShape" offset=".63" stop-color="#bbe6bb"/></linearGradient><linearGradient id="v" x1="102.14" x2="300.95" y1="329.67" y2="329.67" xlink:href="#a"/><linearGradient id="w" x1="82.78" x2="281.56" y1="352.69" y2="352.69" xlink:href="#b"/><linearGradient id="x" x1="218.18" x2="602.02" y1="431.98" y2="431.98" xlink:href="#a"/><linearGradient id="y" x1="180.79" x2="564.59" y1="476.44" y2="476.44" xlink:href="#b"/><linearGradient id="z" x1="273.45" x2="300.61" y1="510.25" y2="510.25" gradientUnits="userSpaceOnUse"><stop class="stopColord1d7f3 svgShape" offset="0" stop-color="#d1f3d1"/><stop class="stopColorffffff svgShape" offset="1" stop-color="#fff"/></linearGradient><linearGradient id="A" x1="291.55" x2="300.61" y1="496.92" y2="496.92" gradientUnits="userSpaceOnUse"><stop class="stopColordae0f5 svgShape" offset="0" stop-color="#daf5da"/><stop class="stopColorffffff svgShape" offset="1" stop-color="#fff"/></linearGradient><linearGradient id="B" x1="358.81" x2="442.17" y1="387.56" y2="387.56" gradientTransform="rotate(.01 189405.977 -158955.022)" gradientUnits="userSpaceOnUse"><stop class="stopColor20196f svgShape" offset="0" stop-color="#195a6f"/><stop class="stopColor423eaf svgShape" offset="1" stop-color="#3e93af"/></linearGradient><linearGradient id="C" x1="354.35" x2="446.63" y1="420.23" y2="420.23" gradientTransform="rotate(.01 189405.977 -158955.022)" gradientUnits="userSpaceOnUse"><stop class="stopColor423eaf svgShape" offset="0" stop-color="#3e93af"/><stop class="stopColor20196f svgShape" offset="1" stop-color="#195a6f"/></linearGradient><linearGradient id="D" x1="335.63" x2="465.33" y1="329.07" y2="329.07" gradientTransform="rotate(.01 189405.977 -158955.022)" gradientUnits="userSpaceOnUse"><stop class="stopColordc8b00 svgShape" offset="0" stop-color="#00dc00"/><stop class="stopColorfcba06 svgShape" offset="1" stop-color="#06fc06"/></linearGradient><linearGradient id="f" x1="332.86" x2="468.11" y1="373.54" y2="373.54" gradientTransform="rotate(.01 189405.977 -158955.022)" gradientUnits="userSpaceOnUse"><stop class="stopColorfcba06 svgShape" offset="0" stop-color="#06fc06"/><stop class="stopColordc8b00 svgShape" offset="1" stop-color="#00dc00"/></linearGradient><linearGradient id="E" x1="314.32" x2="486.63" y1="269.69" y2="269.69" gradientTransform="rotate(.01 189405.977 -158955.022)" gradientUnits="userSpaceOnUse"><stop class="stopColor362e94 svgShape" offset="0" stop-color="#2e7b94"/><stop class="stopColor5652cc svgShape" offset="1" stop-color="#52aecc"/></linearGradient><linearGradient id="F" x1="311.07" x2="489.89" y1="327.07" y2="327.07" gradientTransform="rotate(.01 189405.977 -158955.022)" gradientUnits="userSpaceOnUse"><stop class="stopColor5652cc svgShape" offset="0" stop-color="#52aecc"/><stop class="stopColor362e94 svgShape" offset="1" stop-color="#2e7b94"/></linearGradient><linearGradient id="G" x1="289.76" x2="511.19" y1="281.39" y2="281.39" gradientTransform="rotate(.01 189405.977 -158955.022)" gradientUnits="userSpaceOnUse"><stop class="stopColorced3f8 svgShape" offset="0" stop-color="#cef8ce"/><stop class="stopColora3a9d0 svgShape" offset="1" stop-color="#a3d0a3"/></linearGradient><linearGradient id="H" x1="293.54" x2="507.4" y1="214.05" y2="214.05" gradientTransform="rotate(.01 189405.977 -158955.022)" gradientUnits="userSpaceOnUse"><stop class="stopColora3a9d0 svgShape" offset="0" stop-color="#a3d0a3"/><stop class="stopColorced3f8 svgShape" offset="1" stop-color="#cef8ce"/></linearGradient><linearGradient id="c" x1="221.71" x2="273.77" y1="408.76" y2="408.76" gradientUnits="userSpaceOnUse"><stop class="stopColorc4c9e4 svgShape" offset=".45" stop-color="#c4e4c4"/><stop class="stopColorffffff svgShape" offset="1" stop-color="#fff"/></linearGradient><linearGradient id="I" x1="375.09" x2="427.15" y1="451.9" y2="451.9" xlink:href="#c"/><linearGradient id="d" x1="363.16" x2="414.15" y1="455.97" y2="455.97" gradientUnits="userSpaceOnUse"><stop class="stopColorfbba05 svgShape" offset="0" stop-color="#05fb05"/><stop class="stopColordc8b00 svgShape" offset="1" stop-color="#00dc00"/></linearGradient><linearGradient id="e" x1="367.95" x2="409.36" y1="439.35" y2="439.35" gradientUnits="userSpaceOnUse"><stop class="stopColordc8b00 svgShape" offset="0" stop-color="#00dc00"/><stop class="stopColorfbba05 svgShape" offset="1" stop-color="#05fb05"/></linearGradient><linearGradient id="J" x1="380.79" x2="391.98" y1="450.15" y2="450.15" xlink:href="#d"/><linearGradient id="K" x1="439.08" x2="491.13" y1="378.49" y2="378.49" xlink:href="#c"/><linearGradient id="L" x1="427.15" x2="478.14" y1="382.57" y2="382.57" xlink:href="#d"/><linearGradient id="M" x1="431.94" x2="473.35" y1="365.95" y2="365.95" xlink:href="#e"/><linearGradient id="N" x1="444.78" x2="455.97" y1="376.75" y2="376.75" xlink:href="#d"/><linearGradient id="O" x1="418.09" x2="457.78" y1="461.41" y2="461.41" xlink:href="#c"/><linearGradient id="P" x1="407.63" x2="446.69" y1="451.02" y2="451.02" xlink:href="#e"/><linearGradient id="Q" x1="442.5" x2="403.12" y1="473.35" y2="447.92" xlink:href="#e"/><linearGradient id="R" x1="419.62" x2="430.44" y1="459.5" y2="459.5" xlink:href="#d"/><linearGradient id="S" x1="253.65" x2="352.07" y1="383.24" y2="383.24" gradientUnits="userSpaceOnUse"><stop class="stopColorc4c9e4 svgShape" offset=".01" stop-color="#c4e4c4"/><stop class="stopColorcacee7 svgShape" offset=".07" stop-color="#cae7ca"/><stop class="stopColore7e9f4 svgShape" offset=".44" stop-color="#e7f4e7"/><stop class="stopColorf9f9fc svgShape" offset=".77" stop-color="#f9fcf9"/><stop class="stopColorffffff svgShape" offset="1" stop-color="#fff"/></linearGradient><linearGradient id="T" x1="241.78" x2="292.53" y1="351.13" y2="351.13" xlink:href="#f"/><linearGradient id="g" x1="241.78" x2="292.53" y1="358.36" y2="358.36" gradientUnits="userSpaceOnUse"><stop class="stopColorffd03e svgShape" offset="0" stop-color="#3eff3e"/><stop class="stopColore19100 svgShape" offset="1" stop-color="#00e100"/></linearGradient><linearGradient id="U" x1="241.78" x2="292.53" y1="365.6" y2="365.6" xlink:href="#f"/><linearGradient id="V" x1="241.78" x2="292.53" y1="372.83" y2="372.83" xlink:href="#g"/><linearGradient id="W" x1="241.78" x2="292.53" y1="380.06" y2="380.06" xlink:href="#f"/><linearGradient id="X" x1="241.78" x2="292.53" y1="387.29" y2="387.29" xlink:href="#g"/><linearGradient id="h" x1="246.54" x2="287.76" y1="334.59" y2="334.59" gradientUnits="userSpaceOnUse"><stop class="stopColorfcba06 svgShape" offset="0" stop-color="#06fc06"/><stop class="stopColore19100 svgShape" offset="1" stop-color="#00e100"/></linearGradient><linearGradient id="Y" x1="259.32" x2="270.46" y1="345.34" y2="345.34" xlink:href="#h"/><linearGradient id="Z" x1="479.07" x2="553.07" y1="402.58" y2="402.58" gradientUnits="userSpaceOnUse"><stop class="stopColorc4c9e4 svgShape" offset=".03" stop-color="#c4e4c4"/><stop class="stopColore4e6f3 svgShape" offset=".43" stop-color="#e4f3e4"/><stop class="stopColorf8f8fc svgShape" offset=".77" stop-color="#f8fcf8"/><stop class="stopColorffffff svgShape" offset="1" stop-color="#fff"/></linearGradient><linearGradient id="aa" x1="467.19" x2="517.95" y1="384.94" y2="384.94" xlink:href="#f"/><linearGradient id="ab" x1="467.19" x2="517.95" y1="392.17" y2="392.17" xlink:href="#g"/><linearGradient id="ac" x1="467.19" x2="517.95" y1="399.4" y2="399.4" xlink:href="#f"/><linearGradient id="ad" x1="467.19" x2="517.95" y1="406.64" y2="406.64" xlink:href="#g"/><linearGradient id="ae" x1="471.96" x2="513.18" y1="368.4" y2="368.4" xlink:href="#h"/><linearGradient id="af" x1="484.74" x2="495.88" y1="379.15" y2="379.15" xlink:href="#h"/><linearGradient id="ag" x1="278.85" x2="333.25" y1="411.03" y2="411.03" gradientUnits="userSpaceOnUse"><stop class="stopColorc4c9e4 svgShape" offset=".03" stop-color="#c4e4c4"/><stop class="stopColorffffff svgShape" offset="1" stop-color="#fff"/></linearGradient><linearGradient id="ah" x1="266.77" x2="317.93" y1="400.54" y2="400.54" xlink:href="#f"/><linearGradient id="ai" x1="266.77" x2="317.93" y1="415.12" y2="415.12" xlink:href="#f"/><linearGradient id="aj" x1="266.77" x2="317.93" y1="407.83" y2="407.83" xlink:href="#g"/><linearGradient id="ak" x1="271.57" x2="313.13" y1="383.86" y2="383.86" xlink:href="#h"/><linearGradient id="al" x1="284.46" x2="295.69" y1="394.7" y2="394.7" xlink:href="#h"/><linearGradient id="am" x1="209.79" x2="260.77" y1="412.83" y2="412.83" xlink:href="#d"/><linearGradient id="an" x1="214.58" x2="255.98" y1="396.22" y2="396.22" xlink:href="#e"/><linearGradient id="ao" x1="227.41" x2="238.6" y1="407.02" y2="407.02" xlink:href="#d"/><linearGradient id="ap" x1="140.89" x2="198.93" y1="321.46" y2="321.46" gradientUnits="userSpaceOnUse"><stop class="stopColorc4cae9 svgShape" offset="0" stop-color="#c4e9c4"/><stop class="stopColord2d7ee svgShape" offset=".31" stop-color="#d2eed2"/><stop class="stopColorf8f8fc svgShape" offset=".89" stop-color="#f8fcf8"/><stop class="stopColorffffff svgShape" offset="1" stop-color="#fff"/></linearGradient><linearGradient id="aq" x1="179.69" x2="254.89" y1="325.65" y2="325.65" gradientUnits="userSpaceOnUse"><stop class="stopColorc4cae9 svgShape" offset="0" stop-color="#c4e9c4"/><stop class="stopColore9ebf7 svgShape" offset=".47" stop-color="#e9f7e9"/><stop class="stopColorffffff svgShape" offset=".81" stop-color="#fff"/></linearGradient><linearGradient id="ar" x1="156.19" x2="199.88" y1="308.58" y2="308.58" gradientUnits="userSpaceOnUse"><stop class="stopColora7adce svgShape" offset=".4" stop-color="#a7cea7"/><stop class="stopColorced3f8 svgShape" offset="1" stop-color="#cef8ce"/></linearGradient><linearGradient id="i" x1="484.39" x2="530.9" y1="530.35" y2="530.35" gradientTransform="translate(95.13)" gradientUnits="userSpaceOnUse"><stop class="stopColorc4c9e5 svgShape" offset="0" stop-color="#c4e5c4"/><stop class="stopColorcdd1e9 svgShape" offset=".25" stop-color="#cde9cd"/><stop class="stopColore6e8f4 svgShape" offset=".66" stop-color="#e6f4e6"/><stop class="stopColorffffff svgShape" offset="1" stop-color="#fff"/></linearGradient><linearGradient id="as" x1="440.46" x2="486.96" y1="530.35" y2="530.35" xlink:href="#i"/><linearGradient id="at" x1="232.52" x2="315.66" y1="537.82" y2="537.82" gradientTransform="matrix(-1 0 0 1 850.76 0)" gradientUnits="userSpaceOnUse"><stop class="stopColor34318d svgShape" offset="0" stop-color="#31768d"/><stop class="stopColor3a3798 svgShape" offset=".26" stop-color="#378098"/><stop class="stopColor4a46b5 svgShape" offset=".7" stop-color="#469ab5"/><stop class="stopColor5652cc svgShape" offset="1" stop-color="#52aecc"/></linearGradient><linearGradient id="j" x1="324.68" x2="332.69" y1="564.15" y2="550.29" gradientTransform="matrix(-1 0 0 1 850.76 0)" gradientUnits="userSpaceOnUse"><stop class="stopColor362e94 svgShape" offset="0" stop-color="#2e7b94"/><stop class="stopColor3d369d svgShape" offset=".18" stop-color="#36849d"/><stop class="stopColor514bb6 svgShape" offset=".48" stop-color="#4b9cb6"/><stop class="stopColor716edf svgShape" offset=".85" stop-color="#6ec3df"/><stop class="stopColor807ef1 svgShape" offset="1" stop-color="#7ed5f1"/></linearGradient><linearGradient id="au" x1="308.84" x2="316.85" y1="555" y2="541.13" gradientTransform="matrix(-1 0 0 1 850.76 0)" xlink:href="#i"/><linearGradient id="av" x1="344.89" x2="358.15" y1="574.56" y2="566.91" xlink:href="#j"/><linearGradient id="k" x1="227.85" x2="253.33" y1="501.32" y2="501.32" gradientUnits="userSpaceOnUse"><stop class="stopColorc4cae9 svgShape" offset="0" stop-color="#c4e9c4"/><stop class="stopColorced3ed svgShape" offset=".09" stop-color="#ceedce"/><stop class="stopColore9ebf7 svgShape" offset=".41" stop-color="#e9f7e9"/><stop class="stopColorf9fafd svgShape" offset=".69" stop-color="#f9fdf9"/><stop class="stopColorffffff svgShape" offset=".9" stop-color="#fff"/></linearGradient><linearGradient id="aw" x1="254.17" x2="273.89" y1="492.22" y2="492.22" xlink:href="#k"/><linearGradient id="ax" x1="841.23" x2="847.14" y1="441.18" y2="441.1" gradientTransform="matrix(-1 0 0 1 1067.48 0)" gradientUnits="userSpaceOnUse"><stop class="stopColor5652cc svgShape" offset="0" stop-color="#52aecc"/><stop class="stopColor6b67e9 svgShape" offset="1" stop-color="#67c9e9"/></linearGradient><linearGradient id="l" x1="1493" x2="1504.6" y1="499.95" y2="499.95" gradientTransform="matrix(-1 0 0 1 1728.99 0)" gradientUnits="userSpaceOnUse"><stop class="stopColor423eaf svgShape" offset="0" stop-color="#3e93af"/><stop class="stopColor3e39a7 svgShape" offset=".11" stop-color="#398ca7"/><stop class="stopColor28227e svgShape" offset=".7" stop-color="#22677e"/><stop class="stopColor20196f svgShape" offset="1" stop-color="#195a6f"/></linearGradient><linearGradient id="ay" x1="1466.71" x2="1478.3" y1="490.85" y2="490.85" xlink:href="#l"/><linearGradient id="az" x1="225.37" x2="257.57" y1="471.87" y2="471.87" gradientUnits="userSpaceOnUse"><stop class="stopColor423eaf svgShape" offset="0" stop-color="#3e93af"/><stop class="stopColor2d2888 svgShape" offset=".56" stop-color="#287088"/><stop class="stopColor20196f svgShape" offset="1" stop-color="#195a6f"/></linearGradient><linearGradient id="aA" x1="1482.93" x2="1503.75" y1="444.82" y2="444.82" gradientTransform="matrix(-1 0 0 1 1728.99 0)" gradientUnits="userSpaceOnUse"><stop class="stopColor423eaf svgShape" offset="0" stop-color="#3e93af"/><stop class="stopColor504cc0 svgShape" offset=".19" stop-color="#4ca3c0"/><stop class="stopColor736feb svgShape" offset=".73" stop-color="#6fcceb"/><stop class="stopColor807dfb svgShape" offset="1" stop-color="#7ddcfb"/></linearGradient><linearGradient id="aB" x1="813.03" x2="835.51" y1="445.35" y2="445.35" gradientTransform="matrix(-1 0 0 1 1067.48 0)" gradientUnits="userSpaceOnUse"><stop class="stopColor423eaf svgShape" offset="0" stop-color="#3e93af"/><stop class="stopColor615ed5 svgShape" offset=".41" stop-color="#5eb8d5"/><stop class="stopColor7874f1 svgShape" offset=".78" stop-color="#74d2f1"/><stop class="stopColor807dfb svgShape" offset="1" stop-color="#7ddcfb"/></linearGradient><linearGradient id="aC" x1="79.38" x2="144.56" y1="467.87" y2="467.87" gradientUnits="userSpaceOnUse"><stop class="stopColorbbc0e6 svgShape" offset=".62" stop-color="#bbe6bb"/><stop class="stopColorb4b9dd svgShape" offset=".65" stop-color="#b4ddb4"/><stop class="stopColora5abcc svgShape" offset=".74" stop-color="#a5cca5"/></linearGradient><linearGradient id="aD" x1="1151.98" x2="1106.32" y1="440.91" y2="426.87" gradientTransform="matrix(-1 0 0 1 1253.03 0)" gradientUnits="userSpaceOnUse"><stop class="stopColor34318f svgShape" offset="0" stop-color="#31788f"/><stop class="stopColor6a6ae2 svgShape" offset="1" stop-color="#6ac4e2"/></linearGradient><linearGradient id="aE" x1="1101.01" x2="1139.5" y1="462.02" y2="395.35" gradientTransform="matrix(-1 0 0 1 1253.03 0)" gradientUnits="userSpaceOnUse"><stop class="stopColor20196f svgShape" offset=".4" stop-color="#195a6f"/><stop class="stopColor362e94 svgShape" offset=".48" stop-color="#2e7b94"/></linearGradient><linearGradient id="m" x1="2138.56" x2="2148.93" y1="505.23" y2="505.23" gradientTransform="matrix(-1 0 0 1 2252.9 0)" gradientUnits="userSpaceOnUse"><stop class="stopColor5655c2 svgShape" offset="0" stop-color="#0099cb"/><stop class="stopColor3e3b9a svgShape" offset=".66" stop-color="#3b839a"/><stop class="stopColor34318b svgShape" offset="1" stop-color="#31758b"/></linearGradient><linearGradient id="n" x1="2142.44" x2="2182.56" y1="491.78" y2="491.78" gradientTransform="matrix(-1 0 0 1 2252.9 0)" gradientUnits="userSpaceOnUse"><stop class="stopColor34318b svgShape" offset=".29" stop-color="#31758b"/><stop class="stopColor4241a6 svgShape" offset="1" stop-color="#418da6"/></linearGradient><linearGradient id="aF" x1="2146.55" x2="2156.92" y1="499.77" y2="499.77" xlink:href="#m"/><linearGradient id="aG" x1="659.16" x2="719.94" y1="517.03" y2="517.03" gradientTransform="translate(-581.92)" gradientUnits="userSpaceOnUse"><stop class="stopColord3d8f2 svgShape" offset="0" stop-color="#d3f2d3"/><stop class="stopColoreef0fa svgShape" offset=".55" stop-color="#eefaee"/><stop class="stopColorffffff svgShape" offset="1" stop-color="#fff"/></linearGradient><linearGradient id="p" x1="89.26" x2="99.66" y1="460.9" y2="460.9" gradientUnits="userSpaceOnUse"><stop class="stopColorc4cae9 svgShape" offset="0" stop-color="#c4e9c4"/><stop class="stopColorffffff svgShape" offset="1" stop-color="#fff"/></linearGradient><linearGradient id="o" x1="4.36" x2="1.56" y1="465.3" y2="461.77" gradientTransform="translate(85.76)" gradientUnits="userSpaceOnUse"><stop class="stopColordc8b00 svgShape" offset="0" stop-color="#00dc00"/><stop class="stopColordf9105 svgShape" offset=".21" stop-color="#05df05"/><stop class="stopColore7a114 svgShape" offset=".49" stop-color="#14e714"/><stop class="stopColorf5bc2c svgShape" offset=".81" stop-color="#2cf52c"/><stop class="stopColorffd03e svgShape" offset="1" stop-color="#3eff3e"/></linearGradient><linearGradient id="aH" x1="2142.44" x2="2182.56" y1="487.42" y2="487.42" xlink:href="#n"/><linearGradient id="aI" x1="2164.38" x2="2182.56" y1="472.13" y2="472.13" gradientTransform="matrix(-1 0 0 1 2252.9 0)" xlink:href="#o"/><linearGradient id="aJ" x1="98.57" x2="112.53" y1="466.43" y2="466.43" xlink:href="#p"/><linearGradient id="aK" x1="1169.55" x2="1146.54" y1="463.02" y2="469.23" gradientTransform="matrix(-1 0 0 1 1253.03 0)" gradientUnits="userSpaceOnUse"><stop class="stopColorffd03e svgShape" offset="0" stop-color="#3eff3e"/><stop class="stopColorf5bc2c svgShape" offset=".19" stop-color="#2cf52c"/><stop class="stopColore7a114 svgShape" offset=".51" stop-color="#14e714"/><stop class="stopColordf9105 svgShape" offset=".79" stop-color="#05df05"/><stop class="stopColordc8b00 svgShape" offset="1" stop-color="#00dc00"/></linearGradient><linearGradient id="aL" x1="71.63" x2="107.34" y1="493.47" y2="493.47" gradientUnits="userSpaceOnUse"><stop class="stopColorc0c6e5 svgShape" offset="0" stop-color="#c0e5c0"/><stop class="stopColordde0f1 svgShape" offset=".49" stop-color="#ddf1dd"/><stop class="stopColorffffff svgShape" offset="1" stop-color="#fff"/></linearGradient></defs><g class="color000000 svgShape" data-name="Woman with work panel"><path fill="url(#q)" d="M635.17 242.66c0-5.76-4.08-12.83-9.07-15.71L401 97c-5-2.88-9.07-.53-9.07 5.24v132.89c0 5.76 4.08 12.84 9.07 15.72l225.1 129.94c5 2.88 9.07.52 9.07-5.24z"/><path fill="url(#r)" d="M635.17 375.55V242.66c0-5.76-4.08-12.83-9.07-15.71L401 97c-2.46-1.42-4.7-1.56-6.34-.65l4.75-2.74c1.66-1.07 4-1 6.57.5l225.1 129.96c5 2.88 9.07 10 9.07 15.72v132.88c0 3-1.12 5.09-2.9 6l-4.53 2.61c1.51-1.02 2.45-2.98 2.45-5.73z"/><path fill="url(#s)" d="M561.61 230.14c-8-2.84-4.53 23.24-11.26 19.36-4.91-2.84-6-16.94-13.22-21.08-7.55-4.36-10.57 27.93-19.07 23-6.8-3.92-7.74-16.23-14.51-20.13-9.06-5.23-8.91 19.49-17.78 14.37-9.25-5.35-16.43-48.4-25.13-53.43-4.38-2.52-9.38 6.45-13 12.4v73.09l114 65.81z" style="mix-blend-mode:screen"/><path style="mix-blend-mode:screen" fill="url(#t)" d="M504.68 310.69l-2.26-1.31v-78.73l2.26 1.31v78.73z"/><path fill="#fff" d="M500.37 229.47c0-2 1.42-2.84 3.18-1.82a7 7 0 0 1 3.18 5.49c0 2-1.42 2.84-3.18 1.83a7 7 0 0 1-3.18-5.5z" class="colorffffff svgShape"/><path fill="#195a6f" d="M411.59 120.68c1.05-.19 1.75-1.22 1.75-2.88a8.36 8.36 0 0 0-3.59-6.62c-2-1.14-3.6 0-3.6 2.48a8.6 8.6 0 0 0 1.75 4.88c-3-.57-5 1.34-5 3.8l6.82 3.94 6.81 3.93c.03-2.46-1.9-6.6-4.94-9.53zm27.88 49.49l-39.09-22.57v-21.41l39.09 22.57v21.41zm0 32.87l-39.09-22.57v-21.41l39.09 22.57v21.41zm0 5.73l-39.09-22.57v-1.89l39.09 22.57v1.89zm0 4.25l-39.09-22.57v-1.89l39.09 22.57v1.89zm0 4.25l-39.09-22.57v-1.89l39.09 22.57v1.89z" style="mix-blend-mode:screen" class="color20196f svgShape"/><g style="mix-blend-mode:screen" class="color000000 svgShape"><path fill="#3eff3e" d="M596.17 283.68c-6.39-3.69-11.56-12.65-11.56-20s5.17-10.36 11.56-6.67v-7.2c-9.83-5.67-17.8-1.07-17.8 10.28s8 25.14 17.8 30.82c6 3.46 11.29 3.08 14.51-.31l-5.08-7.09c-2.1 2.17-5.54 2.42-9.43.17z" class="colorffd03e svgShape"/><path fill="#195a6f" d="M596.17 249.78V257c6.38 3.69 11.56 12.65 11.56 20a9.17 9.17 0 0 1-2.13 6.48l5.08 7.09c2.06-2.16 3.28-5.54 3.28-10 .04-11.31-7.96-25.11-17.79-30.79z" class="color20196f svgShape"/></g><g style="mix-blend-mode:screen" class="color000000 svgShape"><path fill="#195a6f" d="M596.17 301.64v7.2c6.38 3.69 11.56 12.65 11.56 20s-5.18 10.36-11.56 6.68c-5.19-3-9.58-9.48-11-15.76l-6-1.3c2.25 9.66 9 19.64 17 24.25 9.83 5.7 17.83 1.1 17.83-10.25s-8-25.15-17.83-30.82z" class="color20196f svgShape"/><path fill="#3eff3e" d="M584.61 315.51c0-7.37 5.17-10.36 11.56-6.67v-7.2c-9.83-5.67-17.8-1.07-17.8 10.27a29.05 29.05 0 0 0 .8 6.57l6 1.3a18.8 18.8 0 0 1-.56-4.27z" class="colorffd03e svgShape"/></g><g style="mix-blend-mode:screen" class="color000000 svgShape"><path fill="#3e93af" d="M615.22 247.41l-38.1-22v-3.79l38.1 22v3.79z" class="color423eaf svgShape"/><ellipse cx="588.09" cy="220.23" fill="#3eff3e" class="colorffd03e svgShape" rx="1.87" ry="3.24" transform="rotate(-30 588.111 220.224)"/><path fill="#3eff3e" d="M593.88 223.57c0-1.46 1-2 2.29-1.32a5.08 5.08 0 0 1 2.29 4c0 1.46-1 2.05-2.29 1.32a5.05 5.05 0 0 1-2.29-4zm8.12 4.67c0-1.46 1-2.05 2.29-1.32a5 5 0 0 1 2.29 4c0 1.46-1 2.05-2.29 1.32a5.08 5.08 0 0 1-2.29-4z" class="colorffd03e svgShape"/></g><path fill="url(#u)" d="M752.85 300.13l-85.36-49.28c-5-2.88-17.24-5.24-27.22-5.24H410.11c-10 0-14.07 2.36-9.08 5.24L626.1 380.79c5 2.88 17.23 5.23 27.21 5.23h99.54z" style="mix-blend-mode:multiply"/><path fill="none" stroke="#daf5da" stroke-linecap="round" stroke-linejoin="round" stroke-width="2" d="M565.51 544.57L182.18 324.31" class="colorStrokedae0f5 svgStroke"/><path fill="url(#a)" d="M678.36 541.64l-79.15-45.47c-7.88-4.56-20.79-4.56-28.68 0l-79.15 45.47c-7.88 4.55-7.88 12 0 16.56l74.12 42.58v6.31h19.37a29.4 29.4 0 0 0 14.34-3.41l79.15-45.48c7.89-4.55 7.89-12.01 0-16.56z" style="mix-blend-mode:multiply"/><path fill="#f6fbf6" d="M579.85 592.56c-7.89 4.56-20.8 4.56-28.68 0L472 547.08c-7.89-4.55-7.89-12 0-16.55l79.15-45.48c7.88-4.55 20.79-4.55 28.68 0L659 530.53c7.88 4.55 7.88 12 0 16.56z" class="colorf6f6fb svgShape"/><path fill="url(#b)" d="M472 547.09l79.15 45.47c7.88 4.56 20.79 4.56 28.68 0L659 547.09c3.6-2.08 5.53-4.76 5.84-7.5v9.6a7.12 7.12 0 0 1 0 1.46v.06c-.31 2.73-2.25 5.41-5.84 7.49l-79.15 45.48c-7.89 4.55-20.8 4.55-28.68 0L472 558.2c-4-2.31-6-5.38-5.9-8.44v-11c.01 3.05 1.98 6.05 5.9 8.33z"/><path fill="url(#v)" d="M295 321.39l-79.14-45.48c-7.89-4.56-20.8-4.56-28.68 0l-79.15 45.47c-7.89 4.56-7.89 12 0 16.56l74.11 42.59v6.31h19.37a29.3 29.3 0 0 0 14.34-3.42L295 338c7.92-4.61 7.92-12.06 0-16.61z" style="mix-blend-mode:multiply"/><path fill="#f6fbf6" d="M196.52 372.31c-7.89 4.55-20.8 4.55-28.68 0l-79.15-45.48c-7.88-4.55-7.88-12 0-16.56l79.15-45.47c7.89-4.55 20.79-4.55 28.68 0l79.15 45.47c7.88 4.56 7.88 12 0 16.57z" class="colorf6f6fb svgShape"/><path fill="url(#w)" d="M88.69 326.83l79.15 45.48c7.88 4.55 20.79 4.55 28.68 0l79.15-45.47c3.6-2.08 5.54-4.77 5.85-7.5v9.59a7.22 7.22 0 0 1 0 1.47v.06c-.32 2.73-2.26 5.41-5.85 7.49l-79.15 45.47c-7.89 4.56-20.8 4.56-28.68 0L88.69 338c-4-2.32-6-5.39-5.9-8.44v-11c-.01 2.99 1.96 5.99 5.9 8.27z"/><path fill="url(#x)" d="M590.6 416l-152.81-87.8c-15.23-8.79-40.15-8.79-55.37 0L229.6 416c-15.23 8.79-15.23 23.18 0 32l143.09 82.22v12.18h37.41c10 0 20.07-2.2 27.68-6.59L590.6 448c15.23-8.82 15.23-23.22 0-32z" style="mix-blend-mode:multiply"/><path fill="#f6fbf6" d="M400.4 514.32c-15.23 8.79-40.15 8.79-55.38 0l-152.81-87.81c-15.23-8.8-15.23-23.18 0-32L345 306.74c15.22-8.79 40.14-8.79 55.37 0l152.81 87.8c15.23 8.79 15.23 23.18 0 32z" class="colorf6f6fb svgShape"/><path fill="url(#y)" d="M192.21 426.51L345 514.32c15.23 8.79 40.15 8.79 55.38 0l152.82-87.8c6.95-4 10.69-9.2 11.28-14.49v18.54a12.09 12.09 0 0 1 0 2.82v.12c-.6 5.27-4.34 10.45-11.28 14.46l-152.8 87.8c-15.23 8.79-40.15 8.79-55.38 0L192.21 448c-7.75-4.47-11.53-10.39-11.4-16.29v-21.19c-.02 5.8 3.79 11.59 11.4 15.99z"/><path fill="#dff4df" d="M282.5 499.79l-46.78-27v-10.98l46.78 27.01v10.97z" class="colordfe4f4 svgShape"/><path fill="#f6fbf6" d="M282.5 488.82l-46.78-26.88 9.05-5.23 46.78 26.88-9.05 5.23z" class="colorf6f6fb svgShape"/><path fill="#dff4df" d="M273.44 515.48l-46.77-27.01v-10.45l46.77 27v10.46z" class="colordfe4f4 svgShape"/><path fill="#bbe6bb" d="M291.55 505.02l-18.11 10.46v-10.46l9.06-5.23v-10.97l9.05-5.23v21.43z" class="colorbbc0e6 svgShape"/><path fill="#f6fbf6" d="M273.44 505.02l-46.77-27 9.05-5.23 46.78 27-9.06 5.23z" class="colorf6f6fb svgShape"/><path style="mix-blend-mode:multiply" fill="url(#z)" d="M291.56 505.02l-18.12 10.46h18.12l9.05-5.23-9.05-5.23z"/><path style="mix-blend-mode:multiply" fill="url(#A)" d="M291.55 483.59l9.06 14.03v12.63l-9.05-5.23-.01-21.43z"/><path fill="#67c9e9" d="M406.57 336.79c-9.35-5.39-21.6-8.09-33.86-8.09s-24.51 2.7-33.86 8.09-14 12.48-14 19.56 4.68 14.15 14 19.55 21.6 8.09 33.86 8.09 24.51-2.69 33.86-8.09 14-12.48 14-19.55-4.64-14.16-14-19.56zm-33.86 43.62a65.93 65.93 0 0 1-21.95-3.61 52.71 52.71 0 0 1 43.91 0 66 66 0 0 1-21.96 3.61z" class="color6b67e9 svgShape"/><path fill="url(#B)" d="M414.39 356.35c0-6.16-4.07-12.32-12.21-17s-18.8-7.05-29.47-7.05-21.33 2.35-29.47 7.05-12.24 10.84-12.24 17 4.07 12.31 12.21 17a46.49 46.49 0 0 0 7.52 3.44 52.71 52.71 0 0 1 43.91 0 46.38 46.38 0 0 0 7.51-3.44c8.17-4.69 12.24-10.85 12.24-17z"/><path fill="url(#C)" d="M406.57 375.9c-9.35 5.4-21.6 8.09-33.86 8.09s-24.51-2.69-33.86-8.09c-6-3.45-10-7.57-12.18-11.94h-.1l13.31 31.52c1.37 3.45 4.37 6.72 9 9.41 6.58 3.79 15.2 5.69 23.82 5.69s17.24-1.9 23.82-5.69c4.65-2.69 7.64-6 9-9.41l13.31-31.52h-.1c-2.14 4.37-6.19 8.49-12.16 11.94z"/><path fill="#3eff3e" d="M422.14 273.41c-13.65-7.88-31.54-11.82-49.43-11.82s-35.78 3.94-49.43 11.82S302.8 291.62 302.8 302s6.83 20.66 20.48 28.54 31.54 11.82 49.43 11.82 35.78-3.94 49.43-11.82 20.48-18.21 20.48-28.54-6.83-20.71-20.48-28.59zm-3.57 55c-12.67 7.31-29.26 11-45.86 11s-33.19-3.65-45.86-11l-1.38-.85c2.36-4.12 6.37-8 12-11.28 9.72-5.61 22.45-8.42 35.19-8.42s25.47 2.81 35.19 8.42c5.69 3.28 9.69 7.16 12.05 11.29z" class="colorffd03e svgShape"/><path fill="url(#D)" d="M437.56 302c0-9.58-6.33-19.16-19-26.47s-29.26-11-45.86-11-33.19 3.66-45.86 11-19 16.89-19 26.47c0 9.22 5.88 18.44 17.61 25.63 2.36-4.12 6.37-8 12-11.28 9.72-5.61 22.45-8.42 35.19-8.42s25.47 2.81 35.19 8.42c5.69 3.28 9.69 7.16 12.05 11.29 11.8-7.25 17.68-16.47 17.68-25.64z"/><path fill="url(#f)" d="M422.14 330.49c-13.65 7.88-31.54 11.82-49.43 11.82s-35.78-3.94-49.43-11.82c-9.1-5.25-15.14-11.59-18.18-18.29l13.29 31.8c2.3 5.63 7.24 11 14.85 15.36 10.9 6.29 25.18 9.44 39.47 9.44s28.57-3.15 39.47-9.44c7.61-4.36 12.55-9.69 14.82-15.36l13.3-31.84c-3.02 6.74-9.06 13.08-18.16 18.33z"/><path fill="#7ddcfb" d="M438.12 209.47c-18.06-10.43-41.74-15.65-65.41-15.65s-47.34 5.18-65.41 15.64-27.09 24.1-27.09 37.77 9 27.33 27.09 37.76 41.74 15.64 65.41 15.64 47.35-5.21 65.41-15.64 27.09-24.09 27.09-37.76-9.03-27.34-27.09-37.76zm-4.49 72.93c-16.82 9.71-38.87 14.6-60.92 14.6s-44.1-4.86-60.92-14.57a71.93 71.93 0 0 1-9.53-6.55c2.21-8.37 8.88-16.42 20-22.86 13.92-8 32.17-12.06 50.41-12.06s36.49 4 50.41 12.06c11.16 6.44 17.83 14.49 20.05 22.86a71.12 71.12 0 0 1-9.5 6.52z" class="color807dfb svgShape"/><path fill="url(#E)" d="M458.87 247.23c0-12.73-8.41-25.46-25.24-35.18s-38.87-14.56-60.92-14.56-44.1 4.85-60.92 14.56-25.24 22.45-25.24 35.18c0 10 5.25 20.06 15.71 28.62 2.21-8.37 8.88-16.42 20-22.86 13.92-8 32.17-12.06 50.41-12.06s36.49 4 50.41 12.06c11.16 6.44 17.83 14.49 20.05 22.86 10.49-8.56 15.74-18.59 15.74-28.62z"/><path fill="url(#F)" d="M438.12 285c-18.06 10.43-41.74 15.64-65.41 15.64s-47.34-5.22-65.41-15.64c-11.95-6.9-19.93-15.23-24-24l13.14 31.33c3.21 7.93 10.16 15.47 20.87 21.65 15.3 8.83 35.34 13.25 55.39 13.25s40.1-4.42 55.39-13.25c10.72-6.18 17.66-13.72 20.87-21.65L462.1 261c-4.05 8.76-12.03 17.09-23.98 24z"/><path fill="url(#G)" d="M453.49 241.62c-22.31 12.88-51.54 19.32-80.78 19.32s-58.47-6.44-80.77-19.32c-15.08-8.7-25.05-19.23-29.94-30.35l13 29.67c4.15 10.11 13 19.69 26.69 27.58 19.61 11.32 45.31 17 71 17s51.4-5.66 71-17c13.65-7.88 22.54-17.47 26.69-27.58l13-29.67c-4.85 11.12-14.82 21.65-29.89 30.35z"/><path fill="url(#H)" d="M479.64 195.85c0-15.8-10.44-31.6-31.32-43.66s-48.24-18.08-75.61-18.08-54.73 6-75.61 18.08-31.32 27.86-31.32 43.66c0 11.13 5.19 22.26 15.56 32.08.93-12.75 9.82-25.35 26.69-35.09 17.86-10.31 41.27-15.47 64.68-15.47s46.82 5.16 64.68 15.47c16.87 9.74 25.76 22.34 26.69 35.1 10.37-9.83 15.56-20.94 15.56-32.09z"/><path fill="#f1f6f1" d="M453.49 148.35C431.18 135.47 402 129 372.71 129s-58.47 6.44-80.78 19.32-33.45 29.79-33.45 46.68 11.15 33.75 33.46 46.63 51.54 19.32 80.77 19.32 58.47-6.44 80.78-19.32S487 211.87 487 195s-11.21-33.77-33.51-46.65zM447.27 238c-20.59 11.89-47.57 17.83-74.56 17.83s-54-5.94-74.56-17.83-30.88-27.46-30.88-43 10.29-31.16 30.88-43.05 47.58-17.83 74.56-17.83 54 5.94 74.56 17.83 30.88 27.47 30.88 43.05-10.29 31.15-30.88 43z" class="colorf1f1f6 svgShape"/><path fill="url(#c)" d="M266.08 398.09c-5.44-3.14-12.67-4.58-19.78-4.37h-11.14v1.82a30.09 30.09 0 0 0-5.89 2.55c-10.13 5.89-10.07 15.44.12 21.33a30 30 0 0 0 5.77 2.5v1.91h13.36c6.43-.11 12.8-1.57 17.68-4.41 10.14-5.89 10.08-15.42-.12-21.33z" style="mix-blend-mode:multiply"/><path fill="url(#I)" d="M419.46 441.23c-5.44-3.14-12.67-4.59-19.78-4.38h-11.14v1.83a29.5 29.5 0 0 0-5.89 2.55c-10.13 5.89-10.07 15.43.12 21.32a30 30 0 0 0 5.77 2.5V467h13.36c6.43-.11 12.79-1.57 17.68-4.4 10.13-5.94 10.08-15.48-.12-21.37z" style="mix-blend-mode:multiply"/><path fill="#50ff50" d="M363.16 445c0-3.77 2.49-7.54 7.47-10.41s11.5-4.31 18-4.31 13 1.43 18 4.31 7.47 6.64 7.47 10.41-2.49 7.53-7.47 10.4-11.5 4.31-18 4.31-13.05-1.43-18-4.31-7.46-6.66-7.47-10.4z" class="colorffe950 svgShape"/><path fill="url(#d)" d="M406.68 455.38c-5 2.88-11.5 4.31-18 4.31s-13.05-1.43-18-4.31-7.46-6.64-7.47-10.4v7.26c0 3.77 2.49 7.53 7.47 10.41s11.51 4.31 18 4.31 13-1.43 18-4.31 7.47-6.64 7.47-10.41V445c0 3.74-2.49 7.51-7.47 10.38z"/><path fill="#3eff3e" d="M374 453.43a32.37 32.37 0 0 0 29.28 0c3.73-2.16 5.73-4.93 6-7.74-.29-2.82-2.29-5.6-6-7.75a32.37 32.37 0 0 0-29.28 0c-3.73 2.15-5.74 4.93-6 7.74.28 2.82 2.29 5.59 6 7.75z" class="colorffd03e svgShape"/><path fill="url(#e)" d="M374 437.94a32.37 32.37 0 0 1 29.28 0c3.73 2.15 5.73 4.93 6 7.75a5.74 5.74 0 0 0 0-.71c0-3.06-2-6.12-6.06-8.46a32.37 32.37 0 0 0-29.28 0c-4 2.34-6.07 5.4-6.07 8.46v.7c.41-2.81 2.42-5.59 6.13-7.74z"/><path fill="#00e100" d="M398.86 441.94l1.96-1.13v-1.42l-1.96 1.13v1.42z" class="colore19100 svgShape"/><path fill="#50ff50" d="M389.83 444.3a1.66 1.66 0 0 1 0-3.15 6 6 0 0 1 5.46 0c1.51.87 1.51 2.28 0 3.15l2.48 1.43c2.45-1.41 2.81-3.57 1.09-5.21l2-1.13-2.52-1.39-2 1.13a11.67 11.67 0 0 0-9 .63 3.17 3.17 0 0 0 0 6c1.51.88 1.51 2.29 0 3.16a6.06 6.06 0 0 1-5.47 0c-1.5-.87-1.5-2.28 0-3.16l-2.47-1.43c-2.45 1.42-2.81 3.58-1.09 5.22l-1.81 1L379 452l1.81-1.05a11.75 11.75 0 0 0 9-.62c2.89-1.66 2.89-4.33.02-6.03z" class="colorffe950 svgShape"/><path fill="#05fb05" d="M376.5 451.98l2.48 1.43V452l-2.48-1.44v1.42z" class="colorfbba05 svgShape"/><path fill="#00e100" d="M378.98 453.41l1.81-1.04v-1.42l-1.81 1.05v1.41z" class="colore19100 svgShape"/><path fill="#05fb05" d="M395.29 445.72l2.48 1.43v-1.42l-2.48-1.43v1.42z" class="colorfbba05 svgShape"/><path fill="#00e100" d="M381.87 447.15v-1.42c-1.06.62-1.37 1.52-.92 2.29a2.43 2.43 0 0 1 .92-.87z" class="colore19100 svgShape"/><path fill="#05fb05" d="M377.24 447.24v1.6a2.69 2.69 0 0 0 .31 1.12l.75-.43a3 3 0 0 1-1.06-2.27zm10.1-.09a2.39 2.39 0 0 1 .93.87c.45-.77.14-1.67-.93-2.29a3.66 3.66 0 0 1-2.16-3v1.42a3.66 3.66 0 0 0 2.16 3zm4.66.16z" class="colorfbba05 svgShape"/><path fill="#00e100" d="M399.92 442.72a3.64 3.64 0 0 1-2.15 3v1.42a3.58 3.58 0 0 0 2.15-3.09v-1.34z" class="colore19100 svgShape"/><path fill="url(#J)" d="M389.83 450.33a11.75 11.75 0 0 1-9 .62v1.42a11.71 11.71 0 0 0 9-.63 3.67 3.67 0 0 0 2.15-3v-1.44a3.67 3.67 0 0 1-2.15 3.03z"/><path fill="#00e100" d="M395.29 441.15a6 6 0 0 0-5.46 0 1.91 1.91 0 0 0-1.14 1.57 1.39 1.39 0 0 0 .2.71 2.5 2.5 0 0 1 .94-.87 6 6 0 0 1 5.46 0 2.39 2.39 0 0 1 .93.87c.45-.77.14-1.67-.93-2.28z" class="colore19100 svgShape"/><path fill="url(#K)" d="M483.45 367.83c-5.45-3.15-12.68-4.59-19.78-4.38h-11.14v1.83a28.79 28.79 0 0 0-5.9 2.55c-10.12 5.89-10.06 15.43.13 21.32a29.73 29.73 0 0 0 5.77 2.5v1.91h13.36c6.42-.11 12.79-1.57 17.68-4.41 10.13-5.89 10.08-15.43-.12-21.32z" style="mix-blend-mode:multiply"/><path fill="#50ff50" d="M427.15 371.57c0-3.76 2.49-7.53 7.47-10.4s11.5-4.32 18-4.32 13.05 1.44 18 4.32 7.47 6.64 7.47 10.4-2.49 7.54-7.47 10.41-11.5 4.31-18 4.31-13-1.43-18-4.31-7.47-6.64-7.47-10.41z" class="colorffe950 svgShape"/><path fill="url(#L)" d="M470.67 382c-5 2.88-11.5 4.31-18 4.31s-13-1.43-18-4.31-7.47-6.64-7.47-10.41v7.27c0 3.77 2.49 7.53 7.47 10.41s11.5 4.31 18 4.31 13.05-1.44 18-4.31 7.47-6.64 7.47-10.41v-7.27c0 3.75-2.49 7.52-7.47 10.41z"/><path fill="#3eff3e" d="M438 380a32.37 32.37 0 0 0 29.28 0c3.73-2.16 5.74-4.93 6-7.75-.29-2.82-2.3-5.59-6-7.74a32.37 32.37 0 0 0-29.28 0c-3.73 2.15-5.73 4.92-6 7.74.27 2.85 2.27 5.62 6 7.75z" class="colorffd03e svgShape"/><path fill="url(#M)" d="M438 364.54a32.37 32.37 0 0 1 29.28 0c3.73 2.15 5.74 4.92 6 7.74v-.71c0-3.06-2-6.11-6.07-8.45a32.37 32.37 0 0 0-29.28 0c-4 2.34-6.06 5.39-6.06 8.45a5.63 5.63 0 0 0 0 .71c.4-2.82 2.4-5.59 6.13-7.74z"/><path fill="#00e100" d="M462.84 368.53l1.96-1.13v-1.41l-1.96 1.13v1.41z" class="colore19100 svgShape"/><path fill="#50ff50" d="M453.81 370.9a1.91 1.91 0 0 1-1.13-1.58 1.94 1.94 0 0 1 1.13-1.58 6.06 6.06 0 0 1 5.47 0c1.51.87 1.51 2.29 0 3.16l2.48 1.43c2.45-1.41 2.8-3.58 1.08-5.21l2-1.13-2.48-1.44-2 1.14a11.69 11.69 0 0 0-9 .62 3.18 3.18 0 0 0 0 6c1.51.87 1.51 2.29 0 3.16a6.06 6.06 0 0 1-5.47 0c-1.51-.87-1.51-2.29 0-3.16l-2.48-1.43c-2.45 1.41-2.8 3.58-1.09 5.22l-1.8 1 2.48 1.43 1.81-1a11.69 11.69 0 0 0 9-.63c2.88-1.64 2.88-4.34 0-6z" class="colorffe950 svgShape"/><path fill="#05fb05" d="M440.49 378.58l2.48 1.43v-1.42l-2.48-1.43v1.42z" class="colorfbba05 svgShape"/><path fill="#00e100" d="M442.97 380.01l1.81-1.04v-1.42l-1.81 1.04v1.42z" class="colore19100 svgShape"/><path fill="#05fb05" d="M459.28 372.32l2.48 1.43v-1.42l-2.48-1.43v1.42z" class="colorfbba05 svgShape"/><path fill="#00e100" d="M445.86 373.75v-1.42c-1.07.62-1.38 1.51-.93 2.29a2.46 2.46 0 0 1 .93-.87z" class="colore19100 svgShape"/><path fill="#05fb05" d="M441.23 373.84v1.6a2.85 2.85 0 0 0 .31 1.12l.75-.43a3.06 3.06 0 0 1-1.06-2.28zm10.1-.09a2.46 2.46 0 0 1 .93.87c.44-.78.14-1.67-.93-2.29a3.64 3.64 0 0 1-2.16-3v1.42a3.65 3.65 0 0 0 2.16 3zm4.67.15z" class="colorfbba05 svgShape"/><path fill="#00e100" d="M463.91 369.32a3.65 3.65 0 0 1-2.15 3v1.42a3.57 3.57 0 0 0 2.14-3.09v-1.34z" class="colore19100 svgShape"/><path fill="url(#N)" d="M453.81 376.92a11.69 11.69 0 0 1-9 .63V379a11.73 11.73 0 0 0 9-.63 3.65 3.65 0 0 0 2.15-3v-1.44a3.66 3.66 0 0 1-2.15 2.99z"/><path fill="#00e100" d="M459.28 367.74a6.06 6.06 0 0 0-5.47 0 1.94 1.94 0 0 0-1.13 1.58 1.41 1.41 0 0 0 .2.71 2.54 2.54 0 0 1 .93-.87 6.06 6.06 0 0 1 5.47 0 2.46 2.46 0 0 1 .93.87c.44-.78.14-1.67-.93-2.29z" class="colore19100 svgShape"/><path fill="url(#O)" d="M451.92 450.74a23.63 23.63 0 0 0-15.08-4.37h-8.5v1.82a20.44 20.44 0 0 0-4.49 2.55c-7.72 5.89-7.68 15.44.1 21.33a20.2 20.2 0 0 0 4.39 2.5v1.9h10.19a23.14 23.14 0 0 0 13.48-4.4c7.72-5.89 7.69-15.44-.09-21.33z" style="mix-blend-mode:multiply"/><path fill="url(#P)" d="M441.59 444.28a25 25 0 0 0-9.56-6c-5.9-2.05-12.34-1.92-17.08.83a11.73 11.73 0 0 0-5.09 5.65l-2.23 5.4a11.73 11.73 0 0 1 5.09-5.65 18.58 18.58 0 0 1 10.79-2.16 25.49 25.49 0 0 1 15.85 7.29c4.8 4.88 6.19 10.77 4.26 15.44l2.23-5.4c1.93-4.63.54-10.52-4.26-15.4z"/><path fill="#3eff3e" d="M441 445.72c7.11 7.23 6.74 16.69-.84 21.09s-19.52 2.1-26.63-5.13-6.74-16.69.83-21.09 19.52-2.1 26.64 5.13z" class="colorffd03e svgShape"/><path fill="url(#Q)" d="M450 461.44q-1.12 2.7-2.23 5.4a14.52 14.52 0 0 1-6.29 7c-9.33 5.42-24 2.6-32.78-6.31-5.91-6-7.63-13.25-5.26-19q1.13-2.7 2.23-5.4c-2.37 5.74-.65 13 5.27 19 8.76 8.9 23.44 11.73 32.78 6.31a14.55 14.55 0 0 0 6.28-7z"/><path fill="#50ff50" d="M444.76 442.44c8.77 8.91 8.31 20.53-1 26s-24 2.59-32.78-6.31-8.31-20.54 1-26 24.02-2.6 32.78 6.31zm-30.64 17.8c7.12 7.23 19.07 9.53 26.64 5.13s7.94-13.86.83-21.09-19.07-9.53-26.64-5.13-7.95 13.85-.83 21.09z" class="colorffe950 svgShape"/><path fill="#05fb05" d="M417 456.82l1-.61a4.86 4.86 0 0 1-.63-4.29l-.59 1.41a4.54 4.54 0 0 0 .22 3.49zm9-2.38a3 3 0 0 1 1 2.17c.9-.93.79-2.43-.38-3.61a5.82 5.82 0 0 1-1.86-4.24 4.16 4.16 0 0 1 .34-1.5l-.56 1.37a4.31 4.31 0 0 0-.38 1.57 5.83 5.83 0 0 0 1.84 4.24z" class="colorfbba05 svgShape"/><path fill="#00e100" d="M421.49 452a2.16 2.16 0 0 0-1.13 1.87 2.62 2.62 0 0 1 .54-.43zm16.1-3.61a6.77 6.77 0 0 1 .44.84l.85-.49.59-1.44z" class="colore19100 svgShape"/><path fill="#05fb05" d="M434.08 452.59l-.6 1.44 2.24 2.28.6-1.44-2.24-2.28z" class="colorfbba05 svgShape"/><path fill="#00e100" d="M436.32 454.87l-.6 1.44a4.27 4.27 0 0 0 1.83-2l.59-1.42a4.25 4.25 0 0 1-1.82 1.98z" class="colore19100 svgShape"/><path fill="#50ff50" d="M439.47 447.3l-1.88 1.09c1.52 2.41 1.07 5.11-1.27 6.48l-2.24-2.28c1.45-.84 1.52-2.65.15-4a4.47 4.47 0 0 0-5.09-1 2.16 2.16 0 0 0-1.14 1.82 3 3 0 0 0 1 2.22c2.59 2.64 2.45 6.09-.31 7.7-2.35 1.37-5.86 1-8.45-.82l-1.74 1-2.24-2.27 1.74-1c-1.52-2.4-1.08-5.1 1.27-6.47l2.24 2.27c-1.45.85-1.52 2.66-.16 4a4.47 4.47 0 0 0 5.1 1c1.45-.84 1.52-2.65.16-4a5.82 5.82 0 0 1-1.86-4.24 4.11 4.11 0 0 1 2.17-3.46c2.35-1.37 5.85-1 8.45.82l1.88-1.09z" class="colorffe950 svgShape"/><path fill="#05fb05" d="M416.24 457.23l-.6 1.43 2.24 2.28.6-1.44-2.24-2.27z" class="colorfbba05 svgShape"/><path fill="#00e100" d="M418.48 459.5l-.6 1.44 1.74-1.01.6-1.44-1.74 1.01z" class="colore19100 svgShape"/><path fill="url(#R)" d="M430.16 457.93a4.7 4.7 0 0 1-.34.44 4.59 4.59 0 0 1-1.14.93c-2.35 1.37-5.86 1-8.45-.82l-.6 1.44c2.6 1.78 6.1 2.18 8.46.82a4.27 4.27 0 0 0 1.75-1.86l.61-1.47a3.53 3.53 0 0 1-.29.52z"/><path fill="#00e100" d="M434.63 452.16c.89-.93.77-2.42-.4-3.6a4.47 4.47 0 0 0-5.09-1 2.16 2.16 0 0 0-1.14 1.82v.05a2.32 2.32 0 0 1 .54-.43 4.48 4.48 0 0 1 5.1 1 3.08 3.08 0 0 1 1 2.09z" class="colore19100 svgShape"/><path fill="url(#S)" d="M344.42 372.62c-5.42-3.12-12.62-4.57-19.69-4.36H267v1.82a29.05 29.05 0 0 0-5.87 2.54c-10.08 5.86-10 15.37.13 21.23a30.05 30.05 0 0 0 5.74 2.49v1.89h59.9c6.39-.1 12.73-1.55 17.6-4.38 10.12-5.85 10.07-15.37-.08-21.23z" style="mix-blend-mode:multiply"/><path fill="#50ff50" d="M241.78 340.19c0-3.75 2.47-7.5 7.43-10.36s11.45-4.29 17.94-4.29 13 1.43 18 4.29 7.43 6.61 7.43 10.36-2.48 7.5-7.43 10.36-11.45 4.29-17.94 4.29-13-1.43-18-4.29-7.43-6.61-7.43-10.36z" class="colorffe950 svgShape"/><path fill="url(#T)" d="M285.1 350.55c-5 2.86-11.45 4.29-17.94 4.29s-13-1.43-18-4.29-7.43-6.61-7.43-10.36v7.23c0 3.75 2.47 7.5 7.43 10.36s11.45 4.29 18 4.29 13-1.43 17.94-4.29 7.43-6.61 7.43-10.36v-7.23c0 3.75-2.48 7.5-7.43 10.36z"/><path fill="url(#g)" d="M285.1 357.78c-5 2.86-11.45 4.29-17.94 4.29s-13-1.43-18-4.29-7.43-6.61-7.43-10.36v7.23c0 3.75 2.47 7.5 7.43 10.36s11.45 4.3 18 4.3 13-1.44 17.94-4.3 7.43-6.61 7.43-10.36v-7.23c0 3.75-2.48 7.5-7.43 10.36z"/><path fill="url(#U)" d="M285.1 365c-5 2.87-11.45 4.3-17.94 4.3s-13-1.43-18-4.3-7.43-6.61-7.43-10.36v7.24c0 3.75 2.47 7.49 7.43 10.36s11.45 4.29 18 4.29 13-1.43 17.94-4.29 7.43-6.61 7.43-10.37v-7.23c0 3.76-2.48 7.51-7.43 10.36z"/><path fill="url(#V)" d="M285.1 372.25c-5 2.86-11.45 4.29-17.94 4.29s-13-1.43-18-4.29-7.43-6.61-7.43-10.36v7.23c0 3.75 2.47 7.5 7.43 10.36s11.45 4.29 18 4.29 13-1.43 17.94-4.29 7.43-6.61 7.43-10.36v-7.23c0 3.75-2.48 7.49-7.43 10.36z"/><path fill="url(#W)" d="M285.1 379.48c-5 2.86-11.45 4.29-17.94 4.29s-13-1.43-18-4.29-7.43-6.61-7.43-10.36v7.23c0 3.75 2.47 7.5 7.43 10.36s11.45 4.29 18 4.29 13-1.43 17.94-4.29 7.43-6.61 7.43-10.36v-7.23c0 3.75-2.48 7.5-7.43 10.36z"/><path fill="url(#X)" d="M285.1 386.71c-5 2.86-11.45 4.29-17.94 4.29s-13-1.43-18-4.29-7.43-6.61-7.43-10.36v7.23c0 3.75 2.47 7.5 7.43 10.36s11.45 4.29 18 4.29 13-1.42 17.94-4.29 7.43-6.61 7.43-10.36v-7.23c0 3.75-2.48 7.5-7.43 10.36z"/><path fill="#3eff3e" d="M252.58 348.6a32.16 32.16 0 0 0 29.14 0c3.72-2.14 5.71-4.9 6-7.71-.29-2.8-2.28-5.56-6-7.7a32.16 32.16 0 0 0-29.14 0c-3.71 2.14-5.71 4.9-6 7.7.29 2.81 2.29 5.57 6 7.71z" class="colorffd03e svgShape"/><path fill="url(#h)" d="M252.58 333.19a32.16 32.16 0 0 1 29.14 0c3.72 2.14 5.71 4.9 6 7.7a5.48 5.48 0 0 0 0-.7c0-3.05-2-6.09-6-8.42a32.24 32.24 0 0 0-29.14 0c-4 2.33-6 5.37-6 8.42a5.49 5.49 0 0 0 .05.7c.24-2.8 2.24-5.56 5.95-7.7z"/><path fill="#00e100" d="M277.31 337.16l1.95-1.12v-1.41l-1.95 1.12v1.41z" class="colore19100 svgShape"/><path fill="#50ff50" d="M268.31 339.52a1.66 1.66 0 0 1 0-3.14 6 6 0 0 1 5.45 0c1.5.86 1.5 2.27 0 3.14l2.47 1.42c2.43-1.4 2.79-3.56 1.08-5.19l1.95-1.12-2.47-1.43-2 1.13a11.67 11.67 0 0 0-9 .62 3.16 3.16 0 0 0 0 6c1.5.87 1.5 2.28 0 3.15a6.08 6.08 0 0 1-5.45 0c-1.5-.87-1.5-2.28 0-3.15l-2.47-1.42c-2.43 1.41-2.79 3.56-1.08 5.19l-1.8 1 2.47 1.43 1.8-1a11.72 11.72 0 0 0 9-.62c2.92-1.67 2.92-4.36.05-6.01z" class="colorffe950 svgShape"/><path fill="#06fc06" d="M255.05 347.16l2.47 1.42v-1.4l-2.47-1.43v1.41z" class="colorfcba06 svgShape"/><path fill="#00e100" d="M257.52 348.58l1.8-1.03v-1.41l-1.8 1.04v1.4z" class="colore19100 svgShape"/><path fill="#06fc06" d="M273.76 340.93l2.47 1.43v-1.42l-2.47-1.42v1.41z" class="colorfcba06 svgShape"/><path fill="#00e100" d="M260.4 342.36v-1.42c-1.06.62-1.37 1.51-.92 2.28a2.34 2.34 0 0 1 .92-.86z" class="colore19100 svgShape"/><path fill="#06fc06" d="M255.79 342.44V344a2.79 2.79 0 0 0 .3 1.11l.75-.43a3.09 3.09 0 0 1-1.06-2.26zm10.06-.09a2.43 2.43 0 0 1 .92.87c.44-.77.14-1.66-.92-2.28a3.65 3.65 0 0 1-2.16-3v1.41a3.65 3.65 0 0 0 2.16 3z" class="colorfcba06 svgShape"/><path fill="#00e100" d="M278.36 338a3.59 3.59 0 0 1-2.13 3v1.42a3.58 3.58 0 0 0 2.13-3.09V338z" class="colore19100 svgShape"/><path fill="url(#Y)" d="M268.31 345.52a11.72 11.72 0 0 1-9 .62v1.41a11.67 11.67 0 0 0 9-.63 3.66 3.66 0 0 0 2.15-3v-1.43a3.67 3.67 0 0 1-2.15 3.03z"/><path fill="#00e100" d="M273.76 336.38a6 6 0 0 0-5.45 0 1.92 1.92 0 0 0-1.12 1.57 1.38 1.38 0 0 0 .2.7 2.49 2.49 0 0 1 .92-.86 6 6 0 0 1 5.45 0 2.41 2.41 0 0 1 .92.86c.45-.77.14-1.65-.92-2.27z" class="colore19100 svgShape"/><path fill="url(#Z)" d="M545.42 392c-5.42-3.13-12.62-4.57-19.69-4.36h-33.27v1.81a29.08 29.08 0 0 0-5.87 2.55c-10.08 5.86-10 15.36.12 21.22a29.53 29.53 0 0 0 5.75 2.49v1.9h35.48c6.39-.11 12.73-1.56 17.6-4.39 10.08-5.89 10.03-15.39-.12-21.22z" style="mix-blend-mode:multiply"/><path fill="#50ff50" d="M467.19 374c0-3.75 2.48-7.5 7.44-10.36s11.45-4.3 17.94-4.3 13 1.44 17.94 4.3S518 370.25 518 374s-2.48 7.5-7.44 10.36-11.44 4.29-17.94 4.29-13-1.43-17.94-4.29-7.48-6.62-7.49-10.36z" class="colorffe950 svgShape"/><path fill="url(#aa)" d="M510.51 384.36c-4.95 2.86-11.44 4.29-17.94 4.29s-13-1.43-17.94-4.29-7.43-6.62-7.44-10.36v7.23c0 3.75 2.48 7.5 7.44 10.36s11.45 4.29 17.94 4.29 13-1.43 17.94-4.29S518 385 518 381.23V374c0 3.74-2.53 7.5-7.49 10.36z"/><path fill="url(#ab)" d="M510.51 391.59c-4.95 2.86-11.44 4.29-17.94 4.29s-13-1.43-17.94-4.29-7.43-6.61-7.44-10.36v7.23c0 3.75 2.48 7.5 7.44 10.36s11.45 4.29 17.94 4.29 13-1.43 17.94-4.29 7.44-6.61 7.44-10.36v-7.23c.05 3.77-2.48 7.5-7.44 10.36z"/><path fill="url(#ac)" d="M510.51 398.82c-4.95 2.86-11.44 4.29-17.94 4.29s-13-1.43-17.94-4.29-7.43-6.61-7.44-10.36v7.23c0 3.75 2.48 7.5 7.44 10.36s11.45 4.3 17.94 4.3 13-1.43 17.94-4.3 7.44-6.61 7.44-10.36v-7.23c.05 3.75-2.48 7.54-7.44 10.36z"/><path fill="url(#ad)" d="M510.51 406.05c-4.95 2.87-11.44 4.3-17.94 4.3s-13-1.43-17.94-4.3-7.43-6.61-7.44-10.36v7.24c0 3.75 2.48 7.49 7.44 10.36s11.45 4.29 17.94 4.29 13-1.43 17.94-4.29 7.44-6.61 7.44-10.36v-7.24c.05 3.75-2.48 7.5-7.44 10.36z"/><path fill="#3eff3e" d="M478 382.41a32.24 32.24 0 0 0 29.14 0c3.72-2.14 5.71-4.9 6-7.71-.29-2.8-2.28-5.56-6-7.71A32.24 32.24 0 0 0 478 367c-3.72 2.15-5.71 4.9-6 7.71.29 2.8 2.28 5.55 6 7.7z" class="colorffd03e svgShape"/><path fill="url(#ae)" d="M478 367a32.24 32.24 0 0 1 29.14 0c3.72 2.15 5.71 4.91 6 7.71v-.7c0-3.05-2-6.09-6-8.42a32.24 32.24 0 0 0-29.14 0c-4 2.33-6 5.37-6 8.42v.7c.29-2.82 2.28-5.57 6-7.71z"/><path fill="#00e100" d="M502.72 370.97l1.95-1.13v-1.4l-1.95 1.12v1.41z" class="colore19100 svgShape"/><path fill="#50ff50" d="M493.73 373.32a1.91 1.91 0 0 1-1.13-1.57 1.93 1.93 0 0 1 1.13-1.57 6.06 6.06 0 0 1 5.44 0c1.51.87 1.51 2.28 0 3.14l2.48 1.43c2.43-1.4 2.79-3.56 1.07-5.19l1.95-1.12-2.47-1.44-1.95 1.13a11.63 11.63 0 0 0-9 .62 3.16 3.16 0 0 0 0 6c1.5.87 1.51 2.28 0 3.14a6 6 0 0 1-5.44 0c-1.5-.86-1.5-2.27 0-3.14l-2.47-1.43c-2.44 1.41-2.79 3.57-1.08 5.2l-1.8 1 2.47 1.42 1.8-1a11.63 11.63 0 0 0 9-.62c2.86-1.65 2.86-4.32 0-6z" class="colorffe950 svgShape"/><path fill="#06fc06" d="M480.47 380.97l2.47 1.42v-1.41l-2.47-1.42v1.41z" class="colorfcba06 svgShape"/><path fill="#00e100" d="M482.94 382.39l1.8-1.04v-1.41l-1.8 1.04v1.41z" class="colore19100 svgShape"/><path fill="#06fc06" d="M499.17 374.74l2.47 1.42v-1.41l-2.47-1.43v1.42z" class="colorfcba06 svgShape"/><path fill="#00e100" d="M485.82 376.16v-1.41c-1.07.62-1.37 1.51-.92 2.28a2.43 2.43 0 0 1 .92-.87z" class="colore19100 svgShape"/><path fill="#06fc06" d="M481.21 376.25v1.59a2.67 2.67 0 0 0 .3 1.11l.75-.43a3 3 0 0 1-1.06-2.26zm10.05-.09a2.39 2.39 0 0 1 .93.87c.44-.77.14-1.66-.93-2.28a3.63 3.63 0 0 1-2.15-3v1.42a3.63 3.63 0 0 0 2.15 2.99z" class="colorfcba06 svgShape"/><path fill="#00e100" d="M503.78 371.75a3.63 3.63 0 0 1-2.13 3v1.41a3.58 3.58 0 0 0 2.13-3.08v-1.34z" class="colore19100 svgShape"/><path fill="url(#af)" d="M493.73 379.32a11.63 11.63 0 0 1-9 .62v1.41a11.63 11.63 0 0 0 9-.62 3.68 3.68 0 0 0 2.15-3v-1.43a3.66 3.66 0 0 1-2.15 3.02z"/><path fill="#00e100" d="M499.17 370.18a6.06 6.06 0 0 0-5.44 0 1.93 1.93 0 0 0-1.13 1.57 1.49 1.49 0 0 0 .2.71 2.52 2.52 0 0 1 .93-.86 6 6 0 0 1 5.44 0 2.39 2.39 0 0 1 .93.87c.45-.78.14-1.67-.93-2.29z" class="colore19100 svgShape"/><path fill="url(#ag)" d="M325.54 400.33c-5.47-3.16-12.72-4.61-19.85-4.39h-13.34v1.83a29.46 29.46 0 0 0-5.91 2.56c-10.17 5.91-10.11 15.49.12 21.4a30.57 30.57 0 0 0 5.79 2.51v1.91h15.57c6.44-.11 12.83-1.57 17.74-4.42 10.16-5.91 10.11-15.49-.12-21.4z" style="mix-blend-mode:multiply"/><path fill="#50ff50" d="M266.77 389.5c0-3.77 2.49-7.56 7.49-10.44s11.54-4.33 18.09-4.33 13.1 1.45 18.09 4.33 7.49 6.66 7.49 10.44-2.49 7.56-7.49 10.45-11.54 4.32-18.09 4.32-13.09-1.44-18.09-4.32-7.49-6.67-7.49-10.45z" class="colorffe950 svgShape"/><path fill="url(#ah)" d="M310.44 400c-5 2.88-11.54 4.32-18.09 4.32s-13.09-1.44-18.09-4.32-7.49-6.67-7.49-10.45v7.3c0 3.78 2.5 7.56 7.49 10.44s11.55 4.33 18.09 4.33 13.1-1.44 18.09-4.33 7.5-6.66 7.49-10.44v-7.3c.01 3.73-2.49 7.51-7.49 10.45z"/><path fill="url(#ai)" d="M310.44 414.53c-5 2.89-11.54 4.33-18.09 4.33s-13.09-1.44-18.09-4.33-7.49-6.66-7.49-10.44v7.29c0 3.78 2.5 7.56 7.49 10.45s11.55 4.32 18.09 4.32 13.1-1.44 18.09-4.32 7.5-6.67 7.49-10.45v-7.29c.01 3.78-2.49 7.56-7.49 10.44z"/><path fill="url(#aj)" d="M310.44 407.24c-5 2.89-11.54 4.33-18.09 4.33s-13.09-1.44-18.09-4.33-7.49-6.66-7.49-10.44v7.29c0 3.78 2.5 7.56 7.49 10.44s11.55 4.33 18.09 4.33 13.1-1.44 18.09-4.33 7.5-6.66 7.49-10.44v-7.29c.01 3.78-2.49 7.56-7.49 10.44z"/><path fill="#3eff3e" d="M277.66 398a32.5 32.5 0 0 0 29.34 0c3.75-2.16 5.76-4.95 6-7.77-.29-2.83-2.3-5.61-6-7.78a32.5 32.5 0 0 0-29.38 0c-3.74 2.17-5.75 4.94-6.05 7.77.34 2.78 2.35 5.6 6.09 7.78z" class="colorffd03e svgShape"/><path fill="url(#ak)" d="M277.66 382.44a32.5 32.5 0 0 1 29.38 0c3.75 2.17 5.76 4.95 6 7.78v-.72c0-3.07-2-6.14-6.09-8.48a32.5 32.5 0 0 0-29.38 0c-4.06 2.34-6.09 5.41-6.09 8.48v.71c.43-2.83 2.44-5.6 6.18-7.77z"/><path fill="#00e100" d="M302.58 386.45l1.97-1.13v-1.42l-1.97 1.13v1.42z" class="colore19100 svgShape"/><path fill="#50ff50" d="M293.52 388.83a1.68 1.68 0 0 1 0-3.17 6.1 6.1 0 0 1 5.49 0c1.51.87 1.51 2.3 0 3.17l2.49 1.43c2.46-1.41 2.81-3.59 1.09-5.23l2-1.13-2.49-1.44-2 1.14a11.74 11.74 0 0 0-9.07.63 3.18 3.18 0 0 0 0 6c1.51.88 1.52 2.3 0 3.17a6 6 0 0 1-5.49 0c-1.51-.87-1.51-2.29 0-3.17l-2.48-1.43c-2.46 1.42-2.82 3.59-1.1 5.23l-1.81 1.05 2.49 1.44 1.82-1.05a11.72 11.72 0 0 0 9.06-.63c2.89-1.64 2.89-4.34 0-6.01z" class="colorffe950 svgShape"/><path fill="#06fc06" d="M280.15 396.53l2.49 1.44v-1.42l-2.49-1.44v1.42z" class="colorfcba06 svgShape"/><path fill="#00e100" d="M282.64 397.97l1.82-1.05v-1.42l-1.82 1.05v1.42z" class="colore19100 svgShape"/><path fill="#06fc06" d="M299.01 390.25l2.49 1.44v-1.43l-2.49-1.43v1.42z" class="colorfcba06 svgShape"/><path fill="#00e100" d="M285.54 391.69v-1.43c-1.07.63-1.38 1.52-.93 2.3a2.54 2.54 0 0 1 .93-.87z" class="colore19100 svgShape"/><path fill="#06fc06" d="M280.89 391.78v1.6a2.73 2.73 0 0 0 .31 1.12l.75-.44a3 3 0 0 1-1.06-2.28zm10.11-.09a2.39 2.39 0 0 1 .93.87c.45-.78.14-1.67-.93-2.3a3.65 3.65 0 0 1-2.17-3v1.43a3.68 3.68 0 0 0 2.17 3z" class="colorfcba06 svgShape"/><path fill="#00e100" d="M303.65 387.24a3.63 3.63 0 0 1-2.15 3v1.43c1.48-.86 2.19-2 2.15-3.1v-1.35z" class="colore19100 svgShape"/><path fill="url(#al)" d="M293.52 394.87a11.72 11.72 0 0 1-9.06.63v1.42a11.72 11.72 0 0 0 9.06-.63 3.68 3.68 0 0 0 2.16-3v-1.44a3.7 3.7 0 0 1-2.16 3.02z"/><path fill="#00e100" d="M299 385.66a6.1 6.1 0 0 0-5.49 0 1.93 1.93 0 0 0-1.13 1.58 1.45 1.45 0 0 0 .2.72 2.39 2.39 0 0 1 .93-.87 6.07 6.07 0 0 1 5.49 0 2.41 2.41 0 0 1 .93.88c.46-.79.15-1.69-.93-2.31z" class="colore19100 svgShape"/><path fill="#50ff50" d="M209.79 401.84c0-3.77 2.48-7.53 7.46-10.41s11.5-4.31 18-4.31 13.05 1.44 18 4.31 7.47 6.64 7.47 10.41-2.49 7.54-7.47 10.41-11.5 4.31-18 4.31-13.05-1.44-18-4.31-7.46-6.64-7.46-10.41z" class="colorffe950 svgShape"/><path fill="url(#am)" d="M253.3 412.25c-5 2.87-11.5 4.31-18 4.31s-13.05-1.44-18-4.31-7.46-6.64-7.46-10.41v7.27c0 3.76 2.48 7.53 7.46 10.4s11.51 4.32 18 4.32 13.05-1.44 18-4.31 7.47-6.65 7.47-10.41v-7.27c0 3.77-2.49 7.54-7.47 10.41z"/><path fill="#3eff3e" d="M220.64 410.29a32.29 32.29 0 0 0 29.28 0c3.73-2.15 5.73-4.92 6-7.74-.29-2.82-2.29-5.59-6-7.74a32.37 32.37 0 0 0-29.28 0c-3.73 2.15-5.74 4.92-6 7.74.26 2.82 2.27 5.59 6 7.74z" class="colorffd03e svgShape"/><path fill="url(#an)" d="M220.64 394.81a32.37 32.37 0 0 1 29.28 0c3.73 2.15 5.73 4.92 6 7.74a5.63 5.63 0 0 0 0-.71c0-3.06-2-6.12-6.06-8.45a32.37 32.37 0 0 0-29.28 0c-4 2.33-6.07 5.39-6.06 8.45v.71c.38-2.82 2.39-5.55 6.12-7.74z"/><path fill="#00e100" d="M245.48 398.8l1.96-1.13v-1.42l-1.96 1.13v1.42z" class="colore19100 svgShape"/><path fill="#50ff50" d="M236.45 401.17a1.66 1.66 0 0 1 0-3.16 6 6 0 0 1 5.46 0c1.51.87 1.51 2.29 0 3.16l2.48 1.43c2.45-1.41 2.81-3.58 1.09-5.22l2-1.13-2.48-1.43-2 1.18a11.76 11.76 0 0 0-9 .63 3.18 3.18 0 0 0 0 6c1.51.87 1.51 2.29 0 3.16a6 6 0 0 1-5.46 0c-1.51-.87-1.51-2.29 0-3.16l-2.54-1.46c-2.45 1.41-2.81 3.58-1.09 5.21l-1.81 1.05 2.49 1.43 1.8-1a11.76 11.76 0 0 0 9-.63c2.93-1.7 2.93-4.4.06-6.06z" class="colorffe950 svgShape"/><path fill="#05fb05" d="M223.12 408.84l2.48 1.44v-1.42l-2.48-1.43v1.41z" class="colorfbba05 svgShape"/><path fill="#00e100" d="M225.6 410.28l1.81-1.05v-1.41l-1.81 1.04v1.42z" class="colore19100 svgShape"/><path fill="#05fb05" d="M241.91 402.58l2.49 1.44v-1.42l-2.49-1.43v1.41z" class="colorfbba05 svgShape"/><path fill="#00e100" d="M228.5 404v-1.4c-1.07.62-1.38 1.51-.93 2.29a2.39 2.39 0 0 1 .93-.89z" class="colore19100 svgShape"/><path fill="#05fb05" d="M223.86 404.11v1.59a2.73 2.73 0 0 0 .31 1.12l.75-.44a3 3 0 0 1-1.06-2.27zM234 404a2.39 2.39 0 0 1 .93.87c.45-.78.14-1.67-.93-2.29a3.66 3.66 0 0 1-2.16-3V401a3.69 3.69 0 0 0 2.16 3zm4.6.17z" class="colorfbba05 svgShape"/><path fill="#00e100" d="M246.54 399.59a3.63 3.63 0 0 1-2.15 3V404a3.6 3.6 0 0 0 2.15-3.1v-1.34z" class="colore19100 svgShape"/><path fill="url(#ao)" d="M236.45 407.19a11.76 11.76 0 0 1-9 .63v1.41a11.71 11.71 0 0 0 9-.62 3.7 3.7 0 0 0 2.15-3v-1.43a3.67 3.67 0 0 1-2.15 3.01z"/><path fill="#00e100" d="M241.91 398a6 6 0 0 0-5.46 0 1.93 1.93 0 0 0-1.14 1.58 1.44 1.44 0 0 0 .2.71 2.5 2.5 0 0 1 .94-.87 6 6 0 0 1 5.46 0 2.39 2.39 0 0 1 .93.87c.45-.77.16-1.66-.93-2.29z" class="colore19100 svgShape"/><path fill="url(#ap)" d="M186.92 323.41l12-6.94a10 10 0 0 0-3.53-3.21c-6-3.45-15.67-3.45-21.64 0l-32.87 19h30.73z" style="mix-blend-mode:multiply"/><path fill="url(#aq)" d="M243.3 303.35c-11.73-6.76-29-8.39-43.36-4.9a48.26 48.26 0 0 1 12.62 4.9c15.46 8.93 15.46 23.39 0 32.32L195 345.81l-15.3 8.83h30.74l15.3-8.83 17.57-10.14c15.44-8.93 15.44-23.39-.01-32.32z" style="mix-blend-mode:multiply"/><path fill="#fff" d="M212.56 286.42c-15.45-8.92-40.51-8.92-56 0L139 296.57l17.17 9.91 17.57-10.15c6-3.45 15.66-3.45 21.64 0s6 9.05 0 12.5L177.83 319l17.17 9.88 17.57-10.14c15.43-8.93 15.43-23.39-.01-32.32z" class="colorffffff svgShape"/><path fill="#3eff3e" d="M140.89 315.31l-17.16-9.91 15.3-8.83 17.16 9.91-15.3 8.83z" class="colorffd03e svgShape"/><path fill="#06fc06" d="M140.89 332.24l-17.16-9.91V305.4l17.16 9.91v16.93z" class="colorfcba06 svgShape"/><path fill="#00dc00" d="M156.19 323.41l-15.3 8.83v-16.93l15.3-8.83v16.93z" class="colordc8b00 svgShape"/><path fill="#bbe6bb" d="M224.15 302.48c0 5.87-3.82 11.76-11.59 16.25L195 328.88 177.83 319v16.9l17.17 9.91 17.57-10.14c7.8-4.51 11.66-10.42 11.59-16.32s0-17.09-.01-16.87z" class="colorbbc0e6 svgShape"/><path fill="url(#ar)" d="M195.4 296.33c-6-3.45-15.67-3.45-21.64 0l-17.57 10.15v16.93l17.57-10.15c4.62-2.67 11.45-3.26 17.08-1.8l4.56-2.63c5.97-3.45 5.97-9.05 0-12.5z"/><path fill="#7ddcfb" d="M179.69 337.71l-17.16-9.91 15.3-8.83 17.16 9.91-15.3 8.83z" class="color807dfb svgShape"/><path fill="#52aecc" d="M179.69 354.64l-17.16-9.91V327.8l17.16 9.91v16.93z" class="color5652cc svgShape"/><path fill="#3e93af" d="M194.99 345.81l-15.3 8.83v-16.93l15.3-8.83v16.93z" class="color423eaf svgShape"/><path fill="url(#i)" d="M613.92 513.46c-9.39-5.42-22.16-7.69-34.39-6.81 8.82.64 17.35 2.9 24.12 6.81 16.16 9.33 16.16 24.45 0 33.78-6.77 3.91-15.3 6.17-24.12 6.81 12.22.87 25-1.39 34.39-6.81 16.15-9.33 16.15-24.45 0-33.78z" style="mix-blend-mode:multiply"/><path fill="url(#as)" d="M558 513.46c6.77-3.91 15.31-6.17 24.13-6.81-12.23-.88-25 1.39-34.39 6.81-16.16 9.33-16.16 24.45 0 33.78 9.39 5.42 22.16 7.68 34.38 6.81-8.81-.64-17.35-2.9-24.12-6.81-16.18-9.33-16.18-24.45 0-33.78z" style="mix-blend-mode:multiply"/><path fill="#99a399" d="M547.27 547.45c16.24 9.37 42.56 9.37 58.8 0s16.24-24.57 0-34-42.56-9.37-58.8 0-16.27 24.62 0 34zm4.85-31.15c13.56-7.82 35.54-7.82 49.1 0s13.56 20.52 0 28.35-35.54 7.83-49.1 0-13.56-20.52 0-28.35z" class="colora399a3 svgShape"/><path fill="#31768d" d="M601.22 506.75c-13.56-7.83-35.54-7.83-49.1 0-8.9 5.14-12 12.37-9.17 19 1.45-3.44 4.51-6.71 9.17-9.4 13.56-7.82 35.54-7.82 49.1 0 4.66 2.69 7.71 6 9.17 9.4 2.78-6.63-.27-13.86-9.17-19z" class="color34318d svgShape"/><path fill="#6c6" d="M552.05 509.73c13.55-7.83 35.53-7.83 49.09 0s13.55 20.52 0 28.34-35.54 7.83-49.09 0-13.56-20.51 0-28.34z" style="mix-blend-mode:screen" class="color686a6d svgShape"/><path fill="#99a399" d="M555.69 511.13a12.13 12.13 0 0 1 11-.47c3.11 1.61 3.23 4.45.27 6.33a12.13 12.13 0 0 1-11 .47c-3.1-1.61-3.22-4.46-.27-6.33zm14.89-3.45a5 5 0 0 1 4.54-.19 1.39 1.39 0 0 1 .11 2.62 5 5 0 0 1-4.54.2c-1.29-.67-1.34-1.85-.11-2.63z" style="mix-blend-mode:screen" class="colora399a3 svgShape"/><path fill="#f5faf5" d="M552.05 511.15c13.55-7.83 35.53-7.83 49.09 0 6.46 3.73 9.84 8.57 10.14 13.46.32-5.36-3-10.79-10.14-14.88-13.56-7.83-35.54-7.83-49.09 0-7.09 4.09-10.47 9.52-10.14 14.88.3-4.89 3.67-9.73 10.14-13.46z" class="colorf5f5fa svgShape"/><path fill="#7ddcfb" d="M547.27 537.9c16.24 9.37 42.56 9.37 58.8 0s16.24-24.57 0-33.95-42.56-9.37-58.8 0-16.27 24.57 0 33.95zm4.85-31.15c13.56-7.83 35.54-7.83 49.1 0s13.56 20.52 0 28.35-35.54 7.83-49.1 0-13.56-20.52 0-28.35z" class="color807dfb svgShape"/><path fill="url(#at)" d="M606.07 537.9c-16.24 9.37-42.56 9.37-58.8 0-8-4.63-12.06-10.67-12.17-16.74v9.08c-.1 6.22 3.95 12.46 12.17 17.21 16.24 9.37 42.56 9.37 58.8 0 8.22-4.75 12.27-11 12.16-17.21v-9c-.12 6.01-4.17 12.04-12.16 16.66z"/><path fill="#f5faf5" d="M547.27 539.18c-1-.6-2-1.21-2.88-1.84l-7 4 6.06 3.5 7-4c-1.09-.52-2.16-1.07-3.18-1.66z" class="colorf5f5fa svgShape"/><path fill="#cef4ce" d="M543.46 551.87l7-4.04v-7l-7 4.04v7z" class="colorced2f4 svgShape"/><path fill="url(#j)" d="M546.09 549.89a12.52 12.52 0 0 0-5.66-9.81c-1.62-.94-3.09-1-4.12-.31L496 563l7.7 14 40.3-23.25c1.28-.46 2.09-1.82 2.09-3.86z"/><path fill="url(#au)" d="M540.9 555.55l-2 1.14a4.18 4.18 0 0 0 1.38-3.47 12.52 12.52 0 0 0-5.66-9.81c-1.63-.93-3.09-1-4.12-.31l2.67-1.54c1-.67 2.5-.62 4.12.32a12.5 12.5 0 0 1 5.67 9.81c.04 2.04-.8 3.39-2.06 3.86z" style="mix-blend-mode:multiply"/><path fill="url(#av)" d="M504.64 576.49a8 8 0 1 1-8.36-13.6 4.05 4.05 0 0 1 3.84.47 12.5 12.5 0 0 1 5.66 9.81 4.28 4.28 0 0 1-1.28 3.4z"/><path d="M503.71 577.03h-.01.01z" class="color000000 svgShape"/><path style="mix-blend-mode:multiply" fill="url(#k)" d="M244.23 498.7H229.6l-1.75 5.25h25.48l-9.1-5.25z"/><path style="mix-blend-mode:multiply" fill="url(#aw)" d="M264.83 489.6h-8.9l-1.76 5.25 19.72-.02-9.06-5.23z"/><path fill="#a9fca9" d="M225.18 454.3c.7 1.2 1.91 2.45 2.2 3.23a7.62 7.62 0 0 1 .37 2.25c0 .4-.31 1.59-.81 1.39s-.69.31-1.19.21-.32-.28-.32-.28c-.27.09-.63.1-.73-.11-.22.08-.32.31-.7-.14s-.39-1-.63-1.4c-.75-1.18-.43-4.63-.58-5s1.91-.99 2.39-.15z" class="colorfcd1a9 svgShape"/><path fill="url(#ax)" d="M231.88 426.19c-9.94 6.34-11.09 18.87-9.38 29.1 1.17 1.7 3.68.87 3.39-.71-1.02-11.66.83-22.58 5.99-28.39z"/><path fill="url(#l)" d="M224.4 502.17c0-4.55 2.87-4.68 2.87-4.68a12 12 0 0 0 4.1-1.05c2.49-1 6-.64 4 3l-.07.13a1.82 1.82 0 0 1-.64.56l-6.29 3.69c-.91.55-3.95-.72-3.97-1.65z"/><path fill="#113a47" d="M224.41 501.76c.06.93 3.06 2.17 4 1.63l6.29-3.69a6 6 0 0 0 .89-.64l-.18.38-.07.13a1.82 1.82 0 0 1-.64.56l-6.29 3.69c-.89.51-3.62-.57-4-1.47a.74.74 0 0 1 0-.19c-.01-.16 0-.27 0-.4z" class="color131147 svgShape"/><path fill="#fff" d="M225.57 496.89a26.16 26.16 0 0 1 3.35.67 1.35 1.35 0 0 0 .23.67.36.36 0 0 1 .07.1c.52.35 1 .92-.18 1.68a1.7 1.7 0 0 1-2.2-.15 2 2 0 0 0-.71-.81 1.76 1.76 0 0 0-.68-.28v-.07s-.19-1.81.12-1.81z" class="colorffffff svgShape"/><path fill="#195a6f" d="M225.52 452.49l12.79.23c-1.06 8.55-3.18 16.31-4.61 24.59-1.52 8-3.24 13.69-4.74 20.39-.55 1.25-3.07.78-3.58-.42-.4-6.17-.85-13.68 1-20.79-.33-7.67-1.04-16.26-.86-24z" class="color20196f svgShape"/><path fill="url(#ay)" d="M250.69 493.07c0-4.54 2.88-4.67 2.88-4.67a11.79 11.79 0 0 0 4.09-1.06c2.5-1 6-.63 4 3l-.07.13a1.73 1.73 0 0 1-.64.56l-6.28 3.69c-.91.55-3.96-.72-3.98-1.65z"/><path fill="#113a47" d="M250.71 492.66c0 .93 3.06 2.17 4 1.63l6.29-3.69a5.51 5.51 0 0 0 .89-.65c-.06.13-.11.25-.18.39l-.07.13a1.73 1.73 0 0 1-.64.56l-6.28 3.69c-.9.51-3.63-.56-4-1.47a1.81 1.81 0 0 1 0-.19 2.67 2.67 0 0 1-.01-.4z" class="color131147 svgShape"/><path fill="#fff" d="M251.86 487.8a26.5 26.5 0 0 1 3.35.66 1.54 1.54 0 0 0 .23.68l.08.08c.51.36 1 .93-.19 1.7a1.71 1.71 0 0 1-2.2-.16 2 2 0 0 0-.7-.81 1.84 1.84 0 0 0-.69-.28.11.11 0 0 0 0-.06s-.19-1.81.12-1.81z" class="colorffffff svgShape"/><path fill="url(#az)" d="M245.2 460.07c-2.81.41-17-6.24-19.81-5.83-.59 16.51 12.92 15.82 24.63 14.88h.1a67.9 67.9 0 0 0 1.56 19.59c.7 1.1 3.26 1.16 3.6-.16.39-6.85 2.1-12.71 2.29-20.9.06-8.42-5.89-7.39-12.37-7.58z"/><path fill="url(#aA)" d="M231.42 462.43c6.09 3.42 12.47 3.43 14.64-.78-.81-7.83-1.57-14.2 0-21.7-.47-4.14-.8-4.77-.26-7.18-.19-.81-2.68-2.54-4.5-4.2s-3.29-3.49-4.3-3.7c-8.33-1.7-12.38 13.15-11.68 29a11.51 11.51 0 0 0 6.1 8.56z"/><path fill="#a9fca9" d="M232.38 425.81c1.81-1.3 2.57-4.52 2.84-6.3a8.83 8.83 0 0 1 .4-3.09c1.17-3.78 4.6-6.3 7.49-5.17 5.81 2.26 3.78 5.06 2.6 8.84-1.09 3.5-3.43 5.41-6.21 5a3 3 0 0 0 .81 2.55c-2 1.22-5 .64-6.18.11s-2.6-1.06-1.75-1.94z" class="colorfcd1a9 svgShape"/><path fill="#2e7b94" d="M246 409.94c0-.51-.87-1-4.29-.59l-.88.13c-6.38 1.11-6.58 8.12-6.14 10.1a3.68 3.68 0 0 1 0 2.2c2.29.46 2.7 1.91 4.46 1a29.39 29.39 0 0 0 3.46-1.75A1.75 1.75 0 0 0 243 420c.77-3.19 1.78-.89 1.56-.17.67-.14.94-1.44 1.24-2.88 5.79-2.53 3.76-5.68.2-7.01z" class="color362e94 svgShape"/><path fill="#a9fca9" d="M253.4 455.72c1.41.85 2.24 0 3 .41s.45.91.85 1.1a1.84 1.84 0 0 1 1.27 1.63 2.69 2.69 0 0 1-2.06 3c-.76.19-1.05.64-2.84-.88-.73-.62-.28-1.37-1.85-2.35a15.49 15.49 0 0 0 1.63-2.91z" class="colorfcd1a9 svgShape"/><path fill="url(#aB)" d="M242.48 431.41c2-.41 3 .34 3.32 1.36.23 2 1.55 14.33 1.59 15.18 1.75 2.15 3.54 4.6 6.44 7.68 1.65 1.74-.36 4.55-2.07 3.57-.75-.42-7.4-5.6-8.88-7.82-2.67-3.11-3.66-11.86-3.84-14-.42-3.06 1.44-5.57 3.44-5.97z"/><path fill="#f7fcf7" d="M143.48 468.74c1.44-.83 1.44-2.2 0-3l-39.66-22.9a5.8 5.8 0 0 0-5.26 0l-18.1 10.45c-1.44.83-1.44 2.2 0 3l39.67 22.9a5.78 5.78 0 0 0 5.25 0z" class="colorf7f7fc svgShape"/><path fill="#d0f6d0" d="M87.11 455zm15.69-5.73l-1.69-.98 1.69-.98 1.7.98-1.7.98zm2.86 1.65l-1.7-.98 1.7-.98 1.7.98-1.7.98zm2.86 1.65l-1.7-.98 1.7-.98 1.69.98-1.69.98zm2.85 1.65l-1.69-.98 1.69-.98 1.7.98-1.7.98zm2.86 1.65l-1.7-.98 1.7-.98 1.7.98-1.7.98zm2.86 1.65l-1.7-.98 1.7-.98 1.69.98-1.69.98zm2.85 1.65l-1.69-.98 1.69-.98 1.7.98-1.7.98zm2.86 1.65l-1.69-.98 1.69-.98 1.7.98-1.7.98zm2.86 1.65l-1.7-.98 1.7-.98 1.69.98-1.69.98zm2.85 1.65l-1.69-.98 1.69-.98 1.7.98-1.7.98zm2.86 1.64l-1.69-.97 1.69-.98 1.7.98-1.7.97zm2.86 1.65l-1.7-.98 1.7-.98 1.7.98-1.7.98zM101.3 451.7l-3.05-1.76 1.69-.98 3.06 1.76-1.7.98zm-1.58 2.25l-4.21-2.43 1.7-.98 4.21 2.43-1.7.98zm-1.7 2.32l-5.37-3.1 1.7-.98 5.37 3.1-1.7.98zm-5.77.66l-3.05-1.76 2.29-1.33 3.05 1.76-2.29 1.33zm4.21 2.43l-3.05-1.76 2.29-1.33 3.05 1.76-2.29 1.33zm4.21 2.43l-3.05-1.76 2.29-1.33 3.05 1.76-2.29 1.33zm14.51 8.38l-3.05-1.76 2.3-1.33 3.05 1.76-2.3 1.33zm7.14 4.12l-5.98-3.45 2.29-1.33 5.99 3.45-2.3 1.33zm-11.34-6.55l-9.15-5.28 2.29-1.33 9.16 5.29-2.3 1.32zm-6.03-13.93l-2.49-1.44 1.7-.98 2.49 1.44-1.7.98zm-1.57 2.25l-2.5-1.44 1.7-.98 2.49 1.44-1.69.98zm-1.62 2.28l-2.5-1.44 1.7-.98 2.49 1.44-1.69.98zm3.66 2.11l-2.5-1.44 1.7-.98 2.49 1.44-1.69.98zm3.65 2.11l-2.49-1.44 1.69-.98 2.5 1.44-1.7.98zm3.66 2.11l-2.5-1.44 1.7-.98 2.49 1.44-1.69.98zm3.66 2.11l-2.5-1.44 1.69-.98 2.5 1.44-1.69.98zm3.65 2.11l-2.49-1.44 1.69-.98 2.5 1.44-1.7.98zm5.82 3.36l-4.66-2.69 1.7-.98 4.65 2.69-1.69.98zm-18.83-14.08l-2.49-1.44 1.69-.98 2.5 1.44-1.7.98zm3.66 2.12l-2.5-1.45 1.7-.98 2.5 1.45-1.7.98zm3.66 2.11l-2.5-1.45 1.7-.97 2.49 1.44-1.69.98zm3.65 2.11l-2.49-1.44 1.69-.98 2.5 1.44-1.7.98zm3.66 2.11l-2.5-1.44 1.7-.98 2.5 1.44-1.7.98zm6.97 4.02l-5.81-3.35 1.7-.98 5.81 3.36-1.7.97zm-20.02-14.72l-2.5-1.44 1.7-.98 2.5 1.44-1.7.98zm3.66 2.11l-2.5-1.44 1.7-.98 2.49 1.44-1.69.98zm3.65 2.11l-2.49-1.44 1.7-.98 2.49 1.45-1.7.97zm3.66 2.12l-2.5-1.45 1.7-.98 2.5 1.45-1.7.98zm3.66 2.11l-2.5-1.44 1.7-.98 2.49 1.44-1.69.98zm3.65 2.11l-2.49-1.44 1.69-.98 2.5 1.44-1.7.98zm4.48 2.58l-3.32-1.91 1.7-.98 3.32 1.91-1.7.98z" class="colord0d4f6 svgShape"/><path fill="url(#aC)" d="M80.46 456.29l39.67 22.9a5.78 5.78 0 0 0 5.25 0l18.1-10.45a1.82 1.82 0 0 0 1.08-1.51v1.15a1.83 1.83 0 0 1-1.08 1.52l-18.1 10.45a5.85 5.85 0 0 1-5.25 0l-39.67-22.9a1.85 1.85 0 0 1-1.08-1.55v-1.13a1.85 1.85 0 0 0 1.08 1.52z"/><path fill="url(#aD)" d="M146.11 429.67a5.87 5.87 0 0 0-2.63-4.56l-39.67-22.9c-1.44-.83-2.62-.15-2.62 1.52v34.53a5.84 5.84 0 0 0 2.62 4.55l39.67 22.9c1.44.83 2.63.15 2.63-1.52z"/><path fill="url(#aE)" d="M146.11 464.19v-34.52a5.87 5.87 0 0 0-2.63-4.56l-39.67-22.9A1.85 1.85 0 0 0 102 402l1.37-.79a1.82 1.82 0 0 1 1.91.15l39.66 22.9a5.81 5.81 0 0 1 2.63 4.55v34.53a1.79 1.79 0 0 1-.84 1.73l-1.31.76a1.89 1.89 0 0 0 .69-1.64z"/><path fill="url(#m)" d="M104 507.21c0-4.06 2.57-4.18 2.57-4.18a10.61 10.61 0 0 0 3.66-.94c2.23-.93 5.38-.57 3.62 2.68a.34.34 0 0 1-.06.12 1.52 1.52 0 0 1-.57.5l-5.62 3.3c-.89.49-3.6-.64-3.6-1.48z"/><path fill="#1c586b" d="M104 506.85c0 .84 2.74 2 3.59 1.46l5.62-3.3a4.94 4.94 0 0 0 .8-.57c-.06.11-.1.22-.17.34a.34.34 0 0 1-.06.12 1.52 1.52 0 0 1-.57.5l-5.62 3.3c-.8.46-3.25-.51-3.57-1.32a1.15 1.15 0 0 1 0-.16c-.02-.14-.02-.22-.02-.37z" class="color1e1c6b svgShape"/><path fill="#a7faa7" d="M105 502.5a23.5 23.5 0 0 1 3 .59 1.34 1.34 0 0 0 .21.6l.06.08c.46.32.93.83-.16 1.51a1.51 1.51 0 0 1-2-.14 1.8 1.8 0 0 0-.63-.72 1.64 1.64 0 0 0-.61-.25.35.35 0 0 0 0-.06s.13-.98.13-1.61z" class="colorfacfa7 svgShape"/><path fill="url(#n)" d="M104.2 487c-.32 4.3.7 16.26.7 16.26 0 .21.26.42.53.58a2.48 2.48 0 0 0 2.22 0 .85.85 0 0 0 .43-.5s3.12-18.53 2.19-23.27a1.32 1.32 0 0 0-.13-.6c.02 2.13-3.85 5.43-5.94 7.53z"/><path fill="url(#aF)" d="M96 501.75c0-4.06 2.57-4.18 2.57-4.18a10.61 10.61 0 0 0 3.66-.94c2.24-.93 5.39-.57 3.62 2.68a.61.61 0 0 1 0 .12 1.65 1.65 0 0 1-.58.5l-5.62 3.3c-.93.49-3.65-.64-3.65-1.48z"/><path fill="#1c586b" d="M96 501.39c.05.84 2.74 1.95 3.59 1.47l5.62-3.3a5.87 5.87 0 0 0 .8-.58c-.06.11-.1.22-.17.34a.61.61 0 0 1 0 .12 1.65 1.65 0 0 1-.58.5l-5.62 3.3c-.8.46-3.24-.51-3.57-1.32a1.15 1.15 0 0 1 0-.16c-.07-.14-.07-.25-.07-.37z" class="color1e1c6b svgShape"/><path fill="#a7faa7" d="M97 497a23.64 23.64 0 0 1 3 .59 1.34 1.34 0 0 0 .21.6l.06.08c.46.32.92.83-.17 1.52a1.53 1.53 0 0 1-2-.14 1.82 1.82 0 0 0-1.24-1 .35.35 0 0 0 0-.06S96.75 497 97 497z" class="colorfacfa7 svgShape"/><path fill="#195a6f" d="M102.51 477.19c-.51 1.73-4.38 3.92-5.05 4.34-.42 4.88-.55 16.27-.55 16.27 0 .21.26.41.53.57a2.42 2.42 0 0 0 2.22 0 .87.87 0 0 0 .44-.5s2.54-16.01 2.41-20.68z" class="color20196f svgShape"/><path style="mix-blend-mode:multiply" fill="url(#aG)" d="M107.93 499.65H77.25l30.09 17.38-30.09 17.38h30.68l30.09-17.38-30.09-17.38z"/><path fill="#cef8ce" d="M77.25 534.41l-30.1-17.38v-22.49l30.1 17.38v22.49z" class="colorced3f8 svgShape"/><path fill="#bbe6bb" d="M77.25 534.41l30.09-17.38v-22.48l-30.09 17.37v22.49z" class="colorbbc0e6 svgShape"/><path fill="#f1f6f1" d="M77.25 511.92l30.09-17.37-30.09-17.38-30.1 17.37 30.1 17.38z" class="colorf1f1f6 svgShape"/><path fill="url(#p)" d="M92 464.1c.61-.44 1.23-.92 1.9-1.44a1.06 1.06 0 0 0 .06-.39 1.28 1.28 0 0 1 .43-.12 3.48 3.48 0 0 0 1.25-.11 9 9 0 0 0 2.8-1.48c-.56-.5-1.17.05-1.59.28a2 2 0 0 1 .31-.4c.67-.68.82-.92 1.58-.92s1.33-.6.61-1a10.54 10.54 0 0 0-1.17-.59 2.92 2.92 0 0 0-2.29.16c-.33.23-2.4 1.5-2.8 2.32l-.46.24a1.54 1.54 0 0 0-.58-.1l-2.77 1.23c.04.94 2.72 2.32 2.72 2.32z" style="mix-blend-mode:multiply"/><path fill="#a9fca9" d="M99.22 457.69a10.54 10.54 0 0 0-1.17-.59 2.85 2.85 0 0 0-2.28.16c-.34.23-2.41 1.5-2.8 2.32l-1.08.56 1.11 1.74a5.84 5.84 0 0 1 1.24-.52 3.51 3.51 0 0 0 1.25-.1 9 9 0 0 0 2.8-1.48c-.56-.5-1.17.05-1.58.27a1.9 1.9 0 0 1 .3-.4c.67-.67.83-.91 1.58-.91s1.35-.6.63-1.05z" class="colorfcd1a9 svgShape"/><path fill="url(#o)" d="M93.77 461.88c.4-1.19-1-2.24-1.85-2.16-3.91 1.7-5.8 2.72-7.14 2.32-5.62-2.62-3.44 3.35-.11 3.65 3.9.31 5.99-1.4 9.1-3.81z"/><path fill="#195a6f" d="M102.51 477.19c-.13-4.54-21.69 2.08-24.13 2.56-1 4.44-2.24 7.53-3.29 11.31 4 1.34 15.67-4.34 22.37-9.53.67-.42 4.54-2.61 5.05-4.34z" class="color20196f svgShape"/><path fill="url(#aH)" d="M86.2 485.36c-2.38-3.81-8.63-8.09-15.86-4.5a30.94 30.94 0 0 0 .82 7.3c1.56 4.18 5 7.94 12.16 8.12 3.8.1 14.06-3.39 20.88-9.29 2.09-2.09 6-5.39 6-7.53-1.96-3.75-21.56 5.42-24 5.9z"/><path fill="url(#aI)" d="M76.36 489.32c6 3.38 13.68 2 10.85-4.82-1.53-3.27-1.74-9-1.62-12.37.56-1.28 2-1.71 2.8-5.08a41 41 0 0 0-.26-8.75c-2.17-2.56-3.18-3.74-5.61-4.7-1.46-.57-5.06-.65-6.45.21-2.95 6.17-4.1 16.61-5.73 27.05a11.36 11.36 0 0 0 6.02 8.46z"/><path fill="#a7faa7" d="M79.09 453.69c1-1 1.33-3.24 1.44-5a8.65 8.65 0 0 1 .11-3.07c.83-3.83 3.92-6.4 6.91-5.75s4.74 4.26 3.92 8.08a7.64 7.64 0 0 1-6.47 5.94c-.28.56.43 1.46.83 1.9-2.24.68-4.49-.64-5.63-1.2a2.41 2.41 0 0 1-1.11-.9z" class="colorfacfa7 svgShape"/><path fill="url(#aJ)" d="M112.2 463.24a10.61 10.61 0 0 0-1.16-.59 2.92 2.92 0 0 0-2.29.16c-.33.23-1.09.7-1.67 1.16.49-.49 1.08-.91.73-1.43a3.79 3.79 0 0 0-2.29 2.62l-.52.27a1.33 1.33 0 0 0-.39 0c-2.36 1-4.46 2-6 2.5l4.28 2.47c1.24-.89 2.44-1.91 3.61-2.81a1.19 1.19 0 0 0 .05-.32c2.23.15 2.83-1.36 3.5-2s.83-.92 1.58-.92 1.29-.66.57-1.11z" style="mix-blend-mode:multiply"/><path fill="#a9fca9" d="M104.61 464.8l.8-.42a3.82 3.82 0 0 1 2.29-2.62c.35.52-.24.94-.73 1.43.58-.47 1.34-.93 1.67-1.16a2.92 2.92 0 0 1 2.29-.16 10.61 10.61 0 0 1 1.16.59c.73.45.15 1.05-.6 1.05s-.91.24-1.59.92-1.27 2.17-3.5 2a1 1 0 0 0-.5.19z" class="colorfcd1a9 svgShape"/><path fill="url(#aK)" d="M106.35 466.77c.4-1.19-1-2.23-1.85-2.16-3.91 1.71-7.08 3.23-8.42 2.83-5.62-2.62-7.21-7.62-8.61-8.91-3.13-2.23-6.91 2.71-2.8 7.16 4.34 4.06 8.08 6 11.41 6.33 3.92.34 7.16-2.84 10.27-5.25z"/><path fill="#1c586b" d="M74 456.25c-.18-2 1.49-2.74 3.15-4.25 2.64-2.38 1.38-2 2.62-6.45s4.9-7.7 9.6-6.1c2.38.81 5.37 4.52 1.91 6-5.48 2.39-.59 4.88-2 7.27-.62 1.08-1.3.6-1.74 2s3.26 3.89.29 5.73-2.14 5.31-6.58 4.37-4.6-2.43-3.51-3.45-2.28-1.47-1-2.86-2.57-.51-2.74-2.26z" class="color1e1c6b svgShape"/><path fill="url(#aL)" d="M83.3 497H103l4.32-2.49-7.52-4.34c-7 3.94-13.12 6.17-16.5 6.08-6.17-.16-9.55-2.95-11.37-6.39-1.59 3.95 2.97 7.14 11.37 7.14z" style="mix-blend-mode:multiply"/><path fill="#00dc00" d="M111.91 436.35c.68-.12 1.14-.8 1.14-1.89a5.49 5.49 0 0 0-2.36-4.36c-1.31-.76-2.37 0-2.37 1.63a5.67 5.67 0 0 0 1.15 3.22 2.53 2.53 0 0 0-3.27 2.5l4.49 2.59 4.49 2.59c0-1.63-1.27-4.35-3.27-6.28z" style="mix-blend-mode:screen" class="colordc8b00 svgShape"/><path fill="#2e7b94" d="M124.05 443.37c.69-.13 1.15-.81 1.15-1.9a5.5 5.5 0 0 0-2.36-4.36c-1.31-.75-2.37 0-2.37 1.63a5.64 5.64 0 0 0 1.15 3.22 2.53 2.53 0 0 0-3.27 2.5l4.49 2.59 4.49 2.6c0-1.65-1.28-4.35-3.28-6.28zm12.15 7.01c.69-.13 1.15-.81 1.15-1.9a5.5 5.5 0 0 0-2.37-4.36c-1.3-.75-2.36 0-2.36 1.63a5.64 5.64 0 0 0 1.15 3.22 2.54 2.54 0 0 0-3.27 2.51c.34.19 4.47 2.57 4.48 2.59l4.49 2.59c.01-1.66-1.27-4.35-3.27-6.28zM111.91 420c.68-.13 1.14-.81 1.14-1.9a5.52 5.52 0 0 0-2.36-4.36c-1.31-.75-2.37 0-2.37 1.63a5.64 5.64 0 0 0 1.15 3.22 2.54 2.54 0 0 0-3.27 2.5l4.49 2.59 4.49 2.6c0-1.67-1.27-4.4-3.27-6.28z" style="mix-blend-mode:screen" class="color362e94 svgShape"/><path fill="#00dc00" d="M124.05 427c.69-.12 1.15-.8 1.15-1.89a5.49 5.49 0 0 0-2.36-4.36c-1.31-.76-2.37 0-2.37 1.63a5.67 5.67 0 0 0 1.15 3.22 2.53 2.53 0 0 0-3.27 2.5l4.49 2.59 4.49 2.59c0-1.66-1.28-4.38-3.28-6.28zm12.15 7c.69-.13 1.15-.81 1.15-1.9a5.5 5.5 0 0 0-2.37-4.36c-1.3-.75-2.36 0-2.36 1.63a5.64 5.64 0 0 0 1.15 3.22 2.53 2.53 0 0 0-3.27 2.5l4.48 2.59 4.49 2.6c.01-1.65-1.27-4.37-3.27-6.28z" style="mix-blend-mode:screen" class="colordc8b00 svgShape"/></g></svg>