<svg xmlns="http://www.w3.org/2000/svg" xmlns:xlink="http://www.w3.org/1999/xlink" viewBox="0 0 922.55 800"><defs><linearGradient id="a" x1="515.14" x2="515.14" y1="374.34" y2="94.46" gradientUnits="userSpaceOnUse"><stop class="stopColor000000 svgShape" offset=".11"/><stop class="stopColor2c2c2c svgShape" offset=".22" stop-color="#2c2c2c"/><stop class="stopColorc2c2c2 svgShape" offset=".6" stop-color="#c2c2c2"/><stop class="stopColorffffff svgShape" offset=".77" stop-color="#fff"/></linearGradient><linearGradient id="k" x1="378.1" x2="378.1" y1="650.88" y2="148.99" gradientUnits="userSpaceOnUse"><stop class="stopColor000000 svgShape" offset=".11"/><stop class="stopColor7f7f7f svgShape" offset=".37" stop-color="#6c6"/><stop class="stopColorffffff svgShape" offset=".63" stop-color="#fff"/></linearGradient><linearGradient id="l" x1="300.81" x2="300.81" y1="769.96" y2="291.16" gradientUnits="userSpaceOnUse"><stop class="stopColorffffff svgShape" offset=".11" stop-color="#fff"/><stop class="stopColord3d3d3 svgShape" offset=".14" stop-color="#d3d3d3"/><stop class="stopColor3d3d3d svgShape" offset=".25" stop-color="#3d3d3d"/><stop class="stopColor000000 svgShape" offset=".29"/></linearGradient><linearGradient id="n" x1="545.48" x2="545.48" y1="629.05" y2="227.82" gradientUnits="userSpaceOnUse"><stop class="stopColor000000 svgShape" offset=".11"/><stop class="stopColor2c2c2c svgShape" offset=".17" stop-color="#2c2c2c"/><stop class="stopColorc2c2c2 svgShape" offset=".38" stop-color="#c2c2c2"/><stop class="stopColorffffff svgShape" offset=".48" stop-color="#fff"/></linearGradient><linearGradient id="o" x1="781.11" x2="781.11" y1="554.56" y2="280.27" xlink:href="#a"/><linearGradient id="p" x1="641.78" x2="641.78" y1="696.17" y2="358.31" gradientUnits="userSpaceOnUse"><stop class="stopColor000000 svgShape" offset=".1"/><stop class="stopColor2c2c2c svgShape" offset=".15" stop-color="#2c2c2c"/><stop class="stopColorc2c2c2 svgShape" offset=".35" stop-color="#c2c2c2"/><stop class="stopColorffffff svgShape" offset=".43" stop-color="#fff"/></linearGradient><linearGradient id="q" x1="461.25" x2="461.25" y1="768.02" y2="399.94" gradientUnits="userSpaceOnUse"><stop class="stopColorffffff svgShape" offset=".11" stop-color="#fff"/><stop class="stopColord3d3d3 svgShape" offset=".16" stop-color="#d3d3d3"/><stop class="stopColor3d3d3d svgShape" offset=".33" stop-color="#3d3d3d"/><stop class="stopColor000000 svgShape" offset=".4"/></linearGradient><linearGradient id="r" x1="328.48" x2="328.48" y1="764.09" y2="571.97" gradientUnits="userSpaceOnUse"><stop class="stopColorffffff svgShape" offset=".19" stop-color="#fff"/><stop class="stopColorc7c7c7 svgShape" offset=".22" stop-color="#c7c7c7"/><stop class="stopColor5d5d5d svgShape" offset=".28" stop-color="#5d5d5d"/><stop class="stopColor1a1a1a svgShape" offset=".32" stop-color="#1a1a1a"/><stop class="stopColor000000 svgShape" offset=".34"/></linearGradient><linearGradient id="c" x1="1477.48" x2="1552.37" y1="316.5" y2="316.5" gradientTransform="rotate(-120 1064.813 547.87)" gradientUnits="userSpaceOnUse"><stop class="stopColor5652cc svgShape" offset=".42" stop-color="#52aecc"/><stop class="stopColor362e94 svgShape" offset=".61" stop-color="#2e7b94"/></linearGradient><linearGradient id="s" x1="1469.79" x2="1560.06" y1="356.17" y2="356.17" gradientTransform="rotate(-120 1064.813 547.87)" gradientUnits="userSpaceOnUse"><stop class="stopColorbbc0e6 svgShape" offset=".4" stop-color="#bbe6bb"/><stop class="stopColorcbcfec svgShape" offset=".46" stop-color="#cbeccb"/><stop class="stopColorf6f6fb svgShape" offset=".57" stop-color="#f6fbf6"/><stop class="stopColorf6f6fb svgShape" offset=".57" stop-color="#f6fbf6"/></linearGradient><linearGradient id="b" x1="461.25" x2="569.04" y1="249.96" y2="249.96" gradientUnits="userSpaceOnUse"><stop class="stopColorced3f8 svgShape" offset=".42" stop-color="#cef8ce"/><stop class="stopColorbbc0e6 svgShape" offset=".56" stop-color="#bbe6bb"/></linearGradient><linearGradient id="v" x1="281.45" x2="474.75" y1="427.84" y2="427.84" xlink:href="#b"/><linearGradient id="x" x1="208.61" x2="393.01" y1="557.18" y2="557.18" xlink:href="#b"/><linearGradient id="y" x1="423.25" x2="488.47" y1="304.08" y2="304.08" gradientUnits="userSpaceOnUse"><stop class="stopColor423eaf svgShape" offset=".39" stop-color="#3e93af"/><stop class="stopColor6b67e9 svgShape" offset=".58" stop-color="#67c9e9"/></linearGradient><linearGradient id="z" x1="416.56" x2="495.16" y1="338.62" y2="338.62" gradientUnits="userSpaceOnUse"><stop class="stopColorced3f8 svgShape" offset=".4" stop-color="#cef8ce"/><stop class="stopColorbec3e9 svgShape" offset=".55" stop-color="#bee9be"/><stop class="stopColorbbc0e6 svgShape" offset=".57" stop-color="#bbe6bb"/></linearGradient><linearGradient id="B" x1="468.21" x2="622.75" y1="450.74" y2="450.74" xlink:href="#b"/><linearGradient id="D" x1="728.29" x2="833.93" y1="432.67" y2="432.67" xlink:href="#b"/><linearGradient id="F" x1="576.72" x2="706.85" y1="546.02" y2="546.02" xlink:href="#b"/><linearGradient id="G" x1="336.21" x2="240.5" y1="399.6" y2="370.18" gradientTransform="translate(254.75)" gradientUnits="userSpaceOnUse"><stop class="stopColor34318c svgShape" offset="0" stop-color="#31768c"/><stop class="stopColor696adf svgShape" offset="1" stop-color="#69c2df"/></linearGradient><linearGradient id="H" x1="192.19" x2="192.19" y1="117.83" y2="54.49" gradientTransform="matrix(.87 -.5 0 1.15 377.17 387.63)" gradientUnits="userSpaceOnUse"><stop class="stopColor000000 svgShape" offset="0"/><stop class="stopColor372300 svgShape" offset=".22" stop-color="#003700"/><stop class="stopColor925e00 svgShape" offset=".6" stop-color="#009200"/><stop class="stopColorcb8300 svgShape" offset=".87" stop-color="#00cb00"/><stop class="stopColore19100 svgShape" offset="1" stop-color="#00e100"/></linearGradient><linearGradient id="I" x1="229.83" x2="310.51" y1="444.13" y2="304.38" gradientTransform="translate(254.75)" gradientUnits="userSpaceOnUse"><stop class="stopColor34318c svgShape" offset=".4" stop-color="#31768c"/><stop class="stopColor6b67e9 svgShape" offset=".48" stop-color="#67c9e9"/></linearGradient><linearGradient id="J" x1="820.7" x2="885.91" y1="970.21" y2="970.21" gradientTransform="scale(1 -1) rotate(60.1 2003.446 -1.911)" xlink:href="#c"/><linearGradient id="K" x1="814" x2="892.61" y1="1004.75" y2="1004.75" gradientTransform="scale(1 -1) rotate(60.1 2003.446 -1.911)" gradientUnits="userSpaceOnUse"><stop class="stopColorced3f8 svgShape" offset=".4" stop-color="#cef8ce"/><stop class="stopColordee1f9 svgShape" offset=".48" stop-color="#def9de"/><stop class="stopColorf6f6fb svgShape" offset=".57" stop-color="#f6fbf6"/></linearGradient><linearGradient id="M" x1="370.47" x2="552.02" y1="610.18" y2="610.18" xlink:href="#b"/><linearGradient id="O" x1="263.96" x2="393.01" y1="686.66" y2="686.66" xlink:href="#b"/><linearGradient id="d" x1="354.58" x2="400.98" y1="596.17" y2="596.17" gradientTransform="translate(-237.89)" gradientUnits="userSpaceOnUse"><stop class="stopColorc4cae9 svgShape" offset="0" stop-color="#c4e9c4"/><stop class="stopColorced3ed svgShape" offset=".09" stop-color="#ceedce"/><stop class="stopColore9ebf7 svgShape" offset=".41" stop-color="#e9f7e9"/><stop class="stopColorf9fafd svgShape" offset=".69" stop-color="#f9fdf9"/><stop class="stopColorffffff svgShape" offset=".9" stop-color="#fff"/></linearGradient><linearGradient id="P" x1="329.05" x2="375.44" y1="583.85" y2="583.85" gradientTransform="translate(-233.45)" xlink:href="#d"/><linearGradient id="e" x1="-116.86" x2="-99.75" y1="582.22" y2="582.22" gradientTransform="matrix(-1 0 0 1 -8.91 0)" gradientUnits="userSpaceOnUse"><stop class="stopColor423eaf svgShape" offset="0" stop-color="#3e93af"/><stop class="stopColor3a35a0 svgShape" offset=".3" stop-color="#3586a0"/><stop class="stopColor241e77 svgShape" offset=".89" stop-color="#1e6177"/><stop class="stopColor20196f svgShape" offset="1" stop-color="#195a6f"/></linearGradient><linearGradient id="Q" x1="-138" x2="-120.9" y1="594.53" y2="594.53" xlink:href="#e"/><linearGradient id="R" x1="-130.58" x2="-101.17" y1="553.66" y2="553.66" gradientTransform="matrix(-1 0 0 1 -8.91 0)" gradientUnits="userSpaceOnUse"><stop class="stopColor20196f svgShape" offset="0" stop-color="#195a6f"/><stop class="stopColor261f7a svgShape" offset=".25" stop-color="#1f647a"/><stop class="stopColor353097 svgShape" offset=".7" stop-color="#307e97"/><stop class="stopColor423eaf svgShape" offset="1" stop-color="#3e93af"/></linearGradient><linearGradient id="S" x1="-131.71" x2="-101" y1="500.9" y2="500.9" gradientTransform="matrix(-1 0 0 1 -8.91 0)" gradientUnits="userSpaceOnUse"><stop class="stopColore19100 svgShape" offset="0" stop-color="#00e100"/><stop class="stopColore89b02 svgShape" offset=".35" stop-color="#02e802"/><stop class="stopColorfab706 svgShape" offset=".94" stop-color="#06fa06"/><stop class="stopColorfcba06 svgShape" offset="1" stop-color="#06fc06"/></linearGradient><linearGradient id="T" x1="1864.88" x2="1837.61" y1="511.78" y2="502.19" gradientTransform="translate(-1728.77)" gradientUnits="userSpaceOnUse"><stop class="stopColorffe950 svgShape" offset="0" stop-color="#50ff50"/><stop class="stopColorfcba06 svgShape" offset="1" stop-color="#06fc06"/></linearGradient><linearGradient id="f" x1="152.62" x2="216.19" y1="330.78" y2="330.78" gradientTransform="translate(118.2)" gradientUnits="userSpaceOnUse"><stop class="stopColorc4c9e5 svgShape" offset="0" stop-color="#c4e5c4"/><stop class="stopColordde0f0 svgShape" offset=".24" stop-color="#ddf0dd"/><stop class="stopColorf6f7fb svgShape" offset=".54" stop-color="#f6fbf6"/><stop class="stopColorffffff svgShape" offset=".72" stop-color="#fff"/></linearGradient><linearGradient id="U" x1="123.68" x2="184.52" y1="345.96" y2="345.96" gradientTransform="translate(173.42)" xlink:href="#f"/><linearGradient id="V" x1="94.51" x2="140.95" y1="361" y2="361" gradientTransform="translate(228.65)" xlink:href="#f"/><linearGradient id="W" x1="562.45" x2="610.98" y1="277.33" y2="277.33" gradientUnits="userSpaceOnUse"><stop class="stopColorc4c9e4 svgShape" offset="0" stop-color="#c4e4c4"/><stop class="stopColord7daed svgShape" offset=".19" stop-color="#d7edd7"/><stop class="stopColoredeef7 svgShape" offset=".48" stop-color="#edf7ed"/><stop class="stopColorfafbfd svgShape" offset=".75" stop-color="#fafdfa"/><stop class="stopColorffffff svgShape" offset="1" stop-color="#fff"/></linearGradient><linearGradient id="i" x1="506.38" x2="582.74" y1="285.38" y2="285.38" gradientUnits="userSpaceOnUse"><stop class="stopColorc2c8e6 svgShape" offset="0" stop-color="#c2e6c2"/><stop class="stopColore2e5f3 svgShape" offset=".41" stop-color="#e2f3e2"/><stop class="stopColorf7f8fc svgShape" offset=".77" stop-color="#f7fcf7"/><stop class="stopColorffffff svgShape" offset="1" stop-color="#fff"/></linearGradient><linearGradient id="X" x1="614.99" x2="657.27" y1="742.49" y2="669.25" gradientTransform="rotate(120 717.816 451.598)" gradientUnits="userSpaceOnUse"><stop class="stopColorffd03e svgShape" offset=".43" stop-color="#3eff3e"/><stop class="stopColorf6be2c svgShape" offset=".49" stop-color="#2cf62c"/><stop class="stopColore19100 svgShape" offset=".59" stop-color="#00e100"/></linearGradient><linearGradient id="Y" x1="610.06" x2="706.85" y1="396.69" y2="396.69" gradientUnits="userSpaceOnUse"><stop class="stopColord1d7f3 svgShape" offset="0" stop-color="#d1f3d1"/><stop class="stopColorffffff svgShape" offset="1" stop-color="#fff"/></linearGradient><linearGradient id="g" x1="653.69" x2="669.22" y1="382.34" y2="409.23" gradientUnits="userSpaceOnUse"><stop class="stopColor807dfb svgShape" offset=".16" stop-color="#7ddcfb"/><stop class="stopColor6a67e1 svgShape" offset=".41" stop-color="#67c3e1"/><stop class="stopColor4d49bd svgShape" offset=".79" stop-color="#49a0bd"/><stop class="stopColor423eaf svgShape" offset="1" stop-color="#3e93af"/></linearGradient><linearGradient id="Z" x1="633.3" x2="649.71" y1="356.22" y2="384.64" xlink:href="#g"/><linearGradient id="aa" x1="293.53" x2="389.7" y1="611.55" y2="611.55" gradientUnits="userSpaceOnUse"><stop class="stopColord1d7f3 svgShape" offset="0" stop-color="#d1f3d1"/><stop class="stopColordde1f6 svgShape" offset=".34" stop-color="#ddf6dd"/><stop class="stopColorfdfdfe svgShape" offset=".97" stop-color="#fdfefd"/><stop class="stopColorffffff svgShape" offset="1" stop-color="#fff"/></linearGradient><linearGradient id="h" x1="339.17" x2="352.06" y1="602.21" y2="624.53" gradientUnits="userSpaceOnUse"><stop class="stopColor807dfb svgShape" offset=".23" stop-color="#7ddcfb"/><stop class="stopColor7b78f6 svgShape" offset=".44" stop-color="#78d7f6"/><stop class="stopColor6d6ae6 svgShape" offset=".71" stop-color="#6ac7e6"/><stop class="stopColor5652cc svgShape" offset="1" stop-color="#52aecc"/><stop class="stopColor5652cc svgShape" offset="1" stop-color="#52aecc"/></linearGradient><linearGradient id="ab" x1="308.27" x2="320.6" y1="565" y2="586.36" xlink:href="#h"/><linearGradient id="ac" x1="326.62" x2="338.12" y1="582.89" y2="602.82" xlink:href="#h"/><linearGradient id="ad" x1="360.64" x2="474.51" y1="206.32" y2="206.32" xlink:href="#i"/><linearGradient id="ae" x1="1437.4" x2="1518.21" y1="213.87" y2="213.87" gradientTransform="matrix(-1 0 0 1 1849.34 0)" gradientUnits="userSpaceOnUse"><stop class="stopColor423eac svgShape" offset=".24" stop-color="#3e91ac"/><stop class="stopColor4440ae svgShape" offset=".3" stop-color="#4093ae"/><stop class="stopColor4945b6 svgShape" offset=".34" stop-color="#459ab6"/><stop class="stopColor524ec4 svgShape" offset=".36" stop-color="#0099cb"/><stop class="stopColor605bd7 svgShape" offset=".38" stop-color="#5bb8d7"/><stop class="stopColor6b66e7 svgShape" offset=".4" stop-color="#66c7e7"/></linearGradient><linearGradient id="af" x1="359.84" x2="410.87" y1="204.62" y2="204.62" gradientUnits="userSpaceOnUse"><stop class="stopColordae0f5 svgShape" offset="0" stop-color="#daf5da"/><stop class="stopColore0e5f7 svgShape" offset=".32" stop-color="#e0f7e0"/><stop class="stopColorf3f5fc svgShape" offset=".77" stop-color="#f3fcf3"/><stop class="stopColorffffff svgShape" offset="1" stop-color="#fff"/></linearGradient><linearGradient id="ag" x1="1517.1" x2="1416.45" y1="25.94" y2="200.28" gradientTransform="matrix(-1 0 0 1 1849.34 0)" gradientUnits="userSpaceOnUse"><stop class="stopColor6b67e9 svgShape" offset=".63" stop-color="#67c9e9"/><stop class="stopColor1f196f svgShape" offset=".7" stop-color="#195a6f"/></linearGradient><linearGradient id="ah" x1="999.27" x2="1100.6" y1="446.69" y2="446.69" gradientTransform="matrix(-1 0 0 1 1528.33 0)" gradientUnits="userSpaceOnUse"><stop class="stopColorf6f6fb svgShape" offset="0" stop-color="#f6fbf6"/><stop class="stopColord4d7eb svgShape" offset=".62" stop-color="#d4ebd4"/><stop class="stopColorc4c9e4 svgShape" offset="1" stop-color="#c4e4c4"/></linearGradient><linearGradient id="j" x1="1044.69" x2="1071.33" y1="423.67" y2="423.67" gradientTransform="matrix(-1 0 0 1 1528.33 0)" gradientUnits="userSpaceOnUse"><stop class="stopColorbbc0e6 svgShape" offset="0" stop-color="#bbe6bb"/><stop class="stopColorced3f8 svgShape" offset="1" stop-color="#cef8ce"/></linearGradient><linearGradient id="ai" x1="1024.81" x2="1044.69" y1="436.83" y2="436.83" xlink:href="#j"/><mask id="t" width="107.79" height="279.88" x="461.25" y="94.46" maskUnits="userSpaceOnUse"><path fill="url(#a)" d="M566.18 121.57l-44.1-25.46a15.4 15.4 0 0 0-13.87 0l-44.1 25.46c-1.91 1.1-2.86 2.55-2.86 4v217.65c0 1.45.95 2.9 2.86 4l44.1 25.47a15.4 15.4 0 0 0 13.87 0l44.1-25.47c1.91-1.1 2.86-2.55 2.86-4V125.58c-.04-1.46-.95-2.91-2.86-4.01z"/></mask><mask id="u" width="193.3" height="501.89" x="281.45" y="148.99" maskUnits="userSpaceOnUse"><path fill="url(#k)" d="M469.62 197.62L390.53 152c-6.84-3.94-18-3.94-24.86 0l-79.09 45.67c-3.42 2-5.13 4.57-5.13 7.17v390.24c0 2.6 1.71 5.2 5.13 7.18l79.09 45.66c6.83 4 18 4 24.86 0l79.09-45.66c3.42-2 5.13-4.58 5.13-7.18V204.79c0-2.6-1.75-5.2-5.13-7.17z"/></mask><mask id="w" width="184.4" height="478.8" x="208.61" y="291.16" maskUnits="userSpaceOnUse"><path fill="url(#l)" d="M388.12 337.55L312.67 294c-6.52-3.77-17.2-3.77-23.72 0l-75.45 43.55c-3.26 1.88-4.89 4.37-4.89 6.85v372.33c0 2.48 1.63 5 4.89 6.85l75.5 43.56c6.53 3.76 17.2 3.76 23.72 0l75.45-43.56c3.26-1.89 4.89-4.37 4.89-6.85V344.4c-.06-2.48-1.68-4.97-4.94-6.85z" filter="url(#m)"/></mask><mask id="A" width="154.53" height="401.23" x="468.21" y="227.82" maskUnits="userSpaceOnUse"><path fill="url(#n)" d="M618.65 266.69l-63.23-36.51c-5.42-3.18-14.42-3.18-19.88 0l-63.23 36.51c-2.73 1.57-4.1 3.65-4.1 5.73v312c0 2.08 1.37 4.16 4.1 5.74l63.23 36.5c5.47 3.16 14.41 3.16 19.88 0l63.23-36.5c2.73-1.58 4.1-3.66 4.1-5.74v-312c0-2.08-1.37-4.15-4.1-5.73z"/></mask><mask id="C" width="105.64" height="274.29" x="728.29" y="280.27" maskUnits="userSpaceOnUse"><path fill="url(#o)" d="M831.13 306.85l-43.23-25a15.1 15.1 0 0 0-13.58 0l-43.23 25c-1.86 1.08-2.8 2.5-2.8 3.92v213.3c0 1.42.94 2.84 2.8 3.92l43.23 25a15 15 0 0 0 13.58 0l43.23-25c1.87-1.08 2.8-2.5 2.8-3.92v-213.3c0-1.42-.93-2.84-2.8-3.92z"/></mask><mask id="E" width="130.12" height="337.86" x="576.72" y="358.31" maskUnits="userSpaceOnUse"><path fill="url(#p)" d="M703.39 391l-53.24-30.7c-4.6-2.66-12.13-2.66-16.73 0L580.17 391c-2.3 1.33-3.45 3.08-3.45 4.83v262.78c0 1.75 1.15 3.5 3.45 4.83l53.25 30.74c4.6 2.65 12.13 2.65 16.73 0l53.24-30.74c2.31-1.33 3.46-3.08 3.46-4.83V395.87c0-1.75-1.16-3.5-3.46-4.87z"/></mask><mask id="L" width="181.55" height="368.08" x="370.47" y="399.94" maskUnits="userSpaceOnUse"><path fill="url(#q)" d="M547.2 445.6l-74.28-42.88c-6.42-3.71-16.93-3.71-23.35 0l-74.28 42.88c-3.21 1.86-4.82 4.3-4.82 6.74v263.27c0 2.45 1.61 4.89 4.82 6.75l74.28 42.88c6.42 3.71 16.93 3.71 23.35 0l74.28-42.88c3.21-1.86 4.82-4.3 4.82-6.75V452.34c-.02-2.44-1.61-4.88-4.82-6.74z" filter="url(#m)"/></mask><mask id="N" width="129.06" height="192.11" x="263.96" y="571.97" maskUnits="userSpaceOnUse"><path fill="url(#r)" d="M389.59 604.44L336.78 574c-4.56-2.63-12-2.63-16.6 0l-52.8 30.49c-2.28 1.32-3.42 3-3.42 4.79v117.6c0 1.74 1.14 3.48 3.42 4.79l52.81 30.49c4.56 2.64 12 2.64 16.59 0l52.81-30.49c2.28-1.31 3.42-3 3.42-4.79V609.23c-.01-1.74-1.14-3.47-3.42-4.79z" filter="url(#m)"/></mask><filter id="m" color-interpolation-filters="sRGB" filterUnits="userSpaceOnUse"><feColorMatrix values="-1 0 0 0 1 0 -1 0 0 1 0 0 -1 0 1 0 0 0 1 0"/></filter></defs><g style="isolation:isolate" class="color000000 svgShape"><path fill="#cef8ce" d="M664 267.66v40.67c0 2.24-.79 3.81-2 4.54s-3 .63-5-.49L621.77 292a15.46 15.46 0 0 1-7-12.14v-40.63c0-2.23.79-3.8 2.06-4.53s3-.63 4.95.49L657 255.52a15.46 15.46 0 0 1 7 12.14z" class="colorced3f8 svgShape"/><path fill="url(#c)" d="M659.81 268.7v33.75a4.09 4.09 0 0 1-1.71 3.76c-1.05.61-2.5.52-4.11-.41l-29.22-16.87a12.89 12.89 0 0 1-5.77-10.07v-33.74c0-1.86.65-3.16 1.71-3.77s2.5-.52 4.11.41L654 258.63a12.89 12.89 0 0 1 5.82 10.07z"/><path fill="url(#s)" d="M621.77 235.19L657 255.52a15.46 15.46 0 0 1 7 12.14v40.67c0 2.24-.79 3.81-2 4.54l46.13-26.64c1.27-.73 2-2.3 2.06-4.54V241a15.57 15.57 0 0 0-7-12.14l-35.22-20.33c-1.94-1.12-3.69-1.22-5-.49l-46.16 26.66c1.27-.7 3.02-.63 4.96.49z"/><g class="color000000 svgShape" mask="url(#t)"><path fill="url(#b)" d="M461.25 125.58v217.64c0 1.45.95 2.9 2.86 4l44.1 25.47a15.4 15.4 0 0 0 13.87 0l44.1-25.47c1.91-1.1 2.86-2.55 2.86-4V125.58z"/><path fill="#f6fbf6" d="M464.11 129.58c-1.91-1.1-2.86-2.55-2.86-4s.95-2.91 2.86-4l44.1-25.46a15.4 15.4 0 0 1 13.87 0l44.1 25.46c1.91 1.1 2.86 2.55 2.86 4s-.95 2.9-2.86 4L522.08 155a15.4 15.4 0 0 1-13.87 0z" class="colorf6f6fb svgShape"/></g><g class="color000000 svgShape" mask="url(#u)"><path fill="url(#v)" d="M281.45 204.79v390.29c0 2.6 1.71 5.2 5.13 7.18l79.09 45.66c6.83 4 18 4 24.86 0l79.09-45.66c3.42-2 5.13-4.58 5.13-7.18V204.79z"/><path fill="#f6fbf6" d="M286.58 212c-3.42-2-5.13-4.58-5.13-7.18s1.71-5.2 5.13-7.17L365.67 152c6.83-3.94 18-3.94 24.86 0l79.09 45.67c3.42 2 5.13 4.57 5.13 7.17S473 210 469.62 212l-79.09 45.66c-6.84 3.95-18 3.95-24.86 0z" class="colorf6f6fb svgShape"/></g><g class="color000000 svgShape" mask="url(#w)"><path fill="url(#x)" d="M208.61 344.4v372.33c0 2.48 1.63 5 4.89 6.85l75.5 43.56c6.53 3.76 17.2 3.76 23.72 0l75.45-43.56c3.26-1.89 4.89-4.37 4.89-6.85V344.4z"/><path fill="#f6fbf6" d="M213.5 351.24c-3.26-1.88-4.89-4.36-4.89-6.84s1.63-5 4.89-6.85L289 294c6.52-3.77 17.2-3.77 23.72 0l75.45 43.56c3.26 1.88 4.89 4.37 4.89 6.85s-1.63 5-4.89 6.84l-75.45 43.57c-6.52 3.76-17.19 3.76-23.72 0z" class="colorf6f6fb svgShape"/></g><path fill="#f6fbf6" d="M449.76 325.31l-30.67-17.7c-1.69-1-2.53-2.25-2.53-3.53s.84-2.55 2.53-3.52l30.67-17.71a13.47 13.47 0 0 1 12.2 0l30.67 17.71c1.69 1 2.53 2.25 2.53 3.52s-.84 2.55-2.53 3.53L462 325.31a13.47 13.47 0 0 1-12.2 0z" class="colorf6f6fb svgShape"/><path fill="url(#y)" d="M450.8 321.7L425.35 307a3.09 3.09 0 0 1 0-5.85l25.45-14.69a11.19 11.19 0 0 1 10.12 0l25.45 14.69a3.09 3.09 0 0 1 0 5.85l-25.45 14.7a11.18 11.18 0 0 1-10.12 0z"/><path fill="url(#z)" d="M492.63 307.61L462 325.31a13.47 13.47 0 0 1-12.2 0l-30.67-17.7c-1.69-1-2.53-2.25-2.53-3.53v46.39c0 1.28.84 2.55 2.53 3.53l30.67 17.7a13.47 13.47 0 0 0 12.2 0l30.63-17.7c1.69-1 2.53-2.25 2.53-3.53v-46.39c0 1.28-.84 2.55-2.53 3.53z"/><g class="color000000 svgShape" mask="url(#A)"><path fill="url(#B)" d="M468.21 272.42v312c0 2.08 1.37 4.16 4.1 5.74l63.23 36.5c5.47 3.16 14.41 3.16 19.88 0l63.23-36.5c2.73-1.58 4.1-3.66 4.1-5.74v-312z"/><path fill="#f6fbf6" d="M472.31 278.16c-2.73-1.58-4.1-3.66-4.1-5.74s1.37-4.16 4.1-5.73l63.23-36.51c5.47-3.15 14.41-3.15 19.88 0l63.23 36.51c2.73 1.58 4.1 3.65 4.1 5.73s-1.37 4.16-4.1 5.74l-63.23 36.51c-5.47 3.15-14.41 3.15-19.88 0z" class="colorf6f6fb svgShape"/></g><g class="color000000 svgShape" mask="url(#C)"><path fill="url(#D)" d="M728.29 310.77v213.3c0 1.42.94 2.84 2.8 3.92l43.23 25a15 15 0 0 0 13.58 0l43.23-25c1.87-1.08 2.8-2.5 2.8-3.92v-213.3z"/><path fill="#f6fbf6" d="M731.09 314.69c-1.86-1.08-2.8-2.5-2.8-3.92s.94-2.84 2.8-3.92l43.23-25a15.1 15.1 0 0 1 13.58 0l43.23 25c1.87 1.08 2.8 2.5 2.8 3.92s-.93 2.84-2.8 3.92l-43.23 25a15.1 15.1 0 0 1-13.58 0z" class="colorf6f6fb svgShape"/></g><g class="color000000 svgShape" mask="url(#E)"><path fill="url(#F)" d="M576.72 395.87v262.74c0 1.75 1.15 3.5 3.45 4.83l53.25 30.74c4.6 2.65 12.13 2.65 16.73 0l53.24-30.74c2.31-1.33 3.46-3.08 3.46-4.83V395.87z"/><path fill="#f6fbf6" d="M580.17 400.7c-2.3-1.33-3.45-3.08-3.45-4.83s1.15-3.5 3.45-4.83l53.25-30.74c4.6-2.66 12.13-2.66 16.73 0l53.24 30.7c2.3 1.33 3.46 3.08 3.46 4.83s-1.15 3.5-3.46 4.83l-53.24 30.74c-4.6 2.66-12.13 2.66-16.73 0z" class="colorf6f6fb svgShape"/></g><path fill="url(#G)" d="M496.53 376a12.22 12.22 0 0 1 5.47-9.5l83.14-48c3-1.75 5.51-.32 5.51 3.18v72.37a12.22 12.22 0 0 1-5.51 9.54l-83.14 48c-3 1.75-5.51.32-5.51-3.18z"/><path fill="url(#H)" d="M502 451.59l83.14-48a12.22 12.22 0 0 0 5.51-9.54v-66.77c-7.45 4.3-4.23 18.4-9.9 21.67-4 2.3-4.89-8.1-10.71-4.74-6.12 3.53-8.57 26.3-15.46 30.28-5.51 3.18-6.28-5.93-11.76-2.77-7.35 4.25-7.22 24.19-14.42 28.34-7.49 4.34-13.31-25.93-20.37-21.85-4 2.29-8.55 17-11.54 25v45.2c.04 3.5 2.51 4.93 5.51 3.18z" style="mix-blend-mode:screen"/><path fill="#fff" d="M540.28 373.21a5.68 5.68 0 0 1 2.58-4.46c1.42-.82 2.58-.16 2.58 1.49a5.7 5.7 0 0 1-2.58 4.46c-1.43.82-2.58.16-2.58-1.49z" class="colorffffff svgShape"/><path fill="url(#I)" d="M496.53 448.41V376a12.22 12.22 0 0 1 5.47-9.5l83.14-48a3.88 3.88 0 0 1 3.85-.4l-2-1.13c-1-.64-2.42-.6-4 .31l-83.14 48a12.22 12.22 0 0 0-5.51 9.54v72.37c0 1.83.68 3.09 1.77 3.63l1.83 1.06a4 4 0 0 1-1.41-3.47z"/><path fill="#bbe6bb" d="M572 514.56V550c0 1.95.69 3.31 1.79 3.95s2.63.55 4.32-.43l30.67-17.71a13.49 13.49 0 0 0 6.1-10.57v-35.43c0-1.95-.68-3.31-1.79-3.95s-2.63-.55-4.31.42L578.08 504a13.51 13.51 0 0 0-6.08 10.56z" class="colorbbc0e6 svgShape"/><path fill="url(#J)" d="M575.63 515.47v29.38a3.09 3.09 0 0 0 5.06 2.93l25.45-14.69a11.18 11.18 0 0 0 5.06-8.77v-29.39a3.08 3.08 0 0 0-5.06-2.92l-25.45 14.69a11.18 11.18 0 0 0-5.06 8.77z"/><path fill="url(#K)" d="M608.75 486.28L578.08 504a13.51 13.51 0 0 0-6.08 10.56V550c0 1.95.69 3.31 1.79 3.95l-40.17-23.19c-1.11-.64-1.79-2-1.79-4v-35.39a13.49 13.49 0 0 1 6.1-10.57l30.67-17.71c1.69-1 3.21-1.07 4.32-.43l40.17 23.2c-1.09-.64-2.66-.55-4.34.42z"/><g class="color000000 svgShape" mask="url(#L)"><path fill="url(#M)" d="M370.47 452.34v263.27c0 2.45 1.61 4.89 4.82 6.75l74.28 42.88c6.42 3.71 16.93 3.71 23.35 0l74.28-42.88c3.21-1.86 4.82-4.3 4.82-6.75V452.34z"/><path fill="#f6fbf6" d="M375.29 459.09c-3.21-1.86-4.82-4.3-4.82-6.75s1.61-4.88 4.82-6.74l74.28-42.88c6.42-3.71 16.93-3.71 23.35 0l74.28 42.88c3.21 1.86 4.82 4.3 4.82 6.74s-1.61 4.89-4.82 6.75L472.92 502c-6.42 3.71-16.93 3.71-23.35 0z" class="colorf6f6fb svgShape"/></g><g class="color000000 svgShape" mask="url(#N)"><path fill="url(#O)" d="M264 609.23v117.6c0 1.74 1.14 3.48 3.42 4.79l52.81 30.49c4.56 2.64 12 2.64 16.59 0l52.81-30.49c2.28-1.31 3.42-3 3.42-4.79v-117.6z"/><path fill="#f6fbf6" d="M267.38 614c-2.28-1.32-3.42-3-3.42-4.79s1.14-3.47 3.42-4.79l52.8-30.42c4.57-2.63 12-2.63 16.6 0l52.81 30.49c2.28 1.32 3.42 3 3.42 4.79s-1.14 3.47-3.42 4.79l-52.81 30.49c-4.56 2.63-12 2.63-16.59 0z" class="colorf6f6fb svgShape"/></g><path fill="#3e93af" d="M198.62 414l-45.31-26.17c-2.13-1.22-3.85-4.51-3.85-7.35v-1.72c0-2.83 1.72-4.13 3.85-2.9L198.62 402c2.13 1.23 3.85 4.52 3.85 7.35v1.72c0 2.83-1.72 4.13-3.85 2.93z" class="color423eaf svgShape"/><path fill="#fff" d="M151.25 380.76c0-2.34 1.64-3.29 3.67-2.12a8.11 8.11 0 0 1 3.66 6.35c0 2.34-1.64 3.29-3.66 2.12a8.09 8.09 0 0 1-3.67-6.35z" class="colorffffff svgShape"/><path fill="#3e93af" d="M155.55 383.24c.36-.06.6-.42.6-1a2.89 2.89 0 0 0-1.23-2.28c-.69-.39-1.24 0-1.24.85a3 3 0 0 0 .6 1.69 1.32 1.32 0 0 0-1.71 1.3l2.35 1.36 2.34 1.35a5.4 5.4 0 0 0-1.71-3.27z" class="color423eaf svgShape"/><path fill="#195a6f" d="M162.49 387c0-.48.33-.67.74-.43a1.61 1.61 0 0 1 .75 1.29c0 .47-.33.66-.75.43a1.66 1.66 0 0 1-.74-1.29zm4.37 2.51c0-.48.33-.67.74-.43a1.65 1.65 0 0 1 .75 1.29c0 .47-.34.66-.75.43a1.66 1.66 0 0 1-.74-1.29zm4.37 2.49c0-.47.33-.67.74-.43a1.65 1.65 0 0 1 .75 1.29c0 .47-.34.67-.75.43a1.64 1.64 0 0 1-.74-1.29zm4.36 2.55c0-.47.34-.67.75-.43a1.66 1.66 0 0 1 .74 1.29c0 .48-.33.67-.74.43a1.65 1.65 0 0 1-.75-1.29zm4.41 2.52c0-.47.34-.66.75-.43a1.66 1.66 0 0 1 .74 1.29c0 .48-.33.67-.74.43a1.64 1.64 0 0 1-.75-1.29zm4.33 2.53c0-.48.33-.67.75-.43a1.63 1.63 0 0 1 .74 1.29c0 .47-.33.66-.74.43a1.64 1.64 0 0 1-.75-1.29zm4.37 2.52c0-.48.33-.67.74-.43a1.63 1.63 0 0 1 .75 1.29c0 .47-.33.66-.75.43a1.66 1.66 0 0 1-.74-1.29zm4.37 2.52c0-.48.33-.67.74-.43a1.65 1.65 0 0 1 .75 1.29c0 .47-.34.67-.75.43a1.66 1.66 0 0 1-.74-1.29z" class="color20196f svgShape"/><path fill="#06fc06" d="M198.62 432.26l-45.31-26.17c-2.13-1.22-3.85-4.51-3.85-7.34V397c0-2.84 1.72-4.14 3.85-2.91l45.31 26.16c2.13 1.23 3.85 4.52 3.85 7.35v1.72c0 2.86-1.72 4.17-3.85 2.94z" class="colorfcba06 svgShape"/><path fill="#2e7b94" d="M162.49 405.54c0-.47.33-.67.74-.43a1.64 1.64 0 0 1 .75 1.29c0 .48-.33.67-.75.43a1.64 1.64 0 0 1-.74-1.29zm4.37 2.52c0-.47.33-.66.74-.43a1.67 1.67 0 0 1 .75 1.29c0 .48-.34.67-.75.43a1.63 1.63 0 0 1-.74-1.29zm4.37 2.53c0-.48.33-.67.74-.43a1.64 1.64 0 0 1 .75 1.29c0 .47-.34.66-.75.43a1.66 1.66 0 0 1-.74-1.29zm4.36 2.52c0-.48.34-.67.75-.43a1.64 1.64 0 0 1 .74 1.29c0 .47-.33.67-.74.43a1.67 1.67 0 0 1-.75-1.29zm4.41 2.52c0-.47.34-.67.75-.43a1.66 1.66 0 0 1 .74 1.29c0 .47-.33.67-.74.43a1.65 1.65 0 0 1-.75-1.29zm4.33 2.52c0-.47.33-.66.75-.43a1.66 1.66 0 0 1 .74 1.29c0 .48-.33.67-.74.43a1.63 1.63 0 0 1-.75-1.29zm4.37 2.52c0-.47.33-.66.74-.42a1.61 1.61 0 0 1 .75 1.28c0 .48-.33.67-.75.43a1.63 1.63 0 0 1-.74-1.29z" class="color362e94 svgShape"/><path style="mix-blend-mode:multiply" fill="url(#d)" d="M116.69 591.9H163.09V600.43H116.69z"/><path style="mix-blend-mode:multiply" fill="url(#P)" d="M95.6 579.59H142V588.12H95.6z"/><path fill="url(#e)" d="M90.84 585.49c0-6.7 4.24-6.89 4.24-6.89a17.57 17.57 0 0 0 6-1.55c3.68-1.53 8.88-.94 6 4.41a.93.93 0 0 1-.1.2 2.54 2.54 0 0 1-.94.83l-9.28 5.44c-1.4.8-5.89-1.06-5.92-2.44z"/><path fill="#113a47" d="M90.86 584.89c.08 1.37 4.51 3.21 5.91 2.41l9.28-5.44a8.76 8.76 0 0 0 1.31-1 5.68 5.68 0 0 1-.27.56.93.93 0 0 1-.1.2 2.54 2.54 0 0 1-.94.83l-9.28 5.44c-1.32.76-5.34-.83-5.87-2.17a1.12 1.12 0 0 1-.05-.27 6 6 0 0 1 .01-.56z" class="color131147 svgShape"/><path fill="#fff" d="M92.56 577.72a38.87 38.87 0 0 1 4.94 1 2.17 2.17 0 0 0 .35 1l.11.13c.76.53 1.53 1.36-.27 2.5a2.53 2.53 0 0 1-3.25-.23 2.9 2.9 0 0 0-1-1.19 2.61 2.61 0 0 0-1-.42.32.32 0 0 0 0-.1s-.33-2.69.12-2.69z" class="colorffffff svgShape"/><path fill="#195a6f" d="M92.49 512.21l18.88.34c-1.56 12.61-4.71 24.06-6.8 36.27-2.26 11.87-4.79 20.21-7 30.09-.81 1.83-4.52 1.14-5.27-.63-.59-9.1-1.26-20.18 1.43-30.67-.46-11.31-1.5-23.97-1.24-35.4z" class="color20196f svgShape"/><path fill="url(#Q)" d="M112 597.8c0-6.7 4.24-6.89 4.24-6.89a17.5 17.5 0 0 0 6-1.55c3.69-1.53 8.88-.94 6 4.41a1.86 1.86 0 0 1-.1.2 2.52 2.52 0 0 1-.94.82l-9.28 5.45c-1.41.76-5.92-1.06-5.92-2.44z"/><path fill="#113a47" d="M112 597.2c.08 1.37 4.51 3.21 5.91 2.4l9.28-5.43a9.31 9.31 0 0 0 1.31-1c-.09.19-.16.36-.27.56a1.86 1.86 0 0 1-.1.2 2.52 2.52 0 0 1-.94.82l-9.28 5.45c-1.32.75-5.35-.84-5.88-2.17a1.7 1.7 0 0 1 0-.28 5.81 5.81 0 0 1-.03-.55z" class="color131147 svgShape"/><path fill="#fff" d="M113.71 590a38.89 38.89 0 0 1 4.94 1 2.22 2.22 0 0 0 .34 1l.11.13c.76.53 1.54 1.36-.27 2.5a2.51 2.51 0 0 1-3.24-.23 2.85 2.85 0 0 0-1-1.19 2.66 2.66 0 0 0-1-.43v-.08s-.34-2.7.12-2.7z" class="colorffffff svgShape"/><path fill="url(#R)" d="M105.8 542.19c-1.14-5.42-14.37-6.09-13.5-27.4 4.15-.61 25.09 9.21 29.23 8.6.52 12.69-.7 24.5-.78 36.89-.29 12.08-1.43 20.72-2 30.82-.5 1.95-4.27 1.87-5.3.25-2.07-8.88-4.54-19.7-3.6-30.5-1.23-5.98-2.7-12.31-4.05-18.66z"/><path fill="#00b900" d="M101.87 473.41c-14.77 9.86-16.53 29.46-8.55 41.9 0 0-1.71-27.56 8.55-41.9z" class="colorb96e00 svgShape"/><path fill="url(#S)" d="M101.2 526.87c9 5 18.39 5.06 21.6-1.15-1.2-11.54-2.33-20.94 0-32-.68-6.11-1.17-7-.38-10.59-.28-1.2-4-3.75-6.64-6.2-2.89-2.64-4.85-5.15-6.34-5.46-12.3-2.47-18.27 19.39-17.24 42.74a17 17 0 0 0 9 12.66z"/><path fill="#a9fca9" d="M102.62 472.86c2.66-1.93 2.45-5.91 2.22-8.56a13.12 13.12 0 0 1-.49-4.57c.39-5.82 4.44-10.61 9-10 9.12 1.25 7.16 6 6.77 11.79-.36 5.4-3.06 9-7.2 9.3-.06.89.3 3.58 1.42 4.7-3 1.8-7.38 1-9.11.17s-3.86-1.54-2.61-2.83z" class="colorfcd1a9 svgShape"/><path fill="#195a6f" d="M117 446.9c-.21-.73-1.61-1.21-6.35.62l-1.22.47c-8.77 3.8-6.65 13.92-5.34 16.6a5.5 5.5 0 0 1 .69 3.19c3.45-.14 4.54 1.8 6.75-.14 1.58-1.38 4-3 4.35-3.68a2.71 2.71 0 0 0 .32-1.68c0-4.85 2.25-1.88 2.18-.77.91-.45.85-2.4.79-4.56 7.41-5.56 3.41-9.39-2.17-10.05z" class="color20196f svgShape"/><path fill="#a9fca9" d="M121.73 530a3 3 0 0 1-4.45.15c-1.46-1.53-.62-3.23-1.42-3.74-2.18-1.4-2.68-2.72-2.31-4 1.74 1.11 3.53 2.89 5.06 1.81s3.5-2.56 3.6-4.1c2.27.52 2.38 5.42 1.21 7.39a21.21 21.21 0 0 1-1.69 2.49z" class="colorfcd1a9 svgShape"/><path fill="url(#T)" d="M118.67 526.14c-1.12 2.74-.34 4.42 2.41 4.73 6.87-3.51 10.86-13.37 11-18.78.2-9-4.18-20.36-9.75-29.24-1.3-1.92-5.47-1.19-7.52 1.52-2.78 3.67-1.59 9 0 11.17 4 6.45 8.53 11.25 9 16.41.32 4.78-1.63 11.05-5.14 14.19z"/><path fill="none" stroke="#daf5da" stroke-linecap="round" stroke-linejoin="round" class="colorStrokedae0f5 svgStroke" d="M776.59 125.32L741.13 104.84 776.59 84.37 812.06 104.84 776.59 125.32z"/><path fill="none" stroke="#dae0f5" stroke-linecap="round" stroke-linejoin="round" d="M741.13 104.84L741.13 145.79 776.59 166.27 812.06 145.79 812.06 104.84"/><path fill="none" stroke="#daf5da" stroke-linecap="round" stroke-linejoin="round" class="colorStrokedae0f5 svgStroke" d="M776.59 125.32L776.59 166.27"/><path fill="#daf5da" d="M773.89 84.37a2.7 2.7 0 1 1 2.7 2.7 2.7 2.7 0 0 1-2.7-2.7zm-35.46 20.47a2.7 2.7 0 1 1 2.7 2.7 2.7 2.7 0 0 1-2.7-2.7zm0 40.95a2.7 2.7 0 1 1 2.7 2.7 2.7 2.7 0 0 1-2.7-2.7zm35.46 20.48a2.7 2.7 0 1 1 2.7 2.7 2.7 2.7 0 0 1-2.7-2.7zm0-40.95a2.7 2.7 0 1 1 2.7 2.7 2.7 2.7 0 0 1-2.7-2.7zm35.47-20.48a2.7 2.7 0 1 1 2.7 2.7 2.7 2.7 0 0 1-2.7-2.7zm0 40.95a2.7 2.7 0 1 1 2.7 2.7 2.7 2.7 0 0 1-2.7-2.7z" class="colordae0f5 svgShape"/><path fill="none" stroke="#7ddcfb" stroke-linecap="round" stroke-linejoin="round" class="colorStroke807dfb svgStroke" d="M184.33 292.42L154.48 275.18 184.33 257.95 214.18 275.18 184.33 292.42z"/><path fill="none" stroke="#807dfb" stroke-linecap="round" stroke-linejoin="round" d="M154.48 275.18L154.48 309.65 184.33 326.88 214.18 309.65 214.18 275.18"/><path fill="none" stroke="#7ddcfb" stroke-linecap="round" stroke-linejoin="round" class="colorStroke807dfb svgStroke" d="M184.33 292.42L184.33 326.88"/><circle cx="184.33" cy="257.95" r="2.7" fill="#7ddcfb" class="color807dfb svgShape" transform="rotate(-89.8 184.332 257.95)"/><path fill="#7ddcfb" d="M151.78 275.18a2.7 2.7 0 1 1 2.7 2.7 2.7 2.7 0 0 1-2.7-2.7zm0 34.47a2.7 2.7 0 1 1 2.7 2.7 2.7 2.7 0 0 1-2.7-2.7zm29.85 17.23a2.7 2.7 0 1 1 2.7 2.71 2.7 2.7 0 0 1-2.7-2.71zm0-34.46a2.7 2.7 0 1 1 2.7 2.7 2.7 2.7 0 0 1-2.7-2.7zm29.85-17.24a2.7 2.7 0 1 1 2.7 2.7 2.7 2.7 0 0 1-2.7-2.7z" class="color807dfb svgShape"/><circle cx="214.18" cy="309.65" r="2.7" fill="#7ddcfb" class="color807dfb svgShape"/><path fill="#b9e4b9" class="colorb9bee4 svgShape" d="M401.28 413.64L415.89 405.2 415.89 388.07 401.28 396.5 401.28 413.64z"/><path fill="#ccf6cc" class="colorccd1f6 svgShape" d="M401.28 413.64L386.66 405.2 386.66 388.07 401.28 396.5 401.28 413.64z"/><path fill="#f4f9f4" class="colorf4f4f9 svgShape" d="M401.28 396.5L386.66 388.07 401.28 379.63 415.89 388.07 401.28 396.5z"/><path fill="#b9e4b9" class="colorb9bee4 svgShape" d="M622.75 79.84L637.36 71.4 637.36 54.27 622.75 62.7 622.75 79.84z"/><path fill="#ccf6cc" class="colorccd1f6 svgShape" d="M622.75 79.84L608.13 71.4 608.13 54.27 622.75 62.7 622.75 79.84z"/><path fill="#f4f9f4" class="colorf4f4f9 svgShape" d="M622.75 62.7L608.13 54.27 622.75 45.83 637.36 54.27 622.75 62.7z"/><path fill="#3e93af" class="color423eaf svgShape" d="M545.48 601.76L564.71 590.65 564.71 568.11 545.48 579.21 545.48 601.76z"/><path fill="#52aecc" class="color5652cc svgShape" d="M545.48 601.76L526.25 590.65 526.25 568.11 545.48 579.21 545.48 601.76z"/><path fill="#7ddcfb" class="color807dfb svgShape" d="M545.48 579.21L526.25 568.11 545.48 557 564.71 568.11 545.48 579.21z"/><path fill="#bbe6bb" class="colorbbc0e6 svgShape" d="M710.72 463.55L723.82 455.99 723.82 440.64 710.72 448.2 710.72 463.55z"/><path fill="#cef8ce" class="colorced3f8 svgShape" d="M710.72 463.55L697.63 455.99 697.63 440.64 710.72 448.2 710.72 463.55z"/><path fill="#f4f9f4" class="colorf4f4f9 svgShape" d="M710.72 448.2L697.63 440.64 710.72 433.08 723.82 440.64 710.72 448.2z"/><path fill="#b9e4b9" class="colorb9bee4 svgShape" d="M382.18 98.75L394.05 91.9 394.05 77.99 382.18 84.84 382.18 98.75z"/><path fill="#ccf6cc" class="colorccd1f6 svgShape" d="M382.18 98.75L370.31 91.9 370.31 77.99 382.18 84.84 382.18 98.75z"/><path fill="#f4f9f4" class="colorf4f4f9 svgShape" d="M382.18 84.84L370.31 77.99 382.18 71.14 394.05 77.99 382.18 84.84z"/><path fill="url(#f)" style="mix-blend-mode:multiply" d="M318.23 321.46L270.82 321.46 286.96 330.78 270.82 340.11 318.23 340.11 334.38 330.78 318.23 321.46z"/><path fill="url(#U)" style="mix-blend-mode:multiply" d="M341.79 336.63L297.1 336.63 313.25 345.96 297.1 355.28 341.79 355.28 357.94 345.96 341.79 336.63z"/><path fill="url(#V)" style="mix-blend-mode:multiply" d="M353.45 351.68L323.16 351.68 339.31 361 323.16 370.33 353.45 370.33 369.6 361 353.45 351.68z"/><path fill="#06fc06" class="colorfcba06 svgShape" d="M254.67 287.51L270.81 296.83 270.81 340.11 254.67 330.78 254.67 287.51z"/><path fill="#00e100" class="colore19100 svgShape" d="M286.96 287.51L270.81 296.83 270.81 340.11 286.96 330.78 286.96 287.51z"/><path fill="#3eff3e" class="colorffd03e svgShape" d="M270.81 278.19L254.67 287.51 270.81 296.83 286.96 287.51 270.81 278.19z"/><path fill="#52aecc" class="color5652cc svgShape" d="M280.95 310.65L297.1 319.98 297.1 355.28 280.95 345.96 280.95 310.65z"/><path fill="#3e93af" class="color423eaf svgShape" d="M313.25 310.65L297.1 319.98 297.1 355.28 313.25 345.96 313.25 310.65z"/><path fill="#67c9e9" class="color6b67e9 svgShape" d="M297.1 301.33L280.95 310.65 297.1 319.98 313.25 310.65 297.1 301.33z"/><path fill="#06fc06" class="colorfcba06 svgShape" d="M307.01 337.5L323.16 346.82 323.16 370.33 307.01 361 307.01 337.5z"/><path fill="#00e100" class="colore19100 svgShape" d="M339.31 337.5L323.16 346.82 323.16 370.33 339.31 361 339.31 337.5z"/><path fill="#3eff3e" class="colorffd03e svgShape" d="M323.16 328.18L307.01 337.5 323.16 346.82 339.31 337.5 323.16 328.18z"/><path fill="url(#W)" style="mix-blend-mode:multiply" d="M592.13 266.45L562.45 266.45 581.29 277.33 562.45 288.21 592.13 288.21 610.98 277.33 592.13 266.45z"/><path fill="#195a6f" class="color20196f svgShape" d="M562.45 288.21L581.29 277.33 581.29 255.57 562.45 266.45 562.45 288.21z"/><path fill="#2e7b94" class="color362e94 svgShape" d="M562.45 288.21L543.61 277.33 543.61 255.57 562.45 266.45 562.45 288.21z"/><path fill="#52aecc" class="color5652cc svgShape" d="M562.45 266.45L543.61 255.57 562.45 244.7 581.29 255.57 562.45 266.45z"/><path fill="#bbe6bb" class="colorbbc0e6 svgShape" d="M562.45 260.63L581.29 249.75 581.29 228 562.45 238.87 562.45 260.63z"/><path fill="#cef8ce" class="colorced3f8 svgShape" d="M562.45 260.63L543.61 249.75 543.61 228 562.45 238.87 562.45 260.63z"/><path fill="#f6fbf6" class="colorf6f6fb svgShape" d="M562.45 238.87L543.61 228 562.45 217.12 581.29 228 562.45 238.87z"/><path fill="url(#i)" d="M582.74 269.83h-69.85c-5.8 0-8.17 1.37-5.27 3.05l3.55 2.05c-4.51.25-6.14 1.5-3.55 3l34.56 20c2.9 1.67 10 3 15.82 3h24.74z" style="mix-blend-mode:multiply"/><path fill="#06fc06" d="M542.18 245.15a11.68 11.68 0 0 1 5.27 9.13v40.55c0 3.35-2.37 4.72-5.27 3.05l-34.56-20a11.68 11.68 0 0 1-5.27-9.13v-40.51c0-3.35 2.37-4.72 5.27-3.05z" class="colorfcba06 svgShape"/><path fill="url(#X)" d="M551.91 294.77c1-.52 1.66-1.72 1.66-3.45v-40.57a11.68 11.68 0 0 0-5.27-9.13l-34.56-20c-1.52-.88-2.89-.91-3.85-.28l-5.89 3.42a3.78 3.78 0 0 1 3.59.43l34.56 20a11.68 11.68 0 0 1 5.27 9.13v40.55a3.73 3.73 0 0 1-1.51 3.39z"/><path fill="#fff" d="M512 256c0-7.82 5.48-11 12.25-7.08s12.26 13.42 12.26 21.23-5.49 11-12.26 7.08S512 263.82 512 256z" class="colorffffff svgShape"/><path fill="#7ddcfb" class="color807dfb svgShape" d="M520.79 256.05L520.79 266.1 528.74 265.67 520.79 256.05z"/><path fill="url(#Y)" d="M706.85 395.87c0-1.75-1.16-3.5-3.46-4.83l-4.89-2.83a138.52 138.52 0 0 0-21.4-2.93c.4-1.08-.49-2.36-2.85-3.72-6.89-4-23.62-7.19-37.39-7.19s-19.34 3.22-12.46 7.19l3.81 2.2h-2.74c-13.77 0-19.35 3.22-12.46 7.19l39.25 22.66c3.92 2.27 11.34 4.26 19.41 5.45l31.72-18.32c2.31-1.37 3.46-3.12 3.46-4.87z" style="mix-blend-mode:multiply"/><path fill="#daf5da" d="M652.26 387.25a11 11 0 0 0-4.42-1.53c-.92-8.7-7-18.51-14.3-22.75-6.9-4-12.67-1.71-14.09 5a23.23 23.23 0 0 0-6.44-5.8c-6.89-4-12.46-.75-12.46 7.2s5.57 17.61 12.46 21.58l39.25 22.66c6.29 3.64 11.4.69 11.4-6.58s-5.11-16.15-11.4-19.78z" class="colordae0f5 svgShape"/><path fill="#7ddcfb" d="M627 359.87a21.28 21.28 0 0 0-4.25-3.35c-3.63-2.09-6.88-2.17-9.15-.64l-9.19 5.3c2.24-1.19 5.28-1 8.63 1a23.23 23.23 0 0 1 6.44 5.8 8.61 8.61 0 0 1 3.9-5.95z" class="color807dfb svgShape"/><path fill="url(#g)" d="M673.38 401.38c0-7.27-5.11-16.11-11.4-19.74a10.83 10.83 0 0 0-4.42-1.53l-9.72 5.61a11 11 0 0 1 4.42 1.53c6.29 3.63 11.4 12.47 11.4 19.74 0 3.62-1.27 6.17-3.32 7.37l9.58-5.54c2.13-1.17 3.46-3.74 3.46-7.44z"/><path fill="url(#Z)" d="M643.26 357.36c-4.08-2.35-7.76-2.51-10.38-.88l-5.89 3.4-3.64 2.12c2.61-1.51 6.21-1.3 10.19 1 7.33 4.24 13.38 14 14.3 22.75l9.72-5.61c-.92-8.73-6.97-18.54-14.3-22.78z"/><path fill="url(#aa)" d="M385.5 603.48c-6.78-3.92-23.27-7.09-36.82-7.09-2.47 0-4.66.11-6.57.3a11.28 11.28 0 0 0-1.2-.81c-5.37-3.1-18.42-5.61-29.15-5.61s-15.08 2.51-9.71 5.61l3.37 2c-10.64 0-14.93 2.52-9.59 5.6l42.37 24.42c3.71 2.13 11.07 4 18.81 4.93l23.69-13.68-1.06-.4c.66 0 1.29 0 1.9-.08l8.16-4.67a8.86 8.86 0 0 0-1.44-1 32.94 32.94 0 0 0-7.35-2.81c7.68-1.05 9.88-3.65 4.59-6.71z" style="mix-blend-mode:multiply"/><path fill="#daf5da" d="M338.2 605.5a9.94 9.94 0 0 0-2.76-1.13c-.39-6.26-4.74-13.53-10.06-16.6a8.84 8.84 0 0 0-4.86-1.36c-1.72-6.42-6.23-12.9-11.53-16-6.78-3.91-12.27-.74-12.27 7.08a19.85 19.85 0 0 0 .52 4.4 13.71 13.71 0 0 0-1.41-.93c-5.36-3.1-9.71-.59-9.71 5.61s4.35 13.73 9.71 16.82l42.37 24.51c5.36 3.09 9.7.58 9.7-5.6s-4.34-13.71-9.7-16.8z" class="colordae0f5 svgShape"/><path fill="url(#h)" d="M355 618.23c0-6.19-4.35-13.71-9.7-16.8a10.23 10.23 0 0 0-2.77-1.14l-7.05 4.08a9.94 9.94 0 0 1 2.76 1.13c5.36 3.09 9.7 10.61 9.7 16.8 0 3-1 5.19-2.76 6.22l6.93-4h.08c1.71-1.1 2.81-3.25 2.81-6.29z"/><path fill="url(#ab)" d="M316 566.38c-3.48-2-6.62-2.15-8.85-.75l-6.69 3.86c2.21-1.17 5.2-.94 8.49 1 5.3 3.06 9.81 9.54 11.53 16l7.05-4.08c-1.68-6.5-6.19-12.98-11.53-16.03z"/><path fill="url(#ac)" d="M332.43 583.7a8.86 8.86 0 0 0-4.86-1.37l-7.05 4.08a8.84 8.84 0 0 1 4.86 1.36c5.32 3.07 9.67 10.34 10.06 16.6l7.05-4.08c-.38-6.29-4.74-13.52-10.06-16.59z"/><path fill="#7ddcfb" d="M295.83 581a13.71 13.71 0 0 1 1.41.93 19.85 19.85 0 0 1-.52-4.4 14.36 14.36 0 0 1 .09-1.64 3.79 3.79 0 0 0-.68.3h-.05l-.1.06-6.9 4c1.74-.93 4.12-.77 6.75.75z" class="color807dfb svgShape"/><path fill="url(#ad)" d="M413 218.09h61.48l-62.34-36-49.85 28.64c-2.24 1.28-2.24 3.39 0 4.68 0 0 23.81 13.75 23.92 13.8l-3.63 1.31h5.84a11.08 11.08 0 0 0 5.59-1.48z" style="mix-blend-mode:multiply"/><path fill="#fff" d="M356.41 181.13a9 9 0 0 1 8.12 0l45.74 26.41c2.24 1.29 2.24 3.4 0 4.69l-23.6 13.63a9 9 0 0 1-8.12 0l-45.75-26.41c-2.23-1.29-2.23-3.4 0-4.69z" class="colorffffff svgShape"/><path fill="url(#ae)" d="M332.8 199.45l45.75 26.41a9 9 0 0 0 8.12 0l23.6-13.63a2.91 2.91 0 0 0 1.67-2.24v3.59a2.86 2.86 0 0 1-1.68 2.35l-23.6 13.63a9 9 0 0 1-8.12 0l-45.74-26.41a2.77 2.77 0 0 1-1.66-2.44v-3.5a2.89 2.89 0 0 0 1.66 2.24z"/><path fill="url(#af)" d="M381.36 194.85h-21.52a3 3 0 0 0 1.65 2.1l25.21 14.55-.18.4-4.34 2.5h24.35l4.34-2.5z" style="mix-blend-mode:multiply"/><path fill="#cef8ce" d="M355.93 190.2a38.94 38.94 0 0 0 1.84-12.41l3.25-1.88c0 .83 0 2.1-.11 3.69l26.37 15.23a37.12 37.12 0 0 1-5.1 19.56l-29.51-17z" class="colorced3f8 svgShape"/><path fill="#b4c6b4" class="colorc6b4bb svgShape" d="M357.77 177.79L387.28 194.83 390.53 192.95 361.02 175.91 357.77 177.79z"/><path fill="#bbe6bb" d="M382.18 214.39a37.12 37.12 0 0 0 5.1-19.56l3.25-1.88a43.59 43.59 0 0 1-4 18.94z" class="colorbbc0e6 svgShape"/><path fill="#d8f3d8" d="M385.66 206.57l3.48-2a44.49 44.49 0 0 0 1.14-6.28l-3.29 1.9a37.19 37.19 0 0 1-1.33 6.38z" style="mix-blend-mode:multiply" class="colord8def3 svgShape"/><path fill="#d7fdd7" d="M426.43 203.42v14.83c0 2.58-1.83 3.63-4.07 2.34L313 157.43a9 9 0 0 1-4.06-7v-14.86z" class="colord7ddfd svgShape"/><path fill="#bbe6bb" d="M426.44 218.25v-14.83l4.41-2.54v14.83a2.84 2.84 0 0 1-1.21 2.63l-4.22 2.42a3 3 0 0 0 1.02-2.51z" class="colorbbc0e6 svgShape"/><path fill="#fff" class="colorffffff svgShape" d="M312.97 137.92L422.38 201.08 422.38 127.75 312.97 64.58 312.97 137.92z"/><path fill="#3e93af" d="M422.37 123.06L313 59.9c-2.23-1.29-4.06-.24-4.06 2.34v73.33l4.06 2.35V64.58l109.4 63.17v73.33l4.06 2.34v-73.33a9 9 0 0 0-4.09-7.03z" class="color423eaf svgShape"/><path fill="url(#ag)" d="M317.37 57.35l109.41 63.17a9 9 0 0 1 4.06 7v73.33l-4.41 2.54v-73.3a9 9 0 0 0-4.07-7L313 59.9a3.12 3.12 0 0 0-2.43-.46l3.52-2c.71-.78 1.91-.87 3.28-.09z"/><path fill="#06fc06" d="M409.77 130.17c0-2.29 1.61-3.22 3.6-2.07a7.94 7.94 0 0 1 3.59 6.22c0 2.29-1.61 3.22-3.59 2.07a7.92 7.92 0 0 1-3.6-6.22z" class="colorfcba06 svgShape"/><path fill="#cef8ce" class="colorced3f8 svgShape" d="M409.15 137.03L417.57 141.9 417.57 144.94 409.15 140.08 409.15 137.03z"/><path fill="#cef8ce" class="colorced3f8 svgShape" d="M409.15 142.52L417.57 147.38 417.57 150.42 409.15 145.56 409.15 142.52z"/><path fill="#f1f6f1" class="colorf1f1f6 svgShape" d="M409.15 148.01L417.57 152.87 417.57 155.91 409.15 151.05 409.15 148.01z"/><path fill="#3eff3e" d="M350.3 99.19l-11.13-6.43c-1-.56-1.77-.1-1.77 1v43.93a8.5 8.5 0 0 0 3.85 6.67l48.91 28.24c2.12 1.22 3.84.23 3.84-2.22v-38.51a4 4 0 0 0-1.77-3.07L355 107.29z" class="colorffd03e svgShape"/><path fill="#fff" d="M358.77 134.56l1.87 1.08v-2.17l-1.87-1.08zm4 2.31l1.87 1.08v-2.17l-1.87-1.08zm4 2.3l1.88 1.09v-2.17l-1.89-1.09zm4 .14v2.17l1.88 1.08v-2.16z" class="colorffffff svgShape"/><path fill="#e8f9e8" d="M313.91 34.68l-7.72 4.45c-4.51 2.61-10.72-11.61-15.77-8.69l-13.53 7.81c-10.09 5.82-6.45-11.14-21.54-2.42-17.74 10.24-16.29 30.79-26.35 36.62l-13.53 7.81c-5 2.91-6.42 15-10.93 17.58l-7.73 4.45c-1.67 1-4.89 3.66-4.89 7.17l63.46-36.63 63.42-36.64c0-3.51-3.21-2.49-4.89-1.51zm458 475.45l-6.34 3.66c-3.7 2.14-8.8-9.54-13-7.14l-11.11 6.41c-8.29 4.79-5.3-9.14-17.69-2-14.57 8.41-13.38 25.29-21.66 30.08L691 547.56c-4.14 2.4-5.27 12.3-9 14.44l-6.34 3.66c-1.38.8-4 3-4 5.89l52.12-30.09 52.11-30.09c.04-2.88-2.6-2.04-3.98-1.24z" class="colore8edf9 svgShape"/><path fill="url(#ah)" d="M501 433.66c-8.36 0-15.79-.38-21.6-3.74-5.47-3.16-6.49-7.3-6.49-12.48l-31 17.88c-17.75 10.25-16.29 29.74-9.39 37.86 14.06 4 47.83 4.82 65.57-5.42l31-17.88c-8.36 0-15.79-.39-21.61-3.74-5.48-3.14-6.48-7.3-6.48-12.48z"/><path fill="#cef8ce" d="M417 449.41V458c0 5.85 1.91 11.22 4.78 14.61V464c-2.91-3.36-4.84-8.74-4.78-14.59z" class="colorced3f8 svgShape"/><path fill="#bbe6bb" d="M487.32 458.61c-17.75 10.24-51.51 9.4-65.58 5.42v8.59c14.07 4 47.83 4.82 65.58-5.42l31-17.88v-8.59z" class="colorbbc0e6 svgShape"/><path fill="#fff" d="M490.19 424.51c-8.36 0-15.8-.38-21.61-3.74-5.46-3.16-6.48-7.3-6.48-12.48l-31 17.88c-17.75 10.25-16.29 29.74-9.4 37.86 14.07 4 47.83 4.82 65.58-5.42l31-17.88c-8.36 0-15.8-.39-21.61-3.74-5.47-3.16-6.48-7.3-6.48-12.48z" class="colorffffff svgShape"/><path fill="#bbe6bb" d="M435.94 428.94c-9.53 5.51-12.52 14.13-12.18 21.54.32-6.85 3.59-14.34 12.18-19.3L457 419v-2.24z" class="colorbbc0e6 svgShape"/><path fill="url(#j)" d="M463.78 423.54a16.27 16.27 0 0 1-6.78-6.76V419a16.33 16.33 0 0 0 6.78 6.76c5.9 3.41 13 4.46 19.86 4.77v-2.24c-6.86-.29-13.96-1.29-19.86-4.75z"/><path fill="url(#ai)" d="M491.87 439.76c-5.7-3.29-7.63-7.32-8.23-11.45v2.24c.6 4.12 2.53 8.16 8.23 11.45a32.31 32.31 0 0 0 8.78 3.36l2.87-1.66a34.84 34.84 0 0 1-11.65-3.94z"/><path fill="#67c9e9" d="M463.78 425.78A16.33 16.33 0 0 1 457 419l-21.06 12.16c-8.59 5-11.86 12.45-12.18 19.3a21.42 21.42 0 0 0 3.16 10.54c.9.2 1.89.39 2.94.56l53.78-31.05c-6.86-.27-13.96-1.32-19.86-4.73z" class="color6b67e9 svgShape"/><path fill="#52aecc" d="M491.87 442c-5.7-3.29-7.63-7.33-8.23-11.45l-53.78 31.05c13.67 2.25 38.83 2.21 52.65-5.77l18.14-10.47a32.31 32.31 0 0 1-8.78-3.36z" class="color5652cc svgShape"/><path fill="#d1f3d1" d="M457 419a16.33 16.33 0 0 0 6.78 6.76c5.9 3.41 13 4.46 19.86 4.77.6 4.12 2.53 8.16 8.23 11.45a32.31 32.31 0 0 0 8.78 3.36l-2.31 1.33v-.06a32.37 32.37 0 0 1-8.79-3.36c-5.7-3.29-7.63-7.33-8.22-11.45-6.86-.31-14-1.36-19.87-4.77a16.3 16.3 0 0 1-6.74-6.71z" style="mix-blend-mode:multiply" class="colord1d7f3 svgShape"/></g></svg>