<svg viewBox="0 0 880 761" xmlns="http://www.w3.org/2000/svg" xmlns:xlink="http://www.w3.org/1999/xlink"><linearGradient id="a" gradientUnits="userSpaceOnUse" x1="269.074" x2="269.074" y1="279.92" y2="139.81"><stop offset="0" stop-color="#fff"/><stop offset=".259" stop-color="#f9fdf9"/><stop offset="1" stop-color="#eaf7ea"/></linearGradient><linearGradient id="b" gradientUnits="userSpaceOnUse" x1="171.42" x2="226.055" y1="552.259" y2="552.259"><stop offset=".453" stop-color="#c6e3c6"/><stop offset="1" stop-color="#fff"/></linearGradient><linearGradient id="c" gradientUnits="userSpaceOnUse" x1="158.902" x2="212.416" y1="556.533" y2="556.533"><stop offset="0" stop-color="#42f242"/><stop offset="1" stop-color="#2dd62d"/></linearGradient><linearGradient id="d" x1="177.402" x2="189.147" xlink:href="#c" y1="550.431" y2="550.431"/><linearGradient id="e" gradientUnits="userSpaceOnUse" x1="197.925" x2="212.851" y1="541.319" y2="548.551"><stop offset="0" stop-color="#c6e3c6"/><stop offset="1" stop-color="#fff"/></linearGradient><linearGradient id="f" x1="156.318" x2="209.832" xlink:href="#c" y1="543.403" y2="543.403"/><linearGradient id="g" x1="174.818" x2="186.562" xlink:href="#c" y1="537.299" y2="537.299"/><linearGradient id="h" x1="168.392" x2="221.905" xlink:href="#c" y1="529.11" y2="529.11"/><linearGradient id="i" x1="186.892" x2="198.636" xlink:href="#c" y1="523.007" y2="523.007"/><linearGradient id="j" gradientTransform="matrix(.9701 .1637 -.1623 .9696 102.415 -40.556)" gradientUnits="userSpaceOnUse" x1="287.595" x2="618.346" y1="517.923" y2="517.923"><stop offset="0" stop-color="#dcf4dc"/><stop offset=".5" stop-color="#f0faf0"/><stop offset="1" stop-color="#fff"/></linearGradient><linearGradient id="k" gradientUnits="userSpaceOnUse" x1="453.356" x2="744.472" y1="507.846" y2="507.846"><stop offset="0" stop-color="#d3f2d3"/><stop offset=".308" stop-color="#def5de"/><stop offset=".854" stop-color="#fcfefc"/><stop offset=".894" stop-color="#fff"/></linearGradient><linearGradient id="l" gradientUnits="userSpaceOnUse" x1="615.567" x2="290.623" y1="457.934" y2="457.934"><stop offset="0" stop-color="#a5cea5"/><stop offset="1" stop-color="#d0f6d0"/></linearGradient><linearGradient id="m" gradientUnits="userSpaceOnUse" x1="348.202" x2="453.356" y1="329.732" y2="329.732"><stop offset="0" stop-color="#f2f7f2"/><stop offset=".561" stop-color="#f5f9f5"/><stop offset=".993" stop-color="#fff"/><stop offset="1" stop-color="#fff"/></linearGradient><linearGradient id="n" x1="615.567" x2="290.624" xlink:href="#l" y1="512.515" y2="512.515"/><linearGradient id="o" gradientUnits="userSpaceOnUse" x1="379.792" x2="379.792" y1="450.256" y2="411.358"><stop offset="0" stop-color="#f2f7f2"/><stop offset="1" stop-color="#dcf4dc"/></linearGradient><linearGradient id="p" gradientUnits="userSpaceOnUse" x1="379.792" x2="379.792" y1="460.583" y2="411.358"><stop offset="0" stop-color="#f2f7f2"/><stop offset="1" stop-color="#fff"/></linearGradient><linearGradient id="q" x1="615.567" x2="290.624" xlink:href="#l" y1="530.504" y2="530.504"/><linearGradient id="r" x1="439.699" x2="439.699" xlink:href="#o" y1="542.317" y2="456.673"/><linearGradient id="s" gradientUnits="userSpaceOnUse" x1="501.909" x2="501.909" y1="549.261" y2="456.673"><stop offset="0" stop-color="#f2f7f2"/><stop offset=".553" stop-color="#f6f9f6"/><stop offset="1" stop-color="#fff"/></linearGradient><linearGradient id="t" gradientUnits="userSpaceOnUse" x1="453.356" x2="615.141" y1="400.991" y2="400.991"><stop offset="0" stop-color="#d0f6d0"/><stop offset=".369" stop-color="#d3f6d3"/><stop offset=".675" stop-color="#def6de"/><stop offset=".958" stop-color="#eff7ef"/><stop offset="1" stop-color="#f2f7f2"/></linearGradient><linearGradient id="u" gradientUnits="userSpaceOnUse" x1="453.356" x2="581.127" y1="400.991" y2="400.991"><stop offset="0" stop-color="#fff"/><stop offset="1" stop-color="#f2f7f2"/></linearGradient><linearGradient id="v" gradientUnits="userSpaceOnUse" x1="453.356" x2="576.641" y1="400.991" y2="400.991"><stop offset="0" stop-color="#e1f4e1"/><stop offset="1" stop-color="#f2f7f2"/></linearGradient><linearGradient id="w" gradientUnits="userSpaceOnUse" x1="453.356" x2="490.72" y1="445.344" y2="445.344"><stop offset="0" stop-color="#d3f2d3"/><stop offset=".276" stop-color="#ddf4dd"/><stop offset="1" stop-color="#f2f7f2"/></linearGradient><linearGradient id="x" gradientUnits="userSpaceOnUse" x1="499.067" x2="553.98" y1="500.377" y2="500.377"><stop offset=".331" stop-color="#c6e4c6"/><stop offset=".592" stop-color="#d9edd9"/><stop offset="1" stop-color="#fff"/></linearGradient><linearGradient id="y" gradientUnits="userSpaceOnUse" x1="511.39" x2="527.98" y1="494.034" y2="494.034"><stop offset="0" stop-color="#bde0bd"/><stop offset="1" stop-color="#def6de"/></linearGradient><linearGradient id="z" gradientUnits="userSpaceOnUse" x1="506.705" x2="517.288" y1="506.257" y2="506.257"><stop offset="0" stop-color="#bde0bd"/><stop offset="1" stop-color="#d0f2d0"/></linearGradient><linearGradient id="A" gradientTransform="matrix(-.50001511 .86601668 -.86601668 -.50001511 1185.442805 545.688071)" gradientUnits="userSpaceOnUse" x1="292.486" x2="297.704" y1="585.63" y2="594.356"><stop offset="0" stop-color="#d0f2d0"/><stop offset="1" stop-color="#bde0bd"/></linearGradient><linearGradient id="B" gradientUnits="userSpaceOnUse" x1="533.067" x2="540.284" y1="498.024" y2="498.024"><stop offset=".404" stop-color="#bde0bd"/><stop offset="1" stop-color="#d0f2d0"/></linearGradient><linearGradient id="C" gradientUnits="userSpaceOnUse" x1="724.061" x2="752.454" y1="404.465" y2="404.465"><stop offset="0" stop-color="#c6e4c6"/><stop offset=".172" stop-color="#d7ecd7"/><stop offset=".467" stop-color="#edf6ed"/><stop offset=".749" stop-color="#fafdfa"/><stop offset="1" stop-color="#fff"/></linearGradient><linearGradient id="D" x1="349.695" x2="382.857" xlink:href="#C" y1="351.78" y2="351.78"/><linearGradient id="E" x1="762.175" x2="783.394" xlink:href="#C" y1="458.935" y2="458.935"/><linearGradient id="F" x1="681.382" x2="729.094" xlink:href="#C" y1="425.719" y2="425.719"/><linearGradient id="G" gradientUnits="userSpaceOnUse" x1="300.234" x2="324.584" y1="581.818" y2="581.818"><stop offset="0" stop-color="#c6e7c6"/><stop offset=".077" stop-color="#ceeace"/><stop offset=".398" stop-color="#e9f6e9"/><stop offset=".682" stop-color="#f9fdf9"/><stop offset=".899" stop-color="#fff"/></linearGradient><linearGradient id="H" x1="323.494" x2="347.843" xlink:href="#G" y1="595.247" y2="595.247"/><linearGradient id="I" x1="292.097" x2="318.137" xlink:href="#G" y1="589.854" y2="589.854"/><linearGradient id="J" gradientTransform="matrix(-1 0 0 1 1408.994 0)" gradientUnits="userSpaceOnUse" x1="1107.963" x2="1120.685" y1="588.343" y2="588.343"><stop offset="0" stop-color="#4190aa"/><stop offset=".097" stop-color="#3d8aa3"/><stop offset=".692" stop-color="#25657a"/><stop offset="1" stop-color="#1c586b"/></linearGradient><linearGradient id="K" gradientUnits="userSpaceOnUse" x1="288.995" x2="303.581" y1="561.481" y2="561.481"><stop offset="0" stop-color="#4190aa"/><stop offset=".126" stop-color="#3a859e"/><stop offset=".471" stop-color="#2a6c82"/><stop offset=".774" stop-color="#205d71"/><stop offset="1" stop-color="#1c586b"/></linearGradient><linearGradient id="L" x1="1079.111" x2="1091.833" xlink:href="#J" y1="578.36" y2="578.36"/><linearGradient id="M" gradientUnits="userSpaceOnUse" x1="289.94" x2="324.714" y1="557.534" y2="557.534"><stop offset="0" stop-color="#4190aa"/><stop offset=".558" stop-color="#2b6e84"/><stop offset="1" stop-color="#1c586b"/></linearGradient><linearGradient id="N" gradientTransform="matrix(-.99841337 -.05630943 -.05630943 .99841337 1438.115062 63.167211)" gradientUnits="userSpaceOnUse" x1="1096.745" x2="1119.584" y1="527.629" y2="527.629"><stop offset="0" stop-color="#2dd62d"/><stop offset=".027" stop-color="#2ed72e"/><stop offset=".671" stop-color="#4fee4f"/><stop offset="1" stop-color="#5cf75c"/></linearGradient><linearGradient id="O" gradientUnits="userSpaceOnUse" x1="306.905" x2="345.699" y1="522.713" y2="522.713"><stop offset="0" stop-color="#5cf75c"/><stop offset=".051" stop-color="#58f558"/><stop offset=".439" stop-color="#41e441"/><stop offset=".769" stop-color="#32da32"/><stop offset="1" stop-color="#2dd62d"/></linearGradient><linearGradient id="P" x1="715.503" x2="757.147" xlink:href="#G" y1="545.253" y2="545.253"/><linearGradient id="Q" x1="726.643" x2="768.285" xlink:href="#G" y1="533.879" y2="533.879"/><linearGradient id="R" gradientTransform="matrix(-1 0 0 1 1442 0)" gradientUnits="userSpaceOnUse" x1="715.519" x2="709.999" y1="536.514" y2="524.356"><stop offset="0" stop-color="#4190aa"/><stop offset=".481" stop-color="#2e738a"/><stop offset="1" stop-color="#1c586b"/></linearGradient><linearGradient id="S" gradientTransform="matrix(-1 0 0 1 1442 0)" gradientUnits="userSpaceOnUse" x1="716.104" x2="712.449" y1="536.119" y2="524.297"><stop offset="0" stop-color="#1c586b"/><stop offset=".519" stop-color="#2e738a"/><stop offset="1" stop-color="#4190aa"/></linearGradient><linearGradient id="T" gradientTransform="matrix(.99131681 -.13149515 .13149515 .99131681 819.097755 30.611259)" gradientUnits="userSpaceOnUse" x1="-174.155" x2="-152.064" y1="459.22" y2="459.22"><stop offset="0" stop-color="#31788f"/><stop offset=".278" stop-color="#286a80"/><stop offset=".68" stop-color="#1f5c70"/><stop offset="1" stop-color="#1c586b"/></linearGradient><linearGradient id="U" x1="721.118" x2="725.631" xlink:href="#S" y1="548.032" y2="542.662"/><linearGradient id="V" gradientUnits="userSpaceOnUse" x1="714.389" x2="729.675" y1="512.118" y2="515.714"><stop offset="0" stop-color="#55aac6"/><stop offset=".637" stop-color="#2f7389"/><stop offset="1" stop-color="#1c586b"/></linearGradient><linearGradient id="W" gradientTransform="matrix(-1 0 0 1 1442 0)" gradientUnits="userSpaceOnUse" x1="725.906" x2="735.625" y1="462.939" y2="462.939"><stop offset="0" stop-color="#6ac4e2"/><stop offset="1" stop-color="#7fd7f4"/></linearGradient><linearGradient id="X" gradientUnits="userSpaceOnUse" x1="732.548" x2="708.312" y1="471.755" y2="471.755"><stop offset="0" stop-color="#4190aa"/><stop offset="1" stop-color="#6ac4e2"/></linearGradient><linearGradient id="Y" gradientTransform="matrix(-1 0 0 1 1442 0)" gradientUnits="userSpaceOnUse" x1="709.254" x2="728.931" y1="468.463" y2="468.463"><stop offset="0" stop-color="#55aac6"/><stop offset="1" stop-color="#7fd7f4"/></linearGradient><linearGradient id="Z" gradientTransform="matrix(-1 0 0 1 1932.901 0)" gradientUnits="userSpaceOnUse" x1="1332.055" x2="1344.67" y1="402.456" y2="402.456"><stop offset="0" stop-color="#55a4be"/><stop offset=".644" stop-color="#3d8298"/><stop offset="1" stop-color="#337489"/></linearGradient><linearGradient id="aa" gradientTransform="matrix(-1 0 0 1 1932.901 0)" gradientUnits="userSpaceOnUse" x1="1336.722" x2="1370.076" y1="387.075" y2="387.075"><stop offset="0" stop-color="#337489"/><stop offset=".153" stop-color="#2c6a7e"/><stop offset=".478" stop-color="#215a6d"/><stop offset=".719" stop-color="#1d5567"/></linearGradient><linearGradient id="ab" x1="1322.336" x2="1334.952" xlink:href="#Z" y1="409.096" y2="409.096"/><linearGradient id="ac" gradientTransform="matrix(-1 0 0 1 1932.901 0)" gradientUnits="userSpaceOnUse" x1="1327.053" x2="1375.861" y1="392.19" y2="392.19"><stop offset=".287" stop-color="#337489"/><stop offset="1" stop-color="#418ba3"/></linearGradient><linearGradient id="ad" x1="453.356" x2="615.141" xlink:href="#t" y1="404.115" y2="404.115"/><linearGradient id="ae" gradientTransform="matrix(-1 0 0 1 1932.901 0)" gradientUnits="userSpaceOnUse" x1="1322.671" x2="1338.131" y1="374.938" y2="348.162"><stop offset=".321" stop-color="#31788f"/><stop offset=".384" stop-color="#4190aa"/></linearGradient><linearGradient id="af" gradientTransform="translate(1567.373)" gradientUnits="userSpaceOnUse" x1="-997.536" x2="-963.222" y1="380.747" y2="380.747"><stop offset=".562" stop-color="#6c6"/><stop offset=".612" stop-color="#d0f2d0"/></linearGradient><linearGradient id="ag" gradientTransform="matrix(-1 0 0 1 1932.901 0)" gradientUnits="userSpaceOnUse" x1="1349.178" x2="1361.16" y1="374.432" y2="374.432"><stop offset="0" stop-color="#c4e5c4"/><stop offset=".478" stop-color="#eaf6ea"/><stop offset=".804" stop-color="#fff"/></linearGradient><linearGradient id="ah" gradientTransform="matrix(-1 0 0 1 1932.901 0)" gradientUnits="userSpaceOnUse" x1="1347.129" x2="1370.684" y1="360.509" y2="360.509"><stop offset="0" stop-color="#aff6af"/><stop offset=".023" stop-color="#adf5ad"/><stop offset=".299" stop-color="#9dec9d"/><stop offset=".605" stop-color="#93e793"/><stop offset="1" stop-color="#90e590"/></linearGradient><linearGradient id="ai" gradientTransform="matrix(-1 0 0 1 1932.901 0)" gradientUnits="userSpaceOnUse" x1="1353.741" x2="1375.973" y1="368.584" y2="368.584"><stop offset="0" stop-color="#2dd62d"/><stop offset=".231" stop-color="#31d931"/><stop offset=".534" stop-color="#3ee23e"/><stop offset=".875" stop-color="#53f153"/><stop offset="1" stop-color="#5cf75c"/></linearGradient><linearGradient id="aj" x1="1338.625" x2="1349.015" xlink:href="#ag" y1="382.524" y2="377.481"/><linearGradient id="ak" gradientTransform="matrix(-.82922296 -.55891795 -.55891795 .82922296 2067.705272 253.691933)" gradientUnits="userSpaceOnUse" x1="1150.084" x2="1185.307" y1="921.916" y2="921.916"><stop offset="0" stop-color="#aff6af"/><stop offset=".405" stop-color="#acf4ac"/><stop offset=".702" stop-color="#a3efa3"/><stop offset=".965" stop-color="#93e693"/><stop offset="1" stop-color="#90e590"/></linearGradient><linearGradient id="al" gradientUnits="userSpaceOnUse" x1="558.607" x2="603.453" y1="394.162" y2="394.162"><stop offset="0" stop-color="#c4e5c4"/><stop offset=".523" stop-color="#e1f2e1"/><stop offset="1" stop-color="#fff"/></linearGradient><linearGradient id="am" gradientUnits="userSpaceOnUse" x1="384.333" x2="422.781" y1="459.497" y2="459.497"><stop offset="0" stop-color="#dcf4dc"/><stop offset=".559" stop-color="#f2fbf2"/><stop offset="1" stop-color="#fff"/></linearGradient><linearGradient id="an" gradientTransform="matrix(.99836285 -.05719811 .05719811 .99836285 221.494054 9.451315)" gradientUnits="userSpaceOnUse" x1="154.625" x2="144.856" y1="460.028" y2="450.259"><stop offset="0" stop-color="#1c586b"/><stop offset=".194" stop-color="#1a5163"/><stop offset="1" stop-color="#123844"/></linearGradient><linearGradient id="ao" gradientTransform="matrix(-.9999448 .01050669 .01050669 .9999448 770.462742 10.961076)" gradientUnits="userSpaceOnUse" x1="372.901" x2="389.587" y1="405.641" y2="409.567"><stop offset="0" stop-color="#55a9c4"/><stop offset=".37" stop-color="#428da6"/><stop offset="1" stop-color="#1c586b"/></linearGradient><linearGradient id="ap" gradientTransform="translate(245.974)" x1="143.442" x2="133.673" xlink:href="#an" y1="467.913" y2="458.143"/><linearGradient id="aq" gradientTransform="matrix(-.99891359 -.04660086 -.04660086 .99891359 821.333077 8.016512)" gradientUnits="userSpaceOnUse" x1="408.486" x2="427.003" y1="439.769" y2="444.126"><stop offset="0" stop-color="#418ba3"/><stop offset=".563" stop-color="#2e7085"/><stop offset="1" stop-color="#1c586b"/></linearGradient><linearGradient id="ar" gradientUnits="userSpaceOnUse" x1="392.37" x2="399.343" y1="375.379" y2="375.379"><stop offset="0" stop-color="#f7fcf7"/><stop offset=".695" stop-color="#ddf8dd"/><stop offset="1" stop-color="#d0f6d0"/></linearGradient><linearGradient id="as" x1="396.852" x2="407.273" xlink:href="#ar" y1="386.463" y2="386.463"/><linearGradient id="at" gradientTransform="matrix(-1 0 0 1 794.013 0)" gradientUnits="userSpaceOnUse" x1="419.491" x2="395.553" y1="401.199" y2="401.199"><stop offset="0" stop-color="#f7fcf7"/><stop offset="1" stop-color="#d0f6d0"/></linearGradient><linearGradient id="au" gradientUnits="userSpaceOnUse" x1="382.613" x2="393.929" y1="368.06" y2="368.06"><stop offset="0" stop-color="#55aac6"/><stop offset="1" stop-color="#31788f"/></linearGradient><linearGradient id="av" gradientUnits="userSpaceOnUse" x1="387.129" x2="391.805" y1="362.955" y2="362.955"><stop offset="0" stop-color="#dcf4dc"/><stop offset="1" stop-color="#fff"/></linearGradient><linearGradient id="aw" x1="369.081" x2="383.741" xlink:href="#ar" y1="387.551" y2="387.551"/><linearGradient id="ax" gradientUnits="userSpaceOnUse" x1="537.064" x2="466.063" y1="181.095" y2="155.095"><stop offset="0" stop-color="#31788f"/><stop offset="1" stop-color="#7fd6f2"/></linearGradient><linearGradient id="ay" gradientTransform="matrix(.88370029 .46805321 -.46805321 .88370029 -215.019074 -430.474478)" x1="1006.671" x2="1011.184" xlink:href="#S" y1="307.272" y2="301.902"/><linearGradient id="az" gradientUnits="userSpaceOnUse" x1="504.934" x2="539.544" y1="284.19" y2="284.19"><stop offset="0" stop-color="#1c586b"/><stop offset=".231" stop-color="#1f5c70"/><stop offset=".51" stop-color="#286a7f"/><stop offset=".812" stop-color="#367f97"/><stop offset="1" stop-color="#4190aa"/></linearGradient><linearGradient id="aA" gradientTransform="matrix(.88370029 .46805321 -.46805321 .88370029 -215.019074 -430.474478)" x1="1002.239" x2="1006.752" xlink:href="#S" y1="316.695" y2="311.325"/><linearGradient id="aB" gradientUnits="userSpaceOnUse" x1="498.114" x2="531.216" y1="288.92" y2="288.92"><stop offset="0" stop-color="#1c586b"/><stop offset=".505" stop-color="#2e7389"/><stop offset="1" stop-color="#4190aa"/></linearGradient><linearGradient id="aC" gradientTransform="matrix(-1 0 0 1 -334.452 0)" x1="-877.382" x2="-843.069" xlink:href="#af" y1="277.731" y2="277.731"/><linearGradient id="aD" gradientUnits="userSpaceOnUse" x1="529.717" x2="509.071" y1="259.255" y2="238.343"><stop offset="0" stop-color="#bde4bd"/><stop offset="1" stop-color="#d0f6d0"/></linearGradient><linearGradient id="aE" gradientTransform="matrix(-1 0 0 1 75.162 0)" gradientUnits="userSpaceOnUse" x1="-420.867" x2="-444.382" y1="251.178" y2="251.178"><stop offset="0" stop-color="#f7fcf7"/><stop offset=".582" stop-color="#e2f9e2"/><stop offset="1" stop-color="#d0f6d0"/></linearGradient><linearGradient id="aF" gradientUnits="userSpaceOnUse" x1="519.305" x2="493.743" y1="265.484" y2="239.594"><stop offset="0" stop-color="#bde4bd"/><stop offset=".938" stop-color="#daf3da"/><stop offset="1" stop-color="#dcf4dc"/></linearGradient><linearGradient id="aG" gradientUnits="userSpaceOnUse" x1="522.88" x2="547.936" y1="273.021" y2="273.021"><stop offset=".175" stop-color="#4190aa"/><stop offset=".198" stop-color="#54a8c4"/><stop offset=".227" stop-color="#6ac4e2"/></linearGradient><linearGradient id="aH" gradientUnits="userSpaceOnUse" x1="744.472" x2="744.472" y1="721" y2="613.752"><stop offset="0" stop-color="#fff"/><stop offset=".856" stop-color="#e1f3e1"/><stop offset="1" stop-color="#dcf1dc"/></linearGradient><linearGradient id="aI" x1="86.753" x2="86.753" xlink:href="#a" y1="675.009" y2="563.693"/><linearGradient id="aJ" gradientTransform="translate(42.41)" gradientUnits="userSpaceOnUse" x1="445.38" x2="506.227" y1="647.728" y2="647.728"><stop offset="0" stop-color="#c6e4c6"/><stop offset=".229" stop-color="#ddefdd"/><stop offset=".534" stop-color="#f6fbf6"/><stop offset=".719" stop-color="#fff"/></linearGradient><linearGradient id="aK" gradientTransform="translate(97.637)" x1="404.968" x2="449.942" xlink:href="#aJ" y1="656.281" y2="656.281"/><linearGradient id="aL" gradientTransform="translate(152.864)" x1="364.555" x2="399.123" xlink:href="#aJ" y1="664.834" y2="664.834"/><radialGradient id="aM" cx="829" cy="714" gradientUnits="userSpaceOnUse" r="693.498"><stop offset="0" stop-color="#e1f4e1"/><stop offset=".413" stop-color="#e4f5e4"/><stop offset=".711" stop-color="#edf8ed"/><stop offset=".974" stop-color="#fdfefd"/><stop offset="1" stop-color="#fff"/></radialGradient><path d="m808.276 105.901a3.72 3.72 0 0 0 3.365 0 1.026 1.026 0 0 0 0-1.943 3.72 3.72 0 0 0 -3.365 0 1.025 1.025 0 0 0 0 1.943zm0 50.455a3.72 3.72 0 0 0 3.365 0 1.026 1.026 0 0 0 0-1.942 3.72 3.72 0 0 0 -3.365 0 1.026 1.026 0 0 0 0 1.942zm-43.696-25.226a3.719 3.719 0 0 0 3.365 0 1.025 1.025 0 0 0 0-1.943 3.719 3.719 0 0 0 -3.365 0 1.026 1.026 0 0 0 0 1.943zm43.696 75.683a3.72 3.72 0 0 0 3.365 0 1.026 1.026 0 0 0 0-1.943 3.72 3.72 0 0 0 -3.365 0 1.026 1.026 0 0 0 0 1.943zm-43.695-25.228a3.719 3.719 0 0 0 3.365 0 1.025 1.025 0 0 0 0-1.943 3.719 3.719 0 0 0 -3.365 0 1.025 1.025 0 0 0 0 1.943zm-43.696-25.228a3.72 3.72 0 0 0 3.365 0 1.026 1.026 0 0 0 0-1.943 3.72 3.72 0 0 0 -3.365 0 1.026 1.026 0 0 0 0 1.943zm87.391 100.91a3.719 3.719 0 0 0 3.366 0 1.025 1.025 0 0 0 0-1.942 3.719 3.719 0 0 0 -3.366 0 1.026 1.026 0 0 0 0 1.943zm-43.695-25.227a3.72 3.72 0 0 0 3.365 0 1.025 1.025 0 0 0 0-1.943 3.72 3.72 0 0 0 -3.365 0 1.025 1.025 0 0 0 0 1.943zm-43.696-25.227a3.72 3.72 0 0 0 3.365 0 1.026 1.026 0 0 0 0-1.943 3.718 3.718 0 0 0 -3.365 0 1.026 1.026 0 0 0 0 1.943zm-43.695-25.228a3.719 3.719 0 0 0 3.365 0 1.025 1.025 0 0 0 0-1.943 3.72 3.72 0 0 0 -3.366 0 1.025 1.025 0 0 0 0 1.943zm131.087 126.138a3.719 3.719 0 0 0 3.365 0 1.025 1.025 0 0 0 0-1.943 3.719 3.719 0 0 0 -3.365 0 1.025 1.025 0 0 0 0 1.943zm-43.696-25.228a3.719 3.719 0 0 0 3.365 0 1.025 1.025 0 0 0 0-1.942 3.72 3.72 0 0 0 -3.365 0 1.025 1.025 0 0 0 0 1.942zm-43.696-25.227a3.72 3.72 0 0 0 3.366 0 1.026 1.026 0 0 0 0-1.943 3.72 3.72 0 0 0 -3.366 0 1.026 1.026 0 0 0 0 1.943zm-43.695-25.228a3.719 3.719 0 0 0 3.365 0 1.025 1.025 0 0 0 0-1.943 3.719 3.719 0 0 0 -3.365 0 1.025 1.025 0 0 0 0 1.943zm-43.696-25.228a3.719 3.719 0 0 0 3.365 0 1.026 1.026 0 0 0 0-1.943 3.72 3.72 0 0 0 -3.365 0 1.026 1.026 0 0 0 0 1.943zm174.783 151.366a3.719 3.719 0 0 0 3.365 0 1.025 1.025 0 0 0 0-1.943 3.719 3.719 0 0 0 -3.365 0 1.025 1.025 0 0 0 0 1.943zm-43.696-25.227a3.72 3.72 0 0 0 3.366 0 1.026 1.026 0 0 0 0-1.943 3.72 3.72 0 0 0 -3.366 0 1.026 1.026 0 0 0 0 1.943zm-43.695-25.228a3.72 3.72 0 0 0 3.365 0 1.026 1.026 0 0 0 0-1.943 3.72 3.72 0 0 0 -3.365 0 1.026 1.026 0 0 0 0 1.943zm-43.696-25.228a3.719 3.719 0 0 0 3.365 0 1.026 1.026 0 0 0 0-1.943 3.719 3.719 0 0 0 -3.365 0 1.026 1.026 0 0 0 0 1.943zm-43.696-25.227a3.72 3.72 0 0 0 3.366 0 1.026 1.026 0 0 0 0-1.943 3.72 3.72 0 0 0 -3.366 0 1.026 1.026 0 0 0 0 1.943zm-43.694-25.229a3.719 3.719 0 0 0 3.365 0 1.026 1.026 0 0 0 0-1.943 3.719 3.719 0 0 0 -3.365 0 1.026 1.026 0 0 0 0 1.943zm218.478 176.593a3.719 3.719 0 0 0 3.365 0 1.025 1.025 0 0 0 0-1.942 3.719 3.719 0 0 0 -3.365 0 1.025 1.025 0 0 0 0 1.942zm-43.695-25.227a3.719 3.719 0 0 0 3.365 0 1.026 1.026 0 0 0 0-1.943 3.72 3.72 0 0 0 -3.366 0 1.026 1.026 0 0 0 0 1.943zm-43.696-25.228a3.72 3.72 0 0 0 3.365 0 1.025 1.025 0 0 0 0-1.943 3.719 3.719 0 0 0 -3.365 0 1.025 1.025 0 0 0 0 1.943zm-43.697-25.227a3.719 3.719 0 0 0 3.365 0 1.026 1.026 0 0 0 0-1.942 3.719 3.719 0 0 0 -3.365 0 1.026 1.026 0 0 0 0 1.942zm-43.695-25.227a3.719 3.719 0 0 0 3.365 0 1.025 1.025 0 0 0 0-1.943 3.72 3.72 0 0 0 -3.365 0 1.025 1.025 0 0 0 0 1.943zm-43.696-25.228a3.719 3.719 0 0 0 3.365 0 1.025 1.025 0 0 0 0-1.943 3.719 3.719 0 0 0 -3.365 0 1.025 1.025 0 0 0 0 1.943zm-43.696-25.228a3.719 3.719 0 0 0 3.366 0 1.026 1.026 0 0 0 0-1.942 3.719 3.719 0 0 0 -3.366 0 1.026 1.026 0 0 0 0 1.942zm262.175 201.822a3.719 3.719 0 0 0 3.365 0 1.026 1.026 0 0 0 0-1.943 3.719 3.719 0 0 0 -3.365 0 1.026 1.026 0 0 0 0 1.943zm-43.696-25.228a3.719 3.719 0 0 0 3.365 0 1.025 1.025 0 0 0 0-1.943 3.719 3.719 0 0 0 -3.365 0 1.025 1.025 0 0 0 0 1.943zm-43.696-25.228a3.719 3.719 0 0 0 3.365 0 1.025 1.025 0 0 0 0-1.942 3.719 3.719 0 0 0 -3.365 0 1.025 1.025 0 0 0 0 1.942zm-43.695-25.227a3.719 3.719 0 0 0 3.365 0 1.026 1.026 0 0 0 0-1.943 3.719 3.719 0 0 0 -3.365 0 1.026 1.026 0 0 0 0 1.943zm-43.696-25.228a3.72 3.72 0 0 0 3.365 0 1.025 1.025 0 0 0 0-1.943 3.719 3.719 0 0 0 -3.365 0 1.025 1.025 0 0 0 0 1.943zm-43.696-25.228a3.719 3.719 0 0 0 3.365 0 1.026 1.026 0 0 0 0-1.943 3.718 3.718 0 0 0 -3.365 0 1.026 1.026 0 0 0 0 1.943zm-43.695-25.227a3.72 3.72 0 0 0 3.365 0 1.026 1.026 0 0 0 0-1.943 3.72 3.72 0 0 0 -3.365 0 1.026 1.026 0 0 0 0 1.943zm-43.696-25.228a3.72 3.72 0 0 0 3.365 0 1.026 1.026 0 0 0 0-1.943 3.72 3.72 0 0 0 -3.365 0 1.026 1.026 0 0 0 0 1.943zm305.87 227.049a3.72 3.72 0 0 0 3.365 0 1.026 1.026 0 0 0 0-1.943 3.72 3.72 0 0 0 -3.365 0 1.026 1.026 0 0 0 0 1.943zm-43.696-25.228a3.719 3.719 0 0 0 3.365 0 1.025 1.025 0 0 0 0-1.943 3.719 3.719 0 0 0 -3.365 0 1.025 1.025 0 0 0 0 1.943zm-43.696-25.227a3.72 3.72 0 0 0 3.366 0 1.025 1.025 0 0 0 0-1.943 3.72 3.72 0 0 0 -3.366 0 1.025 1.025 0 0 0 0 1.943zm-43.695-25.228a3.72 3.72 0 0 0 3.365 0 1.026 1.026 0 0 0 0-1.943 3.72 3.72 0 0 0 -3.365 0 1.026 1.026 0 0 0 0 1.943zm-43.696-25.228a3.718 3.718 0 0 0 3.365 0 1.025 1.025 0 0 0 0-1.943 3.72 3.72 0 0 0 -3.365 0 1.025 1.025 0 0 0 0 1.943zm-43.695-25.228a3.72 3.72 0 0 0 3.365 0 1.026 1.026 0 0 0 0-1.943 3.72 3.72 0 0 0 -3.365 0 1.026 1.026 0 0 0 0 1.943zm-43.696-25.228a3.719 3.719 0 0 0 3.365 0 1.026 1.026 0 0 0 0-1.943 3.719 3.719 0 0 0 -3.365 0 1.025 1.025 0 0 0 0 1.943zm-43.696-25.228a3.72 3.72 0 0 0 3.365 0 1.026 1.026 0 0 0 0-1.943 3.72 3.72 0 0 0 -3.365 0 1.026 1.026 0 0 0 0 1.943zm-43.695-25.228a3.72 3.72 0 0 0 3.365 0 1.025 1.025 0 0 0 0-1.942 3.719 3.719 0 0 0 -3.365 0 1.025 1.025 0 0 0 0 1.942zm349.565 252.277a3.72 3.72 0 0 0 3.365 0 1.026 1.026 0 0 0 0-1.943 3.719 3.719 0 0 0 -3.365 0 1.026 1.026 0 0 0 0 1.943zm-43.696-25.228a3.719 3.719 0 0 0 3.366 0 1.025 1.025 0 0 0 0-1.942 3.719 3.719 0 0 0 -3.365 0 1.025 1.025 0 0 0 0 1.942zm-43.695-25.227a3.72 3.72 0 0 0 3.365 0 1.026 1.026 0 0 0 0-1.943 3.72 3.72 0 0 0 -3.365 0 1.026 1.026 0 0 0 0 1.943zm-43.696-25.228a3.719 3.719 0 0 0 3.365 0 1.026 1.026 0 0 0 0-1.943 3.719 3.719 0 0 0 -3.365 0 1.026 1.026 0 0 0 0 1.943zm-43.696-25.228a3.72 3.72 0 0 0 3.366 0 1.026 1.026 0 0 0 0-1.942 3.72 3.72 0 0 0 -3.366 0 1.026 1.026 0 0 0 0 1.942zm-43.695-25.227a3.72 3.72 0 0 0 3.365 0 1.026 1.026 0 0 0 0-1.943 3.72 3.72 0 0 0 -3.365 0 1.026 1.026 0 0 0 0 1.943zm-43.696-25.228a3.72 3.72 0 0 0 3.365 0 1.025 1.025 0 0 0 0-1.943 3.72 3.72 0 0 0 -3.365 0 1.026 1.026 0 0 0 0 1.943zm-43.695-25.228a3.719 3.719 0 0 0 3.365 0 1.026 1.026 0 0 0 0-1.943 3.719 3.719 0 0 0 -3.365 0 1.026 1.026 0 0 0 0 1.943zm-43.696-25.227a3.719 3.719 0 0 0 3.365 0 1.025 1.025 0 0 0 0-1.943 3.719 3.719 0 0 0 -3.365 0 1.025 1.025 0 0 0 0 1.943zm-43.696-25.228a3.719 3.719 0 0 0 3.365 0 1.026 1.026 0 0 0 0-1.943 3.72 3.72 0 0 0 -3.365 0 1.026 1.026 0 0 0 0 1.943zm393.261 277.504a3.72 3.72 0 0 0 3.366 0 1.026 1.026 0 0 0 0-1.942 3.72 3.72 0 0 0 -3.366 0 1.026 1.026 0 0 0 0 1.942zm-43.695-25.227a3.718 3.718 0 0 0 3.365 0 1.025 1.025 0 0 0 0-1.943 3.719 3.719 0 0 0 -3.365 0 1.025 1.025 0 0 0 0 1.943zm-43.696-25.228a3.72 3.72 0 0 0 3.365 0 1.026 1.026 0 0 0 0-1.943 3.72 3.72 0 0 0 -3.365 0 1.025 1.025 0 0 0 0 1.943zm-43.696-25.228a3.719 3.719 0 0 0 3.366 0 1.025 1.025 0 0 0 0-1.942 3.719 3.719 0 0 0 -3.366 0 1.026 1.026 0 0 0 0 1.942zm-43.695-25.227a3.72 3.72 0 0 0 3.365 0 1.026 1.026 0 0 0 0-1.943 3.72 3.72 0 0 0 -3.365 0 1.026 1.026 0 0 0 0 1.943zm-43.696-25.228a3.719 3.719 0 0 0 3.365 0 1.025 1.025 0 0 0 0-1.943 3.718 3.718 0 0 0 -3.365 0 1.025 1.025 0 0 0 0 1.943zm-43.695-25.228a3.719 3.719 0 0 0 3.365 0 1.026 1.026 0 0 0 0-1.943 3.719 3.719 0 0 0 -3.365 0 1.026 1.026 0 0 0 0 1.943zm-43.696-25.227a3.72 3.72 0 0 0 3.365 0 1.026 1.026 0 0 0 0-1.943 3.72 3.72 0 0 0 -3.365 0 1.026 1.026 0 0 0 0 1.943zm-43.696-25.228a3.719 3.719 0 0 0 3.365 0 1.025 1.025 0 0 0 0-1.943 3.72 3.72 0 0 0 -3.365 0 1.025 1.025 0 0 0 0 1.943zm-43.695-25.228a3.72 3.72 0 0 0 3.365 0 1.026 1.026 0 0 0 0-1.943 3.72 3.72 0 0 0 -3.365 0 1.026 1.026 0 0 0 0 1.943zm-43.696-25.227a3.719 3.719 0 0 0 3.365 0 1.026 1.026 0 0 0 0-1.943 3.719 3.719 0 0 0 -3.365 0 1.025 1.025 0 0 0 0 1.943zm436.957 302.732a3.72 3.72 0 0 0 3.365 0 1.026 1.026 0 0 0 0-1.943 3.72 3.72 0 0 0 -3.365 0 1.026 1.026 0 0 0 0 1.943zm-43.696-25.228a3.72 3.72 0 0 0 3.365 0 1.026 1.026 0 0 0 0-1.943 3.72 3.72 0 0 0 -3.365 0 1.026 1.026 0 0 0 0 1.943zm-43.696-25.228a3.719 3.719 0 0 0 3.365 0 1.026 1.026 0 0 0 0-1.943 3.72 3.72 0 0 0 -3.365 0 1.026 1.026 0 0 0 0 1.943zm-43.695-25.227a3.72 3.72 0 0 0 3.365 0 1.025 1.025 0 0 0 0-1.943 3.72 3.72 0 0 0 -3.365 0 1.025 1.025 0 0 0 0 1.943zm-43.696-25.228a3.719 3.719 0 0 0 3.365 0 1.026 1.026 0 0 0 0-1.943 3.719 3.719 0 0 0 -3.365 0 1.026 1.026 0 0 0 0 1.943zm-43.696-25.228a3.719 3.719 0 0 0 3.366 0 1.025 1.025 0 0 0 0-1.943 3.72 3.72 0 0 0 -3.366 0 1.025 1.025 0 0 0 0 1.943zm-43.695-25.228a3.719 3.719 0 0 0 3.365 0 1.026 1.026 0 0 0 0-1.942 3.719 3.719 0 0 0 -3.365 0 1.026 1.026 0 0 0 0 1.942zm-43.696-25.227a3.719 3.719 0 0 0 3.365 0 1.026 1.026 0 0 0 0-1.943 3.719 3.719 0 0 0 -3.365 0 1.026 1.026 0 0 0 0 1.943zm-43.696-25.228a3.72 3.72 0 0 0 3.366 0 1.026 1.026 0 0 0 0-1.943 3.72 3.72 0 0 0 -3.366 0 1.026 1.026 0 0 0 0 1.943zm-43.695-25.228a3.72 3.72 0 0 0 3.365 0 1.026 1.026 0 0 0 0-1.942 3.72 3.72 0 0 0 -3.365 0 1.026 1.026 0 0 0 0 1.942zm-43.696-25.227a3.719 3.719 0 0 0 3.365 0 1.026 1.026 0 0 0 0-1.943 3.719 3.719 0 0 0 -3.365 0 1.026 1.026 0 0 0 0 1.943zm-43.695-25.228a3.72 3.72 0 0 0 3.365 0 1.026 1.026 0 0 0 0-1.943 3.72 3.72 0 0 0 -3.365 0 1.025 1.025 0 0 0 0 1.943zm484.017 326.017a3.718 3.718 0 0 0 -3.365 0 1.025 1.025 0 0 0 0 1.943 3.719 3.719 0 0 0 3.365 0 1.025 1.025 0 0 0 0-1.943zm-43.696-25.228a3.72 3.72 0 0 0 -3.365 0 1.026 1.026 0 0 0 0 1.943 3.72 3.72 0 0 0 3.366 0 1.026 1.026 0 0 0 0-1.943zm-47.06-23.285a3.72 3.72 0 0 0 3.365 0 1.025 1.025 0 0 0 0-1.942 3.719 3.719 0 0 0 -3.365 0 1.025 1.025 0 0 0 0 1.942zm-43.696-25.227a3.719 3.719 0 0 0 3.365 0 1.025 1.025 0 0 0 0-1.943 3.719 3.719 0 0 0 -3.365 0 1.025 1.025 0 0 0 0 1.943zm-43.696-25.228a3.72 3.72 0 0 0 3.365 0 1.026 1.026 0 0 0 0-1.943 3.72 3.72 0 0 0 -3.365 0 1.026 1.026 0 0 0 0 1.943zm-43.695-25.228a3.72 3.72 0 0 0 3.365 0 1.025 1.025 0 0 0 0-1.942 3.719 3.719 0 0 0 -3.365 0 1.025 1.025 0 0 0 0 1.942zm-43.696-25.227a3.719 3.719 0 0 0 3.365 0 1.026 1.026 0 0 0 0-1.943 3.72 3.72 0 0 0 -3.365 0 1.026 1.026 0 0 0 0 1.943zm-43.695-25.228a3.72 3.72 0 0 0 3.366 0 1.025 1.025 0 0 0 0-1.943 3.72 3.72 0 0 0 -3.366 0 1.026 1.026 0 0 0 0 1.943zm-43.695-25.228a3.72 3.72 0 0 0 3.365 0 1.026 1.026 0 0 0 0-1.943 3.719 3.719 0 0 0 -3.365 0 1.026 1.026 0 0 0 0 1.943zm-43.696-25.227a3.719 3.719 0 0 0 3.365 0 1.025 1.025 0 0 0 0-1.943 3.719 3.719 0 0 0 -3.365 0 1.026 1.026 0 0 0 0 1.943zm-43.696-25.228a3.72 3.72 0 0 0 3.366 0 1.026 1.026 0 0 0 0-1.943 3.72 3.72 0 0 0 -3.366 0 1.026 1.026 0 0 0 0 1.943zm-43.695-25.228a3.719 3.719 0 0 0 3.365 0 1.026 1.026 0 0 0 0-1.943 3.719 3.719 0 0 0 -3.365 0 1.026 1.026 0 0 0 0 1.943zm-43.696-25.227a3.72 3.72 0 0 0 3.365 0 1.025 1.025 0 0 0 0-1.943 3.72 3.72 0 0 0 -3.365 0 1.025 1.025 0 0 0 0 1.943zm440.321 300.788a3.72 3.72 0 0 0 -3.365 0 1.025 1.025 0 0 0 0 1.943 3.72 3.72 0 0 0 3.365 0 1.025 1.025 0 0 0 0-1.943zm-43.696-25.228a3.719 3.719 0 0 0 -3.365 0 1.025 1.025 0 0 0 0 1.943 3.719 3.719 0 0 0 3.365 0 1.026 1.026 0 0 0 0-1.943zm-47.06-23.285a3.72 3.72 0 0 0 3.365 0 1.026 1.026 0 0 0 0-1.943 3.72 3.72 0 0 0 -3.365 0 1.026 1.026 0 0 0 0 1.943zm-43.697-25.226a3.719 3.719 0 0 0 3.365 0 1.026 1.026 0 0 0 0-1.943 3.719 3.719 0 0 0 -3.365 0 1.025 1.025 0 0 0 0 1.943zm-43.696-25.228a3.72 3.72 0 0 0 3.365 0 1.026 1.026 0 0 0 0-1.943 3.72 3.72 0 0 0 -3.365 0 1.026 1.026 0 0 0 0 1.943zm-43.695-25.228a3.719 3.719 0 0 0 3.365 0 1.026 1.026 0 0 0 0-1.943 3.719 3.719 0 0 0 -3.365 0 1.026 1.026 0 0 0 0 1.943zm-43.696-25.227a3.72 3.72 0 0 0 3.365 0 1.026 1.026 0 0 0 0-1.943 3.719 3.719 0 0 0 -3.365 0 1.026 1.026 0 0 0 0 1.943zm-43.696-25.228a3.72 3.72 0 0 0 3.366 0 1.025 1.025 0 0 0 0-1.943 3.72 3.72 0 0 0 -3.366 0 1.025 1.025 0 0 0 0 1.943zm-43.695-25.228a3.719 3.719 0 0 0 3.365 0 1.026 1.026 0 0 0 0-1.943 3.719 3.719 0 0 0 -3.365 0 1.026 1.026 0 0 0 0 1.943zm-43.696-25.227a3.72 3.72 0 0 0 3.365 0 1.026 1.026 0 0 0 0-1.943 3.72 3.72 0 0 0 -3.365 0 1.026 1.026 0 0 0 0 1.943zm-43.696-25.228a3.719 3.719 0 0 0 3.366 0 1.025 1.025 0 0 0 0-1.943 3.719 3.719 0 0 0 -3.366 0 1.025 1.025 0 0 0 0 1.943zm-43.695-25.228a3.719 3.719 0 0 0 3.365 0 1.026 1.026 0 0 0 0-1.943 3.72 3.72 0 0 0 -3.365 0 1.026 1.026 0 0 0 0 1.943zm396.626 275.562a3.72 3.72 0 0 0 -3.365 0 1.026 1.026 0 0 0 0 1.942 3.72 3.72 0 0 0 3.365 0 1.026 1.026 0 0 0 0-1.942zm-43.696-25.228a3.719 3.719 0 0 0 -3.365 0 1.026 1.026 0 0 0 0 1.943 3.719 3.719 0 0 0 3.365 0 1.026 1.026 0 0 0 0-1.943zm-47.06-23.285a3.719 3.719 0 0 0 3.365 0 1.025 1.025 0 0 0 0-1.943 3.719 3.719 0 0 0 -3.365 0 1.026 1.026 0 0 0 0 1.943zm-43.695-25.228a3.719 3.719 0 0 0 3.365 0 1.026 1.026 0 0 0 0-1.942 3.719 3.719 0 0 0 -3.365 0 1.025 1.025 0 0 0 0 1.942zm-43.696-25.227a3.719 3.719 0 0 0 3.365 0 1.026 1.026 0 0 0 0-1.943 3.718 3.718 0 0 0 -3.365 0 1.026 1.026 0 0 0 0 1.943zm-43.695-25.228a3.72 3.72 0 0 0 3.365 0 1.025 1.025 0 0 0 0-1.943 3.72 3.72 0 0 0 -3.365 0 1.025 1.025 0 0 0 0 1.943zm-43.696-25.228a3.719 3.719 0 0 0 3.365 0 1.026 1.026 0 0 0 0-1.942 3.719 3.719 0 0 0 -3.365 0 1.026 1.026 0 0 0 0 1.942zm-43.696-25.227a3.72 3.72 0 0 0 3.366 0 1.026 1.026 0 0 0 0-1.943 3.72 3.72 0 0 0 -3.366 0 1.026 1.026 0 0 0 0 1.943zm-43.695-25.228a3.719 3.719 0 0 0 3.365 0 1.025 1.025 0 0 0 0-1.943 3.719 3.719 0 0 0 -3.365 0 1.025 1.025 0 0 0 0 1.943zm-43.696-25.228a3.72 3.72 0 0 0 3.365 0 1.026 1.026 0 0 0 0-1.943 3.72 3.72 0 0 0 -3.365 0 1.026 1.026 0 0 0 0 1.943zm-43.696-25.227a3.719 3.719 0 0 0 3.366 0 1.026 1.026 0 0 0 0-1.943 3.719 3.719 0 0 0 -3.366 0 1.026 1.026 0 0 0 0 1.943zm352.931 250.333a3.72 3.72 0 0 0 -3.365 0 1.025 1.025 0 0 0 0 1.943 3.72 3.72 0 0 0 3.365 0 1.025 1.025 0 0 0 0-1.943zm-43.696-25.227a3.719 3.719 0 0 0 -3.365 0 1.026 1.026 0 0 0 0 1.943 3.718 3.718 0 0 0 3.365 0 1.026 1.026 0 0 0 0-1.943zm-47.06-23.285a3.72 3.72 0 0 0 3.365 0 1.026 1.026 0 0 0 0-1.943 3.72 3.72 0 0 0 -3.365 0 1.025 1.025 0 0 0 0 1.943zm-43.696-25.228a3.719 3.719 0 0 0 3.365 0 1.026 1.026 0 0 0 0-1.943 3.719 3.719 0 0 0 -3.365 0 1.025 1.025 0 0 0 0 1.943zm-43.696-25.227a3.719 3.719 0 0 0 3.365 0 1.026 1.026 0 0 0 0-1.943 3.72 3.72 0 0 0 -3.365 0 1.026 1.026 0 0 0 0 1.943zm-43.695-25.228a3.72 3.72 0 0 0 3.365 0 1.026 1.026 0 0 0 0-1.943 3.72 3.72 0 0 0 -3.365 0 1.026 1.026 0 0 0 0 1.943zm-43.696-25.228a3.719 3.719 0 0 0 3.365 0 1.026 1.026 0 0 0 0-1.943 3.719 3.719 0 0 0 -3.365 0 1.026 1.026 0 0 0 0 1.943zm-43.696-25.227a3.72 3.72 0 0 0 3.366 0 1.025 1.025 0 0 0 0-1.943 3.719 3.719 0 0 0 -3.366 0 1.025 1.025 0 0 0 0 1.943zm-43.695-25.228a3.719 3.719 0 0 0 3.365 0 1.026 1.026 0 0 0 0-1.943 3.719 3.719 0 0 0 -3.365 0 1.026 1.026 0 0 0 0 1.943zm-43.696-25.228a3.719 3.719 0 0 0 3.365 0 1.025 1.025 0 0 0 0-1.943 3.719 3.719 0 0 0 -3.365 0 1.025 1.025 0 0 0 0 1.943zm309.235 225.106a3.72 3.72 0 0 0 -3.365 0 1.026 1.026 0 0 0 0 1.943 3.72 3.72 0 0 0 3.365 0 1.026 1.026 0 0 0 0-1.943zm-43.696-25.227a3.72 3.72 0 0 0 -3.365 0 1.026 1.026 0 0 0 0 1.942 3.72 3.72 0 0 0 3.365 0 1.026 1.026 0 0 0 0-1.942zm-47.06-23.285a3.72 3.72 0 0 0 3.365 0 1.026 1.026 0 0 0 0-1.943 3.72 3.72 0 0 0 -3.365 0 1.026 1.026 0 0 0 0 1.943zm-43.696-25.228a3.719 3.719 0 0 0 3.365 0 1.026 1.026 0 0 0 0-1.943 3.719 3.719 0 0 0 -3.365 0 1.025 1.025 0 0 0 0 1.943zm-43.696-25.228a3.719 3.719 0 0 0 3.365 0 1.026 1.026 0 0 0 0-1.942 3.72 3.72 0 0 0 -3.365 0 1.026 1.026 0 0 0 0 1.942zm-43.695-25.227a3.72 3.72 0 0 0 3.365 0 1.025 1.025 0 0 0 0-1.943 3.719 3.719 0 0 0 -3.365 0 1.025 1.025 0 0 0 0 1.943zm-43.696-25.228a3.719 3.719 0 0 0 3.365 0 1.026 1.026 0 0 0 0-1.943 3.719 3.719 0 0 0 -3.365 0 1.025 1.025 0 0 0 0 1.943zm-43.696-25.228a3.72 3.72 0 0 0 3.366 0 1.025 1.025 0 0 0 0-1.942 3.72 3.72 0 0 0 -3.366 0 1.025 1.025 0 0 0 0 1.942zm221.845 174.651a3.72 3.72 0 0 0 -3.365 0 1.025 1.025 0 0 0 0 1.943 3.72 3.72 0 0 0 3.365 0 1.025 1.025 0 0 0 0-1.943zm-43.696-25.228a3.72 3.72 0 0 0 -3.365 0 1.026 1.026 0 0 0 0 1.943 3.72 3.72 0 0 0 3.365 0 1.026 1.026 0 0 0 0-1.943zm-47.06-23.284a3.719 3.719 0 0 0 3.365 0 1.025 1.025 0 0 0 0-1.943 3.719 3.719 0 0 0 -3.365 0 1.026 1.026 0 0 0 0 1.943zm-43.696-25.228a3.719 3.719 0 0 0 3.365 0 1.025 1.025 0 0 0 0-1.943 3.72 3.72 0 0 0 -3.365 0 1.025 1.025 0 0 0 0 1.943zm-43.696-25.228a3.72 3.72 0 0 0 3.365 0 1.026 1.026 0 0 0 0-1.943 3.72 3.72 0 0 0 -3.365 0 1.026 1.026 0 0 0 0 1.943zm-43.695-25.227a3.718 3.718 0 0 0 3.365 0 1.025 1.025 0 0 0 0-1.943 3.719 3.719 0 0 0 -3.365 0 1.025 1.025 0 0 0 0 1.943zm134.451 124.195a3.719 3.719 0 0 0 -3.365 0 1.026 1.026 0 0 0 0 1.943 3.719 3.719 0 0 0 3.365 0 1.026 1.026 0 0 0 0-1.943zm-43.696-25.228a3.72 3.72 0 0 0 -3.365 0 1.026 1.026 0 0 0 0 1.943 3.72 3.72 0 0 0 3.365 0 1.026 1.026 0 0 0 0-1.943zm-47.06-23.284a3.72 3.72 0 0 0 3.365 0 1.025 1.025 0 0 0 0-1.943 3.719 3.719 0 0 0 -3.365 0 1.026 1.026 0 0 0 0 1.943zm-43.696-25.228a3.72 3.72 0 0 0 3.365 0 1.026 1.026 0 0 0 0-1.943 3.72 3.72 0 0 0 -3.365 0 1.026 1.026 0 0 0 0 1.943zm47.061 73.74a3.719 3.719 0 0 0 -3.365 0 1.026 1.026 0 0 0 0 1.943 3.719 3.719 0 0 0 3.365 0 1.025 1.025 0 0 0 0-1.943zm-43.696-25.228a3.719 3.719 0 0 0 -3.365 0 1.026 1.026 0 0 0 0 1.943 3.719 3.719 0 0 0 3.365 0 1.026 1.026 0 0 0 0-1.943zm652.064-628.746a3.719 3.719 0 0 0 3.366 0 1.025 1.025 0 0 0 0-1.943 3.719 3.719 0 0 0 -3.366 0 1.025 1.025 0 0 0 0 1.943zm-87.39 0a3.72 3.72 0 0 0 3.364 0 1.026 1.026 0 0 0 0-1.943 3.72 3.72 0 0 0 -3.365 0 1.026 1.026 0 0 0 0 1.943zm43.695 25.228a3.719 3.719 0 0 0 3.365 0 1.026 1.026 0 0 0 0-1.943 3.719 3.719 0 0 0 -3.365 0 1.026 1.026 0 0 0 0 1.943zm-131.087-25.228a3.72 3.72 0 0 0 3.365 0 1.026 1.026 0 0 0 0-1.943 3.72 3.72 0 0 0 -3.365 0 1.026 1.026 0 0 0 0 1.943zm43.696 25.227a3.719 3.719 0 0 0 3.365 0 1.025 1.025 0 0 0 0-1.942 3.719 3.719 0 0 0 -3.365 0 1.026 1.026 0 0 0 0 1.942zm43.696 25.228a3.72 3.72 0 0 0 3.365 0 1.026 1.026 0 0 0 0-1.943 3.72 3.72 0 0 0 -3.365 0 1.026 1.026 0 0 0 0 1.943zm-174.783-50.456a3.719 3.719 0 0 0 3.365 0 1.025 1.025 0 0 0 0-1.942 3.719 3.719 0 0 0 -3.365 0 1.025 1.025 0 0 0 0 1.942zm43.696 25.228a3.719 3.719 0 0 0 3.365 0 1.026 1.026 0 0 0 0-1.943 3.719 3.719 0 0 0 -3.365 0 1.025 1.025 0 0 0 0 1.943zm43.696 25.228a3.719 3.719 0 0 0 3.365 0 1.026 1.026 0 0 0 0-1.943 3.719 3.719 0 0 0 -3.365 0 1.026 1.026 0 0 0 0 1.943zm43.695 25.228a3.72 3.72 0 0 0 3.365 0 1.025 1.025 0 0 0 0-1.943 3.719 3.719 0 0 0 -3.365 0 1.025 1.025 0 0 0 0 1.943zm-218.478-75.684a3.719 3.719 0 0 0 3.365 0 1.026 1.026 0 0 0 0-1.943 3.719 3.719 0 0 0 -3.365 0 1.026 1.026 0 0 0 0 1.943zm43.696 25.228a3.72 3.72 0 0 0 3.365 0 1.026 1.026 0 0 0 0-1.943 3.72 3.72 0 0 0 -3.365 0 1.025 1.025 0 0 0 0 1.943zm43.696 25.228a3.72 3.72 0 0 0 3.365 0 1.026 1.026 0 0 0 0-1.943 3.72 3.72 0 0 0 -3.365 0 1.026 1.026 0 0 0 0 1.943zm43.695 25.227a3.719 3.719 0 0 0 3.365 0 1.026 1.026 0 0 0 0-1.942 3.719 3.719 0 0 0 -3.365 0 1.026 1.026 0 0 0 0 1.942zm43.696 25.228a3.72 3.72 0 0 0 3.365 0 1.026 1.026 0 0 0 0-1.943 3.72 3.72 0 0 0 -3.365 0 1.026 1.026 0 0 0 0 1.943zm-262.174-100.91a3.719 3.719 0 0 0 3.365 0 1.025 1.025 0 0 0 0-1.944 3.72 3.72 0 0 0 -3.365 0 1.025 1.025 0 0 0 0 1.943zm43.696 25.227a3.719 3.719 0 0 0 3.365 0 1.026 1.026 0 0 0 0-1.943 3.72 3.72 0 0 0 -3.365 0 1.026 1.026 0 0 0 0 1.943zm43.696 25.228a3.72 3.72 0 0 0 3.365 0 1.026 1.026 0 0 0 0-1.943 3.72 3.72 0 0 0 -3.365 0 1.026 1.026 0 0 0 0 1.943zm43.695 25.227a3.719 3.719 0 0 0 3.365 0 1.025 1.025 0 0 0 0-1.943 3.719 3.719 0 0 0 -3.365 0 1.025 1.025 0 0 0 0 1.943zm43.696 25.228a3.72 3.72 0 0 0 3.365 0 1.026 1.026 0 0 0 0-1.943 3.72 3.72 0 0 0 -3.365 0 1.026 1.026 0 0 0 0 1.943zm43.695 25.228a3.72 3.72 0 0 0 3.366 0 1.025 1.025 0 0 0 0-1.943 3.72 3.72 0 0 0 -3.366 0 1.026 1.026 0 0 0 0 1.943zm-305.868-126.139a3.72 3.72 0 0 0 3.365 0 1.025 1.025 0 0 0 0-1.943 3.72 3.72 0 0 0 -3.365 0 1.026 1.026 0 0 0 0 1.943zm43.696 25.228a3.719 3.719 0 0 0 3.365 0 1.026 1.026 0 0 0 0-1.943 3.72 3.72 0 0 0 -3.365 0 1.026 1.026 0 0 0 0 1.943zm43.696 25.227a3.72 3.72 0 0 0 3.365 0 1.025 1.025 0 0 0 0-1.942 3.719 3.719 0 0 0 -3.365 0 1.026 1.026 0 0 0 0 1.942zm43.695 25.228a3.72 3.72 0 0 0 3.365 0 1.026 1.026 0 0 0 0-1.943 3.72 3.72 0 0 0 -3.365 0 1.026 1.026 0 0 0 0 1.943zm43.696 25.228a3.719 3.719 0 0 0 3.365 0 1.026 1.026 0 0 0 0-1.943 3.718 3.718 0 0 0 -3.365 0 1.025 1.025 0 0 0 0 1.943zm43.695 25.227a3.72 3.72 0 0 0 3.366 0 1.025 1.025 0 0 0 0-1.942 3.719 3.719 0 0 0 -3.366 0 1.025 1.025 0 0 0 0 1.942zm43.696 25.228a3.719 3.719 0 0 0 3.365 0 1.026 1.026 0 0 0 0-1.943 3.719 3.719 0 0 0 -3.365 0 1.026 1.026 0 0 0 0 1.943zm-349.566-151.366a3.72 3.72 0 0 0 3.365 0 1.025 1.025 0 0 0 0-1.943 3.72 3.72 0 0 0 -3.365 0 1.025 1.025 0 0 0 0 1.943zm43.696 25.228a3.72 3.72 0 0 0 3.365 0 1.025 1.025 0 0 0 0-1.943 3.719 3.719 0 0 0 -3.365 0 1.025 1.025 0 0 0 0 1.943zm43.696 25.227a3.719 3.719 0 0 0 3.365 0 1.025 1.025 0 0 0 0-1.943 3.719 3.719 0 0 0 -3.365 0 1.026 1.026 0 0 0 0 1.943zm43.695 25.228a3.72 3.72 0 0 0 3.365 0 1.025 1.025 0 0 0 0-1.943 3.719 3.719 0 0 0 -3.365 0 1.026 1.026 0 0 0 0 1.943zm43.696 25.228a3.72 3.72 0 0 0 3.365 0 1.026 1.026 0 0 0 0-1.943 3.72 3.72 0 0 0 -3.365 0 1.026 1.026 0 0 0 0 1.943zm43.695 25.227a3.72 3.72 0 0 0 3.366 0 1.026 1.026 0 0 0 0-1.943 3.72 3.72 0 0 0 -3.366 0 1.026 1.026 0 0 0 0 1.943zm43.696 25.228a3.719 3.719 0 0 0 3.365 0 1.025 1.025 0 0 0 0-1.943 3.719 3.719 0 0 0 -3.365 0 1.025 1.025 0 0 0 0 1.943zm43.696 25.228a3.719 3.719 0 0 0 3.365 0 1.025 1.025 0 0 0 0-1.943 3.719 3.719 0 0 0 -3.365 0 1.025 1.025 0 0 0 0 1.943zm-349.565-151.367a3.719 3.719 0 0 0 3.365 0 1.026 1.026 0 0 0 0-1.942 3.719 3.719 0 0 0 -3.365 0 1.025 1.025 0 0 0 0 1.942zm43.696 25.228a3.719 3.719 0 0 0 3.365 0 1.025 1.025 0 0 0 0-1.943 3.719 3.719 0 0 0 -3.365 0 1.025 1.025 0 0 0 0 1.943zm43.695 25.228a3.719 3.719 0 0 0 3.365 0 1.025 1.025 0 0 0 0-1.943 3.719 3.719 0 0 0 -3.365 0 1.025 1.025 0 0 0 0 1.943zm43.696 25.227a3.719 3.719 0 0 0 3.365 0 1.026 1.026 0 0 0 0-1.942 3.719 3.719 0 0 0 -3.365 0 1.026 1.026 0 0 0 0 1.942zm43.695 25.228a3.72 3.72 0 0 0 3.366 0 1.025 1.025 0 0 0 0-1.943 3.72 3.72 0 0 0 -3.366 0 1.025 1.025 0 0 0 0 1.943zm43.696 25.228a3.719 3.719 0 0 0 3.365 0 1.026 1.026 0 0 0 0-1.943 3.719 3.719 0 0 0 -3.365 0 1.026 1.026 0 0 0 0 1.943zm43.696 25.228a3.72 3.72 0 0 0 3.365 0 1.026 1.026 0 0 0 0-1.943 3.72 3.72 0 0 0 -3.365 0 1.026 1.026 0 0 0 0 1.943zm43.695 25.227a3.719 3.719 0 0 0 3.366 0 1.026 1.026 0 0 0 0-1.943 3.72 3.72 0 0 0 -3.366 0 1.026 1.026 0 0 0 0 1.943zm-305.869-126.138a3.719 3.719 0 0 0 3.365 0 1.026 1.026 0 0 0 0-1.943 3.72 3.72 0 0 0 -3.365 0 1.026 1.026 0 0 0 0 1.943zm43.696 25.227a3.72 3.72 0 0 0 3.365 0 1.026 1.026 0 0 0 0-1.943 3.719 3.719 0 0 0 -3.365 0 1.026 1.026 0 0 0 0 1.943zm43.695 25.228a3.72 3.72 0 0 0 3.366 0 1.025 1.025 0 0 0 0-1.943 3.72 3.72 0 0 0 -3.366 0 1.025 1.025 0 0 0 0 1.943zm43.696 25.228a3.719 3.719 0 0 0 3.365 0 1.026 1.026 0 0 0 0-1.943 3.72 3.72 0 0 0 -3.365 0 1.026 1.026 0 0 0 0 1.943zm43.696 25.227a3.72 3.72 0 0 0 3.365 0 1.025 1.025 0 0 0 0-1.942 3.719 3.719 0 0 0 -3.365 0 1.025 1.025 0 0 0 0 1.942zm43.695 25.228a3.72 3.72 0 0 0 3.366 0 1.026 1.026 0 0 0 0-1.943 3.719 3.719 0 0 0 -3.366 0 1.026 1.026 0 0 0 0 1.943zm43.696 25.228a3.719 3.719 0 0 0 3.365 0 1.026 1.026 0 0 0 0-1.943 3.719 3.719 0 0 0 -3.365 0 1.026 1.026 0 0 0 0 1.943zm-262.174-100.911a3.72 3.72 0 0 0 3.366 0 1.025 1.025 0 0 0 0-1.943 3.72 3.72 0 0 0 -3.366 0 1.025 1.025 0 0 0 0 1.943zm43.696 25.228a3.72 3.72 0 0 0 3.365 0 1.026 1.026 0 0 0 0-1.943 3.72 3.72 0 0 0 -3.365 0 1.026 1.026 0 0 0 0 1.943zm43.696 25.227a3.719 3.719 0 0 0 3.365 0 1.026 1.026 0 0 0 0-1.943 3.719 3.719 0 0 0 -3.365 0 1.026 1.026 0 0 0 0 1.943zm43.695 25.228a3.72 3.72 0 0 0 3.366 0 1.026 1.026 0 0 0 0-1.943 3.72 3.72 0 0 0 -3.366 0 1.026 1.026 0 0 0 0 1.943zm43.696 25.228a3.719 3.719 0 0 0 3.365 0 1.026 1.026 0 0 0 0-1.943 3.72 3.72 0 0 0 -3.365 0 1.025 1.025 0 0 0 0 1.943zm43.696 25.227a3.719 3.719 0 0 0 3.365 0 1.026 1.026 0 0 0 0-1.943 3.719 3.719 0 0 0 -3.365 0 1.026 1.026 0 0 0 0 1.943zm-218.478-75.683a3.719 3.719 0 0 0 3.365 0 1.025 1.025 0 0 0 0-1.943 3.719 3.719 0 0 0 -3.365 0 1.025 1.025 0 0 0 0 1.943zm43.695 25.228a3.72 3.72 0 0 0 3.366 0 1.025 1.025 0 0 0 0-1.943 3.719 3.719 0 0 0 -3.366 0 1.026 1.026 0 0 0 0 1.943zm43.696 25.227a3.72 3.72 0 0 0 3.365 0 1.026 1.026 0 0 0 0-1.942 3.72 3.72 0 0 0 -3.365 0 1.026 1.026 0 0 0 0 1.942zm43.696 25.228a3.719 3.719 0 0 0 3.365 0 1.026 1.026 0 0 0 0-1.943 3.719 3.719 0 0 0 -3.365 0 1.026 1.026 0 0 0 0 1.943zm43.695 25.228a3.72 3.72 0 0 0 3.365 0 1.026 1.026 0 0 0 0-1.943 3.72 3.72 0 0 0 -3.365 0 1.026 1.026 0 0 0 0 1.943zm-174.782-50.456a3.719 3.719 0 0 0 3.365 0 1.025 1.025 0 0 0 0-1.943 3.719 3.719 0 0 0 -3.365 0 1.025 1.025 0 0 0 0 1.943zm43.696 25.228a3.719 3.719 0 0 0 3.365 0 1.025 1.025 0 0 0 0-1.943 3.719 3.719 0 0 0 -3.365 0 1.025 1.025 0 0 0 0 1.943zm43.695 25.228a3.719 3.719 0 0 0 3.365 0 1.026 1.026 0 0 0 0-1.943 3.719 3.719 0 0 0 -3.365 0 1.026 1.026 0 0 0 0 1.943zm43.696 25.227a3.719 3.719 0 0 0 3.365 0 1.025 1.025 0 0 0 0-1.942 3.719 3.719 0 0 0 -3.365 0 1.025 1.025 0 0 0 0 1.942zm-131.087-25.226a3.72 3.72 0 0 0 3.365 0 1.026 1.026 0 0 0 0-1.943 3.72 3.72 0 0 0 -3.365 0 1.026 1.026 0 0 0 0 1.943zm43.696 25.227a3.719 3.719 0 0 0 3.365 0 1.025 1.025 0 0 0 0-1.943 3.719 3.719 0 0 0 -3.365 0 1.025 1.025 0 0 0 0 1.943zm43.696 25.228a3.72 3.72 0 0 0 3.365 0 1.026 1.026 0 0 0 0-1.943 3.719 3.719 0 0 0 -3.365 0 1.026 1.026 0 0 0 0 1.943zm-87.391 0a3.72 3.72 0 0 0 3.365 0 1.026 1.026 0 0 0 0-1.943 3.719 3.719 0 0 0 -3.365 0 1.026 1.026 0 0 0 0 1.943zm43.695 25.227a3.719 3.719 0 0 0 3.365 0 1.026 1.026 0 0 0 0-1.942 3.72 3.72 0 0 0 -3.365 0 1.025 1.025 0 0 0 0 1.942zm-43.695 25.228a3.72 3.72 0 0 0 3.365 0 1.026 1.026 0 0 0 0-1.943 3.72 3.72 0 0 0 -3.365 0 1.026 1.026 0 0 0 0 1.943z" fill="url(#aM)"/><path d="m198.528 139.81h141.092v140.111h-141.092z" fill="url(#a)"/><ellipse cx="269.074" cy="139.81" fill="#f6fbf6" rx="70.546" ry="40.73"/><path d="m246.303 453.064c.946 1.58 4.657 4.677 5.948 5.776-4.427-1.878-8.476-5.145-10.39-8.342z" fill="#4190aa"/><path d="m272.953 421.896v-34.602c16.55-9.555 29.967-1.81 29.967 17.3s-13.417 42.35-29.968 51.906c-11.623 6.71-21.68 4.863-26.65-3.436z" fill="#7fd7f4"/><path d="m289.466 382.507.002-.006 4.272 2.484c-5.388-2.886-12.713-2.353-20.788 2.31l-4.441-2.567c8.158-4.71 15.55-5.209 20.955-2.221z" fill="#55aac6"/><path d="m268.511 384.728 4.441 2.566.001 34.602-4.441-2.566z" fill="#bde4bd"/><path d="m268.512 419.33 4.441 2.566-26.65 31.168-4.442-2.566z" fill="#e1f4e1"/><path d="m272.953 421.896-4.441-2.566-28.691 26.573 4.443 2.564z" fill="#7fd7f4"/><path d="m243.817 448.21.447.257 2.039 4.597-4.442-2.566a20.918 20.918 0 0 1 -2.04-4.595z" fill="#1c586b"/><path d="m244.264 448.467 28.69-26.57-26.651 31.167a20.84 20.84 0 0 1 -2.04-4.597z" fill="#4190aa"/><path d="m268.512 419.33 4.441 2.566-28.729 6.74-4.442-2.565z" fill="#78f378"/><path d="m239.782 426.07 4.442 2.566a48.728 48.728 0 0 0 -1.238 10.56 31.593 31.593 0 0 0 1.278 9.271l-4.443-2.564a31.634 31.634 0 0 1 -1.277-9.27 48.748 48.748 0 0 1 1.238-10.562z" fill="#42f242"/><path d="m242.986 439.197a48.728 48.728 0 0 1 1.238-10.56l28.73-6.74-28.69 26.57a31.593 31.593 0 0 1 -1.278-9.27z" fill="#2dd62d"/><path d="m244.224 428.636c3.675-16.433 15.142-33.498 28.728-41.342l.001 34.602z" fill="#f7fcf7"/><path d="m268.51 384.728 4.442 2.566c-13.586 7.844-25.053 24.91-28.728 41.342l-4.442-2.565c3.676-16.433 15.143-33.498 28.729-41.343z" fill="#fff"/><path d="m217.988 541.063c-5.711-3.296-13.304-4.816-20.76-4.592h-11.69v1.915a31.045 31.045 0 0 0 -6.186 2.677c-10.629 6.182-10.568 16.2.131 22.38a31.217 31.217 0 0 0 6.055 2.626v2h14.02c6.742-.112 13.427-1.641 18.557-4.622 10.634-6.183 10.58-16.202-.127-22.384z" fill="url(#b)"/><path d="m158.902 544.997c-.001-3.953 2.612-7.905 7.836-10.925 5.226-3.014 12.073-4.524 18.922-4.524 6.846 0 13.693 1.51 18.918 4.524 5.224 3.02 7.837 6.97 7.838 10.924.002 3.953-2.612 7.909-7.838 10.925-5.224 3.016-12.07 4.524-18.917 4.524-6.848 0-13.695-1.51-18.92-4.524-5.226-3.016-7.837-6.972-7.839-10.924z" fill="#69ff69"/><path d="m204.578 555.92c-5.224 3.017-12.07 4.525-18.917 4.525-6.848 0-13.695-1.51-18.92-4.524-5.226-3.016-7.837-6.972-7.839-10.924v7.627c.002 3.95 2.613 7.906 7.839 10.92 5.225 3.02 12.072 4.526 18.92 4.526 6.847 0 13.693-1.506 18.917-4.522 5.226-3.018 7.84-6.974 7.838-10.926v-7.626c.002 3.953-2.612 7.909-7.838 10.925z" fill="url(#c)"/><path d="m170.295 553.866a33.953 33.953 0 0 0 30.73.002c3.913-2.26 6.02-5.17 6.32-8.126-.3-2.96-2.407-5.867-6.32-8.128a33.965 33.965 0 0 0 -30.733 0c-3.913 2.26-6.017 5.167-6.32 8.126.303 2.958 2.407 5.867 6.323 8.126z" fill="#5cf75c"/><path d="m170.292 537.614a33.965 33.965 0 0 1 30.732 0c3.914 2.26 6.02 5.168 6.321 8.128a7.152 7.152 0 0 0 .044-.746c0-3.211-2.122-6.42-6.365-8.87a33.965 33.965 0 0 0 -30.732 0c-4.242 2.45-6.364 5.66-6.363 8.871a7.339 7.339 0 0 0 .042.743c.304-2.96 2.408-5.865 6.321-8.126z" fill="#2dd62d"/><path d="m196.364 541.806 2.056-1.187v-1.485l-2.056 1.187z" fill="#2dd62d"/><path d="m186.883 544.29a1.748 1.748 0 0 1 .001-3.313 6.353 6.353 0 0 1 5.739 0c1.582.913 1.582 2.4 0 3.315l2.604 1.502c2.569-1.482 2.944-3.756 1.137-5.473l2.056-1.187-2.604-1.505-2.056 1.188a12.294 12.294 0 0 0 -9.48.657 3.336 3.336 0 0 0 0 6.32c1.582.913 1.582 2.398 0 3.314a6.357 6.357 0 0 1 -5.74 0c-1.582-.916-1.582-2.4 0-3.314l-2.602-1.502c-2.57 1.484-2.945 3.754-1.141 5.473l-1.896 1.093 2.605 1.505 1.896-1.096a12.291 12.291 0 0 0 9.482-.655c3.017-1.742 3.017-4.578-.001-6.322z" fill="#69ff69"/><path d="m172.901 552.345 2.605 1.505v-1.487l-2.605-1.505z" fill="#42f242"/><path d="m175.506 553.85 1.896-1.095v-1.488l-1.896 1.096z" fill="#2dd62d"/><path d="m192.623 545.777 2.604 1.502v-1.485l-2.604-1.502z" fill="#42f242"/><path d="m178.54 547.28v-1.486c-1.123.648-1.444 1.584-.974 2.398a2.606 2.606 0 0 1 .975-.913z" fill="#2dd62d"/><path d="m173.678 547.375.004 1.677.003-.004a2.843 2.843 0 0 0 .323 1.173l.789-.456a3.197 3.197 0 0 1 -1.114-2.385zm10.602-.095a2.614 2.614 0 0 1 .974.912c.47-.814.148-1.75-.974-2.398a3.842 3.842 0 0 1 -2.267-3.161v1.489a3.84 3.84 0 0 0 2.267 3.157zm4.867.163v-.03h-.003z" fill="#42f242"/><path d="m197.48 542.632a3.824 3.824 0 0 1 -2.253 3.162v1.485c1.549-.892 2.293-2.072 2.25-3.246l.006.008v-1.41z" fill="#2dd62d"/><path d="m186.884 550.612a12.291 12.291 0 0 1 -9.482.655v1.488a12.299 12.299 0 0 0 9.482-.656 3.861 3.861 0 0 0 2.261-3.133l.002.003v-1.51a3.85 3.85 0 0 1 -2.263 3.153z" fill="url(#d)"/><path d="m192.623 540.977a6.353 6.353 0 0 0 -5.739 0 2.018 2.018 0 0 0 -1.19 1.656 1.482 1.482 0 0 0 .212.744 2.616 2.616 0 0 1 .978-.913 6.359 6.359 0 0 1 5.739-.001 2.598 2.598 0 0 1 .974.916c.47-.817.148-1.755-.974-2.402z" fill="#2dd62d"/><path d="m214.31 527.933c-5.713-3.297-13.304-4.816-20.76-4.594h-11.69v1.916a31.195 31.195 0 0 0 -6.185 2.678c-10.63 6.183-10.568 16.202.13 22.382a31.13 31.13 0 0 0 6.056 2.622v2.003h14.02c6.741-.114 13.426-1.643 18.557-4.624 10.631-6.181 10.579-16.2-.129-22.383z" fill="url(#e)"/><path d="m156.318 531.867c-.001-3.955 2.611-7.907 7.836-10.925 5.225-3.016 12.073-4.525 18.921-4.525 6.847 0 13.694 1.509 18.919 4.525 5.224 3.018 7.837 6.97 7.838 10.925.002 3.954-2.612 7.907-7.838 10.923-5.224 3.017-12.07 4.525-18.917 4.525-6.848 0-13.695-1.51-18.92-4.525-5.226-3.016-7.838-6.97-7.84-10.923z" fill="#69ff69"/><path d="m201.994 542.79c-5.224 3.017-12.07 4.525-18.917 4.525-6.848 0-13.695-1.51-18.92-4.525-5.226-3.016-7.838-6.97-7.84-10.923v7.627c.002 3.952 2.614 7.905 7.84 10.921 5.225 3.018 12.072 4.525 18.92 4.525 6.846 0 13.693-1.505 18.917-4.525 5.226-3.016 7.84-6.97 7.838-10.923v-7.625c.002 3.954-2.612 7.907-7.838 10.923z" fill="url(#f)"/><path d="m167.712 540.737a33.945 33.945 0 0 0 30.729 0c3.914-2.26 6.019-5.17 6.32-8.126-.301-2.96-2.406-5.867-6.32-8.127a33.966 33.966 0 0 0 -30.733 0c-3.913 2.258-6.018 5.166-6.321 8.124.303 2.96 2.408 5.869 6.325 8.13z" fill="#5cf75c"/><path d="m167.708 524.484a33.966 33.966 0 0 1 30.733 0c3.914 2.26 6.019 5.166 6.32 8.127a7.222 7.222 0 0 0 .043-.744c0-3.213-2.121-6.422-6.363-8.872a33.965 33.965 0 0 0 -30.733 0c-4.243 2.45-6.364 5.661-6.363 8.872 0 .246.017.495.042.741.303-2.958 2.408-5.866 6.321-8.124z" fill="#2dd62d"/><path d="m193.78 528.676 2.055-1.187v-1.486l-2.055 1.187z" fill="#2dd62d"/><path d="m184.299 531.16a1.748 1.748 0 0 1 .001-3.313 6.343 6.343 0 0 1 5.738 0c1.583.913 1.583 2.4 0 3.313l2.605 1.503c2.569-1.484 2.943-3.754 1.137-5.473l2.055-1.187-2.604-1.503-2.055 1.185a12.294 12.294 0 0 0 -9.48.659 3.336 3.336 0 0 0 0 6.32c1.582.914 1.582 2.4 0 3.314a6.357 6.357 0 0 1 -5.74 0c-1.582-.915-1.582-2.4 0-3.315l-2.602-1.503c-2.57 1.484-2.945 3.757-1.142 5.475l-1.894 1.094 2.604 1.503 1.896-1.096a12.29 12.29 0 0 0 9.482-.655c3.017-1.742 3.017-4.578-.001-6.321z" fill="#69ff69"/><path d="m170.318 539.216 2.604 1.504v-1.488l-2.604-1.503z" fill="#42f242"/><path d="m172.922 540.72 1.896-1.095v-1.489l-1.896 1.096z" fill="#2dd62d"/><path d="m190.038 532.647 2.605 1.503v-1.487l-2.605-1.503z" fill="#42f242"/><path d="m175.956 534.15v-1.487c-1.123.65-1.445 1.585-.974 2.4a2.592 2.592 0 0 1 .974-.913z" fill="#2dd62d"/><path d="m171.094 534.246.003 1.673.004-.001a2.855 2.855 0 0 0 .323 1.172l.788-.455a3.195 3.195 0 0 1 -1.114-2.384zm10.601-.097a2.618 2.618 0 0 1 .975.914c.47-.815.148-1.75-.975-2.4a3.842 3.842 0 0 1 -2.266-3.16v1.488a3.836 3.836 0 0 0 2.266 3.158zm4.867.163v-.029h-.002l.002.03z" fill="#42f242"/><path d="m194.895 529.503a3.82 3.82 0 0 1 -2.252 3.16v1.487c1.549-.893 2.293-2.072 2.25-3.248l.006.008v-1.407z" fill="#2dd62d"/><path d="m184.3 537.481a12.29 12.29 0 0 1 -9.482.655v1.489a12.297 12.297 0 0 0 9.482-.657 3.857 3.857 0 0 0 2.26-3.133l.002.003v-1.511a3.848 3.848 0 0 1 -2.262 3.154z" fill="url(#g)"/><path d="m190.038 527.847a6.343 6.343 0 0 0 -5.738 0 2.018 2.018 0 0 0 -1.19 1.656 1.472 1.472 0 0 0 .212.744 2.619 2.619 0 0 1 .978-.913 6.344 6.344 0 0 1 5.738 0 2.576 2.576 0 0 1 .975.913c.47-.816.148-1.753-.975-2.4z" fill="#2dd62d"/><path d="m168.392 517.574c0-3.954 2.611-7.907 7.836-10.924 5.225-3.018 12.072-4.526 18.92-4.526 6.847 0 13.694 1.508 18.919 4.526 5.225 3.017 7.838 6.968 7.838 10.924.002 3.953-2.611 7.905-7.838 10.923-5.223 3.018-12.07 4.525-18.916 4.525-6.848 0-13.696-1.509-18.92-4.526-5.225-3.017-7.838-6.969-7.84-10.922z" fill="#69ff69"/><path d="m214.067 528.497c-5.223 3.018-12.07 4.525-18.916 4.525-6.848 0-13.696-1.509-18.92-4.526-5.225-3.017-7.838-6.969-7.84-10.922v7.625c.002 3.953 2.615 7.907 7.84 10.923 5.224 3.016 12.072 4.525 18.92 4.525 6.846 0 13.693-1.507 18.916-4.523 5.227-3.016 7.84-6.972 7.838-10.925v-7.625c.002 3.953-2.611 7.905-7.838 10.923z" fill="url(#h)"/><path d="m179.785 526.444a33.967 33.967 0 0 0 30.73.002c3.913-2.26 6.018-5.17 6.32-8.128-.302-2.96-2.407-5.867-6.32-8.128a33.965 33.965 0 0 0 -30.733 0c-3.914 2.26-6.018 5.169-6.32 8.126.302 2.958 2.406 5.87 6.323 8.128z" fill="#5cf75c"/><path d="m179.782 510.19a33.965 33.965 0 0 1 30.733 0c3.913 2.26 6.018 5.169 6.32 8.128a7.036 7.036 0 0 0 .043-.744c0-3.211-2.121-6.422-6.363-8.87a33.952 33.952 0 0 0 -30.733 0c-4.242 2.448-6.363 5.659-6.363 8.87a7.028 7.028 0 0 0 .043.742c.302-2.957 2.406-5.865 6.32-8.126z" fill="#2dd62d"/><path d="m205.854 514.382 2.055-1.184v-1.488l-2.055 1.187z" fill="#2dd62d"/><path d="m196.373 516.867a1.748 1.748 0 0 1 0-3.313 6.35 6.35 0 0 1 5.74-.002c1.581.913 1.581 2.402 0 3.316l2.603 1.502c2.57-1.482 2.944-3.756 1.138-5.473l2.055-1.187-2.604-1.503-2.056 1.185a12.3 12.3 0 0 0 -9.48.658 3.336 3.336 0 0 0 0 6.32c1.582.913 1.583 2.4 0 3.315a6.355 6.355 0 0 1 -5.74 0c-1.582-.915-1.582-2.4.001-3.315l-2.602-1.502c-2.57 1.482-2.945 3.756-1.142 5.473l-1.894 1.095 2.604 1.503 1.896-1.096a12.283 12.283 0 0 0 9.482-.655c3.017-1.742 3.017-4.578-.001-6.321z" fill="#69ff69"/><path d="m182.392 524.923 2.604 1.503v-1.487l-2.604-1.503z" fill="#42f242"/><path d="m184.996 526.426 1.896-1.093v-1.49l-1.896 1.096z" fill="#2dd62d"/><path d="m202.113 518.354 2.603 1.505v-1.489l-2.603-1.502z" fill="#42f242"/><path d="m188.03 519.859v-1.49c-1.123.651-1.445 1.587-.974 2.4a2.577 2.577 0 0 1 .974-.91z" fill="#2dd62d"/><path d="m183.168 519.953.003 1.675.004-.003a2.822 2.822 0 0 0 .323 1.17l.788-.454a3.197 3.197 0 0 1 -1.114-2.385zm10.602-.096a2.607 2.607 0 0 1 .973.913c.47-.814.149-1.751-.974-2.4a3.842 3.842 0 0 1 -2.267-3.16v1.488a3.842 3.842 0 0 0 2.267 3.159zm4.866.163v-.03h-.002z" fill="#42f242"/><path d="m206.97 515.21a3.82 3.82 0 0 1 -2.254 3.16v1.489c1.55-.897 2.294-2.076 2.251-3.249l.006.007v-1.408z" fill="#2dd62d"/><path d="m196.374 523.188a12.283 12.283 0 0 1 -9.482.655v1.49a12.312 12.312 0 0 0 9.482-.658 3.86 3.86 0 0 0 2.261-3.133l.001.003v-1.51a3.851 3.851 0 0 1 -2.262 3.153z" fill="url(#i)"/><path d="m202.113 513.552a6.35 6.35 0 0 0 -5.74.002 2.016 2.016 0 0 0 -1.19 1.657 1.48 1.48 0 0 0 .212.743 2.618 2.618 0 0 1 .979-.913 6.355 6.355 0 0 1 5.739 0 2.57 2.57 0 0 1 .974.914c.47-.817.148-1.753-.974-2.403z" fill="#2dd62d"/><path d="m560.265 620.38c-34.352 12.789-76.923 14.897-117.98 7.967s-80.602-22.899-108.902-46.262c-56.6-46.727-46.787-105.342 21.917-130.92 34.352-12.788 76.923-14.896 117.98-7.966s80.603 22.898 108.902 46.262c56.6 46.727 46.787 105.342-21.917 130.919z" fill="url(#j)"/><path d="m560.165 412.322-106.809-.965v192.978h83.36c41.405 0 82.809-9.119 114.4-27.357 31.203-18.016 46.984-41.56 47.366-65.17h45.99v-99.486z" fill="url(#k)"/><path d="m291.571 366.041v144.889c0 13.291 4.891 26.58 14.657 38.898v-183.788z" fill="url(#l)"/><path d="m359.838 289.81a173.048 173.048 0 0 0 -20.881 10.183c-31.59 18.239-47.386 42.144-47.386 66.048 0 13.292 4.891 26.581 14.657 38.899l147.128-38.898z" fill="#f7fcf7"/><path d="m359.838 289.81-.002.001q-5.977 2.45-11.634 5.258l91.497 74.583 1.321-.349 12.336-3.261z" fill="url(#m)"/><path d="m453.356 411.358-147.128 38.898v-45.316l147.128-38.898z" fill="#a5cea5"/><path d="m306.228 450.256v99.57c7.799 9.837 18.703 19.053 32.73 27.151 14.763 8.524 31.67 15.055 49.72 19.595v-168.115z" fill="url(#n)"/><path d="m306.228 450.255c7.799 9.836 18.703 19.053 32.73 27.15 14.763 8.524 31.67 15.055 49.72 19.596l64.678-85.644z" fill="#f7fcf7"/><path d="m453.356 456.674-64.678 85.643v-45.316l64.678-85.644z" fill="#a5cea5"/><path d="m306.228 450.256h58.038l74.611-19.726 14.479-19.172z" fill="url(#o)"/><path d="m306.228 450.256 50.238 10.327 74.611-19.726 22.279-29.499z" fill="url(#p)"/><path d="m567.755 254.678c-31.59-18.24-72.995-27.359-114.4-27.359-32.8 0-65.595 5.73-93.517 17.176l93.518 76.23z" fill="#7fd7f4"/><path d="m453.356 366.042-93.518-76.231v-45.316l93.518 76.231z" fill="#6ac4e2"/><path d="m567.755 367.967-114.399 66.048v-113.289l114.399-66.048z" fill="#55aac6"/><path d="m453.356 604.335c41.405 0 82.809-9.119 114.4-27.357s47.385-42.144 47.385-66.049v-54.255c0 23.904-15.795 47.81-47.386 66.048s-72.994 27.358-114.399 27.358a267.128 267.128 0 0 1 -64.678-7.764v54.256a267.128 267.128 0 0 0 64.678 7.763z" fill="url(#q)"/><path d="m453.356 456.673-64.678 85.643a267.134 267.134 0 0 0 64.678 7.764c41.405 0 82.809-9.12 114.4-27.358s47.385-42.144 47.385-66.048z" fill="#f2f7f2"/><path d="m426.042 542.317-.001-.001 64.679-85.643h-37.364l-64.678 85.643.001.001z" fill="url(#r)"/><path d="m615.14 456.674h-161.783l-64.678 85.642a259.217 259.217 0 0 0 43.308 6.945l63.756-84.421h118.772a54.632 54.632 0 0 0 .627-8.166z" fill="url(#s)"/><path d="m453.356 434.015h161.785v22.658h-161.785z" fill="#bde4bd"/><path d="m615.14 434.016c0-23.905-15.795-47.81-47.385-66.049l-114.4 66.048z" fill="url(#t)"/><path d="m581.127 376.708a139.885 139.885 0 0 0 -13.372-8.74l-114.399 66.047h28.51z" fill="url(#u)"/><path d="m576.641 373.53q-4.215-2.858-8.886-5.563l-114.4 66.048h18.523z" fill="url(#v)"/><path d="m471.877 434.016 18.843 22.657h-37.364v-22.658z" fill="url(#w)"/><path d="m547.888 497.564a7.683 7.683 0 0 0 -.8-1.124c-1.086-1.079 1.418-2.884 2.549-3.536.021 0-3.295-1.915-3.295-1.915l-9.744.01a4.398 4.398 0 0 1 -.82-2.546l-4.675-.002a3.87 3.87 0 0 1 -1.603 3.212 2.635 2.635 0 0 1 -.945.323c-.662.13-1.314.285-1.945.468a.345.345 0 0 1 -.083-.014q-.949-.272-1.94-.466c-2.088-.315-2.517-2.614-2.511-3.535l-4.677-.001a3.869 3.869 0 0 1 -1.602 3.211 2.66 2.66 0 0 1 -.945.324c-.662.13-1.313.284-1.945.467-2.153.464-4.973-.812-6.096-1.465l-3.316 1.915c1.123.653 3.606 2.459 2.508 3.535a7.535 7.535 0 0 0 -.81 1.126 1.314 1.314 0 0 1 -.564.547c-1.29.744-4.233.919-5.553.919l-.009 2.707c1.59 0 5.558.255 6.093 1.466a7.41 7.41 0 0 0 .799 1.125c1.087 1.077-1.418 2.882-2.548 3.536l3.294 1.915c.115-.067.256-.143.41-.223l-.386.223 9.737.01a4.401 4.401 0 0 1 .8 2.527l18.375.014 4.58-2.545 6.015.006 3.318-1.913c-1.127-.654-3.608-2.46-2.51-3.536a8.386 8.386 0 0 0 .52-.68l3.083.003 3.314-1.915c.004 0 .02-2.706.02-2.706-1.707.067-5.559-.255-6.093-1.467z" fill="url(#x)"/><path d="m506.277 487.905c-.003-1.051-1.855-2.375-2.782-2.913l.022 7.898c.927.538 2.78 1.861 2.783 2.913z" fill="#f6fbf6"/><path d="m535.956 492.89-.022-7.898c-.937.54-2.819 1.875-2.815 2.928l.022 7.899c-.003-1.055 1.878-2.388 2.815-2.929z" fill="#bde0bd"/><path d="m513.857 496.98a12.9 12.9 0 0 1 11.714 0c1.602.93 2.404 2.148 2.41 3.369l-.024-7.899c-.004-1.22-.806-2.438-2.408-3.37a12.904 12.904 0 0 0 -11.715 0c-1.632.943-2.447 2.18-2.444 3.415l.022 7.898c-.002-1.235.813-2.472 2.445-3.413z" fill="url(#y)"/><path d="m506.705 501.868-3.294-1.915.023 7.898 3.295 1.915z" fill="#d0f2d0"/><path d="m535.873 507.851-.022-7.898-3.318 1.915.024 7.898z" fill="#bde0bd"/><path d="m512.84 508.3c.63.183 1.28.338 1.94.467 2.061.31 2.505 2.555 2.508 3.5l-.022-7.898c-.004-.945-.448-3.19-2.508-3.5a22.402 22.402 0 0 1 -1.94-.466c-1.857-.633-4.983.81-6.113 1.465l.024 7.898c1.13-.654 4.255-2.098 6.111-1.465z" fill="url(#z)"/><path d="m523.576 509.088a2.635 2.635 0 0 1 .94-.32c.662-.13 1.306-.284 1.94-.465 1.867-.635 4.977.809 6.1 1.463l-.023-7.898c-1.122-.654-4.232-2.098-6.099-1.463-.634.18-1.278.335-1.94.464a2.666 2.666 0 0 0 -.941.32c-1.273.735-1.543 2.415-1.614 3.216l.022 7.898c.072-.8.341-2.48 1.615-3.215z" fill="url(#A)"/><path d="m505.959 496.417c1.087 1.077-1.418 2.882-2.548 3.536l3.294 1.915c1.13-.654 4.256-2.098 6.114-1.465.63.182 1.278.337 1.94.466 2.086.313 2.515 2.614 2.507 3.536h4.673c.071-.801.341-2.48 1.614-3.216a2.666 2.666 0 0 1 .94-.32 23.486 23.486 0 0 0 1.941-.464c1.867-.635 4.977.81 6.1 1.463l3.317-1.915c-1.124-.653-3.609-2.459-2.51-3.536a7.883 7.883 0 0 0 .812-1.126 1.306 1.306 0 0 1 .563-.546c1.289-.744 4.232-.92 5.546-.919l.015-2.707c-1.706.068-5.558-.256-6.092-1.467a7.66 7.66 0 0 0 -.8-1.124c-1.085-1.079 1.418-2.883 2.55-3.536l-3.295-1.915c-1.132.653-4.257 2.097-6.113 1.465q-.949-.272-1.94-.467c-2.088-.314-2.517-2.613-2.511-3.534l-4.677-.002a3.868 3.868 0 0 1 -1.602 3.212 2.657 2.657 0 0 1 -.945.324 22.7 22.7 0 0 0 -1.945.467c-2.153.463-4.973-.812-6.096-1.465l-3.316 1.915c1.123.653 3.606 2.459 2.508 3.535a7.536 7.536 0 0 0 -.81 1.126 1.309 1.309 0 0 1 -.564.546c-1.29.744-4.233.92-5.553.92l-.009 2.707c1.59 0 5.558.255 6.093 1.465a7.442 7.442 0 0 0 .799 1.126zm7.875-7.336a12.904 12.904 0 0 1 11.715 0c3.223 1.874 3.21 4.91-.038 6.786a12.906 12.906 0 0 1 -11.712-.002c-3.227-1.875-3.209-4.91.035-6.784z" fill="#fff"/><path d="m503.411 499.953c1.13-.654 3.635-2.46 2.548-3.536a7.442 7.442 0 0 1 -.8-1.126c-.534-1.21-4.502-1.466-6.092-1.465l.022 7.898a19.824 19.824 0 0 1 4.327.465z" fill="#d0f2d0"/><path d="m521.961 512.303-.022-7.898h-4.673l.022 7.898z" fill="#bde0bd"/><path d="m540.284 501.724-.022-7.898c-1.314 0-4.257.175-5.546.92a1.306 1.306 0 0 0 -.563.545 7.883 7.883 0 0 1 -.812 1.126c-1.099 1.077 1.386 2.883 2.51 3.536l.006 2.268a19.493 19.493 0 0 1 4.427-.497z" fill="url(#B)"/><path d="m741.431 398.101h-17.37l11.024 6.364-11.024 6.365h17.37l11.023-6.365z" fill="url(#C)"/><path d="m724.061 410.83 11.024-6.365v-12.729l-11.024 6.365z" fill="#bde0bd"/><path d="m724.061 410.83-11.024-6.365v-12.729l11.024 6.365z" fill="#d0f2d0"/><path d="m724.061 398.101-11.024-6.365 11.024-6.365 11.024 6.365z" fill="#f1f6f1"/><path d="m369.982 344.347h-20.287l12.876 7.433-12.876 7.434h20.287l12.875-7.434z" fill="url(#D)"/><path d="m349.695 359.214 12.876-7.434v-14.868l-12.876 7.435z" fill="#2dd62d"/><path d="m349.695 359.214-12.876-7.434v-14.868l12.876 7.435z" fill="#42f242"/><path d="m349.695 344.347-12.876-7.435 12.876-7.433 12.876 7.433z" fill="#6cff6c"/><path d="m775.156 454.179h-12.981l8.239 4.756-8.239 4.757h12.981l8.238-4.757z" fill="url(#E)"/><path d="m762.175 463.692 8.239-4.757v-9.513l-8.239 4.757z" fill="#42f242"/><path d="m762.175 463.692-8.238-4.757v-9.513l8.238 4.757z" fill="#5cf75c"/><path d="m762.175 454.179-8.238-4.757 8.238-4.756 8.239 4.756z" fill="#f1f6f1"/><path d="m710.57 415.023h-29.188l18.524 10.696-18.524 10.695h29.188l18.524-10.695z" fill="url(#F)"/><path d="m681.382 436.414 18.524-10.695v-21.392l-18.524 10.696z" fill="#0099cb"/><path d="m681.382 436.414-18.526-10.695v-21.392l18.526 10.696z" fill="#7fd0eb"/><path d="m681.382 415.023-18.526-10.696 18.526-10.694 18.524 10.694z" fill="#f2f7f2"/><path d="m302.56 580.475-2.326 1.343 2.326 1.343h22.024v-2.686z" fill="url(#G)"/><path d="m325.819 593.904-2.325 1.343 2.325 1.343h22.024v-2.686z" fill="url(#H)"/><path d="m328.138 595.243-2.241.745 22.399-104.118 2.241-.745zm-23.253-13.425-2.241.745 22.4-104.117 2.24-.746z" fill="#31788f"/><path d="m327.284 477.7-2.24.746-2.411-1.392 2.241-.745zm19.043 20.439-2.241.746-20.85-12.038 2.241-.745zm-2.55 11.851-2.241.745-20.849-12.037 2.241-.745zm-2.549 11.851-2.241.745-20.85-12.038 2.241-.745zm-2.55 11.85-2.241.746-20.849-12.038 2.241-.745zm-2.549 11.851-2.241.745-20.85-12.037 2.241-.745zm-2.55 11.851-2.241.745-20.849-12.038 2.241-.745zm-2.549 11.85-2.241.746-20.85-12.038 2.241-.745zm-2.55 11.851-2.241.745-20.849-12.037 2.241-.746zm22.057-89.969-2.241.745-2.41-1.391 2.241-.745z" fill="#7fd7f4"/><path d="m305.39 569.802 1.897-8.818 20.85 12.038-1.898 8.817-20.85-12.037zm2.55-11.851 1.896-8.817 20.85 12.037-1.897 8.818-20.85-12.038zm2.549-11.85 1.897-8.818 20.85 12.038-1.898 8.817-20.85-12.038zm2.55-11.851 1.894-8.809 20.85 12.038-1.895 8.808-20.85-12.037zm2.549-11.85 1.895-8.81 20.85 12.038-1.896 8.809-20.85-12.038zm2.55-11.852 1.894-8.808 20.85 12.038-1.895 8.808-20.85-12.038zm2.549-11.85 1.895-8.809 20.85 12.038-1.896 8.808-20.85-12.037zm27.61-6.828-2.404-1.387-1.807 8.402-20.85-12.038 1.808-8.401-2.41-1.392-22.4 104.118 2.41 1.391 2.093-9.728 20.85 12.038-2.093 9.728 2.403 1.387z" fill="#55aac6"/><path d="m318.777 514.02c1.175-.723 1.252-1.782 2.154-2.302a4.77 4.77 0 0 1 2.44-.925 11.286 11.286 0 0 1 2.82 1.646 1.117 1.117 0 0 1 .271.877.994.994 0 0 0 -.941.044c.606.583-1.359 1.653-2.675 1.662a9.481 9.481 0 0 0 -2.16 1.173z" fill="#aff6af"/><path d="m303.28 507.886c-1.032-1.525-10.038 2.676-4.383 8.018a39.99 39.99 0 0 0 8.27 6.21c2.34 1.218 13.886-5.531 13.886-5.531 1.01-1.296-1.134-3.71-2.783-2.675-1.768 1.108-7.305 2.971-9.349 2.287-1.564-.524-4.21-6.192-5.642-8.309z" fill="#2dd62d"/><path d="m318.137 586.973h-24.114l-1.926 5.761h26.04z" fill="url(#I)"/><path d="m288.31 590.777c0-4.985 3.157-5.127 3.157-5.127a13.021 13.021 0 0 0 4.488-1.155c2.742-1.135 6.606-.698 4.446 3.288a1.363 1.363 0 0 1 -.074.146 1.95 1.95 0 0 1 -.7.613l-6.901 4.048c-1.053.6-4.394-.787-4.416-1.813z" fill="url(#J)"/><path d="m288.328 590.329c.06 1.024 3.355 2.385 4.398 1.79l6.9-4.047a6.453 6.453 0 0 0 .973-.707c-.063.135-.118.266-.198.418a1.363 1.363 0 0 1 -.074.146 1.95 1.95 0 0 1 -.7.613l-6.901 4.048c-.984.56-3.98-.622-4.373-1.616a1.083 1.083 0 0 1 -.032-.201 3.392 3.392 0 0 1 .007-.444z" fill="#123844"/><path d="m289.593 584.993a28.89 28.89 0 0 1 3.677.728 1.595 1.595 0 0 0 .254.742.886.886 0 0 1 .08.1c.566.39 1.14 1.014-.2 1.852a1.862 1.862 0 0 1 -2.413-.171 2.202 2.202 0 0 0 -.778-.883 1.98 1.98 0 0 0 -.747-.315.54.54 0 0 0 -.005-.069s-.208-1.984.132-1.984z" fill="#fff"/><path d="m290.015 536.278 13.566.244c-1.163 9.38-3.499 17.896-5.06 26.978-1.675 8.826-3.561 15.03-5.21 22.378-.603 1.37-3.36.85-3.92-.465-.438-6.766-.94-15.01 1.066-22.814-.335-8.415-.64-17.827-.442-26.321z" fill="url(#K)"/><path d="m317.161 580.791c0-4.98 3.16-5.124 3.16-5.124a13.049 13.049 0 0 0 4.488-1.153c2.74-1.138 6.603-.701 4.445 3.283a.981.981 0 0 1 -.077.148 1.92 1.92 0 0 1 -.699.615l-6.899 4.046c-1.052.6-4.392-.788-4.418-1.815z" fill="url(#L)"/><path d="m317.18 580.345c.06 1.025 3.355 2.386 4.4 1.79l6.898-4.046a6.278 6.278 0 0 0 .973-.712c-.064.14-.118.274-.197.42a.981.981 0 0 1 -.077.148 1.92 1.92 0 0 1 -.699.615l-6.899 4.046c-.984.562-3.979-.62-4.373-1.613a1.027 1.027 0 0 1 -.031-.204 3.048 3.048 0 0 1 .005-.444z" fill="#123844"/><path d="m318.445 575.01a29.047 29.047 0 0 1 3.676.727 1.62 1.62 0 0 0 .255.742c.03.032.053.064.08.096.565.393 1.141 1.016-.2 1.856a1.86 1.86 0 0 1 -2.413-.171 2.22 2.22 0 0 0 -.778-.883 1.984 1.984 0 0 0 -.747-.315.272.272 0 0 0 -.006-.066s-.206-1.985.133-1.985z" fill="#fff"/><path d="m311.142 544.583c-3.087.452-18.094-6.85-21.181-6.396-.645 18.122 13.615 17.36 26.468 16.33l.108-.022a74.448 74.448 0 0 0 1.713 21.5c.77 1.206 3.575 1.266 3.944-.18.427-7.52 2.31-13.947 2.52-22.93.059-9.216-6.464-8.09-13.572-8.302z" fill="url(#M)"/><path d="m296.02 547.205c4.541 2.252 11.072 3.228 12.27-1.85.484 3.779 3.498 1.58 3.82 0-.407-8.626-.849-13.751 1.334-21.87-.251-4.57-.572-5.274.16-7.886-.155-.9-2.779-2.95-4.667-4.877-2.04-2.083-3.386-4.032-4.48-4.321-9.025-2.378-14.375 13.64-14.59 31.025a12.65 12.65 0 0 0 6.154 9.779z" fill="url(#N)"/><path d="m299.336 507.151c2.06-1.319 3.096-4.798 3.502-6.73a9.646 9.646 0 0 1 .62-3.361c1.525-4.07 5.433-6.614 8.526-5.204 6.233 2.836 3.834 5.774 2.31 9.842-1.412 3.769-4.093 5.723-7.116 5.09a3.243 3.243 0 0 0 .73 2.837c-2.303 1.212-5.52.398-6.772-.254-1.334-.696-2.783-1.31-1.8-2.22z" fill="#aff6af"/><path d="m315.189 490.602c-.002-.564-.89-1.201-4.658-.912-.024.003-.916.074-.973.082-7.06.83-7.708 8.49-7.348 10.686a4.03 4.03 0 0 1 -.189 2.415c2.489.636 2.85 2.25 4.837 1.344a34.306 34.306 0 0 0 3.888-1.698 1.996 1.996 0 0 0 .587-1.124c1.042-3.453 2.006-.864 1.714-.088.749-.121 1.123-1.523 1.54-3.08 6.492-2.37 4.463-5.953.602-7.625z" fill="#31788f"/><path d="m337.637 518.86c-.789-.377-2.135-1.392-3.204-.942a2.323 2.323 0 0 0 -.556.326c.12-.324.214-.669.091-.721-.24-.103-.909.514-1.216.792h.001a1.337 1.337 0 0 0 -.568.545c-.6.857-.767 2.026-1.658 2.687 1.075.661 3.08 1.634 3.08 1.634a9.283 9.283 0 0 0 2.547-1.543c.738-.738 1.885-1.638 1.885-1.638l.664.383a1.919 1.919 0 0 0 -1.066-1.523z" fill="#aff6af"/><path d="m313.32 515.04c-1.783-2.007-10.369 3.853-4.24 8.646 5.884 4.604 8.194 5.88 11.103 7.024 2.456.966 13.23-6.955 13.23-6.955.87-1.395-1.516-3.57-3.048-2.37-1.642 1.288-6.947 3.705-9.051 3.239-1.611-.357-6.297-7.675-7.995-9.585z" fill="url(#O)"/><path d="m328.136 573.022 2.391 1.447-1.87 8.692-2.418-1.322z" fill="#55aac6"/><path d="m757.146 541.426h-35.616l-6.027 7.654h41.643z" fill="url(#P)"/><path d="m768.285 531.445h-38.002l-3.64 4.868h41.642z" fill="url(#Q)"/><path d="m729.927 524.228c1.405-.956 3.619.672 4.178 2.48a6.489 6.489 0 0 1 -.552 2.081s-2.346 5.225-3.145 6.113c-.797.892-4.034 2.166-5.593.836-1.12-1.451 1.103-2.318 1.508-3.755.53-1.869.301-3.363.821-4.772.427-1.158 2.783-2.983 2.783-2.983z" fill="url(#R)"/><path d="m733.971 526.349a.087.087 0 0 1 .007.02 6.524 6.524 0 0 1 -.551 2.083s-2.347 5.223-3.144 6.113c-.798.891-4.036 2.168-5.595.835a1.926 1.926 0 0 1 -.155-.24 1.412 1.412 0 0 0 .282.578c1.559 1.33 4.796.056 5.593-.836.8-.888 3.145-6.113 3.145-6.113a6.489 6.489 0 0 0 .552-2.082 3.473 3.473 0 0 0 -.134-.358z" fill="#123844"/><path d="m726.074 525.41a29.414 29.414 0 0 1 3.516-1.495 1.624 1.624 0 0 0 .64.476c.04.01.08.026.124.04a1.318 1.318 0 0 1 1.183 2.07c-1.518 2.734-5.027 2.638-4.641 1.34.261-.87-.46-1.898-.822-2.431z" fill="#fff"/><path d="m726.831 528.553c-.108-.432-.235-1.367.872-1.52 1.157-.165 2.466.37 2.359 1.05-.224 1.412-3.123.905-3.23.47z" fill="url(#S)"/><path d="m731.155 523.968c-1.311-1.77-11.043-13.483-15.628-15.817 1.541-6.464 5.541-14.864 4.27-21.79h-9.762s-5.789 20.507-2.083 25.393c2.806 3.704 15.224 13.167 19.85 16.15 1.586 0 3.928-2.562 3.353-3.936z" fill="url(#T)"/><path d="m722.87 540.994c1.677.275 2.163 2.977 1.323 4.675a6.511 6.511 0 0 1 -1.835 1.129s-5.297 2.175-6.488 2.269c-1.193.098-3.839-.35-4.055-2.384.205-1.245 1.249-1.586 2.533-2.348 1.67-.991 3.102-2.432 4.449-3.092 1.107-.544 4.073-.249 4.073-.249z" fill="url(#U)"/><path d="m715.907 548.522c1.225-.096 6.678-2.33 6.678-2.33a7.023 7.023 0 0 0 1.831-1.114 3.871 3.871 0 0 1 -.223.59 6.511 6.511 0 0 1 -1.835 1.13s-5.297 2.175-6.488 2.269c-1.193.098-3.839-.35-4.055-2.384.01-.042.024-.08.032-.124.562 1.676 2.938 2.055 4.06 1.963z" fill="#123844"/><path d="m719.26 539.199a29.483 29.483 0 0 1 3.582 1.336 1.592 1.592 0 0 0 .135.785l.063.113c.502.486 1.033 1.348-.504 1.832-2.982.937-5.525-1.064-4.352-1.737.789-.451.973-1.694 1.076-2.329z" fill="#fff"/><path d="m717.678 541.93c.221-.296.738-1.083 1.649-.434a2.18 2.18 0 0 1 1.055 2.175c-.112.678-.917.768-2.148.073a1.274 1.274 0 0 1 -.556-1.814z" fill="#31788f"/><path d="m718.603 486.033c0 9.169-.098 19.423-.098 27.429 0 9.156-.7 20.508-.602 28.183 1.473 1.823 5.211 1.365 6-.044.972-6.966 3.142-17.575 2.606-25.178 2.318-10.018 5.218-21.926 4.274-29.787-2.217.704-9.96-1.308-12.18-.603z" fill="url(#V)"/><path d="m716.094 449.077c-7.477 2.373-9.273 9.683-9.609 14.718-.22 3.315-.573 15.424 4.111 12.576s5.498-27.294 5.498-27.294z" fill="url(#W)"/><path d="m730.333 454.333c-1.94-2.427-6.705-5.814-9.826-6.044-5.308-.39-9.511 3.995-10.595 7.66-1.021 3.45-.46 29.51-1.599 34.2.562 2.473 5.111 3.812 6.836 4.19 7.49 1.644 16.033 1.353 16.622-3.397 1.1-8.877 1.36-33.81-1.438-36.61z" fill="url(#X)"/><path d="m701.946 494.911 14.497-8.37v-16.74l-14.497 8.37z" fill="#bde0bd"/><path d="m701.946 494.911-14.497-8.37v-16.74l14.497 8.37z" fill="#d0f2d0"/><path d="m701.946 478.171-14.497-8.37 14.497-8.369 14.497 8.369z" fill="#f1f6f1"/><path d="m713.07 479.38c-.267.266-1.422 3.479 1.006 4.444 1.243-.653 1.659-3.92-1.007-4.443z" fill="#31788f"/><path d="m714.58 479.356-1.549.556a5.393 5.393 0 0 1 -4.289-1.4c-1.225-1.227-1.48 1.204-.047 1.898 1.435.694 1.45 1.296-.864 1.712a5.803 5.803 0 0 0 -2.588 1.177c-.83.83-1.75 2.667-.432 3.56 1.068.724 4.246-.703 5.207-1.094 2.65-1.079 2.12-1.604 3.606-2.31a5.269 5.269 0 0 1 1.818-.68z" fill="#aff6af"/><path d="m726.884 453.202c1.669-.342 3.821-.053 5.28 4.898 1.23 4.183.24 12.783-.5 15.165-1.9 6.12-9.421 8.207-17.588 10.56 1.042-1.192.35-3.828-1.007-4.444 5.531-2.42 10.71-5.914 12.556-7.759 0-2.096-1.021-10.034-1.143-12.743-.154-3.37.753-5.338 2.402-5.677z" fill="url(#Y)"/><path d="m721.175 441.243c.194-1.72-5.75 1.782-5.51 4.054.194 1.847.733 3.473-1.136 4.629-.644.515-2.786 3.498.542 4.145 4.848.942 6.14-1.272 9.645-4.275-2.09-1.18-4.17-2.977-3.541-8.553z" fill="#aff6af"/><path d="m722.575 440.225-2.414-3.397h-10.51v6.326c0 3.496 2.353 6.326 5.253 6.326a5.744 5.744 0 0 0 5.57-5.68l1.276-.44z" fill="#aff6af"/><path d="m715.149 451.172c2.51 0 5.62-4.034 5.325-7.37a6.063 6.063 0 0 1 -5.359 5.673 4.502 4.502 0 0 1 -.586.45 1.53 1.53 0 0 0 -.175.178c0 .51.338 1.07.795 1.07z" fill="#a3eba3"/><path d="m710.265 433.972c-.962-.167-1.049-.967 2.847-2.314 2.263-1.112 5.472-1.452 7.549-.167 2.814 1.743 3.662 4.303 3.158 7.516a18.042 18.042 0 0 1 -2.562 6.271c-.311.314-.358-1.168-.104-2.265a2.105 2.105 0 0 0 .367-.94c.746-3.264-1.253-2.777-1.527-2.502-.615.254.577 2.956-1.23 2.686-.873-.128-.755-2.568-.751-3.426a3.6 3.6 0 0 0 -.393.103c-1.491.828-6.56 1.43-3.746-.33-1.96 0-4.63.905-5.533-.338-1.071-1.481.645-3.094 1.925-4.294z" fill="#1c586b"/><path d="m588.232 404.87c0-4.943 3.131-5.083 3.131-5.083a12.92 12.92 0 0 0 4.451-1.146c2.718-1.128 6.549-.693 4.407 3.257a.85.85 0 0 1 -.072.146 1.927 1.927 0 0 1 -.694.61l-6.843 4.014c-1.043.595-4.357-.782-4.38-1.799z" fill="url(#Z)"/><path d="m588.249 404.427v-.003c.06 1.018 3.328 2.368 4.363 1.778l6.843-4.015a6.24 6.24 0 0 0 .964-.703c-.064.137-.118.268-.198.414a.85.85 0 0 1 -.072.146 1.927 1.927 0 0 1 -.694.61l-6.843 4.014c-.977.558-3.945-.615-4.337-1.601a1.078 1.078 0 0 1 -.031-.201 3.62 3.62 0 0 1 .005-.44z" fill="#1d5567"/><path d="m589.505 399.137a28.746 28.746 0 0 1 3.645.72 1.573 1.573 0 0 0 .253.734c.03.033.053.065.079.097l.002-.001c.559.391 1.128 1.007-.2 1.84a1.842 1.842 0 0 1 -2.393-.169 2.187 2.187 0 0 0 -.772-.875 2.026 2.026 0 0 0 -.74-.314.406.406 0 0 0 -.008-.067s-.206-1.965.134-1.965z" fill="#aff6af"/><path d="m562.826 391.86c1.27-4.591 2.756-8.355 3.998-13.748 2.969-.59 29.196-8.646 29.35-3.115.158 5.673-2.918 25.157-2.918 25.157h-.004a1.048 1.048 0 0 1 -.529.607 2.981 2.981 0 0 1 -2.696-.001c-.338-.195-.618-.446-.65-.701h-.006s.152-13.854.657-19.787c-8.143 6.317-22.287 13.228-27.202 11.589z" fill="url(#aa)"/><path d="m597.95 411.51c0-4.942 3.131-5.085 3.131-5.085a12.935 12.935 0 0 0 4.45-1.143c2.719-1.13 6.55-.693 4.409 3.256a1.018 1.018 0 0 1 -.074.146 1.923 1.923 0 0 1 -.694.61l-6.843 4.013c-1.042.596-4.355-.78-4.38-1.798z" fill="url(#ab)"/><path d="m597.968 411.067v-.003c.059 1.018 3.327 2.367 4.361 1.777l6.843-4.013a6.279 6.279 0 0 0 .965-.704c-.063.137-.118.267-.197.414a1.018 1.018 0 0 1 -.074.146 1.923 1.923 0 0 1 -.694.61l-6.843 4.013c-.976.558-3.945-.614-4.336-1.601a1.072 1.072 0 0 1 -.03-.2 3.214 3.214 0 0 1 .005-.44z" fill="#1d5567"/><path d="m599.222 405.776a28.723 28.723 0 0 1 3.646.72 1.6 1.6 0 0 0 .253.736c.028.031.053.064.079.096l.002-.001c.558.39 1.128 1.007-.2 1.84a1.844 1.844 0 0 1 -2.394-.169 2.185 2.185 0 0 0 -.77-.876 1.993 1.993 0 0 0 -.74-.313.402.402 0 0 0 -.008-.067s.103-1.2.132-1.966z" fill="#aff6af"/><path d="m576.34 384.933c2.97-.59 26.803-11.742 29.14-7.182a1.515 1.515 0 0 1 .155.732h.001c1.136 5.767-2.663 28.31-2.663 28.31h-.003a1.049 1.049 0 0 1 -.53.607 2.977 2.977 0 0 1 -2.695 0c-.338-.195-.618-.446-.65-.701h-.005s-1.25-14.56-.858-19.781c-8.3 7.172-20.773 11.413-25.4 11.295-8.734-.223-12.892-4.794-14.786-9.878-.686-1.84-1.006-6.755-1.006-8.884 8.804-4.362 16.405.846 19.3 5.482z" fill="url(#ac)"/><path d="m595.327 389.188c-8.07 5.783-18.38 9.13-22.496 9.025-8.733-.223-12.89-4.794-14.785-9.878-.686-1.84-1.006-6.755-1.006-8.884q-.117-2.66-.106-5.237l-103.578 59.801h161.784c0-15.453-6.612-30.904-19.814-44.827z" fill="url(#ad)"/><path d="m604.569 377.805q3.164-7.81 6.009-14.936a.744.744 0 0 0 -.367-.867l-19.45-11.229a.656.656 0 0 0 -.337-.084l-.011-.012h.469l-.002.012a.653.653 0 0 1 .35.084l19.449 11.229a.744.744 0 0 1 .367.867q-2.837 7.125-6.009 14.936a.523.523 0 0 1 -.5.331v.011h-.5l.017-.01a.525.525 0 0 0 .515-.332z" fill="url(#ae)"/><path d="m583.931 365.95a.762.762 0 0 0 .372.88l19.449 11.229a.551.551 0 0 0 .817-.254q3.164-7.81 6.009-14.936a.744.744 0 0 0 -.367-.867l-19.45-11.229a.543.543 0 0 0 -.807.206 479.824 479.824 0 0 0 -6.023 14.97z" fill="#6ac4e2"/><path d="m609.998 362.535c-.38.951-5.503 13.686-5.926 14.733l-19.487-11.178a2453.5 2453.5 0 0 1 5.948-14.776z" fill="#fff"/><path d="m588.064 367.156c-.997-.572-1.494-.859-2.485-1.43.707-1.772 1.164-2.913 2.007-5.007.992.57 1.49.854 2.488 1.424-.84 2.09-1.297 3.229-2.01 5.013z" fill="#42f242"/><path d="m591.186 368.947-2.5-1.433a1954.95 1954.95 0 0 1 2.518-6.27l2.502 1.428c-1.019 2.53-1.624 4.037-2.52 6.275z" fill="#6ac4e2"/><path d="m594.32 370.74-2.508-1.435a2288.72 2288.72 0 0 1 3.742-9.3l2.508 1.434c-1.278 3.16-2.37 5.875-3.742 9.3z" fill="#55aac6"/><path d="m597.454 372.532-2.508-1.434a3542.45 3542.45 0 0 1 3.162-7.861l2.508 1.432c-1.19 2.953-2.011 4.996-3.162 7.863z" fill="#6ac4e2"/><path d="m600.58 374.323-2.5-1.433c.84-2.09 1.375-3.423 2.315-5.758 1.003.57 1.504.856 2.503 1.427l-2.319 5.764z" fill="#42f242"/><path d="m603.687 376.112c-.99-.572-1.488-.858-2.485-1.43 1.46-3.63 2.589-6.437 3.866-9.606l2.484 1.431c-1.275 3.17-2.393 5.95-3.865 9.605z" fill="#55aac6"/><path d="m590.667 386.282a1.283 1.283 0 0 1 -1.157 0l-19.434-11.22a.353.353 0 0 1 0-.668l13.246-7.647a1.283 1.283 0 0 1 1.157 0l19.434 11.22a.353.353 0 0 1 0 .668z" fill="#f6fbf6"/><path d="m584.5 368.338-.951-.549.476-.274.95.548zm1.6.924-.95-.549.475-.274.95.549zm1.601.924-.95-.549.475-.274.95.549zm1.6.924-.95-.548.476-.275.95.549zm1.601.924-.95-.548.475-.274.951.548zm1.601.925-.95-.549.475-.274.95.548zm1.601.924-.951-.549.476-.274.95.548zm1.6.924-.95-.549.475-.274.951.549zm1.601.924-.95-.548.475-.275.95.549zm1.601.924-.951-.549.476-.274.95.549zm1.601.924-.951-.548.475-.275.951.549zm1.6.925-.95-.549.475-.275.951.549zm-18.45-8.804-1.708-.987.95-.548 1.709.986zm-.884 1.261-2.359-1.362.951-.549 2.359 1.362zm-.95 1.3-3.009-1.738.95-.548 3.009 1.737zm-3.238.367-1.708-.986 1.286-.743 1.709.986zm2.359 1.362-1.708-.986 1.286-.743 1.709.986zm2.359 1.362-1.708-.986 1.286-.743 1.709.986zm8.134 4.696-1.709-.987 1.287-.742 1.709.986zm3.998 2.308-3.352-1.935 1.287-.743 3.351 1.935zm-6.353-3.668-5.128-2.961 1.286-.742 5.129 2.96zm-3.376-7.805-1.398-.808.95-.548 1.398.807zm-.884 1.261-1.398-.808.95-.548 1.398.807zm-.907 1.274-1.398-.807.95-.549 1.399.808zm2.049 1.183-1.398-.808.95-.548 1.398.807zm2.048 1.183-1.398-.808.951-.548 1.398.807zm2.049 1.183-1.398-.808.95-.549 1.398.808zm2.049 1.182-1.398-.807.95-.549 1.398.808zm2.048 1.183-1.398-.807.951-.549 1.398.807zm3.257 1.881-2.606-1.506.95-.548 2.607 1.505zm-10.544-7.887-1.399-.807.951-.548 1.398.807zm2.048 1.183-1.398-.807.95-.549 1.399.808zm2.049 1.183-1.399-.807.951-.549 1.398.807zm2.048 1.183-1.398-.807.951-.549 1.398.807zm2.049 1.183-1.398-.808.95-.549 1.399.808zm3.907 2.256-3.257-1.881.951-.549 3.257 1.881zm-11.218-8.249-1.398-.807.951-.549 1.398.808zm2.049 1.183-1.398-.807.95-.549 1.399.807zm2.049 1.183-1.398-.807.95-.549 1.398.807zm2.048 1.183-1.398-.808.95-.548 1.399.807zm2.049 1.182-1.398-.807.95-.549 1.398.808zm2.049 1.183-1.399-.807.951-.549 1.398.808zm2.509 1.449-1.859-1.073.95-.549 1.859 1.073z" fill="#eaf7ea"/><path d="m601.413 377.056-15.356-8.866.461-.267 15.357 8.867z" fill="#4190aa"/><path d="m589.082 379.834-7.837-4.524-4.869 2.811 7.836 4.524z" fill="#eaf7ea"/><path d="m603.913 378.635-13.246 7.647a1.298 1.298 0 0 1 -.938.09c-.002 0-.19-.073-.22-.09l-19.433-11.22a.69.69 0 0 1 -.061-.04l-.003-.002-.014-.012a.546.546 0 0 1 -.033-.027l-.014-.014a.428.428 0 0 1 -.034-.036l-.004-.005-.002-.002a.4.4 0 0 1 -.03-.045.3.3 0 0 1 -.042-.14h-.001v.28h.002a.401.401 0 0 0 .236.338l19.434 11.22a2.411 2.411 0 0 0 1.323.142c.197-.043.375-.092.581-.137l12.499-7.216a.403.403 0 0 0 .238-.339v-.723a.407.407 0 0 1 -.238.33z" fill="url(#af)"/><path d="m580.745 370.825 2.979 1.72-9.004 5.199v.294l-2.978-1.72v-.294z" fill="url(#ag)"/><path d="m569.135 350.73c.292 2.24-.11 5.04 3.483 11.62 1.138 2.083 5.41 7.836 6.933 8.816.464-.739 2.373-1.488 2.716-1.672a2.79 2.79 0 0 1 2.195.094 10.337 10.337 0 0 1 1.044.687c.636.508.024 1.018-.694.936-.717-.08-.89.128-1.603.7a2.023 2.023 0 0 0 -.33.347c.418-.165 1.06-.627 1.533-.092a8.568 8.568 0 0 1 -2.82 1.109 10.002 10.002 0 0 1 -2.058-.076c-2.285-.373-7.386-3.605-10.83-8.27-5.934-8.04-6.473-11.396-6.486-13.414-.034-5.38 6.543-4.486 6.917-.786z" fill="url(#ah)"/><path d="m564.364 389.752c7.316 4.105 16.648 2.43 13.203-5.865-1.868-3.982-2.615-10.928-2.47-15.08.683-1.552 2.865-2.049 3.903-6.145.236-3.176.274-4.412-.32-10.654-2.632-3.114-3.862-4.545-6.819-5.709-1.78-.7-4.093-1.603-5.791-.556-7.36 4.54-9.71 18.265-9.03 33.708a13.837 13.837 0 0 0 7.324 10.301z" fill="url(#ai)"/><path d="m567.684 346.402c1.203-1.218 1.624-3.938 1.755-6.094a10.546 10.546 0 0 1 .137-3.738c1-4.648 4.76-7.778 8.398-6.995 3.637.783 5.776 5.185 4.776 9.83a9.315 9.315 0 0 1 -7.821 7.249c-.35.672.523 1.774 1.007 2.303-2.73.83-5.47-.773-6.85-1.462a2.954 2.954 0 0 1 -1.402-1.093z" fill="#aff6af"/><path d="m589.728 379.061.55.104a5.171 5.171 0 0 0 2.876-.437c.547-.195 1.308-.921 1.92-.924a9.145 9.145 0 0 0 1.548-.113 9.02 9.02 0 0 1 -1.543.338c-.606.09-1.258.915-1.77 1.185-.31.163-.57.283-.81.387l.003.002-7.28 4.203v.295l-3.441-1.986v-.295l6.041-3.488a6.785 6.785 0 0 0 1.906.73z" fill="url(#aj)"/><path d="m578.825 352.852c.292 2.24.395 8.308 3.988 14.887 1.138 2.083 4.829 8.457 6.735 9.054a1.614 1.614 0 0 0 1.078-.668 10.262 10.262 0 0 1 1.82-1.65c.455.309-.232 1.161-.638 1.51 0 0 .793-.26 1.541-.543a13.685 13.685 0 0 1 2.463-.288c1.636.084 1.947.49.921.657 1.73-.047 1.156.53.618.639.593.244.505.636-.433.677.764.35.086.666-1.843.677-.613.003-1.374.729-1.92.924a5.17 5.17 0 0 1 -2.877.437l-.55-.104c-2.285-.373-7.386-4.077-10.83-8.743-5.934-8.04-6.977-14.663-6.99-16.681-.034-5.38 6.543-4.486 6.917-.785z" fill="url(#ak)"/><path d="m561.5 349.514c-.227-2.441 1.802-3.33 3.833-5.167 3.204-2.899 1.67-2.423 3.184-7.847s5.956-9.37 11.675-7.418c2.898.99 6.535 5.502 2.325 7.335-6.673 2.905-.72 5.943-2.376 8.849-.75 1.314-1.582.731-2.115 2.451-.522 1.686 3.966 4.728.348 6.97s-2.599 6.459-7.996 5.322-5.6-2.964-4.273-4.2-2.77-1.79-1.263-3.484-3.142-.666-3.342-2.811z" fill="#1d5567"/><path d="m572.803 399.137c5.424 0 22.987-.004 30.65-.004a85.366 85.366 0 0 0 -8.126-9.945c-8.07 5.783-18.38 9.13-22.496 9.025-7.5-.192-11.62-3.593-13.835-7.768-1.956 4.763 3.59 8.692 13.807 8.692z" fill="url(#al)"/><path d="m396.581 451.842 4.917 7.318h-17.165l4.917 7.991h21.97l6.035-7.991 5.526-7.318z" fill="url(#am)"/><path d="m391.463 450.25c-.682.301-1.648 2.737-1.542 4.453a17.358 17.358 0 0 0 2.884 1.78 67.82 67.82 0 0 0 6.717 2.487c2.72.493 5.32.062 5.474-1.719.057-.672-1.789-2.367-3.363-3.184a22.973 22.973 0 0 1 -5.326-3.799c-1.04-1.029-4.844-.017-4.844-.017z" fill="url(#an)"/><path d="m397.042 394.37c.096 9.106.272 23.01.356 30.962.095 9.094-.677 17.452-.693 25.076-1.444 1.826-5.162 1.41-5.958.018a106.862 106.862 0 0 1 -1.266-22.07c-2.407-9.925-5.385-25.442-4.53-33.261 2.21.678 9.88-1.402 12.091-.724z" fill="url(#ao)"/><path d="m379.265 457.667c-.7.261-1.803 2.638-1.794 4.357a17.355 17.355 0 0 0 2.777 1.942 67.812 67.812 0 0 0 6.564 2.867c2.686.648 5.307.367 5.563-1.403.096-.667-1.65-2.465-3.176-3.37a22.972 22.972 0 0 1 -5.1-4.098c-.978-1.087-4.834-.295-4.834-.295z" fill="url(#ap)"/><path d="m390.3 402.55c-.425 9.095-2.299 21.727-3.038 29.918-.84 9.306-1.387 17.896-2.771 25.506-1.548 1.742-5.236 1.113-5.952-.322-.642-6.955-1.575-15.493-.69-23.01 0-10.049-2.993-24.303-1.692-32.061 2.167.804 11.974-.835 14.142-.031z" fill="url(#aq)"/><path d="m392.37 364.384c2.982.573 6.557 3.12 6.936 10.49s-2.281 11.5-2.281 11.5z" fill="url(#ar)"/><path d="m405.908 381.188c.42-.08 1.285.233 1.352.89.156 1.511-.989 5.089-9.896 9.672-2.365-4.014 3.984-9.706 8.544-10.562z" fill="url(#as)"/><path d="m376.975 369.926c1.927-2.41 6.688-5.526 9.76-6.002 7.602-1.178 9.984 3.85 10.524 7.608 1.014 7.056.07 57.395 1.201 62.054-.558 2.456-5.076 3.786-6.79 4.162-7.439 1.632-15.924 1.343-16.51-3.374-1.09-8.819-.964-61.668 1.815-64.448z" fill="url(#at)"/><path d="m386.573 357.202c-.103-1.716 6.335 2.107 5.98 4.347-.29 1.822-1.635 3.37.158 4.613.611.544 1.218 4.087-.753 4.084-4.817-.01-6.026-1.583-9.345-4.745 1.923-1.06 4.293-2.735 3.96-8.3z" fill="#adf4ad"/><path d="m391.815 364.834c-.087.765-1.812 1.422-6.152-2.18a8.593 8.593 0 0 1 -3.05 2.847c3.32 3.162 7.686 7.965 10.355 7.965 2 0 .354-6.76-.257-7.304a1.864 1.864 0 0 1 -.896-1.328z" fill="url(#au)"/><path d="m384.562 356.432 1.9-3.678 10.333-1.472.23 6.877c-.353 4.759-1.652 6.182-3.625 6.299a5.88 5.88 0 0 1 -6.271-4.805l-1.316-.254z" fill="#adf4ad"/><path d="m391.474 366.252c-2.748-.538-4.31-3.161-4.345-6.6a5.814 5.814 0 0 0 4.676 4.781c-.044.628.126 1.908-.331 1.819z" fill="url(#av)"/><path d="m395.791 348.56c.923-.3.896-1.098-3.124-1.877-2.38-.777-5.583-.662-7.446.892-2.523 2.109-2.998 4.744-2.053 7.833a22.567 22.567 0 0 0 3.072 5.941c.35.264.791-1.619.11-2.375a2.082 2.082 0 0 1 -.49-.872c-1.192-3.105.842-2.908 1.15-2.675.64.164-.154 2.987 1.584 2.468.84-.248.382-2.63.26-3.473a3.8 3.8 0 0 1 .401.046c1.582.607 6.65.49 3.637-.847 1.927-.275 4.681.24 5.393-1.109.847-1.606-1.068-2.953-2.494-3.952z" fill="#1c586b"/><path d="m381.105 403.049c.726.208 2.986 2.682 2.986 2.682-1.375.469-3.885 1.651-3.885 1.651a15.578 15.578 0 0 1 -1.125-1.666z" fill="#adf4ad"/><path d="m376.077 370.692c2.026-3.598 9.536-2.335 7.227 5.213-2.243 7.335-8.006 14.164-7.993 14.963s7.024 12.385 7.024 12.385a4.24 4.24 0 0 1 -3.298 3.087c-3.11-1.76-10.252-10.877-9.946-15.872s4.033-14.53 6.986-19.776z" fill="url(#aw)"/><path d="m389.087 356.497c.023 1.285.901 4.51 2.718 4.469 1.007-.023.983-.636 1.662-1.313a4.805 4.805 0 0 1 3.533-1.187c.46.619.894 4.25-1.44 5.708s-5.534.042-6.503-.865c-1.184-1.109-1.68-6.497-1.68-6.497z" fill="#1c586b"/><path d="m403.71 385.707-11.676 6.741 9.074-14.265 11.676-6.741z" fill="#4190aa"/><path d="m392.034 392.448-.43-.32 9.074-14.265.43.32z" fill="#6ac4e2"/><path d="m401.108 378.183-.43-.32 11.676-6.741.43.32z" fill="#7fd7f4"/><path d="m403.28 386.383c-2.025.27-2.064-.846-2.064-2.013s.99-2.136 3.25-1.916c1.258.122 1.495-.286 1.495-.286l.439-.69c.556.34.612.453.63.828a4.506 4.506 0 0 1 -3.75 4.077z" fill="#adf4ad"/><path d="m534.533 177.397a8.41 8.41 0 0 1 -3.79 6.565l-57.564 33.234c-2.085 1.204-3.79.219-3.79-2.188v-55.923a8.41 8.41 0 0 1 3.79-6.566l57.563-33.234c2.085-1.203 3.791-.219 3.791 2.189z" fill="url(#ax)"/><path d="m498.421 193.844-1.068.617v-15.365l1.068-.617z" fill="#42f242"/><path d="m502.605 182.075-1.068.616v-10.355l1.068-.617z" fill="#2dd62d"/><path d="m506.255 184.387-1.067.617-.001-25.336 1.068-.617z" fill="#5cf75c"/><path d="m510.974 189.577-1.069.617v-11.871l1.069-.617z" fill="#2dd62d"/><path d="m515.158 182.845-1.068.617v-19.838l1.068-.617z" fill="#42f242"/><path d="m519.342 174.673-1.068.617v-20.249l1.068-.617z" fill="#2dd62d"/><path d="m523.526 167.94-1.068.617.001-22.511 1.067-.616z" fill="#5cf75c"/><path d="m527.71 179.914-1.067.617v-31.144l1.067-.617z" fill="#2dd62d"/><path d="m476.966 188.604-1.067.616-.001-22.77 1.068-.616z" fill="#42f242"/><path d="m481.685 182.075-1.069.616v-11.871l1.069-.617z" fill="#2dd62d"/><path d="m485.869 196.775-1.068.617v-23.849l1.068-.617z" fill="#5cf75c"/><path d="m490.053 188.604-1.068.616v-13.93l1.068-.617z" fill="#2dd62d"/><path d="m494.237 189.734-1.068.617.001-22.511 1.067-.617z" fill="#42f242"/><path d="m510.721 143.041-5 13.952-5-8.179z" fill="#f7fcf7"/><path d="m472.784 208.994 58.269-33.642v-1l-58.269 33.642zm0-7.5 58.269-33.642v-1l-58.269 33.642zm0-7.5 58.269-33.642v-1l-58.269 33.642zm0-7.5 58.269-33.642v-1l-58.269 33.642zm0-7.5 58.269-33.642v-1l-58.269 33.642z" fill="#1c586b"/><path d="m532.249 305.1c-1.61-.543-3.305 1.618-3.357 3.511a6.511 6.511 0 0 0 1.093 1.857s3.663 4.401 4.671 5.042c1.008.645 3.556 1.488 4.7-.21.401-1.195-.362-1.984-1.14-3.26-1.012-1.657-1.603-3.6-2.484-4.814-.724-1-3.483-2.126-3.483-2.126z" fill="url(#ay)"/><path d="m534.879 315.01c-1.038-.658-4.81-5.184-4.81-5.184a7.024 7.024 0 0 1 -1.098-1.841 3.863 3.863 0 0 0 -.08.626 6.511 6.511 0 0 0 1.094 1.857s3.663 4.401 4.671 5.042c1.008.645 3.556 1.488 4.7-.21.011-.04.016-.081.03-.124-1.282 1.219-3.56.442-4.507-.165z" fill="#123844"/><path d="m536.279 305.203a29.48 29.48 0 0 0 -3.79-.496 1.592 1.592 0 0 1 -.487.63l-.109.07c-.67.195-1.544.708-.412 1.856 2.197 2.224 5.38 1.645 4.66.501-.487-.767-.068-1.952.138-2.561z" fill="#fff"/><path d="m539.542 278.44a4.508 4.508 0 0 0 -1.882-3.134c-6.098-5.188-18.89-8.66-25.876-14.598-1.974 1.235-4.636 3.62-6.609 4.855-2.66 11.207 17.387 12.238 26.232 16.005-1.685 7.554-.454 17.394-.363 24.248.606 1.497 3.678 2.59 5.332 1.25 1.087-7.864 2.673-19.634 3.166-28.626z" fill="url(#az)"/><path d="m523.922 311.352c-1.61-.543-3.305 1.618-3.358 3.511a6.511 6.511 0 0 0 1.093 1.857s3.664 4.402 4.672 5.042c1.008.645 3.556 1.488 4.699-.209.402-1.196-.36-1.985-1.139-3.26-1.012-1.658-1.603-3.6-2.484-4.815-.724-.999-3.483-2.126-3.483-2.126z" fill="url(#aA)"/><path d="m526.552 321.263c-1.038-.659-4.811-5.185-4.811-5.185a7.023 7.023 0 0 1 -1.097-1.841 3.863 3.863 0 0 0 -.08.626 6.511 6.511 0 0 0 1.093 1.857s3.664 4.402 4.672 5.042c1.008.645 3.556 1.488 4.699-.209.012-.041.017-.082.03-.124-1.281 1.218-3.558.441-4.506-.166z" fill="#123844"/><path d="m527.952 311.455a29.48 29.48 0 0 0 -3.79-.496 1.592 1.592 0 0 1 -.487.63l-.11.07c-.67.196-1.543.709-.41 1.856 2.196 2.224 5.38 1.645 4.658.501-.486-.767-.067-1.952.139-2.561z" fill="#fff"/><path d="m531.214 284.692a4.508 4.508 0 0 0 -1.881-3.134c-6.098-5.188-17.365-11.703-24.35-17.641-1.975 1.234-4.637 3.62-6.61 4.854-2.66 11.207 15.862 14.484 24.707 19.05-1.685 7.553-.454 17.394-.363 24.248.605 1.496 3.678 2.59 5.332 1.249 1.087-7.864 2.673-19.633 3.165-28.626z" fill="url(#aB)"/><path d="m529.446 263.73a1.283 1.283 0 0 0 -1.157 0l-19.434 11.22a.353.353 0 0 0 0 .669l13.246 7.647a1.283 1.283 0 0 0 1.157 0l19.434-11.22a.353.353 0 0 0 0-.668z" fill="#f6fbf6"/><path d="m523.279 281.675-.951.549.475.274.951-.549zm1.6-.924-.95.549.475.274.95-.549zm1.601-.924-.95.549.475.274.95-.549zm1.6-.924-.95.548.475.275.951-.549zm1.601-.924-.95.548.475.274.95-.548zm1.601-.925-.95.549.475.274.95-.548zm1.601-.924-.951.549.476.274.95-.549zm1.6-.924-.95.549.475.274.951-.549zm1.601-.924-.95.548.475.275.95-.549zm1.601-.924-.951.548.476.275.95-.549zm1.6-.925-.95.549.475.275.951-.549zm1.601-.924-.95.549.475.274.95-.548zm-18.45 8.804-1.709.987.951.548 1.708-.986zm-.884-1.261-2.359 1.362.951.549 2.359-1.363zm-.95-1.3-3.01 1.738.951.548 3.009-1.737zm-3.238-.367-1.708.986 1.286.743 1.709-.986zm2.359-1.362-1.708.986 1.286.743 1.709-.986zm2.359-1.362-1.709.986 1.287.743 1.709-.986zm8.134-4.696-1.709.987 1.287.742 1.709-.986zm3.998-2.308-3.352 1.935 1.287.743 3.351-1.935zm-6.353 3.668-5.128 2.961 1.286.742 5.128-2.96zm-3.376 7.805-1.399.808.951.548 1.398-.807zm-.884-1.261-1.399.807.951.549 1.398-.807zm-.907-1.274-1.398.807.95.549 1.399-.808zm2.049-1.183-1.399.807.951.549 1.398-.807zm2.048-1.183-1.398.808.95.548 1.399-.807zm2.049-1.183-1.398.808.95.549 1.398-.808zm2.049-1.182-1.398.807.95.549 1.398-.808zm2.048-1.183-1.398.807.95.549 1.399-.807zm3.257-1.881-2.606 1.506.95.548 2.607-1.505zm-10.544 7.887-1.399.807.951.548 1.398-.807zm2.048-1.183-1.398.807.95.549 1.399-.808zm2.049-1.183-1.399.807.951.549 1.398-.808zm2.048-1.183-1.398.807.95.549 1.399-.807zm2.049-1.183-1.398.808.95.548 1.399-.807zm3.907-2.256-3.257 1.881.951.549 3.257-1.881zm-11.218 8.249-1.398.807.95.549 1.399-.808zm2.049-1.183-1.398.807.95.549 1.398-.807zm2.048-1.183-1.398.807.951.549 1.398-.807zm2.049-1.183-1.398.808.95.548 1.398-.807zm2.049-1.182-1.399.807.951.548 1.398-.807zm2.048-1.183-1.398.807.95.549 1.399-.808zm2.509-1.449-1.858 1.073.95.549 1.859-1.073z" fill="#eaf7ea"/><path d="m540.192 272.957-15.357 8.866.462.266 15.356-8.866z" fill="#4190aa"/><path d="m527.86 270.179-7.836 4.524-4.869-2.811 7.836-4.524z" fill="#eaf7ea"/><path d="m508.855 275.619 13.246 7.647a1.299 1.299 0 0 0 .938.09c.003 0 .19-.073.22-.09l19.433-11.22a.663.663 0 0 0 .061-.04l.003-.002.015-.011a.58.58 0 0 0 .032-.028l.014-.014a.428.428 0 0 0 .034-.036l.004-.005.002-.002a.385.385 0 0 0 .03-.045.298.298 0 0 0 .042-.14h.001v.28h-.002a.4.4 0 0 1 -.236.338l-19.434 11.22a2.412 2.412 0 0 1 -1.323.142c-.197-.043-.374-.092-.581-.137l-12.499-7.216a.403.403 0 0 1 -.238-.339v-.723a.407.407 0 0 0 .238.33z" fill="url(#aC)"/><path d="m528.907 264.573c1.482.791 4.66 1.273 5.588 2.087s1.129 3.212.435 3.98-1.49.74-1.091 0 .293-2.172-.81-2.287c-2.133-.222.56 2.138-.449 2.159-.937.02-1.342-1.188-2.483-2.06s-1.94-1.141-3.01-2.082c-.946-.83 1.82-1.797 1.82-1.797z" fill="#aff6af"/><path d="m515.26 233.482c6.204 5.528 6.19 18.582 6.735 19.332s3.71 7.263 7.398 11.657c-.258.872-2.306 2.539-2.306 2.539-2.145-1.162-6.91-5.951-8.556-8.917s-3.271-24.611-3.271-24.611z" fill="url(#aD)"/><path d="m498.173 236.884c1.94-2.427 6.705-5.814 9.826-6.044 5.308-.39 9.511 3.995 10.595 7.66 1.021 3.45-.189 22.45.95 27.14-.562 2.473-4.242 3.812-5.967 4.19-7.49 1.643-14.42 3.33-15.785-1.258-2.405-8.082-2.418-28.89.381-31.688z" fill="url(#aE)"/><path d="m507.331 223.794c-.194-1.72 5.75 1.782 5.51 4.054-.194 1.847-.733 3.473 1.136 4.629.644.515 2.808 3.623-.542 4.145-3.915.61-7.774-2.599-9.645-4.275 2.09-1.18 4.17-2.977 3.541-8.553z" fill="#aff6af"/><path d="m505.931 222.776 2.414-3.397h10.51v6.326c0 3.496-2.353 6.326-5.253 6.326a5.744 5.744 0 0 1 -5.57-5.68l-1.276-.44z" fill="#aff6af"/><path d="m513.357 233.723c-2.51 0-5.62-4.034-5.325-7.37a6.063 6.063 0 0 0 5.359 5.673 4.514 4.514 0 0 0 .586.451 1.53 1.53 0 0 1 .175.177c0 .51-.338 1.07-.795 1.07z" fill="#a3eba3"/><path d="m507.845 214.042a7.037 7.037 0 0 0 -3.158 7.516 13.957 13.957 0 0 0 .918 3.123l-.004-.004c.407.915-1.252 1.041-1.051 2.166.2 1.125 1.364 1.292 1.116 2.084-.245.778 1.773 1.475 1.843-1.655a3.94 3.94 0 0 0 .004-.101l.002-.057-.002-.003a6.798 6.798 0 0 0 -.16-1.546 2.104 2.104 0 0 1 -.366-.94c-.747-3.265 1.252-2.778 1.526-2.503.615.254-.592 2.55 1.23 2.686 2.133.16 1.966-3.131 4.89-3.653.824 0 1.774 1.012 2.665 1.105.557.058.8-.926 1.266-1.167.561-.29 1.598.21 1.602-.276.071-8.932-9.654-8.65-12.32-6.775z" fill="#1c586b"/><path d="m519.838 270.613c2.212 1.543 2.817.59 4.002 1.123a17.671 17.671 0 0 1 2.717 1.631c.407.28-.975.227-1.564 0a3.148 3.148 0 0 1 1.21 3.258c-.289.757-2.194 1.473-2.634 1.05-1.835-1.77-1.515-2.469-4.025-3.125a6.915 6.915 0 0 1 -2.185-1.555z" fill="#aff6af"/><path d="m500.926 236.093c-2.005-.344-3.73.595-4.104 4.011-.611 5.573 3.97 17.156 5.845 20.156s13.44 12.888 14.845 13.506c.56-.806 2.584-3.225 2.681-3.384-1.425-1.606-10.673-12.434-11.799-15.444-1.633-4.367-1.173-17.764-7.468-18.845z" fill="url(#aF)"/><path d="m547.467 263.242-18.736 10.782a2.031 2.031 0 0 0 -.737.73l-4.831 8.196a.172.172 0 0 0 .233.236l19.555-11.253a1.037 1.037 0 0 0 .376-.372l4.52-7.67c.336-.57.097-.924-.38-.65z" fill="#31788f"/><path d="m523.163 282.95 4.831-8.197a2.032 2.032 0 0 1 .737-.729l18.736-10.782c.215-.124.377-.115.465-.021l.004-.003a2.783 2.783 0 0 0 -.268-.267l-.004.003c-.09-.086-.248-.091-.456.029l-18.736 10.782a2.032 2.032 0 0 0 -.737.73l-4.831 8.196a.163.163 0 0 0 .016.19l-.002.002.007.006.016.016c.068.063.216.218.245.247a.166.166 0 0 1 -.023-.202z" fill="url(#aG)"/><path d="m816.192 613.752h-143.441v107.248h143.441z" fill="url(#aH)"/><path d="m787.15 580.472c-12.637-5.416-27.656-8.128-42.679-8.128-18.354 0-36.71 4.043-50.714 12.128s-21.006 18.683-21.006 29.28 7.002 21.194 21.007 29.28c14.004 8.085 32.359 12.128 50.714 12.128 16.668 0 33.325-3.346 46.735-10.014l-46.735-31.394z" fill="#f6fbf6"/><path d="m816.192 613.752c0-10.597-7.002-21.195-21.006-29.28a75.736 75.736 0 0 0 -8.035-4l-42.68 33.28 46.736 31.394a72.726 72.726 0 0 0 3.979-2.114c14.004-8.086 21.006-18.683 21.006-29.28z" fill="#eaf7ea"/><path d="m51.48 563.693h70.546v111.316h-70.546z" fill="url(#aI)"/><ellipse cx="86.753" cy="563.693" fill="#f6fbf6" rx="35.273" ry="20.365"/><path d="m593.693 275.16 42.895 24.765a8.712 8.712 0 0 1 3.927 6.803v31.526c0 2.495-1.767 3.515-3.927 2.268l-33.595-19.395-5.483 4.273v-7.44l-3.817-2.203a8.714 8.714 0 0 1 -3.927-6.803v-31.526c0-2.495 1.767-3.515 3.927-2.268z" fill="#e1f4e1"/><path d="m600.301 284.929-7.639-4.41v-1.507l7.639 4.41zm-1.726 1.727-5.913-3.413v-1.507l5.913 3.414z" fill="#d0f6d0"/><path d="m615.141 308.124v-14.727c7.043 4.067 12.753 13.956 12.753 22.09 0 8.131-5.71 11.43-12.753 7.362s-12.753-13.956-12.753-22.09a13.165 13.165 0 0 1 .628-4.186z" fill="#c6e4c6"/><path d="m603.016 296.573c1.661-4.946 6.458-6.448 12.125-3.176v14.727z" fill="#fff"/><path d="m540.172 642.84h-52.381l8.465 4.888-8.465 4.887h52.381l8.466-4.887z" fill="url(#aJ)"/><path d="m539.113 651.393h-36.508l8.465 4.888-8.465 4.887h36.508l8.466-4.887z" fill="url(#aK)"/><path d="m543.521 659.946h-26.102l8.466 4.888-8.466 4.888h26.102l8.466-4.888z" fill="url(#aL)"/><path d="m479.324 617.485 8.466 4.888v30.242l-8.466-4.888z" fill="#418ba3"/><path d="m496.256 617.485-8.466 4.888v30.242l8.466-4.888z" fill="#0099cb"/><path d="m487.79 612.597-8.466 4.888 8.466 4.888 8.466-4.888z" fill="#6abeda"/><path d="m494.139 635.202 8.465 4.888v21.078l-8.465-4.887z" fill="#337489"/><path d="m511.07 635.202-8.466 4.888v21.078l8.466-4.887z" fill="#418ba3"/><path d="m502.604 630.315-8.465 4.887 8.465 4.888 8.466-4.888z" fill="#0099cb"/><path d="m508.953 649.764 8.466 4.888v15.07l-8.466-4.888z" fill="#1d5567"/><path d="m525.885 649.764-8.466 4.888v15.07l8.466-4.888z" fill="#337489"/><path d="m517.419 644.876-8.466 4.888 8.466 4.888 8.466-4.888z" fill="#418ba3"/></svg>