<svg viewBox="53.371 99.149 692.768 601.738" xmlns="http://www.w3.org/2000/svg" xmlns:xlink="http://www.w3.org/1999/xlink"><linearGradient id="a" gradientUnits="userSpaceOnUse" x1="421.27" x2="627.66" y1="128.15" y2="485.64"><stop offset=".3" stop-color="#6ac3e0"/><stop offset=".35" stop-color="#4e9db7"/><stop offset=".41" stop-color="#31768d"/></linearGradient><linearGradient id="b" gradientUnits="userSpaceOnUse" x1="602.91" x2="364.7" y1="443.94" y2="205.73"><stop offset="0" stop-color="#195a6f"/><stop offset=".15" stop-color="#20647a"/><stop offset=".41" stop-color="#327d96"/><stop offset=".75" stop-color="#4fa7c4"/><stop offset="1" stop-color="#67c9e9"/></linearGradient><linearGradient id="c" gradientTransform="matrix(.87 .5 0 1.15 75.27 -454.35)" gradientUnits="userSpaceOnUse" x1="404.96" x2="404.96" y1="431.87" y2="380.83"><stop offset="0"/><stop offset=".11" stop-color="#020b02"/><stop offset=".31" stop-color="#072707"/><stop offset=".47" stop-color="#0c440c"/><stop offset="1"/></linearGradient><linearGradient id="d" x1="411.32" x2="411.32" xlink:href="#c" y1="444.01" y2="376.31"/><linearGradient id="e" x1="417.68" x2="417.68" xlink:href="#c" y1="448.84" y2="374.22"/><linearGradient id="f" x1="424.04" x2="424.04" xlink:href="#c" y1="459.05" y2="371.78"/><linearGradient id="g" x1="430.4" x2="430.4" xlink:href="#c" y1="466.74" y2="368.65"/><linearGradient id="h" x1="436.76" x2="436.76" xlink:href="#c" y1="472.4" y2="365.88"/><linearGradient id="i" x1="443.13" x2="443.13" xlink:href="#c" y1="479.29" y2="365.88"/><linearGradient id="j" x1="449.49" x2="449.49" xlink:href="#c" y1="494.2" y2="365.88"/><linearGradient id="k" x1="455.85" x2="455.85" xlink:href="#c" y1="505.31" y2="365.88"/><linearGradient id="l" x1="462.21" x2="462.21" xlink:href="#c" y1="518.48" y2="365.88"/><linearGradient id="m" x1="468.57" x2="468.57" xlink:href="#c" y1="524.65" y2="365.88"/><linearGradient id="n" x1="474.93" x2="474.93" xlink:href="#c" y1="524.65" y2="365.88"/><linearGradient id="o" x1="481.3" x2="481.3" xlink:href="#c" y1="518.48" y2="365.88"/><linearGradient id="p" x1="487.66" x2="487.66" xlink:href="#c" y1="505.31" y2="365.88"/><linearGradient id="q" x1="494.02" x2="494.02" xlink:href="#c" y1="494.2" y2="365.88"/><linearGradient id="r" x1="500.38" x2="500.38" xlink:href="#c" y1="479.29" y2="365.88"/><linearGradient id="s" x1="506.74" x2="506.74" xlink:href="#c" y1="472.4" y2="365.88"/><linearGradient id="t" x1="513.11" x2="513.11" xlink:href="#c" y1="466.74" y2="368.65"/><linearGradient id="u" x1="519.47" x2="519.47" xlink:href="#c" y1="459.05" y2="371.78"/><linearGradient id="v" x1="525.83" x2="525.83" xlink:href="#c" y1="448.84" y2="374.22"/><linearGradient id="w" x1="532.19" x2="532.19" xlink:href="#c" y1="444" y2="376.3"/><linearGradient id="x" x1="538.55" x2="538.55" xlink:href="#c" y1="431.86" y2="380.82"/><linearGradient id="y" gradientUnits="userSpaceOnUse" x1="432.44" x2="535.2" y1="274.85" y2="274.85"><stop offset="0"/><stop offset=".6" stop-color="#082c08"/><stop offset="1" stop-color="#0c440c"/></linearGradient><linearGradient id="z" gradientUnits="userSpaceOnUse" x1="468.69" x2="468.69" y1="422.56" y2="375.69"><stop offset="0"/><stop offset=".41" stop-color="#062306"/><stop offset=".78" stop-color="#0a3b0a"/><stop offset="1" stop-color="#0c440c"/></linearGradient><linearGradient id="A" gradientUnits="userSpaceOnUse" x1="515.38" x2="515.38" y1="427.4" y2="372.58"><stop offset="0" stop-color="#0c440c"/><stop offset=".22" stop-color="#0a3b0a"/><stop offset=".59" stop-color="#062306"/><stop offset="1"/></linearGradient><linearGradient id="B" x1="505.91" x2="505.91" xlink:href="#z" y1="376.64" y2="361.64"/><linearGradient id="C" x1="518.82" x2="518.82" xlink:href="#A" y1="431.36" y2="423.34"/><linearGradient id="D" x1="514.08" x2="514.08" xlink:href="#A" y1="454.05" y2="427.31"/><linearGradient id="E" gradientUnits="userSpaceOnUse" x1="455.7" x2="479.07" y1="352.96" y2="352.96"><stop offset="0"/><stop offset=".22" stop-color="#020902"/><stop offset=".59" stop-color="#062106"/><stop offset="1" stop-color="#0c440c"/></linearGradient><linearGradient id="F" gradientUnits="userSpaceOnUse" x1="588.91" x2="629.61" y1="503.32" y2="503.32"><stop offset=".42" stop-color="#cef8ce"/><stop offset=".6" stop-color="#bbe6bb"/></linearGradient><linearGradient id="G" x1="532.66" x2="573.36" xlink:href="#F" y1="584.36" y2="584.36"/><linearGradient id="H" x1="588.91" x2="629.61" xlink:href="#F" y1="450.38" y2="450.38"/><linearGradient id="I" x1="348.7" x2="389.4" xlink:href="#F" y1="364.64" y2="364.64"/><linearGradient id="J" x1="292.44" x2="333.15" xlink:href="#F" y1="445.68" y2="445.68"/><linearGradient id="K" x1="348.7" x2="389.4" xlink:href="#F" y1="311.69" y2="311.69"/><linearGradient id="L" x1="282.42" x2="504.67" xlink:href="#F" y1="577.31" y2="577.31"/><linearGradient id="M" gradientUnits="userSpaceOnUse" x1="408.72" x2="414.87" y1="611.34" y2="611.34"><stop offset="0" stop-color="#e8f7e8"/><stop offset=".53" stop-color="#f7fcf7"/><stop offset="1" stop-color="#fff"/></linearGradient><linearGradient id="N" x1="420.9" x2="427.05" xlink:href="#M" y1="604.3" y2="604.3"/><linearGradient id="O" x1="433.09" x2="439.23" xlink:href="#M" y1="597.27" y2="597.27"/><linearGradient id="P" x1="445.27" x2="451.41" xlink:href="#M" y1="590.24" y2="590.24"/><linearGradient id="Q" x1="457.45" x2="463.59" xlink:href="#M" y1="583.2" y2="583.2"/><linearGradient id="R" x1="469.63" x2="475.77" xlink:href="#M" y1="576.17" y2="576.17"/><linearGradient id="S" x1="481.81" x2="487.95" xlink:href="#M" y1="569.14" y2="569.14"/><linearGradient id="T" x1="493.99" x2="500.13" xlink:href="#M" y1="562.11" y2="562.11"/><linearGradient id="U" gradientUnits="userSpaceOnUse" x1="293.12" x2="299.07" y1="562.05" y2="562.05"><stop offset="0" stop-color="#daf5da"/><stop offset=".24" stop-color="#e8f9e8"/><stop offset=".62" stop-color="#f9fdf9"/><stop offset=".91" stop-color="#fff"/></linearGradient><linearGradient id="V" x1="305.3" x2="311.25" xlink:href="#U" y1="569.08" y2="569.08"/><linearGradient id="W" x1="317.48" x2="323.43" xlink:href="#U" y1="576.12" y2="576.12"/><linearGradient id="X" x1="329.66" x2="335.61" xlink:href="#U" y1="583.15" y2="583.15"/><linearGradient id="Y" x1="341.84" x2="347.79" xlink:href="#U" y1="590.18" y2="590.18"/><linearGradient id="Z" x1="354.02" x2="359.98" xlink:href="#U" y1="597.21" y2="597.21"/><linearGradient id="aa" x1="366.21" x2="372.16" xlink:href="#U" y1="604.25" y2="604.25"/><linearGradient id="ab" x1="378.39" x2="384.34" xlink:href="#U" y1="611.28" y2="611.28"/><linearGradient id="ac" gradientUnits="userSpaceOnUse" x1="330.4" x2="414.2" y1="537.83" y2="537.83"><stop offset="0" stop-color="#c4e5c4"/><stop offset=".42" stop-color="#daefda"/><stop offset="1" stop-color="#fff"/></linearGradient><linearGradient id="ad" gradientUnits="userSpaceOnUse" x1="349.58" x2="377.03" y1="488.61" y2="536.15"><stop offset="0" stop-color="#7ddcfb"/><stop offset=".49" stop-color="#51a8c5"/><stop offset=".75" stop-color="#3e93af"/><stop offset="1" stop-color="#2e7b94"/></linearGradient><linearGradient id="ae" x1="396.19" x2="474.97" xlink:href="#ac" y1="569.59" y2="569.59"/><linearGradient id="af" gradientUnits="userSpaceOnUse" x1="391.32" x2="415.55" y1="522.8" y2="564.76"><stop offset="0" stop-color="#3e93af"/><stop offset="1" stop-color="#7ddcfb"/></linearGradient><linearGradient id="ag" gradientTransform="matrix(.99 -.16 .16 .99 -776.65 66.81)" gradientUnits="userSpaceOnUse" x1="806.69" x2="823.83" y1="697.51" y2="688.32"><stop offset="0" stop-color="#3e93af"/><stop offset=".49" stop-color="#2b768e"/><stop offset="1" stop-color="#195a6f"/></linearGradient><linearGradient id="ah" x1="791.16" x2="808.3" xlink:href="#ag" y1="703.36" y2="694.17"/><linearGradient id="ai" gradientTransform="matrix(-1 0 0 1 623.37 0)" gradientUnits="userSpaceOnUse" x1="470.84" x2="525.98" y1="495.65" y2="495.65"><stop offset="0" stop-color="#39e539"/><stop offset="1" stop-color="#4bfb4b"/></linearGradient><linearGradient id="aj" gradientTransform="matrix(-1 0 0 1 975.55 0)" gradientUnits="userSpaceOnUse" x1="771.63" x2="800.09" y1="643.19" y2="643.19"><stop offset="0" stop-color="#31748a"/><stop offset=".24" stop-color="#3c8299"/><stop offset=".72" stop-color="#57a8c2"/><stop offset="1" stop-color="#69c0dd"/></linearGradient><linearGradient id="ak" gradientUnits="userSpaceOnUse" x1="177" x2="209.62" y1="583.1" y2="583.1"><stop offset="0" stop-color="#408ea8"/><stop offset=".27" stop-color="#357c93"/><stop offset=".74" stop-color="#236276"/><stop offset="1" stop-color="#1c586b"/></linearGradient><linearGradient id="al" x1="736.45" x2="764.9" xlink:href="#aj" y1="663.67" y2="663.67"/><linearGradient id="am" gradientTransform="matrix(-1 0 0 1 975.55 0)" gradientUnits="userSpaceOnUse" x1="748.8" x2="797.72" y1="595.68" y2="595.68"><stop offset="0" stop-color="#1c586b"/><stop offset=".2" stop-color="#236276"/><stop offset=".56" stop-color="#377d94"/><stop offset="1" stop-color="#0099cb"/></linearGradient><linearGradient id="an" gradientTransform="matrix(-1 0 0 1 975.55 0)" gradientUnits="userSpaceOnUse" x1="780.63" x2="794.76" y1="463.29" y2="506.91"><stop offset="0" stop-color="#ccf2cc"/><stop offset=".43" stop-color="#c2e8c2"/><stop offset="1" stop-color="#b9e0b9"/></linearGradient><linearGradient id="ao" gradientTransform="matrix(-1 0 0 1 975.55 0)" gradientUnits="userSpaceOnUse" x1="746.92" x2="798.01" y1="507.88" y2="507.88"><stop offset="0" stop-color="#ccf2cc"/><stop offset=".33" stop-color="#d2f2d2"/><stop offset=".77" stop-color="#e2f2e2"/><stop offset="1" stop-color="#eef2ee"/></linearGradient><linearGradient id="ap" gradientTransform="matrix(-1 0 0 1 975.55 0)" gradientUnits="userSpaceOnUse" x1="729.36" x2="762.49" y1="498" y2="498"><stop offset="0" stop-color="#ccf2cc"/><stop offset=".65" stop-color="#f0fbf0"/><stop offset="1" stop-color="#fff"/></linearGradient><path d="m399.38 254.11 89.78 51.84" fill="none" stroke="#52aecc" stroke-linecap="round" stroke-linejoin="round"/><path d="m408.38 431.43c0 8.85 6.28 19.7 13.94 24.13l123 71c7.66 4.42 13.93.8 13.93-8v-288.51c0-8.84-6.27-19.7-13.93-24.13l-123-71c-7.66-4.42-13.94-.8-13.94 8z" fill="#e8f7e8"/><path d="m412.18 134.16c2.55-1.66 6.15-1.55 10.14.75l123 71c7.66 4.43 13.93 15.29 13.93 24.13v288.48c0 4.37-1.53 7.45-4 8.93l9.89-6.45c2.56-1.45 4.15-4.57 4.15-9v-288.49c0-8.85-6.27-19.71-13.93-24.13l-123-71c-4-2.31-7.6-2.41-10.15-.74z" fill="url(#a)"/><path d="m417.13 153.29v266.1l133.35 76.99v-266.1z" fill="url(#b)"/><path d="m483.81 462.86c-5.52-3.18-10-.6-10 5.77s4.46 14.1 10 17.28 10 .6 10-5.76-4.5-14.1-10-17.29zm0 19.67a15.59 15.59 0 0 1 -7.06-12.22c0-4.5 3.16-6.32 7.06-4.07a15.61 15.61 0 0 1 7.05 12.22c0 4.54-3.16 6.32-7.05 4.07z" fill="#bbe6bb"/><path d="m505.91 192.49-44.21-25.52v2.91l44.21 25.53z" fill="#bbe6bb"/><path d="m564.58 352.21a5.22 5.22 0 0 0 2.36-4.08c0-1.51-1.06-2.12-2.36-1.37a5.23 5.23 0 0 0 -2.37 4.09c0 1.51 1.06 2.15 2.37 1.36z" fill="#6c6"/><path d="m426 246.81c-.29-.17-.52-.36-.52-.44v-58.67c0-.07.23 0 .52.17s.52.36.52.43v58.7c-.04.05-.28 0-.52-.19z" fill="url(#c)"/><path d="m431.47 264c-.29-.16-.52-.37-.52-.46v-77.85c0-.09.23 0 .52.14s.51.37.51.46v77.85c.02.09-.23.03-.51-.14z" fill="url(#d)"/><path d="m437 272.77c-.29-.17-.52-.38-.52-.48v-85.81c0-.1.23 0 .51.13s.52.37.52.47v85.81c-.02.11-.25.04-.51-.12z" fill="url(#e)"/><path d="m442.48 287.74c-.28-.17-.51-.39-.51-.49v-100.39c0-.1.24-.06.52.11s.52.38.52.49v100.39c-.01.15-.24.06-.53-.11z" fill="url(#f)"/><path d="m448 299.8c-.28-.16-.51-.39-.51-.51v-112.84c0-.12.24-.08.52.09s.52.39.52.51v112.84c-.02.11-.25.11-.53-.09z" fill="url(#g)"/><path d="m453.5 309.51c-.28-.16-.52-.4-.52-.52v-122.56c0-.12.24-.08.52.08s.52.4.52.52v122.56c-.02.12-.23.09-.52-.08z" fill="url(#h)"/><path d="m459 320.65c-.28-.16-.52-.4-.52-.53v-130.49c0-.13.24-.1.52.06s.52.41.52.54v130.49c.01.13-.22.1-.52-.07z" fill="url(#i)"/><path d="m464.52 341.06c-.28-.17-.52-.42-.52-.57v-147.65c0-.15.23-.13.52 0s.52.42.52.57v147.68c-.04.14-.23.13-.52-.03z" fill="url(#j)"/><path d="m470 357.06c-.29-.16-.52-.43-.52-.59v-160.42c0-.16.23-.16.52 0s.52.44.52.6v160.42c.03.16-.2.16-.52-.01z" fill="url(#k)"/><path d="m475.54 375.45c-.29-.17-.52-.44-.52-.62v-175.57c0-.18.23-.19.52 0s.52.44.52.62v175.55c0 .18-.23.19-.52.02z" fill="url(#l)"/><path d="m481.05 385.76a1 1 0 0 1 -.52-.64v-182.67c0-.18.23-.2.52 0a1 1 0 0 1 .52.63v182.64c0 .19-.23.2-.52.04z" fill="url(#m)"/><path d="m486.56 388.94a1 1 0 0 1 -.52-.64v-182.67c0-.18.23-.2.52 0s.52.45.52.63v182.64c0 .19-.23.2-.52.04z" fill="url(#n)"/><path d="m492.07 385c-.29-.16-.52-.44-.52-.62v-175.58c0-.18.23-.19.52 0s.52.44.52.62v175.58c0 .15-.23.16-.52 0z" fill="url(#o)"/><path d="m497.58 373c-.29-.17-.52-.43-.52-.59v-160.41c0-.16.23-.16.52 0s.52.43.52.59v160.41c0 .14-.24.13-.52 0z" fill="url(#p)"/><path d="m503.09 363.32c-.29-.16-.52-.42-.52-.57v-147.64c0-.15.23-.14.52 0s.51.42.51.57v147.67c.01.15-.23.14-.51-.03z" fill="url(#q)"/><path d="m508.6 349.28c-.29-.16-.52-.4-.52-.53v-130.49c0-.13.23-.11.52.06s.51.41.51.54v130.48c.01.14-.23.11-.51-.06z" fill="url(#r)"/><path d="m514.11 344.5c-.29-.17-.52-.4-.52-.52v-122.56c0-.12.23-.08.51.08s.52.4.52.52v122.56c0 .12-.23.09-.51-.08z" fill="url(#s)"/><path d="m519.62 341.15c-.29-.16-.52-.39-.52-.51v-112.84c0-.12.23-.08.51.09s.52.39.52.51v112.84c0 .12-.23.08-.51-.09z" fill="url(#t)"/><path d="m525.12 335.45c-.28-.16-.51-.38-.51-.49v-100.38c0-.11.23-.06.51.1s.52.39.52.49v100.39c0 .11-.23.06-.52-.11z" fill="url(#u)"/><path d="m530.63 326.84c-.28-.17-.51-.38-.51-.47v-85.82c0-.09.24 0 .52.13s.52.38.52.47v85.85c-.01.06-.24 0-.53-.16z" fill="url(#v)"/><path d="m536.14 324.44c-.28-.17-.52-.37-.52-.46v-77.85c0-.09.23 0 .52.14s.52.37.52.46v77.85c0 .09-.23.02-.52-.14z" fill="url(#w)"/><path d="m541.65 313.6c-.28-.16-.52-.36-.52-.43v-58.67c0-.07.23 0 .52.17s.52.36.52.43v58.67c0 .07-.23 0-.52-.17z" fill="url(#x)"/><path d="m483.23 302.25c-5.82-3.36-10.54-.63-10.54 6.09s4.72 14.91 10.54 18.27 10.55.64 10.55-6.09-4.72-14.9-10.55-18.27zm-24.17-29.69 7.16 12.44c4.55-2.63 10.59-2 17 1.68s12.47 10.09 17 18l7.16-4.13c-6.45-11.18-15-20.24-24.17-25.51s-17.69-6.2-24.15-2.48zm-13.56-23.48 7.16 12.4c8.16-4.72 19-3.64 30.57 3s22.41 18.12 30.57 32.26l7.16-4.13c-10.08-17.45-23.48-31.6-37.73-39.82s-27.65-9.53-37.73-3.71zm37.73-17.59c-19.19-11.08-37.22-12.86-50.79-5l7.16 12.4c11.65-6.73 27.15-5.2 43.63 4.32 17 9.83 32.88 26.82 44.65 47.84l7.32-3.85c-13.69-24.49-32.15-44.27-51.97-55.71z" fill="url(#y)"/><path d="m478.67 305.52c-5.83-3.36-10.55-.64-10.55 6.09s4.72 14.91 10.55 18.27 10.55.64 10.55-6.09-4.73-14.91-10.55-18.27zm-24.17-29.69 7.16 12.4c4.54-2.62 10.58-2 17 1.69s12.46 10.08 17 17.95l7.16-4.13c-6.46-11.18-15-20.24-24.17-25.52s-17.65-6.12-24.15-2.39zm-13.57-23.49 7.16 12.4c8.17-4.71 19-3.63 30.58 3s22.4 18.13 30.56 32.27l7.16-4.14c-10.07-17.45-23.47-31.59-37.72-39.82s-27.67-9.53-37.74-3.71zm37.74-17.59c-19.19-11.07-37.23-12.86-50.79-5l7.15 12.4c11.66-6.73 27.15-5.2 43.64 4.32 17 9.83 32.88 26.82 44.64 47.84l7.32-3.85c-13.69-24.46-32.14-44.26-51.96-55.71z" fill="#4bfb4b"/><path d="m218.01 299.96-50.79-29.33 50.79-29.32 50.8 29.32z" fill="none" stroke="#6bff6b" stroke-linecap="round" stroke-linejoin="round"/><path d="m167.22 270.63v58.65l50.79 29.33 50.8-29.33v-58.65" fill="none" stroke="#ffc16b" stroke-linecap="round" stroke-linejoin="round"/><path d="m218.02 299.96v58.65" fill="none" stroke="#6bff6b" stroke-linecap="round" stroke-linejoin="round"/><path d="m213.42 241.31a4.6 4.6 0 1 1 4.58 4.59 4.6 4.6 0 0 1 -4.58-4.59z" fill="#6bff6b"/><path d="m162.62 270.63a4.6 4.6 0 1 1 4.6 4.6 4.59 4.59 0 0 1 -4.6-4.6z" fill="#6bff6b"/><path d="m162.62 329.28a4.6 4.6 0 1 1 4.6 4.6 4.6 4.6 0 0 1 -4.6-4.6z" fill="#6bff6b"/><path d="m213.42 358.61a4.6 4.6 0 1 1 4.6 4.6 4.6 4.6 0 0 1 -4.6-4.6z" fill="#6bff6b"/><path d="m213.42 300a4.6 4.6 0 1 1 4.6 4.59 4.6 4.6 0 0 1 -4.6-4.59z" fill="#6bff6b"/><path d="m264.21 270.63a4.6 4.6 0 1 1 4.6 4.6 4.59 4.59 0 0 1 -4.6-4.6z" fill="#6bff6b"/><path d="m264.21 329.28a4.6 4.6 0 1 1 4.6 4.6 4.6 4.6 0 0 1 -4.6-4.6z" fill="#6bff6b"/><path d="m687.9 224.92-26.75-15.45 26.75-15.44 26.75 15.44z" fill="none" stroke="#6bff6b" stroke-linecap="round" stroke-linejoin="round"/><path d="m661.15 209.47v30.89l26.75 15.45 26.75-15.45v-30.89" fill="none" stroke="#ffc16b" stroke-linecap="round" stroke-linejoin="round"/><path d="m687.9 224.92v30.89" fill="none" stroke="#6bff6b" stroke-linecap="round" stroke-linejoin="round"/><path d="m458.16 426.62 7.02-4.06v-50.75l-7.02 4.05z" fill="#52aecc"/><path d="m458.16 426.62 7.02-4.06v-50.75l-7.02 4.05z" fill="#39e539"/><path d="m432.34 360.95 16.34-22.69 16.35 41.57-6.87-3.97v50.76l-18.95-10.94v-50.76z" fill="#67c9e9"/><path d="m465.03 379.83 7.02-4.06-16.35-41.56-7.02 4.05z" fill="#7ddcfb"/><path d="m465.03 379.83 7.02-4.06-16.35-41.56-7.02 4.05z" fill="#4bfb4b"/><path d="m465.18 422.56 7.02-4.05v-42.82l-7.02 4.05z" fill="url(#z)"/><path d="m511.87 427.4 7.02-4.06v-50.76l-7.02 4.06z" fill="url(#A)"/><path d="m511.87 376.64 7.02-4.06-18.95-10.94-7.02 4.05z" fill="url(#B)"/><path d="m518.75 431.36 7.02-4.05-6.88-3.97-7.02 4.06z" fill="url(#C)"/><path d="m502.4 454.05 7.02-4.05 16.35-22.69-7.02 4.05z" fill="url(#D)"/><path d="m472.05 375.77 7.02-4.05-16.34-41.57-7.03 4.06z" fill="url(#E)"/><path d="m504.85 380.69 7.02-4.05-18.95-10.95-7.02 4.06z" fill="#7ddcfb"/><path d="m504.85 380.69 7.02-4.05-18.95-10.95-7.02 4.06z" fill="#4bfb4b"/><path d="m511.72 435.42 7.03-4.06-6.88-3.96-7.02 4.05z" fill="#7ddcfb"/><path d="m511.72 435.42 7.03-4.06-6.88-3.96-7.02 4.05z" fill="#4bfb4b"/><path d="m485.9 420.51 7.02-4.06-6.87-3.96-7.02 4.05z" fill="#7ddcfb"/><path d="m485.9 420.51 7.02-4.06-6.87-3.96-7.02 4.05z" fill="#4bfb4b"/><path d="m495.38 458.11 7.02-4.06 16.35-22.69-7.03 4.06z" fill="#52aecc"/><path d="m495.38 458.11 7.02-4.06 16.35-22.69-7.03 4.06z" fill="#2bc82b"/><path d="m504.85 431.45 7.02-4.05v-50.76l-7.02 4.05z" fill="#52aecc"/><path d="m504.85 431.45 7.02-4.05v-50.76l-7.02 4.05z" fill="#39e539"/><path d="m511.72 435.42-16.34 22.69-16.35-41.57 6.87 3.97v-50.76l18.95 10.94v50.76z" fill="#67c9e9"/><path d="m308.38 454.13-32.59 18.81a8.36 8.36 0 0 0 0 14.48l107.57 62.11" fill="none" stroke="#52aecc" stroke-miterlimit="10"/><path d="m503.47 615a28.49 28.49 0 0 1 -14.23-3.79l-106.13-61.21.5-.87 106.13 61.28a27.52 27.52 0 0 0 27.45 0l24-13.87 1.57.25-25.1 14.49a28.48 28.48 0 0 1 -14.19 3.72z" fill="#52aecc"/><path d="m609.26 497.79v43.82a28 28 0 0 1 -14 24.26l-38.9 22.46" fill="none" stroke="#52aecc" stroke-linecap="round" stroke-linejoin="round"/><path d="m629.56 509.51v-23.06h-16.22l-1.36-.79a6 6 0 0 0 -5.43 0l-1.36.79h-16.28v23.43a1.9 1.9 0 0 0 1.12 1.57l16.52 9.55a6 6 0 0 0 5.43 0l16.51-9.53c.92-.55 1.27-1.28 1.07-1.96z" fill="url(#F)"/><path d="m612 475.35 16.51 9.53c1.5.87 1.5 2.27 0 3.14l-16.51 9.53a6 6 0 0 1 -5.43 0l-16.57-9.55c-1.5-.87-1.5-2.27 0-3.14l16.52-9.53a6 6 0 0 1 5.48.02z" fill="#f6fbf6"/><path d="m612 475.35 16.51 9.53c1.5.87 1.5 2.27 0 3.14l-16.51 9.53a6 6 0 0 1 -5.43 0l-16.57-9.55c-1.5-.87-1.5-2.27 0-3.14l16.52-9.53a6 6 0 0 1 5.48.02z" fill="#f6fbf6"/><path d="m606.14 484.64a7 7 0 0 1 6.25 0c1.73 1 1.73 2.62 0 3.61a6.89 6.89 0 0 1 -6.25 0c-1.73-.99-1.73-2.61 0-3.61z" fill="#cef8ce"/><path d="m573.31 590.55v-23.06h-16.22l-1.36-.79a6.06 6.06 0 0 0 -5.44 0l-1.36.79h-16.27v23.43a1.9 1.9 0 0 0 1.12 1.57l16.51 9.51a6.06 6.06 0 0 0 5.44 0l16.51-9.54c.92-.46 1.27-1.23 1.07-1.91z" fill="url(#G)"/><path d="m555.73 556.39 16.51 9.53c1.5.87 1.5 2.27 0 3.14l-16.51 9.53a6 6 0 0 1 -5.44 0l-16.51-9.53c-1.5-.87-1.5-2.27 0-3.14l16.51-9.53a6 6 0 0 1 5.44 0z" fill="#f6fbf6"/><path d="m555.73 556.39 16.51 9.53c1.5.87 1.5 2.27 0 3.14l-16.51 9.53a6 6 0 0 1 -5.44 0l-16.51-9.53c-1.5-.87-1.5-2.27 0-3.14l16.51-9.53a6 6 0 0 1 5.44 0z" fill="#f6fbf6"/><path d="m549.88 565.68a7 7 0 0 1 6.26 0c1.72 1 1.72 2.62 0 3.61a6.91 6.91 0 0 1 -6.26 0c-1.72-.99-1.72-2.61 0-3.61z" fill="#cef8ce"/><path d="m609.26 444.94v41.51" fill="none" stroke="#52aecc" stroke-linecap="round" stroke-linejoin="round"/><path d="m629.56 456.57v-23.06h-16.22l-1.36-.79a6 6 0 0 0 -5.43 0l-1.36.79h-16.28v23.43a1.9 1.9 0 0 0 1.12 1.57l16.52 9.49a6 6 0 0 0 5.43 0l16.51-9.53c.92-.47 1.27-1.22 1.07-1.9z" fill="url(#H)"/><path d="m612 422.4 16.51 9.54c1.5.86 1.5 2.27 0 3.13l-16.51 9.54a6 6 0 0 1 -5.43 0l-16.57-9.54c-1.5-.86-1.5-2.27 0-3.13l16.52-9.54a6 6 0 0 1 5.48 0z" fill="#f6fbf6"/><path d="m612 422.4 16.51 9.54c1.5.86 1.5 2.27 0 3.13l-16.51 9.54a6 6 0 0 1 -5.43 0l-16.57-9.54c-1.5-.86-1.5-2.27 0-3.13l16.52-9.54a6 6 0 0 1 5.48 0z" fill="#f6fbf6"/><path d="m606.14 431.7a6.89 6.89 0 0 1 6.25 0c1.73 1 1.73 2.61 0 3.61a6.89 6.89 0 0 1 -6.25 0c-1.73-1-1.73-2.61 0-3.61z" fill="#cef8ce"/><path d="m564.58 349.49 30.07 17.36a29.23 29.23 0 0 1 14.61 25.31v41.35" fill="none" stroke="#52aecc" stroke-linecap="round" stroke-linejoin="round"/><path d="m369.05 359.11v43.83a28 28 0 0 1 -14 24.24l-38.9 22.46" fill="none" stroke="#52aecc" stroke-linecap="round" stroke-linejoin="round"/><path d="m389.35 370.82v-23.06h-16.22l-1.36-.78a6 6 0 0 0 -5.44 0l-1.36.78h-16.27v23.44a1.9 1.9 0 0 0 1.12 1.56l16.51 9.54a6.06 6.06 0 0 0 5.44 0l16.51-9.54c.92-.52 1.27-1.25 1.07-1.94z" fill="url(#I)"/><path d="m371.77 336.66 16.51 9.53c1.5.87 1.5 2.27 0 3.14l-16.51 9.53a6 6 0 0 1 -5.44 0l-16.51-9.53c-1.5-.87-1.5-2.27 0-3.14l16.51-9.53a6 6 0 0 1 5.44 0z" fill="#f6fbf6"/><path d="m371.77 336.66 16.51 9.53c1.5.87 1.5 2.27 0 3.14l-16.51 9.53a6 6 0 0 1 -5.44 0l-16.51-9.53c-1.5-.87-1.5-2.27 0-3.14l16.51-9.53a6 6 0 0 1 5.44 0z" fill="#f6fbf6"/><path d="m365.92 346a6.91 6.91 0 0 1 6.26 0c1.72 1 1.72 2.61 0 3.61a7 7 0 0 1 -6.26 0c-1.72-1.04-1.72-2.61 0-3.61z" fill="#cef8ce"/><path d="m333.1 451.86v-23.06h-16.22l-1.37-.78a6 6 0 0 0 -5.43 0l-1.36.78h-16.28v23.44a1.91 1.91 0 0 0 1.13 1.56l16.51 9.54a6 6 0 0 0 5.43 0l16.49-9.54c.94-.52 1.3-1.25 1.1-1.94z" fill="url(#J)"/><path d="m315.51 417.7 16.49 9.53c1.5.87 1.5 2.28 0 3.14l-16.52 9.54a6 6 0 0 1 -5.43 0l-16.51-9.54c-1.5-.86-1.5-2.27 0-3.14l16.51-9.53a6 6 0 0 1 5.46-0z" fill="#f6fbf6"/><path d="m315.51 417.7 16.49 9.53c1.5.87 1.5 2.28 0 3.14l-16.52 9.54a6 6 0 0 1 -5.43 0l-16.51-9.54c-1.5-.86-1.5-2.27 0-3.14l16.51-9.53a6 6 0 0 1 5.46-0z" fill="#f6fbf6"/><path d="m309.67 427a6.91 6.91 0 0 1 6.26 0c1.72 1 1.72 2.61 0 3.61a6.91 6.91 0 0 1 -6.26 0c-1.67-1-1.67-2.61 0-3.61z" fill="#cef8ce"/><path d="m369.05 306.25v41.51" fill="none" stroke="#52aecc" stroke-linecap="round" stroke-linejoin="round"/><path d="m389.35 317.88v-23.06h-16.22l-1.36-.79a6.06 6.06 0 0 0 -5.44 0l-1.36.79h-16.27v23.43a1.9 1.9 0 0 0 1.12 1.57l16.51 9.54a6.06 6.06 0 0 0 5.44 0l16.51-9.54c.92-.53 1.27-1.26 1.07-1.94z" fill="url(#K)"/><path d="m371.77 283.72 16.51 9.53c1.5.87 1.5 2.27 0 3.14l-16.51 9.53a6 6 0 0 1 -5.44 0l-16.51-9.53c-1.5-.87-1.5-2.27 0-3.14l16.51-9.53a6 6 0 0 1 5.44 0z" fill="#f6fbf6"/><path d="m371.77 283.72 16.51 9.53c1.5.87 1.5 2.27 0 3.14l-16.51 9.53a6 6 0 0 1 -5.44 0l-16.51-9.53c-1.5-.87-1.5-2.27 0-3.14l16.51-9.53a6 6 0 0 1 5.44 0z" fill="#f6fbf6"/><path d="m365.92 293a7 7 0 0 1 6.26 0c1.72 1 1.72 2.62 0 3.62a7 7 0 0 1 -6.26 0c-1.72-.99-1.72-2.62 0-3.62z" fill="#cef8ce"/><path d="m369.05 294.82v-37.17a12.15 12.15 0 0 1 18.23-10.52l12.1 7" fill="none" stroke="#52aecc" stroke-linecap="round" stroke-linejoin="round"/><path d="m541.97 597.22-1-.58v-1.49l1 .58z" fill="#6c6"/><path d="m301.76 458.54-1-.59v-1.49l1 .59z" fill="#6c6"/><path d="m288.9 545.92-6.97-4.03v-11.07l6.97 4.03z" fill="#4bfb4b"/><path d="m288.9 545.92 3.9-2.25v-11.07l-3.9 2.25z" fill="#39e539"/><path d="m288.9 534.85 3.9-2.25-6.98-4.03-3.89 2.25z" fill="#6dff6d"/><path d="m301.08 538.89-6.97-4.03v-11.07l6.97 4.03z" fill="#4bfb4b"/><path d="m301.08 538.89 3.9-2.25v-11.07l-3.9 2.25z" fill="#39e539"/><path d="m301.08 527.82 3.9-2.25-6.98-4.03-3.89 2.25z" fill="#6dff6d"/><path d="m313.27 531.86-6.98-4.03v-11.07l6.98 4.02z" fill="#4bfb4b"/><path d="m313.27 531.86 3.89-2.25v-11.08l-3.89 2.25z" fill="#39e539"/><path d="m313.27 520.78 3.89-2.25-6.97-4.02-3.9 2.25z" fill="#6dff6d"/><path d="m325.45 524.82-6.98-4.03v-11.07l6.98 4.03z" fill="#4bfb4b"/><path d="m325.45 524.82 3.89-2.25v-11.07l-3.89 2.25z" fill="#39e539"/><path d="m325.45 513.75 3.89-2.25-6.97-4.03-3.9 2.25z" fill="#6dff6d"/><path d="m337.63 517.79-6.98-4.03v-11.07l6.98 4.03z" fill="#4bfb4b"/><path d="m337.63 517.79 3.89-2.25v-11.07l-3.89 2.25z" fill="#39e539"/><path d="m337.63 506.72 3.89-2.25-6.97-4.03-3.9 2.25z" fill="#6dff6d"/><path d="m349.81 510.76-6.98-4.03v-11.07l6.98 4.03z" fill="#4bfb4b"/><path d="m349.81 510.76 3.9-2.25v-11.07l-3.9 2.25z" fill="#39e539"/><path d="m349.81 499.69 3.9-2.25-6.98-4.03-3.9 2.25z" fill="#6dff6d"/><path d="m361.99 503.73-6.98-4.03v-11.07l6.98 4.02z" fill="#4bfb4b"/><path d="m361.99 503.73 3.9-2.25v-11.08l-3.9 2.25z" fill="#39e539"/><path d="m361.99 492.65 3.9-2.25-6.98-4.02-3.9 2.25z" fill="#6dff6d"/><path d="m374.17 496.69-6.97-4.03v-11.07l6.97 4.03z" fill="#4bfb4b"/><path d="m374.17 496.69 3.9-2.25v-11.07l-3.9 2.25z" fill="#39e539"/><path d="m374.17 485.62 3.9-2.25-6.98-4.03-3.89 2.25z" fill="#6dff6d"/><path d="m498.21 545.92 6.97-4.03v-11.07l-6.97 4.03z" fill="#39e539"/><path d="m498.21 545.92-3.9-2.25v-11.07l3.9 2.25z" fill="#39e539"/><path d="m498.21 534.85-3.9-2.25 6.98-4.03 3.89 2.25z" fill="#6dff6d"/><path d="m486.02 538.89 6.98-4.03v-11.07l-6.98 4.03z" fill="#39e539"/><path d="m486.02 538.89-3.89-2.25v-11.07l3.89 2.25z" fill="#39e539"/><path d="m486.02 527.82-3.89-2.25 6.98-4.03 3.89 2.25z" fill="#6dff6d"/><path d="m473.84 531.86 6.98-4.03v-11.07l-6.98 4.02z" fill="#39e539"/><path d="m473.84 531.86-3.89-2.25v-11.08l3.89 2.25z" fill="#39e539"/><path d="m473.84 520.78-3.89-2.25 6.97-4.02 3.9 2.25z" fill="#6dff6d"/><path d="m461.66 524.82 6.98-4.03v-11.07l-6.98 4.03z" fill="#39e539"/><path d="m461.66 524.82-3.89-2.25v-11.07l3.89 2.25z" fill="#39e539"/><path d="m461.66 513.75-3.89-2.25 6.97-4.03 3.9 2.25z" fill="#6dff6d"/><path d="m449.48 517.79 6.98-4.03v-11.07l-6.98 4.03z" fill="#39e539"/><path d="m449.48 517.79-3.9-2.25v-11.07l3.9 2.25z" fill="#39e539"/><path d="m449.48 506.72-3.9-2.25 6.98-4.03 3.9 2.25z" fill="#6dff6d"/><path d="m437.3 510.76 6.98-4.03v-11.07l-6.98 4.03z" fill="#39e539"/><path d="m437.3 510.76-3.9-2.25v-11.07l3.9 2.25z" fill="#39e539"/><path d="m437.3 499.69-3.9-2.25 6.98-4.03 3.9 2.25z" fill="#6dff6d"/><path d="m425.12 503.73 6.98-4.03v-11.07l-6.98 4.02z" fill="#39e539"/><path d="m425.12 503.73-3.9-2.25v-11.08l3.9 2.25z" fill="#39e539"/><path d="m425.12 492.65-3.9-2.25 6.98-4.02 3.9 2.25z" fill="#6dff6d"/><path d="m412.94 496.69 6.97-4.03v-11.07l-6.97 4.03z" fill="#39e539"/><path d="m412.94 496.69-3.9-2.25v-11.07l3.9 2.25z" fill="#39e539"/><path d="m412.94 485.62-3.9-2.25 6.98-4.03 3.89 2.25z" fill="#6dff6d"/><path d="m504.37 552.63v-9h-88.56l-7.43-4.29c-8.19-4.73-21.46-4.73-29.66 0l-7.43 4.29h-88.87v11.07c0 3.1 2.05 6.2 6.14 8.56l90.17 52c8.19 4.73 21.46 4.73 29.65 0l90.17-52c4.99-2.91 6.92-6.89 5.82-10.63z" fill="url(#L)"/><path d="m408.38 483 90.16 52c8.19 4.73 8.2 12.4 0 17.13l-90.16 52.05c-8.19 4.73-21.46 4.73-29.65 0l-90.17-52.05c-8.19-4.73-8.19-12.4 0-17.13l90.16-52c8.2-4.74 21.47-4.74 29.66 0z" fill="#f6fbf6"/><path d="m415.7 619.13-6.98-4.03v-11.07l6.98 4.02z" fill="#4bfb4b"/><path d="m415.7 619.13 3.9-2.25v-11.08l-3.9 2.25z" fill="#39e539"/><path d="m415.7 608.05 3.9-2.25-6.98-4.02-3.9 2.25z" fill="#6dff6d"/><path d="m408.72 604.03 6.15 14.61-6.15-3.54z" fill="url(#M)"/><path d="m427.88 612.09-6.98-4.02v-11.08l6.98 4.03z" fill="#4bfb4b"/><path d="m427.88 612.09 3.9-2.25v-11.07l-3.9 2.25z" fill="#39e539"/><path d="m427.88 601.02 3.9-2.25-6.98-4.02-3.9 2.24z" fill="#6dff6d"/><path d="m420.9 596.99 6.15 14.62-6.15-3.54z" fill="url(#N)"/><path d="m440.06 605.06-6.98-4.03v-11.07l6.98 4.03z" fill="#4bfb4b"/><path d="m440.06 605.06 3.9-2.25v-11.07l-3.9 2.25z" fill="#39e539"/><path d="m440.06 593.99 3.9-2.25-6.98-4.03-3.9 2.25z" fill="#6dff6d"/><path d="m433.08 589.96 6.15 14.62-6.15-3.55z" fill="url(#O)"/><path d="m452.24 598.03-6.97-4.03v-11.07l6.97 4.03z" fill="#4bfb4b"/><path d="m452.24 598.03 3.9-2.25v-11.07l-3.9 2.25z" fill="#39e539"/><path d="m452.24 586.96 3.9-2.25-6.98-4.03-3.89 2.25z" fill="#6dff6d"/><path d="m445.27 582.93 6.14 14.62-6.14-3.55z" fill="url(#P)"/><path d="m464.42 591-6.97-4.03v-11.07l6.97 4.02z" fill="#4bfb4b"/><path d="m464.42 591 3.9-2.25v-11.08l-3.9 2.25z" fill="#39e539"/><path d="m464.42 579.92 3.9-2.25-6.98-4.02-3.89 2.25z" fill="#6dff6d"/><path d="m457.45 575.9 6.14 14.61-6.14-3.54z" fill="url(#Q)"/><path d="m476.61 583.96-6.98-4.03v-11.07l6.98 4.03z" fill="#4bfb4b"/><path d="m476.61 583.96 3.89-2.25v-11.07l-3.89 2.25z" fill="#39e539"/><path d="m476.61 572.89 3.89-2.25-6.98-4.03-3.89 2.25z" fill="#6dff6d"/><path d="m469.63 568.86 6.14 14.62-6.14-3.55z" fill="url(#R)"/><path d="m488.79 576.93-6.98-4.03v-11.07l6.98 4.03z" fill="#4bfb4b"/><path d="m488.79 576.93 3.89-2.25v-11.07l-3.89 2.25z" fill="#39e539"/><path d="m488.79 565.86 3.89-2.25-6.97-4.03-3.9 2.25z" fill="#6dff6d"/><path d="m481.81 561.83 6.14 14.62-6.14-3.55z" fill="url(#S)"/><path d="m500.97 569.9-6.98-4.03v-11.07l6.98 4.03z" fill="#4bfb4b"/><path d="m500.97 569.9 3.89-2.25v-11.07l-3.89 2.25z" fill="#39e539"/><path d="m500.97 558.83 3.89-2.25-6.97-4.03-3.9 2.25z" fill="#6dff6d"/><path d="m493.99 554.8 6.14 14.61-6.14-3.54z" fill="url(#T)"/><path d="m293.12 554.8 5.95 14.5-5.95-3.43z" fill="url(#U)"/><path d="m305.3 561.83 5.95 14.51-5.95-3.44z" fill="url(#V)"/><path d="m317.48 568.86 5.95 14.51-5.95-3.44z" fill="url(#W)"/><path d="m329.66 575.9 5.95 14.5-5.95-3.43z" fill="url(#X)"/><path d="m341.84 582.93 5.95 14.51-5.95-3.44z" fill="url(#Y)"/><path d="m354.02 589.96 5.96 14.51-5.96-3.44z" fill="url(#Z)"/><path d="m366.21 596.99 5.95 14.51-5.95-3.43z" fill="url(#aa)"/><path d="m378.39 604.03 5.95 14.5-5.95-3.43z" fill="url(#ab)"/><path d="m371.41 619.13 6.98-4.03v-11.07l-6.98 4.02z" fill="#39e539"/><path d="m371.41 619.13-3.9-2.25v-11.08l3.9 2.25z" fill="#4bfb4b"/><path d="m371.41 608.05-3.9-2.25 6.98-4.02 3.9 2.25z" fill="#6dff6d"/><path d="m359.23 612.09 6.98-4.02v-11.08l-6.98 4.03z" fill="#39e539"/><path d="m359.23 612.09-3.9-2.25v-11.07l3.9 2.25z" fill="#4bfb4b"/><path d="m359.23 601.02-3.9-2.25 6.98-4.02 3.9 2.24z" fill="#6dff6d"/><path d="m347.05 605.06 6.97-4.03v-11.07l-6.97 4.03z" fill="#39e539"/><path d="m347.05 605.06-3.9-2.25v-11.07l3.9 2.25z" fill="#4bfb4b"/><path d="m347.05 593.99-3.9-2.25 6.98-4.03 3.89 2.25z" fill="#6dff6d"/><path d="m334.87 598.03 6.97-4.03v-11.07l-6.97 4.03z" fill="#39e539"/><path d="m334.87 598.03-3.9-2.25v-11.07l3.9 2.25z" fill="#4bfb4b"/><path d="m334.87 586.96-3.9-2.25 6.98-4.03 3.89 2.25z" fill="#6dff6d"/><path d="m322.69 591 6.97-4.03v-11.07l-6.97 4.02z" fill="#39e539"/><path d="m322.69 591-3.9-2.25v-11.08l3.9 2.25z" fill="#4bfb4b"/><path d="m322.69 579.92-3.9-2.25 6.98-4.02 3.89 2.25z" fill="#6dff6d"/><path d="m310.5 583.96 6.98-4.03v-11.07l-6.98 4.03z" fill="#39e539"/><path d="m310.5 583.96-3.89-2.25v-11.07l3.89 2.25z" fill="#4bfb4b"/><path d="m310.5 572.89-3.89-2.25 6.97-4.03 3.9 2.25z" fill="#6dff6d"/><path d="m298.32 576.93 6.98-4.03v-11.07l-6.98 4.03z" fill="#39e539"/><path d="m298.32 576.93-3.89-2.25v-11.07l3.89 2.25z" fill="#4bfb4b"/><path d="m298.32 565.86-3.89-2.25 6.97-4.03 3.9 2.25z" fill="#6dff6d"/><path d="m286.14 569.9 6.98-4.03v-11.07l-6.98 4.03z" fill="#39e539"/><path d="m286.14 569.9-3.89-2.25v-11.07l3.89 2.25z" fill="#4bfb4b"/><path d="m286.14 558.83-3.89-2.25 6.97-4.03 3.9 2.25z" fill="#6dff6d"/><g fill="#e8f7e8"><path d="m431.78 570.64 17.38 10.04-3.89 2.25-17.39-10.04z"/><path d="m419.6 577.67 17.38 10.04-3.9 2.25-17.38-10.04z"/><path d="m407.41 584.71 17.39 10.04-3.9 2.24-17.38-10.03z"/><path d="m395.23 591.74 17.39 10.04-3.9 2.25-17.38-10.04z"/><path d="m355.33 570.64-17.38 10.04 3.89 2.25 17.39-10.04z"/><path d="m367.51 577.67-17.38 10.04 3.89 2.25 17.39-10.04z"/><path d="m379.7 584.71-17.39 10.04 3.9 2.24 17.38-10.03z"/><path d="m393.56 590.77-19.07 11.01 3.9 2.25 19.06-11.01z"/><path d="m494.31 532.6-19.06 11.01 3.89 2.25 19.07-11.01z"/><path d="m343.15 563.61-17.38 10.04 3.89 2.25 17.39-10.04z"/><path d="m330.97 556.58-17.39 10.03 3.9 2.25 17.39-10.03z"/><path d="m318.79 549.54-17.39 10.04 3.9 2.25 17.39-10.04z"/><path d="m306.61 542.51-17.39 10.04 3.9 2.25 17.38-10.04z"/><path d="m457.77 511.5-17.39 10.04 3.9 2.25 17.38-10.04z"/><path d="m469.95 518.53-17.39 10.04 3.9 2.25 17.38-10.04z"/><path d="m482.13 525.57-17.39 10.04 3.9 2.25 17.38-10.04z"/><path d="m445.58 504.47-17.38 10.04 3.9 2.25 17.38-10.04z"/><path d="m433.4 497.44-17.38 10.03 3.89 2.25 17.39-10.03z"/><path d="m421.22 490.4-17.38 10.04 3.89 2.25 17.39-10.04z"/><path d="m409.04 483.37-19.38 11.19 3.9 2.25 19.38-11.19z"/><path d="m443.96 563.61 17.38 10.04-3.89 2.25-17.39-10.04z"/><path d="m456.14 556.58 17.38 10.03-3.89 2.25-17.39-10.03z"/><path d="m468.32 549.54 17.39 10.04-3.9 2.25-17.39-10.04z"/><path d="m478.82 541.54 19.07 11.01-3.9 2.25-19.06-11.01z"/><path d="m329.34 511.5 17.39 10.04-3.9 2.25-17.38-10.04z"/><path d="m317.16 518.53 17.39 10.04-3.9 2.25-17.38-10.04z"/><path d="m304.98 525.57 17.39 10.04-3.9 2.25-17.39-10.04z"/><path d="m292.8 532.6 19.37 11.2-3.9 2.25-19.37-11.2z"/><path d="m341.52 504.47 17.39 10.04-3.9 2.25-17.38-10.04z"/><path d="m353.71 497.44 17.38 10.03-3.89 2.25-17.39-10.03z"/><path d="m365.89 490.4 17.38 10.04-3.89 2.25-17.39-10.04z"/><path d="m378.07 483.37 19.06 11.01-3.89 2.25-19.07-11.01z"/></g><path d="m414.2 521.32-20.44-.49-5.1 11.17c-.45-.23-.91-.46-1.33-.7a18.76 18.76 0 0 1 -6.05-5c-1.16-1.65-1.34-3.15-.55-4.52l-31.23-3.47c-.8 1.69-18.77 10.83-18.77 10.83-.79 1.7-.15 3.72 1.91 6.09a36.8 36.8 0 0 0 9.35 7.15 91.56 91.56 0 0 0 19.85 8.29 155.8 155.8 0 0 0 23.35 5 171.93 171.93 0 0 0 23.07 1.64q3.19 0 5.94-.13z" fill="url(#ac)"/><path d="m360.4 514.08a35 35 0 0 1 6 19.08q0 6.35-2.83 10t-8.63 3.52q-5.81-.18-14.35-5.11a80.31 80.31 0 0 1 -12.4-8.92 74.06 74.06 0 0 1 -10.54-11.07l6-11.09a61.62 61.62 0 0 0 7.83 8.72 48.38 48.38 0 0 0 8.59 6.43q4.32 2.49 6.9 2.08t2.58-3.84a10.65 10.65 0 0 0 -2.54-6.64q-2.53-3.22-9-6.94l-16.08-9.29 3-38.26 37.75 21.8v15l-23.87-13.78-.76 9.53 4 2.29q12.37 7.18 18.35 16.49z" fill="#52aecc"/><path d="m331.45 519.25a48.38 48.38 0 0 0 8.59 6.43q4.32 2.49 6.9 2.08t2.58-3.84a10.65 10.65 0 0 0 -2.54-6.64q-2.53-3.22-9-6.94l-7-4.06-7.37 4.25a61.62 61.62 0 0 0 7.84 8.72z" fill="#7ddcfb"/><path d="m360.75 545.54h.1z" fill="#7ddcfb"/><path d="m343.66 451.96-18.77 10.83 32.13 18.55 5.62 3.25 18.76-10.84z" fill="#7ddcfb"/><path d="m374.94 492.44 6.46-3.74v-14.95l-18.76 10.84v3.31 11.64z" fill="#3e93af"/><path d="m338.77 485.76-.76 9.53 8.63-4.99z" fill="#3e93af"/><path d="m379.16 503.24a43.31 43.31 0 0 0 -7.64-8.83l-8.88 5.13-16-9.24-8.63 5 4 2.29q12.43 7.19 18.41 16.5a35 35 0 0 1 6 19.08q0 6.35-2.83 10a8.54 8.54 0 0 1 -2.4 2.13l18.39-10.62a8.23 8.23 0 0 0 2.78-2.34q2.83-3.68 2.84-10a35 35 0 0 0 -6.04-19.1z" fill="url(#ad)"/><path d="m425.21 551.6q-9.81 2.4-10.21 6.74a4.54 4.54 0 0 0 .56 2.54 72.39 72.39 0 0 0 -9.08 1.55q-9.82 2.45-10.24 6.75t8.89 9.67a110.74 110.74 0 0 0 17.09 7.63q5.18 1.88 10.8 3.54l42-24.24v-15.69q-11.18-.93-22.17-.93-17.85-0-27.64 2.44z" fill="url(#ae)"/><path d="m407.59 543.28v12.82l6.34 3.66v5.94a20.15 20.15 0 0 1 -9.06-3 31.51 31.51 0 0 1 -8.72-7.53 36.84 36.84 0 0 1 -5.92-10.35 32.26 32.26 0 0 1 -2.12-11.34q0-8.89 4.66-11.53t12.23 1.78q8.38 4.83 14.39 15.93l10.66-5a68 68 0 0 0 -11-15.63 64.51 64.51 0 0 0 -14.89-11.83q-9.48-5.47-17-5.28a14.35 14.35 0 0 0 -11.76 5.87q-4.23 5.67-4.23 15.93a55.62 55.62 0 0 0 4.23 20.81 70.8 70.8 0 0 0 11.68 19.4 62.93 62.93 0 0 0 16.76 14.22 49.3 49.3 0 0 0 13.2 5.38 24.65 24.65 0 0 0 11.68.29v-28.33z" fill="#52aecc"/><path d="m409 534a33.07 33.07 0 0 1 -2-9c-.63-.43-1.27-.85-1.93-1.22q-7.62-4.41-12.27-1.76t-4.66 11.53a32.26 32.26 0 0 0 2.12 11.34 36.84 36.84 0 0 0 5.92 10.35 31.51 31.51 0 0 0 8.72 7.53 20.15 20.15 0 0 0 9.06 3v-5.94l-6.34-3.66v-12.89l4.67-2.69a37.45 37.45 0 0 1 -3.29-6.59z" fill="url(#af)"/><path d="m432.55 533.26 16.31-9.42a68.06 68.06 0 0 0 -11-15.64 64.52 64.52 0 0 0 -14.86-11.82q-9.48-5.47-17-5.28a15.23 15.23 0 0 0 -7.62 2.09l-18.83 10.81a15.36 15.36 0 0 1 7.61-2.09q7.53-.19 17 5.28a64.51 64.51 0 0 1 14.93 11.81 68 68 0 0 1 11 15.63l2.46-1.41z" fill="#7ddcfb"/><path d="m447.5 544.65-17.35-10h-.06l-10.66 5c-.45-.84-.92-1.63-1.39-2.41l-5.78 3.34-4.67 2.69 21.15 12.21 18.76-10.84z" fill="#67c9e9"/><path d="m428.74 555.49v14.88 13.46l18.76-10.83v-28.35z" fill="#3e93af"/><path d="m140.12 471.29c0 1.48 5.07 20.23 6.16 22.1 1.57 2.71 4.29 5.53 4.95 7.27a28.09 28.09 0 0 1 1.31 6.1c0 .91-1.17 4.08-2.3 3.63s.52-2.11 0-2.66c-.23.52-1.52 1.81-2.65 1.59s-.72-.64-.72-.64c-.6.22-1.41.23-1.62-.24-.51.17-1.36.61-1.58-.67s-.37-3.43-.9-4.25c-1.69-2.64-1.5-9-1.84-9.75s-6.57-16.39-7.1-19.69-.47-19.85 2.44-20 3.85 12.48 3.85 17.21z" fill="#a9fca9"/><path d="m130.79 610.85c-3.45.57-4.45 6.13-2.73 9.62a13.44 13.44 0 0 0 3.78 2.32s10.9 4.47 13.35 4.67 7.89-.72 8.34-4.91c-.42-2.56-2.57-3.26-5.21-4.83-3.44-2-6.38-5-9.15-6.36-2.28-1.12-8.38-.51-8.38-.51z" fill="url(#ag)"/><path d="m137.41 607.31c-1.68.27-7.09 1.61-7.09 1.61s-2 5.61 1.16 6.6c6.13 1.93 11.36-2.19 9-3.57-1.67-.95-3.27-1.95-3.07-4.64z" fill="#a9fca9"/><path d="m145.11 626.34c-2.52-.2-13.74-4.8-13.74-4.8a14.39 14.39 0 0 1 -3.76-2.29 8 8 0 0 0 .45 1.22 13.44 13.44 0 0 0 3.78 2.32s10.9 4.47 13.35 4.67 7.89-.72 8.34-4.91a2.27 2.27 0 0 1 -.06-.25c-1.16 3.45-6.05 4.22-8.36 4.04z" fill="#113a47"/><path d="m141.47 612.77c-.45-.6-1.52-2.22-3.39-.88a4.46 4.46 0 0 0 -2.17 4.46c.22 1.4 4.26.37 4.41.16s1.15-3.74 1.15-3.74z" fill="#2e7b94"/><path d="m143.32 614.51a8.35 8.35 0 0 0 -3.66 3.57 1.1 1.1 0 0 1 -2-1 10.38 10.38 0 0 1 4.79-4.65 1.12 1.12 0 0 1 1.45.59 1.1 1.1 0 0 1 -.58 1.49z" fill="#fff"/><path d="m146.73 616.69a8.21 8.21 0 0 0 -3.66 3.56 1.11 1.11 0 0 1 -2-1 10.34 10.34 0 0 1 4.79-4.64 1.1 1.1 0 1 1 .87 2z" fill="#fff"/><path d="m136.46 497.24c1.66 20.51 4.4 40 4.4 56.51 0 18.84-3.27 38.68-3.47 54.47.18 4.84-5.32 8.63-7.64 4.36-.1-1.4.56-3.19.32-5.25-1.41-12-5.52-30.5-2.06-46.05-4.77-20.61-17.9-46.08-16-62.25 5.99-2.96 19.88-3.24 24.45-1.79z" fill="#a9fca9"/><path d="m133.82 432.28c5.38 2.64 7.35 6.68 7.35 14.7-3.68-2.25-7.35-14.7-7.35-14.7z" fill="#a9fca9"/><path d="m130.94 505.06v3.44l-2.98-1.72z" fill="#3e93af"/><path d="m116.4 619.13c-3.45.56-4.44 6.12-2.72 9.61a13.42 13.42 0 0 0 3.78 2.33s10.89 4.47 13.34 4.66 7.9-.72 8.34-4.91c-.41-2.55-2.57-3.25-5.21-4.82-3.43-2-6.38-5-9.15-6.37-2.28-1.11-8.38-.5-8.38-.5z" fill="url(#ah)"/><path d="m123 615.58c-1.68.28-7.09 1.62-7.09 1.62s-2 5.61 1.16 6.6c6.14 1.92 11.37-2.19 9-3.58-1.65-.92-3.24-1.97-3.07-4.64z" fill="#a9fca9"/><path d="m130.73 634.61c-2.53-.2-13.74-4.8-13.74-4.8a14.55 14.55 0 0 1 -3.77-2.29 7.69 7.69 0 0 0 .46 1.22 13.42 13.42 0 0 0 3.78 2.33s10.89 4.47 13.34 4.66 7.9-.72 8.34-4.91c0-.08 0-.16-.06-.25-1.15 3.43-6.08 4.23-8.35 4.04z" fill="#113a47"/><path d="m127.09 621.05c-.46-.61-1.52-2.23-3.4-.89a4.47 4.47 0 0 0 -2.17 4.47c.23 1.39 4.27.36 4.42.15s1.15-3.73 1.15-3.73z" fill="#2e7b94"/><path d="m128.94 622.79a8.21 8.21 0 0 0 -3.66 3.56 1.11 1.11 0 0 1 -1.47.53 1.12 1.12 0 0 1 -.53-1.48 10.39 10.39 0 0 1 4.79-4.64 1.1 1.1 0 1 1 .87 2z" fill="#fff"/><path d="m132.34 625a8.19 8.19 0 0 0 -3.65 3.56 1.11 1.11 0 0 1 -2-.95 10.39 10.39 0 0 1 4.79-4.64 1.1 1.1 0 1 1 .86 2z" fill="#fff"/><path d="m125.18 506.07c0 18.86.2 39.95.2 56.42 0 18.83-2.17 38.22-2.37 54 .17 4.85-5.32 8.64-7.65 4.37-.09-1.41.57-3.19.32-5.26-1.4-12-5.52-30.49-2.06-46-4.76-20.61-12.11-42.33-7.74-63.35 5.96-3 14.74-1.63 19.3-.18z" fill="#a9fca9"/><path d="m111 481.82c1.56-14.21-5.15-27.62-6.38-36.5-.78-5.61-1.34-12.16 3.74-13.75 5.24-1.63 7.36-2.39 11.91-2.27 10.94.27 16.07 2.51 18.3 10.05 2.09 7.1 3.58 9.26 5.31 16.21.78 3.12-7.81 9.9-6.81 23.36 7.6 11.5 13.06 37.48 15.38 57.89.89 6.15-5.37 14.05-16.43 19.59-14 7-30.21 7.54-36.33 1.25a7.88 7.88 0 0 1 -2.3-5.26c-.01-7.24 4.11-58.77 13.61-70.57z" fill="url(#ai)"/><path d="m116.38 416c.19-3.37 11.71 3.33 11.45 7.77-.21 3.62-.68 7.26.68 7.73 1.57 1.13 6.24 13.13 3.44 15.93-9.79-4-14.89-12.48-23.59-15.83 3.56-.75 7.39-4.73 8.02-15.6z" fill="#a9fca9"/><path d="m113.6 411.31 3.47-8.68h22v13.23c0 7.3-4.92 13.22-11 13.22-5.88 0-10.65-5.57-10.93-12.58h-1.53z" fill="#a9fca9"/><path d="m119 423.28a10.62 10.62 0 0 0 8.58 5.77 3.57 3.57 0 0 0 .55 2.18 7.94 7.94 0 0 1 -1.74-.16c-3.64-.9-6.29-3.93-7.39-7.79z" fill="#9df29d"/><path d="m126.61 393.42h.2c12 .31 12.89 9.26 12.23 10.75-3.8 1.36-6.2-1.22-8.59-1-1.15.09-5.83.73-7.76 3.2-2.08 2.67-1.42 6.93-3.38 6.83-.86 0-1.11-2.89-2.38-3a2.14 2.14 0 0 0 -2 2.57c.16 2.2 2.25 3.54 1.94 4.6-.51 1.75-4.9-1.39-4.81-7.65s4.21-16.72 14.55-16.3z" fill="#31788f"/><path d="m105.37 488.57s-2.35 5.87-2.36 5.87c-8.21-4.28-13.01-15.44-13.5-24.44-.63-12.16 12-32.71 12.62-33.68 3.19-4.75 10.76-.54 8.25 5.54-.54 1.24-13.44 22.45-12.06 29.62.95 4.9 2.57 13.99 7.05 17.09z" fill="#a9fca9"/><path d="m125.1 393.44c-12.74.91-14.27 13.47-19.34 16.87-3 2-9.77-1.8-13.72 5-4.55 7.87 2.81 10.72-2 14s-8.51 13.5-.49 19.74 18.08.76 16.94-8.38c-.81-6.58 1.14-10 6.66-7.85 4.14 1.59 5.72-1.68 3.87-5.89 9.2.92-.45-16.63 13.44-23.88-.53-3.49-5.36-9.61-5.36-9.61z" fill="#31788f"/><path d="m105.37 488.57c1 .62 6.24-.62 7.49-.62a26.4 26.4 0 0 1 7.56.93c2.88.93 4.84 2 2.88 2.43 1.06.23 3.55 1.25 1.59 1.82-.19.68-.91 1.59-3.07 1.51-.72.57-5.75 1.63-7.3 1.36-1.62.5-10.18.32-11.51-1.56a10.23 10.23 0 0 1 2.36-5.87z" fill="#a9fca9"/><path d="m232.3 471.69c1.65 2.36 3.75.51 1.51-2.18s-4.3-1.79-1.51 2.18z" fill="#a7faa7"/><path d="m232.11 475c2.27 1.76 3.74-.64.79-2.54s-4.63-.39-.79 2.54z" fill="#a7faa7"/><path d="m231.26 476.67c2.09.68 2.53-1.41-.08-2s-3.44.85.08 2z" fill="#a7faa7"/><path d="m237.39 487.39c0-2.2-2-4.27-2.57-5.52a44.67 44.67 0 0 0 -4.84-3.48c-1.11-.77 6.53 0 7.75-1.91 0 0 6.64-1.12 8 1.79 1.47 3.76.07 5.92.07 8.16-.03 0-8.41 3.15-8.41.96z" fill="#a7faa7"/><path d="m239.93 482.36-10.59-4.41 8.76-19.57 10.59 4.41z" fill="#67c9e9"/><path d="m230.27 477.66 8.23-18.35 9.23 3.84-8.22 18.35z" fill="#3e93af"/><path d="m240.31 483.12-.38-.76 8.76-19.57.39.77z" fill="#2e7a93"/><path d="m229.72 478.71-.38-.76 10.59 4.41.38.76z" fill="#52aecc"/><path d="m246.87 477.69a2.83 2.83 0 0 0 -1.28-2.06c0-2.57.18-5.91.18-5.91-1.38-.31-2.27 1.07-2.41 1.84-.22 1.14.13 3.62-.87 4.71-1.61 1.72-3.29 4.12-3.21 6.85l2 1.4 3.82-2.83 1.23.93z" fill="#a7faa7"/><path d="m226.19 465.52a6.75 6.75 0 0 0 -3.09-.72 8.23 8.23 0 0 0 -4.31.27c-1.32.17-2.46 1.76-3.35 4.79v-.06l-1.36 2 5.35 4.5c1.59-3 3.06-.47 5.95-3.45a7 7 0 0 0 2.54-3.11 3.59 3.59 0 0 0 -.47-1.22 6.73 6.73 0 0 1 2.8-1.47c2.41-.64 5.43-.69 5.39-1.58-2.1-1.65-9.41.03-9.45.05z" fill="#a7faa7"/><path d="m175.47 648.64c0-11.15 7.06-11.47 7.06-11.47s3.83 0 10-2.58 14.77-1.56 9.94 7.35a3.18 3.18 0 0 1 -.16.32 4.27 4.27 0 0 1 -1.57 1.37l-15.43 9.06c-2.31 1.31-9.79-1.76-9.84-4.05z" fill="url(#aj)"/><path d="m175.51 647.64c.13 2.29 7.5 5.33 9.84 4l15.43-9.06a14.2 14.2 0 0 0 2.22-1.58c-.14.31-.27.6-.45.94a3.18 3.18 0 0 1 -.16.32 4.27 4.27 0 0 1 -1.57 1.37l-15.43 9.06c-2.21 1.26-8.9-1.39-9.78-3.62a2 2 0 0 1 -.07-.44 8.13 8.13 0 0 1 -.03-.99z" fill="#1c586b"/><path d="m178.34 635.7c1.82 0 8.22 1.63 8.22 1.63a3.55 3.55 0 0 0 .57 1.66c.07.07.12.14.18.21 1.26.88 2.55 2.27-.45 4.15a4.15 4.15 0 0 1 -5.39-.38 5.07 5.07 0 0 0 -1.74-2 4.4 4.4 0 0 0 -1.68-.7.53.53 0 0 0 0-.15s-.47-4.42.29-4.42z" fill="#fff"/><path d="m178.22 526.72 31.4.56c-2.6 21-7.82 40-11.31 60.34-3.74 19.75-8 33.62-11.65 50.06-1.35 3.05-7.52 1.9-8.78-1-1-15.14-2.09-33.57 2.39-51-.75-18.9-2.49-39.97-2.05-58.96z" fill="url(#ak)"/><path d="m210.65 669.12c0-11.15 7.07-11.48 7.07-11.48s3.82 0 10-2.57 14.77-1.57 9.94 7.34a1.73 1.73 0 0 1 -.17.33 4.11 4.11 0 0 1 -1.57 1.37l-15.43 9.06c-2.31 1.35-9.78-1.76-9.84-4.05z" fill="url(#al)"/><path d="m210.69 668.11c.14 2.29 7.51 5.34 9.84 4l15.43-9a14.09 14.09 0 0 0 2.18-1.59c-.14.31-.26.6-.44.93a1.73 1.73 0 0 1 -.17.33 4.11 4.11 0 0 1 -1.57 1.37l-15.43 9.06c-2.2 1.26-8.9-1.39-9.78-3.61a2.15 2.15 0 0 1 -.07-.46 8.18 8.18 0 0 1 .01-1.03z" fill="#1c586b"/><path d="m213.52 656.18c1.82 0 8.23 1.63 8.23 1.63a3.58 3.58 0 0 0 .57 1.66l.18.22c1.26.87 2.54 2.26-.45 4.14a4.17 4.17 0 0 1 -5.4-.38 4.92 4.92 0 0 0 -1.74-2 4.49 4.49 0 0 0 -1.67-.7 1.32 1.32 0 0 0 0-.16s-.48-4.41.28-4.41z" fill="#fff"/><path d="m200.37 576.6c-1.91-9-23.92-10.14-22.47-45.6 6.9-1 41.74 15.32 48.64 14.3.86 21.12-1.18 40.77-1.31 61.39-.46 20.09-2.37 34.47-3.32 51.28-.83 3.24-7.11 3.1-8.82.41-3.44-14.77-7.56-32.78-6-50.74-2.04-9.94-4.48-20.49-6.72-31.04z" fill="url(#am)"/><path d="m193.83 462.14c-24.58 16.42-21.08 55.45-1.09 39.68 0 0-15.99-15.82 1.09-39.68z" fill="url(#an)"/><path d="m192.7 551.1c15 8.39 30.61 8.41 35.94-1.91-2-19.21-3.87-34.85 0-53.26-1.14-10.17-1.94-11.7-.64-17.63-.46-2-6.57-6.23-11-10.3-4.81-4.4-8.06-8.58-10.54-9.09-20.46-4.17-30.46 32.27-28.73 71.09 1.58 10.37 7.61 17 14.97 21.1z" fill="url(#ao)"/><path d="m195.07 461.23c4.43-3.2 3.78-5.3 3.11-9.66a21.63 21.63 0 0 1 -1.34-7.54c0-9.71 6.19-18.11 13.77-17.59 15.29 1.05 12.57 9.1 12.57 18.81 0 9-4.08 15.2-10.91 16.24 0 1.48.39 2.33 2.25 4.19-5 3-12.28 1.58-15.16.28-3.07-1.39-6.36-2.57-4.29-4.73z" fill="#a7faa7"/><path d="m203.9 424c2-1 3.75-.49 4.85-1.19 2.6-1.6 5.08-2.62 6.46-1.86a15.12 15.12 0 0 1 1.94 1.55c1.36 1.35 4.15-1.54 4.82 2a14.48 14.48 0 0 1 .23 2.73c6.52.84 3.31 6.78-1.93 18.23 0-1.86-4-6.15-4 2.11 0 .88.67 1.06.08 2.23s-4.33 4.14-6.81 6.61c-3.45 3.46-5.48.36-11.19 1a9 9 0 0 0 -1.5-5.2c-.54-1-3.68-4-3.68-9.41 4.47.48-3.41-11.53 10.73-18.8z" fill="#195a6f"/><path d="m213.35 489.18c1.69 9 5.6 27.74 17 32 11.68-1.83 15.4-24.5 15.83-34.77l-9.59.65a100.63 100.63 0 0 1 -4.32 14.94c-1.1-6.46-2.36-16-4.28-23.65-2.82-7.64-17.11-2.35-14.64 10.83z" fill="url(#ap)"/></svg>