<svg xmlns="http://www.w3.org/2000/svg" xmlns:xlink="http://www.w3.org/1999/xlink" viewBox="0 0 1452.9 1162.45"><defs><linearGradient id="l" x1="738.694" x2="787.224" y1="509.148" y2="593.204" gradientTransform="translate(147.827 -366.545)" gradientUnits="userSpaceOnUse"><stop class="stopColor807dfb svgShape" offset="0" stop-color="#7ddcfb"/><stop class="stopColor504cc0 svgShape" offset=".782" stop-color="#4ca3c0"/><stop class="stopColor423eaf svgShape" offset="1" stop-color="#3e93af"/></linearGradient><linearGradient id="m" x1="297.44" x2="506.459" y1="559.714" y2="559.714" gradientUnits="userSpaceOnUse"><stop class="stopColorc4cae9 svgShape" offset=".011" stop-color="#c4e9c4"/><stop class="stopColore5e7f5 svgShape" offset=".52" stop-color="#e5f5e5"/><stop class="stopColorffffff svgShape" offset="1" stop-color="#fff"/></linearGradient><linearGradient id="n" x1="370.856" x2="406.266" y1="348.413" y2="409.745" gradientUnits="userSpaceOnUse"><stop class="stopColor5652cc svgShape" offset=".006" stop-color="#52aecc"/><stop class="stopColor20196f svgShape" offset="1" stop-color="#195a6f"/></linearGradient><linearGradient id="o" x1="390.197" x2="425.608" y1="337.248" y2="398.581" gradientUnits="userSpaceOnUse"><stop class="stopColorff7d96 svgShape" offset=".006" stop-color="#7dff7d"/><stop class="stopColore33c5c svgShape" offset="1" stop-color="#3ce33c"/></linearGradient><linearGradient id="p" x1="291.497" x2="362.188" y1="353.504" y2="475.945" gradientUnits="userSpaceOnUse"><stop class="stopColor807dfb svgShape" offset=".421" stop-color="#7ddcfb"/><stop class="stopColor7a77f4 svgShape" offset=".452" stop-color="#77d5f4"/><stop class="stopColor6b68e1 svgShape" offset=".495" stop-color="#68c3e1"/><stop class="stopColor524ec2 svgShape" offset=".546" stop-color="#0099cb"/><stop class="stopColor423eaf svgShape" offset=".573" stop-color="#3e93af"/></linearGradient><linearGradient id="a" x1="314.599" x2="365.855" y1="360.057" y2="360.057" gradientUnits="userSpaceOnUse"><stop class="stopColor20196f svgShape" offset=".006" stop-color="#195a6f"/><stop class="stopColor423eaf svgShape" offset=".242" stop-color="#3e93af"/></linearGradient><linearGradient id="q" x1="298.425" x2="349.683" y1="369.394" y2="369.394" xlink:href="#a"/><linearGradient id="r" x1="282.255" x2="333.511" y1="378.732" y2="378.732" xlink:href="#a"/><linearGradient id="s" x1="266.082" x2="317.34" y1="388.07" y2="388.07" xlink:href="#a"/><linearGradient id="t" x1="102.991" x2="254.704" y1="368.239" y2="631.013" gradientUnits="userSpaceOnUse"><stop class="stopColorff7d96 svgShape" offset="0" stop-color="#7dff7d"/><stop class="stopColore33c5c svgShape" offset=".758" stop-color="#3ce33c"/></linearGradient><linearGradient id="u" x1="171.909" x2="300.394" y1="356.431" y2="578.973" gradientUnits="userSpaceOnUse"><stop class="stopColorf6f6fb svgShape" offset="0" stop-color="#f6fbf6"/><stop class="stopColore5e6f5 svgShape" offset=".192" stop-color="#e5f5e5"/><stop class="stopColorbbc0e6 svgShape" offset=".702" stop-color="#bbe6bb"/></linearGradient><linearGradient id="v" x1="-62.793" x2="162.872" y1="279.207" y2="670.07" gradientUnits="userSpaceOnUse"><stop class="stopColorbc3153 svgShape" offset=".697" stop-color="#31bc31"/><stop class="stopColorff5a72 svgShape" offset="1" stop-color="#5aff5a"/></linearGradient><linearGradient id="w" x1="189.549" x2="50.394" y1="493.983" y2="574.334" gradientUnits="userSpaceOnUse"><stop class="stopColor423eaf svgShape" offset="0" stop-color="#3e93af"/><stop class="stopColor5e5ad1 svgShape" offset=".427" stop-color="#5ab4d1"/><stop class="stopColor807dfb svgShape" offset="1" stop-color="#7ddcfb"/></linearGradient><linearGradient id="x" x1="27.397" x2="203.852" y1="336.366" y2="641.995" gradientUnits="userSpaceOnUse"><stop class="stopColora3a9d0 svgShape" offset=".416" stop-color="#a3d0a3"/><stop class="stopColorced3f8 svgShape" offset="1" stop-color="#cef8ce"/></linearGradient><linearGradient id="y" x1="143.622" x2="186.579" y1="470.845" y2="545.25" gradientUnits="userSpaceOnUse"><stop class="stopColorf1f1f6 svgShape" offset="0" stop-color="#f1f6f1"/><stop class="stopColoreaebf3 svgShape" offset=".21" stop-color="#eaf3ea"/><stop class="stopColord7daec svgShape" offset=".512" stop-color="#d7ecd7"/><stop class="stopColorb8bedf svgShape" offset=".867" stop-color="#b8dfb8"/><stop class="stopColorabb2da svgShape" offset="1" stop-color="#abdaab"/></linearGradient><linearGradient id="z" x1="111.345" x2="154.342" y1="489.481" y2="563.955" gradientUnits="userSpaceOnUse"><stop class="stopColorf6f6fb svgShape" offset="0" stop-color="#f6fbf6"/><stop class="stopColoreff0fa svgShape" offset=".306" stop-color="#effaef"/><stop class="stopColordce0f9 svgShape" offset=".743" stop-color="#dcf9dc"/><stop class="stopColorced3f8 svgShape" offset="1" stop-color="#cef8ce"/></linearGradient><linearGradient id="A" x1="153.482" x2="196.439" y1="465.154" y2="539.559" gradientUnits="userSpaceOnUse"><stop class="stopColordae0f5 svgShape" offset="0" stop-color="#daf5da"/><stop class="stopColorffffff svgShape" offset="1" stop-color="#fff"/></linearGradient><linearGradient id="B" x1="1139.415" x2="1452.9" y1="702.865" y2="702.865" gradientUnits="userSpaceOnUse"><stop class="stopColorc2caea svgShape" offset=".011" stop-color="#c2eac2"/><stop class="stopColorc8cfec svgShape" offset=".239" stop-color="#c8ecc8"/><stop class="stopColord8ddf2 svgShape" offset=".539" stop-color="#d8f2d8"/><stop class="stopColorf3f5fb svgShape" offset=".878" stop-color="#f3fbf3"/><stop class="stopColorffffff svgShape" offset="1" stop-color="#fff"/></linearGradient><linearGradient id="C" x1="116.651" x2="336.898" y1="475.569" y2="857.048" gradientTransform="translate(994.677 -170.052)" gradientUnits="userSpaceOnUse"><stop class="stopColore33c5c svgShape" offset="0" stop-color="#3ce33c"/><stop class="stopColorbc3153 svgShape" offset=".994" stop-color="#31bc31"/></linearGradient><linearGradient id="D" x1="472.148" x2="1265.44" y1="677.477" y2="677.477" gradientUnits="userSpaceOnUse"><stop class="stopColorc2caea svgShape" offset=".011" stop-color="#c2eac2"/><stop class="stopColorcad1ed svgShape" offset=".227" stop-color="#caedca"/><stop class="stopColore1e5f5 svgShape" offset=".568" stop-color="#e1f5e1"/><stop class="stopColorffffff svgShape" offset=".917" stop-color="#fff"/></linearGradient><linearGradient id="b" x1="498.778" x2="660.714" y1="688.418" y2="354.391" gradientUnits="userSpaceOnUse"><stop class="stopColor423eaf svgShape" offset=".055" stop-color="#3e93af"/><stop class="stopColor5652cc svgShape" offset=".657" stop-color="#52aecc"/><stop class="stopColor807dfb svgShape" offset=".846" stop-color="#7ddcfb"/></linearGradient><linearGradient id="E" x1="728.662" x2="890.597" y1="799.866" y2="465.838" xlink:href="#b"/><linearGradient id="F" x1="594.695" x2="756.63" y1="734.919" y2="400.892" xlink:href="#b"/><linearGradient id="G" x1="595.389" x2="742.633" y1="426.506" y2="426.506" gradientUnits="userSpaceOnUse"><stop class="stopColorc4cae9 svgShape" offset="0" stop-color="#c4e9c4"/><stop class="stopColore8ecf7 svgShape" offset="1" stop-color="#e8f7e8"/></linearGradient><linearGradient id="I" x1="1005.963" x2="468.81" y1="649.332" y2="346.902" gradientUnits="userSpaceOnUse"><stop class="stopColor362e94 svgShape" offset="0" stop-color="#2e7b94"/><stop class="stopColor39339c svgShape" offset=".088" stop-color="#33829c"/><stop class="stopColor423eaf svgShape" offset=".211" stop-color="#3e93af"/><stop class="stopColor423eaf svgShape" offset=".874" stop-color="#3e93af"/><stop class="stopColor423eaf svgShape" offset=".881" stop-color="#3e93af"/><stop class="stopColor4642b4 svgShape" offset=".906" stop-color="#4298b4"/><stop class="stopColor524ec2 svgShape" offset=".935" stop-color="#0099cb"/><stop class="stopColor6562da svgShape" offset=".966" stop-color="#62bcda"/><stop class="stopColor807dfb svgShape" offset=".998" stop-color="#7ddcfb"/></linearGradient><linearGradient id="J" x1="629.827" x2="924.749" y1="224.016" y2="734.836" gradientUnits="userSpaceOnUse"><stop class="stopColor807dfb svgShape" offset=".002" stop-color="#7ddcfb"/><stop class="stopColor6b67e9 svgShape" offset=".077" stop-color="#67c9e9"/><stop class="stopColor6b67e9 svgShape" offset=".562" stop-color="#67c9e9"/><stop class="stopColor5954cc svgShape" offset=".637" stop-color="#54aecc"/><stop class="stopColor463fae svgShape" offset=".735" stop-color="#3f93ae"/><stop class="stopColor3a339b svgShape" offset=".818" stop-color="#33819b"/><stop class="stopColor362e94 svgShape" offset=".876" stop-color="#2e7b94"/></linearGradient><linearGradient id="K" x1="859.481" x2="889.298" y1="604.632" y2="604.632" gradientUnits="userSpaceOnUse"><stop class="stopColorffffff svgShape" offset="0" stop-color="#fff"/><stop class="stopColorc4cae9 svgShape" offset=".026" stop-color="#c4e9c4"/><stop class="stopColorffffff svgShape" offset="1" stop-color="#fff"/></linearGradient><linearGradient id="L" x1="620.439" x2="733.612" y1="730.932" y2="532.355" gradientUnits="userSpaceOnUse"><stop class="stopColora5abcc svgShape" offset=".011" stop-color="#6c6"/><stop class="stopColoradb3d4 svgShape" offset=".309" stop-color="#add4ad"/><stop class="stopColorc2c7eb svgShape" offset=".779" stop-color="#c2ebc2"/><stop class="stopColorced3f8 svgShape" offset="1" stop-color="#cef8ce"/></linearGradient><linearGradient id="c" x1="687.553" x2="703.619" y1="565.685" y2="537.858" gradientUnits="userSpaceOnUse"><stop class="stopColorced3f8 svgShape" offset=".011" stop-color="#cef8ce"/><stop class="stopColorb4badc svgShape" offset=".57" stop-color="#b4dcb4"/><stop class="stopColora5abcc svgShape" offset="1" stop-color="#6c6"/></linearGradient><linearGradient id="M" x1="663.799" x2="679.865" y1="540.799" y2="512.972" xlink:href="#c"/><linearGradient id="N" x1="630.46" x2="646.526" y1="532.698" y2="504.871" xlink:href="#c"/><linearGradient id="O" x1="594.801" x2="610.867" y1="543.198" y2="515.37" xlink:href="#c"/><linearGradient id="P" x1="564.634" x2="580.7" y1="569.986" y2="542.158" xlink:href="#c"/><linearGradient id="Q" x1="546.568" x2="562.635" y1="607.186" y2="579.358" xlink:href="#c"/><linearGradient id="R" x1="544.56" x2="560.626" y1="646.597" y2="618.77" xlink:href="#c"/><linearGradient id="S" x1="559.002" x2="575.068" y1="679.829" y2="652.002" xlink:href="#c"/><linearGradient id="T" x1="586.775" x2="602.841" y1="699.376" y2="671.549" xlink:href="#c"/><linearGradient id="U" x1="621.811" x2="637.877" y1="701.046" y2="673.219" xlink:href="#c"/><linearGradient id="V" x1="626.218" x2="650.719" y1="631.185" y2="588.658" gradientUnits="userSpaceOnUse"><stop class="stopColor423eaf svgShape" offset=".011" stop-color="#3e93af"/><stop class="stopColor4844b7 svgShape" offset=".413" stop-color="#449bb7"/><stop class="stopColor5652cc svgShape" offset="1" stop-color="#52aecc"/></linearGradient><linearGradient id="W" x1="722.807" x2="738.705" y1="669.41" y2="641.874" gradientUnits="userSpaceOnUse"><stop class="stopColorc85a2b svgShape" offset=".564" stop-color="#2bc82b"/><stop class="stopColorcc5e2d svgShape" offset=".677" stop-color="#2dcc2d"/><stop class="stopColord66a34 svgShape" offset=".793" stop-color="#34d634"/><stop class="stopColore87f3f svgShape" offset=".91" stop-color="#3fe83f"/><stop class="stopColorfb944b svgShape" offset="1" stop-color="#4bfb4b"/></linearGradient><linearGradient id="X" x1="826.067" x2="936.412" y1="817.649" y2="817.649" gradientUnits="userSpaceOnUse"><stop class="stopColorc4c9e4 svgShape" offset=".453" stop-color="#c4e4c4"/><stop class="stopColorffffff svgShape" offset="1" stop-color="#fff"/></linearGradient><linearGradient id="d" x1="796.985" x2="905.588" y1="788.766" y2="788.766" gradientUnits="userSpaceOnUse"><stop class="stopColorfb944b svgShape" offset="0" stop-color="#4bfb4b"/><stop class="stopColore57139 svgShape" offset="1" stop-color="#39e539"/></linearGradient><linearGradient id="k" x1="893.946" x2="784.455" y1="850.85" y2="780.148" gradientUnits="userSpaceOnUse"><stop class="stopColore57139 svgShape" offset="0" stop-color="#39e539"/><stop class="stopColorfb944b svgShape" offset="1" stop-color="#4bfb4b"/></linearGradient><linearGradient id="Y" x1="830.336" x2="860.422" y1="812.329" y2="812.329" xlink:href="#d"/><linearGradient id="Z" x1="525.626" x2="563.951" y1="-124.107" y2="-165.58" gradientTransform="matrix(.00003 2.00621 -.99999 .00003 1050.287 -504.63)" gradientUnits="userSpaceOnUse"><stop class="stopColorcfd7f3 svgShape" offset=".011" stop-color="#cff3cf"/><stop class="stopColore6eaf9 svgShape" offset=".356" stop-color="#e6f9e6"/><stop class="stopColorf8f9fd svgShape" offset=".733" stop-color="#f8fdf8"/><stop class="stopColorffffff svgShape" offset="1" stop-color="#fff"/></linearGradient><linearGradient id="aa" x1="1022.707" x2="1029.213" y1="604.5" y2="615.769" gradientUnits="userSpaceOnUse"><stop class="stopColor817eff svgShape" offset=".079" stop-color="#7edfff"/><stop class="stopColor362a97 svgShape" offset=".82" stop-color="#2a7c97"/><stop class="stopColor817eff svgShape" offset="1" stop-color="#7edfff"/></linearGradient><linearGradient id="ab" x1="290.534" x2="457.039" y1="-27.002" y2="261.394" gradientTransform="translate(240.798)" gradientUnits="userSpaceOnUse"><stop class="stopColorffc16b svgShape" offset=".573" stop-color="#6bff6b"/><stop class="stopColorf9ad5f svgShape" offset=".6" stop-color="#5ff95f"/><stop class="stopColorea8243 svgShape" offset=".667" stop-color="#43ea43"/><stop class="stopColore57139 svgShape" offset=".7" stop-color="#39e539"/></linearGradient><linearGradient id="ac" x1="43.335" x2="239.934" y1="829.25" y2="829.25" gradientUnits="userSpaceOnUse"><stop class="stopColorc6cbe7 svgShape" offset=".404" stop-color="#c6e7c6"/><stop class="stopColord9ddef svgShape" offset=".636" stop-color="#d9efd9"/><stop class="stopColorffffff svgShape" offset="1" stop-color="#fff"/></linearGradient><linearGradient id="ad" x1="380.947" x2="482.133" y1="189.969" y2="365.223" gradientTransform="scale(1 -1) rotate(-60 -709.529 .273)" gradientUnits="userSpaceOnUse"><stop class="stopColorfb944b svgShape" offset="0" stop-color="#4bfb4b"/><stop class="stopColored8442 svgShape" offset=".342" stop-color="#42ed42"/><stop class="stopColorc85a2b svgShape" offset="1" stop-color="#2bc82b"/></linearGradient><linearGradient id="e" x1="562.303" x2="656.454" y1="928.87" y2="928.87" gradientTransform="translate(-228.072)" gradientUnits="userSpaceOnUse"><stop class="stopColorc4cae8 svgShape" offset="0" stop-color="#c4e8c4"/><stop class="stopColorced3ec svgShape" offset=".095" stop-color="#ceecce"/><stop class="stopColore9ebf6 svgShape" offset=".409" stop-color="#e9f6e9"/><stop class="stopColorf9fafd svgShape" offset=".687" stop-color="#f9fdf9"/><stop class="stopColorffffff svgShape" offset=".899" stop-color="#fff"/></linearGradient><linearGradient id="ae" x1="477.337" x2="571.479" y1="903.899" y2="903.899" gradientTransform="translate(-186.014)" xlink:href="#e"/><linearGradient id="f" x1="-1253.837" x2="-1219.133" y1="900.575" y2="900.575" gradientTransform="matrix(-1 0 0 1 -937.747 0)" gradientUnits="userSpaceOnUse"><stop class="stopColor423eaf svgShape" offset="0" stop-color="#3e93af"/><stop class="stopColor3a35a0 svgShape" offset=".304" stop-color="#3586a0"/><stop class="stopColor241e77 svgShape" offset=".891" stop-color="#1e6177"/><stop class="stopColor1f196f svgShape" offset="1" stop-color="#195a6f"/></linearGradient><linearGradient id="af" x1="-1296.748" x2="-1262.047" y1="925.551" y2="925.551" xlink:href="#f"/><linearGradient id="ag" x1="-1281.676" x2="-1222.016" y1="842.631" y2="842.631" gradientTransform="matrix(-1 0 0 1 -937.747 0)" gradientUnits="userSpaceOnUse"><stop class="stopColor423eaf svgShape" offset="0" stop-color="#3e93af"/><stop class="stopColor353097 svgShape" offset=".301" stop-color="#307e97"/><stop class="stopColor251f7a svgShape" offset=".746" stop-color="#1f647a"/><stop class="stopColor1f196f svgShape" offset="1" stop-color="#195a6f"/></linearGradient><linearGradient id="ah" x1="-1283.982" x2="-1221.664" y1="735.563" y2="735.563" gradientTransform="matrix(-1 0 0 1 -937.747 0)" gradientUnits="userSpaceOnUse"><stop class="stopColor5652cc svgShape" offset=".026" stop-color="#52aecc"/><stop class="stopColor807dfb svgShape" offset="1" stop-color="#7ddcfb"/></linearGradient><linearGradient id="ai" x1="2256.657" x2="2201.318" y1="757.65" y2="738.186" gradientTransform="translate(-1883.4)" gradientUnits="userSpaceOnUse"><stop class="stopColor5652cc svgShape" offset="0" stop-color="#52aecc"/><stop class="stopColor807dfb svgShape" offset="1" stop-color="#7ddcfb"/></linearGradient><linearGradient id="aj" x1="1147.969" x2="1271.304" y1="895.493" y2="895.493" gradientUnits="userSpaceOnUse"><stop class="stopColorc4cae9 svgShape" offset=".427" stop-color="#c4e9c4"/><stop class="stopColord7dbf0 svgShape" offset=".577" stop-color="#d7f0d7"/><stop class="stopColorf4f5fb svgShape" offset=".846" stop-color="#f4fbf4"/><stop class="stopColorffffff svgShape" offset="1" stop-color="#fff"/></linearGradient><linearGradient id="ak" x1="1118.988" x2="1250.49" y1="907.527" y2="907.527" gradientUnits="userSpaceOnUse"><stop class="stopColord8def0 svgShape" offset="0" stop-color="#d8f0d8"/><stop class="stopColorc6cce7 svgShape" offset=".551" stop-color="#c6e7c6"/><stop class="stopColorbdc3e3 svgShape" offset="1" stop-color="#bde3bd"/></linearGradient><linearGradient id="g" x1="438.681" x2="522.613" y1="1104.899" y2="1104.899" gradientTransform="matrix(-1 0 0 1 1588.452 0)" gradientUnits="userSpaceOnUse"><stop class="stopColorffffff svgShape" offset=".006" stop-color="#fff"/><stop class="stopColorfafbfd svgShape" offset=".246" stop-color="#fafdfa"/><stop class="stopColoreceef8 svgShape" offset=".53" stop-color="#ecf8ec"/><stop class="stopColord4d8ef svgShape" offset=".835" stop-color="#d4efd4"/><stop class="stopColorc4cae9 svgShape" offset="1" stop-color="#c4e9c4"/></linearGradient><linearGradient id="al" x1="466.76" x2="557.008" y1="1130.266" y2="1130.266" gradientTransform="matrix(-1 0 0 1 1578.836 0)" xlink:href="#g"/><linearGradient id="am" x1="921.989" x2="1029.785" y1="942.206" y2="942.206" gradientUnits="userSpaceOnUse"><stop class="stopColorfcba06 svgShape" offset="0" stop-color="#06fc06"/><stop class="stopColorfda132 svgShape" offset=".013" stop-color="#32fd32"/><stop class="stopColorff826a svgShape" offset=".028" stop-color="#6aff6a"/><stop class="stopColorf56865 svgShape" offset=".421" stop-color="#65f565"/><stop class="stopColore33c5c svgShape" offset="1" stop-color="#3ce33c"/></linearGradient><linearGradient id="h" x1="-760.116" x2="-724.58" y1="1101.697" y2="1101.697" gradientTransform="translate(1800.536)" gradientUnits="userSpaceOnUse"><stop class="stopColor20196f svgShape" offset="0" stop-color="#195a6f"/><stop class="stopColor241e77 svgShape" offset=".109" stop-color="#1e6177"/><stop class="stopColor3a35a0 svgShape" offset=".696" stop-color="#3586a0"/><stop class="stopColor423eaf svgShape" offset="1" stop-color="#3e93af"/></linearGradient><linearGradient id="an" x1="1672.745" x2="1719.594" y1="1030.953" y2="1030.953" gradientTransform="matrix(-1 0 0 1 2746.19 0)" gradientUnits="userSpaceOnUse"><stop class="stopColor20196f svgShape" offset="0" stop-color="#195a6f"/><stop class="stopColor2f2889 svgShape" offset=".611" stop-color="#287189"/><stop class="stopColor362e94 svgShape" offset="1" stop-color="#2e7b94"/></linearGradient><linearGradient id="ao" x1="-803.743" x2="-768.17" y1="1126.965" y2="1126.965" xlink:href="#h"/><linearGradient id="ap" x1="-784.918" x2="-734.698" y1="1044.297" y2="1044.297" gradientTransform="translate(1800.536)" gradientUnits="userSpaceOnUse"><stop class="stopColor423eaf svgShape" offset="0" stop-color="#3e93af"/><stop class="stopColor3c38a4 svgShape" offset=".254" stop-color="#3889a4"/><stop class="stopColor2d2787 svgShape" offset=".699" stop-color="#276f87"/><stop class="stopColor20196f svgShape" offset="1" stop-color="#195a6f"/></linearGradient><linearGradient id="i" x1="-792.426" x2="-715.494" y1="531.999" y2="531.999" gradientTransform="rotate(-15.968 1639.029 -5638.015)" gradientUnits="userSpaceOnUse"><stop class="stopColor807dfb svgShape" offset="0" stop-color="#7ddcfb"/><stop class="stopColor7b78f5 svgShape" offset=".272" stop-color="#78d6f5"/><stop class="stopColor6c69e5 svgShape" offset=".627" stop-color="#69c6e5"/><stop class="stopColor5652cc svgShape" offset="1" stop-color="#52aecc"/></linearGradient><linearGradient id="aq" x1="966.488" x2="1029.79" y1="927.022" y2="927.022" xlink:href="#i"/><linearGradient id="j" x1="769.384" x2="901.011" y1="1000.939" y2="1000.939" gradientTransform="translate(42.41)" gradientUnits="userSpaceOnUse"><stop class="stopColorc2c7e3 svgShape" offset="0" stop-color="#c2e3c2"/><stop class="stopColordde0ef svgShape" offset=".253" stop-color="#ddefdd"/><stop class="stopColorf6f7fb svgShape" offset=".543" stop-color="#f6fbf6"/><stop class="stopColorffffff svgShape" offset=".719" stop-color="#fff"/></linearGradient><linearGradient id="ar" x1="654.127" x2="780.109" y1="1035.477" y2="1035.477" gradientTransform="translate(97.637)" xlink:href="#j"/><linearGradient id="as" x1="538.864" x2="654.818" y1="1070.014" y2="1070.014" gradientTransform="translate(152.864)" xlink:href="#j"/><linearGradient id="at" x1="368.712" x2="527.674" y1="1067.9" y2="792.571" gradientUnits="userSpaceOnUse"><stop class="stopColor6a6ae2 svgShape" offset="0" stop-color="#6ac4e2"/><stop class="stopColor4141aa svgShape" offset=".245" stop-color="#4190aa"/><stop class="stopColor6a6ae2 svgShape" offset=".347" stop-color="#6ac4e2"/><stop class="stopColor4141aa svgShape" offset=".412" stop-color="#4190aa"/><stop class="stopColor4343ad svgShape" offset=".438" stop-color="#4393ad"/><stop class="stopColor6a6ae2 svgShape" offset="1" stop-color="#6ac4e2"/></linearGradient><linearGradient id="au" x1="305.512" x2="829.656" y1="1034.907" y2="1034.907" gradientUnits="userSpaceOnUse"><stop class="stopColord3d8f2 svgShape" offset="0" stop-color="#d3f2d3"/><stop class="stopColore0e4f6 svgShape" offset=".317" stop-color="#e0f6e0"/><stop class="stopColorffffff svgShape" offset=".834" stop-color="#fff"/></linearGradient><linearGradient id="av" x1="346.305" x2="881.347" y1="1049.941" y2="1049.941" gradientUnits="userSpaceOnUse"><stop class="stopColore5cebe svgShape" offset="0" stop-color="#bee5be"/><stop class="stopColore7d1c2 svgShape" offset=".029" stop-color="#c2e7c2"/><stop class="stopColorf4eae3 svgShape" offset=".282" stop-color="#e3f4e3"/><stop class="stopColorfcf9f8 svgShape" offset=".492" stop-color="#f8fcf8"/><stop class="stopColorffffff svgShape" offset=".633" stop-color="#fff"/></linearGradient><linearGradient id="aw" x1="608.044" x2="643.723" y1="885.145" y2="823.346" xlink:href="#d"/><linearGradient id="ax" x1="459.955" x2="550.459" y1="1003.798" y2="847.041" gradientUnits="userSpaceOnUse"><stop class="stopColorfb944b svgShape" offset="0" stop-color="#4bfb4b"/><stop class="stopColore57139 svgShape" offset=".509" stop-color="#39e539"/><stop class="stopColorfb944b svgShape" offset="1" stop-color="#4bfb4b"/></linearGradient><linearGradient id="ay" x1="311.565" x2="408.354" y1="1119.288" y2="951.645" xlink:href="#k"/><clipPath id="H"><path fill="none" d="M624.054 180.032L413.406 320.983l69.422 270.427.107-.197c.725-1.71 1.45-3.419 2.245-5.121l81.705-175.082c4.34-9.299 11.216-17.278 18.526-21.5l11.2-6.465 41.046 23.698v30.085l-42.268 24.755 180.779 104.373 12.542-26.875c4.339-9.3 11.215-17.279 18.526-21.5l11.2-6.466 41.045 23.698v16.551L735.02 825.738l312.928-141.612-27.027-265.439z"/></clipPath></defs><g style="isolation:isolate" class="color000000 svgShape"><g class="color000000 svgShape" data-name="+"><path fill="#6aff6a" d="M827.633 332.85c0 19.608-13.721 27.638-30.645 17.931-16.93-9.711-30.654-33.483-30.651-53.089-.003-19.612 13.724-27.632 30.654-17.928 16.919 9.711 30.64 33.476 30.642 53.086z" class="colorff826a svgShape"/><path fill="#fff" d="M794.723 296.535v15.08l-13.06-7.54v4.962l13.061 7.541v15.081l4.297 2.481v-15.081l13.06 7.54v-4.962l-13.06-7.54v-15.081l-4.298-2.481z" class="colorffffff svgShape"/></g><g class="color000000 svgShape" data-name="Symbols in the air"><path fill="url(#l)" d="M906.44 147.64c-9.563-5.528-18.232-6.036-24.488-2.4l-15.296 8.881c6.253-3.64 14.92-3.127 24.488 2.399 19.002 10.963 34.361 37.565 34.299 59.402-.03 10.852-3.858 18.49-10.033 22.076l15.293-8.88c6.177-3.584 10.01-11.218 10.04-22.076.06-21.83-15.293-48.427-34.302-59.401z"/><path fill="#f6fbf6" d="M891.144 156.52c-19.006-10.98-34.471-2.172-34.53 19.661-.064 21.841 15.297 48.451 34.302 59.424 19.003 10.97 34.465 2.161 34.527-19.683.062-21.837-15.297-48.44-34.3-59.402z" class="colorf6f6fb svgShape"/><path fill="#bbe6bb" d="M886.494 191.218a21.67 21.67 0 0 1-4.388-12.306c-.003-6.322 4.044-9.103 9.038-6.22 4.988 2.881 9.039 10.347 9.038 16.66 0 4.157-1.771 6.743-4.391 7.229 7.639 7.382 12.499 17.786 12.496 23.983-1.303-.761-17.144-9.9-17.144-9.9l-17.148-9.899c-.003-6.199 4.86-10.99 12.499-9.547z" class="colorbbc0e6 svgShape"/><path fill="#cef8ce" d="M959.133 292.666c-12.508-7.221-22.647-1.367-22.647 13.075 0 14.443 10.14 32.005 22.647 39.226 12.508 7.222 22.647 1.368 22.647-13.075 0-14.442-10.14-32.004-22.647-39.226zm-6.139 34.381v-23.55l17.038 21.612z" class="colorced3f8 svgShape"/></g><path style="mix-blend-mode:multiply" fill="url(#m)" d="M506.459 572.001v-32.149l-187.08 17.845-21.939 12.667 34.238-1.344-18.282 10.556 193.063-7.575z"/><path fill="url(#n)" d="M412.244 365.403c-4.532-7.846-10.79-14.696-17.703-18.69-6.915-3.99-13.175-4.367-17.706-1.752l-29.663 17.126 35.41 61.331 29.664-17.125c4.528-2.62 7.332-8.228 7.332-16.211 0-7.986-2.804-16.834-7.334-24.679z"/><path fill="#52aecc" d="M347.172 402.974c-4.533-7.846-7.33-16.695-7.33-24.679 0-7.98 2.797-13.593 7.33-16.208 4.532-2.614 10.79-2.238 17.703 1.751 6.916 3.994 13.173 10.844 17.706 18.69 4.533 7.845 7.335 16.693 7.335 24.678 0 7.985-2.802 13.595-7.335 16.212-4.53 2.615-10.79 2.237-17.706-1.755-6.912-3.993-13.17-10.839-17.703-18.689z" class="color5652cc svgShape"/><path fill="url(#o)" d="M421.262 360.198c-4.533-7.844-10.792-14.696-17.706-18.688-6.913-3.992-13.171-4.368-17.704-1.752l-9.015 5.204c4.53-2.613 10.79-2.237 17.704 1.753 6.912 3.992 13.174 10.843 17.703 18.688 4.53 7.845 7.334 16.693 7.334 24.679 0 7.983-2.804 13.592-7.332 16.21l9.017-5.203c4.53-2.618 7.333-8.228 7.333-16.213 0-7.985-2.803-16.832-7.334-24.678z"/><path fill="#52aecc" d="M335.338 566.91l-21.942 12.666 13.962-118.611 45.877-26.486-37.897 132.431z" class="color5652cc svgShape"/><path fill="#67c9e9" d="M313.396 579.576l-15.956-9.212 13.961-118.612 15.957 9.213-13.962 118.611z" class="color6b67e9 svgShape"/><path fill="url(#p)" d="M393.247 376.373a21.471 21.471 0 0 0-7.397-7.817l-55.888-32.267c-2.883-1.665-5.503-1.814-7.402-.717l-97.473 56.274 70.694 122.44 97.47-56.275c1.902-1.096 3.078-3.442 3.078-6.77v-64.538a21.474 21.474 0 0 0-3.082-10.33z"/><path fill="#52aecc" d="M222.011 398.612c0-3.328 1.18-5.673 3.076-6.766 1.902-1.097 4.518-.948 7.404.716l55.887 32.267a23.256 23.256 0 0 1 10.482 18.151v64.537c0 3.326-1.178 5.672-3.08 6.769-1.9 1.092-4.52.946-7.402-.72l-55.888-32.269a23.242 23.242 0 0 1-10.479-18.148z" class="color5652cc svgShape"/><path fill="url(#a)" d="M315.927 350.783l40.36 23.304c1.97 1.136 5.413.993 7.686-.32 2.275-1.311 2.522-3.3.553-4.438l-40.363-23.3c-1.97-1.139-5.406-.997-7.683.319-2.274 1.313-2.522 3.3-.553 4.435z"/><path fill="url(#q)" d="M299.757 360.122l40.358 23.301c1.97 1.138 5.413.994 7.686-.32 2.276-1.31 2.522-3.297.552-4.435l-40.36-23.303c-1.97-1.137-5.41-.994-7.686.32-2.274 1.313-2.524 3.298-.55 4.437z"/><path fill="url(#r)" d="M283.584 369.46l40.36 23.301c1.97 1.139 5.41.996 7.686-.319 2.274-1.313 2.522-3.296.551-4.436l-40.361-23.303c-1.968-1.137-5.406-.996-7.686.319-2.27 1.313-2.519 3.3-.55 4.438z"/><path fill="url(#s)" d="M267.413 378.797L307.77 402.1c1.97 1.14 5.414.994 7.687-.318 2.274-1.314 2.522-3.299.551-4.436l-40.36-23.307c-1.968-1.136-5.409-.994-7.687.32-2.272 1.313-2.52 3.302-.55 4.438z"/><path fill="#52aecc" d="M385.435 435.787l-22.899 13.22v-25.266l22.9-13.218-.001 25.264z" class="color5652cc svgShape"/><path fill="url(#t)" d="M221.979 475.256c-17.492-30.287-41.649-56.723-68.335-72.13-14.237-8.22-27.75-12.456-39.92-13.101l-53.633 2.982 153.765 261.59 26.842-41.158c6.133-11.118 9.592-25.548 9.592-42.918 0-30.82-10.818-64.97-28.311-95.265z"/><path fill="url(#u)" d="M304.828 515.112c4.51-6.695 7.095-15.92 7.095-27.338 0-17.801-6.252-37.52-16.352-55.017-10.102-17.492-24.053-32.755-39.464-41.653-10.52-6.073-20.356-8.387-28.756-7.395l-113.628 6.316c12.17.645 25.684 4.88 39.922 13.1 26.685 15.408 50.843 41.844 68.334 72.131 17.493 30.295 28.311 64.444 28.311 95.265 0 17.37-3.46 31.8-9.592 42.918l64.132-98.325z"/><path fill="#3ce33c" d="M42.176 579.064c-19.907-34.478-32.22-73.346-32.22-108.425 0-35.078 12.313-59.728 32.223-71.22 19.907-11.5 47.41-9.835 77.786 7.704 30.378 17.538 57.877 47.63 77.787 82.106 19.91 34.483 32.227 73.357 32.227 108.44.002 35.08-12.314 59.728-32.222 71.218-19.907 11.494-47.411 9.838-77.79-7.702-30.379-17.54-57.881-47.64-77.791-82.121z" class="colore33c5c svgShape"/><path fill="url(#v)" d="M152.405 629.06c-27.174-15.689-51.774-42.61-69.581-73.453-17.807-30.838-28.82-65.605-28.82-96.979 0-21.79 5.322-39.067 14.529-51.04a48.783 48.783 0 0 0-18.146 6.049c-17.805 10.282-28.82 32.329-28.82 63.706 0 31.376 11.015 66.142 28.82 96.98 17.807 30.843 42.41 57.764 69.58 73.452 27.173 15.689 51.773 17.171 69.58 6.892a48.87 48.87 0 0 0 14.296-12.665c-14.97 1.977-32.58-2.056-51.438-12.942z"/><path fill="url(#w)" d="M189.542 493.972c-17.808-30.84-42.406-57.757-69.575-73.443-18.856-10.886-36.465-14.919-51.434-12.941-9.207 11.973-14.53 29.25-14.53 51.04 0 31.374 11.014 66.141 28.82 96.98 17.808 30.842 42.408 57.763 69.582 73.452 18.858 10.886 36.469 14.919 51.438 12.942 9.204-11.976 14.526-29.253 14.526-51.037 0-31.38-11.016-66.146-28.827-96.993z"/><path fill="url(#x)" d="M189.542 493.972c-17.808-30.84-42.406-57.757-69.575-73.443-18.856-10.886-36.465-14.919-51.434-12.941-9.207 11.973-14.53 29.25-14.53 51.04 0 31.374 11.014 66.141 28.82 96.98 17.808 30.842 42.408 57.763 69.582 73.452 18.858 10.886 36.469 14.919 51.438 12.942 9.204-11.976 14.526-29.253 14.526-51.037 0-31.38-11.016-66.146-28.827-96.993z"/><path fill="url(#y)" d="M162.154 559.35l45.453-26.24a234.88 234.88 0 0 0-18.065-39.138 234.86 234.86 0 0 0-24.905-35.26l-45.442 26.236z"/><path fill="url(#z)" d="M162.191 509.768c-5.503-9.528-13.103-17.844-21.497-22.69-8.395-4.848-15.996-5.307-21.499-2.13a42.93 42.93 0 0 0 40.82 75.498 14.705 14.705 0 0 0 2.18-1.024c5.499-3.175 8.905-9.988 8.905-19.682 0-9.698-3.406-20.44-8.909-29.972z"/><path fill="url(#A)" d="M182.708 547.486l24.9-14.376a234.88 234.88 0 0 0-18.066-39.138 234.86 234.86 0 0 0-24.905-35.26l-25.722 14.852c5.501-3.173 13.099-2.711 21.492 2.133 8.394 4.847 15.995 13.162 21.496 22.69 5.504 9.53 8.907 20.274 8.907 29.971 0 9.2-3.089 15.764-8.102 19.128z" style="mix-blend-mode:multiply"/><g class="color000000 svgShape"><path fill="url(#B)" d="M1452.9 655.923c-12.661-2.11-26.012-3.969-40.143-5.544a917.75 917.75 0 0 0-101.678-5.387q-53.387 0-83.02 5.387-29.644 5.384-33.418 14.931c-1.614 4.064.2 8.502 5.401 13.31q-15.102 1.28-26.635 3.37-29.644 5.384-33.42 14.93-3.786 9.542 17.477 21.818 21.018 12.135 57.868 21.682 36.832 9.543 85.141 14.931a918.364 918.364 0 0 0 101.68 5.387q28.851 0 50.747-1.58z" style="mix-blend-mode:multiply"/><path fill="#5aff5a" d="M996.807 446.125c.008-99.31 69.735-139.567 155.744-89.91 86.01 49.653 155.738 170.427 155.734 269.74 0 99.316-69.729 139.584-155.733 89.928-86.012-49.657-155.736-170.443-155.745-269.758z" class="colorff5a72 svgShape"/><path fill="url(#C)" d="M1336.199 609.827c.003-99.314-69.724-220.085-155.731-269.746-42.984-24.81-81.896-27.17-110.075-10.93l-.014.009-.07.04-27.832 16.082c28.183-16.241 67.095-13.882 110.074 10.934 86.01 49.652 155.738 170.426 155.734 269.738-.003 49.585-17.385 84.446-45.496 100.75l27.561-15.921v-.002c28.318-16.218 45.846-51.162 45.849-100.954zm-73.76 117.086l.1-.065c-.03.022-.073.038-.106.06z"/><path fill="#fff" d="M1029.785 465.166c.006-78.283 54.967-110.015 122.766-70.869 67.794 39.139 122.766 134.335 122.76 212.622.002 78.285-54.967 110.023-122.762 70.88s-122.76-134.346-122.764-212.633z" class="colorffffff svgShape"/><path fill="#5aff5a" d="M1060.609 482.96c-.002-58.628 41.164-82.39 91.942-53.076 50.778 29.317 91.933 100.608 91.932 159.235 0 58.632-41.158 82.407-91.932 53.09-50.779-29.315-91.94-100.617-91.942-159.249z" class="colorff5a72 svgShape"/><path fill="#fff" d="M1093.787 502.117c.006-37.472 26.318-52.656 58.767-33.922 32.449 18.737 58.754 64.304 58.758 101.77.002 37.483-26.311 52.67-58.761 33.933-32.452-18.738-58.761-64.3-58.764-101.781z" class="colorffffff svgShape"/><path fill="#5aff5a" d="M1127.96 521.848c0-15.678 11.014-22.032 24.593-14.194 13.576 7.842 24.586 26.908 24.587 42.59-.001 15.683-11.009 22.034-24.59 14.196-13.579-7.842-24.587-26.91-24.59-42.592z" class="colorff5a72 svgShape"/></g><g class="color000000 svgShape"><path fill="url(#D)" d="M1002.57 566.516l-118.375-39.932c-14.488-4.887-37.691-7.524-66.212-7.524H758.05L472.148 684.126l262.87 151.768h59.934a616.76 616.76 0 0 0 92.275-7.524l256.701-39.931 121.512-70.155z" style="mix-blend-mode:multiply"/><path fill="#195a6f" d="M1020.92 670.829L735.019 835.894v-10.156l285.901-165.066v10.157z" class="color20196f svgShape"/><path fill="#2e7b94" d="M472.148 684.126l262.871 151.768v-10.156L472.148 673.969v10.157z" class="color362e94 svgShape"/><path fill="#67c9e9" d="M897.679 495.801L716.901 391.429l-121.512 70.154 180.779 104.373 121.511-70.155z" class="color6b67e9 svgShape"/><path fill="url(#b)" d="M702.394 393.955v-16.461l-41.046-23.698v.017c-4.309-2.672-10.27-2.215-16.562 1.418l-11.199 6.465v16.551l-22.643 13.073-14.333-8.275-11.2 6.466c-7.31 4.22-14.187 12.2-18.526 21.5l-81.705 175.08c-8.465 18.139-13.032 36.809-13.032 53.275v34.602l41.046 23.698v-34.602c0-16.467 4.567-35.137 13.032-53.275l69.163-148.207 110.74-63.936z"/><path fill="#52aecc" d="M674.633 385.394l-41.046-23.698v16.551l41.046 23.698v-16.551z" class="color5652cc svgShape"/><path fill="#67c9e9" d="M674.633 401.945l-41.046-23.698-22.643 13.073 26.713 15.423-.001 16.551 36.977-21.349z" class="color6b67e9 svgShape"/><path fill="#195a6f" d="M704.359 379.035c-4.34-4.288-11.216-4.327-18.527-.106l-11.199 6.465v16.551l-36.976 21.348v-16.55l-11.2 6.466c-7.31 4.22-14.187 12.2-18.526 21.5l-12.542 26.874L716.9 391.43z" class="color20196f svgShape"/><path fill="url(#E)" d="M924.218 522.026v-16.462l-41.046-23.698v.018c-4.308-2.672-10.268-2.216-16.561 1.417l-11.2 6.466v16.55l-22.642 13.074-14.334-8.276-11.2 6.466c-7.31 4.221-14.186 12.2-18.525 21.5l-81.706 175.082c-8.464 18.138-13.031 36.808-13.031 53.274v34.603l41.046 23.698v-34.603c0-16.466 4.566-35.136 13.031-53.275l69.164-148.206 110.74-63.936z"/><path fill="#52aecc" d="M896.458 513.465l-41.046-23.698v16.551l41.046 23.698v-16.551z" class="color5652cc svgShape"/><path fill="#67c9e9" d="M896.458 530.016l-41.046-23.698-22.643 13.073 26.712 15.422v16.551l36.977-21.348z" class="color6b67e9 svgShape"/><path fill="#195a6f" d="M926.184 507.106c-4.34-4.288-11.216-4.328-18.527-.107l-11.2 6.466v16.55l-36.976 21.349v-16.55l-11.2 6.465c-7.31 4.221-14.186 12.2-18.526 21.5l-12.541 26.875 121.511-70.155zm81.705 80.737l-69.164-68.344-121.511 70.155L748.05 737.86c-8.465 18.14-13.03 36.81-13.03 53.275v34.603l285.901-165.066V626.07c0-16.466-4.567-29.863-13.031-38.227z" class="color20196f svgShape"/><path fill="url(#F)" d="M693.973 802.04v-34.603c0-16.466 4.567-35.136 13.031-53.274l69.164-148.207-19.077-11.014-161.702-93.359-69.163 148.207c-8.465 18.138-13.032 36.808-13.032 53.275v34.602L693.973 802.04z"/><path fill="url(#G)" d="M716.9 391.429l-121.51 70.154 46.55-7.24c16.105-2.506 29.926-6.476 37.237-10.697l11.2-6.466-14.334-8.275 22.643-13.073h28.667l11.2-6.466a17.029 17.029 0 0 0 4.081-3.08L716.9 391.429z" style="mix-blend-mode:multiply"/><g class="color000000 svgShape" clip-path="url(#H)"><path fill="url(#I)" d="M963.259 697.779c-.002-65.452-6.363-165.404-89.378-213.332L573.253 310.879c-41.083-23.72-69.078-19.907-86.802-1.983-17.724 17.924-30.813 53.13-30.813 96.375a26.947 26.947 0 0 0 .425 5.765c2.205 11.941 12.3 24.367 29.76 34.449 17.463 10.081 38.986 15.91 59.668 17.182 4.49.276 8.933.324 13.293.168l.016.009c3.388-25.175 11.199-48.92 16.09-67.925 1.128-4.38 2.105-6.649 5.717-4.563l285.92 165.076c3.612 2.085 6.359 7.43 5.716 11.163-2.599 15.077-9.781 47.85-9.781 73.024l.002.002a26.828 26.828 0 0 0 .413 6.29c2.204 11.94 12.299 24.366 29.76 34.448 17.462 10.081 38.985 15.91 59.667 17.182 3.672.226 7.315.3 10.906.238l.049.028z"/><path fill="#195a6f" d="M617.942 422.737c-.308-4.09-.726-7.881-1.218-11.529l-36.117-20.852c-3.613-2.086-4.589.183-5.716 4.563-4.892 19.003-12.702 42.745-16.09 67.916 15.72-.565 30.276-3.947 41.31-10.317 12.252-7.074 18.142-16.652 18.03-26.877l.006.002-.005-.062a26.826 26.826 0 0 0-.2-2.844z" class="color20196f svgShape"/><path fill="url(#J)" d="M907.76 464.887L607.132 291.319c-33.875-19.557-58.844-20.386-76.501-10.03l-32.845 18.963c17.594-9.725 42.25-8.55 75.467 10.627L873.88 484.447c83.015 47.928 89.376 147.88 89.378 213.332v.028l.05-.03c16.6-.303 32.044-3.704 43.616-10.385 12.33-7.118 18.223-16.773 18.034-27.07l.005-.003c0-65.451-34.177-147.497-117.204-195.432z"/></g><path style="mix-blend-mode:multiply" fill="#d1f3d1" d="M637.657 406.743l17.478 26.642-17.478-10.091v-16.551z" class="colord1d7f3 svgShape"/><path fill="url(#K)" d="M859.481 534.813v16.551l7.045 4.068c3.613 2.085 6.36 7.43 5.717 11.163-2.599 15.077-9.781 47.85-9.781 73.024l.002.002a26.827 26.827 0 0 0 .413 6.29c1.79 9.698 8.787 19.717 20.708 28.54-3.968-28.44 3.403-45.74 5.096-60.627 5.636-49.571-29.2-79.01-29.2-79.01z" style="mix-blend-mode:multiply"/><path fill="#daf5da" d="M690.327 510.108c-46.857-21.732-106.134 7.11-132.385 64.438-26.252 57.328-9.533 121.418 37.324 143.15 46.837 21.724 106.114-7.12 132.366-64.447 26.252-57.327 9.532-121.418-37.305-143.141z" style="mix-blend-mode:multiply" class="colordae0f5 svgShape"/><path fill="url(#L)" d="M694.36 510.263c-.924-.533-1.865-1.012-2.802-1.503 42.423 26.857 52.303 90.598 21.686 144.225-30.616 53.627-90.334 77.185-134.787 53.886.893.566 1.78 1.14 2.702 1.673 44.713 25.815 106.326 2.375 137.588-52.382 31.26-54.757 20.325-120.084-24.388-145.899z"/><path fill="#f6fbf6" d="M691.91 568.2c-4.784-2.761-7.113-9.056-5.342-15.831 2.219-8.467 9.97-14.468 17.334-13.417a10.917 10.917 0 0 1 3.947 1.348c4.788 2.764 7.113 9.077 5.342 15.858-2.207 8.445-9.971 14.467-17.322 13.395a10.946 10.946 0 0 1-3.96-1.352z" class="colorf6f6fb svgShape"/><path fill="#7ddcfb" d="M713.246 550.296l-5.685-3.282-1.562 2.735 3.021 1.744-8.446 14.795 2.664 1.538 10.008-17.53z" class="color807dfb svgShape"/><path fill="#e8f7e8" d="M711.935 544.479a11.725 11.725 0 0 0-1.59-2.126c-.315-.072-.613-.178-.94-.225-7.364-1.05-15.116 4.95-17.335 13.417-1.422 5.442-.168 10.54 2.847 13.78.319.074.62.18.952.228a11.974 11.974 0 0 0 2.45.088 15.457 15.457 0 0 1-1.25-11.664c1.971-7.524 8.312-13.086 14.866-13.498z" style="mix-blend-mode:multiply" class="colore8ecf7 svgShape"/><path fill="url(#c)" d="M692.07 555.545c2.22-8.467 9.97-14.467 17.334-13.416.328.046.626.152.94.224a10.358 10.358 0 0 0-6.442-3.401c-7.363-1.05-15.115 4.95-17.334 13.417-1.77 6.775.558 13.07 5.342 15.831a10.89 10.89 0 0 0 3.007 1.125c-3.015-3.24-4.269-8.338-2.847-13.78z"/><path fill="#f6fbf6" d="M668.156 543.315c-4.784-2.762-7.113-9.056-5.342-15.832 2.219-8.467 9.97-14.467 17.334-13.417a10.917 10.917 0 0 1 3.947 1.349c4.788 2.763 7.113 9.077 5.342 15.858-2.207 8.445-9.971 14.467-17.322 13.394a10.944 10.944 0 0 1-3.96-1.352z" class="colorf6f6fb svgShape"/><path fill="#7ddcfb" d="M686.587 523.585a7.736 7.736 0 0 0-3.607-1.093 6.754 6.754 0 0 0-3.477.844l.86 2.824a4.292 4.292 0 0 1 4.398.124 3.348 3.348 0 0 1 1.622 1.78 2.913 2.913 0 0 1-.413 2.265 4.884 4.884 0 0 1-1.29 1.467 7.958 7.958 0 0 1-2.41 1.226l-9.46 3.327-1.236 2.167 10.548 6.09 1.562-2.736-6.74-3.891 6.356-2.266a12.377 12.377 0 0 0 3.52-1.751 8.476 8.476 0 0 0 2.02-2.413 5.626 5.626 0 0 0 .704-4.482 5.939 5.939 0 0 0-2.957-3.482z" class="color807dfb svgShape"/><path fill="#e8f7e8" d="M688.181 519.593a11.761 11.761 0 0 0-1.59-2.125c-.315-.073-.613-.178-.94-.225-7.364-1.05-15.116 4.95-17.335 13.417-1.422 5.442-.168 10.54 2.847 13.78.319.073.62.18.952.227a11.978 11.978 0 0 0 2.45.088 15.457 15.457 0 0 1-1.25-11.663c1.97-7.524 8.312-13.087 14.866-13.499z" style="mix-blend-mode:multiply" class="colore8ecf7 svgShape"/><path fill="url(#M)" d="M668.316 530.66c2.219-8.467 9.97-14.467 17.334-13.417.328.047.626.153.94.225a10.357 10.357 0 0 0-6.442-3.402c-7.364-1.05-15.115 4.95-17.334 13.417-1.77 6.776.558 13.07 5.342 15.832a10.894 10.894 0 0 0 3.007 1.125c-3.015-3.24-4.269-8.338-2.847-13.78z"/><path fill="#f6fbf6" d="M634.817 535.214c-4.784-2.762-7.112-9.056-5.342-15.832 2.219-8.467 9.97-14.467 17.334-13.417a10.913 10.913 0 0 1 3.948 1.349c4.788 2.763 7.113 9.077 5.341 15.857-2.206 8.446-9.97 14.468-17.322 13.395a10.94 10.94 0 0 1-3.959-1.352z" class="colorf6f6fb svgShape"/><path fill="#7ddcfb" d="M658.28 518.416l-9.744-5.626-1.549 2.714 6.49 3.747-5.953 2.848-1.274 2.233 1.323.764a4.012 4.012 0 0 1 1.942 2.052 3.188 3.188 0 0 1-2.253 3.821 3.792 3.792 0 0 1-2.616-.58 7.03 7.03 0 0 1-2.044-1.79 6.293 6.293 0 0 1-1.153-2.354l-2.594 1.878a8.025 8.025 0 0 0 1.564 2.882 9.797 9.797 0 0 0 2.65 2.228 7.254 7.254 0 0 0 3.541 1.084 5.663 5.663 0 0 0 3.05-.887 7.138 7.138 0 0 0 2.213-2.418 6.125 6.125 0 0 0 .887-3.969 5.171 5.171 0 0 0-2.072-3.408l6.355-3.053 1.237-2.166z" class="color807dfb svgShape"/><path fill="#e8f7e8" d="M654.843 511.492a11.738 11.738 0 0 0-1.591-2.125c-.315-.073-.613-.179-.94-.225-7.364-1.05-15.116 4.95-17.335 13.417-1.422 5.442-.167 10.54 2.847 13.78.32.073.62.18.952.227a11.97 11.97 0 0 0 2.45.088 15.456 15.456 0 0 1-1.25-11.663c1.971-7.524 8.312-13.087 14.867-13.499z" style="mix-blend-mode:multiply" class="colore8ecf7 svgShape"/><path fill="url(#N)" d="M634.977 522.559c2.22-8.467 9.971-14.468 17.335-13.417.327.046.625.152.94.225a10.356 10.356 0 0 0-6.443-3.402c-7.363-1.05-15.115 4.95-17.334 13.417-1.77 6.776.558 13.07 5.342 15.832a10.896 10.896 0 0 0 3.007 1.125c-3.014-3.24-4.269-8.338-2.847-13.78z"/><path fill="#f6fbf6" d="M599.158 545.713c-4.783-2.761-7.112-9.056-5.342-15.832 2.22-8.467 9.971-14.467 17.335-13.416a10.914 10.914 0 0 1 3.947 1.348c4.788 2.764 7.113 9.077 5.341 15.858-2.206 8.445-9.97 14.467-17.322 13.394a10.943 10.943 0 0 1-3.959-1.352z" class="colorf6f6fb svgShape"/><path fill="#7ddcfb" d="M621.047 528.172l-2.842-1.641-13.497 7.193-1.287 2.254 7.849 4.532-2.274 3.983 2.574 1.486 2.274-3.983 2.539 1.466 1.574-2.758-2.538-1.465 2.011-3.524-2.485-1.435-2.012 3.524-4.684-2.704 12.798-6.928z" class="color807dfb svgShape"/><path fill="#e8f7e8" d="M619.184 521.991a11.76 11.76 0 0 0-1.591-2.125c-.315-.072-.612-.178-.94-.225-7.363-1.05-15.115 4.95-17.334 13.417-1.422 5.442-.168 10.54 2.846 13.78.32.074.62.18.952.228a11.97 11.97 0 0 0 2.45.087 15.456 15.456 0 0 1-1.25-11.663c1.971-7.524 8.312-13.086 14.867-13.499z" style="mix-blend-mode:multiply" class="colore8ecf7 svgShape"/><path fill="url(#O)" d="M599.319 533.058c2.219-8.467 9.97-14.467 17.334-13.417.328.047.625.153.94.225a10.357 10.357 0 0 0-6.442-3.401c-7.364-1.05-15.116 4.95-17.335 13.416-1.77 6.776.559 13.07 5.342 15.832a10.896 10.896 0 0 0 3.007 1.125c-3.014-3.24-4.268-8.338-2.846-13.78z"/><path fill="#f6fbf6" d="M568.99 572.501c-4.783-2.761-7.111-9.056-5.341-15.832 2.219-8.467 9.97-14.467 17.334-13.416a10.916 10.916 0 0 1 3.947 1.348c4.789 2.764 7.114 9.077 5.342 15.858-2.207 8.445-9.971 14.467-17.322 13.394a10.94 10.94 0 0 1-3.96-1.352z" class="colorf6f6fb svgShape"/><path fill="#7ddcfb" d="M592.22 555.556l-8.402-4.852-6.168 9.097 3.45 1.992a5.597 5.597 0 0 1 2.569 2.414 2.794 2.794 0 0 1-.287 2.541 2.877 2.877 0 0 1-1.929 1.505 3.701 3.701 0 0 1-2.616-.58 7.023 7.023 0 0 1-2.044-1.79 6.462 6.462 0 0 1-1.188-2.374l-2.576 1.888a8.024 8.024 0 0 0 1.564 2.882 10.025 10.025 0 0 0 2.655 2.26 6.946 6.946 0 0 0 3.566 1.04 5.398 5.398 0 0 0 3.045-.918 7.228 7.228 0 0 0 2.28-2.496 6.12 6.12 0 0 0 .789-4.753 7.27 7.27 0 0 0-3.676-4.014l-1.358-.784 2.627-3.895 6.15 3.55 1.55-2.713z" class="color807dfb svgShape"/><path fill="#e8f7e8" d="M589.017 548.78a11.758 11.758 0 0 0-1.591-2.126c-.315-.072-.613-.178-.94-.225-7.364-1.05-15.116 4.95-17.335 13.417-1.422 5.442-.168 10.54 2.847 13.78.319.074.62.18.952.228a11.969 11.969 0 0 0 2.45.087 15.457 15.457 0 0 1-1.25-11.663c1.971-7.524 8.312-13.086 14.867-13.499z" style="mix-blend-mode:multiply" class="colore8ecf7 svgShape"/><path fill="url(#P)" d="M569.151 559.846c2.22-8.467 9.971-14.467 17.335-13.417.327.047.625.153.94.225a10.357 10.357 0 0 0-6.443-3.401c-7.363-1.05-15.115 4.95-17.334 13.416-1.77 6.776.558 13.07 5.342 15.832a10.896 10.896 0 0 0 3.007 1.125c-3.015-3.24-4.269-8.338-2.847-13.78z"/><path fill="#f6fbf6" d="M550.925 609.701c-4.783-2.761-7.112-9.056-5.341-15.832 2.219-8.466 9.97-14.467 17.334-13.416a10.919 10.919 0 0 1 3.947 1.348c4.788 2.764 7.113 9.077 5.342 15.858-2.207 8.445-9.971 14.467-17.323 13.395a10.944 10.944 0 0 1-3.959-1.353z" class="colorf6f6fb svgShape"/><path fill="#7ddcfb" d="M560.47 605.258a3.324 3.324 0 0 1-1.688-2.081 3.745 3.745 0 0 1 2.454-4.257 3.156 3.156 0 0 1 2.579.354 3.26 3.26 0 0 1 1.642 1.996 3.504 3.504 0 0 1-.48 2.632 3.452 3.452 0 0 1-2.007 1.723 3.167 3.167 0 0 1-2.5-.367zm9.799-14.916a7.334 7.334 0 0 0-4.29-1.021 8.154 8.154 0 0 0-4.279 1.748 14.902 14.902 0 0 0-3.762 4.55c-1.599 2.801-2.287 5.256-2.059 7.396a6.227 6.227 0 0 0 3.29 4.896 5.725 5.725 0 0 0 6.06-.08 7.74 7.74 0 0 0 3.395-5.78 5.455 5.455 0 0 0-.683-2.926 5.707 5.707 0 0 0-2.146-2.112 5.994 5.994 0 0 0-2.48-.82 4.548 4.548 0 0 0-2.395.45l.025-.045a8.436 8.436 0 0 1 3.71-3.793 4.366 4.366 0 0 1 4.124.314 4.924 4.924 0 0 1 2.23 2.423l2.383-1.884a5.96 5.96 0 0 0-1.212-1.834 9.162 9.162 0 0 0-1.911-1.482z" class="color807dfb svgShape"/><path fill="#e8f7e8" d="M570.951 585.98a11.744 11.744 0 0 0-1.59-2.126c-.316-.072-.613-.178-.94-.225-7.364-1.05-15.116 4.95-17.335 13.417-1.422 5.442-.168 10.54 2.847 13.78.318.074.62.18.952.228a11.967 11.967 0 0 0 2.45.088 15.457 15.457 0 0 1-1.25-11.664c1.97-7.523 8.312-13.086 14.866-13.498z" style="mix-blend-mode:multiply" class="colore8ecf7 svgShape"/><path fill="url(#Q)" d="M551.086 597.046c2.219-8.467 9.97-14.467 17.334-13.417.328.047.625.153.94.226a10.356 10.356 0 0 0-6.442-3.402c-7.364-1.05-15.116 4.95-17.334 13.416-1.771 6.776.558 13.07 5.341 15.832a10.893 10.893 0 0 0 3.008 1.125c-3.015-3.24-4.269-8.338-2.847-13.78z"/><path fill="#f6fbf6" d="M548.917 649.113c-4.783-2.762-7.112-9.057-5.342-15.832 2.22-8.467 9.971-14.468 17.335-13.417a10.914 10.914 0 0 1 3.947 1.348c4.788 2.764 7.113 9.077 5.341 15.858-2.206 8.445-9.97 14.467-17.322 13.395a10.948 10.948 0 0 1-3.959-1.352z" class="colorf6f6fb svgShape"/><path fill="#7ddcfb" d="M572.438 633.759l-11.12-6.42-3.273 5.734 2.467 1.424 1.699-2.976 5.614 3.241-13.798 11.676 2.843 1.641 14.319-12.131 1.249-2.189z" class="color807dfb svgShape"/><path fill="#e8f7e8" d="M568.943 625.39a11.749 11.749 0 0 0-1.59-2.125c-.316-.072-.613-.178-.941-.225-7.364-1.05-15.116 4.95-17.334 13.417-1.422 5.442-.168 10.54 2.846 13.78.32.074.62.18.952.228a11.985 11.985 0 0 0 2.45.088 15.456 15.456 0 0 1-1.25-11.664c1.971-7.524 8.312-13.086 14.867-13.498z" style="mix-blend-mode:multiply" class="colore8ecf7 svgShape"/><path fill="url(#R)" d="M549.078 636.457c2.218-8.467 9.97-14.467 17.334-13.416.328.046.625.152.94.225a10.357 10.357 0 0 0-6.442-3.402c-7.364-1.05-15.116 4.95-17.335 13.417-1.77 6.775.559 13.07 5.342 15.831a10.89 10.89 0 0 0 3.007 1.125c-3.014-3.24-4.268-8.338-2.846-13.78z"/><path fill="#f6fbf6" d="M563.359 682.344c-4.784-2.761-7.113-9.056-5.342-15.831 2.219-8.467 9.97-14.468 17.334-13.417a10.916 10.916 0 0 1 3.947 1.348c4.788 2.764 7.113 9.077 5.342 15.858-2.207 8.445-9.971 14.467-17.322 13.395a10.948 10.948 0 0 1-3.96-1.353z" class="colorf6f6fb svgShape"/><path fill="#7ddcfb" d="M573.12 678.034a3.844 3.844 0 0 1-1.87-2.098 3.408 3.408 0 0 1 2.362-4.136 3.927 3.927 0 0 1 2.73.587 4.056 4.056 0 0 1 1.9 2.086 3.028 3.028 0 0 1-.316 2.553 2.982 2.982 0 0 1-2.045 1.584 3.902 3.902 0 0 1-2.762-.576zm4.56-7.988a3.148 3.148 0 0 1-1.58-1.814 2.636 2.636 0 0 1 .28-2.196 2.701 2.701 0 0 1 1.782-1.415 3.222 3.222 0 0 1 2.341.478 3.34 3.34 0 0 1 1.61 1.803 2.672 2.672 0 0 1-.298 2.271 2.608 2.608 0 0 1-1.745 1.35 3.225 3.225 0 0 1-2.39-.477zm4.273-7.485a7.231 7.231 0 0 0-3.126-1.02 5.301 5.301 0 0 0-2.834.634 5.603 5.603 0 0 0-2.136 2.2 5.707 5.707 0 0 0-.79 2.425 4.762 4.762 0 0 0 .46 2.274 5.043 5.043 0 0 0-2.66.705 5.741 5.741 0 0 0-2.014 2.154 6.136 6.136 0 0 0-.884 3.214 5.366 5.366 0 0 0 .988 3.015 8.22 8.22 0 0 0 2.713 2.41 8.401 8.401 0 0 0 3.455 1.151 5.293 5.293 0 0 0 3.088-.661 5.924 5.924 0 0 0 2.332-2.378 5.577 5.577 0 0 0 .817-2.846 5.036 5.036 0 0 0-.754-2.676 4.474 4.474 0 0 0 2.215-.758 5.23 5.23 0 0 0 1.69-1.876 5.647 5.647 0 0 0 .812-2.965 5.577 5.577 0 0 0-.902-2.79 7.369 7.369 0 0 0-2.47-2.212z" class="color807dfb svgShape"/><path fill="#e8f7e8" d="M583.385 658.623a11.757 11.757 0 0 0-1.592-2.126c-.314-.072-.612-.178-.94-.225-7.363-1.05-15.115 4.95-17.334 13.417-1.422 5.442-.168 10.54 2.847 13.78.319.074.62.18.952.228a11.968 11.968 0 0 0 2.45.088 15.457 15.457 0 0 1-1.25-11.664c1.971-7.523 8.312-13.086 14.867-13.498z" style="mix-blend-mode:multiply" class="colore8ecf7 svgShape"/><path fill="url(#S)" d="M563.52 669.69c2.218-8.468 9.97-14.468 17.333-13.417.328.046.626.152.94.225a10.357 10.357 0 0 0-6.442-3.402c-7.363-1.05-15.115 4.95-17.334 13.417-1.77 6.775.558 13.07 5.342 15.831a10.896 10.896 0 0 0 3.007 1.125c-3.015-3.24-4.269-8.338-2.847-13.78z"/><path fill="#f6fbf6" d="M591.132 701.892c-4.783-2.762-7.112-9.057-5.342-15.832 2.22-8.467 9.971-14.468 17.335-13.417a10.917 10.917 0 0 1 3.947 1.348c4.788 2.764 7.113 9.077 5.342 15.858-2.207 8.445-9.971 14.467-17.322 13.395a10.948 10.948 0 0 1-3.96-1.352z" class="colorf6f6fb svgShape"/><path fill="#7ddcfb" d="M604.627 690.463a3.182 3.182 0 0 1-1.63-2.017 3.402 3.402 0 0 1 .469-2.61 3.452 3.452 0 0 1 2.005-1.724 3.06 3.06 0 0 1 2.483.357 3.34 3.34 0 0 1 1.707 2.09 3.745 3.745 0 0 1-2.455 4.258 3.158 3.158 0 0 1-2.579-.354zm4.646-8.637a5.982 5.982 0 0 0-3.046-.828 5.658 5.658 0 0 0-3.014.908 7.092 7.092 0 0 0-2.409 2.596 6.842 6.842 0 0 0-.986 3.185 5.337 5.337 0 0 0 .678 2.893 5.559 5.559 0 0 0 2.151 2.144 5.65 5.65 0 0 0 2.492.799 4.62 4.62 0 0 0 2.383-.428l-.012.022a8.466 8.466 0 0 1-3.724 3.815 4.43 4.43 0 0 1-4.123-.314 4.926 4.926 0 0 1-2.23-2.422l-2.383 1.883a5.96 5.96 0 0 0 1.212 1.834 9.044 9.044 0 0 0 1.911 1.482 7.334 7.334 0 0 0 4.29 1.022 8.153 8.153 0 0 0 4.279-1.75 15.288 15.288 0 0 0 3.762-4.55c1.6-2.8 2.27-5.265 2.059-7.395a6.227 6.227 0 0 0-3.29-4.896z" class="color807dfb svgShape"/><path fill="#e8f7e8" d="M611.158 678.17a11.745 11.745 0 0 0-1.59-2.125c-.316-.073-.613-.179-.94-.225-7.364-1.05-15.116 4.95-17.335 13.416-1.422 5.442-.168 10.54 2.847 13.78.319.074.62.181.952.228a11.97 11.97 0 0 0 2.45.088 15.456 15.456 0 0 1-1.25-11.664c1.97-7.523 8.312-13.086 14.866-13.498z" style="mix-blend-mode:multiply" class="colore8ecf7 svgShape"/><path fill="url(#T)" d="M591.293 689.236c2.219-8.467 9.97-14.467 17.334-13.416.328.046.625.152.94.225a10.358 10.358 0 0 0-6.442-3.402c-7.364-1.05-15.115 4.95-17.334 13.417-1.77 6.775.558 13.07 5.342 15.832a10.901 10.901 0 0 0 3.007 1.124c-3.015-3.24-4.269-8.338-2.847-13.78z"/><path fill="#f6fbf6" d="M626.168 703.562c-4.784-2.762-7.112-9.056-5.342-15.832 2.219-8.467 9.97-14.467 17.334-13.417a10.911 10.911 0 0 1 3.948 1.349c4.788 2.763 7.113 9.077 5.341 15.857-2.206 8.446-9.97 14.468-17.322 13.395a10.948 10.948 0 0 1-3.96-1.352z" class="colorf6f6fb svgShape"/><path fill="#7ddcfb" d="M636.11 698.98a3.141 3.141 0 0 1-1.526-2.948 14.28 14.28 0 0 1 5.286-9.258 3.06 3.06 0 0 1 3.3-.16 3.097 3.097 0 0 1 1.527 2.947 14.28 14.28 0 0 1-5.285 9.258 3.104 3.104 0 0 1-3.301.16zm8.672-15.19a5.612 5.612 0 0 0-3.675-.724 8.207 8.207 0 0 0-3.901 1.88 15.567 15.567 0 0 0-3.53 4.392 15.784 15.784 0 0 0-2.005 5.303 8.08 8.08 0 0 0 .365 4.314 5.723 5.723 0 0 0 6.15 3.55 7.973 7.973 0 0 0 3.89-1.857 17.604 17.604 0 0 0 5.535-9.695 8.317 8.317 0 0 0-.354-4.336 5.702 5.702 0 0 0-2.475-2.826z" class="color807dfb svgShape"/><path fill="#e8f7e8" d="M646.194 679.84a11.763 11.763 0 0 0-1.591-2.125c-.315-.073-.612-.179-.94-.225-7.364-1.05-15.116 4.95-17.335 13.417-1.422 5.441-.167 10.54 2.847 13.78.319.073.62.18.952.227a11.97 11.97 0 0 0 2.45.088 15.456 15.456 0 0 1-1.25-11.663c1.971-7.524 8.312-13.086 14.867-13.499z" style="mix-blend-mode:multiply" class="colore8ecf7 svgShape"/><path fill="url(#U)" d="M626.328 690.907c2.22-8.467 9.971-14.467 17.335-13.417.328.047.625.152.94.225a10.358 10.358 0 0 0-6.443-3.402c-7.363-1.05-15.115 4.95-17.334 13.417-1.77 6.776.558 13.07 5.342 15.832a10.896 10.896 0 0 0 3.007 1.125c-3.014-3.24-4.269-8.338-2.847-13.78z"/><path fill="#fff" d="M591.141 701.897c-5.492-3.171-7.551-10.83-4.568-18.19 3.317-8.183 11.634-12.926 18.55-10.592a10.89 10.89 0 0 1 1.966.888c5.477 3.161 7.543 10.802 4.549 18.18-3.317 8.182-11.616 12.935-18.532 10.6a10.931 10.931 0 0 1-1.965-.886zm-27.786-19.539a10.999 10.999 0 0 1-3.087-2.665c-4.64-5.821-3.474-15.566 2.625-21.793 4.937-5.049 11.583-6.242 16.407-3.457a11.005 11.005 0 0 1 3.086 2.664c4.64 5.822 3.474 15.566-2.637 21.815-4.926 5.03-11.57 6.221-16.394 3.436zm62.84 21.22c-3.499-2.02-5.832-5.978-5.945-10.992-.2-8.35 5.875-16.453 13.546-18.106a11.562 11.562 0 0 1 8.306 1.18c3.5 2.02 5.828 5.978 5.937 10.971.188 8.373-5.888 16.476-13.559 18.129a11.545 11.545 0 0 1-8.285-1.182zM548.897 649.2a12.072 12.072 0 0 1-5.706-8.67c-1.371-8.009 3.64-16.87 11.186-19.76a11.562 11.562 0 0 1 16.175 9.222 18.645 18.645 0 0 1-11.203 19.75 11.99 11.99 0 0 1-10.452-.542zm2.028-39.5c-4.783-2.761-7.112-9.056-5.341-15.832 2.219-8.466 9.97-14.467 17.334-13.416a10.915 10.915 0 0 1 3.947 1.348c4.788 2.764 7.113 9.077 5.342 15.858-2.207 8.445-9.971 14.467-17.323 13.395a10.944 10.944 0 0 1-3.959-1.353zm18.118-37.18a10.924 10.924 0 0 1-1.692-1.207c-5.547-4.774-5.729-14.365-.415-21.424 4.811-6.356 12.46-8.48 17.98-5.292a10.95 10.95 0 0 1 1.67 1.186c5.546 4.774 5.728 14.365.414 21.423-4.799 6.376-12.444 8.497-17.957 5.314zm30.12-26.806A11.651 11.651 0 0 1 594 539.21c-2.521-7.45 1.32-16.843 8.564-20.954 4.383-2.475 9.004-2.47 12.53-.434a11.61 11.61 0 0 1 5.155 6.513c2.54 7.46-1.32 16.843-8.563 20.954-4.381 2.474-8.997 2.462-12.521.426zm35.665-10.493c-4.142-2.391-6.553-7.475-5.805-13.474 1.05-8.502 8.065-15.626 15.678-15.886a11.17 11.17 0 0 1 6.042 1.455c4.142 2.391 6.554 7.476 5.806 13.474-1.05 8.502-8.066 15.626-15.678 15.887a11.167 11.167 0 0 1-6.043-1.456zm57.09 32.961a11.258 11.258 0 0 1-4.296-4.514c-3.615-6.742-1.034-16.426 5.738-21.625 4.774-3.674 10.356-4.143 14.498-1.752a11.256 11.256 0 0 1 4.297 4.514c3.614 6.743 1.033 16.427-5.738 21.625-4.775 3.674-10.357 4.143-14.498 1.752zm-23.74-24.876c-6.293-3.634-7.832-12.845-3.434-20.548 4.398-7.704 13.072-10.99 19.365-7.356s7.827 12.812 3.43 20.516c-4.399 7.704-13.067 11.021-19.36 7.388zm20.679-36.22c-44.73-25.826-106.344-2.386-137.606 52.372-31.26 54.757-20.325 120.083 24.406 145.909 44.713 25.815 106.326 2.374 137.587-52.383 31.261-54.757 20.326-120.083-24.387-145.898z" class="colorffffff svgShape"/><path fill="#e8f7e8" d="M644.69 588.07c-10.215-3.995-22.404 2.893-27.22 15.387s-.436 25.862 9.78 29.857c10.212 3.993 22.4-2.895 27.217-15.39 4.816-12.493.435-25.86-9.777-29.854z" style="mix-blend-mode:multiply" class="colore8ecf7 svgShape"/><path fill="url(#V)" d="M644.27 585.17l-4.487-2.57c9.264 5.591 11.488 19.294 4.914 30.81-6.64 11.628-19.724 16.606-29.22 11.124 0 0 5.046 2.885 5.19 2.963l.362.206.011-.02c9.419 4.767 21.955-.223 28.41-11.528 6.639-11.63 4.316-25.503-5.18-30.985z"/><path fill="#7ddcfb" d="M639.518 582.425c-9.5-5.485-22.585-.507-29.224 11.122-6.639 11.629-4.316 25.502 5.183 30.987 9.496 5.482 22.58.504 29.22-11.125s4.316-25.502-5.18-30.984z" class="color807dfb svgShape"/><path fill="#6dff6d" d="M733.742 640.122a3.822 3.822 0 0 1 1.425 5.062l-9.901 21.06a3.54 3.54 0 0 1-4.715 1.933 3.123 3.123 0 0 1-.386-.234l-38.644-27.226a3.872 3.872 0 0 1-1.05-4.834l4.194-8.921a3.615 3.615 0 0 1 4.312-2.102l44.35 15.087a3.104 3.104 0 0 1 .415.175z" class="colorffaf6d svgShape"/><path fill="url(#W)" d="M738.216 641.597l-4.474-1.475a3.822 3.822 0 0 1 1.426 5.062l-9.902 21.06a3.607 3.607 0 0 1-4.285 2.112l4.474 1.474a3.607 3.607 0 0 0 4.285-2.112l9.901-21.06a3.822 3.822 0 0 0-1.425-5.061z"/></g><g class="color000000 svgShape"><path fill="url(#X)" d="M920.122 787.994c-11.534-8.737-26.871-12.764-41.928-12.17H854.58v5.077a55.83 55.83 0 0 0-12.486 7.093c-21.473 16.375-21.35 42.913.259 59.28a56.58 56.58 0 0 0 12.227 6.952v5.304h28.32c13.61-.3 27.121-4.35 37.478-12.246 21.475-16.377 21.367-42.915-.256-59.29z" style="mix-blend-mode:multiply"/><path fill="url(#d)" d="M891.408 770.035a69.356 69.356 0 0 0-26.58-16.578c-16.411-5.699-34.323-5.333-47.483 2.31a32.601 32.601 0 0 0-14.157 15.702l-6.203 15.013a32.624 32.624 0 0 1 14.16-15.7c8.56-4.98 19.145-6.868 30.008-6.015a70.85 70.85 0 0 1 44.053 20.277c13.341 13.564 17.214 29.948 11.853 42.929l6.195-15.013c5.369-12.984 1.496-29.365-11.846-42.925z"/><path fill="#6dff6d" d="M889.753 774.035c19.776 20.092 18.74 46.394-2.314 58.626-21.047 12.23-54.262 5.838-74.044-14.254-19.786-20.11-18.747-46.409 2.3-58.64 21.054-12.233 54.269-5.843 74.058 14.268z" class="colorffaf6d svgShape"/><path fill="url(#k)" d="M914.837 817.72q-3.097 7.508-6.2 15.018c-3.184 7.705-9.015 14.442-17.464 19.35-25.951 15.076-66.76 7.22-91.141-17.547-16.44-16.71-21.214-36.844-14.62-52.803q3.103-7.511 6.2-15.02c-6.591 15.968-1.82 36.1 14.627 52.812 24.377 24.767 65.188 32.62 91.134 17.542 8.45-4.908 14.283-11.644 17.464-19.352z"/><path fill="#6eff6e" d="M900.214 764.912c24.374 24.77 23.114 57.076-2.841 72.16-25.946 15.079-66.757 7.225-91.134-17.542-24.385-24.78-23.105-57.087 2.84-72.163 25.959-15.082 66.747-7.233 91.135 17.545zm-85.167 49.493c19.78 20.094 52.995 26.487 74.047 14.257 21.054-12.232 22.09-38.534 2.314-58.627-19.792-20.103-53.008-26.503-74.063-14.268-21.05 12.239-22.085 38.536-2.298 58.638z" class="colorffcf6e svgShape"/><path fill="#4bfb4b" d="M822.892 804.875l2.87-1.674c-2.537-4.001-3.097-8.297-1.735-11.924l-1.637 3.916h.014a12.7 12.7 0 0 0 .488 9.682zm25.171-6.616a8.539 8.539 0 0 1 2.703 6.045c2.497-2.598 2.187-6.75-1.054-10.036-3.505-3.565-5.353-7.751-5.184-11.788a11.292 11.292 0 0 1 .964-4.17l-.004-.003-1.568 3.808.014-.002a11.145 11.145 0 0 0-1.059 4.362c-.17 4.046 1.679 8.228 5.188 11.784z" class="colorfb944b svgShape"/><path fill="#39e539" d="M835.535 791.527a6.015 6.015 0 0 0-3.16 5.18 6.948 6.948 0 0 1 1.507-1.183zm44.751-10.067a16.534 16.534 0 0 1 1.225 2.329l2.351-1.371 1.656-4z" class="colore57139 svgShape"/><path fill="#4bfb4b" d="M870.518 793.133l-1.65 4 6.223 6.325 1.651-4.002-6.224-6.323z" class="colorfb944b svgShape"/><path fill="#39e539" d="M876.742 799.456l-1.65 4.002a11.857 11.857 0 0 0 5.08-5.555l.01-.017c.01-.023.018-.05.03-.074l1.632-3.948a11.856 11.856 0 0 1-5.102 5.592z" class="colore57139 svgShape"/><path fill="#6eff6e" d="M885.518 778.418l-5.232 3.043c4.221 6.683 2.99 14.2-3.544 17.995l-6.224-6.323c4.03-2.337 4.231-7.368.44-11.22-3.794-3.855-10.15-5.076-14.174-2.732a5.996 5.996 0 0 0-3.163 5.047 8.47 8.47 0 0 0 2.72 6.184c7.219 7.34 6.837 16.932-.843 21.394-6.545 3.808-16.298 2.668-23.516-2.277l-4.83 2.809-6.223-6.323 4.834-2.814c-4.23-6.681-2.998-14.197 3.546-18l6.226 6.326c-4.039 2.346-4.24 7.374-.444 11.23 3.785 3.852 10.14 5.075 14.179 2.722 4.032-2.335 4.23-7.37.442-11.21-3.505-3.566-5.353-7.752-5.184-11.789a11.453 11.453 0 0 1 6.03-9.626c6.533-3.801 16.284-2.664 23.497 2.284l5.237-3.047z" class="colorffcf6e svgShape"/><path fill="#4bfb4b" d="M820.929 806.015l-1.653 3.997 6.226 6.325 1.65-3.999-6.223-6.323z" class="colorfb944b svgShape"/><path fill="#39e539" d="M827.152 812.338l-1.65 3.999 4.834-2.806 1.646-4.002-4.83 2.809z" class="colore57139 svgShape"/><path fill="url(#Y)" d="M859.627 807.982c-.007.003-.01.005-.01.014a11.928 11.928 0 0 1-.972 1.237 12.44 12.44 0 0 1-3.147 2.573c-6.545 3.808-16.298 2.668-23.516-2.277l-1.646 4.002c7.213 4.94 16.967 6.075 23.51 2.275a11.9 11.9 0 0 0 4.873-5.16l.006.032 1.697-4.09a11.206 11.206 0 0 1-.795 1.394z"/><path fill="#39e539" d="M872.044 791.936c2.476-2.597 2.143-6.74-1.086-10.022-3.794-3.856-10.15-5.077-14.174-2.733a5.996 5.996 0 0 0-3.163 5.047l.002.134a7.035 7.035 0 0 1 1.508-1.186c4.024-2.34 10.382-1.117 14.178 2.74a8.66 8.66 0 0 1 2.703 5.81z" class="colore57139 svgShape"/></g><g class="color000000 svgShape"><path fill="url(#Z)" d="M1187.927 520.53h14.438v135.586h-14.438z" transform="rotate(-42.741 1195.146 588.323)" style="mix-blend-mode:multiply"/><path fill="#a9dba9" d="M937.426 668.584l-38.748 22.371-9.003 19.38 38.747-22.371 9.004-19.38z" class="colora9b2db svgShape"/><path fill="#b9e7b9" d="M889.675 710.335l-4.559-2.632 9.003-19.38 4.559 2.632-9.003 19.38z" class="colorb9c0e7 svgShape"/><path fill="#ccf9cc" d="M898.678 690.955l-4.559-2.632 38.749-22.37 4.558 2.631-38.748 22.371z" class="colorccd3f9 svgShape"/><path fill="url(#aa)" d="M1155.602 535.273a9.401 9.401 0 0 0-3.247-3.423 3.238 3.238 0 0 0-3.253-.322L893.059 679.353l6.508 11.264 256.043-147.823a3.233 3.233 0 0 0 1.345-2.98 9.4 9.4 0 0 0-1.353-4.541z"/><path fill="#67cbec" d="M893.065 686.87a9.406 9.406 0 0 1-1.35-4.542 2.801 2.801 0 0 1 4.598-2.653 10.153 10.153 0 0 1 4.6 7.963 2.802 2.802 0 0 1-4.6 2.656 9.375 9.375 0 0 1-3.248-3.424z" class="color6d67ec svgShape"/><path fill="#a9dba9" d="M937.425 659.205l-38.747 22.371-9.003-8.986 38.747-22.368 9.003 8.983z" class="colora9b2db svgShape"/><path fill="#ccf9cc" d="M889.675 672.59l-4.559-2.632 38.747-22.368 4.559 2.632-38.747 22.368z" class="colorccd3f9 svgShape"/><path fill="#b9e7b9" d="M898.678 681.576l-4.559-2.632-9.003-8.986 4.559 2.632 9.003 8.986z" class="colorb9c0e7 svgShape"/></g><g class="color000000 svgShape" data-name="Speech bubble"><path fill="#4bfb4b" d="M672.143 113.21L487.674 6.705c-9.827-5.67-17.863-1.063-17.863 10.239v113.413c0 11.306 8.036 25.196 17.856 30.864l130.244 75.194 27.892 49.419v-33.315l26.34 15.207c9.819 5.67 17.858 1.061 17.858-10.24l.003-113.41c-.003-11.307-8.04-25.196-17.861-30.866z" class="colorfb944b svgShape"/><path fill="url(#ab)" d="M679.571 108.92L495.103 2.414c-5.164-2.984-9.824-3.099-13.092-.916l-.015-.017-6.68 3.858c3.214-1.704 7.569-1.398 12.358 1.365L672.143 113.21c9.82 5.67 17.858 19.559 17.861 30.866l-.003 113.41c0 5.45-1.884 9.327-4.925 11.261l6.778-3.909c3.425-1.773 5.58-5.807 5.58-11.642V139.784c0-11.305-8.039-25.193-17.863-30.865z"/><path fill="#39e539" d="M645.803 252.519l7.428 4.289v24.733l-7.428 4.293v-33.315z" class="colore57139 svgShape"/><path fill="#fff" d="M660.785 150.567l-66.781-38.558v-9.406l66.781 38.556v9.408zm0 23.876l-66.781-38.558v-9.406l66.781 38.556v9.408zm0 23.875l-66.781-38.556v-9.407l66.781 38.556v9.407zm-38.087 1.889l-28.694-16.568v-9.405l28.694 16.564v9.409z" class="colorffffff svgShape"/><path fill="#2bc82b" d="M496.08 90.122a39.076 39.076 0 0 1-4.527-18.409q0-9.771 4.527-13.181 4.525-3.41 11.908.852a31.365 31.365 0 0 1 11.956 12.87 38.8 38.8 0 0 1 4.576 18.493q0 9.885-4.576 13.21-4.576 3.323-11.956-.938a31.003 31.003 0 0 1-11.908-12.897zm18.157 4.915q2.213-2.36 2.213-8.95a27.806 27.806 0 0 0-2.213-11.505 15.287 15.287 0 0 0-6.25-7.244q-3.838-2.216-6.15.142-2.314 2.358-2.313 8.835a27.228 27.228 0 0 0 2.313 11.505 15.45 15.45 0 0 0 6.15 7.245q4.034 2.329 6.25-.028zm35.083-10.995l9.644 5.569-47.04 52.384-9.644-5.568zm-8.07 69.657a39.072 39.072 0 0 1-4.527-18.409q0-9.771 4.527-13.18 4.525-3.41 11.908.852a31.293 31.293 0 0 1 11.956 12.925 38.918 38.918 0 0 1 4.576 18.437q0 9.774-4.576 13.153-4.576 3.383-11.956-.88a31.003 31.003 0 0 1-11.908-12.898zm18.107 4.83q2.262-2.386 2.263-8.864a27.57 27.57 0 0 0-2.263-11.476 15.365 15.365 0 0 0-6.2-7.273q-3.937-2.273-6.2.056-2.265 2.33-2.263 8.92a27.44 27.44 0 0 0 2.264 11.535 15.37 15.37 0 0 0 6.2 7.215q3.934 2.272 6.2-.113z" class="colorc85a2b svgShape"/></g><g class="color000000 svgShape"><path fill="url(#ac)" d="M210.913 788.968c-20.556-11.87-47.877-17.333-74.708-16.532H94.142v6.881a111.684 111.684 0 0 0-22.255 9.651c-38.257 22.235-38.034 58.295.464 80.523a112.507 112.507 0 0 0 21.79 9.455v7.195h50.449c24.27-.413 48.317-5.912 66.777-16.637 38.263-22.241 38.066-58.298-.454-80.536z" style="mix-blend-mode:multiply"/><path fill="url(#ad)" d="M29.021 869.46C9.642 858.269-.037 843.577.001 828.912l.084-16.578c-.042 14.673 9.637 29.36 29.018 40.552 38.518 22.238 100.763 22.238 139.016.01 19.01-11.052 28.524-25.51 28.567-39.99l-.081 16.576c-.042 14.48-9.555 28.937-28.567 39.986-38.257 22.232-100.497 22.232-139.017-.006z"/><path fill="#6dff6d" d="M29.103 852.885c-38.498-22.229-38.723-58.291-.466-80.523 38.269-22.235 100.524-22.229 139.027 0 38.52 22.238 38.718 58.294.455 80.532-38.254 22.23-100.498 22.23-139.016-.009z" class="colorffaf6d svgShape"/><path fill="#2bc82b" d="M62.653 832.989c-9.667-5.58-16.143-12.612-18.732-20.33-.506-1.511 1.207-2.976 3.826-3.268 2.617-.293 5.156.698 5.66 2.206 2.22 6.623 7.778 12.658 16.076 17.45 8.62 4.973 19.5 8.229 31.468 9.414 2.626.261 4.397 1.702 3.945 3.219-.45 1.517-2.947 2.539-5.576 2.277-13.95-1.378-26.627-5.17-36.667-10.968zm59.135-12.846a3.26 3.26 0 0 1-1.06-.923c-1.001-1.428.19-3.053 2.661-3.631 9.719-2.278 16.842-2.164 21.176.338 4.201 2.428 4.514 6.37.935 11.725-.962 1.438-3.758 2.152-6.245 1.598-2.494-.554-3.727-2.173-2.767-3.607 2.478-3.702 1.898-5.395 1.245-5.77-.692-.4-3.822-.73-10.711.883a7.583 7.583 0 0 1-5.234-.613zm-36.887-21.296c-1.33-.77-1.812-1.951-1.061-3.022 2.797-3.976 2.223-5.783 1.53-6.183-.65-.378-3.578-.71-9.995.717-2.487.554-5.29-.16-6.246-1.597-.962-1.434.275-3.05 2.765-3.604 9.274-2.068 16.108-1.886 20.309.539 4.333 2.502 4.533 6.617.59 12.227-1.003 1.425-3.82 2.114-6.293 1.535a5.928 5.928 0 0 1-1.599-.612z" class="colorc85a2b svgShape"/></g><g class="color000000 svgShape"><path style="mix-blend-mode:multiply" fill="url(#e)" d="M334.231 920.216h94.151v17.307h-94.151z"/><path style="mix-blend-mode:multiply" fill="url(#ae)" d="M291.323 895.248h94.142v17.301h-94.142z"/><path fill="url(#f)" d="M281.386 907.214c0-13.59 8.616-13.99 8.616-13.99s4.662 0 12.244-3.143c7.477-3.105 18.015-1.905 12.124 8.959a2.665 2.665 0 0 1-.2.401 5.31 5.31 0 0 1-1.908 1.677l-18.826 11.045c-2.873 1.632-11.986-2.151-12.05-4.949z"/><path fill="#103947" d="M281.44 905.995c.16 2.79 9.152 6.507 11.996 4.878l18.826-11.032a17.822 17.822 0 0 0 2.65-1.937c-.17.373-.322.732-.542 1.136a2.665 2.665 0 0 1-.2.401 5.31 5.31 0 0 1-1.908 1.677l-18.826 11.045c-2.686 1.532-10.853-1.693-11.93-4.412a3.024 3.024 0 0 1-.086-.55 8.336 8.336 0 0 1 .02-1.206z" class="color121047 svgShape"/><path fill="#fff" d="M284.89 891.44c2.22 0 10.026 1.984 10.026 1.984a4.334 4.334 0 0 0 .7 2.026c.078.081.147.17.22.264 1.538 1.07 3.106 2.762-.55 5.057a5.075 5.075 0 0 1-6.583-.466 5.954 5.954 0 0 0-2.124-2.413 5.322 5.322 0 0 0-2.033-.855 1.264 1.264 0 0 0-.018-.187s-.567-5.41.361-5.41z" class="colorffffff svgShape"/><path fill="#113a47" d="M284.748 758.52c8.514.157 29.787.54 38.293.687-3.165 25.584-9.542 48.82-13.795 73.602-4.57 24.078-9.719 41.005-14.213 61.041-1.646 3.73-9.173 2.32-10.697-1.27-1.19-18.458-2.563-40.939 2.909-62.236-.913-22.95-3.033-48.642-2.497-71.823z" class="color131147 svgShape"/><path fill="url(#af)" d="M324.3 932.19c0-13.592 8.611-13.987 8.611-13.987s4.664 0 12.246-3.143c7.473-3.107 18.014-1.907 12.127 8.954a4.3 4.3 0 0 1-.204.406 5.255 5.255 0 0 1-1.915 1.672l-18.818 11.045c-2.871 1.633-11.983-2.147-12.047-4.946z"/><path fill="#103947" d="M324.346 930.97c.163 2.787 9.157 6.508 12.001 4.877l18.818-11.03a17.85 17.85 0 0 0 2.658-1.938c-.178.374-.322.734-.539 1.135a4.3 4.3 0 0 1-.204.406 5.255 5.255 0 0 1-1.915 1.672l-18.818 11.045c-2.684 1.535-10.854-1.693-11.93-4.403a2.503 2.503 0 0 1-.083-.556 9.35 9.35 0 0 1 .012-1.208z" class="color121047 svgShape"/><path fill="#fff" d="M327.801 916.412c2.214 0 10.027 1.986 10.027 1.986a4.423 4.423 0 0 0 .693 2.026c.08.088.146.175.217.264 1.545 1.07 3.117 2.763-.545 5.059a5.075 5.075 0 0 1-6.58-.462 6.066 6.066 0 0 0-2.12-2.415 5.368 5.368 0 0 0-2.039-.857 1.365 1.365 0 0 0-.02-.183s-.563-5.418.367-5.418z" class="colorffffff svgShape"/><path fill="url(#ag)" d="M311.754 819.358c-2.326-10.997-29.162-12.361-27.402-55.608 8.421-1.24 50.902 18.688 59.319 17.449 1.052 25.752-1.434 49.726-1.594 74.858-.572 24.502-2.888 42.04-4.05 62.543-1.011 3.956-8.667 3.79-10.761.5-4.187-18.015-9.212-39.978-7.292-61.878-2.506-12.13-5.493-24.985-8.22-37.864z"/><path fill="#52aecc" d="M303.772 679.779c-29.966 20.022-33.54 59.795-17.338 85.025 0 0-3.48-55.916 17.338-85.025z" class="color5652cc svgShape"/><path fill="url(#ah)" d="M302.405 788.262c18.238 10.244 37.325 10.259 43.83-2.323-2.435-23.429-4.717-42.496-.018-64.954-1.382-12.4-2.362-14.264-.773-21.5-.562-2.428-8.029-7.603-13.46-12.57-5.873-5.354-9.838-10.456-12.865-11.071-24.943-5.094-37.06 39.349-34.971 86.737 1.925 12.6 9.275 20.648 18.257 25.681z"/><path fill="#a9fca9" d="M305.288 678.672c5.408-3.914 4.974-11.995 4.52-17.361a26.402 26.402 0 0 1-1.01-9.273c.797-11.82 9.024-21.532 18.206-20.271 18.51 2.527 14.54 12.097 13.742 23.922-.741 10.949-6.219 18.152-14.61 18.859-.122 1.803.613 7.273 2.881 9.547-6.089 3.642-14.974 1.926-18.49.345-3.736-1.697-7.776-3.145-5.24-5.768z" class="colorfcd1a9 svgShape"/><path fill="#195a6f" d="M334.398 625.99c-.44-1.48-3.266-2.445-12.882 1.255-.06.03-2.335.915-2.483.971-17.797 7.709-13.499 28.234-10.84 33.683a11.072 11.072 0 0 1 1.4 6.46c6.996-.288 9.212 3.65 13.692-.274 3.215-2.806 8.021-6.104 8.83-7.481a5.475 5.475 0 0 0 .655-3.395c.018-9.834 4.561-3.83 4.413-1.566 1.865-.91 1.74-4.863 1.616-9.26 15.11-11.27 6.998-19.049-4.4-20.392z" class="color20196f svgShape"/><path fill="#a9fca9" d="M344.068 794.604a6.164 6.164 0 0 1-9.034.3c-2.95-3.108-1.244-6.558-2.868-7.6-4.423-2.835-5.44-5.504-4.694-8.179 3.53 2.238 7.175 5.849 10.262 3.657 3.085-2.182 7.101-5.198 7.32-8.314 4.592 1.048 4.83 11.007 2.44 15.003a42.442 42.442 0 0 1-3.426 5.133z" class="colorfcd1a9 svgShape"/><path fill="url(#ai)" d="M337.858 786.777c-2.276 5.562-.677 8.984 4.902 9.61 13.924-7.13 22.022-27.125 22.255-38.106.402-18.316-8.493-41.312-19.792-59.35-2.622-3.875-11.091-2.404-15.258 3.1-5.643 7.438-3.23 18.268-.037 22.67 8.182 13.076 17.306 22.815 18.194 33.29.82 9.707-3.135 22.484-10.264 28.786z"/></g><g class="color000000 svgShape" data-name="Like symbol"><path fill="url(#aj)" d="M1251.903 868.56c-13.743-7.932-32.004-11.587-49.943-11.053h-20.028v4.61a74.423 74.423 0 0 0-14.878 6.444c-25.572 14.867-25.424 38.971.31 53.838a74.586 74.586 0 0 0 14.568 6.312v4.818h25.637c16.215-.273 32.298-3.956 44.64-11.125 25.577-14.872 25.446-38.976-.306-53.843z" style="mix-blend-mode:multiply"/><path fill="url(#ak)" d="M1138.395 922.399c-12.958-7.48-19.429-17.3-19.407-27.105l.066-13.797c-.028 9.815 6.438 19.63 19.39 27.12 25.762 14.857 67.368 14.857 92.945 0 12.707-7.387 19.063-17.049 19.1-26.728l-.06 13.782c-.026 9.684-6.388 19.34-19.089 26.733-25.582 14.873-67.194 14.873-92.945-.005z"/><path fill="#e9f6e9" d="M1138.444 908.618c-25.735-14.868-25.883-38.977-.306-53.839 25.588-14.866 67.205-14.866 92.946 0 25.75 14.862 25.882 38.971.305 53.839-25.577 14.856-67.183 14.856-92.945 0z" class="colore9edf6 svgShape"/><path fill="#5aff5a" d="M1195.855 869.286c-.545-1.926-2.106-3.775-4.675-5.264-6.536-3.77-17.132-3.77-23.668.005-3.268 1.888-4.904 4.36-4.9 6.83v23.324l40.39-.005a24.14 24.14 0 0 0 11.84-2.826c6.536-3.77 6.536-9.892 0-13.662a22.606 22.606 0 0 0-9.117-2.7l-8.838-.595z" class="colorff5a72 svgShape"/></g><g class="color000000 svgShape"><path style="mix-blend-mode:multiply" fill="url(#g)" d="M1065.838 1096.11h83.933v17.578h-83.933z"/><path style="mix-blend-mode:multiply" fill="url(#al)" d="M1021.829 1121.479h90.248v17.573h-90.248z"/><path fill="#a9fca9" d="M980.605 895.273c1.509-1.542 6.48-1.43 10.921.494-.305-1.275-.659-3.242-.008-3.44.967-.287 4.546 5.117 5.364 7.879l-.008-.005a14.006 14.006 0 0 0 2.946 4.332l-3.517 8.237s-6.114-2.727-7.909-5.599c-1.796-2.87-6.237-4.026-9.06-4.161-1.633-.079-.399-6.035 1.27-7.737z" class="colorfcd1a9 svgShape"/><path fill="#3e93af" d="M994.967 912.304s-2.89-5.525 5.158-8.077c17.585 7.501 35.628 3.617 48.878-12.815 5.478-7.037 13.687-2.491 7.97 8.059-9.536 17.6-33.724 30.22-62.006 12.833z" class="color423eaf svgShape"/><path fill="url(#am)" d="M937.895 954.582c-10.62-6.135-15.93-14.182-15.906-22.22l.047-11.678c-.02 8.044 5.28 16.091 15.901 22.228 21.114 12.184 55.22 12.184 76.188.006 10.419-6.063 15.635-13.979 15.66-21.918l-.049 11.672c-.02 7.935-5.236 15.853-15.652 21.914-20.969 12.19-55.081 12.19-76.19-.004z"/><path fill="#eff5ef" d="M937.937 942.912c-21.102-12.186-21.218-31.947-.252-44.13 20.972-12.188 55.092-12.188 76.193 0 21.114 12.183 21.213 31.944.247 44.136-20.968 12.178-55.074 12.178-76.188-.006z" class="coloreff1f5 svgShape"/><path fill="#bbe6bb" d="M996.579 922.139c4.633-2.676-.805-8.745 4.51-11.813l5.43-3.135c-5.348-3.088-18.69 2.018-20.761 5.832l-14.02-8.093a8.226 8.226 0 0 0-7.451 0c-2.056 1.185-2.06 3.113 0 4.302l.003-.002.022.014-.002.002-1.266-.73a8.222 8.222 0 0 0-7.45-.002c-2.057 1.187-2.06 3.115-.003 4.304l.884.547a8.282 8.282 0 0 0-7.092.168c-2.056 1.188-2.059 3.115 0 4.305l.003-.002 1.24.717a7.425 7.425 0 0 0-7.451 0c-2.317 1.338-2.32 2.966-.001 4.302l14.904 8.604c3.086 1.783 8.677 4.305 13.04 4.303l8.073.716 4.15 2.397 21.115-12.19-7.877-4.546z" class="colorbbc0e6 svgShape"/><path fill="url(#h)" d="M1075.956 1108.27c0-13.805-8.754-14.201-8.754-14.201s-4.86.494-12.665-2.44c-9.83-3.692-18.075-2.699-12.09 8.342a4.31 4.31 0 0 0 .21.41 5.412 5.412 0 0 0 1.934 1.697l19.124 11.214c2.912 1.669 12.173-2.182 12.24-5.022z"/><path fill="#113a47" d="M1075.903 1107.03c-.164 2.835-9.295 6.612-12.188 4.961l-19.124-11.213a17.59 17.59 0 0 1-2.697-1.963c.184.382.33.741.552 1.156a4.31 4.31 0 0 0 .21.41 5.412 5.412 0 0 0 1.935 1.697l19.124 11.214c2.723 1.562 11.024-1.716 12.118-4.476a2.748 2.748 0 0 0 .079-.555 8.71 8.71 0 0 0-.01-1.23z" class="color131147 svgShape"/><path fill="#a9fca9" d="M1072.397 1092.25a38.804 38.804 0 0 0-5.98 1.016c-1.88-.485-8.085-.708-12.146-1.906-1.208-.355-2.346-1.115-3.623-.145-1.606 1.972 2.571 6.793 11.188 10.51a5.156 5.156 0 0 0 6.688-.467 6.171 6.171 0 0 1 2.154-2.452 5.661 5.661 0 0 1 2.066-.873.753.753 0 0 1 .028-.186s.564-5.497-.375-5.497z" class="colorfcd1a9 svgShape"/><path fill="url(#an)" d="M1068.07 1001.494c3.844-11.773 3.082-22.85.23-36.517-8.641.156-33.007 3.355-41.704 1.961 5.328 28.135 17.508 39.813 21.833 64.979 4.644 24.46 10.155 42.42 14.722 62.781 1.67 3.79 9.81 2.08 9.81-.191 1.207-18.748.398-40.495-5.155-62.12.39-9.781-1.284-21.155.263-30.893z"/><path fill="url(#ao)" d="M1032.366 1133.64c0-13.807-8.75-14.203-8.75-14.203s-5.126.224-12.93-2.709c-9.83-3.692-17.814-2.429-11.83 8.612.059.13.134.266.213.41a5.364 5.364 0 0 0 1.937 1.697l19.123 11.214c2.912 1.67 12.172-2.182 12.237-5.022z"/><path fill="#113a47" d="M1032.32 1132.399c-.168 2.835-9.3 6.612-12.19 4.966l-19.124-11.218a17.943 17.943 0 0 1-2.698-1.963c.18.377.332.746.548 1.156.059.13.134.266.213.41a5.364 5.364 0 0 0 1.937 1.697l19.123 11.214c2.72 1.562 11.02-1.716 12.116-4.476a2.644 2.644 0 0 0 .084-.56 9.748 9.748 0 0 0-.01-1.226z" class="color131147 svgShape"/><path fill="#a9fca9" d="M1028.809 1117.619a38.832 38.832 0 0 0-5.98 1.016c-1.875-.49-8.083-.708-12.144-1.907-1.21-.354-2.347-1.114-3.623-.144-1.603 1.972 2.575 6.793 11.186 10.51a5.15 5.15 0 0 0 6.686-.467 6.205 6.205 0 0 1 2.159-2.453 5.53 5.53 0 0 1 2.065-.871.918.918 0 0 1 .023-.187s.567-5.497-.372-5.497z" class="colorfcd1a9 svgShape"/><path fill="url(#ap)" d="M1045.102 1019.027c7.364-29.59 16.523-23.875 20.736-52.557-8.55 1.33-37.654 14.05-46.21 12.793-5.012 31.845-3.973 51.511-3.814 77.044.578 24.893 2.208 41.92 3.39 62.743 1.028 4.02 10.143 3.707 10.143 1.292 4.255-18.296 7.649-40.61 5.695-62.851 2.548-12.323 7.29-25.385 10.06-38.464z"/><path fill="url(#i)" d="M1062.885 1008.077c-13.939 8.521-47.267 14.575-50.136 3.485-1.46-8.236 7.273-57.41 6.714-73.976-.122-3.611-5.737-4.211-6.293-7.91-1.212-8.08 1.602-30.111 2.925-32.553 2.816-5.197 9.913-8.326 15.785-8.858 8.042-.734 19.284-1.453 25.903 4.001 7.113 14.653 8.134 35.73 18.15 96.086-1.367 6.215-4.67 14.601-13.048 19.725z"/><path fill="#a9fca9" d="M1050.369 888.3c-5.214-4.332-4.554-9.213-3.376-14.555a26.733 26.733 0 0 0 2.28-9.195c.806-12.012-6.142-22.907-15.562-22.89-18.98.031-16.286 10.198-17.091 22.21-.747 11.128 3.788 19.12 12.138 20.978-.117 1.827-.853 3.482-3.294 4.93 5.922 4.108 16.864 4.262 20.967 3.052 4-1.18 6.33-1.695 3.938-4.53zm-80.384 62.969c-1.664.023-2.571-4.054-5.259-4.596-2.688-.538-8.362-1.86-8.364-.192 0 1.399 4.915 1.53 4.195 2.198-2.074 1.917-6.523-.478-7.504-2.33-.987-1.858-2.577-2.118-2.553-.309.023 1.807.457 9.938 6.816 12.239 6.355 2.298 13.995 1.79 13.995 1.79z" class="colorfcd1a9 svgShape"/><path fill="url(#aq)" d="M967.795 960.537s-4.33-5.441 2.772-10.01c12.683-1.162 23.208-9.662 29.253-14.037 4.08-5.21 9.989-28.84 16.723-40.111 6.364-8.27 16.925 2.796 11.96 14.497-4.23 9.97-13.917 28.85-19.728 35.614-5.047 5.876-22.625 13.627-40.98 14.047z"/><path fill="#195a6f" d="M1014.914 856.043c.78-6.949 7.923-17.997 20.224-15.826 10.56 1.864 12.994 8.424 15.255 18.105 5.58 23.894 17.115 31.663 34.144 49.947 26.57 28.528-23.71 58.71-42.643 32.027-6.28-8.85 9.44-24.152-15.42-47.98l.025-.036c-7.929-8.475-13.33-20.686-11.585-36.237z" class="color20196f svgShape"/></g><g class="color000000 svgShape" data-name="Bar graph"><path style="mix-blend-mode:multiply" fill="url(#j)" d="M909.983 981.633h-98.188l33.441 19.303-33.441 19.309h98.188l33.439-19.309-33.439-19.303z"/><path style="mix-blend-mode:multiply" fill="url(#ar)" d="M844.311 1016.172h-92.547l33.436 19.306-33.436 19.303h92.547l33.435-19.303-33.435-19.306z"/><path style="mix-blend-mode:multiply" fill="url(#as)" d="M774.248 1050.709h-82.521l33.439 19.304-33.439 19.306h82.521l33.434-19.306-33.434-19.304z"/><path fill="#cef4ce" d="M778.356 893.676l33.439 19.304v107.261l-33.439-19.306V893.676z" class="colorced2f4 svgShape"/><path fill="#bbe2bb" d="M845.229 893.676l-33.434 19.304v107.261l33.434-19.306V893.676z" class="colorbbbfe2 svgShape"/><path fill="#f5faf5" d="M811.795 874.372l-33.439 19.304 33.439 19.304 33.434-19.304-33.434-19.304z" class="colorf5f5fa svgShape"/><path fill="#52acca" d="M718.324 955.803l33.437 19.303v79.675l-33.437-19.306v-79.672z" class="color5652ca svgShape"/><path fill="#3e92ad" d="M785.2 955.994l-33.439 19.305v79.482l33.439-19.306v-79.481z" class="color423ead svgShape"/><path fill="#67c7e7" d="M751.761 936.882l-33.437 19.304 33.437 19.305 33.439-19.305-33.439-19.304z" class="color6b67e7 svgShape"/><path fill="#3ce33c" d="M658.292 1023.136l33.435 19.305v46.878l-33.435-19.306v-46.877z" class="colore33c5c svgShape"/><path fill="#24ba24" d="M725.166 1023.136l-33.439 19.305v46.878l33.439-19.306v-46.877z" class="colorba2447 svgShape"/><path fill="#5aff5a" d="M691.727 1003.83l-33.435 19.306 33.435 19.305 33.439-19.305-33.439-19.306z" class="colorff5a72 svgShape"/></g><g class="color000000 svgShape" data-name="Area charts"><path fill="#d1f3d1" d="M673.866 989.983l3.361-1.941-17.32-10-3.361 1.941 17.32 10zm15.722-9.078l3.362-1.94-17.321-10-3.361 1.94 17.32 10zM375.143 1162.45l3.362-1.941-17.321-10-3.361 1.941 17.32 10zm15.723-9.077l3.361-1.941-17.32-10-3.362 1.941 17.321 10zm15.722-9.078l3.361-1.94-17.32-10-3.362 1.94 17.321 10zm15.722-9.077l3.362-1.941-17.321-10-3.361 1.941 17.32 10zm15.722-9.077l3.362-1.941-17.321-10-3.361 1.941 17.32 10zm15.723-9.077l3.361-1.941-17.32-10-3.362 1.941 17.321 10zm15.722-9.078l3.361-1.94-17.32-10-3.362 1.941 17.321 9.999zm15.722-9.077l3.361-1.94-17.32-10-3.361 1.94 17.32 10zm15.722-9.077l3.362-1.941-17.321-10-3.361 1.941 17.32 10zm15.722-9.077l3.362-1.941-17.32-10-3.362 1.941 17.32 10zm15.723-9.077l3.361-1.941-17.32-10-3.362 1.941 17.321 10zm15.722-9.078l3.361-1.94-17.32-10-3.361 1.94 17.32 10zm15.722-9.077l3.362-1.941-17.321-10-3.361 1.941 17.32 10zm15.722-9.077l3.362-1.941-17.32-10-3.362 1.941 17.32 10zm15.723-9.077l3.361-1.941-17.32-10-3.362 1.941 17.321 10zm15.722-9.078l3.361-1.94-17.32-10-3.361 1.94 17.32 10zm15.722-9.077l3.362-1.941-17.321-9.999-3.361 1.94 17.32 10zm15.722-9.077l3.362-1.941-17.32-10-3.362 1.941 17.32 10zm15.723-9.077l3.361-1.941-17.32-10-3.362 1.941 17.321 10z" class="colord1d7f3 svgShape"/><path fill="url(#at)" d="M346.47 1031.339c22.763-14.572 30.963-54.862 57.624-66.731 24.797-11.04 32.256 15.691 50.597 5.102 37.803-21.827 37.07-116.323 101.497-145.69 10.091-4.599 21.902-1.854 32.34 3.733-11.329-7.062-24.93-11.236-36.334-6.037-64.424 29.367-63.69 123.862-101.497 145.688-18.34 10.59-25.8-16.142-50.597-5.102-26.66 11.87-34.86 52.161-57.625 66.731-12.104 7.748-25.31 7.934-34.586 3.63 9.16 6.493 24.604 7.621 38.581-1.324z"/><path fill="#7fd7f4" d="M305.512 1124.31L615.21 945.505v-92.099c-4.652-12.727-36.232-39.774-59.022-29.386-64.427 29.367-63.694 123.863-101.497 145.69-18.341 10.589-25.8-16.142-50.597-5.102-26.661 11.869-34.86 52.16-57.626 66.731-15.258 9.765-32.288 7.545-40.956-.58z" class="color7f7ff4 svgShape"/><path fill="url(#au)" d="M305.512 1124.31l309.7-178.805H774.73c22.045 2.686 68.894 20.92 50.898 34.077-50.865 37.197-214.537 36.774-252.34 58.6-18.341 10.59 27.957 14.895 8.835 29.213-20.555 15.392-90.342 20.125-115.58 33.269-16.917 8.809-13.068 18.642 1.002 23.646z" style="mix-blend-mode:multiply" opacity=".8"/><path fill="#4190aa" d="M301.518 1122.005l3.994 2.305v-93.55l-3.994-2.306v93.551z" class="color4141aa svgShape"/><path fill="#6dff6d" d="M346.305 1139.343l309.698-178.804V830.436c-7.01 13.75-16.574 37.657-35.333 48.485-30.655 17.7-44.454-40.28-76.943-19.792-39.767 25.072-29.453 104.687-86.108 136.037-24.68 13.657-55.247-67.112-78.655-53.597-22.54 13.014-32.658 58.618-32.658 101.349z" class="colorffaf6d svgShape" opacity=".8"/><path fill="url(#av)" d="M346.305 1139.343l309.698-178.804h225.344c-23.813 4.049-65.222 9.571-83.979 20.4-30.654 17.699 69.767 25.666 34.283 44.422-43.426 22.96-181.323 17.006-235.623 49.715-23.656 14.248 116.24 31.896 92.832 45.41-22.54 13.013-101.53 18.857-175.542 18.857z" style="mix-blend-mode:multiply" opacity=".8"/><path fill="url(#aw)" d="M620.67 878.921c18.759-10.828 28.322-34.736 35.333-48.485l-3.993-2.306c-7.011 13.748-16.575 37.657-35.334 48.487-8.325 4.806-15.403 4.022-21.957.753 7.677 5.025 15.91 7.349 25.95 1.551z"/><path fill="url(#ax)" d="M457.618 995.166c56.655-31.35 46.341-110.965 86.11-136.037 9.958-6.281 18.163-5.181 25.634-1.154v-.005l-2.124-1.227q-.863-.528-1.74-1.004l-.127-.075-.002.007c-7.472-4.029-15.674-5.13-25.636 1.152-39.765 25.073-29.453 104.688-86.106 136.038-4.04 2.236-8.242 1.935-12.538-.062 5.695 3.878 11.247 5.29 16.53 2.367z"/><path fill="url(#ay)" d="M346.305 1042.918c0-42.73 10.12-88.335 32.66-101.35 4.333-2.502 8.912-1.766 13.654.998v-.004l-3.994-2.307v.004c-4.742-2.763-9.32-3.497-13.652-.996-22.54 13.013-32.664 58.618-32.664 101.35v96.426l3.996 2.304z"/></g></g></svg>