<svg xmlns="http://www.w3.org/2000/svg" enable-background="new 0 0 512 512" viewBox="0 0 512 512" id="cultivation"><path d="M355.132,400.028l13.564-29.475c0.887-1.928,0.972-4.128,0.236-6.119c-0.736-1.99-2.232-3.606-4.159-4.494l-29.07-13.377
		l11.625-25.261c2.255-4.899,2.467-10.384,0.597-15.443c-0.322-0.87-0.717-1.697-1.145-2.502L418.733,147l0.236,0.108
		c5.366,2.469,11.002,3.637,16.554,3.637c15.047,0,29.47-8.584,36.161-23.125l22.661-49.242c4.161-9.043,0.189-19.786-8.854-23.948
		c0,0,0,0,0,0l-83.478-38.415c-9.042-4.161-19.786-0.189-23.948,8.854l-22.66,49.242c-9.16,19.906-0.418,43.553,19.487,52.714
		l0.236,0.109l-71.959,156.37c-5.948,1.326-11.241,5.292-13.981,11.243l-11.624,25.262l-29.069-13.377
		c-4.017-1.847-8.766-0.091-10.612,3.923l-13.564,29.475c-9.616,20.897-13.216,44.011-10.41,66.842
		c0.058,0.471,0.127,0.94,0.191,1.41c-7.42,0.585-13.902,4.554-17.894,10.366C186.944,416.848,177.514,416,168,416v-54.244
		c0-38.77,14.706-75.737,40.821-103.78c5.798,1.762,15.26,3.968,26.309,3.968c12.2,0,26.335-2.692,39.589-11.642
		c31.417-21.217,44.474-69.356,45.015-71.395c0.592-2.233,0.189-4.613-1.104-6.527c-1.293-1.915-3.351-3.177-5.643-3.462
		c-2.091-0.259-51.623-6.131-83.042,15.085c-28.368,19.158-31.636,52.752-31.984,62.184C185.625,259.24,175.54,274.072,168,290.097
		v-54.019c9.133-7.071,32-27.978,32-60.078c0-37.911-32.586-75.672-33.974-77.261C164.507,96.999,162.31,96,160,96
		s-4.507,0.999-6.026,2.739C152.586,100.328,120,138.089,120,176c0,32.1,22.867,53.007,32,60.078v73.734
		c-3.941-8.047-8.608-15.681-13.937-22.823c-0.194-8.145-2.764-43.236-32.009-62.986c-31.418-21.217-80.948-15.345-83.042-15.085
		c-2.292,0.285-4.35,1.547-5.643,3.462c-1.293,1.914-1.695,4.294-1.104,6.527c0.541,2.039,13.598,50.178,45.015,71.395
		c13.256,8.951,27.388,11.642,39.589,11.642c10.574,0,19.696-2.021,25.543-3.739c6.647,9.208,12.102,19.286,16.142,30.057
		l9.635,25.694c-0.12,2.592-0.19,5.192-0.19,7.8V416c-3.104,0-6.198,0.099-9.281,0.28C139.497,406.824,130.533,400,120,400
		c-4.254,0-8.387,1.137-12,3.229c-3.613-2.093-7.746-3.229-12-3.229c-10.812,0-19.976,7.185-22.969,17.031
		C63.186,420.024,56,429.188,56,440c0,1.983,0.246,3.909,0.702,5.753C41.862,455.95,28.594,468.541,17.6,483.2
		c-1.817,2.424-2.11,5.667-0.755,8.377S20.97,496,24,496h272c3.03,0,5.8-1.712,7.155-4.422s1.062-5.954-0.755-8.377
		c-5.084-6.778-10.675-13.083-16.679-18.919c8.896-3.279,17.43-7.568,25.414-12.867
		C330.302,438.694,345.516,420.925,355.132,400.028z M70.236,277.042c-18.908-12.769-30.419-38.935-35.476-52.926
		c14.859-0.55,43.376,0.341,62.339,13.147c19.062,12.874,23.581,35.302,24.649,45.605C111.78,285.73,89.292,289.912,70.236,277.042z
		 M238.9,197.263c18.902-12.766,47.455-13.668,62.334-13.136c-5.06,13.998-16.568,40.15-35.471,52.915
		c-19.062,12.87-41.557,8.686-51.512,5.828C215.322,232.553,219.844,210.132,238.9,197.263z M136,176
		c0-22.81,15.233-46.986,24-59.009c8.769,12.026,24,36.201,24,59.009c0,23-16.058,39.298-23.999,45.951
		C152.05,215.29,136,198.995,136,176z M369.94,80.799l22.66-49.242c0.346-0.752,1.092-1.195,1.869-1.195
		c0.287,0,0.578,0.06,0.855,0.188l83.477,38.415c1.029,0.474,1.481,1.696,1.008,2.725l-22.661,49.242
		c-5.472,11.892-19.602,17.112-31.49,11.642l-44.076-20.283C369.69,106.818,364.468,92.691,369.94,80.799z M404.198,140.311
		l-70.231,152.615l-14.534-6.688l70.231-152.615L404.198,140.311z M216,424c2.317,0,4.446,0.969,5.996,2.728
		c1.519,1.725,3.705,2.713,6.003,2.713c0.001,0,0.001,0,0.001,0c2.298,0,4.484-0.988,6.003-2.712c1.551-1.76,3.68-2.729,5.997-2.729
		c4.411,0,8,3.589,8,8c0,4.418,3.582,8,8,8c4.411,0,8,3.589,8,8s-3.589,8-8,8s-8-3.589-8-8c0-4.418-3.582-8-8-8
		c-2.317,0-4.446-0.969-5.996-2.728c-1.519-1.725-3.705-2.713-6.003-2.713c-0.001,0-0.001,0-0.001,0
		c-2.298,0-4.484,0.988-6.003,2.712c-1.551,1.76-3.68,2.729-5.997,2.729c-4.411,0-8-3.589-8-8S211.589,424,216,424z M80,432
		c4.418,0,8-3.582,8-8c0-4.411,3.589-8,8-8c2.317,0,4.446,0.969,5.996,2.728c1.519,1.725,3.706,2.713,6.004,2.713
		s4.485-0.988,6.004-2.713c1.55-1.759,3.679-2.728,5.996-2.728c4.411,0,8,3.589,8,8s-3.589,8-8,8c-2.317,0-4.446-0.969-5.996-2.728
		c-1.519-1.725-3.706-2.713-6.004-2.713s-4.485,0.988-6.004,2.713C100.446,431.031,98.317,432,96,432c-4.418,0-8,3.582-8,8
		c0,4.411-3.589,8-8,8s-8-3.589-8-8S75.589,432,80,432z M41.167,480c7.378-7.841,15.554-14.826,24.338-20.887
		C69.536,462.177,74.558,464,80,464c10.814,0,19.981-7.189,22.972-17.041c1.753-0.535,3.441-1.27,5.028-2.189
		c3.613,2.093,7.746,3.229,12,3.229c10.312,0,19.125-6.538,22.514-15.686C145.663,432.11,148.826,432,152,432h16
		c8.117,0,16.168,0.68,24.087,1.969C193.093,446.284,203.43,456,216,456c4.253,0,8.386-1.137,12-3.229
		c1.587,0.919,3.274,1.654,5.028,2.189C236.019,464.811,245.186,472,256,472c4.111,0,7.983-1.04,11.37-2.87
		c3.997,3.413,7.84,7.019,11.463,10.87H41.167z M279.96,449.348c0.025-0.446,0.04-0.895,0.04-1.348
		c0-10.812-7.186-19.976-17.031-22.969C259.976,415.185,250.812,408,240,408c-3.278,0-6.482,0.682-9.435,1.95
		c-0.301-1.734-0.561-3.477-0.776-5.229c-2.443-19.88,0.691-40.006,9.064-58.202l10.22-22.208l29.069,13.377
		c1.929,0.887,4.129,0.972,6.119,0.236c1.99-0.735,3.606-2.232,4.493-4.159l14.969-32.528c0.966-2.1,3.459-3.024,5.56-2.056
		l21.455,9.873c1.017,0.468,1.791,1.304,2.179,2.354c0.389,1.05,0.345,2.188-0.124,3.206l-14.969,32.529
		c-1.847,4.014-0.091,8.765,3.923,10.612l29.069,13.377l-10.22,22.208c-8.373,18.196-21.62,33.668-38.309,44.744
		C295.279,442.735,287.777,446.483,279.96,449.348z"></path><path d="M384.583 87.252l58.14 26.755c1.06.487 2.201.732 3.345.732.938 0 1.878-.165 2.774-.497 1.99-.735 3.606-2.232 4.493-4.159l13.377-29.07c1.847-4.014.091-8.765-3.923-10.612L404.65 43.647c-4.017-1.847-8.766-.091-10.612 3.923l-13.378 29.07c-.887 1.927-.972 4.128-.236 6.118C381.16 84.749 382.656 86.365 384.583 87.252zM405.229 61.527l43.604 20.066-6.688 14.535L398.54 76.062 405.229 61.527zM48 152c17.645 0 32-14.355 32-32 0-15.531-21.696-40.496-26.046-45.343C52.437 72.966 50.271 72 48 72s-4.437.966-5.954 2.657c-.257.286-6.359 7.107-12.541 15.702C20.418 102.995 16 112.691 16 120 16 137.645 30.355 152 48 152zM48 92.349C58.021 104.801 64 115.875 64 120c0 8.822-7.178 16-16 16s-16-7.178-16-16C32 115.875 37.98 104.8 48 92.349zM272 152c17.645 0 32-14.355 32-32 0-15.531-21.696-40.496-26.046-45.343C276.437 72.966 274.271 72 272 72s-4.437.966-5.954 2.657c-.257.286-6.359 7.107-12.541 15.702C244.418 102.995 240 112.691 240 120 240 137.645 254.355 152 272 152zM272 92.349c10.021 12.452 16 23.525 16 27.651 0 8.822-7.178 16-16 16s-16-7.178-16-16C256 115.875 261.98 104.8 272 92.349zM160 80c13.233 0 24-10.766 24-24 0-10.227-12.181-28.965-17.418-36.547C165.089 17.291 162.628 16 160 16s-5.089 1.291-6.582 3.453C148.181 27.035 136 45.773 136 56 136 69.234 146.767 80 160 80zM160 38.83c4.605 7.76 7.932 14.728 8 17.176-.004 4.408-3.591 7.994-8 7.994-4.411 0-8-3.589-8-7.991C152.065 53.564 155.393 46.594 160 38.83zM495.799 486.217l-2.759-12.07C486.398 445.09 457.362 424 424 424c-19.093 0-36.76 6.916-49.633 18.271C369.814 440.797 364.982 440 360 440c-22.343 0-41.739 15.901-46.12 37.809l-1.725 8.622c-.47 2.351.139 4.788 1.658 6.641S317.604 496 320 496h168c2.435 0 4.737-1.109 6.256-3.013C495.773 491.083 496.342 488.591 495.799 486.217zM354.96 474.147L353.622 480h-23.848c3.249-13.964 15.808-24 30.226-24 .843 0 1.677.047 2.505.115C359.019 461.638 356.435 467.695 354.96 474.147zM370.035 480l.522-2.287C375.553 455.86 398.028 440 424 440s48.447 15.86 53.442 37.713l.522 2.287H370.035z"></path></svg>