<svg xmlns="http://www.w3.org/2000/svg" enable-background="new 0 0 64 64" viewBox="0 0 64 64" id="bacteria"><g><path d="M63.36,33.16c-0.48-0.63-1.17-1.02-1.95-1.13c-0.14-0.02-0.27-0.03-0.4-0.03c-0.65,0-1.25,0.21-1.77,0.6
		c-0.51,0.39-0.87,0.93-1.04,1.56l-2.74-0.82c0.02-0.42,0.03-0.8,0.03-1.12c0-2.23-0.33-4.48-0.97-6.69l2.19-1.09
		c0.56,0.76,1.43,1.2,2.37,1.2c0.38,0,0.75-0.07,1.09-0.21c1.5-0.62,2.24-2.34,1.63-3.84l-1.54-3.82c-0.3-0.73-0.85-1.29-1.58-1.6
		c-0.37-0.15-0.75-0.23-1.13-0.23s-0.76,0.07-1.11,0.22c-0.73,0.29-1.3,0.84-1.6,1.56c-0.26,0.59-0.3,1.25-0.14,1.88l-2.51,0.58
		c-1.19-2-2.67-3.82-4.41-5.4l1.1-1.71c0.4,0.18,0.82,0.27,1.25,0.27c0.96,0,1.85-0.43,2.43-1.19c0.51-0.65,0.73-1.46,0.62-2.28
		c-0.1-0.82-0.52-1.55-1.17-2.06l-3.46-2.66c-0.55-0.42-1.19-0.64-1.87-0.64c-0.97,0-1.87,0.44-2.45,1.2
		C43.26,6.96,43.4,8.7,44.5,9.78l-1.67,1.57C40.47,10.1,37.9,9.27,35.2,8.9l-0.27-3.4c1.21-0.33,2.08-1.43,2.08-2.69
		c0-1.55-1.26-2.81-2.81-2.81h-3.86c-1.54,0-2.79,1.26-2.79,2.81c0,1.37,1.02,2.54,2.39,2.74L29.41,8.8
		c-4.64,0.49-9,2.35-12.62,5.39l-2.7-2.08c0.57-1.11,0.32-2.49-0.62-3.34c-0.52-0.47-1.18-0.73-1.88-0.73
		c-0.8,0-1.56,0.34-2.09,0.93l-2.58,2.86c-0.5,0.56-0.76,1.28-0.72,2.03c0.05,0.75,0.38,1.43,0.93,1.93
		c0.52,0.47,1.18,0.73,1.87,0.73l0.14-0.01c0.61-0.03,1.16-0.25,1.63-0.64l2.07,2.54c-1.2,1.66-2.18,3.46-2.9,5.36l-3.51-0.46
		c-0.03-0.49-0.18-0.96-0.45-1.37c-0.41-0.63-1.03-1.06-1.76-1.21c-0.2-0.04-0.39-0.07-0.59-0.07c-1.32,0-2.47,0.94-2.75,2.23
		l-0.8,3.78c-0.16,0.74-0.02,1.48,0.39,2.11c0.41,0.63,1.04,1.05,1.78,1.21c0.19,0.04,0.39,0.06,0.58,0.06
		c1.16,0,2.21-0.74,2.61-1.82l3.11,1.19c-0.12,0.96-0.18,1.9-0.18,2.78c0,4.74,1.4,9.3,4.05,13.2l-2.37,2.57
		c-0.53-0.35-1.15-0.55-1.79-0.55c-0.81,0-1.59,0.31-2.18,0.85c-1.3,1.21-1.37,3.26-0.16,4.56l3.15,3.37
		c0.6,0.65,1.45,1.01,2.34,1.01c0.82,0,1.6-0.31,2.21-0.86c1.2-1.13,1.35-2.96,0.37-4.26l2.78-1.88c4.24,3.58,9.62,5.55,15.16,5.55
		c0.56,0,1.07-0.02,1.57-0.05l1.01,2.76c-0.47,0.26-0.84,0.65-1.1,1.1c-0.39,0.69-0.49,1.48-0.28,2.25c0.21,0.76,0.71,1.39,1.4,1.78
		C34.99,63.87,35.5,64,36,64c0.27,0,0.54-0.04,0.8-0.11l3.99-1.11c0.76-0.21,1.39-0.71,1.78-1.4c0.38-0.69,0.48-1.48,0.26-2.25
		c-0.35-1.26-1.51-2.15-2.83-2.15c-0.14,0-0.28,0.01-0.42,0.03l-0.28-2.42c3.47-1.13,6.67-3.11,9.29-5.72l2.21,1.41
		c-0.17,0.43-0.23,0.88-0.16,1.34c0.09,0.71,0.46,1.33,1.03,1.77c0.47,0.36,1.02,0.54,1.61,0.54c0.13,0,0.25,0,0.38-0.02
		c0.71-0.1,1.34-0.47,1.77-1.04l2.2-2.9c0.43-0.57,0.61-1.27,0.51-1.99c-0.1-0.71-0.47-1.33-1.04-1.77
		c-0.46-0.35-1.01-0.54-1.59-0.54c-0.7,0-1.36,0.27-1.86,0.75l-1.7-1.77c1.06-1.73,1.9-3.57,2.48-5.47l3.12,0.18
		c0.06,0.52,0.26,1.01,0.58,1.43c0.48,0.64,1.16,1.03,1.94,1.14c0.14,0.02,0.27,0.02,0.41,0.02c1.46,0,2.71-1.09,2.91-2.54
		l0.56-4.07C64.05,34.55,63.84,33.79,63.36,33.16z M24.15,49.33l-0.08-0.01c-2.41-0.26-3.01-2.4-3.04-2.48
		c-0.05-0.18-0.02-0.37,0.07-0.53c0.09-0.16,0.24-0.27,0.42-0.32c0.06-0.02,0.12-0.03,0.18-0.03c0.31,0,0.58,0.21,0.67,0.51
		c0.01,0.05,0.4,1.33,1.86,1.49c0.19,0.02,0.35,0.11,0.47,0.25c0.11,0.14,0.17,0.33,0.15,0.51C24.79,49.06,24.49,49.33,24.15,49.33z
		 M22.03,42.82c0.49-0.51,0.68-1.13,0.68-1.16c0.57-1.31,1.57-1.45,1.98-1.45c0.15,0,0.31,0.02,0.45,0.06
		c0.36,0.1,0.58,0.48,0.48,0.84c-0.08,0.3-0.35,0.51-0.67,0.51c-0.05,0-0.11-0.01-0.17-0.02c-0.02,0-0.06-0.01-0.11-0.01
		c-0.2,0-0.47,0.09-0.66,0.53H24c-0.07,0.35-0.46,1.12-0.99,1.67c-0.13,0.13-0.3,0.2-0.49,0.2c-0.18,0-0.36-0.07-0.49-0.19
		C21.76,43.53,21.76,43.09,22.03,42.82z M25.99,47.86l-0.07-0.01c-1.45-0.13-1.72-1.62-1.65-2.39c0.02-0.36,0.32-0.64,0.68-0.64
		c0.44,0.04,0.72,0.37,0.7,0.75c0,0.01-0.06,0.86,0.42,0.91c0.18,0.01,0.34,0.1,0.46,0.24c0.12,0.15,0.18,0.33,0.16,0.51
		C26.63,47.59,26.34,47.86,25.99,47.86z M28.1,39.68c0.16,0.35,0,0.76-0.35,0.9c-0.09,0.04-0.19,0.06-0.28,0.06
		c-0.28,0-0.52-0.16-0.64-0.41c-1-2.29-0.01-3.29,0.11-3.4c0.12-0.11,0.29-0.18,0.46-0.18c0.2,0,0.38,0.08,0.52,0.23
		c0.12,0.13,0.18,0.29,0.18,0.46c0,0.18-0.07,0.36-0.21,0.5C27.89,37.84,27.52,38.35,28.1,39.68z M31.64,43.04l-0.66,0.64
		c-0.37,0.37-0.86,0.57-1.38,0.57h-0.74c-0.15,0-0.29,0.06-0.4,0.16l-0.85,0.79c-0.13,0.11-0.3,0.18-0.47,0.18
		c-0.2,0-0.38-0.08-0.51-0.23c-0.26-0.28-0.24-0.72,0.04-0.97l0.86-0.79c0.36-0.33,0.83-0.52,1.32-0.52h0.74
		c0.16,0,0.31-0.06,0.42-0.17l0.66-0.64c0.13-0.13,0.3-0.2,0.48-0.2c0.19,0,0.36,0.08,0.49,0.21c0.13,0.13,0.2,0.31,0.2,0.49
		C31.84,42.74,31.77,42.91,31.64,43.04z M34.16,38.71c-0.12,0.23-0.36,0.37-0.62,0.37c-0.11,0-0.22-0.03-0.32-0.08
		c-0.34-0.18-0.64-0.27-0.9-0.27c-0.12,0-0.24,0.02-0.35,0.05c-0.48,0.16-0.93,0.69-1.35,1.56c-0.12,0.24-0.36,0.4-0.63,0.4
		c-0.1,0-0.2-0.03-0.3-0.07c-0.34-0.17-0.49-0.58-0.32-0.91c0.6-1.25,1.3-2,2.17-2.28c0.25-0.08,0.51-0.13,0.78-0.13
		c0.5,0,1.01,0.15,1.55,0.43c0.16,0.09,0.28,0.24,0.34,0.41C34.26,38.36,34.24,38.55,34.16,38.71z M35.2,22.97
		c-0.13,1.26-0.6,2.47-1.36,3.52l1.04,1.04c0.13,0.13,0.21,0.3,0.21,0.49c0,0.18-0.08,0.36-0.21,0.49c-0.13,0.13-0.3,0.2-0.49,0.2
		c-0.18,0-0.36-0.07-0.49-0.2l-0.97-0.98c-0.75,0.7-1.64,1.24-2.6,1.6l0.66,1.31c0.08,0.17,0.09,0.35,0.03,0.53
		c-0.06,0.17-0.18,0.32-0.35,0.4c-0.09,0.05-0.2,0.07-0.3,0.07c-0.27,0-0.51-0.15-0.62-0.38l-0.79-1.57
		c-0.42,0.07-0.83,0.11-1.24,0.11l-0.71,0.13c-0.84,0.15-1.57,0.69-1.96,1.45l-0.16,0.33l1.7,1.03c0.15,0.1,0.26,0.25,0.31,0.43
		c0.04,0.18,0.01,0.37-0.09,0.53c-0.12,0.2-0.34,0.33-0.59,0.33c-0.12,0-0.25-0.04-0.36-0.11l-1.59-0.97l-0.3,0.6
		c-0.39,0.77-0.92,1.42-1.56,1.91l1.18,1.6c0.11,0.15,0.15,0.33,0.12,0.51c-0.02,0.18-0.12,0.35-0.27,0.45
		c-0.12,0.09-0.26,0.14-0.41,0.14c-0.22,0-0.43-0.11-0.56-0.28l-1.28-1.75c-0.61,0.23-1.24,0.34-1.88,0.34c-0.13,0-0.26,0-0.39-0.01
		l-0.3,2.03c-0.05,0.34-0.34,0.59-0.68,0.59h-0.1c-0.18-0.03-0.35-0.13-0.46-0.28c-0.11-0.14-0.15-0.33-0.13-0.51l0.31-2.09
		c-1.01-0.32-1.92-0.89-2.63-1.67l-1.58,0.83c-0.1,0.06-0.21,0.08-0.32,0.08c-0.26,0-0.49-0.14-0.61-0.36
		c-0.18-0.34-0.06-0.76,0.28-0.93l1.44-0.77c-0.51-0.98-0.68-2.13-0.51-3.26l-1.6-0.23c-0.38-0.05-0.64-0.4-0.59-0.78
		c0.05-0.34,0.34-0.6,0.68-0.6l1.89,0.27c0.02-0.06,0.05-0.12,0.07-0.18c0.41-0.88,0.86-1.79,1.37-2.68l-1.69-1.07
		c-0.16-0.1-0.26-0.25-0.31-0.43c-0.04-0.18,0-0.37,0.1-0.52c0.12-0.2,0.34-0.32,0.58-0.32c0.13,0,0.26,0.03,0.37,0.1l1.64,1.04
		c0.64-1.05,1.3-2.05,1.98-2.95l-1.43-1.14c-0.3-0.23-0.35-0.67-0.11-0.96c0.13-0.17,0.33-0.26,0.54-0.26
		c0.16,0,0.31,0.05,0.43,0.15l1.43,1.14c0.8-0.97,1.61-1.83,2.42-2.54l-1.03-1.27c-0.25-0.29-0.2-0.73,0.09-0.96
		c0.13-0.1,0.28-0.16,0.44-0.16c0.21,0,0.41,0.1,0.54,0.26l1.03,1.26c1.08-0.81,2.18-1.41,3.25-1.77l-0.52-1.5
		c-0.13-0.37,0.07-0.76,0.43-0.87c0.07-0.03,0.15-0.04,0.22-0.04c0.3,0,0.56,0.19,0.66,0.47l0.57,1.64
		c0.29-0.03,0.58-0.05,0.87-0.05c0.64,0,1.26,0.09,1.86,0.26c0.02,0.01,0.04,0.01,0.06,0.02l0.37-1.44c0.08-0.3,0.35-0.52,0.67-0.52
		c0.06,0,0.12,0.01,0.17,0.03c0.18,0.04,0.33,0.16,0.43,0.32c0.09,0.16,0.12,0.34,0.07,0.52l-0.42,1.61
		c0.89,0.46,1.71,1.1,2.36,1.88l1.07-1.07c0.13-0.13,0.3-0.21,0.49-0.21c0.18,0,0.36,0.08,0.49,0.21c0.27,0.27,0.27,0.71,0,0.97
		l-1.26,1.25c0.49,0.87,0.78,1.82,0.87,2.82l1.6,0.1c0.19,0.01,0.36,0.09,0.48,0.23c0.12,0.14,0.18,0.32,0.17,0.5
		c-0.02,0.37-0.32,0.65-0.69,0.65L35.2,22.97z M50.42,38.06h-0.95c-0.11,0.93-0.44,1.84-0.97,2.61l0.7,0.62
		c0.28,0.26,0.31,0.7,0.05,0.97c-0.13,0.15-0.32,0.23-0.51,0.23c-0.17,0-0.34-0.06-0.46-0.17l-0.69-0.61
		c-0.87,0.79-1.99,1.28-3.16,1.42v0.9c0,0.38-0.31,0.69-0.69,0.69c-0.38,0-0.69-0.31-0.69-0.69v-0.89
		c-1.09-0.13-2.11-0.56-2.95-1.25l-0.66,0.63c-0.13,0.13-0.3,0.2-0.48,0.2c-0.19,0-0.37-0.07-0.5-0.21c-0.13-0.13-0.2-0.3-0.2-0.49
		c0.01-0.18,0.08-0.36,0.21-0.49l0.68-0.65c-0.63-0.83-1.02-1.8-1.13-2.83h-0.96c-0.38,0-0.69-0.31-0.69-0.69
		c0-0.39,0.31-0.7,0.69-0.7h0.96c0.13-0.93,0.47-1.82,1-2.58l-0.73-0.65c-0.29-0.26-0.31-0.7-0.06-0.97
		c0.13-0.15,0.32-0.23,0.52-0.23c0.17,0,0.33,0.06,0.46,0.17l0.72,0.65c0.87-0.77,1.98-1.25,3.12-1.39V30.7
		c0-0.38,0.31-0.69,0.69-0.69c0.38,0,0.69,0.31,0.69,0.69v0.99c1.07,0.13,2.07,0.55,2.9,1.21l0.71-0.69c0.13-0.13,0.3-0.2,0.48-0.2
		c0.19,0,0.37,0.08,0.5,0.21c0.13,0.13,0.2,0.31,0.2,0.49C49.2,32.9,49.13,33.07,49,33.2l-0.71,0.69c0.64,0.81,1.03,1.78,1.16,2.79
		h0.96c0.38,0,0.69,0.31,0.69,0.7C51.11,37.75,50.8,38.06,50.42,38.06z"></path><path d="M29.45,16.52c-0.48-0.14-0.97-0.21-1.48-0.21c-0.56,0-1.1,0.09-1.63,0.24c-4.23,1.28-7.67,6.37-9.35,9.28
		c-0.6,1.03-1.14,2.09-1.62,3.13c-0.69,1.5-0.48,3.2,0.55,4.34c0.88,0.99,2.13,1.56,3.41,1.56c0.6,0,1.16-0.12,1.69-0.37
		c0.71-0.33,1.32-0.96,1.74-1.79l1.07-2.16c0.58-1.15,1.68-1.97,2.95-2.2l0.8-0.14l0.11-0.01c3.41,0,6.18-2.67,6.18-5.96
		C33.87,19.62,32.05,17.26,29.45,16.52z M19.11,33.25c-1.46,0-2.65-1.19-2.65-2.65c0-1.45,1.19-2.64,2.65-2.64
		c1.45,0,2.64,1.19,2.64,2.64C21.75,32.06,20.56,33.25,19.11,33.25z M27.63,25.8c-1.9,0-3.43-1.53-3.43-3.43
		c0-1.89,1.53-3.43,3.43-3.43c1.89,0,3.43,1.54,3.43,3.43C31.05,24.27,29.51,25.8,27.63,25.8z"></path><path d="M20.37 30.6c0 .71-.57 1.27-1.26 1.27-.71 0-1.27-.57-1.27-1.27 0-.7.57-1.26 1.27-1.26C19.8 29.34 20.37 29.9 20.37 30.6zM29.67 22.37c0 1.13-.91 2.06-2.05 2.06-1.13 0-2.06-.92-2.06-2.06 0-1.13.92-2.05 2.06-2.05C28.76 20.32 29.67 21.24 29.67 22.37zM46.88 34.31c-.83-.84-1.95-1.3-3.14-1.3-1.24 0-2.43.53-3.28 1.45-.72.81-1.12 1.85-1.12 2.92 0 1.17.44 2.27 1.24 3.09.83.87 1.96 1.35 3.16 1.35 1.26 0 2.47-.55 3.31-1.5.71-.8 1.1-1.84 1.1-2.91v-.18C48.1 36.1 47.65 35.09 46.88 34.31zM46.73 38.18c-.5.48-1.02.72-1.59.72-.07 0-.15 0-.22-.01-1.1-.13-1.79-1.13-1.86-1.24-.17-.22-.34-.35-.52-.35-.39 0-.78.42-.78.42-.13.15-.32.24-.52.24-.17 0-.33-.06-.46-.17-.28-.25-.32-.69-.07-.97.14-.15.83-.89 1.79-.89.51.02 1.12.2 1.67.94.12.17.5.62.89.66 0 0 0 0 .01 0 .25 0 .46-.11.69-.33.13-.12.3-.19.48-.19.19 0 .36.07.49.21C47 37.48 46.99 37.91 46.73 38.18z"></path></g></svg>