<svg xmlns="http://www.w3.org/2000/svg" viewBox="0 0 64 64" id="education"><path d="m59.28 18-27-8a1 1 0 0 0-.57 0l-27 8a1 1 0 0 0-.06 1.9L18 24.88V36a3 3 0 0 0 0 6h.16a14 14 0 0 0 27.68 0H46a3 3 0 0 0 0-6V24.88l4-1.48v2.78a3 3 0 0 0-1.15 4.9l-.74 1.47a1 1 0 1 0 1.79.9l.74-1.45a1.8 1.8 0 0 0 .72 0l.75 1.49a1 1 0 1 0 1.79-.9l-.74-1.47A3 3 0 0 0 52 26.18v-3.52l7.35-2.72a1 1 0 0 0-.06-1.9ZM18 40a1 1 0 0 1 0-2Zm26 0a12 12 0 0 1-24 0v-1.08a22.31 22.31 0 0 0 24 0Zm0-3.5a20.32 20.32 0 0 1-24 0v-.58a22.31 22.31 0 0 0 24 0Zm0-3a20.32 20.32 0 0 1-24 0v-7.88l11.65 4.32a1 1 0 0 0 .7 0L44 25.62Zm3 5.5a1 1 0 0 1-1 1v-2a1 1 0 0 1 1 1Zm4-9a1 1 0 1 1 1-1 1 1 0 0 1-1 1Zm-.17-9-18.67-3a1 1 0 0 0-.31 2L47 22.38l-15 5.55-23.84-8.82L32 12l23.84 7.06Z"></path><path d="M30 46v-1a1 1 0 0 0-2 0v1a4 4 0 0 0 8 0v-1a1 1 0 0 0-2 0v1a2 2 0 0 1-4 0Z"></path></svg>