<svg xmlns="http://www.w3.org/2000/svg" viewBox="0 0 512 512" id="light-hand"><path d="M204 222.284v67.551C204 305.2 216.2 318 231.563 318h48.463A28.254 28.254 0 0 0 308 289.835V222.307c38-18.645 62.859-56.273 62.859-97.245 0-60.173-51.528-109.128-114.83-109.128S141.361 64.889 141.361 125.062C141.361 165.946 166 203.566 204 222.284zM220 247h72v6H220zm0 22h72v6H220zm60.026 33H231.563c-6.055 0-11.057-5-11.763-11h71.989C291.083 297 286.082 302 280.026 302zM256 31.934c54.479 0 98.8 41.777 98.8 93.128 0 36.272-22.742 69.545-58.029 84.767A7.948 7.948 0 0 0 292 217.175V231H264.427l-.062-84.609a30.067 30.067 0 0 1 12.993 7.735 8 8 0 0 0 11.373-11.255 46.655 46.655 0 0 0-65.671-.37 8 8 0 1 0 11.2 11.428 30.573 30.573 0 0 1 14.107-7.864L248.427 231H220V217.175a8.137 8.137 0 0 0-4.948-7.333c-35.055-15.291-57.779-48.569-57.779-84.78C157.273 73.711 201.521 31.934 256 31.934zM471.089 126.111a8 8 0 0 0-8.68-6.71 36.047 36.047 0 0 0-32.543 37.637l1.439 58.936a45.257 45.257 0 0 0-36.368 25.553L373.4 286.748a51.846 51.846 0 0 1-14.29 18.049l-4.477 3.589a90.923 90.923 0 0 0-34.118 75.235l-8.8-4.19a8 8 0 0 0-10.662 3.782L277.438 432.8a8 8 0 0 0 3.783 10.663l108.816 51.825a7.994 7.994 0 0 0 10.662-3.783l23.617-49.588a8 8 0 0 0-3.783-10.662l-4.643-2.211-1.16-15.512a23.414 23.414 0 0 1 5.326-16.74L476.407 328.6q.171-.207.327-.424a93.507 93.507 0 0 0 17.479-55.673 7.918 7.918 0 0 0-.1-1.13zM389.693 477.4l-94.371-44.946 16.738-35.142 94.371 44.945zM463.9 318.621L407.722 386.6a39.345 39.345 0 0 0-8.947 28.126l.478 6.394L337.4 391.663a75.022 75.022 0 0 1 27.241-70.794l4.477-3.589a67.928 67.928 0 0 0 18.727-23.652l21.537-45.221a29.287 29.287 0 0 1 31.271-16.261l-31.484 66.106a8 8 0 1 0 14.445 6.88l35.4-74.334a8 8 0 0 0-3.784-10.662 45.227 45.227 0 0 0-7.891-2.886l-1.483-60.7c0-.07 0-.139-.007-.209a20.069 20.069 0 0 1 10.836-18.875L478.222 273.3A77.43 77.43 0 0 1 463.9 318.621zM210.946 383.213a8 8 0 0 0-10.663-3.782l-8.8 4.189a90.928 90.928 0 0 0-34.118-75.234l-4.476-3.589A51.84 51.84 0 0 1 138.6 286.748l-21.537-45.221a45.255 45.255 0 0 0-36.369-25.553l1.44-58.937A36.047 36.047 0 0 0 49.591 119.4a8 8 0 0 0-8.68 6.71L17.885 271.375a8.066 8.066 0 0 0-.1 1.13 93.5 93.5 0 0 0 17.48 55.673q.156.217.326.424l56.352 68.19a23.425 23.425 0 0 1 5.325 16.741l-1.16 15.511-4.644 2.212a8 8 0 0 0-3.782 10.662L111.3 491.506a8 8 0 0 0 10.663 3.783L230.78 443.464a8 8 0 0 0 3.782-10.663zM104.279 386.6L48.1 318.621A77.427 77.427 0 0 1 33.779 273.3L55.311 137.465A20.073 20.073 0 0 1 66.149 156.34c0 .07-.006.139-.008.209l-1.483 60.7a45.256 45.256 0 0 0-7.891 2.886A8 8 0 0 0 52.984 230.8l35.4 74.334a8 8 0 1 0 14.445-6.88L71.347 232.146a29.293 29.293 0 0 1 31.271 16.261l21.537 45.221a67.919 67.919 0 0 0 18.728 23.652l4.476 3.589A75.026 75.026 0 0 1 174.6 391.662l-61.854 29.459.478-6.395A39.345 39.345 0 0 0 104.279 386.6zm18.027 90.8l-16.737-35.143 94.371-44.945 16.737 35.142z"></path></svg>