<svg xmlns="http://www.w3.org/2000/svg" viewBox="0 0 100 100" id="dumbell"><path d="M85.741,49.329c-1.524-1.524-4.442-2.005-6.193-.253l-3.244,3.244,.541-5.796,.011-.13c0-.008,0-.016,0-.025,.012-.115,.034-.227,.034-.344,0-.91-.354-1.765-.998-2.407l-2.513-2.513c-.483-.483-1.1-.784-1.752-.905-.121-.654-.431-1.279-.936-1.784l-2.514-2.512c-.483-.483-1.101-.785-1.752-.905-.121-.654-.431-1.279-.935-1.783l-2.514-2.514c-.497-.496-1.111-.807-1.754-.931-.127-.661-.447-1.269-.934-1.755l-2.513-2.513c-1.285-1.286-3.528-1.287-4.813,0l-3.938,3.938-1.215-1.217-.493-1.618c-.21-.695-.592-1.292-1.087-1.767l4.572-4.572c1.638-1.638,1.638-4.302,0-5.939l-9.595-9.595c-1.637-1.638-4.303-1.638-5.939,0l-5.906,5.905-1.803-1.803c-.586-.586-1.535-.586-2.121,0l-5.729,5.729c-.586,.585-.586,1.536,0,2.121l1.803,1.803-6.235,6.235c-1.638,1.638-1.638,4.302,0,5.939l9.596,9.596c.078,.078,.169,.134,.251,.205-3.038,4.271-4.725,9.401-4.763,14.645l-.04,4.963c-.009,1.366-.55,2.66-1.521,3.639l-5.216,5.216-.93-.885c-.298-.284-.699-.436-1.11-.412-.411,.021-.795,.209-1.062,.522l-6.62,7.727c-.008,.01-.01,.022-.018,.032-.109,.133-.195,.284-.253,.449-.008,.023-.015,.046-.022,.069-.04,.136-.069,.277-.069,.426v18.147c0,.829,.672,1.5,1.5,1.5H31.665c.454,0,.884-.206,1.168-.559l2.8-3.477c.5-.621,.427-1.525-.166-2.058l-2.246-2.014,5.759-5.751c.991-.991,2.244-1.65,3.623-1.906l6.316-1.169c3.499-.638,6.675-2.308,9.181-4.825l.87-.87c.23,.498,.535,.953,.905,1.323l9.556,9.556c.793,.793,1.848,1.23,2.97,1.23s2.177-.437,2.97-1.23l6.209-6.209,1.798,1.798c.293,.293,.677,.439,1.061,.439s.768-.146,1.061-.439l5.713-5.712c.281-.281,.439-.663,.439-1.061s-.158-.779-.439-1.061l-1.798-1.798,5.883-5.883c1.637-1.637,1.637-4.301,0-5.939l-9.556-9.556Zm-12.634,4.192l-1.154-1.151,1.47-1.47-.147,1.581c-.033,.354-.095,.699-.169,1.041Zm-3.275,.97l2.004,1.999c-.319,.487-.669,.952-1.086,1.368l-3.567,3.565-2.141-2.142,4.79-4.79Zm3.939-8.751c.097,.096,.117,.206,.118,.282-.007,.042-.02,.081-.023,.124l-.002,.016c-.018,.049-.046,.1-.094,.148l-4.998,4.998s-.002,.001-.003,.002c0,0-.001,.002-.002,.003l-6.901,6.902s-.004,.002-.006,.004-.002,.004-.004,.006l-2.796,2.796c-.159,.158-.414,.157-.571,0l-2.513-2.514c-.098-.098-.118-.209-.118-.285,0-.072,.023-.176,.108-.27,.004-.004,.01-.007,.014-.011l2.795-2.795s0,0,.001,0,0,0,0-.001l11.914-11.914c.007-.007,.011-.015,.017-.021,.188-.174,.362-.17,.549,.017l2.514,2.514Zm-5.201-5.202c.152,.152,.154,.395,.012,.553-.005,.005-.012,.008-.017,.013l-11.914,11.914s-.001,0-.001,0,0,.001,0,.001l-2.794,2.794c-.007,.007-.011,.014-.017,.021-.187,.174-.362,.172-.55-.017l-2.513-2.512c-.152-.152-.154-.394-.012-.553,.005-.005,.012-.009,.017-.014l2.768-2.768s.001,0,.002-.001c0,0,0-.001,.001-.002l11.939-11.94c.006-.006,.01-.014,.017-.02,.187-.175,.362-.172,.55,.016l2.514,2.512Zm-5.201-5.201c.152,.152,.154,.395,.012,.553-.005,.005-.012,.008-.017,.013l-4.955,4.955c-.007,.006-.016,.008-.023,.014-.009,.008-.011,.02-.02,.028l-9.713,9.713c-.006,.006-.01,.014-.017,.02-.187,.175-.362,.172-.55-.016l-2.514-2.513c-.152-.152-.153-.394-.013-.552,.006-.005,.012-.009,.018-.014l2.838-2.838s.006-.005,.009-.008c.001-.001,.002-.003,.003-.004l11.861-11.861c.005-.005,.009-.012,.014-.017,.077-.068,.171-.106,.267-.106,.104,0,.207,.039,.286,.118l2.513,2.513Zm-8.285-7.714c.098-.098,.209-.118,.285-.118,.077,0,.188,.021,.286,.118l2.514,2.514c.098,.097,.117,.208,.117,.285,0,.072-.023,.175-.108,.269-.005,.004-.01,.007-.015,.012l-5.005,5.005c-.007,.007-.017,.009-.024,.016-.005,.006-.007,.014-.012,.019l-9.67,9.67c-.005,.005-.009,.012-.014,.018-.158,.14-.399,.14-.552-.013l-2.514-2.513c-.157-.157-.157-.414,0-.571l2.783-2.783s.011-.006,.016-.01,.006-.011,.01-.016l11.902-11.901Zm-12.975,8.733l-3.698-3.698,4.797-4.798,3.695,3.701-4.794,4.794ZM22.89,15.624l3.607-3.607,.743,.743-3.607,3.607-.743-.743Zm-5.492,12.917c-.227-.227-.351-.528-.351-.849s.124-.622,.351-.849l7.274-7.274c.008-.007,.018-.009,.026-.017s.01-.018,.017-.026l5.686-5.686c.008-.007,.018-.009,.025-.017s.01-.018,.017-.025l6.945-6.945c.234-.234,.541-.351,.849-.351s.614,.117,.849,.351l9.595,9.595c.468,.468,.468,1.229,0,1.697l-19.989,19.99c-.469,.468-1.229,.467-1.697,0l-9.596-9.596ZM6.5,80.232l14.672,13.268H6.5v-13.268Zm24.447,13.268h-5.302L7.089,76.72l4.642-5.417,.843,.802s.002,0,.003,.002l17.404,17.404c.01,.01,.024,.013,.034,.023,.012,.011,.016,.027,.028,.038l2.362,2.119-1.457,1.81Zm25.03-20.878c-2.075,2.084-4.702,3.464-7.601,3.993l-6.32,1.17c-1.979,.367-3.775,1.312-5.196,2.733l-5.819,5.811-15.31-15.31,5.194-5.194c1.531-1.544,2.382-3.582,2.395-5.734l.04-4.961c.035-4.94,1.734-9.761,4.768-13.673,.977-.067,1.938-.455,2.683-1.201l5.477-5.477,3.698,3.698-1.736,1.736c-1.326,1.327-1.326,3.486,0,4.813l2.514,2.513c.468,.468,1.042,.762,1.644,.9-.221,2.176-1.581,9.349-9.959,12.932-.762,.326-1.115,1.208-.789,1.969,.243,.569,.797,.911,1.38,.911,.196,0,.396-.039,.589-.121,7.417-3.172,10.179-8.775,11.21-12.516l1.126,1.126c.486,.487,1.094,.806,1.755,.933,.125,.643,.435,1.257,.933,1.755l2.513,2.513h0c.487,.487,1.095,.806,1.755,.933,.127,.661,.447,1.269,.933,1.755l2.513,2.513c.663,.664,1.535,.996,2.406,.996s1.744-.332,2.407-.996l1.74-1.74,2.141,2.141-9.084,9.079Zm32.053,.944l-3.592,3.591-.737-.737,3.591-3.591,.737,.737Zm5.146-10.862l-6.936,6.935s-.007,.004-.01,.006-.004,.007-.006,.01l-5.694,5.694s-.009,.004-.012,.008-.005,.009-.008,.012l-7.26,7.259c-.453,.453-1.244,.453-1.697,0l-9.556-9.556c-.524-.526-.657-1.546-.253-1.951l13.424-13.424s0,0,0,0,0,0,0,0l6.499-6.5c.405-.404,1.426-.271,1.951,.253l9.555,9.555c.468,.468,.469,1.23,0,1.698Z"></path></svg>