<svg xmlns="http://www.w3.org/2000/svg" width="128" height="128" viewBox="0 0 128 128" id="governor"><path d="M56.1709,30.18144a13.354,13.354,0,0,0-7.02881,7.079A1.99971,1.99971,0,0,0,50.25928,39.859a1.97934,1.97934,0,0,0,.74023.14355,2.00234,2.00234,0,0,0,1.8584-1.25974A9.37906,9.37906,0,0,1,57.8291,33.822a2.00021,2.00021,0,1,0-1.6582-3.64056Z"></path><path d="M64 24.00186A25.04206 25.04206 0 0 1 88.49695 44.0015h4.06268A29.04816 29.04816 0 0 0 66 20.07768V14.98243c.16864.01416.33643.02252.50293.02252a11.43542 11.43542 0 0 0 4.25-1.08787c2.10938-.85741 2.998-1.10447 3.98633-.30078A2.0003 2.0003 0 0 0 78 12.0636V2.94072A1.99659 1.99659 0 0 0 77.26074 1.389c-2.915-2.37007-5.8623-1.17478-8.01367-.30175-1.59955.6502-2.49725.94658-3.26849.70281A1.99467 1.99467 0 0 0 62 2.00226V20.07768A29.04764 29.04764 0 0 0 35.44037 44.0015h4.06268A25.04206 25.04206 0 0 1 64 24.00186zM70.752 4.79322c1.585-.64354 2.4834-.94432 3.248-.71092V9.14373a10.31741 10.31741 0 0 0-4.752 1.06736c-1.585.64354-2.4834.94237-3.248.71092V5.86059A10.32971 10.32971 0 0 0 70.752 4.79322zM24 80.00086h4a2 2 0 1 0 0-3.99993H24a2 2 0 1 0 0 3.99993zM24 88.00072h4a2 2 0 1 0 0-3.99993H24a2 2 0 1 0 0 3.99993zM24 96.00057h4a2 2 0 1 0 0-3.99993H24a2 2 0 1 0 0 3.99993zM24 104.00043h4a2 2 0 1 0 0-3.99993H24a2 2 0 1 0 0 3.99993zM104 76.00093h-4a2 2 0 1 0 0 3.99993h4a2 2 0 1 0 0-3.99993zM104 84.00079h-4a2 2 0 1 0 0 3.99993h4a2 2 0 1 0 0-3.99993zM104 92.00064h-4a2 2 0 1 0 0 3.99993h4a2 2 0 1 0 0-3.99993zM104 100.0005h-4a2 2 0 1 0 0 3.99993h4a2 2 0 1 0 0-3.99993zM80 76.00093A16 16 0 1 0 64 92.00064 16.01819 16.01819 0 0 0 80 76.00093zM64 88.00072A11.99979 11.99979 0 1 1 76 76.00093 12.01333 12.01333 0 0 1 64 88.00072z"></path><path d="M79.76422,88.26518a20.13528,20.13528,0,0,1-3.81488,3.73547h.44714C84.40625,92.00064,90,96.87458,90,103.852v18.14811a2.00259,2.00259,0,0,1-2,2H40a2.00227,2.00227,0,0,1-2-2V103.852c0-6.97741,5.59375-11.85135,13.60352-11.85135h.44739a20.13953,20.13953,0,0,1-3.815-3.73547C39.81683,89.56435,34,95.71475,34,103.852v18.14811A6.00651,6.00651,0,0,0,40,128H88a6.00651,6.00651,0,0,0,6-5.99989V103.852C94,95.71481,88.18323,89.56435,79.76422,88.26518Z"></path><path d="M110,72.001v31.99943h4V72.001h5a2.00008,2.00008,0,0,0,2-2V66.00111a6.00651,6.00651,0,0,0-6-5.99989H103V54.00133a6.00651,6.00651,0,0,0-6-5.99989H31a6.00651,6.00651,0,0,0-6,5.99989v5.99989H13a6.00651,6.00651,0,0,0-6,5.99989V70.001a2.00008,2.00008,0,0,0,2,2h5v31.99943h4V72.001H34V91.933a19.13089,19.13089,0,0,1,4-3.83062V72.001h6.40314a19.80512,19.80512,0,0,1,1.27838-3.99993H11v-2a2.00227,2.00227,0,0,1,2-2H48.03809a20.13591,20.13591,0,0,1,4.01282-3.99993H29V54.00133a2.00227,2.00227,0,0,1,2-2H97a2.00259,2.00259,0,0,1,2,2v5.99989H75.94934a20.1356,20.1356,0,0,1,4.01276,3.99993H115a2.00259,2.00259,0,0,1,2,2v2H82.31854A19.80882,19.80882,0,0,1,83.59686,72.001H90V88.10246a19.13117,19.13117,0,0,1,4,3.83068V72.001Z"></path><path d="M58.95239 95.33011l-2.89478 15.64382a3.42661 3.42661 0 0 0 .85449 2.9521l4.45215 4.94522a3.64029 3.64029 0 0 0 5.30176-.0332l4.41016-4.89835a3.44753 3.44753 0 0 0 .86621-2.96381l-2.8949-15.64565a19.88236 19.88236 0 0 1-3.95441.615l2.864 15.47989-3.95654 4.39641L60.042 111.4251l2.86462-15.47995A19.885 19.885 0 0 1 58.95239 95.33011zM30 124.00007H6v-3.99993H30v-3.99993H13v-3.99993H30v-3.99993H13a4.00423 4.00423 0 0 0-4 3.99993v3.99993H6a4.00423 4.00423 0 0 0-4 3.99993v3.99993A4.00423 4.00423 0 0 0 6 128H30.34882A5.97535 5.97535 0 0 1 30 126zM122 116.00021h-3v-3.99993a4.00392 4.00392 0 0 0-4-3.99993H98v3.99993h17l.00293 3.99993H98v3.99993h24l.00293 3.99993H98v2a5.97535 5.97535 0 0 1-.34882 2H122a4.00392 4.00392 0 0 0 4-3.99993v-3.99993A4.00392 4.00392 0 0 0 122 116.00021z"></path></svg>