<svg xmlns="http://www.w3.org/2000/svg" enable-background="new 0 0 160 160" viewBox="0 0 160 160" id="geo-location"><path d="M155.707,70.132c-0.1-16.343-6.362-32.655-18.801-45.097c-12.15-12.153-28.305-18.846-45.487-18.846c-17.183,0-33.337,6.693-45.487,18.846C33.492,37.477,27.23,53.791,27.13,70.135c-0.015,0.132-0.04,0.26-0.04,0.396c0,0.136,0.025,0.265,0.04,0.396c0.068,11.101,2.98,22.184,8.74,32.053c0.206-0.149,0.411-0.299,0.623-0.436c2.467-1.593,5.339-2.402,8.302-2.304c1.81,0.05,3.606,0.444,5.277,1.152l4.165-3.941H40.802c-3.892-7.33-6.075-15.332-6.566-23.421h13.371c-0.18-2.331-0.169-4.672,0.017-7H34.237c0.49-8.089,2.674-16.091,6.566-23.421h15.787c1.373-1.785,2.89-3.487,4.568-5.075c0.71-0.672,1.444-1.307,2.189-1.925c1.938-1.609,3.988-3.039,6.135-4.278c4.726-10.07,11.232-16.991,18.438-18.711V26.63c1.559-0.122,3.133-0.169,4.719-0.126c0.764,0.021,1.524,0.064,2.281,0.123V13.621c7.202,1.719,13.705,8.634,18.431,18.696c2.157,1.242,4.209,2.682,6.147,4.293c1.364,1.134,2.675,2.345,3.912,3.654c1.02,1.078,1.972,2.196,2.862,3.346h15.764c3.892,7.331,6.076,15.333,6.566,23.421h-13.312c0.184,2.331,0.188,4.671,0.004,7H148.6c-0.49,8.088-2.674,16.091-6.566,23.421h-15.763c-1.377,1.781-2.906,3.48-4.591,5.074c-0.709,0.671-1.444,1.307-2.19,1.926c-1.934,1.604-3.983,3.033-6.131,4.271c-4.727,10.073-11.234,16.997-18.44,18.717v-13.005c-1.561,0.122-3.135,0.168-4.72,0.123c-0.763-0.021-1.522-0.069-2.28-0.13v13.012c-7.211-1.721-13.721-8.652-18.448-18.733c-1.962-1.128-3.843-2.406-5.618-3.835l-2.684,2.539c2.575,6.552,5.826,12.196,9.6,16.626c-4.176-1.611-8.156-3.713-11.868-6.282c-0.438,2.336-1.435,4.566-2.96,6.464c10.419,6.918,22.635,10.64,35.426,10.651c0.018,0,0.035,0.002,0.053,0.002s0.035-0.002,0.053-0.002c17.163-0.014,33.297-6.704,45.435-18.843c12.439-12.442,18.7-28.754,18.801-45.097c0.015-0.133,0.04-0.263,0.04-0.399C155.747,70.394,155.722,70.264,155.707,70.132z M60.07,36.61H45.192c1.701-2.316,3.598-4.533,5.69-6.626C56.634,24.23,63.4,19.865,70.77,17.023C66.438,22.108,62.79,28.786,60.07,36.61z M122.768,36.61c-2.721-7.824-6.368-14.502-10.7-19.587c7.369,2.842,14.135,7.207,19.887,12.961c2.093,2.093,3.99,4.31,5.69,6.626H122.768z M131.955,111.078c-5.752,5.754-12.518,10.118-19.887,12.96c4.332-5.085,7.979-11.762,10.699-19.586h14.878C135.944,106.768,134.048,108.984,131.955,111.078z"></path><path d="M63.762,101.517c7.306,6.545,16.589,10.266,26.504,10.542c0.395,0.011,0.789,0.016,1.182,0.016c10.656,0,20.742-4.01,28.515-11.365c16.639-15.742,17.369-42.088,1.63-58.729c-7.624-8.062-17.931-12.671-29.021-12.979c-11.074-0.295-21.637,3.723-29.696,11.349c-15.781,14.932-17.241,39.398-3.92,56.079l-8.437,7.983c-1.744-1.031-3.727-1.616-5.809-1.674c-3.239-0.111-6.305,1.084-8.653,3.307L10.53,130.198c-4.846,4.585-5.059,12.259-0.473,17.107l0.209,0.221c2.221,2.349,5.224,3.69,8.455,3.78c0.115,0.003,0.229,0.005,0.343,0.005c3.105,0,6.044-1.169,8.31-3.313L52.9,123.846c4.003-3.787,4.835-9.678,2.424-14.345L63.762,101.517z M67.686,45.436c6.463-6.115,14.848-9.45,23.708-9.45c0.327,0,0.654,0.004,0.982,0.014c9.222,0.256,17.791,4.088,24.13,10.792c13.088,13.836,12.48,35.744-1.354,48.834c-6.702,6.341-15.479,9.716-24.691,9.436c-9.221-0.256-17.791-4.088-24.13-10.791C53.243,80.433,53.851,58.526,67.686,45.436z M48.088,118.762l-25.525,24.152c-0.991,0.937-2.272,1.453-3.648,1.394c-1.362-0.037-2.628-0.604-3.564-1.594c0,0-0.001-0.001-0.001-0.001l-0.208-0.22c-1.933-2.043-1.843-5.278,0.2-7.212l25.526-24.152c0.955-0.903,2.193-1.396,3.502-1.396c0.048,0,0.097,0.001,0.146,0.002c1.362,0.038,2.628,0.604,3.563,1.593l0.21,0.223C50.221,113.594,50.131,116.829,48.088,118.762z"></path><path d="M74.582,72.449l14.676,25.214c0.448,0.769,1.271,1.242,2.161,1.242s1.713-0.474,2.161-1.242l14.676-25.214c0.014-0.024,0.027-0.048,0.04-0.072c4.847-7.854,3.682-17.87-2.861-24.413c-3.743-3.745-8.721-5.807-14.016-5.807c-5.294,0-10.272,2.063-14.016,5.807c-6.541,6.542-7.707,16.554-2.864,24.406C74.552,72.396,74.567,72.423,74.582,72.449z M80.939,51.499c2.799-2.8,6.521-4.342,10.48-4.342c3.959,0,7.681,1.542,10.48,4.342c4.922,4.924,5.774,12.474,2.073,18.361c-0.044,0.069-0.084,0.141-0.12,0.213L91.419,91.435L78.988,70.08c-0.037-0.074-0.078-0.147-0.123-0.22C75.163,63.972,76.016,56.423,80.939,51.499z"></path><path d="M91.419,72.013c2.679,0,5.198-1.044,7.092-2.938c3.911-3.911,3.911-10.275,0-14.187c-1.894-1.895-4.413-2.938-7.092-2.938s-5.198,1.044-7.092,2.938c-3.911,3.911-3.911,10.275,0,14.187C86.221,70.969,88.739,72.013,91.419,72.013z M87.862,58.424c0.95-0.95,2.213-1.474,3.556-1.474s2.606,0.523,3.557,1.474c1.962,1.962,1.962,5.154,0,7.116c-0.95,0.95-2.213,1.474-3.557,1.474s-2.606-0.523-3.556-1.474C85.901,63.578,85.901,60.385,87.862,58.424z"></path></svg>