<svg xmlns="http://www.w3.org/2000/svg" enable-background="new 0 0 64 64" viewBox="0 0 64 64" id="manufacturing"><path d="M31.99,45.52c-0.06,0-0.12-0.01-0.17-0.03l-16.31-6.07c-0.19-0.07-0.32-0.26-0.32-0.46c0-0.21,0.13-0.39,0.32-0.46
				l16.32-6.05c0.11-0.04,0.23-0.04,0.34,0l16.31,6.06c0.19,0.07,0.32,0.26,0.32,0.46c0,0.21-0.13,0.39-0.32,0.46l-16.32,6.05
				C32.11,45.51,32.05,45.52,31.99,45.52z M17.09,38.97l14.9,5.54l14.9-5.53l-14.9-5.53L17.09,38.97z"></path><path d="M31.98,64.01c-0.06,0-0.12-0.01-0.17-0.03L15.5,57.91c-0.19-0.07-0.32-0.26-0.32-0.46l0.01-18.49
				c0-0.27,0.22-0.49,0.49-0.49c0.27,0,0.49,0.22,0.49,0.49l-0.01,18.14l15.82,5.88l15.83-5.87l0.01-18.14
				c0-0.27,0.22-0.49,0.49-0.49c0.27,0,0.49,0.22,0.49,0.49L48.8,57.47c0,0.21-0.13,0.39-0.32,0.46l-16.32,6.05
				C32.1,64,32.04,64.01,31.98,64.01z"></path><path d="M31.99,55.11c-0.06,0-0.12-0.01-0.17-0.03L15.5,49.02c-0.25-0.09-0.38-0.38-0.29-0.63c0.09-0.25,0.38-0.39,0.63-0.29
				l16.14,6l16.15-5.98c0.26-0.1,0.54,0.04,0.63,0.29c0.09,0.25-0.04,0.54-0.29,0.63l-16.32,6.05C32.1,55.1,32.05,55.11,31.99,55.11
				z"></path><path d="M40.71,60.78c-0.27,0-0.49-0.22-0.49-0.49l0.01-18.16l-15.08-6.28c-0.25-0.1-0.37-0.39-0.27-0.64
					c0.1-0.25,0.39-0.37,0.64-0.26l15.38,6.41c0.18,0.08,0.3,0.26,0.3,0.45L41.2,60.28C41.2,60.56,40.98,60.78,40.71,60.78z"></path><path d="M23.26,60.76c-0.27,0-0.49-0.22-0.49-0.49l0.01-18.48c0-0.2,0.12-0.38,0.3-0.45l15.38-6.4c0.25-0.1,0.54,0.01,0.64,0.27
					c0.1,0.25-0.01,0.54-0.27,0.64l-15.08,6.27l-0.01,18.15C23.75,60.54,23.53,60.76,23.26,60.76z"></path><path d="M31.98,64.01c-0.27,0-0.49-0.22-0.49-0.49l0-18.48c0-0.27,0.22-0.49,0.49-0.49c0.27,0,0.49,0.22,0.49,0.49l0,18.48
				C32.48,63.78,32.26,64.01,31.98,64.01z"></path><path d="M58.9,54.02l-10.6,0c-0.27,0-0.49-0.22-0.49-0.49c0-0.27,0.22-0.49,0.49-0.49l10.6,0c0.75,0,1.36-0.61,1.36-1.36
			l0.02-49.32c0-0.75-0.61-1.36-1.36-1.36L5.1,0.98c-0.75,0-1.36,0.61-1.36,1.36L3.72,51.65c0,0.75,0.61,1.36,1.36,1.36l10.6,0
			c0.27,0,0.49,0.22,0.49,0.49c0,0.27-0.22,0.49-0.49,0.49l-10.6,0c-1.29,0-2.34-1.05-2.34-2.34L2.76,2.33
			c0-1.29,1.05-2.34,2.34-2.34l53.83,0.02c1.29,0,2.34,1.05,2.34,2.34l-0.02,49.32C61.24,52.97,60.19,54.02,58.9,54.02z"></path><path d="M57.06,47.96l-8.75,0c-0.27,0-0.49-0.22-0.49-0.49c0-0.27,0.22-0.49,0.49-0.49l8.26,0L56.58,4.7L7.44,4.68L7.42,46.96
			l8.26,0c0.27,0,0.49,0.22,0.49,0.49c0,0.27-0.22,0.49-0.49,0.49l-8.75,0c-0.27,0-0.49-0.22-0.49-0.49L6.45,4.18
			c0-0.27,0.22-0.49,0.49-0.49l50.13,0.02c0.27,0,0.49,0.22,0.49,0.49l-0.02,43.27C57.55,47.74,57.33,47.96,57.06,47.96z"></path><path d="M50.76,12.93L37.8,12.92c-0.27,0-0.49-0.22-0.49-0.49c0-0.27,0.22-0.49,0.49-0.49l12.46,0.01l0-3L13.75,8.93l0,3
			l12.46,0.01c0.27,0,0.49,0.22,0.49,0.49c0,0.27-0.22,0.49-0.49,0.49l-12.96-0.01c-0.27,0-0.49-0.22-0.49-0.49l0-3.98
			c0-0.27,0.22-0.49,0.49-0.49l37.51,0.02c0.27,0,0.49,0.22,0.49,0.49l0,3.98C51.25,12.71,51.03,12.93,50.76,12.93z"></path><g><path d="M36.26,20.5l-8.51,0c-0.23,0-0.44-0.17-0.48-0.39l-1.95-9.57c-0.03-0.14,0.01-0.3,0.1-0.41c0.09-0.11,0.23-0.18,0.38-0.18
			l12.41,0.01c0.15,0,0.29,0.07,0.38,0.18c0.09,0.11,0.13,0.26,0.1,0.41l-1.95,9.57C36.69,20.34,36.49,20.5,36.26,20.5z
			 M28.15,19.52l7.71,0l1.75-8.59l-11.2,0L28.15,19.52z"></path></g><g><path d="M34.02,26.03l-4.04,0c-0.24,0-0.45-0.18-0.49-0.42l-0.85-5.53c-0.04-0.27,0.14-0.52,0.41-0.56
			c0.27-0.04,0.52,0.14,0.56,0.41l0.79,5.11l3.19,0l0.79-5.11c0.04-0.27,0.29-0.45,0.56-0.41c0.27,0.04,0.45,0.29,0.41,0.56
			l-0.85,5.53C34.47,25.86,34.26,26.03,34.02,26.03z"></path></g><g><path d="M32,30.51c-0.21,0-0.4-0.13-0.47-0.33l-1.51-4.47c-0.09-0.26,0.05-0.54,0.31-0.62c0.26-0.09,0.54,0.05,0.62,0.31L32,28.47
			l1.05-3.09c0.09-0.26,0.36-0.4,0.62-0.31c0.26,0.09,0.4,0.37,0.31,0.62l-1.51,4.47C32.4,30.37,32.21,30.51,32,30.51z"></path></g><g><path d="M13.25,10.93l-6.31,0c-0.27,0-0.49-0.22-0.49-0.49c0-0.27,0.22-0.49,0.49-0.49l6.31,0c0.27,0,0.49,0.22,0.49,0.49
			C13.74,10.71,13.52,10.93,13.25,10.93z"></path></g><g><path d="M57.07,10.94l-6.31,0c-0.27,0-0.49-0.22-0.49-0.49c0-0.27,0.22-0.49,0.49-0.49l6.31,0c0.27,0,0.49,0.22,0.49,0.49
			C57.57,10.72,57.34,10.94,57.07,10.94z"></path></g></svg>