<svg xmlns="http://www.w3.org/2000/svg" viewBox="0 0 64 64" id="groceries-basket"><path d="M15.00038 30.48256a1.00011 1.00011 0 00-2 0v2h2zM50.00038 29.48256a1.003 1.003 0 00-1 1v2h2v-2A1.003 1.003 0 0050.00038 29.48256zM15.18038 34.48256a3.00061 3.00061 0 002.82 2h28a3.02147 3.02147 0 003-3v-1h-34A5.72164 5.72164 0 0015.18038 34.48256z"></path><path d="M61.66036,28.10255a4.01112,4.01112,0,0,0-1.68-5.08,4.99166,4.99166,0,0,0-2.37-3.79c3.62671-9.506.00256-18.08923-8.91-13.43a5.00579,5.00579,0,0,0-9.03-.79,6.98446,6.98446,0,0,0-7.47632,1.4068A6.02218,6.02218,0,0,0,23.00038,11.504a4.994,4.994,0,0,0-1.54083,1.917l-1.08917-1.88849a4.00831,4.00831,0,0,0-5.46-1.47l-.5-.87a1.99386,1.99386,0,0,0,.72-2.73l-1-1.73a2.00341,2.00341,0,0,0-2.73-.73l-6.93006,4a2.008,2.008,0,0,0-.73,2.73l1,1.73a2.01247,2.01247,0,0,0,2.73.74l.5.87a3.98482,3.98482,0,0,0-1.59527,5.17005,4.96827,4.96827,0,0,0-2.3537,3.781,3.9948,3.9948,0,0,0-1.67627,5.07178c-.51721.78382-.30432,2.48859-.34473,3.38721a3.00883,3.00883,0,0,0,3,3h1.22l6.04,23.25a4.99593,4.99593,0,0,0,4.84,3.75H46.90041a4.99591,4.99591,0,0,0,4.84-3.75l6.04-23.25h1.22a3.00883,3.00883,0,0,0,3-3C61.95833,30.58437,62.17153,28.89,61.66036,28.10255Zm-4.8-6.97a2.85585,2.85585,0,0,1,1.12,2.53,1.0013,1.0013,0,0,0,.67005.94,1.999,1.999,0,0,1,1.34,2.06c-.63263-.33362-3.87774-.12616-4.61-.18-.29248-.03345-1.15808.0188-1.47.00006A30.70033,30.70033,0,0,0,56.86037,21.13252Zm-7.81-6.05,1.5-2.6a.99915.99915,0,1,1,1.73,1l-1.5,2.6,1.74,1a.99913.99913,0,0,1-1,1.73l-1.74-1-1.5,2.6,1.74,1a.99913.99913,0,0,1-1,1.73l-1.74-1-2.51,4.34h-2.28a.47252.47252,0,0,1,.06-.15l3-5.19-1.73-1a1.01033,1.01033,0,0,1-.37-1.37.99839.99839,0,0,1,1.37-.36l1.73,1,1.5-2.6-1.73-1a.99914.99914,0,0,1,1-1.73Zm-17.44989-2.78a1.05289,1.05289,0,0,0,.3999-.82,5.02438,5.02438,0,0,1,7.64008-4.23987,1.01076,1.01076,0,0,0,1.48993-.57019,2.99322,2.99322,0,0,1,5.81.24005c-5.388,3.7237-10.671,12.94849-11.05,19.57h-1.89a2.99923,2.99923,0,0,1-1.52-5.57007.99888.99888,0,0,0-.09009-1.77A4.00825,4.00825,0,0,1,31.60048,12.30257Zm-8.6001,3.18A2.981,2.981,0,0,1,24.537,12.88588a.99967.99967,0,0,0,.50733-.9834,3.9924,3.9924,0,0,1,5.89435-3.90655,6.88712,6.88712,0,0,0-.91828,3.0166,6.01154,6.01154,0,0,0,.25,9.16,5.01793,5.01793,0,0,0-.27,6.31h-1c-1.44629-2.50049-4.63629-8.0307-6.10272-10.57477A.98277.98277,0,0,0,23.00038,15.48256Zm.00873,4.62512,1.28125,2.22485c-2.02136,1.24378-3.5617,1.65906-5.3164.72175A8.50448,8.50448,0,0,1,23.00911,20.10768ZM8.97035,15.79256a2.00787,2.00787,0,0,0,.74006-2.73005l-.5-.86c1.05877-.62488,2.39361-1.39258,3.46-2l.5.85a2.01383,2.01383,0,0,0,2.73.75,1.98828,1.98828,0,0,1,2.73.73L21.98885,18.35a10.45063,10.45063,0,0,0-4.60242,3.48785c-2.13684-2.22027-4.97052-3.3706-7.90607-1.16528-.28161-.49756-.95379-1.65179-1.23-2.13A2.029,2.029,0,0,1,8.97035,15.79256Zm-3.61889,8.813a.99834.99834,0,0,0,.64892-1.123,2.981,2.981,0,0,1,1.35205-2.4964c.64539,1.11249,2.50061,4.33649,3.168,5.4964-.2782.01556-1.59173-.02582-1.83416-.00006-.73713.0542-4.02-.15253-4.65986.17553A1.94908,1.94908,0,0,1,5.35146,24.60561ZM24.24037,54.45253a.996.996,0,0,1-1.21-.73l-2-8a.99922.99922,0,1,1,1.93994-.48l2,8A.99931.99931,0,0,1,24.24037,54.45253Zm8.76-.97a1.00011,1.00011,0,0,1-2-.00006V45.48256a1,1,0,0,1,2,0Zm9.97-7.76-2,8a.99932.99932,0,0,1-1.93994-.48l2-7.99994A.99932.99932,0,0,1,42.97035,45.72255Zm17.03-14.24a1.003,1.003,0,0,1-1,1h-8c.33124,3.11212-1.67639,5.96673-5.00006,6H18.00038c-3.316-.03058-5.33563-2.88959-5-6h-8a1.003,1.003,0,0,1-1-1v-2a1.04068,1.04068,0,0,1,.29-.71,1.01447,1.01447,0,0,1,.71-.29h54a.99957.99957,0,0,1,1,1Z"></path></svg>