<svg xmlns="http://www.w3.org/2000/svg" xmlns:xlink="http://www.w3.org/1999/xlink" viewBox="0 0 64 64" id="saas"><defs><linearGradient id="b" x1="32" x2="32" y1="35" y2="1" gradientUnits="userSpaceOnUse"><stop offset="0" stop-color="#d4d8e1"></stop><stop offset="1" stop-color="#f3f4f5"></stop></linearGradient><linearGradient id="a" x1="32" x2="32" y1="63" y2="59" gradientUnits="userSpaceOnUse"><stop offset="0" stop-color="#7aa8d7"></stop><stop offset="1" stop-color="#c3d2e7"></stop></linearGradient><linearGradient id="c" x1="18" x2="18" xlink:href="#a"></linearGradient><linearGradient id="d" x1="46" x2="46" xlink:href="#a"></linearGradient><linearGradient id="e" x1="61" x2="61" xlink:href="#a"></linearGradient><linearGradient id="f" x1="3" x2="3" xlink:href="#a"></linearGradient><linearGradient id="g" x1="32" x2="32" y1="43" y2="15" gradientUnits="userSpaceOnUse"><stop offset="0" stop-color="#474f72"></stop><stop offset="1" stop-color="#878c9f"></stop></linearGradient><linearGradient id="h" x1="32" x2="32" y1="33.67" y2="24.33" gradientUnits="userSpaceOnUse"><stop offset="0" stop-color="#a0a6ba"></stop><stop offset="1" stop-color="#c6ccda"></stop></linearGradient></defs><g><path fill="#aae0e5" d="M31 59V43a1 1 0 012 0V59A1 1 0 0131 59zM2 59V50a1 1 0 011-1H20V37.94a1 1 0 012 0V50a1 1 0 01-1 1H4v8A1 1 0 012 59zM60 59V51H43a1 1 0 01-1-1V37.94a1 1 0 012 0V49H61a1 1 0 011 1v9A1 1 0 0160 59z"></path><path fill="#aae0e5" d="M17 59V55a1 1 0 011-1h7V38.21a1 1 0 012 0V55a1 1 0 01-1 1H19v3A1 1 0 0117 59zM45 59V56H38a1 1 0 01-1-1V38.21a1 1 0 012 0V54h7a1 1 0 011 1v4A1 1 0 0145 59z"></path><path fill="url(#b)" d="M52,19.26a7,7,0,0,0-8.29-7.13A14,14,0,0,0,16,15a10,10,0,0,0,0,20H50a8,8,0,0,0,2-15.74Z"></path><path fill="#c7cdd8" d="M50,35H16A10,10,0,0,1,6.05,24a10,10,0,0,0,10,9H50a8,8,0,0,0,7.93-7A8,8,0,0,1,50,35Z"></path><circle cx="32" cy="61" r="2" fill="url(#a)"></circle><circle cx="18" cy="61" r="2" fill="url(#c)"></circle><circle cx="46" cy="61" r="2" fill="url(#d)"></circle><circle cx="61" cy="61" r="2" fill="url(#e)"></circle><circle cx="3" cy="61" r="2" fill="url(#f)"></circle><path fill="url(#g)" d="M42.66,26.31l3-1.71-3-5.2-3,1.71A11.06,11.06,0,0,0,35,18.42V15H29v3.42a11.06,11.06,0,0,0-4.66,2.69l-3-1.71-3,5.2,3,1.71a10.89,10.89,0,0,0,0,5.38l-3,1.71,3,5.2,3-1.71A11.06,11.06,0,0,0,29,39.58V43h6V39.58a11.06,11.06,0,0,0,4.66-2.69l3,1.71,3-5.2-3-1.71A10.89,10.89,0,0,0,42.66,26.31Z"></path><path fill="#42455e" d="M29,39.58a11.06,11.06,0,0,1-4.66-2.69l-3,1.71-3-5.2.87-.5,2.13,3.7,3-1.71A11.06,11.06,0,0,0,29,37.58Z"></path><rect width="6" height="2" x="29" y="41" fill="#42455e"></rect><path fill="#42455e" d="M44.75,32.9l.87.5-3,5.2-3-1.71A11.06,11.06,0,0,1,35,39.58v-2a11.06,11.06,0,0,0,4.66-2.69l3,1.71Z"></path><circle cx="32" cy="29" r="4.67" fill="url(#h)"></circle><path fill="#adb3c4" d="M36.56,30a4.67,4.67,0,0,0-9.12,0,4.67,4.67,0,1,1,9.12,0Z"></path></g></svg>