<svg xmlns="http://www.w3.org/2000/svg" enable-background="new 0 0 70 70" viewBox="0 0 70 70" id="security"><path d="M35,67.9997559c-0.1503906,0-0.3012695-0.0341797-0.4399414-0.1015625
			C18.0229492,59.7995605,7.75,45.0827637,7.75,29.4929199V12.0769043c0-0.4267578,0.2705078-0.8056641,0.6733398-0.9453125
			l26.25-9.0771484c0.2109375-0.0722656,0.4423828-0.0722656,0.6533203,0l26.25,9.0771484
			C61.9794922,11.2712402,62.25,11.6501465,62.25,12.0769043v17.4160156c0,15.5898438-10.2729492,30.3066406-26.8100586,38.4052734
			C35.3012695,67.9655762,35.1503906,67.9997559,35,67.9997559z M9.75,12.7888184v16.7041016
			c0,14.6835938,9.6616211,28.5878906,25.25,36.390625c15.5883789-7.8027344,25.25-21.7070312,25.25-36.390625V12.7888184
			L35,4.057373L9.75,12.7888184z"></path><path d="M45.4570312,53.4567871H24.5429688c-2.0268555,0-3.6757812-1.5898438-3.6757812-3.5429688v-17.4375
				c0-0.5527344,0.4477539-1,1-1h26.265625c0.5522461,0,1,0.4472656,1,1v17.4375
				C49.1328125,51.8669434,47.4838867,53.4567871,45.4570312,53.4567871z M22.8671875,33.4763184v16.4375
				c0,0.8505859,0.7519531,1.5429688,1.6757812,1.5429688h20.9140625c0.9238281,0,1.6757812-0.6923828,1.6757812-1.5429688v-16.4375
				H22.8671875z"></path><path d="M44.0825195 33.4763184H25.9174805c-.5522461 0-1-.4472656-1-1v-8.0625c0-5.5595703 4.5229492-10.0820312 10.0825195-10.0820312s10.0825195 4.5224609 10.0825195 10.0820312v8.0625C45.0825195 33.0290527 44.6347656 33.4763184 44.0825195 33.4763184zM26.9174805 31.4763184h16.1650391v-7.0625c0-4.4560547-3.6259766-8.0820312-8.0825195-8.0820312s-8.0825195 3.6259766-8.0825195 8.0820312V31.4763184zM38.3383789 48.7653809h-6.3989258c-.3071289 0-.597168-.1416016-.7871094-.3828125-.1894531-.2421875-.2573242-.5576172-.184082-.8554688l.8852539-3.6025391c-1.03125-.9248047-1.6293945-2.2451172-1.6293945-3.6513672 0-2.7099609 2.2050781-4.9150391 4.9150391-4.9150391s4.9145508 2.2050781 4.9145508 4.9150391c0 1.40625-.5981445 2.7265625-1.6293945 3.6513672l.8852539 3.6025391c.0732422.2978516.0053711.6132812-.184082.8554688C38.9355469 48.6237793 38.6455078 48.7653809 38.3383789 48.7653809zM33.2148438 46.7653809h3.8481445l-.7353516-2.9921875c-.1005859-.4091797.0668945-.8378906.418457-1.0712891.8188477-.5439453 1.3076172-1.4511719 1.3076172-2.4287109 0-1.6074219-1.3076172-2.9150391-2.9145508-2.9150391-1.6074219 0-2.9150391 1.3076172-2.9150391 2.9150391 0 .9775391.4887695 1.8847656 1.3076172 2.4287109.3515625.2333984.519043.6621094.418457 1.0712891L33.2148438 46.7653809z"></path></svg>