<svg xmlns="http://www.w3.org/2000/svg" enable-background="new 0 0 2500 2000" viewBox="0 0 2500 2000"><path fill="#fff" d="M1910.4,335.63l161.04,607.14c-22.64-85.37-390.47-61.88-821.55,52.46s-762.19,276.25-739.55,361.62
			L349.3,749.71c-22.65-85.38,308.47-247.28,739.55-361.62S1887.76,250.25,1910.4,335.63z" class="colorffffff svgShape" opacity=".2"/><linearGradient id="a" x1="1540.532" x2="1537.275" y1="627.914" y2="833.041" gradientUnits="userSpaceOnUse"><stop class="stopColorffbd9f svgShape" offset=".387" stop-color="#9fff9f"/><stop class="stopColoref72a6 svgShape" offset="1" stop-color="#72ef72"/></linearGradient><path fill="url(#a)" d="M1671.56,592.93c-0.45,1.77-2.74,7.1-6.58,7.99c-3.84,0.89-10.19,3.55-13.36,6.66
				c-3.17,3.11-10.41,11.55-15.4,20.88c-4.98,9.33-8.15,14.65-3.62,13.77c4.53-0.89,17.66-11.1,19.02-6.66
				c1.36,4.43-2.72,10.65-8.6,13.09c-3,1.25-9.55,2.67-15.96,4.06c0,0,0,0-0.01,0c-6.15,1.33-12.16,2.63-14.82,3.71
				c-5.43,2.23-9.96,3.11-11.77,5.33c-1.81,2.22-66.07,141.18-72.6,142.16c-6.51,0.98-24.62,6.32-31.27,4.54
				c-6.64-1.79-76.82-26.65-85.51-34.35c-8.69-7.7,0.97-55.83,23.61-77.95c0,0,15.72,11.78,31.07,21.81
				c12.95,8.45,25.64,15.67,28.4,13.5c6.04-4.74,17.51-30.64,36.99-55.07c19.47-24.43,38.49-38.63,44.83-48.4
				c6.34-9.78,0.45-31.09,4.08-35.54c3.62-4.43,26.27-24.87,30.8-23.53c4.53,1.33,3.17,6.66,0,10.22
				c-3.17,3.55-9.96,7.99-10.87,9.77c-0.91,1.77-1.81,13.33-1.81,13.33s4.53-10.66,8.6-14.66c4.08-3.99,14.94-16.56,19.92-18.72
				c4.98-2.15,25.36-4.82,25.36-2.6c0,2.23-2.72,6.22-4.53,7.55c-1.81,1.33-14.94,6.32-16.3,7.82c-1.34,1.49-13.64,18.3-14.03,18.83
				c0.53-0.49,17.67-15.99,19.01-16.42c1.36-0.44,23.56-6.66,24.01-5.33c0.45,1.33-4.08,7.11-5.9,8c-1.81,0.88-11.32,7.1-13.13,8.87
				c-1.81,1.79-10.87,15.1-10.87,15.1s14.49-12.43,18.11-14.65C1652.08,593.81,1672.01,591.16,1671.56,592.93z"/><path fill="#78f078" d="M1627.05,652.72c-6.15,1.33-12.16,2.63-14.82,3.71c-5.43,2.23-9.96,3.11-11.77,5.33
				c-1.81,2.22-66.07,141.18-72.6,142.16c-6.51,0.98-24.62,6.32-31.27,4.54c-6.64-1.79-76.82-26.65-85.51-34.35
				c-8.69-7.7,0.97-55.83,23.61-77.95c0,0,15.72,11.78,31.07,21.81c-3.22,25.77-5.31,55.19,0.11,64.93
				c10.32,18.57,42.87,15.5,48.53,9.87c5.66-5.62-6.79-30.71,0-24.78c6.79,5.93,8.49,21.91,14.15,15.3
				c5.66-6.61,62.83-123.45,66.22-126.76C1598.14,653.28,1626.34,652.73,1627.05,652.72z" class="colorf078a5 svgShape" opacity=".56"/><linearGradient id="b" x1="1319.902" x2="1449.526" y1="641.2" y2="770.824" gradientUnits="userSpaceOnUse"><stop class="stopColor03dde0 svgShape" offset="0" stop-color="#03aae0"/><stop class="stopColor03cce0 svgShape" offset=".156" stop-color="#03aae0"/><stop class="stopColor1996f2 svgShape" offset=".715" stop-color="#19bdf2"/><stop class="stopColor1965f2 svgShape" offset=".981" stop-color="#19bdf2"/></linearGradient><path fill="url(#b)" d="M1430,789.47c-9,2.45-49-18.94-49-18.94l-42.11-80.38l-23.35-44.58c2.27-0.47,34.46-5.11,54.46,3.84
					c18.89,8.46,80.75,48.82,89.13,64.14c0.5,0.91-0.24,7.01-0.13,7.68C1461,733.42,1439,787.01,1430,789.47z"/><path fill="#19bdf2" d="M1430,789.47c-9,2.45-49-18.94-49-18.94l-42.11-80.38l12-13.47c0,0,68.11,93.97,80.11,85.29
					c5.56-4.02,16.72-23.45,27.08-43.12c0.5,0.91,0.81,1.7,0.92,2.37C1461,733.42,1439,787.01,1430,789.47z" class="color1965f2 svgShape" opacity=".63"/><linearGradient id="c" x1="1104.386" x2="1300.727" y1="530.918" y2="530.918" gradientUnits="userSpaceOnUse"><stop class="stopColor1f3356 svgShape" offset="0" stop-color="#1f4856"/><stop class="stopColor705e71 svgShape" offset="1" stop-color="#5e715e"/></linearGradient><path fill="url(#c)" d="M1283.96,534.77c0,0,17.66-14.83,16.73-33.22c-0.93-18.39-15.88-17.9-15.88-17.9s9.45-13.61-6.11-34.6
						c-15.56-20.99-32.3,0.95-32.3,0.95s-0.79-13.4-7.87-21.63c-7.08-8.23-8.88,14.04-8.88,14.04s-9.06-27.68-38.9-18.98
						s-35.73,36.05-35.73,36.05s-34.35-11.27-38.8-1.73c-4.45,9.54,18.16,12.84,18.16,12.84s-27.24,7.75-29.72,26.66
						c-2.48,18.91,12.84,25.39,12.84,25.39s-14.68,9.13-11.27,16.53c3.41,7.4,15.52,3.06,15.52,3.06s-15.43,17.08-3.5,30.03
						c11.93,12.94,16.61,13.91,16.61,13.91s-1.14,26.55,11.64,31.99c12.78,5.43,21.13,2.65,21.13,2.65s16.46,24.52,28.05,18.24
						c11.59-6.28,9.74-27.21,9.74-27.21L1283.96,534.77z"/><linearGradient id="d" x1="1013.255" x2="1013.255" y1="736.073" y2="921.189" gradientTransform="matrix(-.8205 .2001 .237 .9715 1882.069 -338.53)" gradientUnits="userSpaceOnUse"><stop class="stopColorffbd9f svgShape" offset=".387" stop-color="#9fff9f"/><stop class="stopColoref72a6 svgShape" offset="1" stop-color="#72ef72"/></linearGradient><path fill="url(#d)" d="M1176,688.39l95.21,70.23l57.58-64.89c0,0-49.7-36.66-53.88-74.1c-1.68-15.07-14.59-26.19-29.4-32.31
						c-22.03-9.11-48.28-7.17-48.18,9.38c0,0,21.9,19.8,22.09,58.26C1219.61,693.41,1176,688.39,1176,688.39z"/><path fill="#78f078" d="M1210.37,608.92c0,0,30.67,58.77,68.52,71.92c1.16,0.4,2.36,0.74,3.59,1.01l20.78-11.11
						c0,0-24.17-13.68-28.35-51.11c-1.68-15.07-14.59-26.19-29.4-32.31C1222.92,594.46,1210.37,608.92,1210.37,608.92z" class="colorf078a5 svgShape"/><linearGradient id="e" x1="1118.357" x2="1158.717" y1="765.636" y2="889.598" gradientTransform="scale(-1 1) rotate(19.999 514.261 -5994.649)" gradientUnits="userSpaceOnUse"><stop class="stopColorffbd9f svgShape" offset=".387" stop-color="#9fff9f"/><stop class="stopColoref72a6 svgShape" offset="1" stop-color="#72ef72"/></linearGradient><path fill="url(#e)" d="M1167.99,606.08c3.46,8.97,25.38,9.46,25.38,9.46s18.51,21.57,25.37,28.07
						c5.31,5.02,47.64-1.49,69.8-7.39c0.05,0,0.09-0.02,0.13-0.03c15.12-4.81,7.58-15.72,10.92-27.41
						c3.46-12.16,0.93-39.81,0.78-41.52c-0.01-0.06-0.02-0.09-0.02-0.09c-0.82-3.48-1.71-6.51-2.65-8.88
						c-6.73-16.85-15.76-21.92-14.37-34c1.4-12.09-13.75-29.73-13.75-29.73l-20.12,7.32c0,0-4.23,13.11-28.15,22.45
						c-23.92,9.35-47.12,7.51-49.9,10.44c-2.79,2.95,14.66,26.17,17.76,34.69c3.1,8.52,10.29,12.33,3.11,15.59
						c-7.18,3.26-20.76-11.1-28.8-4.95C1155.45,586.26,1164.52,597.11,1167.99,606.08z"/><ellipse cx="1273.56" cy="547.04" fill="#154251" class="color152e51 svgShape" rx="4.91" ry="7.57" transform="rotate(-19.999 1273.41 547.009)"/><path fill="#154251" d="M1224.7,567.12c1.43,3.93,4.66,6.36,7.21,5.43c2.55-0.93,3.46-4.86,2.03-8.79s-4.66-6.36-7.21-5.43
						C1224.18,559.26,1223.27,563.2,1224.7,567.12z" class="color152e51 svgShape"/><path fill="#42c142" d="M1264.58,559.62c-1.72,9.89,8.75,7.87,12.58,13.59c2.49,3.71-0.87,5.18-1.39,8.49
						c-0.41,2.59-4.11,1.5-3.7-1.09c0.26-1.62,2.44-4.07,1.37-5.69c-0.51-0.77-3.44-1.78-4.12-2.13c-1.47-0.74-3.11-1.41-4.52-2.32
						c-4.13-2.68-4.72-7.37-3.92-11.95C1261.33,555.95,1265.03,557.04,1264.58,559.62L1264.58,559.62z" class="colorc14276 svgShape" opacity=".36"/><path fill="#154251" d="M1277.28,530.54c0.54,0.07-5.51-3.55-8.58-3.02c-3.06,0.54-6.06,1.25-6.36,3.08
						c-0.29,1.83-0.4,4.17,1.29,3.56C1265.34,533.55,1272.25,529.88,1277.28,530.54z" class="color152e51 svgShape"/><path fill="#154251" d="M1227.27,545.44c0,0,1.79,2.85,1.43,3.94c-0.35,1.09-4.14,1.12-7.06,4.49c-2.92,3.36-5.58,6.06-5.58,6.06
						s0.12-5.41,1.52-8.99C1218.97,547.35,1225.98,542.78,1227.27,545.44z" class="color152e51 svgShape"/><path fill="#fff" d="M1266.25,544.37c0.48,1.33,1.95,2.01,3.28,1.53c1.33-0.48,2.01-1.95,1.53-3.28
						c-0.48-1.33-1.95-2.01-3.28-1.53C1266.45,541.58,1265.77,543.05,1266.25,544.37z" class="colorffffff svgShape"/><path fill="#fff" d="M1222.43,563.04c0.48,1.33,1.95,2.01,3.28,1.53c1.33-0.48,2.01-1.95,1.53-3.28
						c-0.48-1.33-1.95-2.01-3.28-1.53C1222.64,560.25,1221.95,561.71,1222.43,563.04z" class="colorffffff svgShape"/><path fill="#42c142" d="M1261.27,613.85c2.24,0.65,4.78,1.08,7.63,1.2c7.41,0.33,13.64-2.45,17.67-6.93
						c3.14-3.47,4.96-7.97,5-12.83c0.01-1.77-1.71-2.92-3.28-2.33c-0.16,0.03-0.31,0.12-0.48,0.21c-2.81,1.77-7.46,4.15-14.04,5.76
						c-8.66,2.11-20.17,1.03-24.97,1.7c-1.68,0.23-2.53,0.68-2.19,1.54C1247.69,604.89,1251.83,611.21,1261.27,613.85z" class="colorc14276 svgShape"/><path fill="#fff" d="M1248.8,600.64l1.38,2.92c0.31,0.65,9.25,2.14,19.95-0.24c10.69-2.38,16.41-6.02,17.77-6.79
						c0.6-0.35,0.58-1.91,0.38-3.56c-0.16,0.03-0.31,0.12-0.48,0.21c-2.81,1.77-7.46,4.15-14.04,5.76
						C1265.11,601.05,1253.6,599.97,1248.8,600.64z" class="colorffffff svgShape"/><g class="color000000 svgShape"><path fill="#6ea5b7" d="M1187.36,550.86c0,0-17.62,19.05-27.95,24.36c-10.33,5.31-32.51,11.69-32.51,11.69s-0.68,6.6,5.06,14.07
						c5.75,7.47,11.1,15.63,11.1,15.63s4.45-2.16,8.86-6.92s13.84-10.22,13.84-10.22s-9.12-3.51-3.53-13.47
						c5.6-9.96,1.74-10.84,9.18-7.17c7.44,3.68,14.04,9.25,16.75,8.28c2.71-0.97,9.48-3.41,9.48-3.41L1187.36,550.86z" class="color716eb7 svgShape"/><path fill="#154251" d="M1176.6,538.84l22.84,63.5c3.24,1.79,5.21,2.88,8.45,4.67c20.44-5.22,55.85-14.64,58.97-18.01
						c4.41-4.76,8.81-9.53,19.3-10.12c8.08-0.46,35.86-11.77,48.19-16.96c-0.09-0.6-0.25-1.2-0.47-1.8l-24.8-68.94
						c-1.82-5.05-7.23-7.73-12.09-5.98l-114.88,41.33C1177.25,528.28,1174.78,533.79,1176.6,538.84z" class="color152e51 svgShape"/><linearGradient id="f" x1="-115.192" x2="27.31" y1="774.553" y2="774.553" gradientTransform="scale(-1 1) rotate(19.785 13.699 -2834.492)" gradientUnits="userSpaceOnUse"><stop class="stopColor4c5f9b svgShape" offset="0" stop-color="#4c889b"/><stop class="stopColor27316f svgShape" offset=".761" stop-color="#275d6f"/></linearGradient><path fill="url(#f)" d="M1212.14,601.54l126.56-45.53c2.08-0.75,3.16-3.04,2.41-5.12l-23.74-65.98
						c-0.75-2.08-3.04-3.16-5.12-2.41l-126.56,45.53c-2.08,0.75-3.16,3.04-2.41,5.12l23.74,65.98
						C1207.77,601.21,1210.06,602.29,1212.14,601.54z"/><path fill="#6ea5b7" d="M1205.76,530.74l20.13,55.94c1.11,3.1,4.13,4.87,6.73,3.94l99.96-35.96c2.6-0.93,3.79-4.23,2.68-7.32
						l-20.13-55.94c-1.12-3.11-4.13-4.87-6.73-3.94l-99.96,35.96C1205.84,524.35,1204.64,527.63,1205.76,530.74z" class="color716eb7 svgShape"/><path fill="#c2ffc2" d="M1278.06,520.62l31.42-11.3c1.42-0.51,2.16-2.08,1.65-3.5l-1.19-3.3c-0.51-1.42-2.08-2.16-3.5-1.65
								l-31.42,11.31c-1.42,0.51-2.16,2.08-1.65,3.5l1.19,3.29C1275.07,520.39,1276.64,521.13,1278.06,520.62z" class="colorc2fff3 svgShape" opacity=".72"/><rect width="116.23" height="2.99" x="1216.5" y="548.97" fill="#154251" class="color152e51 svgShape" transform="rotate(-19.785 1274.697 550.474)"/></g><g class="color000000 svgShape"><path fill="#fff" d="M1048.22,1059.75l-62.61-97.22l-2.74,0.87l61.5,103.15l-127.47,29.34l22.76-118.85l-2.94,0.93
							l-28.2,124.81c0,0-16.23,70.85,62.71,41.89S1063.74,1083.86,1048.22,1059.75z" class="colorffffff svgShape"/><linearGradient id="g" x1="1008.692" x2="1206.406" y1="1198.652" y2="1198.652" gradientUnits="userSpaceOnUse"><stop class="stopColorfe9a81 svgShape" offset="0" stop-color="#81fe81"/><stop class="stopColorfde090 svgShape" offset=".981" stop-color="#90fd90"/></linearGradient><polygon fill="url(#g)" points="1055.18 1031.6 1039.25 1054.02 1008.69 1054.02 1127.8 1365.7 1159.82 1348.95 1206.41 1339.25"/><polygon fill="#5cfb5c" points="1055.18 1031.6 1039.25 1054.02 1008.69 1054.02 1127.8 1365.7 1159.82 1348.95 1206.41 1339.25" class="colorfb5c88 svgShape" opacity=".53"/><linearGradient id="h" x1="866.734" x2="1127.796" y1="1217.272" y2="1217.272" gradientUnits="userSpaceOnUse"><stop class="stopColorfe9a81 svgShape" offset="0" stop-color="#81fe81"/><stop class="stopColorfde090 svgShape" offset=".981" stop-color="#90fd90"/></linearGradient><polygon fill="url(#h)" points="1008.69 1054.02 866.73 1072.49 933.7 1380.52 1127.8 1365.7"/><g class="color000000 svgShape"><polygon fill="#5cfb5c" points="1039.25 1054.02 1159.82 1348.95 1034 1054.02" class="colorfb5c88 svgShape"/></g><g class="color000000 svgShape"><linearGradient id="i" x1="1127.796" x2="1206.406" y1="1339.335" y2="1339.335" gradientUnits="userSpaceOnUse"><stop class="stopColorfe9a81 svgShape" offset="0" stop-color="#81fe81"/><stop class="stopColorfde090 svgShape" offset=".981" stop-color="#90fd90"/></linearGradient><polygon fill="url(#i)" points="1206.41 1339.25 1144.47 1312.97 1127.8 1365.7 1159.82 1348.95"/></g></g><linearGradient id="j" x1="792.279" x2="1130.05" y1="951.413" y2="951.413" gradientUnits="userSpaceOnUse"><stop class="stopColorffbd9f svgShape" offset=".387" stop-color="#9fff9f"/><stop class="stopColoref72a6 svgShape" offset="1" stop-color="#72ef72"/></linearGradient><path fill="url(#j)" d="M1130.05,875.65c0,0-68.07,95.31-69.72,98.95c-1.65,3.62-3.3,4.95-13.86,8.25
				c-10.56,3.3-12.21,0.33-37.62,5.28c-25.41,4.95-77.88,11.23-90.41,11.23c-9.81,0-23.31,10.2-30.5,17.13
				c-0.01,0.01-0.01,0.01-0.01,0.01c-1.99,1.92-3.5,3.59-4.31,4.72c-3.71,5.2-15.59,17.08-20.05,23.76
				c-4.45,6.68-5.44,2.23-7.42-4.21c-1.98-6.43,11.38-15.1,10.89-19.55c-0.49-4.45-4.7-3.46-13.86-0.74
				c-9.16,2.72-21.28,19.8-23.02,22.27c-1.73,2.47-3.46,22.03-4.45,24.01c-0.99,1.98-1.98,2.97-4.45,2.97
				c-2.47,0-3.96-29.45-3.22-33.16c0.72-3.59,15.37-21.36,16.28-22.47c-1.1,1.11-18.56,18.8-20,20c-1.48,1.24-4.45,24.5-5.2,25.49
				c-0.74,0.99-1.73,1.73-5.44,0c-3.71-1.73-1.24-27.47-0.74-30.19c0.49-2.68,21.36-26.95,22.01-27.7
				c-0.69,0.6-23.05,20.04-25.97,20.52c-2.97,0.49-2.72,0-6.43-2.97c-3.71-2.97,32.42-42.07,35.39-42.82
				c2.97-0.74,28.96-6.93,42.82-4.33c13.86,2.6,32.17-19.43,64.84-33.79c32.67-14.35,88.11-35.64,91.57-41.08
				c2.37-3.72,18.86-32.29,29.06-50.01c4.73-8.21,8.11-14.09,8.11-14.09L1130.05,875.65z"/><path fill="#78f078" d="M1130.05,875.65c0,0-68.07,95.31-69.72,98.95c-1.65,3.62-3.3,4.95-13.86,8.25
				c-10.56,3.3-12.21,0.33-37.62,5.28c-25.41,4.95-77.88,11.23-90.41,11.23c-9.81,0-23.31,10.2-30.5,17.13
				c0.26-0.49,8.7-15.92,24.78-22.74c16.33-6.93,82.17-11.88,99.49-15.34c17.32-3.46,35.14-19.3,34.65-40.59
				c-0.48-20.95-19.1-39.98-19.68-40.58c0.54,0.41,17.8,13.59,24.14,28.7c6.43,15.34,4.45,30.19,2.97,39.1
				c-1.48,8.91,51.48-55.27,33.16-71.77c-9.42-8.49-21.61-28.57-31.21-46.05c4.73-8.21,8.11-14.09,8.11-14.09L1130.05,875.65z" class="colorf078a5 svgShape"/><g class="color000000 svgShape"><linearGradient id="k" x1="1552.587" x2="1622.005" y1="1535.656" y2="1535.656" gradientUnits="userSpaceOnUse"><stop class="stopColorffbd9f svgShape" offset=".387" stop-color="#9fff9f"/><stop class="stopColoref72a6 svgShape" offset="1" stop-color="#72ef72"/></linearGradient><path fill="url(#k)" d="M1564.66,1480.94c0,0-2.48,36.42-5.71,48.92c-3.23,12.51-7,22.44-6.28,28.34
					c0.72,5.9,8.94,32.32,22.39,32.17c13.45-0.15,32.56-6.98,32.56-6.98s-1.28-26.77,0.22-38.92s14.16-39.13,14.16-39.13
					L1564.66,1480.94z"/><linearGradient id="l" x1="1536.859" x2="1647.501" y1="1602.643" y2="1602.643" gradientUnits="userSpaceOnUse"><stop class="stopColor03cce0 svgShape" offset="0" stop-color="#03aae0"/><stop class="stopColor74f195 svgShape" offset="1" stop-color="#6c6"/></linearGradient><path fill="url(#l)" d="M1536.89,1584.07c0,0,12.08-39.87,17.1-35.5c5.02,4.37,11.07,17.1,15.9,23.98
							c4.83,6.89,8.87,11.38,8.76,6.41c-0.11-4.97-5.94-7.75-1.14-9.33c4.79-1.58,31.64-10.35,34.21-5.68s5.54,16.78,8.47,24.4
							s29.68,38.76,27.14,46.55s-10,20.17-19.76,21.87c-9.77,1.69-23.87-3.56-40.47-20.98
							C1570.51,1618.36,1535.64,1588.06,1536.89,1584.07z"/><linearGradient id="m" x1="1167.628" x2="1242.864" y1="1723.972" y2="1723.972" gradientUnits="userSpaceOnUse"><stop class="stopColorffbd9f svgShape" offset=".387" stop-color="#9fff9f"/><stop class="stopColoref72a6 svgShape" offset="1" stop-color="#72ef72"/></linearGradient><path fill="url(#m)" d="M1188.91,1668.88c0,0-6.89,35.85-11.61,47.87c-4.72,12.02-9.67,21.43-9.67,27.37s4.95,33.16,18.31,34.65
					c13.36,1.48,33.16-2.97,33.16-2.97s1.98-26.73,4.95-38.61c2.97-11.88,18.81-37.12,18.81-37.12L1188.91,1668.88z"/><linearGradient id="n" x1="1177.301" x2="1649.644" y1="1368.986" y2="1368.986" gradientUnits="userSpaceOnUse"><stop class="stopColor204ce0 svgShape" offset="0" stop-color="#20b1e0"/><stop class="stopColor955bed svgShape" offset="1" stop-color="#5bc9ed"/></linearGradient><path fill="url(#n)" d="M1649.64,1139.03c0,15.07-16.24,332.93-21.07,385.17c-0.26,2.67-0.47,4.65-0.65,5.86
						c-3.77,24.75-82.13,5.94-89.68,2.97s-18.89-333.61-19.83-340.54c-0.94-6.93-130.29,14.85-130.29,14.85
						s69.86,142.55,72.7,155.42c2.83,12.87-9.44,53.46-13.23,64.35c-3.77,10.89-199.51,272.9-203.92,286.76
						c-3.24,10.17-34.25-8.8-52.53-21.7c-6.63-4.69-11.58-8.57-12.93-9.98c-5.03-5.28,10.07-25.74,52.24-120.11
						c42.17-94.38,101.96-187.44,101.96-195.36c0-7.92-82.14-54.45-127.46-157.4c-45.31-102.95-10.38-188.09-10.38-188.09h242.63
						c0,0,172.77,31.68,176.55,31.68C1617.54,1052.9,1649.64,1123.19,1649.64,1139.03z"/><path fill="#0d3542" d="M1628.58,1524.2c-0.26,2.67-0.47,4.65-0.65,5.86c-3.77,24.75-82.13,5.94-89.68,2.97
					s-18.89-333.61-19.83-340.54c-0.94-6.93-130.29,14.85-130.29,14.85l-42.48-98.6c0,0,62.7-21.13,60.72-17.82
					c-1.98,3.3-38.28,23.76-38.28,23.76s50.16,55.44,59.4,55.44s75.9-2.64,88.43-13.21c12.54-10.55,7.92-27.06,21.78-40.91
					c13.86-13.86,19.8-23.1,17.82-15.84c-1.98,7.26-25.74,44.87-27.06,60.06c-1.32,15.18,25.82,22.31,27.43,47.12
					c1.6,24.81,7.22,262.07,18.11,290.78C1579.24,1511.91,1604.14,1519.76,1628.58,1524.2z" class="color0d1942 svgShape" opacity=".38"/><path fill="#0d3542" d="M1384.52,1368.98c-4.45,6.94-20.79,15.85-23.76,21.79c-2.47,4.93-127.27,226.33-169.6,301.39
					c-6.63-4.69-11.58-8.57-12.93-9.98c-5.03-5.28,10.07-25.74,52.24-120.11c42.17-94.38,101.96-187.44,101.96-195.36
					c0-7.92-82.14-54.45-127.46-157.4c-45.31-102.95-10.38-188.09-10.38-188.09h200.62c-35.11,14.31-80.19,31.85-105.71,38.43
					c-46.05,11.88-53.48,32.67-53.48,57.91c0,25.23,75.62,160.52,104.63,199.05C1369.67,1355.13,1388.97,1362.04,1384.52,1368.98z" class="color0d1942 svgShape" opacity=".38"/><g class="color000000 svgShape"><linearGradient id="o" x1="1148.749" x2="1252.627" y1="1792.66" y2="1792.66" gradientUnits="userSpaceOnUse"><stop class="stopColor03cce0 svgShape" offset="0" stop-color="#03aae0"/><stop class="stopColor74f195 svgShape" offset="1" stop-color="#6c6"/></linearGradient><path fill="url(#o)" d="M1148.82,1767.87c0,0,16.83-38.11,21.28-33.16c4.45,4.95,8.91,18.31,12.87,25.74s7.42,12.37,7.92,7.42
						c0.49-4.95-4.95-8.41,0-9.4s32.67-6.43,34.65-1.48c1.98,4.95,3.46,17.32,5.44,25.24c1.98,7.92,24.75,42.07,21.28,49.5
						c-3.46,7.42-12.37,18.81-22.27,19.3c-9.9,0.49-23.26-6.43-37.62-25.74C1178.02,1805.99,1147.09,1771.68,1148.82,1767.87z"/></g></g><g class="color000000 svgShape"><linearGradient id="p" x1="1058.24" x2="1445.296" y1="854.865" y2="854.865" gradientUnits="userSpaceOnUse"><stop class="stopColor1965f2 svgShape" offset=".019" stop-color="#19bdf2"/><stop class="stopColor1996f2 svgShape" offset=".285" stop-color="#19bdf2"/><stop class="stopColor03cce0 svgShape" offset=".844" stop-color="#03aae0"/><stop class="stopColor03dde0 svgShape" offset="1" stop-color="#03aae0"/></linearGradient><path fill="url(#p)" d="M1444.32,1029.87c-5.94,3.96-84.15,8.91-102.96,16.83c-18.8,7.92-48.5-4.95-81.17,0
						c-32.67,4.95-81.18,25.73-83.16,18.8c-1.06-3.72,2.73-38.61,5.4-77.17c2.29-33.17,3.75-69.06,0.54-90.13
						c-0.22-1.42-0.43-2.81-0.64-4.17c-0.34-2.18-0.67-4.29-1-6.32c-0.19-1.15-0.38-2.29-0.56-3.39c-0.24-1.47-0.48-2.9-0.72-4.28
						c-0.1-0.57-0.19-1.13-0.29-1.69c-0.15-0.95-0.31-1.87-0.48-2.78c-0.08-0.46-0.16-0.91-0.24-1.35
						c-0.08-0.44-0.16-0.88-0.23-1.32c-0.01-0.07-0.02-0.14-0.04-0.2c-0.12-0.74-0.25-1.47-0.39-2.17
						c-0.01-0.06-0.02-0.13-0.03-0.19c-0.02-0.09-0.03-0.18-0.05-0.27c-0.13-0.75-0.27-1.47-0.4-2.19
						c-0.02-0.11-0.04-0.21-0.06-0.32c-0.12-0.69-0.25-1.36-0.38-2.02c-0.07-0.41-0.15-0.81-0.22-1.19
						c-0.07-0.36-0.14-0.71-0.21-1.05c-0.18-0.96-0.36-1.89-0.54-2.78c-0.08-0.44-0.17-0.88-0.25-1.3c-0.21-1.02-0.41-2-0.6-2.94
						c-0.12-0.61-0.25-1.21-0.37-1.78c0,0,0-0.01,0-0.02c-0.06-0.28-0.12-0.56-0.18-0.83c-0.06-0.28-0.12-0.56-0.18-0.83
						c-0.05-0.28-0.11-0.55-0.17-0.81c-0.06-0.27-0.12-0.53-0.17-0.78c-0.1-0.46-0.2-0.88-0.29-1.3c-0.03-0.13-0.06-0.25-0.08-0.37
						c-0.09-0.41-0.18-0.8-0.27-1.18c-0.02-0.11-0.05-0.2-0.07-0.3c-0.03-0.14-0.06-0.28-0.09-0.41c-0.02-0.13-0.05-0.25-0.08-0.37
						c-0.05-0.23-0.11-0.46-0.16-0.68c-0.36-1.56-0.69-2.91-0.98-4.05c-0.04-0.17-0.08-0.34-0.12-0.5c-0.04-0.14-0.07-0.27-0.11-0.4
						c-0.02-0.06-0.03-0.12-0.04-0.18c-0.05-0.17-0.09-0.34-0.13-0.49c-0.06-0.22-0.11-0.43-0.17-0.63
						c-0.12-0.48-0.23-0.91-0.34-1.28c-0.02-0.09-0.04-0.17-0.07-0.25c0-0.03-0.01-0.06-0.02-0.09c-0.02-0.06-0.03-0.11-0.05-0.16
						c-0.02-0.07-0.04-0.14-0.05-0.2c-0.02-0.05-0.03-0.09-0.04-0.13c-0.06-0.21-0.11-0.39-0.16-0.54
						c-0.01-0.05-0.02-0.09-0.04-0.13c-0.08-0.27-0.12-0.4-0.12-0.4s-35.14,46.16-40.59,49.63c-4.22,2.69-29-8.92-42.9-16.12
						c-4.02-2.08-7.13-3.78-8.57-4.67c-6.44-3.96-20.79-23.03-20.79-28.84s46.53-67.68,52.47-83.02
						c5.94-15.35,18.31-36.14,27.22-45.54c0.15-0.16,0.31-0.32,0.48-0.48c0.14-0.13,0.29-0.27,0.45-0.41
						c0.58-0.53,1.28-1.09,2.08-1.68c0.18-0.14,0.37-0.28,0.56-0.41c1.34-0.98,2.91-2.03,4.68-3.14c0.25-0.16,0.51-0.32,0.77-0.48
						c0.52-0.33,1.05-0.65,1.6-0.98c0.27-0.17,0.55-0.33,0.83-0.5c0.84-0.51,1.71-1.02,2.6-1.53c0.3-0.17,0.6-0.35,0.91-0.52
						c0.53-0.31,1.08-0.62,1.62-0.93c0.38-0.21,0.78-0.43,1.17-0.65c0.95-0.54,1.92-1.08,2.91-1.61c0.64-0.35,1.28-0.7,1.92-1.05
						c0.36-0.2,0.72-0.39,1.08-0.58c0.64-0.34,1.27-0.68,1.92-1.03c0.73-0.39,1.45-0.77,2.18-1.15c0.34-0.18,0.69-0.36,1.03-0.54
						c1.38-0.73,2.77-1.45,4.15-2.15c1.6-0.82,3.19-1.63,4.76-2.43c0.89-0.45,1.77-0.9,2.64-1.33c1.74-0.87,3.46-1.72,5.11-2.54
						c3.34-1.64,6.45-3.16,9.13-4.45c0.62-0.3,1.21-0.58,1.78-0.86c0.01,0,0.02-0.01,0.03-0.02c0.56-0.26,1.09-0.52,1.6-0.76
						c1.29-0.62,2.42-1.15,3.34-1.59c0.19-0.09,0.36-0.17,0.53-0.25c0.68-0.32,1.22-0.58,1.61-0.76c0.09-0.04,0.17-0.08,0.25-0.11
						c0.08-0.05,0.15-0.08,0.21-0.11c0.07-0.03,0.12-0.05,0.16-0.08c0.06-0.02,0.09-0.03,0.09-0.03s24.09,36.62,56.1,41.57
						c32,4.95,38.28-5.94,41.58-20.79c2.46-11.1-4.3-30.33-7.86-39.32l-0.03-0.08c-0.92-2.32-1.63-3.94-1.89-4.55
						c-0.04-0.09-0.07-0.16-0.09-0.2l-0.03-0.07c0,0,0.06-0.01,0.17-0.03c0.06-0.01,0.12-0.02,0.21-0.04c0.04,0,0.08-0.01,0.13-0.02
						c0.13-0.02,0.28-0.05,0.45-0.08c0.02,0,0.04,0,0.07-0.01c0.13-0.02,0.28-0.05,0.43-0.07c0.45-0.08,1-0.18,1.64-0.29
						c0.18-0.03,0.37-0.06,0.56-0.1c0.08-0.01,0.16-0.03,0.24-0.04c0.24-0.04,0.5-0.09,0.76-0.14c1.34-0.23,2.91-0.51,4.68-0.83
						c1.18-0.21,2.45-0.44,3.78-0.68c0.64-0.11,1.3-0.23,1.98-0.36c0.34-0.06,0.68-0.12,1.03-0.19c0.69-0.12,1.39-0.25,2.11-0.38
						c6.35-1.17,13.65-2.55,20.67-3.96c0,0,1.45,1.8,3.88,5c5.16,6.8,14.77,19.91,24.35,35.38c9.66,15.61,19.28,33.63,24.26,50
						c0.03,0.1,0.06,0.19,0.1,0.28c0.93,2.77,8.75,26.3,17.27,58.85c3.1,11.83,6.28,24.86,9.27,38.52c3.27,15,6.29,30.77,8.67,46.55
						c5.21,34.6,13.15,70.09,19.35,98.14c3.98,18,7.25,32.91,8.63,42.57C1445.55,1024.85,1445.6,1029.02,1444.32,1029.87z"/><path fill="#03aae0" d="M1407.93,830.86c-17.22,11.49-61.98,37.9-119.53,45.57c-51.54,6.87-89.96,4.21-108.64,1.93
						c-5.2-30.3-8.67-41.16-8.67-41.16s19.3,8.54,97.51-6.31c62.22-11.81,112.22-31.14,130.06-38.55
						C1401.76,804.17,1404.94,817.2,1407.93,830.86z" class="color03dde0 svgShape"/><path fill="#19bdf2" d="M1444.32,1029.87c-5.94,3.96-84.15,8.91-102.95,16.83c-18.81,7.92-48.51-4.95-81.18,0
						c-32.67,4.95-81.18,25.74-83.16,18.81c-1.06-3.72,2.73-38.62,5.4-77.18c2.3-33.17,3.75-69.06,0.54-90.13
						c-0.22-1.43-0.44-2.81-0.64-4.18c-0.34-2.18-0.67-4.29-1-6.32c-0.19-1.15-0.38-2.29-0.55-3.39c-0.25-1.48-0.49-2.9-0.72-4.29
						c-0.09-0.57-0.19-1.13-0.29-1.68c-0.16-0.95-0.32-1.87-0.48-2.78c-0.15-0.91-0.31-1.8-0.47-2.67
						c-0.16-0.88-0.31-1.73-0.47-2.56c-0.17-0.95-0.34-1.87-0.5-2.77c-0.13-0.69-0.26-1.37-0.39-2.03c-0.07-0.41-0.15-0.8-0.22-1.19
						c-0.07-0.36-0.14-0.7-0.21-1.05c-0.49-2.55-0.96-4.89-1.4-7.02c-0.12-0.61-0.25-1.21-0.37-1.78c0,0,0-0.01,0-0.02
						c-0.19-0.86-0.36-1.68-0.53-2.46c-0.06-0.28-0.12-0.53-0.17-0.78c-0.1-0.46-0.2-0.88-0.29-1.3c-0.03-0.13-0.06-0.26-0.08-0.38
						c-0.09-0.41-0.18-0.8-0.27-1.18c-0.02-0.11-0.05-0.2-0.07-0.3c-0.06-0.27-0.12-0.52-0.18-0.78c-0.43-1.85-0.8-3.43-1.14-4.73
						c-0.08-0.32-0.15-0.61-0.23-0.9c-0.06-0.23-0.11-0.46-0.17-0.66c-0.06-0.22-0.11-0.44-0.17-0.63
						c-0.19-0.72-0.35-1.32-0.49-1.78c-0.03-0.12-0.06-0.23-0.09-0.33c-0.21-0.73-0.32-1.07-0.32-1.07s4.95-2.35,3.63-18.19
						c-1.33-15.84-22.44-54.12-12.54-40.26s29.7,39.6,32.34,65.34c2.13,20.76,24.86,114.04,35.99,151.81
						c2.68,9.07,4.69,14.94,5.58,15.83c4.61,4.61,97.02,25.74,105.26,24.41c5.83-0.93,67.51-11.75,103.21-18.02
						C1445.55,1024.85,1445.6,1029.02,1444.32,1029.87z" class="color1965f2 svgShape" opacity=".63"/><path fill="#19bdf2" d="M1444.32,1029.87c-5.94,3.96-84.15,8.91-102.95,16.83c-18.81,7.92-48.51-4.95-81.18,0
						c-32.67,4.95-81.18,25.74-83.16,18.81c-1.06-3.72,2.73-38.62,5.4-77.18c14.02,2.25,31.21,4.97,48.09,7.56
						c31.44,4.84,61.75,9.23,68.28,9.23c7.98,0,76.8-15.56,137.16-29.57c3.98,18,7.25,32.92,8.62,42.57
						C1445.55,1024.85,1445.6,1029.02,1444.32,1029.87z" class="color1965f2 svgShape" opacity=".63"/><path fill="#03aae0" d="M1201.86,673.6c-3.76,1.93-49.3,25.33-55.02,34.53c-5.97,9.59-23.26,30.19-26.73,43.06
						c-3.46,12.87-48.51,84.15-49.5,88.6c-0.99,4.45,16.99,30.91,16.99,30.91c-4.02-2.08-7.13-3.78-8.57-4.67
						c-6.43-3.96-20.79-23.03-20.79-28.84c0-5.81,46.53-67.68,52.47-83.03c5.94-15.34,18.31-36.13,27.22-45.54
						C1146.49,699.59,1197.86,675.47,1201.86,673.6z" class="color03dde0 svgShape"/><path fill="#03aae0" d="M1332.68,647.83c-7.82,0.52-22.41,3.31-31.84,5.23c-5.25,1.08-8.91,1.89-8.91,1.89l-0.03-0.08l-1.89-4.55
						c-0.04-0.09-0.07-0.16-0.09-0.2l-0.03-0.07c0,0,0.06-0.01,0.17-0.03c0.06-0.01,0.12-0.02,0.21-0.04c0.04,0,0.08-0.01,0.13-0.02
						c0.13-0.02,0.28-0.05,0.45-0.08c0.02,0,0.04,0,0.07-0.01c0.13-0.02,0.27-0.05,0.43-0.07c0.45-0.08,1-0.18,1.64-0.29
						c0.18-0.03,0.37-0.07,0.56-0.1c0.08-0.01,0.16-0.03,0.24-0.04c0.24-0.04,0.49-0.09,0.76-0.14c1.34-0.23,2.91-0.51,4.68-0.83
						c1.18-0.21,2.45-0.44,3.78-0.68c0.64-0.11,1.3-0.23,1.98-0.36c0.34-0.06,0.68-0.12,1.03-0.19c0.69-0.12,1.39-0.25,2.11-0.38
						c6.35-1.17,13.65-2.55,20.67-3.96C1328.8,642.83,1330.25,644.63,1332.68,647.83z" class="color03dde0 svgShape"/><g class="color000000 svgShape"><path fill="#fff" d="M1279.99,727.93c-47.52,5.94-87.37-49.49-87.37-49.49s-0.05-0.13-0.11-0.39c4.93-2.38,8.42-4.02,9.36-4.45
						c0.07-0.03,0.12-0.05,0.16-0.08c0.06-0.02,0.09-0.04,0.09-0.04s24.1,36.63,56.1,41.58c32.01,4.95,38.28-5.94,41.58-20.79
						c2.46-11.11-4.3-30.33-7.86-39.32l-0.03-0.08c-1.05-2.65-1.82-4.4-1.98-4.75l-0.03-0.07c0,0,3.68-0.63,9.35-1.65
						C1299.23,648.4,1327.5,721.99,1279.99,727.93z" class="colorffffff svgShape"/></g></g><g class="color000000 svgShape"><path fill="#fff" d="M995.81,1120.94c-2.87,2.54-6.5,4.09-10.59,4.88c-0.94,0.19-1.91,0.33-2.89,0.44
					c-0.34,0.03-0.66,0.06-1,0.09c-22.36,1.83-54.43-14.2-54.43-14.2s-4.42-12.69-7.41-31.83c-0.58-3.74-1.12-7.72-1.55-11.91v-0.01
					c-0.3-2.8-0.54-5.69-0.73-8.66c-1.2-18.56,1.39-43.72,3.53-60.27c2.8,0.02,5.6,0.09,5.8,0.1c-1.58,9.66-3.2,21.65-3.74,32.99
					c-0.58,12.16,0.74,26.1,2.26,37.16c0.62,4.56,1.27,8.63,1.83,11.88c0.84,4.89,1.48,7.9,1.48,7.9l53.31,2.4l3.87,0.18l1.92,0.08
					h0.04l12.68,0.57c0,0,0.55-3.12,0.84-8.92c0.6-11.97,0.1-35.35-8.6-66.29c-2.94-10.45-5.69-18.76-8.19-25.33v-0.01l3.83-0.57
					c2.49,7.12,5.29,15.97,8.24,26.89c8.58,31.74,10.56,56.67,11.02,66.48c0.14,2.94,0.14,4.52,0.14,4.52s1.1,2.4,1.23,6.35
					C1008.87,1101.75,1006.9,1111.09,995.81,1120.94z" class="colorffffff svgShape"/><polygon fill="#0099cb" points="1031.72 1089.51 907.82 1066.54 874.5 1072.49 1013.09 1096.62 1023.33 1100.06" class="color14a2a5 svgShape"/><linearGradient id="q" x1="811.581" x2="1034.005" y1="1231.1" y2="1231.1" gradientUnits="userSpaceOnUse"><stop class="stopColor03cce0 svgShape" offset="0" stop-color="#03aae0"/><stop class="stopColor74f195 svgShape" offset="1" stop-color="#6c6"/></linearGradient><path fill="url(#q)" d="M811.58,1314.01l195.87,75.7c0,0,30.09-63.08,26.2-124.22s-20.56-168.87-20.56-168.87l-4.31-0.75
							l-134.29-23.39c0,0-9.21,114.29-20.13,164.15c-1.36,6.2-2.74,11.4-4.13,15.27c-1.08,2.98-2.25,5.9-3.49,8.75
							c-7.45,17.06-17.52,31.68-24.96,41.28C815.85,1309.56,811.58,1314.01,811.58,1314.01z"/><linearGradient id="r" x1="1007.456" x2="1076.633" y1="1242.523" y2="1242.523" gradientUnits="userSpaceOnUse"><stop class="stopColor03cce0 svgShape" offset="0" stop-color="#03aae0"/><stop class="stopColor74f195 svgShape" offset="1" stop-color="#6c6"/></linearGradient><path fill="url(#r)" d="M1007.46,1389.71c0,0,33-2.91,37.4-2.43c4.42,0.49,25.19,8.25,29.08,8.25s4.37-59.69-3.88-115
							s-38.33-191.02-38.33-191.02l-7.44,10.35l-11.18-3.23c0,0,16.68,107.72,20.56,168.87
							C1037.51,1326.18,1007.89,1388.79,1007.46,1389.71L1007.46,1389.71z"/><path fill="#0099cb" d="M1007.46,1389.71c0,0,33-2.91,37.4-2.43c4.42,0.49,25.19,8.25,29.08,8.25s4.37-59.69-3.88-115
							s-38.33-191.02-38.33-191.02l-7.44,10.35l-11.18-3.23c0,0,16.68,107.72,20.56,168.87
							C1037.51,1326.18,1007.89,1388.79,1007.46,1389.71L1007.46,1389.71z" class="color14a2a5 svgShape" opacity=".65"/><linearGradient id="s" x1="1007.456" x2="1073.934" y1="1380.52" y2="1380.52" gradientUnits="userSpaceOnUse"><stop class="stopColor03cce0 svgShape" offset="0" stop-color="#03aae0"/><stop class="stopColor74f195 svgShape" offset="1" stop-color="#6c6"/></linearGradient><path fill="url(#s)" d="M1007.46,1389.71c0,0,33-2.91,37.4-2.43c4.42,0.49,25.19,8.25,29.08,8.25l-18.7-27.44
							c-1.77-2.58-5.23-3.36-7.93-1.78L1007.46,1389.71L1007.46,1389.71z"/><path fill="#0099cb" d="M1051.75,1365.7c15.39-73.7-26.11-264.14-26.53-266.06l-1.9,0.42c0.42,1.91,41.84,191.95,26.53,265.24
							L1051.75,1365.7z" class="color14a2a5 svgShape" opacity=".96"/><g class="color000000 svgShape" opacity=".96"><path fill="#0099cb" d="M976.4,1135.44c0,5.09,2.9,9.22,6.47,9.22c3.57,0,6.47-4.13,6.47-9.22s-2.9-9.22-6.47-9.22
								C979.3,1126.22,976.4,1130.35,976.4,1135.44z" class="color14a2a5 svgShape"/><ellipse cx="902.05" cy="1119" fill="#0099cb" class="color14a2a5 svgShape" rx="6.47" ry="9.22"/></g><g class="color000000 svgShape"><path fill="#fff" d="M903.97,1118.73c0.14,1.07-0.59,2.05-1.66,2.19c-0.09,0.01-0.18,0.02-0.27,0.02
						c-0.95,0-1.78-0.69-1.92-1.66c-0.02-0.12-0.45-3.21-1-8.49c-0.8-7.65-1.89-19.93-2.43-34.43c-0.09-2.53-0.17-5.13-0.23-7.79
						c-0.23-11.35-0.07-23.73,0.83-36.13c0.69-9.51,1.63-17.97,2.68-25.37c1.13-0.6,2.62-1.41,4.26-2.26
						c-1.2,7.99-2.3,17.29-3.06,27.92c-0.88,12.05-1.05,24.08-0.84,35.15c0.06,3.14,0.15,6.21,0.27,9.17
						c0.52,13.73,1.54,25.37,2.33,32.84C903.51,1115.39,903.96,1118.62,903.97,1118.73z" class="colorffffff svgShape"/></g><g class="color000000 svgShape"><path fill="#fff" d="M982.87,1137.38c1.02,0,1.87-0.79,1.94-1.82c0.05-0.85,5.02-86.04-10.42-140.24
							c-11.28-39.61-20.95-57.82-32.31-60.9c-5.74-1.55-11.71,0.75-18.24,7.02c-0.77,0.74-0.8,1.97-0.06,2.74
							c0.74,0.77,1.97,0.8,2.74,0.06c5.47-5.25,10.23-7.24,14.54-6.08c9.61,2.6,19.02,21.1,29.59,58.21
							c15.26,53.57,10.33,138.09,10.28,138.94c-0.07,1.07,0.75,1.99,1.82,2.05C982.79,1137.38,982.83,1137.38,982.87,1137.38z" class="colorffffff svgShape"/></g><g class="color000000 svgShape"><path fill="#0099cb" d="M811.58,1318.34l199.36,77.2c0,0,30.62-64.33,26.67-126.68c-3.95-62.35-20.93-172.21-20.93-172.21
							l-4.39-0.76c2.07,66.78,5.68,188.63,4.39,190.79c-1.43,2.39-116.3-33.14-161.55-47.24c-1.38,6.32-2.79,11.63-4.21,15.57
							c-1.1,3.04-2.29,6.02-3.56,8.93c49.47,17.62,146.86,52.95,145.13,57.38c-2.3,5.94-22.06,28.7-28.97,30.68
							c-4.41,1.26-84.25-26.02-141.57-45.97C815.93,1313.79,811.58,1318.34,811.58,1318.34z" class="color14a2a5 svgShape" opacity=".4"/></g></g><g class="color000000 svgShape"><path fill="#78f078" d="M1599.88,604.18c11.4,0.22,22.04,3.32,31.71,9.19c1.39,0.85,2.67-1.3,1.29-2.14
					c-10.02-6.09-21.19-9.3-33-9.53C1598.24,601.67,1598.24,604.15,1599.88,604.18L1599.88,604.18z" class="colorf078a5 svgShape"/><path fill="#78f078" d="M1597.79,606.06c3.28,8.18,3.49,16.59,0.61,24.91c-0.53,1.52,1.93,2.17,2.46,0.66
					c3.01-8.68,2.81-17.7-0.61-26.23C1599.65,603.93,1597.19,604.57,1597.79,606.06L1597.79,606.06z" class="colorf078a5 svgShape"/></g><g class="color000000 svgShape" opacity=".32"><circle cx="1536.86" cy="857.65" r="25.37" fill="#8dff8d" class="color8dfff9 svgShape"/><circle cx="622.78" cy="1449.83" r="21.25" fill="#8dff8d" class="color8dfff9 svgShape" transform="rotate(-18.857 622.799 1449.872)"/><circle cx="1455.05" cy="765.98" r="15.12" fill="#8dff8d" class="color8dfff9 svgShape" transform="rotate(-76.714 1455.175 765.999)"/><circle cx="1054.14" cy="432.3" r="15.77" fill="#8dff8d" class="color8dfff9 svgShape"/><circle cx="1728.96" cy="374.09" r="14.93" fill="#8dff8d" class="color8dfff9 svgShape" transform="rotate(-76.714 1729.1 374.07)"/><circle cx="721.9" cy="1309.11" r="11.61" fill="#8dff8d" class="color8dfff9 svgShape"/></g><g class="color000000 svgShape"><circle cx="1987.17" cy="1368.84" r="59.73" fill="#2e8faf" class="color2e6eaf svgShape" transform="rotate(-80.781 1987.193 1368.813)"/><circle cx="370.38" cy="1378.75" r="29.8" fill="#38778b" class="color40388b svgShape"/><circle cx="1562.08" cy="187.07" r="25.22" fill="#38778b" class="color40388b svgShape"/></g><g class="color000000 svgShape"><linearGradient id="t" x1="953.295" x2="953.295" y1="688.297" y2="792.257" gradientTransform="matrix(1 -.4674 0 1 0 459.9)" gradientUnits="userSpaceOnUse"><stop class="stopColor03dde0 svgShape" offset="0" stop-color="#03aae0"/><stop class="stopColor03cce0 svgShape" offset=".156" stop-color="#03aae0"/><stop class="stopColor1996f2 svgShape" offset=".715" stop-color="#19bdf2"/><stop class="stopColor1965f2 svgShape" offset=".981" stop-color="#19bdf2"/></linearGradient><path fill="url(#t)" d="M1042.04,670.55v91.84c0,1.56-1.37,3.41-3.07,4.14l-171.36,73.61c-1.7,0.73-3.07,0.06-3.07-1.5v-91.84
					c0-1.56,1.37-3.41,3.07-4.14l171.36-73.61C1040.67,668.32,1042.04,669,1042.04,670.55z"/><polygon fill="#2c7e99" points="1042.04 685.01 1042.04 705.45 864.55 781.71 864.55 761.26" class="color372c99 svgShape"/><linearGradient id="u" x1="1008.176" x2="1008.176" y1="750.593" y2="774.204" gradientTransform="matrix(1 -.4674 0 1 0 459.962)" gradientUnits="userSpaceOnUse"><stop class="stopColorffd715 svgShape" offset="0" stop-color="#15ff15"/><stop class="stopColorf7931e svgShape" offset="1" stop-color="#1ef71e"/></linearGradient><path fill="url(#u)" d="M995.69,747.37c1.6-0.69,2.89,0,2.89,1.53v0.3l19.19-8.24v-0.3c0-1.53,1.29-3.32,2.89-4.01l2.58-1.11v-3.36
				c0-0.87-0.74-1.26-1.65-0.87l-26.83,11.52c-0.91,0.39-1.65,1.42-1.65,2.29v3.36L995.69,747.37z"/><linearGradient id="v" x1="1020.918" x2="1020.918" y1="751.239" y2="772.932" gradientTransform="matrix(1 -.4674 0 1 0 459.962)" gradientUnits="userSpaceOnUse"><stop class="stopColorffd715 svgShape" offset="0" stop-color="#15ff15"/><stop class="stopColorf7931e svgShape" offset="1" stop-color="#1ef71e"/></linearGradient><path fill="url(#v)" d="M1018.6,740.3v1.35c0,1.09,0.93,1.58,2.06,1.09l2.58-1.11v-5.31l-2.58,1.11
				C1019.52,737.93,1018.6,739.21,1018.6,740.3z"/><linearGradient id="w" x1="1008.176" x2="1008.176" y1="749.782" y2="773.393" gradientTransform="matrix(1 -.4674 0 1 0 459.962)" gradientUnits="userSpaceOnUse"><stop class="stopColorffd715 svgShape" offset="0" stop-color="#15ff15"/><stop class="stopColorf7931e svgShape" offset="1" stop-color="#1ef71e"/></linearGradient><path fill="url(#w)" d="M1020.66,743.54c-1.6,0.69-2.89,0-2.89-1.53v-0.26l-19.19,8.24v0.26c0,1.53-1.29,3.32-2.89,4.01l-2.58,1.11
				v3.4c0,0.87,0.74,1.26,1.65,0.87l26.83-11.52c0.91-0.39,1.65-1.42,1.65-2.29v-3.4L1020.66,743.54z"/><linearGradient id="x" x1="995.434" x2="995.434" y1="750.199" y2="771.893" gradientTransform="matrix(1 -.4674 0 1 0 459.962)" gradientUnits="userSpaceOnUse"><stop class="stopColorffd715 svgShape" offset="0" stop-color="#15ff15"/><stop class="stopColorf7931e svgShape" offset="1" stop-color="#1ef71e"/></linearGradient><path fill="url(#x)" d="M997.76,750.61v-1.35c0-1.09-0.93-1.58-2.06-1.09l-2.58,1.11v5.31l2.58-1.11
				C996.83,752.98,997.76,751.7,997.76,750.61z"/><g class="color000000 svgShape"><path fill="#b3ffb3" d="M949.37,768.71l-66.79,28.69c-1.16,0.5-2.11,0.04-2.11-1.03v-0.89c0-1.07,0.94-2.34,2.11-2.84l66.79-28.69
				c1.16-0.5,2.11-0.04,2.11,1.03v0.89C951.47,766.94,950.53,768.21,949.37,768.71z" class="colorbcb3ff svgShape"/><path fill="#b3ffb3" d="M922.69,789.69l-40.11,17.23c-1.16,0.5-2.11,0.04-2.11-1.03V805c0-1.07,0.94-2.34,2.11-2.84l40.11-17.23
				c1.16-0.5,2.11-0.04,2.11,1.03v0.89C924.8,787.92,923.86,789.19,922.69,789.69z" class="colorbcb3ff svgShape"/></g><path fill="#2c7e99" d="M1042.04,757.45v4.94c0,1.56-1.37,3.41-3.07,4.14l-171.36,73.62c-1.7,0.73-3.07,0.06-3.07-1.5v-4.94
			L1042.04,757.45z" class="color372c99 svgShape" opacity=".34"/><defs><filter id="y" width="177.5" height="99.32" x="864.55" y="741.12" filterUnits="userSpaceOnUse"><feFlood flood-color="#fff" flood-opacity="1" result="back"/><feBlend in="SourceGraphic" in2="back"/></filter></defs><mask id="A" width="177.5" height="99.32" x="864.55" y="741.12" maskUnits="userSpaceOnUse"><g class="color000000 svgShape" filter="url(#y)"><linearGradient id="z" x1="961.848" x2="917.419" y1="716.81" y2="838.337" gradientTransform="matrix(1 -.4674 0 1 0 459.962)" gradientUnits="userSpaceOnUse"><stop class="stopColor000000 svgShape" offset="0"/><stop class="stopColorffffff svgShape" offset="1" stop-color="#fff"/></linearGradient><path fill="url(#z)" d="M1042.04,741.12v21.27c0,1.56-1.37,3.41-3.07,4.14l-171.36,73.61c-1.7,0.73-3.07,0.06-3.07-1.5v-91.84
					c0-1.56,1.37-3.41,3.07-4.14l2.51-1.08c7.44,21.41,29.03,60.91,83.17,37.65L1042.04,741.12z" mask="url(#A)"/></g></mask><linearGradient id="B" x1="961.848" x2="917.419" y1="716.81" y2="838.337" gradientTransform="matrix(1 -.4674 0 1 0 459.962)" gradientUnits="userSpaceOnUse"><stop class="stopColor5635dc svgShape" offset="0" stop-color="#35b3dc"/><stop class="stopColor3f2bb2 svgShape" offset="1" stop-color="#2b91b2"/></linearGradient><path fill="url(#B)" d="M1042.04,741.12v21.27c0,1.56-1.37,3.41-3.07,4.14l-171.36,73.61c-1.7,0.73-3.07,0.06-3.07-1.5v-91.84
			c0-1.56,1.37-3.41,3.07-4.14l2.51-1.08c7.44,21.41,29.03,60.91,83.17,37.65L1042.04,741.12z" opacity=".62"/><path fill="#205e72" d="M1042.04,694.13v11.32l-177.5,76.25v-16.39c10.02,2.22,28.06-0.19,60.25-14.02
			C975.16,729.66,1017,712.27,1042.04,694.13z" class="color242072 svgShape"/></g><g class="color000000 svgShape" opacity=".43"><rect width="49.8" height="49.8" x="1714.03" y="1421.28" fill="#8dff8d" class="color8dfff9 svgShape"/><rect width="55.15" height="62.4" x="811.58" y="1511.59" fill="#8dff8d" class="color8dfff9 svgShape"/><rect width="26.94" height="26.94" x="1206.41" y="1428.58" fill="#8dff8d" class="color8dfff9 svgShape"/><rect width="21.06" height="21.06" x="1039.25" y="1647.82" fill="#8dff8d" class="color8dfff9 svgShape"/></g><g class="color000000 svgShape" opacity=".61"><linearGradient id="C" x1="349.3" x2="844.3" y1="1078.961" y2="1078.961" gradientUnits="userSpaceOnUse"><stop class="stopColoracfcf4 svgShape" offset="0" stop-color="#acfcac"/><stop class="stopColora4d1ef svgShape" offset="1" stop-color="#a4efa4"/></linearGradient><path fill="url(#C)" d="M720.62,787.46l123.68,611.47c-191.02,20.39-320.8,7.54-333.96-42.08L349.3,749.71
			C363.3,802.5,509.29,813.66,720.62,787.46z"/><linearGradient id="D" x1="1303.94" x2="2072.545" y1="801.28" y2="801.28" gradientUnits="userSpaceOnUse"><stop class="stopColoracfcf4 svgShape" offset="0" stop-color="#acfcac"/><stop class="stopColora4d1ef svgShape" offset="1" stop-color="#a4efa4"/></linearGradient><path fill="url(#D)" d="M1464.16,1266.93l-160.22-607.4c364.06-110.01,626.72-247.57,606.46-323.9l161.05,607.13
			C2091.71,1019.17,1828.65,1156.87,1464.16,1266.93z" opacity=".54"/></g><g class="color000000 svgShape"><path fill="#fff" d="M1690.36,616.81l96.17,416.33c1.33,5.77,7.36,9.12,12.97,7.22c26.19-8.91,94.72-33.5,127.94-57.42
			c35.2-25.35,87.93-75.08,103.25-89.71c2.66-2.54,3.71-6.34,2.73-9.89l-115.89-420c-2.02-7.31-11.13-9.81-16.58-4.54
			c-33.68,32.56-131.09,122.39-204.04,146.29C1692.02,606.69,1689.2,611.8,1690.36,616.81z" class="colorffffff svgShape" opacity=".42"/><linearGradient id="E" x1="1811.302" x2="1890.572" y1="692.999" y2="692.999" gradientTransform="rotate(-12.615 1738.412 747.52)" gradientUnits="userSpaceOnUse"><stop class="stopColorceede0 svgShape" offset="0" stop-color="#ceedce"/><stop class="stopColorffffff svgShape" offset=".981" stop-color="#fff"/></linearGradient><path fill="url(#E)" d="M1787.98,593.16c0,0-0.65,91.83,32.3,144.02c32.95,52.18,69.05,3.81,60.59-48.18
						c-8.46-51.99-39.86-113.8-39.86-113.8l-16.05,13.21l-8.46,1.85L1787.98,593.16z"/><linearGradient id="F" x1="1843.053" x2="1875.857" y1="732.909" y2="732.909" gradientTransform="rotate(-12.615 1738.412 747.52)" gradientUnits="userSpaceOnUse"><stop class="stopColorfb5c88 svgShape" offset="0" stop-color="#5cfb5c"/><stop class="stopColorfdb6a7 svgShape" offset=".981" stop-color="#a7fda7"/></linearGradient><polygon fill="url(#F)" points="1816.76 611.31 1859.44 809.06 1890.44 797.41 1826.87 610.37"/><linearGradient id="G" x1="1836.639" x2="1859.987" y1="627.807" y2="627.807" gradientTransform="rotate(-12.615 1738.412 747.52)" gradientUnits="userSpaceOnUse"><stop class="stopColorfb5c88 svgShape" offset="0" stop-color="#5cfb5c"/><stop class="stopColorfdb6a7 svgShape" offset=".981" stop-color="#a7fda7"/></linearGradient><path fill="url(#G)" d="M1805.11,595.72c0,0,11.41,27.37,14.96,27.74c3.55,0.36,10.07-2.6,10.91-4.02
						c0.83-1.42-3.76-31.86-3.76-31.86l-10.7,2.68L1805.11,595.72z"/><path fill="#fff" d="M1787.98,593.16c0,0,13.59-12.15,14.77-12.31s13.07,6.87,13.07,6.87s7.42-13.88,8.95-14.99
				s16.24,2.47,16.24,2.47s-12.55,29.02-13.45,27.96s-11.05-12.91-11.05-12.91s-1.69,17.72-3.37,18.28
				C1811.46,609.09,1787.98,593.16,1787.98,593.16z" class="colorffffff svgShape"/><path fill="#fff" d="M1998.25,822.49c0,0,8.56,12.16,7.23,14.31c-1.32,2.16-9.43,11.27-10.51,10.28
				c-1.08-0.99-4.04-4.36-3.95-3.28s2.85,2.98,1.22,4.49c-1.63,1.51-2.93,4.21-4.01,3.22c-1.08-0.99-6.47-14.04-6.47-14.04
				L1998.25,822.49z" class="colorffffff svgShape"/><linearGradient id="H" x1="1845.449" x2="1978.974" y1="771.174" y2="771.174" gradientTransform="rotate(-12.615 1740.827 747.148)" gradientUnits="userSpaceOnUse"><stop class="stopColor1f3356 svgShape" offset="0" stop-color="#1f4856"/><stop class="stopColor705e71 svgShape" offset="1" stop-color="#5e715e"/></linearGradient><path fill="url(#H)" d="M1893.57,895.25c0.4-0.15,16.8,15.01,22.21,13.01c5.43-2,64.79-31.29,62.58-39.39
				c-2.2-8.09-56.16-92.86-59.1-103.65c-2.94-10.8-25.9-95.11-25.9-95.11s43.58,94.53,51.88,107.05
				c8.3,12.53,34.65,67.39,39.27,66.43c4.62-0.97,20.49-10.52,18.15-17.09c-0.35-0.97-1.82-4.22-4.09-9.03
				c-13-27.65-52.03-107.3-52.66-109.6c-0.65-2.4-47.22-99.33-57.55-120.82c-1.26-2.64-3.34-4.45-5.61-4.88l-42.8-8.19
				c0,0,18.88,93.24,18.67,136.36c-0.17,37.36-3.41,57.47-3.04,67.98c0,0.01,0,0.01,0,0.01s0,0-0.01,0c0.06,1.63,0.2,3.01,0.45,4.21
				C1857.92,791.53,1893.25,895.46,1893.57,895.25z"/><path fill="#fff" d="M1867.55,800.92c0.7,2.58,2.81,4.11,4.7,3.42c1.89-0.7,2.85-3.36,2.15-5.94s-2.81-4.11-4.7-3.42
					C1867.8,795.68,1866.84,798.34,1867.55,800.92z" class="colorffffff svgShape"/><path fill="#fff" d="M1878.68,831.38c0.7,2.58,2.81,4.11,4.7,3.42c1.89-0.7,2.85-3.36,2.15-5.94c-0.7-2.58-2.81-4.11-4.7-3.42
					C1878.94,826.14,1877.98,828.8,1878.68,831.38z" class="colorffffff svgShape"/><path fill="#5e715e" d="M1927.05,784.15c0,0-25.27,7.92-24.5,11.72c0.76,3.8,5.14,21.86,9.58,23.19
				c4.44,1.33,25.63-5.29,26.1-11.84C1938.7,800.66,1929.48,783.36,1927.05,784.15z" class="color705e71 svgShape"/><path fill="#0e242b" d="M1855.59,778.35c0.28-0.42,9.21-14.29,15.3-44.29c6.19-30.49,10.13-63.12,8.51-69.28
				c-1.63-6.16-14.3-18.4-16.08-22.94c-1.78-4.53,5.39-16.08,4.34-20.15c-1.06-4.06-27.71-47.68-27.71-47.68
				s18.88,93.24,18.67,136.36C1858.46,747.72,1855.22,767.83,1855.59,778.35z" class="color0e1b2b svgShape" opacity=".47"/><path fill="#5e715e" d="M1855.59,778.36c9.38-21.95,18.95-101.31,17.87-108.34c-1.07-7.03-14.95-27.89-15.69-30.59
				c-0.73-2.69,6.46-26.13,5.61-33.24c-0.85-7.1-23.43-32.18-23.43-32.18s18.88,93.24,18.67,136.36
				C1858.46,747.73,1855.21,767.84,1855.59,778.36z" class="color705e71 svgShape"/><path fill="#0e242b" d="M1881.97,628.29l11.39,41.83c0,0,43.58,94.53,51.88,107.05c8.3,12.53,34.65,67.39,39.27,66.43
				c4.62-0.97,20.49-10.52,18.15-17.09c-0.35-0.97-1.82-4.22-4.09-9.03c-7.43,3.18-17.27,7.14-17.92,6
				C1979.63,821.65,1881.97,628.29,1881.97,628.29z" class="color0e1b2b svgShape" opacity=".47"/><path fill="#fff" d="M1781.56,902.32c0,0-0.98,15.67,1.17,16.55c2.15,0.88,13.29,2.9,13.68,1.36c0.4-1.54,1.14-6.27,1.6-5.32
				c0.46,0.94-0.85,4.34,1.22,4.49c2.08,0.14,4.48,1.49,4.87-0.05c0.4-1.54-1.66-15.81-1.66-15.81L1781.56,902.32z" class="colorffffff svgShape"/><linearGradient id="I" x1="1743.681" x2="1869.019" y1="776.879" y2="776.879" gradientTransform="rotate(-12.615 1740.827 747.148)" gradientUnits="userSpaceOnUse"><stop class="stopColor1f3356 svgShape" offset="0" stop-color="#1f4856"/><stop class="stopColor705e71 svgShape" offset="1" stop-color="#5e715e"/></linearGradient><path fill="url(#I)" d="M1903.17,891.71c-0.4,0.15-6.31,23.52-11.72,25.52c-5.43,2-68.46,17.8-70.67,9.7
				c-2.2-8.09-0.05-113.54-2.99-124.32c-2.94-10.8-25.9-95.11-25.9-95.11s11.16,106.47,10.58,122.27
				c-0.58,15.8,5.04,78.3,0.78,80.62c-4.26,2.3-21.96,5.12-23.3-1.81c-0.2-1.03-0.6-4.67-1.13-10.12
				c-3.06-31.32-10.58-122.57-11.2-124.87c-0.65-2.4-10.56-112.84-12.75-137.32c-0.27-3.01,0.53-5.87,2.17-7.75l30.94-35.36
				c0,0,30.72,88.88,52.24,123.99c18.63,30.43,31.24,44.7,36.14,53.55c0.01,0.01,0.01,0.01,0.01,0.01s0,0,0.01,0
				c0.76,1.37,1.33,2.6,1.71,3.74C1880.96,783.04,1903.54,891.67,1903.17,891.71z"/><path fill="#fff" d="M1877.75,797.16c0.7,2.58-0.26,5.24-2.15,5.94c-1.89,0.7-3.99-0.83-4.7-3.42c-0.7-2.58,0.26-5.24,2.15-5.94
					C1874.94,793.05,1877.05,794.58,1877.75,797.16z" class="colorffffff svgShape"/><ellipse cx="1880.3" cy="830.79" fill="#fff" class="colorffffff svgShape" rx="3.62" ry="4.87" transform="rotate(-8.987 1880.11 830.722)"/><path fill="#5e715e" d="M1820.79,823.3c0,0,24.58-10.45,25.83-6.83c1.26,3.62,6.62,21.32,3.65,25.38
				c-2.97,4.06-23.57,12.84-27.2,7.79C1819.45,844.6,1818.42,824.28,1820.79,823.3z" class="color705e71 svgShape"/><path fill="#0e242b" d="M1876.35,770.7c-0.44-0.16-14.6-5.52-34.43-25.97c-20.16-20.78-39.53-44.82-41.25-50.94
				c-1.72-6.13,2.58-24.62,1.79-29.53c-0.79-4.9-12.37-9.54-13.53-13.56c-1.15-4.03-0.95-57.54-0.95-57.54s30.72,88.88,52.24,123.99
				C1858.84,747.58,1871.45,761.85,1876.35,770.7z" class="color0e1b2b svgShape" opacity=".47"/><path fill="#5e715e" d="M1876.36,770.71c-18.54-11.66-65.65-70.14-68.25-76.61c-2.61-6.46-1.58-32.82-2.32-35.52
				c-0.73-2.69-18.22-17.03-21.04-23.42c-2.82-6.38,3.22-42,3.22-42s30.72,88.88,52.24,123.99
				C1858.85,747.59,1871.46,761.86,1876.36,770.71z" class="color705e71 svgShape"/><path fill="#0e242b" d="M1780.5,665.67l11.39,41.83c0,0,11.16,106.47,10.58,122.27c-0.58,15.8,5.04,78.3,0.78,80.62
				c-4.26,2.3-21.96,5.12-23.3-1.81c-0.2-1.03-0.6-4.67-1.13-10.12c7.65-2.37,17.66-5.73,17.62-7.09
				C1796.37,889.16,1780.5,665.67,1780.5,665.67z" class="color0e1b2b svgShape" opacity=".47"/></g><path fill="#fff" d="M1316.32,860.82l50.1,203.39c0.38,1.53,1.86,2.5,3.41,2.24c13.71-2.32,76.17-13.61,129.25-34.85
		c50.98-20.4,77.05-36.46,83.74-40.83c1.06-0.69,1.57-1.98,1.27-3.21l-50.1-207.98c-0.46-1.91-2.6-2.87-4.33-1.94
		c-20.02,10.77-124.19,65.2-210.9,79.51C1317.02,857.43,1315.9,859.11,1316.32,860.82z" class="colorffffff svgShape" opacity=".59"/><g class="color000000 svgShape"><linearGradient id="J" x1="1408.978" x2="1517.2" y1="1015.271" y2="1015.271" gradientTransform="rotate(-5.918 648.068 1098.679)" gradientUnits="userSpaceOnUse"><stop class="stopColorffffff svgShape" offset=".019" stop-color="#fff"/><stop class="stopColorceede0 svgShape" offset="1" stop-color="#ceedce"/></linearGradient><circle cx="1450.16" cy="931.67" r="54.11" fill="url(#J)"/><path fill="#cecece" d="M1473.45,883.41c8.81,8.54,14.78,20.1,16.14,33.25c3.08,29.73-18.52,56.32-48.24,59.4
				c-10.25,1.06-20.12-0.81-28.79-4.93c11.09,10.75,26.69,16.71,43.26,14.99c29.73-3.08,51.32-29.68,48.24-59.4
				C1502.05,907.24,1489.93,891.25,1473.45,883.41z" class="colorcecece svgShape" opacity=".51"/><path fill="#838783" d="M1407.86,965.05l-0.65-0.06c3.54-39.02,31.68-44.69,43.7-47.12c1.31-0.26,2.45-0.49,3.31-0.72l0.17,0.63
					c-0.88,0.23-2.02,0.46-3.35,0.73C1439.17,920.9,1411.35,926.51,1407.86,965.05z" class="color878783 svgShape"/><g class="color000000 svgShape" opacity=".43"><path fill="#838783" d="M1453.04,983.46l-0.14-0.64c0.02,0,2.25-0.52,4.67-3.09c2.25-2.38,5.12-7.06,6.05-15.84
						c2-18.83-4.27-32.93-4.34-33.07l0.59-0.27c0.06,0.14,6.41,14.4,4.39,33.41c-0.95,8.99-3.93,13.8-6.26,16.26
						C1455.45,982.91,1453.13,983.44,1453.04,983.46z" class="color878783 svgShape"/><path fill="#838783" d="M1501.53,937.48c-8.31-15.91-20.25-22.48-28.81-25.18c-9.27-2.93-16.64-2.09-16.72-2.08l-0.08-0.65
						c0.07-0.01,7.59-0.86,16.99,2.11c5.52,1.75,10.6,4.45,15.11,8.04c5.63,4.48,10.37,10.36,14.08,17.47L1501.53,937.48z" class="color878783 svgShape"/><path fill="#838783" d="M1456.95,908.26l-0.56-0.33c1.95-3.33,5.01-9.88,7.97-16.21c1.9-4.06,3.69-7.9,5.09-10.66l0.58,0.29
						c-1.39,2.75-3.18,6.58-5.08,10.64C1461.98,898.34,1458.91,904.9,1456.95,908.26z" class="color878783 svgShape"/><path fill="#838783" d="M1453.63,909.32c-0.04-0.06-4.08-5.81-11.46-10.3c-6.8-4.14-17.91-8.04-32.26-3.09l-0.21-0.62
						c6.44-2.22,12.79-2.89,18.87-1.98c4.86,0.73,9.56,2.46,13.97,5.14c7.49,4.57,11.59,10.42,11.63,10.48L1453.63,909.32z" class="color878783 svgShape"/><path fill="#838783" d="M1449.26,978.34c-15.22,1.58-30.66-10.81-33.67-13.96l0.47-0.45c2.96,3.1,18.17,15.31,33.13,13.76
						L1449.26,978.34z" class="color878783 svgShape"/><path fill="#838783" d="M1482.55,970.07l-0.42-0.5c5.78-4.78,9.98-10.83,12.48-17.97l0.61,0.22
						C1492.69,959.07,1488.43,965.21,1482.55,970.07z" class="color878783 svgShape"/><path fill="#838783" d="M1501,925.84l-0.64-0.09c0.82-5.72-1.36-13.97-6-22.63c-3.9-7.29-9.81-13.09-11.36-14.45l0,0
						c2.13,1.45,7.96,6.71,11.93,14.14C1499.63,911.59,1501.84,919.98,1501,925.84z" class="color878783 svgShape"/><path fill="#838783" d="M1400.49,940.56c-3.32-10.52-2.93-27.3,2.85-36.02l0,0c-2.54,3.83-3.99,10.18-4.36,17.15
						c-0.34,6.5,0.44,13.31,2.13,18.68L1400.49,940.56z" class="color878783 svgShape"/></g><polygon fill="#353735" points="1464.72 892.05 1439.97 897.28 1437.29 922.42 1460.38 932.74 1477.33 913.97" class="color373735 svgShape"/><path fill="#353735" d="M1403.78,903.79l13.55-10.01l-0.49-4.75C1411.98,892.94,1407.03,898.48,1403.78,903.79z" class="color373735 svgShape"/><path fill="#353735" d="M1459.59,878.37l8.53,6.13l10.96,1.43c0,0-4.73-3.19-7.49-4.45
					C1466.4,879.13,1459.59,878.37,1459.59,878.37z" class="color373735 svgShape"/><path fill="#353735" d="M1410.86,969.43l10.15-1.38l-5.6-29.11l-15.85-2.67l-2.85,4.61
					C1397.77,951.1,1404.17,964.1,1410.86,969.43z" class="color373735 svgShape"/><path fill="#353735" d="M1441.94,977.51l6.81,8.26c2.3,0.06,4.64-0.03,6.99-0.28c9.77-1.01,18.67-4.57,26.1-9.94l2.59-7.49
					l-20.56-8.77L1441.94,977.51z" class="color373735 svgShape"/><path fill="#353735" d="M1493.03,956.27l5.62-0.58c4.4-8.86,6.42-19.03,5.33-29.59c-0.02-0.21-0.28-2.74-0.31-2.95l-2.85-2
					l-8,2.93L1493.03,956.27z" class="color373735 svgShape"/><g class="color000000 svgShape" opacity=".27"><path fill="#353735" d="M1503.98,926.09c3.08,29.73-18.52,56.32-48.24,59.4c-21.92,2.27-42.15-8.88-52.49-26.81
				c8.2,3.53,17.4,5.07,26.91,4.08c29.72-3.08,51.32-29.68,48.24-59.4c-0.81-7.8-3.24-15.04-6.92-21.43
				C1488.92,889.43,1501.88,905.88,1503.98,926.09z" class="color373735 svgShape"/></g></g><g class="color000000 svgShape"><g class="color000000 svgShape" opacity=".53"><linearGradient id="K" x1="1628.578" x2="1839.262" y1="1141.358" y2="1141.358" gradientUnits="userSpaceOnUse"><stop class="stopColorfb5c88 svgShape" offset="0" stop-color="#5cfb5c"/><stop class="stopColorfdb6a7 svgShape" offset=".981" stop-color="#a7fda7"/></linearGradient><path fill="url(#K)" d="M1632.55,1086.05l167.78-67.69c3.7-1.49,7.85,0.76,8.6,4.68l30.22,157.07c0.46,2.39-0.49,4.83-2.44,6.29
				c-9.93,7.4-42.43,30.29-88.33,49.29c-39.2,16.23-63.34,25-74.16,28.76c-3.58,1.24-7.44-0.91-8.26-4.61l-37.21-166.53
				C1628.05,1090.29,1629.67,1087.22,1632.55,1086.05z"/></g><path fill="#fff" d="M1733.18,1120.61c0,20.02-6.79,29.95-14.71,29.95c-7.64,0-14.24-9.5-14.34-28.64
				c0-18.99,6.7-29.66,14.81-29.66C1727.52,1092.27,1733.18,1102.49,1733.18,1120.61z M1710.74,1121.49
				c-0.19,12.13,2.74,21.33,7.92,21.33c5.47,0,7.92-9.06,7.92-21.62c0-11.54-2.17-21.19-7.92-21.19
				C1713.47,1100.01,1710.74,1109.51,1710.74,1121.49z M1717.91,1190.45l36.03-98.18h5.28l-36.03,98.18H1717.91z M1773.08,1159.91
				c0,20.02-6.79,29.95-14.62,29.95c-7.64,0-14.24-9.5-14.34-28.49c0-19.14,6.7-29.81,14.81-29.81
				C1767.51,1131.57,1773.08,1141.8,1773.08,1159.91z M1750.63,1160.79c-0.09,12.13,2.92,21.33,8.02,21.33
				c5.47,0,7.92-9.06,7.92-21.62c0-11.54-2.17-21.19-7.92-21.19C1753.46,1139.31,1750.63,1148.81,1750.63,1160.79z" class="colorffffff svgShape"/></g><g class="color000000 svgShape"><g class="color000000 svgShape" opacity=".47"><linearGradient id="L" x1="1465.339" x2="1666.387" y1="593.061" y2="593.061" gradientUnits="userSpaceOnUse"><stop class="stopColor03cce0 svgShape" offset="0" stop-color="#03aae0"/><stop class="stopColor74f195 svgShape" offset="1" stop-color="#6c6"/></linearGradient><path fill="url(#L)" d="M1465.48,572.59l34.71,111.35c0.53,1.7,2.42,2.57,4.06,1.86l160.34-69.67c1.38-0.6,2.1-2.14,1.69-3.58
				l-31.85-110.31c-0.5-1.73-2.39-2.63-4.05-1.93l-163.2,68.63C1465.75,569.53,1465.02,571.12,1465.48,572.59z"/></g><path fill="#fff" d="M1629.64,594l-60.09-19.65c-0.62-0.2-1.26-0.3-1.89-0.29l-3.41-15.44c-1.02-4.63-3.83-8.46-7.72-10.52
			c-3.28-1.74-6.91-1.98-10.22-0.66c-6.37,2.53-9.7,10.07-7.74,17.54l2.65,10.08c0.28,1.08,1.42,1.71,2.46,1.44
			c1.08-0.28,1.72-1.38,1.44-2.46l-2.65-10.08c-1.42-5.41,0.92-11.02,5.32-12.77c2.19-0.87,4.63-0.7,6.85,0.48
			c2.84,1.51,4.9,4.36,5.67,7.83l3.53,16c-0.44,0.38-0.85,0.81-1.17,1.32l-37.25,58.14c-1.42,2.22-1.26,4.98,0.42,7.01
			c1.46,1.78,3.68,2.53,5.85,2.05c0.32-0.07,0.64-0.17,0.95-0.29l97.34-38.49c2.37-0.94,3.85-3.19,3.77-5.73
			C1633.67,596.95,1632.06,594.79,1629.64,594z M1629.72,599.61c0.01,0.32-0.05,1.4-1.22,1.86l-97.34,38.49
			c-1.22,0.48-2-0.32-2.21-0.57c-0.21-0.26-0.84-1.18-0.14-2.28l37.25-58.14c0.48-0.74,1.4-1.07,2.23-0.8l60.09,19.65
			C1629.59,598.22,1629.71,599.29,1629.72,599.61z" class="colorffffff svgShape"/></g><g class="color000000 svgShape"><path fill="#fff" d="M1608.79,826.1l22.39,85.84c1.22,4.68,6.29,7.22,10.77,5.39l76.92-31.42c3.56-1.45,5.58-5.24,4.81-9
			l-17.64-86.48c-0.99-4.87-6.14-7.66-10.76-5.85l-81.67,32.06C1609.84,818.12,1607.77,822.18,1608.79,826.1z" class="colorffffff svgShape" opacity=".42"/><path fill="#fff" d="M1671.58,877.9c-3.12,0.64-6.2,0.82-9.24,0.51c-3.04-0.3-5.79-1.03-8.26-2.19l1.38-5.34
					c0.12-0.47,0.35-0.9,0.68-1.29c0.33-0.39,0.73-0.67,1.19-0.83c0.56-0.2,1.23-0.21,2-0.04c0.77,0.17,1.66,0.38,2.67,0.63
					c1,0.25,2.12,0.45,3.35,0.62c1.23,0.17,2.61,0.13,4.12-0.12l-4.58-17.61c-1.99,0.13-3.99,0.16-6,0.09
					c-2.01-0.07-3.92-0.42-5.74-1.06c-1.81-0.64-3.46-1.67-4.94-3.1c-1.48-1.43-2.68-3.45-3.59-6.05c-0.68-1.94-0.97-3.97-0.84-6.1
					s0.67-4.18,1.63-6.15c0.96-1.98,2.36-3.82,4.19-5.53c1.83-1.71,4.14-3.06,6.94-4.04l-1.3-5.01c-0.17-0.63-0.11-1.28,0.18-1.93
					c0.29-0.65,0.8-1.11,1.53-1.37l3.47-1.23l2,7.73c2.85-0.52,5.45-0.58,7.79-0.17c2.34,0.4,4.49,1.03,6.42,1.9l-1.06,4.28
					c-0.18,0.63-0.4,1.14-0.67,1.52c-0.27,0.38-0.65,0.66-1.16,0.84c-0.38,0.13-0.88,0.17-1.48,0.12c-0.61-0.06-1.31-0.14-2.1-0.24
					c-0.79-0.11-1.66-0.19-2.6-0.26c-0.94-0.07-1.95-0.04-3.02,0.08l4.24,16.28c2.03-0.09,4.06-0.11,6.09-0.07
					c2.03,0.04,3.96,0.34,5.77,0.9c1.81,0.56,3.45,1.48,4.9,2.76c1.45,1.28,2.6,3.11,3.44,5.5c0.83,2.37,1.22,4.72,1.17,7.08
					c-0.06,2.35-0.56,4.59-1.51,6.72c-0.95,2.13-2.36,4.08-4.22,5.85c-1.86,1.77-4.18,3.26-6.96,4.47l1.52,5.77
					c0.16,0.6,0.09,1.23-0.19,1.89c-0.28,0.66-0.79,1.12-1.53,1.38l-3.47,1.23L1671.58,877.9z M1653.2,838.11
					c0.34,0.97,0.81,1.76,1.4,2.38c0.59,0.62,1.29,1.11,2.09,1.48c0.8,0.36,1.69,0.62,2.66,0.78s2,0.25,3.1,0.26l-3.8-14.55
					c-1.34,0.67-2.43,1.39-3.27,2.16c-0.84,0.77-1.48,1.57-1.9,2.41c-0.42,0.84-0.64,1.68-0.67,2.53
					C1652.77,836.43,1652.9,837.27,1653.2,838.11z M1680.56,856.54c-0.34-0.97-0.81-1.75-1.41-2.36s-1.31-1.08-2.13-1.42
					c-0.82-0.34-1.72-0.56-2.71-0.68c-0.98-0.11-2.03-0.16-3.14-0.14l4.17,15.95c2.57-1.31,4.29-2.94,5.16-4.89
					C1681.38,861.06,1681.4,858.9,1680.56,856.54z" class="colorffffff svgShape"/></g><g class="color000000 svgShape"><linearGradient id="M" x1="455.043" x2="687.464" y1="858.192" y2="858.192" gradientUnits="userSpaceOnUse"><stop class="stopColoracfcf4 svgShape" offset="0" stop-color="#acfcac"/><stop class="stopColora4d1ef svgShape" offset="1" stop-color="#a4efa4"/></linearGradient><path fill="url(#M)" d="M455.16,776.23l49.39,173.61c0.28,1,1.06,1.78,2.06,2.06c6.68,1.89,34.14,8.41,82.39,4.1
			c47.64-4.25,85.87-13.57,96.22-16.26c1.56-0.4,2.51-1.96,2.17-3.54l-37.81-174.9c-0.33-1.52-1.76-2.54-3.3-2.34
			c-19.08,2.38-133.82,16.25-188.07,13.45C456.15,772.31,454.6,774.25,455.16,776.23z"/><path fill="#154251" d="M648.62,840.44c0.47,1.14,0.77,2.12,0.89,2.87c1.19,7.76-7.72,15.8-39.54,33.71
				c-31.82,17.91-69.33,40.9-73.39,42.97c-3.89,1.97-12.73,4.85-19.37-3.32c-0.31-0.37-0.61-0.76-0.9-1.18
				c-1.45-2.06-2.84-4.45-3.97-7.02c-4.14-9.4-4.9-21.35,7.19-29.56c1.05-0.71,2.11-1.52,3.2-2.41
				c14.88-12.25,32.66-40.14,32.66-40.14s1.49-3.94,5.36-8.14c2.67-2.9,6.46-5.91,11.68-7.84c12.79-4.73,16.44,8.83,27.96,5.18
				c8.33-2.64,14.68-13.24,18.97-18.47c1.64-2,2.99-3.21,4.03-2.89C626.75,805.26,644.35,829.92,648.62,840.44z" class="color152e51 svgShape"/><path fill="#0a2128" d="M648.62,840.44c0.47,1.14,0.77,2.12,0.89,2.87c1.19,7.76-7.72,15.8-39.54,33.71
				c-31.82,17.91-69.33,40.9-73.39,42.97c-3.89,1.97-12.73,4.85-19.37-3.32c-0.31-0.37-0.61-0.76-0.9-1.18
				c-1.45-2.06-2.84-4.45-3.97-7.02c4.46-1.42,10.18-3.28,17.47-5.72c30.6-10.25,85.15-48.49,92.76-59.84
				c4.67-6.97,0.62-23.83-3.21-35.82c1.64-2,2.99-3.21,4.03-2.89C626.75,805.26,644.35,829.92,648.62,840.44z" class="color0a1828 svgShape"/><path fill="#fff" d="M581.11,841.85c1.39,8.18-13.76,21.15-30.04,34.69c-16.29,13.55-22.54,4.57-28.36-0.05
						c14.88-12.25,32.66-40.14,32.66-40.14s1.49-3.94,5.36-8.14C560.73,828.21,579.72,833.68,581.11,841.85z" class="colorffffff svgShape" opacity=".32"/><path fill="#fff" d="M648.62,840.44c0.47,1.14,0.77,2.12,0.89,2.87c1.19,7.76-7.72,15.8-39.54,33.71
						c-31.82,17.91-69.33,40.9-73.39,42.97c-3.89,1.97-12.73,4.85-19.37-3.32c9.92-4.02,29.62-13.46,66.72-35.5
						C619.54,860.02,638.69,847.41,648.62,840.44z" class="colorffffff svgShape"/><path fill="#fff" d="M537.85,866.87c-3.56-1.43-6.68,0.03-9.48,1.99c-2.19,1.54-0.09,5.76,2.13,4.2
							c1.99-1.4,4.2-2.99,6.78-1.61c1.89,1.01,3.38,2.91,4.76,4.58c1.91,2.32,4.97-0.62,3.05-2.95
							C543.07,870.61,540.77,868.04,537.85,866.87z" class="colorffffff svgShape"/><path fill="#fff" d="M534.72,861.96c-1.18,2.54,2.54,5.23,3.74,2.67c2.04-4.38,8.63,0.19,10.73,3
							c1.8,2.42,4.85-0.54,3.05-2.95C548.3,859.4,538.08,854.75,534.72,861.96z" class="colorffffff svgShape"/><path fill="#fff" d="M541.05,854.41c-1.58,2.27,2.16,4.93,3.74,2.67c2.83-4.07,8.59,0.14,11.63,2.36
							c2.39,1.74,4.56-2.02,2.17-3.77C553.09,851.66,545.5,848.01,541.05,854.41z" class="colorffffff svgShape"/><path fill="#fff" d="M557.97,836.22c-0.81,0.23-1.77,0.77-2.8,1.38c-1.64-5.21-4.84-12.47-9.97-8.26
							c-4.03,3.31-5.69,11.43,0.14,14.61c2.89,1.57,5.39,0.93,7.8-0.19c0.93,3.12,3.13,5.55,5.38,7.97
							c2.04,2.19,4.28,5.42,7.36,5.33c5.31-0.15,10.9-6.67,8.38-12.55C571.83,838.84,563.11,834.79,557.97,836.22z M547.09,839.71
							c-1.64-1.13-1.36-2-0.68-3.59c0.47-1.11,0.55-2.19,1.88-2.29c1.44-0.1,1.39,0.79,1.92,2.18c0.46,1.2,0.84,2.42,1.18,3.65
							C549.84,840.32,548.33,840.57,547.09,839.71z M566.71,851.95c-3.48,0.84-8.74-6.61-9.65-10.15c2.3-1.06,4.67-1.69,7.37-0.4
							c1.48,0.71,4.58,2.5,5.52,4.01C571.61,848.1,569.03,851.39,566.71,851.95z" class="colorffffff svgShape"/></g><g class="color000000 svgShape"><g class="color000000 svgShape" opacity=".54"><linearGradient id="N" x1="443.006" x2="721.181" y1="1316.138" y2="1316.138" gradientUnits="userSpaceOnUse"><stop class="stopColorfe9a81 svgShape" offset="0" stop-color="#81fe81"/><stop class="stopColorfde090 svgShape" offset=".981" stop-color="#90fd90"/></linearGradient><path fill="url(#N)" d="M443.12,1195.81c-0.64-2.29,1.5-4.37,3.77-3.67c20.6,6.39,97.47,28.25,154.64,17.94l63.76-11.49
				c1.58-0.29,3.11,0.73,3.46,2.3l52.36,235.56c0.41,1.85-0.96,3.61-2.85,3.65c-17.58,0.39-94.88,1.27-147-11.52
				c-53.18-13.05-69.45-29.35-72.18-32.5c-0.29-0.33-0.49-0.72-0.61-1.15L443.12,1195.81z"/></g><linearGradient id="O" x1="497.123" x2="613.615" y1="1288.891" y2="1288.891" gradientTransform="rotate(-9.132 585.114 1310.85)" gradientUnits="userSpaceOnUse"><stop class="stopColor1f3356 svgShape" offset="0" stop-color="#1f4856"/><stop class="stopColor705e71 svgShape" offset="1" stop-color="#5e715e"/></linearGradient><path fill="url(#O)" d="M516.64,1344.24l-29.71-90.24c-1.26-3.83,1.64-7.77,5.68-7.69l94.85,1.83c2.54,0.05,4.76,1.73,5.49,4.16
				l24.66,81.53c1.08,3.58-1.43,7.25-5.16,7.54l-89.8,6.87C519.96,1348.46,517.48,1346.8,516.64,1344.24z"/><linearGradient id="P" x1="505.473" x2="604.714" y1="1288.731" y2="1288.731" gradientTransform="rotate(-9.132 585.808 1309.224)" gradientUnits="userSpaceOnUse"><stop class="stopColor03cce0 svgShape" offset="0" stop-color="#03aae0"/><stop class="stopColor74f195 svgShape" offset="1" stop-color="#6c6"/></linearGradient><path fill="url(#P)" d="M521.6,1334.83l-24.65-72.72c-1.05-3.09,1.45-6.29,4.88-6.25l80.69,0.82c2.16,0.02,4.04,1.36,4.65,3.32
						l20.41,65.72c0.9,2.89-1.26,5.87-4.44,6.13l-76.45,6.19C524.4,1338.21,522.3,1336.89,521.6,1334.83z"/><linearGradient id="Q" x1="514.069" x2="674.882" y1="1360.316" y2="1360.316" gradientTransform="rotate(-9.132 585.114 1310.85)" gradientUnits="userSpaceOnUse"><stop class="stopColor1f3356 svgShape" offset="0" stop-color="#1f4856"/><stop class="stopColor705e71 svgShape" offset="1" stop-color="#5e715e"/></linearGradient><path fill="url(#Q)" d="M520.68,1349.8l86.8,33.32c0.47,0.18,0.98,0.22,1.47,0.11l73.7-16.05c2.41-0.52,2.74-3.77,0.47-4.72
				l-64.92-27.22c-0.4-0.17-0.83-0.23-1.26-0.19l-95.58,9.95C518.72,1345.28,518.21,1348.86,520.68,1349.8z"/><g class="color000000 svgShape"><linearGradient id="R" x1="571.435" x2="602.679" y1="1345.748" y2="1345.748" gradientTransform="rotate(-9.132 585.114 1310.85)" gradientUnits="userSpaceOnUse"><stop class="stopColor1f3356 svgShape" offset="0" stop-color="#1f4856"/><stop class="stopColor705e71 svgShape" offset="1" stop-color="#5e715e"/></linearGradient><polygon fill="url(#R)" points="576.68 1344.62 585.61 1348.71 608.43 1345.31 601.68 1341.91"/><linearGradient id="S" x1="553.612" x2="577.107" y1="1345.146" y2="1345.146" gradientTransform="rotate(-9.132 585.114 1310.85)" gradientUnits="userSpaceOnUse"><stop class="stopColor1f3356 svgShape" offset="0" stop-color="#1f4856"/><stop class="stopColor705e71 svgShape" offset="1" stop-color="#5e715e"/></linearGradient><polygon fill="url(#S)" points="569.45 1351.13 583.14 1349.08 574.03 1344.9 558.94 1346.54"/><linearGradient id="T" x1="592.237" x2="623.822" y1="1360.347" y2="1360.347" gradientTransform="rotate(-9.132 585.114 1310.85)" gradientUnits="userSpaceOnUse"><stop class="stopColor1f3356 svgShape" offset="0" stop-color="#1f4856"/><stop class="stopColor705e71 svgShape" offset="1" stop-color="#5e715e"/></linearGradient><polygon fill="url(#T)" points="631.73 1357.04 621.29 1351.79 599.42 1355.05 610.63 1360.19"/><linearGradient id="U" x1="565.426" x2="587.667" y1="1352.47" y2="1352.47" gradientTransform="rotate(-9.132 585.114 1310.85)" gradientUnits="userSpaceOnUse"><stop class="stopColor1f3356 svgShape" offset="0" stop-color="#1f4856"/><stop class="stopColor705e71 svgShape" offset="1" stop-color="#5e715e"/></linearGradient><polygon fill="url(#U)" points="594.69 1354.38 585.41 1350.12 571.8 1352.15 581.44 1356.36"/><linearGradient id="V" x1="606.96" x2="629.019" y1="1352.934" y2="1352.934" gradientTransform="rotate(-9.132 585.114 1310.85)" gradientUnits="userSpaceOnUse"><stop class="stopColor1f3356 svgShape" offset="0" stop-color="#1f4856"/><stop class="stopColor705e71 svgShape" offset="1" stop-color="#5e715e"/></linearGradient><polygon fill="url(#V)" points="621.52 1350.37 635.59 1348.27 624.91 1344.23 612.88 1346.02"/><linearGradient id="W" x1="628.102" x2="660.222" y1="1371.343" y2="1371.343" gradientTransform="rotate(-9.132 585.114 1310.85)" gradientUnits="userSpaceOnUse"><stop class="stopColor1f3356 svgShape" offset="0" stop-color="#1f4856"/><stop class="stopColor705e71 svgShape" offset="1" stop-color="#5e715e"/></linearGradient><path fill="url(#W)" d="M654.58,1367.03l13.18-2.81c1.97-0.42,2.27-2.88,0.43-3.58l-14.49-5.49l-17.53,2.62L654.58,1367.03z"/><linearGradient id="X" x1="539.001" x2="571.701" y1="1352.233" y2="1352.233" gradientTransform="rotate(-9.132 585.114 1310.85)" gradientUnits="userSpaceOnUse"><stop class="stopColor1f3356 svgShape" offset="0" stop-color="#1f4856"/><stop class="stopColor705e71 svgShape" offset="1" stop-color="#5e715e"/></linearGradient><polygon fill="url(#X)" points="557.06 1360 578.9 1356.74 569.26 1352.53 545.67 1356.06"/><linearGradient id="Y" x1="581.676" x2="612.434" y1="1352.699" y2="1352.699" gradientTransform="rotate(-9.132 585.114 1310.85)" gradientUnits="userSpaceOnUse"><stop class="stopColor1f3356 svgShape" offset="0" stop-color="#1f4856"/><stop class="stopColor705e71 svgShape" offset="1" stop-color="#5e715e"/></linearGradient><polygon fill="url(#Y)" points="597.15 1354.01 619.18 1350.72 610.54 1346.37 587.88 1349.75"/><linearGradient id="Z" x1="567.652" x2="609.07" y1="1372.232" y2="1372.232" gradientTransform="rotate(-9.132 585.114 1310.85)" gradientUnits="userSpaceOnUse"><stop class="stopColor1f3356 svgShape" offset="0" stop-color="#1f4856"/><stop class="stopColor705e71 svgShape" offset="1" stop-color="#5e715e"/></linearGradient><path fill="url(#Z)" d="M595.24,1363.87l-18.85,2.81l29.87,10.33c0.38,0.13,0.8,0.16,1.2,0.07l12.14-2.59L595.24,1363.87z"/><linearGradient id="aa" x1="552.221" x2="584.55" y1="1359.904" y2="1359.904" gradientTransform="rotate(-9.132 585.114 1310.85)" gradientUnits="userSpaceOnUse"><stop class="stopColor1f3356 svgShape" offset="0" stop-color="#1f4856"/><stop class="stopColor705e71 svgShape" offset="1" stop-color="#5e715e"/></linearGradient><polygon fill="url(#aa)" points="581.25 1357.76 559.84 1360.96 573.61 1365.72 592.89 1362.84"/><linearGradient id="ab" x1="616.715" x2="643.401" y1="1360.594" y2="1360.594" gradientTransform="rotate(-9.132 585.114 1310.85)" gradientUnits="userSpaceOnUse"><stop class="stopColor1f3356 svgShape" offset="0" stop-color="#1f4856"/><stop class="stopColor705e71 svgShape" offset="1" stop-color="#5e715e"/></linearGradient><polygon fill="url(#ab)" points="623.63 1351.44 634.07 1356.69 651.1 1354.15 638.2 1349.26"/><linearGradient id="ac" x1="528.729" x2="560.694" y1="1344.468" y2="1344.468" gradientTransform="rotate(-9.132 585.114 1310.85)" gradientUnits="userSpaceOnUse"><stop class="stopColor1f3356 svgShape" offset="0" stop-color="#1f4856"/><stop class="stopColor705e71 svgShape" offset="1" stop-color="#5e715e"/></linearGradient><path fill="url(#ac)" d="M535.75,1352.62l7.13,2.47l24.02-3.59l-10.7-4.67l-19.85,2.15
					C534.19,1349.22,533.74,1351.93,535.75,1352.62z"/><linearGradient id="ad" x1="599.063" x2="616.697" y1="1346.538" y2="1346.538" gradientTransform="rotate(-9.132 585.114 1310.85)" gradientUnits="userSpaceOnUse"><stop class="stopColor1f3356 svgShape" offset="0" stop-color="#1f4856"/><stop class="stopColor705e71 svgShape" offset="1" stop-color="#5e715e"/></linearGradient><path fill="url(#ad)" d="M610.77,1344.96l11.53-1.72l-6.82-2.58c-0.32-0.12-0.68-0.17-1.03-0.13l-10.27,1.11L610.77,1344.96z"/><linearGradient id="ae" x1="604.563" x2="642.624" y1="1371.727" y2="1371.727" gradientTransform="rotate(-9.132 585.114 1310.85)" gradientUnits="userSpaceOnUse"><stop class="stopColor1f3356 svgShape" offset="0" stop-color="#1f4856"/><stop class="stopColor705e71 svgShape" offset="1" stop-color="#5e715e"/></linearGradient><polygon fill="url(#ae)" points="633.84 1358.11 612.9 1361.23 634.76 1371.26 652.45 1367.48"/><linearGradient id="af" x1="576.433" x2="599.994" y1="1360.126" y2="1360.126" gradientTransform="rotate(-9.132 585.114 1310.85)" gradientUnits="userSpaceOnUse"><stop class="stopColor1f3356 svgShape" offset="0" stop-color="#1f4856"/><stop class="stopColor705e71 svgShape" offset="1" stop-color="#5e715e"/></linearGradient><polygon fill="url(#af)" points="596.95 1355.42 583.79 1357.38 595.43 1362.46 608.17 1360.56"/><linearGradient id="ag" x1="589.281" x2="622.271" y1="1371.976" y2="1371.976" gradientTransform="rotate(-9.132 585.114 1310.85)" gradientUnits="userSpaceOnUse"><stop class="stopColor1f3356 svgShape" offset="0" stop-color="#1f4856"/><stop class="stopColor705e71 svgShape" offset="1" stop-color="#5e715e"/></linearGradient><polygon fill="url(#ag)" points="632.52 1371.74 610.43 1361.6 597.79 1363.49 621.89 1374.01"/></g></g><g class="color000000 svgShape"><path fill="#fff" d="M439.85,1025.26c-1.29-4.93,2.94-9.55,7.96-8.67c15.84,2.75,48.37,6.87,92.86,4.64
			c46.75-2.34,73.64-4.89,84.85-6.1c3.55-0.38,6.81,1.97,7.58,5.45l27.43,124.34c0.83,3.75-1.51,7.46-5.25,8.33
			c-16.2,3.74-59.23,12.54-102.48,11.75c-43.22-0.79-67.9-8.66-76.4-11.95c-2.1-0.81-3.69-2.58-4.26-4.76L439.85,1025.26z" class="colorffffff svgShape" opacity=".42"/><path fill="#22424c" d="M519.38,1133.41l-23.31,3.35c-4.91,0.71-9.05-1.07-9.26-3.96l-4.63-63.19c-0.21-2.89,3.59-5.81,8.5-6.52
				l23.31-3.35c-4.91,0.71-8.71,3.62-8.5,6.52l4.63,63.19C510.32,1132.34,514.47,1134.11,519.38,1133.41z" class="color22224c svgShape"/><path fill="#2c7e99" d="M607.31,1051.6l4.63,63.19c0.21,2.9-1.95,5.58-4.83,5.99L512,1134.47c-2.88,0.41-5.39-1.59-5.6-4.49
				l-4.63-63.19c-0.21-2.85,1.88-5.5,4.7-5.97l95.24-13.71C604.6,1046.7,607.1,1048.71,607.31,1051.6z" class="color372c99 svgShape"/><ellipse cx="554.87" cy="1099.19" fill="#22424c" class="color22224c svgShape" rx="30.36" ry="23.92" transform="rotate(-14.863 554.846 1099.158)"/><path fill="#21f421" d="M565.35,1046.5l-42.46,6.11c-3.18,0.46-5.57,3.42-5.33,6.61l0,0l53.97-7.77l0,0
				C571.3,1048.26,568.53,1046.04,565.35,1046.5z" class="colorf47621 svgShape"/><path fill="#4ea8c6" d="M585.12,1088.66c1.16,15.79-10.64,30.42-26.36,32.68c-6.06,0.87-11.82-0.22-16.67-2.82
				c-7.73-4.1-13.16-11.98-13.87-21.68c-0.71-9.69,3.46-18.95,10.42-25.18c4.38-3.92,9.86-6.64,15.93-7.51
				C570.29,1061.89,583.96,1072.86,585.12,1088.66z" class="color534ec6 svgShape"/><path fill="#2c7e99" d="M585.12,1088.66c0.58,7.94-2.11,15.59-6.93,21.52c-4.77,5.86-11.61,10.04-19.42,11.17
				c-6.06,0.87-11.82-0.23-16.67-2.82c-7.73-4.1-13.16-11.98-13.87-21.68c-0.71-9.69,3.46-18.95,10.42-25.18
				c0.81-0.72,1.65-1.41,2.53-2.04c3.89-2.82,8.45-4.76,13.4-5.47C570.29,1061.89,583.96,1072.86,585.12,1088.66z" class="color372c99 svgShape" opacity=".63"/><path fill="#61afc9" d="M585.12,1088.66c0.58,7.94-2.11,15.59-6.93,21.52c-3.9,2.82-8.46,4.77-13.42,5.48
				c-6.06,0.87-11.82-0.23-16.67-2.82c-7.73-4.1-13.17-11.98-13.88-21.68c-0.58-7.95,2.12-15.61,6.95-21.54
				c3.89-2.82,8.45-4.76,13.4-5.47C570.29,1061.89,583.96,1072.86,585.12,1088.66z" class="color6161c9 svgShape"/><path fill="#22424c" d="M542.09,1118.53c-11.7-1.08-20.87-9.31-21.69-20.56c-0.82-11.24,6.95-21.91,18.24-26.3
				c-6.96,6.22-11.13,15.49-10.42,25.18C528.93,1106.54,534.37,1114.42,542.09,1118.53z" class="color22224c svgShape"/><ellipse cx="558.36" cy="1091.84" fill="#03aae0" class="color03dde0 svgShape" rx="17.91" ry="16.7" transform="rotate(-50.193 558.324 1091.828)"/><path fill="#4ea8c6" d="M572.34,1101c-2.87,4.24-7.43,7.33-12.72,8.09c-9.47,1.36-17.72-5.25-18.42-14.78
				c-0.47-6.39,2.58-12.47,7.5-16.18c-2.27,3.35-3.48,7.41-3.17,11.62c0.7,9.52,8.95,16.14,18.42,14.78
				C567.07,1104.07,569.92,1102.82,572.34,1101z" class="color534ec6 svgShape" opacity=".25"/><path fill="#fff" d="M567.78,1081.11c0.14,1.87-2.21,3.74-5.24,4.17c-3.03,0.44-5.59-0.73-5.73-2.59
							c-0.14-1.87,2.21-3.74,5.24-4.17C565.07,1078.08,567.64,1079.24,567.78,1081.11z" class="colorffffff svgShape"/><path fill="#fff" d="M555.17,1102.23c0.07,0.9-0.83,1.77-2,1.94c-1.17,0.17-2.17-0.43-2.24-1.33c-0.07-0.9,0.83-1.77,2-1.94
							C554.1,1100.73,555.1,1101.32,555.17,1102.23z" class="colorffffff svgShape"/><path fill="#b3ffb3" d="M525.72,1072.06l-11.34,1.63c-1.1,0.16-2.05-0.61-2.13-1.71l-0.05-0.7c-0.08-1.1,0.74-2.12,1.84-2.28
				l11.34-1.63c1.1-0.16,2.05,0.61,2.13,1.71l0.05,0.7C527.64,1070.88,526.81,1071.9,525.72,1072.06z" class="colorbcb3ff svgShape"/><path fill="#22424c" d="M601.93,1112.28l-6.94,1c-1.1,0.16-2.05-0.61-2.13-1.71l-0.05-0.7c-0.08-1.1,0.74-2.12,1.84-2.28l6.94-1
				c1.1-0.16,2.05,0.61,2.13,1.71l0.05,0.7C603.85,1111.11,603.03,1112.13,601.93,1112.28z" class="color22224c svgShape"/><linearGradient id="ah" x1="593.112" x2="593.112" y1="1065.489" y2="1077.447" gradientTransform="matrix(.9871 -.2125 .073 .9973 -73.185 120.637)" gradientUnits="userSpaceOnUse"><stop class="stopColorffd715 svgShape" offset="0" stop-color="#15ff15"/><stop class="stopColorf7931e svgShape" offset="1" stop-color="#1ef71e"/></linearGradient><path fill="url(#ah)" d="M594.87,1068.28l-7.91,1.14c-2.19,0.32-4.1-1.22-4.26-3.42l-0.25-3.37c-0.16-2.2,1.48-4.24,3.68-4.56
				l7.91-1.14c2.19-0.32,4.1,1.21,4.26,3.42l0.25,3.37C598.7,1065.92,597.06,1067.97,594.87,1068.28z"/><linearGradient id="ai" x1="530.73" x2="585.123" y1="1051.968" y2="1051.968" gradientTransform="matrix(.9871 -.2125 .073 .9973 -73.185 120.637)" gradientUnits="userSpaceOnUse"><stop class="stopColorffd715 svgShape" offset="0" stop-color="#15ff15"/><stop class="stopColorf7931e svgShape" offset="1" stop-color="#1ef71e"/></linearGradient><path fill="url(#ai)" d="M575.34,1045.06l-42.46,6.11c-3.18,0.46-5.57,3.42-5.33,6.61l0,0l53.97-7.77l0,0
				C581.29,1046.82,578.52,1044.61,575.34,1045.06z"/><path fill="#4ea8c6" d="M607.31,1051.6l4.63,63.19c0.21,2.9-1.95,5.58-4.83,5.99L512,1134.47c-2.88,0.41-5.39-1.59-5.6-4.49
				l-4.63-63.19c-0.21-2.85,1.88-5.5,4.7-5.97c2.21,25.53,11.86,70.03,52.56,64.17c55.05-7.92,45.29-33.53,41.57-77.72l1.11-0.16
				C604.6,1046.7,607.1,1048.71,607.31,1051.6z" class="color534ec6 svgShape" opacity=".53"/></g><g class="color000000 svgShape"><g class="color000000 svgShape" opacity=".53"><linearGradient id="aj" x1="1440.143" x2="1739.196" y1="374.093" y2="374.093" gradientUnits="userSpaceOnUse"><stop class="stopColorfb5c88 svgShape" offset="0" stop-color="#5cfb5c"/><stop class="stopColorfdb6a7 svgShape" offset=".981" stop-color="#a7fda7"/></linearGradient><path fill="url(#aj)" d="M1440.23,321.33l42,146.67c0.38,1.31,1.84,1.97,3.07,1.38c11.19-5.42,61.26-28.46,122.93-38.12
				c61.33-9.61,116.08-12.42,128.87-12.97c1.43-0.06,2.41-1.45,2.01-2.82l-40.04-135.29c-0.29-0.98-1.21-1.63-2.22-1.57
				c-18.81,1.03-186.02,10.9-255.37,40.1C1440.45,319.13,1439.92,320.26,1440.23,321.33z"/></g><linearGradient id="ak" x1="1586.147" x2="1586.147" y1="332.732" y2="395.447" gradientTransform="rotate(-2.241 823.27 793.194)" gradientUnits="userSpaceOnUse"><stop class="stopColorff5f7e svgShape" offset="0" stop-color="#5fff5f"/><stop class="stopColorcc256e svgShape" offset=".73" stop-color="#25cc25"/></linearGradient><path fill="url(#ak)" d="M1619.4,359.83c-9.36,4.01-26.41,2.36-35.96,1.41c-9.55-0.94-11.42-0.05-19.16,4.14
					c-7.75,4.2-51.63-6-52.94-17.2c0,0-0.02-0.08-0.06-0.22c-0.18-0.71-0.67-3.01,0.1-5.08c0.58-1.57,1.89-3,4.59-3.49
					c5.6-1.01,15.7-2.31,25.73-5.42c2.47-0.77,4.95-1.64,7.34-2.66c12.1-5.11,20.83-13.89,26.9-19.59
					c6.07-5.7,11.09-12.01,13.16-7.96c1.47,2.87-0.98,9.21,1.54,13.15c1.03,1.64,2.92,2.86,6.27,3.26
					c11.48,1.37,13.75-15.28,17.49-13.27c0.81,0.44,1.66,0.93,2.49,1.55c2.98,2.21,5.69,5.96,5.43,14.01
					c-0.3,9.56,0.67,13.34,2.92,16.66c0.18,0.26,0.36,0.51,0.55,0.77C1628.42,343.42,1628.75,355.82,1619.4,359.83z"/><path fill="#5fff5f" d="M1590.63,316.91c-8.92,9.8-25.73,20.66-33.69,23.03c-6.42,1.9-11.91-2.33-15.25-5.97
					c2.47-0.77,4.94-1.64,7.34-2.66c12.1-5.11,20.83-13.89,26.9-19.59c6.07-5.7,11.09-12.01,13.15-7.96
					C1590.55,306.63,1588.11,312.97,1590.63,316.91z" class="colorff5f7e svgShape"/><linearGradient id="al" x1="1586.26" x2="1586.26" y1="370.847" y2="395.444" gradientTransform="rotate(-2.241 823.27 793.194)" gradientUnits="userSpaceOnUse"><stop class="stopColorcfbbea svgShape" offset="0" stop-color="#bbeabb"/><stop class="stopColorffffff svgShape" offset=".805" stop-color="#fff"/></linearGradient><path fill="url(#al)" d="M1627.3,348.22c-0.01,0.17-0.04,0.35-0.06,0.52c-0.02,0.18-0.04,0.35-0.07,0.52
					c-0.03,0.18-0.06,0.35-0.09,0.52c-0.03,0.18-0.07,0.35-0.11,0.53c-0.08,0.35-0.17,0.7-0.27,1.04c-0.16,0.52-0.34,1.04-0.55,1.55
					c-0.07,0.17-0.14,0.34-0.22,0.5c-0.08,0.17-0.16,0.33-0.24,0.5c-0.08,0.15-0.16,0.31-0.25,0.46c-0.08,0.14-0.15,0.28-0.23,0.42
					c-0.02,0.03-0.04,0.06-0.05,0.08c-0.06,0.11-0.13,0.21-0.2,0.32c-0.11,0.17-0.23,0.34-0.35,0.51c-0.08,0.12-0.17,0.23-0.26,0.34
					c-0.09,0.12-0.19,0.23-0.28,0.35c-0.09,0.11-0.19,0.22-0.28,0.33c-0.28,0.31-0.57,0.6-0.87,0.88c-0.1,0.1-0.21,0.19-0.32,0.28
					c-0.18,0.16-0.37,0.31-0.56,0.45c-0.08,0.07-0.18,0.14-0.27,0.2c-0.09,0.07-0.18,0.13-0.27,0.19c-0.63,0.43-1.32,0.8-2.08,1.13
					c-9.36,4.01-26.41,2.36-35.96,1.41c-9.55-0.94-11.42-0.05-19.16,4.14c-1.23,0.67-3.39,0.97-6.14,0.96c-0.23,0-0.47,0-0.71-0.01
					c-0.24,0-0.49-0.01-0.74-0.02c-0.86-0.03-1.76-0.09-2.71-0.18c-0.26-0.02-0.52-0.05-0.78-0.07c-0.52-0.05-1.06-0.12-1.6-0.18
					c-3.32-0.4-7.01-1.06-10.75-1.93c-0.54-0.12-1.07-0.25-1.61-0.39c-0.3-0.07-0.61-0.15-0.92-0.23c-0.92-0.23-1.84-0.48-2.76-0.74
					c-0.01,0-0.01-0.01-0.03-0.01c-0.52-0.15-1.05-0.3-1.56-0.46c-0.38-0.1-0.76-0.22-1.14-0.34c-0.3-0.09-0.6-0.19-0.9-0.28
					c-0.6-0.19-1.19-0.39-1.78-0.58c-0.59-0.2-1.17-0.4-1.75-0.61c-0.5-0.17-0.98-0.36-1.46-0.54c-0.08-0.03-0.17-0.06-0.25-0.1
					c-0.82-0.32-1.62-0.64-2.4-0.97c-0.82-0.34-1.62-0.7-2.38-1.07c-0.25-0.12-0.5-0.24-0.74-0.36c-0.49-0.24-0.96-0.48-1.42-0.73
					c-0.23-0.12-0.45-0.24-0.68-0.37c-0.2-0.11-0.4-0.22-0.59-0.33c-0.26-0.15-0.51-0.3-0.76-0.46c-0.19-0.12-0.37-0.23-0.55-0.35
					c-0.2-0.13-0.39-0.25-0.58-0.38c-0.19-0.13-0.37-0.26-0.56-0.39c-0.18-0.12-0.36-0.26-0.54-0.39c-0.17-0.13-0.34-0.27-0.5-0.4
					c-0.33-0.26-0.63-0.53-0.93-0.8c-0.14-0.13-0.28-0.26-0.42-0.4c-0.11-0.11-0.22-0.23-0.33-0.34c-0.15-0.16-0.29-0.32-0.42-0.48
					c-0.33-0.41-0.62-0.82-0.85-1.24c-0.05-0.09-0.09-0.17-0.14-0.25c-0.05-0.1-0.1-0.2-0.14-0.31c-0.03-0.06-0.06-0.13-0.08-0.2
					c-0.1-0.25-0.18-0.5-0.24-0.75c-0.01-0.04-0.02-0.08-0.02-0.12c-0.03-0.12-0.05-0.25-0.06-0.38c0,0-0.02-0.08-0.06-0.22
					c2.69,0.98,6.51,1.94,11.87,2.73c23.86,3.54,71.26-4.78,86.55-7.03c6.2-0.91,11.48-2.72,15.55-4.54
					c0.18,0.26,0.36,0.51,0.55,0.77C1626.94,341.45,1627.65,344.7,1627.3,348.22z"/><path fill="#9fd39f" d="M1625.68,353.9c-1.25,2.47-3.26,4.65-6.29,5.94c-9.36,4.01-26.41,2.35-35.96,1.41s-11.42-0.06-19.16,4.14
					c-7.28,3.94-46.46-4.82-52.25-15.18c7.55,5.17,19.01,11.04,32.63,11.57c24.73,0.97,24.56-4.76,39.41-3.03
					C1595.19,360.03,1616.26,359.83,1625.68,353.9z" class="colorb39fd3 svgShape" opacity=".64"/><path fill="#fff" d="M1548.03,331.67c1.37,1.52,2.58,3.18,3.64,4.98c0.94,1.6,3.16,0.02,2.21-1.59
								c-1.19-2.01-2.55-3.87-4.08-5.57C1548.6,328.14,1546.82,330.32,1548.03,331.67L1548.03,331.67z" class="colorffffff svgShape"/><path fill="#fff" d="M1553.73,328.73c1.37,1.52,2.58,3.18,3.64,4.98c0.94,1.6,3.16,0.02,2.21-1.59
								c-1.19-2.01-2.55-3.87-4.08-5.57C1554.29,325.2,1552.51,327.38,1553.73,328.73L1553.73,328.73z" class="colorffffff svgShape"/><path fill="#fff" d="M1560.05,324.42c1.37,1.52,2.58,3.18,3.64,4.98c0.94,1.6,3.16,0.02,2.21-1.59
								c-1.19-2.01-2.55-3.87-4.08-5.57C1560.61,320.89,1558.84,323.07,1560.05,324.42L1560.05,324.42z" class="colorffffff svgShape"/><path fill="#fff" d="M1565.54,320.73c1.37,1.52,2.58,3.18,3.64,4.98c0.94,1.6,3.16,0.02,2.21-1.59
								c-1.19-2.01-2.55-3.87-4.08-5.57C1566.1,317.2,1564.33,319.38,1565.54,320.73L1565.54,320.73z" class="colorffffff svgShape"/><path fill="#fff" d="M1571.3,315.85c1.37,1.52,2.58,3.18,3.64,4.98c0.94,1.6,3.16,0.02,2.21-1.59
								c-1.19-2.01-2.55-3.87-4.08-5.57C1571.87,312.32,1570.09,314.5,1571.3,315.85L1571.3,315.85z" class="colorffffff svgShape"/><path fill="#fff" d="M1576.17,311.19c1.37,1.52,2.58,3.18,3.64,4.98c0.94,1.6,3.16,0.02,2.21-1.59
								c-1.19-2.01-2.55-3.87-4.08-5.57C1576.73,307.67,1574.96,309.84,1576.17,311.19L1576.17,311.19z" class="colorffffff svgShape"/><defs><filter id="am" width="114.29" height="43.1" x="1510.95" y="308.45" filterUnits="userSpaceOnUse"><feFlood flood-color="#fff" flood-opacity="1" result="back"/><feBlend in="SourceGraphic" in2="back"/></filter></defs><mask id="ao" width="114.29" height="43.1" x="1510.95" y="308.45" maskUnits="userSpaceOnUse"><g class="color000000 svgShape" filter="url(#am)"><linearGradient id="an" x1="1527.977" x2="1642.44" y1="359.914" y2="359.914" gradientTransform="rotate(-2.241 823.27 793.194)" gradientUnits="userSpaceOnUse"><stop class="stopColor000000 svgShape" offset="0"/><stop class="stopColorffffff svgShape" offset="1" stop-color="#fff"/></linearGradient><path fill="url(#an)" d="M1625.24,339.13c-4.07,1.82-9.35,3.62-15.55,4.54c-15.29,2.25-62.69,10.57-86.55,7.03
							c-5.36-0.79-9.18-1.74-11.87-2.73c-0.18-0.71-0.67-3.01,0.1-5.08c4.47,2.71,11.72,4.92,23.41,5.35
							c32.24,1.17,82.82-15.18,82.1-39.77c2.98,2.21,5.69,5.96,5.43,14.01C1622.02,332.02,1622.99,335.8,1625.24,339.13z" mask="url(#ao)"/></g></mask><linearGradient id="ap" x1="1527.977" x2="1642.44" y1="359.914" y2="359.914" gradientTransform="rotate(-2.241 823.27 793.194)" gradientUnits="userSpaceOnUse"><stop class="stopColor5635dc svgShape" offset="0" stop-color="#35b3dc"/><stop class="stopColor3f2bb2 svgShape" offset="1" stop-color="#2b91b2"/></linearGradient><path fill="url(#ap)" d="M1625.24,339.13c-4.07,1.82-9.35,3.62-15.55,4.54c-15.29,2.25-62.69,10.57-86.55,7.03
					c-5.36-0.79-9.18-1.74-11.87-2.73c-0.18-0.71-0.67-3.01,0.1-5.08c4.47,2.71,11.72,4.92,23.41,5.35
					c32.24,1.17,82.82-15.18,82.1-39.77c2.98,2.21,5.69,5.96,5.43,14.01C1622.02,332.02,1622.99,335.8,1625.24,339.13z" opacity=".3"/><path fill="#397739" d="M1627.16,349.25c0.01-0.04,0.01-0.09,0.02-0.13c0.18-1.19,0.24-2.36,0.19-3.46c0-0.01,0-0.02,0-0.03
				c-0.05-1.21-0.23-2.34-0.5-3.32c0-0.02-0.01-0.04-0.01-0.05c-0.09-0.3-0.18-0.59-0.28-0.86c-0.01-0.03-0.02-0.06-0.04-0.09
				c-0.1-0.26-0.21-0.51-0.33-0.73c-0.01-0.02-0.03-0.05-0.04-0.07c-0.12-0.23-0.25-0.44-0.38-0.62c-0.19-0.26-0.37-0.51-0.55-0.77
				c-2.25-3.33-3.22-7.11-2.92-16.66c0.25-8.05-2.45-11.8-5.43-14.01c-0.83-0.62-1.68-1.11-2.49-1.55
				c-3.74-2.01-6.02,14.63-17.49,13.27c-3.35-0.4-5.24-1.62-6.27-3.26c-2.52-3.94-0.08-10.28-1.54-13.15
				c-0.65-1.26-1.58-1.52-2.75-1.09c-0.01,0-0.02,0.01-0.04,0.02c-2.06,0.77-4.84,3.63-8.01,6.75c-0.12-0.14-0.23-0.28-0.35-0.41
				c-1.22-1.35-2.99,0.83-1.78,2.18c0.05,0.05,0.09,0.11,0.14,0.16c-0.13,0.12-0.25,0.24-0.38,0.36c-0.79,0.74-1.62,1.53-2.5,2.36
				c-0.12-0.13-0.23-0.27-0.34-0.4c-1.22-1.35-2.99,0.83-1.78,2.18c0.03,0.04,0.06,0.08,0.1,0.12c-1.12,1.04-2.31,2.11-3.56,3.19
				c-0.17-0.2-0.34-0.41-0.52-0.61c-1.22-1.35-2.99,0.83-1.78,2.18c0.06,0.07,0.12,0.14,0.18,0.21c-0.96,0.79-1.96,1.57-3,2.35
				c-0.29-0.35-0.59-0.71-0.89-1.05c-1.22-1.35-2.99,0.83-1.78,2.18c0.14,0.16,0.28,0.33,0.42,0.49c-1.31,0.91-2.68,1.8-4.11,2.65
				c-0.28-0.34-0.57-0.68-0.86-1.01c-1.22-1.35-2.99,0.83-1.78,2.18c0.07,0.07,0.13,0.15,0.19,0.22c-1.04,0.56-2.1,1.09-3.2,1.6
				c-0.3-0.36-0.6-0.72-0.91-1.06c-1.22-1.35-2.99,0.83-1.78,2.18c0.01,0.01,0.02,0.02,0.03,0.04c-2.09,0.85-4.23,1.6-6.37,2.27
				c-10.02,3.1-20.13,4.4-25.73,5.42c-2.71,0.49-4.01,1.92-4.59,3.49c-0.77,2.07-0.29,4.38-0.1,5.08c0.04,0.14,0.06,0.22,0.06,0.22
				c0.02,0.12,0.04,0.26,0.06,0.38c0.01,0.04,0.02,0.08,0.02,0.12c0,0,0,0,0,0c0.06,0.25,0.14,0.49,0.24,0.74c0,0,0,0.01,0,0.01
				c0.01,0.02,0.02,0.05,0.03,0.07c0.05,0.13,0.11,0.27,0.18,0.4c0.01,0.01,0.01,0.02,0.02,0.04c0.02,0.04,0.04,0.07,0.06,0.1
				c0.24,0.45,0.54,0.9,0.9,1.35c0.01,0.01,0.02,0.02,0.03,0.04c0.03,0.03,0.06,0.07,0.09,0.1c0.16,0.2,0.34,0.39,0.53,0.59l0,0
				c0.3,0.31,0.63,0.63,0.99,0.93c0.01,0,0.01,0.01,0.02,0.01c0.3,0.26,0.62,0.52,0.96,0.78c0.01,0,0.01,0.01,0.02,0.01
				c0.05,0.04,0.1,0.07,0.15,0.11c0,0,0.01,0.01,0.01,0.01c0,0,0.01,0.01,0.01,0.01c0.26,0.2,0.54,0.39,0.82,0.58
				c0.03,0.02,0.07,0.05,0.1,0.07c0.01,0.01,0.02,0.01,0.03,0.02c0.57,0.38,1.17,0.76,1.81,1.13c0.02,0.01,0.04,0.03,0.06,0.04
				c0.09,0.05,0.18,0.1,0.27,0.15c8.87,5.06,23.83,9.01,34.43,10.07c0.01,0,0.02,0,0.03,0c0.02,0,0.04,0,0.06,0.01
				c0.7,0.07,1.37,0.12,2.03,0.17c0.05,0,0.1,0.01,0.15,0.01c1.19,0.07,2.3,0.11,3.32,0.09c0.02,0,0.03,0,0.05,0
				c0.44-0.01,0.87-0.02,1.28-0.05c0.01,0,0.02,0,0.03,0c0.01,0,0.02,0,0.03,0c0.03,0,0.06,0,0.08-0.01
				c0.23-0.02,0.46-0.03,0.68-0.06c0.04,0,0.07-0.01,0.11-0.01c0.13-0.01,0.27-0.03,0.39-0.05c0.03,0,0.06-0.01,0.09-0.01
				c0.35-0.05,0.69-0.1,1-0.17c0.02,0,0.04-0.01,0.05-0.01c0.02,0,0.03-0.01,0.04-0.01c0.01,0,0.01,0,0.02,0
				c0.17-0.04,0.34-0.08,0.5-0.12c0.06-0.02,0.12-0.03,0.18-0.05c0.07-0.02,0.15-0.04,0.22-0.07c0.01,0,0.02-0.01,0.03-0.01
				c0.05-0.02,0.1-0.04,0.14-0.05c0.05-0.02,0.1-0.04,0.15-0.06c0.16-0.07,0.32-0.14,0.46-0.21c6.1-3.31,8.57-4.55,14.02-4.47
				c1.46,0.02,3.12,0.13,5.14,0.33c9.55,0.95,26.6,2.6,35.96-1.41c0.06-0.03,0.12-0.06,0.19-0.09c0.26-0.12,0.52-0.24,0.76-0.37
				c0.14-0.07,0.27-0.15,0.41-0.23c0.17-0.1,0.33-0.2,0.49-0.3c0.13-0.09,0.27-0.17,0.39-0.26c0.01-0.01,0.01-0.01,0.02-0.02
				c0.08-0.05,0.15-0.11,0.23-0.16c0.04-0.03,0.09-0.06,0.13-0.09c0.04-0.03,0.08-0.07,0.13-0.1c0.1-0.08,0.21-0.16,0.31-0.24
				c0.05-0.04,0.09-0.08,0.14-0.12c0.11-0.08,0.21-0.17,0.31-0.27c0.03-0.03,0.05-0.05,0.08-0.08c0.05-0.04,0.1-0.09,0.14-0.13
				c0.1-0.1,0.19-0.2,0.29-0.3c0.1-0.1,0.2-0.2,0.3-0.31c0.02-0.02,0.04-0.04,0.06-0.06c0.04-0.05,0.08-0.09,0.12-0.14
				c0.03-0.04,0.06-0.07,0.09-0.11c0.02-0.03,0.05-0.05,0.07-0.08c0.04-0.05,0.08-0.1,0.12-0.15c0.03-0.03,0.05-0.07,0.08-0.1
				c0.03-0.03,0.05-0.07,0.08-0.1c0.08-0.1,0.16-0.2,0.23-0.31c0.02-0.03,0.04-0.06,0.06-0.08c0.01-0.02,0.02-0.04,0.04-0.05
				c0.04-0.05,0.07-0.11,0.11-0.16c0.06-0.08,0.11-0.16,0.17-0.24c0.06-0.1,0.12-0.19,0.18-0.29c0.01-0.02,0.03-0.04,0.04-0.06
				c0-0.01,0.01-0.01,0.01-0.01c0,0,0,0,0,0c0.01-0.01,0.01-0.02,0.02-0.03c0.08-0.14,0.16-0.28,0.23-0.42c0,0,0-0.01,0.01-0.01
				c0.07-0.13,0.14-0.25,0.2-0.38c0.01-0.02,0.03-0.05,0.04-0.07c0,0,0,0,0,0l0,0c0.03-0.06,0.06-0.12,0.09-0.18
				c0.07-0.14,0.13-0.27,0.2-0.41c0.06-0.14,0.12-0.28,0.18-0.42c0-0.01,0.01-0.02,0.01-0.03c0.2-0.49,0.38-1,0.53-1.5
				c0-0.01,0-0.01,0.01-0.02c0,0,0-0.01,0-0.01c0.1-0.32,0.18-0.65,0.26-0.97c0-0.02,0.01-0.03,0.01-0.05
				c0.04-0.18,0.08-0.35,0.11-0.53c0-0.01,0.01-0.03,0.01-0.04c0.01-0.07,0.02-0.13,0.04-0.2
				C1627.13,349.44,1627.14,349.35,1627.16,349.25z" class="color77394b svgShape" opacity=".34"/><g class="color000000 svgShape"><linearGradient id="aq" x1="1642.529" x2="1642.529" y1="448.872" y2="530.719" gradientTransform="rotate(-8.419 796.073 780.957)" gradientUnits="userSpaceOnUse"><stop class="stopColorff5f7e svgShape" offset="0" stop-color="#5fff5f"/><stop class="stopColorcc256e svgShape" offset=".73" stop-color="#25cc25"/></linearGradient><path fill="url(#aq)" d="M1660.03,394.65c-11.58,6.52-33.94,6.76-46.47,6.88c-12.52,0.12-14.82,1.53-24.28,8.06
					c-9.46,6.54-67.83-0.54-71.11-14.88c0,0-0.04-0.1-0.11-0.27c-0.34-0.89-1.29-3.81-0.58-6.61c0.54-2.12,2.03-4.16,5.47-5.18
					c7.13-2.1,20.05-5.21,32.62-10.64c3.1-1.35,6.19-2.82,9.15-4.48c14.98-8.33,25.08-20.95,32.16-29.2
					c7.08-8.25,12.7-17.14,15.96-12.18c2.3,3.52,0.02,12.09,3.85,16.85c1.57,1.98,4.19,3.3,8.6,3.35
					c15.08,0.16,15.7-21.75,20.83-19.67c1.12,0.45,2.29,0.97,3.45,1.66c4.18,2.45,8.22,6.93,9.02,17.42
					c0.95,12.44,2.75,17.21,6.13,21.21c0.27,0.31,0.54,0.61,0.82,0.92C1669.43,372.1,1671.6,388.14,1660.03,394.65z"/><path fill="#5fff5f" d="M1616.68,343c-10.2,13.97-30.48,30.42-40.48,34.61c-8.06,3.37-15.78-1.36-20.62-5.6
					c3.1-1.35,6.18-2.83,9.15-4.48c14.98-8.33,25.07-20.95,32.16-29.2c7.07-8.25,12.7-17.14,15.95-12.18
					C1615.13,329.67,1612.86,338.24,1616.68,343z" class="colorff5f7e svgShape"/><linearGradient id="ar" x1="1642.676" x2="1642.676" y1="498.617" y2="530.715" gradientTransform="rotate(-8.419 796.073 780.957)" gradientUnits="userSpaceOnUse"><stop class="stopColorcfbbea svgShape" offset="0" stop-color="#bbeabb"/><stop class="stopColorffffff svgShape" offset=".805" stop-color="#fff"/></linearGradient><path fill="url(#ar)" d="M1668.65,378.47c0.01,0.22,0,0.45-0.01,0.68c0,0.23-0.01,0.46-0.02,0.69c-0.02,0.23-0.03,0.47-0.05,0.69
					c-0.02,0.23-0.04,0.47-0.07,0.7c-0.06,0.46-0.13,0.93-0.21,1.38c-0.13,0.7-0.29,1.4-0.49,2.09c-0.07,0.22-0.14,0.46-0.21,0.68
					c-0.08,0.23-0.16,0.45-0.25,0.68c-0.08,0.21-0.16,0.42-0.25,0.63c-0.08,0.19-0.16,0.38-0.25,0.57
					c-0.02,0.04-0.04,0.08-0.06,0.12c-0.07,0.15-0.14,0.29-0.21,0.44c-0.12,0.24-0.25,0.47-0.38,0.71
					c-0.09,0.16-0.18,0.32-0.28,0.48c-0.1,0.16-0.21,0.33-0.32,0.49c-0.1,0.16-0.21,0.31-0.32,0.47c-0.32,0.43-0.65,0.86-1.01,1.26
					c-0.12,0.14-0.25,0.28-0.38,0.4c-0.21,0.23-0.44,0.45-0.67,0.67c-0.1,0.11-0.22,0.21-0.33,0.3c-0.1,0.1-0.21,0.19-0.32,0.28
					c-0.76,0.64-1.6,1.23-2.54,1.75c-11.58,6.52-33.94,6.76-46.47,6.88c-12.52,0.12-14.82,1.53-24.28,8.06
					c-1.51,1.04-4.26,1.74-7.84,2.11c-0.3,0.04-0.61,0.07-0.93,0.09c-0.32,0.03-0.64,0.05-0.96,0.08c-1.12,0.08-2.3,0.13-3.54,0.15
					c-0.34,0.01-0.68,0.01-1.02,0.02c-0.69,0-1.39,0-2.11-0.01c-4.37-0.06-9.24-0.39-14.23-1c-0.71-0.08-1.43-0.18-2.15-0.28
					c-0.4-0.05-0.82-0.1-1.23-0.17c-1.22-0.17-2.46-0.36-3.68-0.57c-0.01,0-0.02-0.01-0.03,0c-0.69-0.12-1.4-0.25-2.09-0.38
					c-0.51-0.08-1.02-0.18-1.53-0.29c-0.4-0.08-0.81-0.16-1.21-0.24c-0.8-0.16-1.6-0.33-2.39-0.51c-0.79-0.17-1.57-0.35-2.35-0.55
					c-0.67-0.16-1.32-0.32-1.96-0.49c-0.11-0.02-0.22-0.06-0.34-0.09c-1.11-0.3-2.19-0.6-3.25-0.92c-1.11-0.33-2.2-0.68-3.24-1.06
					c-0.34-0.11-0.68-0.24-1.01-0.36c-0.66-0.24-1.31-0.49-1.94-0.74c-0.31-0.12-0.62-0.25-0.93-0.38
					c-0.27-0.12-0.55-0.23-0.81-0.35c-0.36-0.16-0.71-0.32-1.05-0.49c-0.26-0.13-0.52-0.25-0.77-0.37
					c-0.28-0.14-0.54-0.27-0.81-0.42c-0.26-0.14-0.52-0.29-0.78-0.43c-0.25-0.14-0.5-0.28-0.75-0.43c-0.24-0.15-0.47-0.3-0.71-0.45
					c-0.46-0.29-0.9-0.6-1.32-0.91c-0.2-0.15-0.4-0.3-0.6-0.46c-0.16-0.13-0.32-0.27-0.47-0.4c-0.22-0.18-0.42-0.38-0.61-0.56
					c-0.49-0.49-0.92-0.98-1.28-1.49c-0.07-0.1-0.15-0.2-0.21-0.31c-0.08-0.13-0.16-0.25-0.23-0.38c-0.04-0.08-0.09-0.16-0.14-0.24
					c-0.17-0.31-0.31-0.62-0.42-0.95c-0.02-0.06-0.03-0.1-0.05-0.16c-0.06-0.16-0.1-0.32-0.14-0.48c0,0-0.04-0.1-0.11-0.27
					c3.63,0.9,8.72,1.6,15.78,1.88c31.45,1.24,91.79-16.2,111.31-21.27c7.92-2.06,14.51-5.14,19.55-8.07
					c0.27,0.31,0.54,0.61,0.82,0.92C1667.24,369.74,1668.62,373.86,1668.65,378.47z"/><path fill="#9fd39f" d="M1667.35,386.07c-1.27,3.38-3.58,6.49-7.32,8.58c-11.58,6.52-33.94,6.76-46.46,6.88
					c-12.52,0.11-14.83,1.53-24.28,8.06c-8.89,6.13-60.95,0.26-69.92-12.36c10.52,5.64,26.22,11.66,43.96,10.43
					c32.22-2.22,31.2-9.63,50.71-9.47C1628.65,398.3,1655.95,395.09,1667.35,386.07z" class="colorb39fd3 svgShape" opacity=".64"/><path fill="#fff" d="M1563.48,368.13c1.99,1.78,3.79,3.76,5.43,5.95c1.45,1.94,4.1-0.42,2.65-2.37
								c-1.82-2.44-3.86-4.67-6.07-6.65C1563.71,363.47,1561.71,366.55,1563.48,368.13L1563.48,368.13z" class="colorffffff svgShape"/><path fill="#fff" d="M1570.45,363.52c1.99,1.78,3.79,3.76,5.43,5.95c1.45,1.94,4.1-0.42,2.65-2.37
								c-1.82-2.44-3.86-4.67-6.07-6.65C1570.68,358.86,1568.69,361.94,1570.45,363.52L1570.45,363.52z" class="colorffffff svgShape"/><path fill="#fff" d="M1578.05,357.04c1.99,1.78,3.79,3.76,5.43,5.95c1.45,1.94,4.11-0.42,2.65-2.37
								c-1.82-2.44-3.86-4.67-6.07-6.65C1578.29,352.38,1576.29,355.46,1578.05,357.04L1578.05,357.04z" class="colorffffff svgShape"/><path fill="#fff" d="M1584.66,351.48c1.99,1.78,3.79,3.76,5.43,5.95c1.45,1.94,4.1-0.42,2.65-2.37
								c-1.82-2.44-3.86-4.67-6.07-6.65C1584.89,346.82,1582.9,349.9,1584.66,351.48L1584.66,351.48z" class="colorffffff svgShape"/><path fill="#fff" d="M1591.45,344.34c1.99,1.78,3.79,3.76,5.43,5.95c1.45,1.94,4.1-0.42,2.65-2.37
								c-1.82-2.44-3.86-4.67-6.07-6.65C1591.69,339.69,1589.69,342.76,1591.45,344.34L1591.45,344.34z" class="colorffffff svgShape"/><path fill="#fff" d="M1597.12,337.61c1.99,1.78,3.79,3.76,5.43,5.95c1.45,1.94,4.11-0.42,2.65-2.37
								c-1.82-2.44-3.86-4.67-6.07-6.65C1597.35,332.96,1595.35,336.03,1597.12,337.61L1597.12,337.61z" class="colorffffff svgShape"/><defs><filter id="as" width="147.48" height="68.03" x="1517.23" y="328.34" filterUnits="userSpaceOnUse"><feFlood flood-color="#fff" flood-opacity="1" result="back"/><feBlend in="SourceGraphic" in2="back"/></filter></defs><mask id="au" width="147.48" height="68.03" x="1517.23" y="328.34" maskUnits="userSpaceOnUse"><g class="color000000 svgShape" filter="url(#as)"><linearGradient id="at" x1="1566.612" x2="1715.995" y1="484.346" y2="484.346" gradientTransform="rotate(-8.419 796.073 780.957)" gradientUnits="userSpaceOnUse"><stop class="stopColor000000 svgShape" offset="0"/><stop class="stopColorffffff svgShape" offset="1" stop-color="#fff"/></linearGradient><path fill="url(#at)" d="M1664.71,366.97c-5.03,2.93-11.63,6.01-19.55,8.07c-19.52,5.07-79.86,22.51-111.31,21.27
							c-7.07-0.28-12.16-0.97-15.78-1.88c-0.34-0.89-1.29-3.81-0.58-6.61c6.18,2.89,15.89,4.74,31.13,3.65
							c42-3,105.32-31.32,100.95-63.13c4.18,2.45,8.22,6.93,9.02,17.42C1659.53,358.2,1661.32,362.97,1664.71,366.97z" mask="url(#au)"/></g></mask><linearGradient id="av" x1="1566.612" x2="1715.995" y1="484.346" y2="484.346" gradientTransform="rotate(-8.419 796.073 780.957)" gradientUnits="userSpaceOnUse"><stop class="stopColor5635dc svgShape" offset="0" stop-color="#35b3dc"/><stop class="stopColor3f2bb2 svgShape" offset="1" stop-color="#2b91b2"/></linearGradient><path fill="url(#av)" d="M1664.71,366.97c-5.03,2.93-11.63,6.01-19.55,8.07c-19.52,5.07-79.86,22.51-111.31,21.27
					c-7.07-0.28-12.16-0.97-15.78-1.88c-0.34-0.89-1.29-3.81-0.58-6.61c6.18,2.89,15.89,4.74,31.13,3.65
					c42-3,105.32-31.32,100.95-63.13c4.18,2.45,8.22,6.93,9.02,17.42C1659.53,358.2,1661.32,362.97,1664.71,366.97z" opacity=".3"/></g></g><g class="color000000 svgShape" opacity=".65"><linearGradient id="aw" x1="469.143" x2="626.094" y1="626.829" y2="626.829" gradientUnits="userSpaceOnUse"><stop class="stopColorfe9a81 svgShape" offset="0" stop-color="#81fe81"/><stop class="stopColorfde090 svgShape" offset=".981" stop-color="#90fd90"/></linearGradient><path fill="url(#aw)" d="M591.79,534.82l34.1,104.05c0.81,2.47-0.92,5.04-3.51,5.23c-8.75,0.66-28.56,4.86-60.09,26.16
			c-29.08,19.65-42.71,38.61-48.63,49.28c-1.68,3.03-6.17,2.61-7.28-0.67l-37.03-109.71c-0.46-1.36-0.16-2.85,0.79-3.92
			c7.43-8.42,42.74-45.09,116.45-72.92C588.72,531.52,591.08,532.66,591.79,534.82z"/></g><g class="color000000 svgShape"><g class="color000000 svgShape" opacity=".47"><linearGradient id="ax" x1="662.216" x2="1007.654" y1="533.853" y2="533.853" gradientUnits="userSpaceOnUse"><stop class="stopColor03cce0 svgShape" offset="0" stop-color="#03aae0"/><stop class="stopColor74f195 svgShape" offset="1" stop-color="#6c6"/></linearGradient><path fill="url(#ax)" d="M662.54,500.48l56.04,179.55c1.33,4.26,6.25,6.21,10.13,4c17.7-10.06,64.34-35.6,115.59-55.75
				c55.54-21.84,135.73-47.58,158.47-54.78c3.51-1.11,5.55-4.74,4.68-8.32l-42.85-177.08c-0.97-4.02-5.19-6.32-9.09-4.97
				c-37.24,12.91-207.78,72.47-289.15,108.87C663.12,493.46,661.48,497.1,662.54,500.48z"/></g><linearGradient id="ay" x1="773.213" x2="773.213" y1="571.026" y2="667.089" gradientTransform="matrix(1.0548 -.3456 .4049 1.2361 -298.957 57.866)" gradientUnits="userSpaceOnUse"><stop class="stopColor68eab5 svgShape" offset="0" stop-color="#68ea68"/><stop class="stopColor87bdf9 svgShape" offset="1" stop-color="#87ddf9"/></linearGradient><path fill="url(#ay)" d="M779.7,490.02c-9.34-1.87-17.34,1.85-17.34,1.85c-2.16,0.81,0.25,5.94-1.27,9.45
						c-1.52,3.51-8.65,9.13-8.65,9.13s-9.07-0.31-12.37-2.24c-3.3-1.93-4.39-7.49-6.61-6.87c0,0-8.64,1.74-15.07,8.77
						s-17.53,35.3-14.48,38.68c3.05,3.38,16.78,14.21,18.97,13.49c2.19-0.72,6.56-12.55,7.2-10.57
						c0.65,1.98,24.73,74.01,24.73,74.01l31.97-10.47l31.97-10.47c0,0-23.21-72.32-23.86-74.3c-0.65-1.98,9.87,4.98,12.06,4.26
						c2.19-0.72,6.85-17.57,7.31-22.1C814.72,508.1,789.04,491.88,779.7,490.02z"/><path fill="#fff" d="M832.07,475.33l0.97,2.25c1.06,2.47,3.87,3.66,6.37,2.7c9.89-3.78,34.46-13.13,56.59-21.29
				c20.7-7.62,39.54-13.14,48.32-15.59c2.8-0.78,4.34-3.76,3.37-6.5l-1.48-4.15c-0.94-2.62-3.84-3.98-6.45-3.01l-104.83,38.91
				C832.25,469.67,830.95,472.7,832.07,475.33z" class="colorffffff svgShape" opacity=".57"/><path fill="#fff" d="M841.07,504.96l0.97,2.25c1.06,2.47,3.87,3.66,6.37,2.7c9.89-3.78,34.46-13.13,56.59-21.29
				c20.7-7.62,39.54-13.14,48.32-15.59c2.8-0.78,4.34-3.77,3.37-6.5l-1.48-4.15c-0.94-2.62-3.84-3.98-6.45-3.01L843.93,498.3
				C841.25,499.3,839.95,502.33,841.07,504.96z" class="colorffffff svgShape" opacity=".57"/><g class="color000000 svgShape" opacity=".57"><path fill="#fff" d="M855.57,549.68l0.97,2.25c1.06,2.47,3.87,3.66,6.37,2.7c9.89-3.78,34.46-13.13,56.59-21.29
				c20.7-7.62,39.54-13.14,48.32-15.59c2.8-0.78,4.34-3.76,3.37-6.5l-1.48-4.15c-0.94-2.62-3.84-3.98-6.45-3.01l-104.83,38.91
				C855.75,544.02,854.45,547.05,855.57,549.68z" class="colorffffff svgShape"/></g></g></svg>