<svg xmlns="http://www.w3.org/2000/svg" data-name="Layer 1" viewBox="0 0 255 250"><path fill="#c6e3c6" d="M233.39,157.52a4,4,0,0,1-2.34,3.27l-79.61,45.85a12.32,12.32,0,0,1-11.2,0L23.91,139.3a3.93,3.93,0,0,1-2.3-3.23v4.09a3.92,3.92,0,0,0,2.29,3.23l116.34,67.33a12.32,12.32,0,0,0,11.2,0l79.6-45.85c1.57-.9,2.35-2.09,2.34-3.27Z" class="colorc6cde3 svgShape"/><path fill="#eff9ef" d="M231.09,154.31,114.76,87a12.29,12.29,0,0,0-11.2,0L24,132.81c-3.12,1.78-3.14,4.7-.05,6.48l116.32,67.34a12.31,12.31,0,0,0,11.21,0L231,160.79C234.16,159,234.17,156.09,231.09,154.31Z" class="coloreff6f9 svgShape"/><path fill="#005c7a" d="M223.45,154.14l-85,49a1.38,1.38,0,0,1-1.39,0L26,138.72a1.4,1.4,0,0,1,0-2.42l85-49a1.4,1.4,0,0,1,1.4,0l111.05,64.39A1.39,1.39,0,0,1,223.45,154.14Z" class="color00537a svgShape"/><path fill="#fff" d="M137.75,203.8a1.89,1.89,0,0,1-.95-.26l-111-64.39a1.89,1.89,0,0,1,0-3.28l85-49a1.9,1.9,0,0,1,1.9,0l111.05,64.39a1.9,1.9,0,0,1,0,3.28l-85,49A1.85,1.85,0,0,1,137.75,203.8Zm-26-116.16a.89.89,0,0,0-.45.12l-85,49a.88.88,0,0,0-.45.77.91.91,0,0,0,.45.78L137.3,202.67a.88.88,0,0,0,.9,0l85-49a.9.9,0,0,0,0-1.55l-111-64.39A.92.92,0,0,0,111.71,87.64Z" class="colorffffff svgShape"/><path fill="#c6e3c6" d="M172.34,171.5l-14.89,8.6a1.27,1.27,0,0,1-1.14,0,.34.34,0,0,1,0-.65l14.89-8.61a1.27,1.27,0,0,1,1.14,0C172.66,171,172.66,171.32,172.34,171.5Z" class="colorc6cde3 svgShape"/><path fill="#c6e3c6" d="M187.32,166l-14.89,8.6a1.27,1.27,0,0,1-1.14,0,.34.34,0,0,1,0-.65l14.9-8.6a1.25,1.25,0,0,1,1.13,0C187.64,165.52,187.64,165.81,187.32,166Z" class="colorc6cde3 svgShape"/><path fill="#c6e3c6" d="M149.9,182.88l4.34-2.51a1.27,1.27,0,0,1,1.14,0,.35.35,0,0,1,0,.66L151,183.54a1.25,1.25,0,0,1-1.13,0C149.59,183.35,149.59,183.06,149.9,182.88Z" class="colorc6cde3 svgShape"/><path fill="#c6e3c6" d="M187.87,164.32l4.34-2.5a1.21,1.21,0,0,1,1.14,0c.32.18.32.47,0,.65L189,165a1.27,1.27,0,0,1-1.14,0C187.56,164.8,187.56,164.51,187.87,164.32Z" class="colorc6cde3 svgShape"/><path fill="#c6e3c6" d="M173.38,169.71l16.29-9.41a1.27,1.27,0,0,1,1.14,0,.35.35,0,0,1,0,.66l-16.29,9.4a1.27,1.27,0,0,1-1.14,0A.34.34,0,0,1,173.38,169.71Z" class="colorc6cde3 svgShape"/><path fill="#c6e3c6" d="M153.39,184.22l16.3-9.4a1.25,1.25,0,0,1,1.13,0c.32.18.32.47,0,.65l-16.29,9.41a1.27,1.27,0,0,1-1.14,0A.35.35,0,0,1,153.39,184.22Z" class="colorc6cde3 svgShape"/><path fill="#6c6" d="M177.28,159.08l14.42-8.33c2-1.14,2-3,0-4.14a8,8,0,0,0-7.19,0l-14.42,8.33c-2,1.14-2,3,0,4.15A8,8,0,0,0,177.28,159.08Z" class="color0dca6f svgShape"/><path fill="#59ff59" d="M135,182.5l14.43-8.33c2-1.14,2-3,0-4.14a8,8,0,0,0-7.19,0l-14.42,8.33c-2,1.14-2,3,0,4.15A7.94,7.94,0,0,0,135,182.5Z" class="colorff5978 svgShape"/><path fill="#fff" d="M131.41,183.86a7.78,7.78,0,0,1-3.83-.93,2.67,2.67,0,0,1,0-5L142,169.59a8.41,8.41,0,0,1,7.69,0,2.67,2.67,0,0,1,0,5l-14.43,8.33h0A7.85,7.85,0,0,1,131.41,183.86Zm14.42-14.19a6.84,6.84,0,0,0-3.34.79l-14.42,8.32a1.71,1.71,0,0,0,0,3.29,7.46,7.46,0,0,0,6.67,0l14.43-8.33a1.71,1.71,0,0,0,0-3.28A6.91,6.91,0,0,0,145.83,169.67Z" class="colorffffff svgShape"/><path fill="#c6e3c6" d="M173.08,166.4l4.35-2.51a1.21,1.21,0,0,1,1.14,0,.34.34,0,0,1,0,.65l-4.35,2.51a1.27,1.27,0,0,1-1.14,0A.34.34,0,0,1,173.08,166.4Z" class="colorc6cde3 svgShape"/><path fill="#c6e3c6" d="M160.16,173.66l3.3-1.9a1.25,1.25,0,0,1,1.13,0c.32.18.32.47,0,.65l-3.29,1.91a1.27,1.27,0,0,1-1.14,0C159.85,174.13,159.85,173.84,160.16,173.66Z" class="colorc6cde3 svgShape"/><path fill="#c6e3c6" d="M166.17,170.31l4.34-2.5a1.21,1.21,0,0,1,1.14,0c.32.18.32.47,0,.65L167.31,171a1.27,1.27,0,0,1-1.14,0A.35.35,0,0,1,166.17,170.31Z" class="colorc6cde3 svgShape"/><path fill="#c6e3c6" d="M179.66,162.76l4.35-2.51a1.25,1.25,0,0,1,1.13,0c.32.19.32.48,0,.66l-4.34,2.51a1.27,1.27,0,0,1-1.14,0A.35.35,0,0,1,179.66,162.76Z" class="colorc6cde3 svgShape"/><path fill="#003647" d="M124.7,157.31c20.4,0,37-8.49,38.17-19.19,0,0,.11,2,.11,2.45,0,11.25-17.14,20.36-38.28,20.36s-38.28-9.11-38.28-20.36V137C86.42,148.2,103.56,157.31,124.7,157.31Z" class="color002e47 svgShape"/><path fill="#0099cb" d="M124.7,116.59c21.14,0,38.28,9.11,38.28,20.36a11.3,11.3,0,0,1-.11,1.17c-1.14,10.7-17.77,19.19-38.17,19.19-21.14,0-38.28-9.11-38.28-20.36S103.56,116.59,124.7,116.59Z" class="color0083b7 svgShape"/><path fill="#003647" d="M124.7,133.75c5.94,0,10.76,1.89,10.76,4.21a2,2,0,0,1,0,.24c-.32,2.22-5,4-10.73,4-5.94,0-10.76-1.88-10.76-4.21S118.76,133.75,124.7,133.75Z" class="color002e47 svgShape"/><g style="isolation:isolate" class="color000000 svgShape"><path fill="#42ff42" d="M121.28,38.9c-4.88,1.83-16.1-1.66-17.1-2.92l-14.26,6.6.1.09c4.29,3.69,10.46,6.71,17.06,4.35,5.2-1.86,16.12-8.89,16.12-8.89C122.55,38.43,121.91,38.68,121.28,38.9Z" class="colorffb642 svgShape"/><path fill="#fff" d="M102.33,48.86c-5.64,0-10.35-3.18-13-5.43l-.14-.13a1,1,0,0,1-.29-.89,1,1,0,0,1,.57-.74l14.26-6.6a1,1,0,0,1,1.2.28c1.1,1.09,11.62,4.25,16,2.61h0a18.17,18.17,0,0,0,1.82-.73,1,1,0,0,1,1,1.75c-.45.29-11.08,7.12-16.33,9A15.16,15.16,0,0,1,102.33,48.86Zm-10.55-6c3.26,2.5,8.81,5.46,15,3.26a77,77,0,0,0,10.85-5.66c-5,0-11.33-1.89-13.54-3.28Z" class="colorffffff svgShape"/><path fill="#42ff42" d="M159.73,73.17c.11-2,.23-4.38.19-7.31V65.6l-14.26,6.61v.25c-.8,15.46-2.23,34.67-15.42,45.8a9.93,9.93,0,0,1-2.21,1.23s15.76-9.13,16.46-9.58C154.89,103,159,87.86,159.73,73.17Z" class="colorffb642 svgShape"/><path fill="#fff" d="M128,120.49a1,1,0,0,1-.88-.54,1,1,0,0,1,.38-1.33l2.28-1.32C142.92,106,144,85.81,144.66,72.41v-.12a1.09,1.09,0,0,1,.58-1l14.26-6.6a1,1,0,0,1,.95.06,1,1,0,0,1,.47.83v.25c0,3.08-.09,5.56-.19,7.38h0c-.54,10.48-3.29,29.29-15.68,37.52-.56.36-9.6,5.61-14.07,8.2l-.1.08a9.23,9.23,0,0,1-2.2,1.27l-.23.11A1,1,0,0,1,128,120.49Zm18.61-47.64c-.62,12-1.59,29-10.77,40.94,4-2.33,7.77-4.52,8.08-4.72,11.65-7.74,14.26-25.85,14.78-36h0c.08-1.52.19-3.52.2-6Z" class="colorffffff svgShape"/><path fill="#42ff42" d="M159.92,65.6c-.74,0-1.46-.06-2.17-.14-13.7-1.06-23.44-17.14-26.35-32.25L117.1,40.1s4.91,30.64,26.4,32c.7,0,1.42.12,2.16.14h0Z" class="colorffb642 svgShape"/><path fill="#fff" d="M145.66,73.21h0c-.5,0-1,0-1.47-.09l-.73-.06c-21.86-1.34-27.11-31.5-27.32-32.79a1,1,0,0,1,.55-1.07L131,32.31a1,1,0,0,1,.88,0,1,1,0,0,1,.53.71c2.86,14.86,12.53,30.43,25.45,31.44.75.08,1.43.12,2.1.13a1,1,0,0,1,.41,1.91l-14.26,6.6A1,1,0,0,1,145.66,73.21ZM118.22,40.67c.94,4.78,6.63,29.25,25.34,30.4l.77.06c.37,0,.74.06,1.12.07l10.64-4.93c-13.29-2.09-22.33-17.36-25.41-31.6Z" class="colorffffff svgShape"/><path fill="#91ff91" d="M117.1,40.1c.31,1.59,6,31.68,28.56,32.11,0,2.32.87,46.42-23.69,48.92-1.58-.84-31.68-16.76-32-78.55A18.43,18.43,0,0,0,102,47.34C106.36,47.37,111.6,45.67,117.1,40.1Z" class="colorffde91 svgShape"/><path fill="#fff" d="M122,122.13a1,1,0,0,1-.47-.12c-3.29-1.74-32.21-18.79-32.58-79.42a1,1,0,0,1,.61-.93,1,1,0,0,1,1.08.2A17.37,17.37,0,0,0,102,46.34h.1c4.93,0,9.74-2.33,14.3-6.94a1,1,0,0,1,1.7.52c.6,3.16,6.49,30.88,27.59,31.29a1,1,0,0,1,1,1c.09,4.84.17,47.42-24.59,49.93Zm-31-77.44c1,56.38,27.06,73.09,31.23,75.41,21.55-2.53,22.53-39.31,22.5-46.93-19.61-1.1-26.5-24-28.17-31.1-4.57,4.16-9.4,6.27-14.41,6.27H102A19.42,19.42,0,0,1,90.94,44.69Z" class="colorffffff svgShape"/><path fill="#42ff42" d="M124.7,111.49c-5.42-3.46-23.48-18-26.41-59.49a23,23,0,0,1-3.12-.76c2.5,45.28,22,61,27.8,64.69,8.08-1.7,12.48-10.14,14.87-19.16C135.38,103.94,131.34,110.09,124.7,111.49Z" class="colorffb642 svgShape"/><path fill="#fff" d="M123,116.93a1,1,0,0,1-.54-.15c-6-3.83-25.74-19.85-28.26-65.49a1,1,0,0,1,.39-.84,1,1,0,0,1,.92-.16,21.63,21.63,0,0,0,6.48,1h.14a22.09,22.09,0,0,0,11.65-3.44,1,1,0,0,1,.87-.08,1,1,0,0,1,.6.62c3,8.93,10.29,24.35,25.58,27.27a1,1,0,0,1,.81,1c-.41,11-3,37-18.44,40.19ZM96.25,52.59c2.74,42.77,20.81,58.24,26.91,62.27,13.32-3.24,15.93-26.52,16.41-37.37-15.06-3.36-22.55-18-25.84-27.27a23.76,23.76,0,0,1-11.64,3.11H102A23.33,23.33,0,0,1,96.25,52.59Z" class="colorffffff svgShape"/><path fill="#0099cb" d="M118.6,90.38h0a1.35,1.35,0,0,1-.69-1.12l-1-19.66A1.39,1.39,0,0,1,119,68.32L121,69.51a1.36,1.36,0,0,1,.69,1.28l-1,18.47A1.39,1.39,0,0,1,118.6,90.38Z" class="color0083b7 svgShape"/><path fill="#0099cb" d="M115.85,94.37a7.48,7.48,0,0,0,3.4,5.86c1.88,1.08,3.4.21,3.4-1.94a7.49,7.49,0,0,0-3.4-5.86C117.37,91.35,115.85,92.22,115.85,94.37Z" class="color0083b7 svgShape"/></g><path fill="#acffac" d="M75.26,82.52c.54-.2,3,2.4,4.12,1.08s2.8-3.72,3.19-3.49-1.14,3.4-2.27,4.7-1.93,2.13-1.75,2.29c.45.41,2.84-1.13,2.87-.8.08,1.15-2.6,3-4.63,2.85-2.2-.18-8.06,11.39-10.66,13.25C63,104.66,59.88,99,61.12,98,64.76,95.15,71.27,89.32,72,87.6,72.43,86.48,73,83.33,75.26,82.52Z" class="colorffacac svgShape"/><path fill="#fff" d="M49.14,100.22c5.77-.75,11-3.06,12.62-3.52s6,5.07,3.86,7c-5.38,4.86-12,6.11-16.77,6.64-5.68.62-9.77.17-9.92-3.87C38.8,102.86,42.36,101.1,49.14,100.22Z" class="colorffffff svgShape"/><path fill="#91ff91" d="M53.49,203.75c.52,1.12-.44,2.92-1.37,3.73s-7.21,6.25-11.22,4.71a3.31,3.31,0,0,1-1.32-.8c-.6-.66.25-4.3.92-4.95C41.37,205.59,53.07,202.82,53.49,203.75Z" class="colorffde91 svgShape"/><path fill="#5aff5a" d="M46.33,203.23c2.84-1.1,6.57-1,7-.06.51,1.13-1.06,3-2,3.86-2.67,2.34-8.06,4.85-10,4.19a4.86,4.86,0,0,1-1.75-.9c-.6-.66,0-3,.67-3.68A34,34,0,0,1,46.33,203.23Z" class="colorff5a77 svgShape"/><path fill="#91ff91" d="M45,208.21a.75.75,0,1,1-.57.73A.66.66,0,0,1,45,208.21Z" class="colorffde91 svgShape"/><path fill="#91ff91" d="M41.12,205.88l1.12,1.48-.29.53c-.56.8-.47,3.43-.47,3.43a2.16,2.16,0,0,1-1.74-.85c-.33-2.59.71-3.59.71-3.59Z" class="colorffde91 svgShape"/><path fill="#acffac" d="M47.55,204.4c.23.51-.21,1.94-2.69,3a5.44,5.44,0,0,1-2.91.49,1,1,0,0,0-.39-1.06,1.1,1.1,0,0,0-1.11,0,19.18,19.18,0,0,0,.42-2C41.57,205,46.82,202.79,47.55,204.4Z" class="colorffacac svgShape"/><path fill="#003647" d="M49,170.55c-.16,7-1.92,33.52-1.92,33.52s-2.6,2.42-7.55.51c0,0-1.34-20.05-1.78-25s0-9.14.4-10.06C39.27,167.06,49.18,163.58,49,170.55Z" class="color002e47 svgShape"/><path fill="#003647" d="M40.19,133.42c1.18-.9,4.83-1.42,8.5,1.77,6.6,5.74.25,32.85.25,37.42s-9.51,4.27-10.62-2.06c-.73-4.25-2.52-19-2.75-21.66C35.32,146,35.28,137.12,40.19,133.42Z" class="color002e47 svgShape"/><path fill="#91ff91" d="M64.34,209.07c.52,1.12-.44,2.93-1.37,3.74s-7.21,6.24-11.22,4.7a3.31,3.31,0,0,1-1.32-.8c-.6-.66.24-4.29.92-5C52.22,210.91,63.91,208.14,64.34,209.07Z" class="colorffde91 svgShape"/><path fill="#5aff5a" d="M57.18,208.55c2.84-1.1,6.57-1,7-.06.52,1.13-1.05,3-2,3.86-2.67,2.35-8.06,4.85-10,4.19a4.86,4.86,0,0,1-1.75-.9c-.6-.66,0-3,.67-3.68A35.23,35.23,0,0,1,57.18,208.55Z" class="colorff5a77 svgShape"/><path fill="#91ff91" d="M55.86,213.53a.75.75,0,1,1-.57.73A.67.67,0,0,1,55.86,213.53Z" class="colorffde91 svgShape"/><path fill="#91ff91" d="M52,211.2l1.12,1.48-.29.53c-.56.81-.47,3.43-.47,3.43a2.17,2.17,0,0,1-1.74-.84c-.34-2.6.71-3.6.71-3.6Z" class="colorffde91 svgShape"/><path fill="#acffac" d="M58.4,209.72c.23.52-.21,1.95-2.69,3a5.44,5.44,0,0,1-2.91.49,1,1,0,0,0-.39-1.06,1.1,1.1,0,0,0-1.11,0,19.18,19.18,0,0,0,.42-2C52.42,210.32,57.67,208.11,58.4,209.72Z" class="colorffacac svgShape"/><path fill="#005c7a" d="M59.58,176.29c-.17,7-1.88,33.07-1.88,33.07a6.23,6.23,0,0,1-7.53,1.81s-1.4-20.9-1.84-25.82-.16-9.95.25-10.87C49.69,172,59.75,169.32,59.58,176.29Z" class="color00537a svgShape"/><path fill="#005c7a" d="M49,139.45c1.18-.89,5.7-3.46,9.45-.37,5.07,4.17,1,34.7,1,39.27,0,4.72-9.52,4.27-10.62-2.06-.74-4.25-3.54-22.65-3.77-25.31C44.87,148.07,44.11,143.16,49,139.45Z" class="color00537a svgShape"/><path fill="#003647" d="M45.41,153.34c-.15-1.11-.25-1.94-.29-2.36-.25-2.91-1-7.82,3.9-11.53,1.18-.89,5.7-3.46,9.45-.37C59.85,140.22,56.39,149,45.41,153.34Z" class="color002e47 svgShape"/><path fill="#4bd3ff" d="M37.07,119c-1.08-7.23-.74-17.13,7-17.13,3.84,0,16.48,3.19,16.48,11.35,0,7.17-1.23,23.12.77,31.69,0,0-20.59,4.48-26.3-2.12C35.06,142.74,38.14,126.18,37.07,119Z" class="color4b6dff svgShape"/><path fill="#acffac" d="M49.45,88.77c.76-.48,7.23-.42,7.31.53s-.82,2.3-.48,3.19a3.6,3.6,0,0,1,0,2.78c-1.68,2.79-2.83,5.14-4.64,4.61-.46,1.91,1.3,4.11,1.07,4.07a30.84,30.84,0,0,1-6.39-2.16c.65-4.26-.41-7.49,1.85-11.52A4.14,4.14,0,0,1,49.45,88.77Z" class="colorffacac svgShape"/><path fill="#003647" d="M47.42,84.14c0-3.28,6-2.57,5.88-.09,2.62-1.5,6.26,2,3.87,6.6,0,0-.48-1.46-1.51-1,0,2.38-1.62,1-2.18,3.76-.34,1.68-.87,3.43-2.36,4.43-1.28.86-4.55,0-4.55,0,0-2.3-4.25-6-2.91-8.48A3.66,3.66,0,0,1,47.42,84.14Z" class="color002e47 svgShape"/><path fill="#fff" d="M46.73,99.88c1.45.09,2.73.34,5.83,1.91a3.64,3.64,0,0,1,1.65,3l-9.49-3,.87-1.33A1.29,1.29,0,0,1,46.73,99.88Z" class="colorffffff svgShape"/><path fill="#acffac" d="M68,142c.42.33,1.52,1.72,2.27,1.45,1.61-.57,3.7-.7,3.51,0-.09.34-2,.94-2.81,1.5s.43.79.8,1.37a22.1,22.1,0,0,1,2.29,5.78c.16.73-1.64-1-2.33-3-.85-2.5-.34,1.1-.9,1.49-.93.66-3.84-.37-4.92-.79-.59-.22-1-1.64-.51-3.05,0-.11.65-1-1.11-2.67-3.7-3.43-11.83-11.62-11.83-11.62l5.12-3.82S64.81,139.49,68,142Z" class="colorffacac svgShape"/><path fill="#fff" d="M56.1,107.17c3.35.82,4,4.57,3.07,11a62.29,62.29,0,0,0-.57,10.94c0,1.64-5.74,5.8-7,3.35-3.07-6.24-2.5-12.65-1.72-17.21C50.84,109.9,52.33,106.24,56.1,107.17Z" class="colorffffff svgShape"/></svg>