<svg xmlns="http://www.w3.org/2000/svg" xmlns:xlink="http://www.w3.org/1999/xlink" viewBox="0 0 1800 1400"><defs><linearGradient id="f" x1="885.531" x2="1173.902" y1="421.338" y2="421.338" gradientUnits="userSpaceOnUse"><stop class="stopColord1d7f3 svgShape" offset="0" stop-color="#d1f3d1"/><stop class="stopColore4e7f8 svgShape" offset=".303" stop-color="#e4f8e4"/><stop class="stopColorf8f9fd svgShape" offset=".718" stop-color="#f8fdf8"/><stop class="stopColorffffff svgShape" offset="1" stop-color="#fff"/></linearGradient><linearGradient id="e" x1="844.318" x2="1017.065" y1="389.467" y2="389.467" gradientUnits="userSpaceOnUse"><stop class="stopColorced3f8 svgShape" offset=".396" stop-color="#cef8ce"/><stop class="stopColorbec3e9 svgShape" offset=".552" stop-color="#bee9be"/><stop class="stopColorbbc0e6 svgShape" offset=".574" stop-color="#bbe6bb"/></linearGradient><linearGradient id="h" x1="481.59" x2="620.783" y1="633.917" y2="633.917" gradientUnits="userSpaceOnUse"><stop class="stopColorc4c9e4 svgShape" offset=".453" stop-color="#c4e4c4"/><stop class="stopColorffffff svgShape" offset="1" stop-color="#fff"/></linearGradient><linearGradient id="i" x1="631.524" x2="897.89" y1="598.103" y2="598.103" gradientUnits="userSpaceOnUse"><stop class="stopColorc4c9e4 svgShape" offset=".006" stop-color="#c4e4c4"/><stop class="stopColorcacee7 svgShape" offset=".072" stop-color="#cae7ca"/><stop class="stopColore7e9f4 svgShape" offset=".444" stop-color="#e7f4e7"/><stop class="stopColorf9f9fc svgShape" offset=".766" stop-color="#f9fcf9"/><stop class="stopColorffffff svgShape" offset="1" stop-color="#fff"/></linearGradient><linearGradient id="a" x1="599.391" x2="736.752" y1="511.2" y2="511.2" gradientUnits="userSpaceOnUse"><stop class="stopColorfcba06 svgShape" offset="0" stop-color="#06fc06"/><stop class="stopColordc8b00 svgShape" offset="1" stop-color="#00dc00"/></linearGradient><linearGradient id="b" x1="599.391" x2="736.752" y1="530.777" y2="530.777" gradientUnits="userSpaceOnUse"><stop class="stopColorffd03e svgShape" offset="0" stop-color="#3eff3e"/><stop class="stopColore19100 svgShape" offset="1" stop-color="#00e100"/></linearGradient><linearGradient id="j" x1="599.391" x2="736.752" y1="550.354" y2="550.354" xlink:href="#a"/><linearGradient id="k" x1="599.391" x2="736.752" y1="569.927" y2="569.927" xlink:href="#b"/><linearGradient id="l" x1="599.391" x2="736.752" y1="589.502" y2="589.502" xlink:href="#a"/><linearGradient id="m" x1="599.391" x2="736.752" y1="609.076" y2="609.076" xlink:href="#b"/><linearGradient id="c" x1="612.294" x2="723.853" y1="466.437" y2="466.437" gradientUnits="userSpaceOnUse"><stop class="stopColorfcba06 svgShape" offset="0" stop-color="#06fc06"/><stop class="stopColore19100 svgShape" offset="1" stop-color="#00e100"/></linearGradient><linearGradient id="n" x1="646.88" x2="677.026" y1="495.532" y2="495.532" xlink:href="#c"/><linearGradient id="d" x1="449.7" x2="586.035" y1="644.806" y2="644.806" gradientUnits="userSpaceOnUse"><stop class="stopColorfbba05 svgShape" offset="0" stop-color="#05fb05"/><stop class="stopColordc8b00 svgShape" offset="1" stop-color="#00dc00"/></linearGradient><linearGradient id="o" x1="462.507" x2="573.23" y1="600.381" y2="600.381" gradientUnits="userSpaceOnUse"><stop class="stopColordc8b00 svgShape" offset="0" stop-color="#00dc00"/><stop class="stopColorfbba05 svgShape" offset="1" stop-color="#05fb05"/></linearGradient><linearGradient id="p" x1="496.83" x2="526.754" y1="629.255" y2="629.255" xlink:href="#d"/><linearGradient id="q" x1="1220.251" x2="1576.845" y1="1022.697" y2="1022.697" gradientUnits="userSpaceOnUse"><stop class="stopColorc4cae8 svgShape" offset="0" stop-color="#c4e8c4"/><stop class="stopColorffffff svgShape" offset="1" stop-color="#fff"/></linearGradient><linearGradient id="r" x1="1022.049" x2="1561.536" y1="1026.826" y2="1026.826" gradientUnits="userSpaceOnUse"><stop class="stopColor807cfb svgShape" offset=".27" stop-color="#7cdcfb"/><stop class="stopColor7d79f7 svgShape" offset=".297" stop-color="#79d8f7"/><stop class="stopColor736fec svgShape" offset=".324" stop-color="#6fcdec"/><stop class="stopColor6460d8 svgShape" offset=".351" stop-color="#60bad8"/><stop class="stopColor4d49bd svgShape" offset=".377" stop-color="#49a0bd"/><stop class="stopColor423eaf svgShape" offset=".388" stop-color="#3e93af"/></linearGradient><linearGradient id="s" x1="634.212" x2="1304.263" y1="1515.62" y2="355.057" gradientUnits="userSpaceOnUse"><stop class="stopColorf6f6fb svgShape" offset=".679" stop-color="#f6fbf6"/><stop class="stopColorf3f3fb svgShape" offset=".788" stop-color="#f3fbf3"/><stop class="stopColore8eafa svgShape" offset=".881" stop-color="#e8fae8"/><stop class="stopColord7dbf9 svgShape" offset=".967" stop-color="#d7f9d7"/><stop class="stopColorced3f8 svgShape" offset="1" stop-color="#cef8ce"/></linearGradient><linearGradient id="t" x1="1286.599" x2="1525.026" y1="376.68" y2="-36.287" gradientUnits="userSpaceOnUse"><stop class="stopColorf6f6fb svgShape" offset="0" stop-color="#f6fbf6"/><stop class="stopColore6e7f5 svgShape" offset=".337" stop-color="#e6f5e6"/><stop class="stopColorbbc0e6 svgShape" offset=".995" stop-color="#bbe6bb"/><stop class="stopColorbbc0e6 svgShape" offset="1" stop-color="#bbe6bb"/></linearGradient><linearGradient id="u" x1="484.22" x2="1254.956" y1="777.958" y2="777.958" gradientUnits="userSpaceOnUse"><stop class="stopColor423eaf svgShape" offset=".31" stop-color="#3e93af"/><stop class="stopColor362e94 svgShape" offset=".402" stop-color="#2e7b94"/></linearGradient><linearGradient id="w" x1="827.957" x2="986.958" y1="1093.797" y2="1093.797" gradientUnits="userSpaceOnUse"><stop class="stopColord1d7f3 svgShape" offset="0" stop-color="#d1f3d1"/><stop class="stopColordbdff5 svgShape" offset=".306" stop-color="#dbf5db"/><stop class="stopColorf4f6fc svgShape" offset=".817" stop-color="#f4fcf4"/><stop class="stopColorffffff svgShape" offset="1" stop-color="#fff"/></linearGradient><linearGradient id="x" x1="790.023" x2="949.024" y1="1104.762" y2="1104.762" xlink:href="#e"/><linearGradient id="y" x1="713.928" x2="824.348" y1="1121.112" y2="1121.112" xlink:href="#f"/><linearGradient id="z" x1="696.366" x2="769.979" y1="1109.985" y2="1109.985" xlink:href="#e"/><linearGradient id="A" x1="240.717" x2="351.137" y1="1001.758" y2="1001.758" xlink:href="#f"/><linearGradient id="B" x1="223.155" x2="296.768" y1="997.092" y2="997.092" xlink:href="#e"/><linearGradient id="C" x1="355.618" x2="583.834" y1="733.992" y2="733.992" xlink:href="#f"/><linearGradient id="D" x1="319.321" x2="471.464" y1="718.623" y2="718.623" xlink:href="#e"/><linearGradient id="E" x1="1358.755" x2="1558.555" y1="724.774" y2="724.774" gradientUnits="userSpaceOnUse"><stop class="stopColorc4c9e4 svgShape" offset=".03" stop-color="#c4e4c4"/><stop class="stopColore4e6f3 svgShape" offset=".428" stop-color="#e4f3e4"/><stop class="stopColorf8f8fc svgShape" offset=".77" stop-color="#f8fcf8"/><stop class="stopColorffffff svgShape" offset="1" stop-color="#fff"/></linearGradient><linearGradient id="F" x1="1326.705" x2="1463.728" y1="677.133" y2="677.133" xlink:href="#a"/><linearGradient id="G" x1="1326.705" x2="1463.728" y1="696.663" y2="696.663" xlink:href="#b"/><linearGradient id="H" x1="1326.705" x2="1463.728" y1="716.192" y2="716.192" xlink:href="#a"/><linearGradient id="I" x1="1326.705" x2="1463.728" y1="735.718" y2="735.718" xlink:href="#b"/><linearGradient id="J" x1="1339.574" x2="1450.86" y1="632.481" y2="632.481" xlink:href="#c"/><linearGradient id="K" x1="1374.075" x2="1404.148" y1="661.505" y2="661.505" xlink:href="#c"/><radialGradient id="g" cx="656.662" cy="1044.091" r="11.884" gradientTransform="matrix(.866 .5 -.866 .5 911.626 -38.467)" gradientUnits="userSpaceOnUse"><stop class="stopColorfff1b5 svgShape" offset="0" stop-color="#b5ffb5"/><stop class="stopColorf9ecb6 svgShape" offset=".01" stop-color="#b6f9b6"/><stop class="stopColorc0b5be svgShape" offset=".125" stop-color="#b5c0b5"/><stop class="stopColor928bc4 svgShape" offset=".23" stop-color="#6c6"/><stop class="stopColor716cc8 svgShape" offset=".323" stop-color="#6cb1c8"/><stop class="stopColor5d59cb svgShape" offset=".401" stop-color="#59afcb"/><stop class="stopColor5652cc svgShape" offset=".454" stop-color="#52aecc"/></radialGradient><radialGradient id="v" cx="711.409" cy="1044.09" r="11.884" xlink:href="#g"/></defs><g class="color000000 svgShape" data-name="Front coins"><path fill="url(#f)" d="m1168.346 413.978-67.404-38.916a27.43 27.43 0 0 0-13.415-3.207c-4.855 0-118.06-3.126-129.036 3.207l-67.404 38.916c-3.705 2.14-5.556 4.941-5.556 7.745s1.851 5.606 5.556 7.745l39.604 22.866v19.257h156.836a27.47 27.47 0 0 0 13.415-3.206l67.404-38.917c3.705-2.139 5.556-4.94 5.556-7.745s-1.851-5.606-5.556-7.745Z" style="mix-blend-mode:multiply"/><path fill="#f6fbf6" d="m917.278 354.003-67.404-38.917c-3.705-2.138-5.556-4.94-5.556-7.744 0-2.804 1.851-5.606 5.556-7.745l67.404-38.916a29.652 29.652 0 0 1 26.827 0l67.404 38.916c3.704 2.139 5.556 4.94 5.556 7.745 0 2.804-1.852 5.606-5.556 7.744l-67.404 38.917a29.657 29.657 0 0 1-26.827 0Z" class="colorf6f6fb svgShape"/><path fill="#f1f6f1" d="m926.397 322.28-21.579-12.459a2.617 2.617 0 0 1 0-4.959l21.58-12.458a9.492 9.492 0 0 1 8.587 0l21.579 12.459a2.617 2.617 0 0 1 0 4.958l-21.579 12.459a9.494 9.494 0 0 1-8.588 0Z" style="mix-blend-mode:multiply" class="colorf1f1f6 svgShape"/><path fill="url(#e)" d="m1011.509 315.086-67.404 38.917a29.64 29.64 0 0 1-26.827-.004l-67.404-38.913c-3.705-2.138-5.556-4.94-5.556-7.744v114.381c0 2.804 1.851 5.606 5.556 7.744l67.404 38.918a29.658 29.658 0 0 0 26.827 0l67.404-38.918c3.704-2.138 5.556-4.94 5.556-7.744V307.342c0 2.804-1.852 5.606-5.556 7.744Z"/><path fill="url(#h)" d="M600.232 605.393c-14.554-8.402-33.896-12.27-52.894-11.703h-29.78v4.884a79.022 79.022 0 0 0-15.759 6.82c-27.078 15.743-26.922 41.271.333 57.018a79.854 79.854 0 0 0 15.426 6.683v5.103h35.72c17.177-.288 34.207-4.187 47.277-11.782 27.097-15.75 26.951-41.279-.323-57.023Z" style="mix-blend-mode:multiply"/><path fill="url(#i)" d="M877.184 569.369c-14.653-8.462-34.144-12.367-53.289-11.797H667.766v4.92a79.083 79.083 0 0 0-15.882 6.877c-27.283 15.864-27.123 41.585.34 57.443a79.97 79.97 0 0 0 15.542 6.739v5.138h162.116c17.307-.295 34.464-4.218 47.628-11.868 27.295-15.867 27.16-41.588-.326-57.452Z" style="mix-blend-mode:multiply"/><path fill="#50ff50" d="M599.391 481.586c-.001-10.143 6.704-20.299 20.119-28.035 13.41-7.742 30.987-11.62 48.566-11.62 17.575 0 35.15 3.878 48.56 11.62 13.41 7.736 20.116 17.882 20.116 28.035.007 10.14-6.697 20.299-20.117 28.034-13.407 7.75-30.982 11.616-48.556 11.616-17.577 0-35.154-3.867-48.566-11.616-13.415-7.735-20.112-17.894-20.122-28.034Z" class="colorffe950 svgShape"/><path fill="url(#a)" d="M716.635 509.62c-13.407 7.75-30.982 11.616-48.556 11.616-17.577 0-35.154-3.867-48.566-11.616-13.415-7.735-20.112-17.894-20.122-28.034v19.574c.01 10.15 6.707 20.294 20.122 28.037 13.412 7.744 30.989 11.616 48.566 11.616 17.574 0 35.15-3.872 48.556-11.615 13.42-7.735 20.124-17.889 20.117-28.04v-19.572c.007 10.14-6.697 20.299-20.117 28.034Z"/><path fill="url(#b)" d="M716.635 529.197c-13.407 7.75-30.982 11.616-48.556 11.616-17.577 0-35.154-3.867-48.566-11.615-13.415-7.74-20.112-17.889-20.122-28.035v19.57c.01 10.15 6.707 20.297 20.122 28.04 13.412 7.746 30.989 11.617 48.566 11.617 17.574 0 35.15-3.871 48.556-11.616 13.42-7.74 20.124-17.892 20.117-28.04v-19.57c.007 10.145-6.697 20.294-20.117 28.034Z"/><path fill="url(#j)" d="M716.635 548.774c-13.407 7.75-30.982 11.616-48.556 11.616-17.577 0-35.154-3.867-48.566-11.616-13.415-7.74-20.112-17.892-20.122-28.035v19.572c.01 10.147 6.707 20.295 20.122 28.04 13.412 7.744 30.989 11.617 48.566 11.617 17.574 0 35.15-3.873 48.556-11.617 13.42-7.74 20.124-17.893 20.117-28.046V520.74c.007 10.143-6.697 20.296-20.117 28.035Z"/><path fill="url(#k)" d="M716.635 568.35c-13.407 7.748-30.982 11.618-48.556 11.618-17.577 0-35.154-3.87-48.566-11.617-13.415-7.745-20.112-17.893-20.122-28.035v19.572c.01 10.148 6.707 20.291 20.122 28.035 13.412 7.744 30.989 11.614 48.566 11.614 17.574 0 35.15-3.87 48.556-11.614 13.42-7.734 20.124-17.887 20.117-28.04v-19.567c.007 10.142-6.697 20.29-20.117 28.035Z"/><path fill="url(#l)" d="M716.635 587.923c-13.407 7.747-30.982 11.615-48.556 11.615-17.577 0-35.154-3.868-48.566-11.615-13.415-7.74-20.112-17.893-20.122-28.035v19.572c.01 10.149 6.707 20.298 20.122 28.042 13.412 7.744 30.989 11.614 48.566 11.614 17.574 0 35.15-3.87 48.556-11.614 13.42-7.738 20.124-17.893 20.117-28.042v-19.572c.007 10.142-6.697 20.294-20.117 28.035Z"/><path fill="url(#m)" d="M716.635 607.502c-13.407 7.747-30.982 11.614-48.556 11.614-17.577 0-35.154-3.867-48.566-11.614-13.415-7.744-20.112-17.893-20.122-28.04v19.573c.01 10.15 6.707 20.298 20.122 28.042 13.412 7.744 30.989 11.611 48.566 11.611 17.574 0 35.15-3.867 48.556-11.61 13.42-7.735 20.124-17.894 20.117-28.043v-19.572c.007 10.146-6.697 20.295-20.117 28.039Z"/><path fill="#3eff3e" d="M628.638 504.357c10.888 6.283 25.162 9.43 39.44 9.43 14.272 0 28.547-3.147 39.432-9.43 10.054-5.803 15.454-13.268 16.224-20.862-.77-7.594-6.17-15.057-16.224-20.863-10.893-6.29-25.162-9.43-39.437-9.43-14.274 0-28.55 3.14-39.443 9.43-10.046 5.806-15.441 13.265-16.222 20.86.78 7.594 6.176 15.06 16.23 20.865Z" class="colorffd03e svgShape"/><path fill="url(#c)" d="M628.63 462.632c10.893-6.29 25.169-9.43 39.443-9.43 14.275 0 28.544 3.14 39.437 9.43 10.054 5.806 15.454 13.269 16.224 20.863a16.087 16.087 0 0 0 .119-1.909c0-8.245-5.445-16.483-16.343-22.772-10.893-6.288-25.162-9.434-39.437-9.434-14.274 0-28.55 3.146-39.443 9.434-10.89 6.29-16.336 14.527-16.336 22.772a17.499 17.499 0 0 0 .114 1.906c.78-7.595 6.176-15.054 16.222-20.86Z"/><path fill="#00e100" d="m695.551 473.393 5.279-3.044v-3.812l-5.279 3.039v3.817z" class="colore19100 svgShape"/><path fill="#50ff50" d="M671.217 479.77c-1.966-1.13-3.054-2.642-3.054-4.256 0-1.596 1.088-3.108 3.054-4.244a16.307 16.307 0 0 1 14.728-.002c4.066 2.343 4.066 6.165 0 8.503l6.687 3.857c6.591-3.801 7.554-9.638 2.919-14.052l5.279-3.04-6.686-3.865-5.275 3.053c-7.636-2.675-17.74-2.118-24.336 1.691-3.757 2.16-5.82 5.037-5.82 8.1 0 3.068 2.063 5.953 5.82 8.113 4.065 2.352 4.07 6.165 0 8.507a16.301 16.301 0 0 1-14.733 0c-4.061-2.342-4.061-6.155.003-8.507l-6.68-3.857c-6.598 3.812-7.56 9.643-2.934 14.052l-4.865 2.81 6.685 3.863 4.87-2.813c7.64 2.672 17.75 2.126 24.338-1.68 7.745-4.48 7.745-11.752 0-16.232Z" class="colorffe950 svgShape"/><path fill="#06fc06" d="m635.324 500.453 6.685 3.858v-3.816l-6.685-3.863v3.821z" class="colorfcba06 svgShape"/><path fill="#00e100" d="m642.009 504.311 4.871-2.814v-3.814l-4.871 2.812v3.816z" class="colore19100 svgShape"/><path fill="#06fc06" d="m685.945 483.589 6.687 3.862v-3.823l-6.687-3.857v3.818z" class="colorfcba06 svgShape"/><path fill="#00e100" d="M649.803 487.45v-3.822c-2.885 1.668-3.71 4.072-2.5 6.165a6.527 6.527 0 0 1 2.5-2.342Z" class="colore19100 svgShape"/><path fill="#06fc06" d="m637.317 487.69.013 4.298.008-.005a7.283 7.283 0 0 0 .832 3.01l2.019-1.17a8.23 8.23 0 0 1-2.857-6.12ZM664.533 487.444a6.578 6.578 0 0 1 2.502 2.349c1.205-2.093.38-4.498-2.502-6.165-3.757-2.16-5.82-5.045-5.82-8.114v3.825c0 3.062 2.063 5.942 5.82 8.105Z" class="colorfcba06 svgShape"/><path fill="#05fb05" d="M677.026 487.87v-.084h-.004c0 .03.004.05.004.083Z" class="colorfbba05 svgShape"/><path fill="#00e100" d="M698.413 475.514c.01 2.943-1.901 5.877-5.781 8.114v3.823c3.974-2.3 5.891-5.323 5.781-8.338l.01.013v-3.612Z" class="colore19100 svgShape"/><path fill="url(#n)" d="M671.217 496.003c-6.589 3.806-16.697 4.352-24.337 1.68v3.814c7.64 2.678 17.748 2.127 24.337-1.686 3.84-2.214 5.771-5.13 5.805-8.037l.004.002v-3.872c-.01 2.929-1.942 5.865-5.81 8.099Z"/><path fill="#00e100" d="M685.945 471.268a16.307 16.307 0 0 0-14.728.002c-1.966 1.136-3.054 2.648-3.054 4.244a3.84 3.84 0 0 0 .542 1.92 6.652 6.652 0 0 1 2.512-2.339 16.27 16.27 0 0 1 14.728-.011 6.578 6.578 0 0 1 2.504 2.35c1.212-2.102.382-4.501-2.504-6.166Z" class="colore19100 svgShape"/><path fill="#50ff50" d="M449.7 615.414c-.001-10.071 6.653-20.146 19.963-27.836 13.317-7.68 30.763-11.523 48.202-11.523 17.451 0 34.887 3.842 48.199 11.523 13.313 7.69 19.966 17.765 19.97 27.836.004 10.066-6.65 20.144-19.97 27.83-13.312 7.684-30.748 11.526-48.196 11.526-17.442 0-34.885-3.842-48.198-11.525-13.315-7.687-19.967-17.765-19.97-27.83Z" class="colorffe950 svgShape"/><path fill="url(#d)" d="M566.064 643.245c-13.312 7.683-30.748 11.525-48.196 11.525-17.442 0-34.885-3.842-48.198-11.525-13.315-7.687-19.967-17.765-19.97-27.83v19.427c.003 10.072 6.655 20.14 19.97 27.824 13.313 7.69 30.756 11.532 48.198 11.532 17.448 0 34.884-3.842 48.196-11.522 13.32-7.69 19.974-17.762 19.97-27.837v-19.425c.004 10.066-6.65 20.144-19.97 27.83Z"/><path fill="#3eff3e" d="M478.723 638.01c10.815 6.245 24.985 9.37 39.145 9.37 14.174 0 28.34-3.125 39.147-9.37 9.97-5.756 15.336-13.167 16.102-20.699-.766-7.54-6.132-14.949-16.102-20.707-10.811-6.242-24.978-9.359-39.15-9.359-14.17 0-28.335 3.117-39.148 9.36-9.97 5.757-15.331 13.165-16.104 20.7.773 7.535 6.135 14.95 16.11 20.704Z" class="colorffd03e svgShape"/><path fill="url(#o)" d="M478.717 596.604c10.813-6.242 24.978-9.359 39.148-9.359 14.172 0 28.339 3.117 39.15 9.36 9.97 5.757 15.336 13.165 16.102 20.706a17.388 17.388 0 0 0 .113-1.897c0-8.18-5.407-16.361-16.215-22.601-10.811-6.24-24.978-9.362-39.15-9.362-14.17 0-28.335 3.122-39.148 9.362-10.808 6.24-16.213 14.42-16.21 22.601a18.587 18.587 0 0 0 .106 1.891c.773-7.535 6.135-14.943 16.104-20.7Z"/><path fill="#00e100" d="m545.141 607.281 5.235-3.022v-3.788l-5.235 3.025v3.785z" class="colore19100 svgShape"/><path fill="#50ff50" d="M520.99 613.612c-1.956-1.124-3.033-2.622-3.033-4.219 0-1.596 1.077-3.094 3.034-4.221a16.168 16.168 0 0 1 14.617 0c4.037 2.327 4.037 6.119 0 8.44l6.63 3.83c6.557-3.78 7.505-9.566 2.903-13.946l5.235-3.025-6.63-3.829-5.239 3.028c-7.577-2.657-17.605-2.106-24.157 1.679-3.724 2.144-5.773 5.004-5.773 8.044 0 3.04 2.05 5.9 5.773 8.048 4.033 2.328 4.036 6.116 0 8.447a16.153 16.153 0 0 1-14.619 0c-4.029-2.33-4.029-6.119 0-8.447l-6.63-3.829c-6.549 3.778-7.502 9.575-2.905 13.952l-4.83 2.787 6.636 3.832 4.828-2.793c7.587 2.654 17.616 2.109 24.161-1.673 7.687-4.44 7.687-11.661-.001-16.105Z" class="colorffe950 svgShape"/><path fill="#05fb05" d="m485.366 634.136 6.636 3.832v-3.785l-6.636-3.832v3.785z" class="colorfbba05 svgShape"/><path fill="#00e100" d="m492.002 637.968 4.828-2.793v-3.785l-4.828 2.793v3.785z" class="colore19100 svgShape"/><path fill="#05fb05" d="m535.608 617.403 6.63 3.83v-3.792l-6.63-3.829v3.791z" class="colorfbba05 svgShape"/><path fill="#00e100" d="M499.731 621.232v-3.79c-2.858 1.652-3.68 4.04-2.484 6.115a6.667 6.667 0 0 1 2.484-2.325Z" class="colore19100 svgShape"/><path fill="#05fb05" d="m487.346 621.47.012 4.266.005-.003a7.191 7.191 0 0 0 .825 2.99l2.008-1.16a8.115 8.115 0 0 1-2.834-6.074ZM514.35 621.23a6.62 6.62 0 0 1 2.486 2.327c1.194-2.074.377-4.462-2.486-6.116-3.724-2.147-5.773-5.007-5.773-8.048v3.788c0 3.04 2.05 5.9 5.773 8.048ZM526.754 621.647v-.082h-.013c0 .028.013.05.013.082Z" class="colorfbba05 svgShape"/><path fill="#00e100" d="M547.985 609.387c.008 2.923-1.894 5.837-5.747 8.054v3.792c3.951-2.278 5.847-5.28 5.743-8.273l.012.016v-3.589Z" class="colore19100 svgShape"/><path fill="url(#p)" d="M520.991 629.717c-6.545 3.782-16.574 4.327-24.161 1.673v3.785c7.587 2.657 17.616 2.109 24.161-1.67 3.813-2.204 5.726-5.092 5.76-7.98l.003.005v-3.845c-.013 2.908-1.93 5.819-5.763 8.032Z"/><path fill="#00e100" d="M535.608 605.172a16.168 16.168 0 0 0-14.617 0c-1.957 1.127-3.034 2.625-3.034 4.221a3.833 3.833 0 0 0 .535 1.898 6.74 6.74 0 0 1 2.5-2.328 16.208 16.208 0 0 1 14.616-.007 6.6 6.6 0 0 1 2.485 2.335c1.195-2.081.373-4.47-2.485-6.12Z" class="colore19100 svgShape"/><path fill="url(#q)" d="m1569.618 922.74-12.512-7.226c6.706 5.566 5.796 13.327-2.792 18.284l-316.543 182.757c-4.817 2.782-11.168 4.174-17.52 4.174v9.15h16.609l.028-.02a35.17 35.17 0 0 0 16.19-4.136l316.54-182.754c9.636-5.565 9.636-14.668 0-20.23Z" style="mix-blend-mode:multiply"/><path fill="url(#r)" d="m1554.314 933.798-316.543 182.757c-9.636 5.565-25.406 5.565-35.04 0l-173.46-100.148c-4.745-2.739-7.137-6.336-7.212-9.945l-.01-.003v9.15l.01-1.183c.075 3.61 2.467 8.392 7.212 11.134l173.46 100.141c9.634 5.568 25.404 5.568 35.04 0l316.543-182.753c4.776-2.758 7.18-6.386 7.222-10.02v-9.153c-.041 3.634-2.446 7.265-7.222 10.023Z"/><path fill="#f6fbf6" d="M1554.314 913.567c9.639 5.56 9.639 14.665 0 20.231l-316.543 182.757c-9.636 5.565-25.406 5.565-35.04 0l-173.46-100.148c-9.633-5.562-9.633-14.668 0-20.23l316.543-182.757c9.636-5.562 25.408-5.562 35.045 0Z" class="colorf6f6fb svgShape"/><path fill="#0099cb" d="M1052.571 1016.445c-9.708-5.61-9.708-14.697 0-20.303 9.711-5.608 25.456-5.608 35.167-.003 9.708 5.61 9.708 14.697 0 20.306-9.708 5.606-25.456 5.606-35.167 0ZM1087.741 986.06l110.932-64.048 17.46 10.079-110.935 64.048-17.457-10.079z" class="color5652cc svgShape"/><path fill="#dff4df" d="m1158.633 1052.657 61.886-35.732 21.9 12.64-61.883 35.738-21.903-12.646zM1233.004 1009.719l61.892-35.735 21.903 12.647-61.892 35.731-21.903-12.643zM1307.381 966.778l61.889-35.731 21.902 12.643-61.895 35.732-21.896-12.644zM1381.754 923.834l61.887-35.725 21.902 12.643-61.889 35.729-21.9-12.647zM1225.508 1108.126l113.306-65.415-12.85-7.418-113.303 65.414 12.847 7.419zM1197.475 1091.938l188.057-108.574 12.853 7.419-188.06 108.577-12.85-7.422z" class="colordfe4f4 svgShape"/><path fill="#fff" d="m1435.195 954.693 79.409-45.845 28.033 16.187-79.409 45.845-28.033-16.187z" class="colorffffff svgShape"/><path fill="#3eff3e" d="M1171.027 993.909a15.567 15.567 0 0 0-14.022 0l-38.23 22.077c-3.856 2.224-3.856 5.868 0 8.092l29.345 16.943a15.546 15.546 0 0 0 14.017.003l38.236-22.078c3.853-2.227 3.853-5.864.003-8.088Z" class="colorffd03e svgShape"/><path fill="#06fc06" d="m1174.15 995.715-2.455-1.419-52.252 30.169 2.454 1.42 15.985-9.235 5.612 3.245-15.981 9.231 2.455 1.413 15.978-9.228 7.076 4.087-15.982 9.228 2.455 1.416 15.978-9.231 5.503 3.176-15.978 9.233 2.455 1.414 52.25-30.166-2.452-1.417-15.985 9.225-5.506-3.176 15.988-9.227-2.455-1.417-15.985 9.228-7.072-4.084 15.981-9.227-2.451-1.416-18.44 10.643 17.485 10.095-15.38 8.881-23.1-13.339 33.819-19.522z" class="colorfcba06 svgShape"/><path fill="#7cdcfb" d="m1376.476 838.274-.714 2.929c24.345 2.003 42.578 13.127 45.891 26.529l5.092-.415c-3.622-14.672-23.622-26.85-50.269-29.043Zm-5.724 23.474c8.142.668 14.24 4.393 15.348 8.873l5.063-.412c-1.416-5.753-9.25-10.535-19.7-11.387Zm2.383-9.773-.715 2.926c7.95.652 14.98 3.054 19.807 6.757a14.767 14.767 0 0 1 5.74 7.998l5.069-.414c-.814-3.36-3.082-6.57-6.72-9.365-5.637-4.33-13.881-7.144-23.18-7.902Zm1.669-6.85-.711 2.925c18.942 1.56 33.13 10.22 35.707 20.646l5.065-.415c-2.888-11.696-18.813-21.41-40.061-23.157Z" class="color807cfb svgShape"/><path fill="#daf5da" d="m1054.185 912.777 8.219.666c1.876-7.624 12.337-13.334 24.92-14.37l-1.157-4.741c-16.158 1.326-29.59 8.66-31.982 18.445Zm-19.233-1.566 8.218.67c1.83-7.443 8.578-14.027 18.979-18.545a71.286 71.286 0 0 1 22.467-5.375l-1.165-4.746a83.424 83.424 0 0 0-26.304 6.292c-12.163 5.277-20.066 12.997-22.195 21.704Zm-38.486-3.128 8.228.669c5.625-22.794 36.872-39.866 74.516-42.968l-1.166-4.767c-41.21 3.39-75.418 22.116-81.578 47.065Zm19.242 1.565 8.22.666c4.38-17.735 28.706-31.019 57.99-33.432l-1.166-4.743c-32.851 2.705-60.137 17.615-65.044 37.51Zm64.585-.258c-4.295 2.48-4.295 6.5 0 8.979a17.187 17.187 0 0 0 15.551 0c4.295-2.48 4.295-6.5 0-8.979a17.187 17.187 0 0 0-15.551 0ZM1192.557 808.855l-8.22-.666c-1.875 7.623-12.336 13.333-24.92 14.37l1.157 4.74c16.158-1.325 29.59-8.66 31.983-18.444Zm19.233 1.565-8.22-.669c-1.83 7.443-8.577 14.026-18.977 18.545a71.287 71.287 0 0 1-22.468 5.374l1.166 4.746a83.424 83.424 0 0 0 26.304-6.291c12.163-5.278 20.066-12.997 22.195-21.705Zm38.485 3.129-8.228-.67c-5.624 22.795-36.872 39.867-74.515 42.968l1.165 4.768c41.21-3.391 75.419-22.116 81.578-47.066Zm-19.242-1.566-8.219-.666c-4.38 17.736-28.706 31.02-57.99 33.432l1.166 4.743c32.85-2.705 60.136-17.615 65.043-37.509Zm-64.584.258c4.294-2.48 4.294-6.5 0-8.979a17.186 17.186 0 0 0-15.552 0c-4.294 2.48-4.294 6.5 0 8.98a17.187 17.187 0 0 0 15.552 0Z" class="colordae0f5 svgShape"/><path fill="#dff4df" d="m555.491 1006.051 24.377-82.032-142.084 14.074 29.831 17.223-117.761 67.99 58.045 33.512 117.761-67.99 29.831 17.223z" class="colordfe4f4 svgShape"/><path fill="url(#s)" d="m1434.008 429.976-.03-.017-.247-.142c-10.107-5.347-23.736-4.947-36.989 1.097l19.917-10.95-202.674-116.971c-.356 7.972.356 28.038 0 31.763-2.456 28.077-16.674 43.77-63.354 70.72-52.102 30.08-141.52 81.707-141.52 81.707l235.248 135.82 141.52-81.707c52.103-30.081 63.776-46.124 63.776-81.033 0-15.127-6.277-25.197-15.647-30.286Z"/><path fill="#dff4df" d="M1215.805 443.123c.697-.403 1.364-.795 2.048-1.193l-40.403-23.327c-.678.395-1.34.784-2.032 1.183l-7.191 4.153 40.403 23.326 7.175-4.142Zm-110.511 17.15 29.743 17.172 9.233-5.33-29.744-17.173-9.232 5.33Zm85.992-9.46-34.805-20.093-9.232 5.33 34.804 20.094 9.233-5.33Zm-10.296 18.28-45.486-26.262-9.233 5.33 45.486 26.262 9.233-5.33Zm93.347-99.473c.086-.897.109-2.757.1-5.153l-35.565-20.533c.008 2.386-.015 4.239-.1 5.133a71.922 71.922 0 0 1-2.038 12.125l35.57 20.536a71.944 71.944 0 0 0 2.033-12.108Zm-46.374 53.924-30.231-17.454q-4.114 2.734-8.756 5.606l30.231 17.454q4.64-2.875 8.756-5.606Zm61.048-16.227-57.517-33.207a60.46 60.46 0 0 1-6.913 9.697l57.519 33.208a60.403 60.403 0 0 0 6.91-9.698Zm-29.354 10.303-43.684-25.222q-3.503 3.076-7.674 6.23l43.686 25.223q4.179-3.164 7.672-6.231Zm50.34 39.724 86.366 49.864c2.783-2.106 5.353-4.176 7.686-6.224l-86.37-49.865q-3.497 3.072-7.682 6.225Zm22.778-11.072 79.879 46.118a60.468 60.468 0 0 0 6.92-9.692l-79.885-46.122a60.412 60.412 0 0 1-6.914 9.696Zm-54.502 16.979 98.773 57.027c3.1-1.92 6.002-3.783 8.75-5.61l-98.774-57.026a325.038 325.038 0 0 1-8.75 5.609Zm54.502-65.102a79.108 79.108 0 0 1-2.342 17.14l94.368 54.483a78.993 78.993 0 0 0 2.349-17.136ZM1201.6 491.653l112.735 65.087 9.232-5.33-112.735-65.088-9.232 5.33Zm7.624 28.625 84.133 48.574 9.233-5.33-84.133-48.575-9.233 5.33Zm70.242-40.386-7.163 4.136 83.987 48.49 7.192-4.153c.693-.4 1.35-.788 2.03-1.184l-83.987-48.49c-.689.401-1.356.795-2.06 1.201Zm-38.132 10.478 93.978 54.259 9.233-5.33-93.979-54.26-9.232 5.331Z" style="mix-blend-mode:multiply" class="colordfe4f4 svgShape"/><path fill="url(#t)" d="m1200.935 295.46.005.016c-12.263-8.152-30.944-6.736-47.647 4.12v.12h21.377v12.342h21.377V324.4h21.377v12.342h21.377v12.342h21.377v12.342h21.377v12.342h21.377v12.342h21.377v12.342h21.377v12.342h21.377v12.342h21.377v12.342c15.645-10.208 33.052-12.136 45.291-5.661Z"/><path fill="#0099cb" d="m531.48 750.29 286.415 165.362 371.801-292.649L903.28 457.641 531.48 750.29z" class="color5652cc svgShape"/><path fill="#2e7b94" d="m555.379 742.141 337.232-265.44a21.414 21.414 0 0 1 23.952-1.717l248.316 143.366a7.75 7.75 0 0 1 .918 12.801l-337.232 265.44a21.414 21.414 0 0 1-23.952 1.719L556.297 754.943a7.75 7.75 0 0 1-.918-12.802Z" class="color362e94 svgShape"/><path fill="#f6fbf6" d="M815.318 896.99a17.229 17.229 0 0 1-8.61-2.31L558.392 751.315a3.561 3.561 0 0 1-.422-5.883l337.232-265.438a17.226 17.226 0 0 1 19.265-1.383l248.317 143.366a3.562 3.562 0 0 1 .422 5.884L825.974 893.3a17.306 17.306 0 0 1-10.656 3.69Z" class="colorf6f6fb svgShape"/><path fill="#67c9e9" d="m494.813 801 235.249 135.82c14.13 8.158 37.037 8.158 51.167 0l36.666-21.168L531.48 750.29l-36.667 21.169c-14.13 8.157-14.13 21.384 0 29.541ZM903.28 457.642l286.416 165.362 54.663-31.56c14.129-8.158 14.129-21.384 0-29.541L1009.11 426.082c-14.13-8.158-37.037-8.158-51.167 0Z" class="color6b67e9 svgShape"/><path fill="url(#u)" d="m1244.359 591.444-54.663 31.56-371.801 292.648-36.666 21.169c-14.13 8.158-37.038 8.157-51.167 0L494.814 801c-7.048-4.07-10.577-9.4-10.594-14.733v36.188l.003.002c-.034 5.371 3.492 10.749 10.59 14.847l235.249 135.82c14.13 8.158 37.037 8.158 51.167 0l408.467-235.828 54.663-31.56c7.255-4.188 10.757-9.713 10.56-15.202h.037V576.673c0 5.346-3.533 10.692-10.597 14.77Z"/><path fill="#195a6f" d="M719.399 944.19 505.476 820.682v11.126l213.923 123.508V944.19z" class="color20196f svgShape"/><path fill="url(#g)" d="M565.821 805.967c5.684-3.281 14.9-3.281 20.583 0 5.684 3.282 5.684 8.603 0 11.884-5.683 3.282-14.899 3.282-20.583 0s-5.684-8.602 0-11.884Z"/><path fill="url(#v)" d="M613.232 833.34c5.684-3.281 14.9-3.281 20.584 0 5.684 3.282 5.684 8.603 0 11.884-5.684 3.282-14.9 3.282-20.584 0s-5.684-8.602 0-11.884Z"/><path fill="#0099cb" d="M660.644 860.713c5.683-3.281 14.899-3.281 20.583 0s5.684 8.603 0 11.884c-5.684 3.282-14.9 3.282-20.583 0-5.684-3.282-5.684-8.602 0-11.884ZM708.055 888.086c5.684-3.282 14.899-3.282 20.583 0 5.684 3.282 5.684 8.602 0 11.884s-14.9 3.281-20.583 0c-5.684-3.282-5.684-8.602 0-11.884Z" class="color5652cc svgShape"/><path fill="url(#w)" d="m981.844 1086.669-62.04-35.82a27.293 27.293 0 0 0-24.693 0l-62.04 35.82c-3.41 1.968-5.114 4.547-5.114 7.128 0 2.581 1.704 5.16 5.113 7.128l36.454 21.048v17.725h37.931a25.284 25.284 0 0 0 12.348-2.952l62.041-35.82c3.41-1.969 5.114-4.548 5.114-7.129 0-2.58-1.704-5.16-5.114-7.128Z" style="mix-blend-mode:multiply"/><path fill="#f6fbf6" d="m857.178 1112.776-62.041-35.82c-3.41-1.97-5.114-4.548-5.114-7.13 0-2.58 1.704-5.159 5.114-7.128l62.04-35.82a27.293 27.293 0 0 1 24.693 0l62.04 35.82c3.41 1.97 5.114 4.548 5.114 7.129 0 2.58-1.704 5.16-5.113 7.128l-62.041 35.82a27.298 27.298 0 0 1-24.692 0Z" class="colorf6f6fb svgShape"/><path fill="#f1f6f1" d="m865.571 1083.577-19.861-11.468a2.41 2.41 0 0 1 0-4.564l19.861-11.467a8.738 8.738 0 0 1 7.905 0l19.862 11.467a2.41 2.41 0 0 1 0 4.564l-19.862 11.468a8.74 8.74 0 0 1-7.905 0Z" style="mix-blend-mode:multiply" class="colorf1f1f6 svgShape"/><path fill="url(#x)" d="m943.91 1076.955-62.04 35.82a27.281 27.281 0 0 1-24.692-.003l-62.041-35.817c-3.41-1.968-5.114-4.547-5.114-7.128v23.97c0 2.581 1.704 5.16 5.114 7.128l62.04 35.821a27.298 27.298 0 0 0 24.693 0l62.04-35.82c3.41-1.969 5.114-4.548 5.114-7.129v-23.97c0 2.58-1.704 5.16-5.113 7.128Z"/><path fill="url(#y)" d="m821.98 1117.976-28.722-16.584a11.688 11.688 0 0 0-5.717-1.367c-2.07 0-37.845-1.332-42.522 1.367l-28.723 16.584c-1.58.911-2.368 2.105-2.368 3.3 0 1.195.789 2.389 2.368 3.3l16.876 9.744v8.206h54.369a11.705 11.705 0 0 0 5.717-1.366l28.723-16.584c1.579-.911 2.367-2.105 2.367-3.3 0-1.195-.788-2.389-2.367-3.3Z" style="mix-blend-mode:multiply"/><path fill="#f6fbf6" d="m727.457 1097.327-28.724-16.584c-1.578-.911-2.367-2.105-2.367-3.3 0-1.195.789-2.39 2.367-3.3l28.724-16.584a12.635 12.635 0 0 1 11.431 0l28.723 16.583c1.579.912 2.368 2.106 2.368 3.3 0 1.196-.79 2.39-2.368 3.3l-28.723 16.585a12.639 12.639 0 0 1-11.431 0Z" class="colorf6f6fb svgShape"/><path fill="#f1f6f1" d="m731.343 1083.809-9.196-5.31a1.115 1.115 0 0 1 0-2.113l9.196-5.309a4.044 4.044 0 0 1 3.66 0l9.195 5.31a1.115 1.115 0 0 1 0 2.112l-9.196 5.31a4.046 4.046 0 0 1-3.66 0Z" style="mix-blend-mode:multiply" class="colorf1f1f6 svgShape"/><path fill="url(#z)" d="m767.611 1080.743-28.723 16.584a12.631 12.631 0 0 1-11.431-.002l-28.724-16.582c-1.578-.911-2.367-2.105-2.367-3.3v43.833c0 1.195.789 2.389 2.367 3.3l28.724 16.584a12.639 12.639 0 0 0 11.431 0l28.723-16.584c1.579-.911 2.368-2.105 2.368-3.3v-43.833c0 1.195-.79 2.389-2.368 3.3Z"/><path fill="url(#A)" d="m348.77 998.622-28.723-16.583a11.69 11.69 0 0 0-5.717-1.367c-2.07 0-37.845-1.332-42.522 1.367l-28.723 16.583c-1.58.912-2.368 2.106-2.368 3.3 0 1.195.789 2.39 2.368 3.3l16.876 9.745v8.206h54.369a11.708 11.708 0 0 0 5.717-1.366l28.723-16.584c1.579-.911 2.367-2.106 2.367-3.3 0-1.196-.788-2.39-2.367-3.3Z" style="mix-blend-mode:multiply"/><path fill="#f6fbf6" d="m254.246 990.894-28.724-16.584c-1.578-.91-2.367-2.105-2.367-3.3 0-1.194.789-2.388 2.367-3.3l28.724-16.583a12.635 12.635 0 0 1 11.431 0L294.4 967.71c1.579.912 2.368 2.106 2.368 3.3 0 1.195-.79 2.39-2.368 3.3l-28.723 16.585a12.638 12.638 0 0 1-11.431 0Z" class="colorf6f6fb svgShape"/><path fill="#f1f6f1" d="m258.131 977.376-9.195-5.31a1.115 1.115 0 0 1 0-2.112l9.195-5.31a4.045 4.045 0 0 1 3.66 0l9.196 5.31a1.115 1.115 0 0 1 0 2.113l-9.196 5.31a4.046 4.046 0 0 1-3.66 0Z" style="mix-blend-mode:multiply" class="colorf1f1f6 svgShape"/><path fill="url(#B)" d="m294.4 974.31-28.723 16.585a12.63 12.63 0 0 1-11.431-.002l-28.724-16.583c-1.578-.91-2.367-2.105-2.367-3.3v30.913c0 1.194.789 2.389 2.367 3.3l28.724 16.584a12.638 12.638 0 0 0 11.431 0l28.723-16.584c1.579-.911 2.368-2.106 2.368-3.3V971.01c0 1.194-.79 2.388-2.368 3.3Z"/><path fill="url(#C)" d="m578.941 727.51-59.365-34.274a24.16 24.16 0 0 0-11.815-2.824c-4.276 0-78.217-2.754-87.885 2.824l-59.365 34.275c-3.263 1.884-4.893 4.351-4.893 6.82s1.63 4.938 4.893 6.822l34.881 20.139v16.96h112.369a24.192 24.192 0 0 0 11.815-2.824l59.365-34.275c3.263-1.884 4.893-4.352 4.893-6.821s-1.63-4.938-4.893-6.821Z" style="mix-blend-mode:multiply"/><path fill="#f6fbf6" d="m383.579 700.09-59.365-34.276c-3.263-1.883-4.893-4.351-4.893-6.82 0-2.47 1.63-4.938 4.893-6.822l59.365-34.274a26.117 26.117 0 0 1 23.627 0l59.364 34.274c3.263 1.884 4.894 4.352 4.894 6.821 0 2.47-1.63 4.938-4.894 6.821l-59.364 34.276a26.121 26.121 0 0 1-23.627 0Z" class="colorf6f6fb svgShape"/><path fill="#f1f6f1" d="m391.61 672.15-19.005-10.973a2.305 2.305 0 0 1 0-4.367l19.005-10.973a8.362 8.362 0 0 1 7.564 0l19.005 10.973a2.305 2.305 0 0 1 0 4.367l-19.005 10.973a8.362 8.362 0 0 1-7.564 0Z" style="mix-blend-mode:multiply" class="colorf1f1f6 svgShape"/><path fill="url(#D)" d="m466.57 665.814-59.364 34.276a26.105 26.105 0 0 1-23.627-.004l-59.365-34.272c-3.263-1.883-4.893-4.351-4.893-6.82v75.338c0 2.47 1.63 4.937 4.893 6.82l59.365 34.276a26.12 26.12 0 0 0 23.627 0l59.364-34.276c3.263-1.883 4.894-4.35 4.894-6.82v-75.339c0 2.47-1.63 4.938-4.894 6.821Z"/><path fill="#cef8ce" d="m888.051 511.821 216.504 124.999 4.852-3.339-216.503-124.999-4.853 3.339zM900.222 507.401l19.829 11.448 9.51-8.59-19.829-11.448-9.51 8.59zM927.516 523.158l19.828 11.448 9.51-8.589-19.828-11.448-9.51 8.589zM1064.236 602.094l39.613 22.871 9.51-8.59-39.613-22.87-9.51 8.589zM905.612 553.274l135.298 78.115 8.421-7.607-135.297-78.114-8.422 7.606zM908.611 579.943l95.614 55.202 8.422-7.606-95.614-55.203-8.422 7.607zM749.117 805.695l-23.485 6.324 20.746 11.977 2.739-18.301zM706.436 781.053l-20.745-11.977-2.74 18.301 23.485-6.324z" class="colorced3f8 svgShape"/><path fill="#7ddcfb" d="m807.87 839.928-20.074 3.24-.25-6.892-5.305.856.319 8.89a1.54 1.54 0 0 0 .832 1.282 2.924 2.924 0 0 0 1.888.289l22.727-3.667-.136-3.998Z" class="color807dfb svgShape"/><path fill="#3eff3e" d="m647.082 744.759-11.032 1.78-.284-8.313-5.154.831.283 8.313-11.046 1.794.132 3.884 11.032-1.78.284 8.313 5.17-.823-.285-8.336 11.048-1.771-.148-3.892z" class="colorffd03e svgShape"/><path fill="#d1f3d1" d="M779.935 736.98c-16.397-9.453-24.516-23.394-24.4-38.266.103-14.881 8.471-30.738 25.047-43.985 16.576-13.267 38.218-21.45 59.83-23.95 21.598-2.507 43.15.681 59.547 10.135 16.383 9.446 24.516 23.375 24.4 38.268-.103 14.88-8.47 30.737-25.047 43.984-16.56 13.276-38.218 21.45-59.815 23.938-21.597 2.507-43.165-.67-59.562-10.123ZM907.71 634.71c-18.503-10.669-42.853-14.277-67.24-11.457-24.401 2.832-48.838 12.071-67.558 27.054-18.719 14.963-28.168 32.865-28.285 49.658-.132 16.788 9.02 32.533 27.501 43.19l.054.03c18.517 10.677 42.868 14.266 67.255 11.446 24.387-2.82 48.838-12.052 67.543-27.043 18.72-14.963 28.168-32.865 28.285-49.658.133-16.824-9.051-32.552-27.555-43.22Z" class="colord1d7f3 svgShape"/><path fill="#d1f3d1" d="m880.391 662.215-8.191-4.723-6.504 5.226c-9.36-2.83-21.778-.589-29.941 5.945-4.64 3.693-7.213 8.213-7.249 12.701-.035 4.49 2.452 8.41 7.02 11.043l.057.032c4.952 2.876 4.923 8.46-.099 12.478-5.02 4.019-13.155 4.97-18.107 2.094l-.027-.015c-4.955-2.857-4.902-8.44.125-12.463l-8.162-4.706c-8.163 6.534-9.413 15.214-3.784 21.027l-6.02 4.818 8.178 4.715 6.02-4.818c9.372 2.837 21.79.596 29.94-5.926 9.558-7.67 9.656-18.348.187-23.808a6.633 6.633 0 0 1-3.704-5.815c.018-2.334 1.365-4.712 3.802-6.662 5.021-4.02 13.155-4.95 18.107-2.094 4.967 2.864 4.909 8.47-.098 12.477l8.163 4.707c8.162-6.514 9.413-15.214 3.754-21.024l6.533-5.21Z" class="colord1d7f3 svgShape"/><path fill="url(#E)" d="M1537.9 696.111c-14.619-8.443-34.06-12.34-53.158-11.767h-89.833v4.905a78.867 78.867 0 0 0-15.843 6.862c-27.218 15.825-27.055 41.484.34 57.3a79.588 79.588 0 0 0 15.503 6.719v5.129h95.802c17.264-.292 34.381-4.207 47.514-11.842 27.23-15.822 27.091-41.48-.325-57.306Z" style="mix-blend-mode:multiply"/><path fill="#50ff50" d="M1326.705 647.591c-.002-10.118 6.685-20.248 20.064-27.967 13.382-7.719 30.917-11.59 48.45-11.59 17.53 0 35.062 3.871 48.443 11.59 13.378 7.718 20.066 17.843 20.066 27.967.005 10.118-6.683 20.252-20.066 27.97-13.374 7.726-30.906 11.584-48.44 11.584-17.533 0-35.066-3.858-48.445-11.583-13.384-7.719-20.066-17.853-20.072-27.97Z" class="colorffe950 svgShape"/><path fill="url(#F)" d="M1443.662 675.562c-13.374 7.725-30.906 11.582-48.44 11.582-17.533 0-35.066-3.857-48.445-11.582-13.384-7.719-20.066-17.853-20.072-27.97v19.527c.006 10.124 6.688 20.245 20.072 27.97 13.38 7.725 30.912 11.586 48.444 11.586 17.535 0 35.067-3.86 48.441-11.586 13.383-7.718 20.071-17.846 20.066-27.973V647.59c.005 10.118-6.683 20.252-20.066 27.97Z"/><path fill="url(#G)" d="M1443.662 695.09c-13.374 7.728-30.906 11.586-48.44 11.586-17.533 0-35.066-3.858-48.445-11.586-13.384-7.726-20.066-17.847-20.072-27.968v19.524c.006 10.122 6.688 20.246 20.072 27.971 13.38 7.725 30.912 11.586 48.444 11.586 17.535 0 35.067-3.86 48.441-11.586 13.383-7.715 20.071-17.85 20.066-27.974v-19.52c.005 10.12-6.683 20.241-20.066 27.966Z"/><path fill="url(#H)" d="M1443.662 714.617c-13.374 7.728-30.906 11.586-48.44 11.586-17.533 0-35.066-3.858-48.445-11.586-13.384-7.722-20.066-17.85-20.072-27.967v19.524c.006 10.121 6.688 20.246 20.072 27.974 13.38 7.725 30.912 11.586 48.444 11.586 17.535 0 35.067-3.86 48.441-11.586 13.383-7.722 20.071-17.853 20.066-27.977V686.65c.005 10.118-6.683 20.245-20.066 27.967Z"/><path fill="url(#I)" d="M1443.662 734.148c-13.374 7.728-30.906 11.586-48.44 11.586-17.533 0-35.066-3.858-48.445-11.586-13.384-7.725-20.066-17.853-20.072-27.97v19.527c.006 10.121 6.688 20.242 20.072 27.967 13.38 7.725 30.912 11.586 48.444 11.586 17.535 0 35.067-3.86 48.441-11.586 13.383-7.718 20.071-17.846 20.066-27.974v-19.52c.005 10.117-6.683 20.245-20.066 27.97Z"/><path fill="#3eff3e" d="M1355.88 670.307c10.862 6.267 25.1 9.41 39.341 9.41 14.24 0 28.475-3.143 39.338-9.41 10.028-5.788 15.417-13.235 16.185-20.811-.768-7.573-6.157-15.02-16.185-20.808-10.868-6.28-25.1-9.41-39.34-9.41-14.243 0-28.48 3.13-39.349 9.41-10.022 5.788-15.403 13.228-16.18 20.808.777 7.576 6.158 15.02 16.19 20.811Z" class="colorffd03e svgShape"/><path fill="url(#J)" d="M1355.87 628.688c10.87-6.28 25.106-9.41 39.348-9.41 14.24 0 28.473 3.13 39.341 9.41 10.028 5.788 15.417 13.235 16.185 20.808a16.314 16.314 0 0 0 .116-1.905c0-8.223-5.43-16.44-16.3-22.712-10.869-6.277-25.101-9.413-39.342-9.413-14.242 0-28.478 3.136-39.348 9.413-10.865 6.273-16.296 14.49-16.296 22.712a16.717 16.717 0 0 0 .115 1.905c.778-7.58 6.159-15.02 16.181-20.808Z"/><path fill="#00e100" d="m1422.629 639.42 5.261-3.036v-3.803l-5.261 3.03v3.809z" class="colore19100 svgShape"/><path fill="#50ff50" d="M1398.355 645.78c-1.961-1.128-3.048-2.635-3.048-4.245 0-1.588 1.087-3.098 3.048-4.233a16.26 16.26 0 0 1 14.69 0c4.055 2.334 4.055 6.147 0 8.478l6.673 3.851c6.575-3.793 7.533-9.616 2.911-14.02l5.261-3.03-6.664-3.855-5.266 3.043c-7.615-2.67-17.694-2.114-24.275 1.688-3.749 2.154-5.805 5.025-5.805 8.078 0 3.062 2.056 5.94 5.805 8.097 4.052 2.344 4.059 6.147 0 8.485a16.278 16.278 0 0 1-14.698 0c-4.052-2.338-4.052-6.141.003-8.485l-6.662-3.851c-6.584 3.805-7.541 9.62-2.925 14.017l-4.855 2.807 6.67 3.85 4.857-2.806c7.622 2.665 17.704 2.122 24.28-1.675 7.726-4.469 7.726-11.721 0-16.194Z" class="colorffe950 svgShape"/><path fill="#06fc06" d="m1362.548 666.414 6.67 3.848v-3.806l-6.67-3.851v3.809z" class="colorfcba06 svgShape"/><path fill="#00e100" d="m1369.218 670.262 4.857-2.807v-3.806l-4.857 2.807v3.806z" class="colore19100 svgShape"/><path fill="#06fc06" d="m1413.045 649.593 6.673 3.851v-3.813l-6.673-3.851v3.813z" class="colorfcba06 svgShape"/><path fill="#00e100" d="M1376.99 653.444v-3.813c-2.876 1.663-3.7 4.062-2.494 6.148a6.533 6.533 0 0 1 2.494-2.335Z" class="colore19100 svgShape"/><path fill="#06fc06" d="m1364.535 653.68.013 4.29.01-.006a7.23 7.23 0 0 0 .83 3.001l2.015-1.167a8.178 8.178 0 0 1-2.852-6.102ZM1391.685 653.434a6.587 6.587 0 0 1 2.495 2.345c1.205-2.086.379-4.485-2.495-6.148-3.749-2.156-5.805-5.034-5.805-8.096v3.815c0 3.056 2.056 5.928 5.805 8.084Z" class="colorfcba06 svgShape"/><path fill="#05fb05" d="M1404.148 653.861v-.087h-.004c0 .032.004.055.004.087Z" class="colorfbba05 svgShape"/><path fill="#00e100" d="M1425.484 641.535c.007 2.936-1.898 5.866-5.766 8.097v3.812c3.964-2.292 5.873-5.31 5.766-8.317l.007.013v-3.605Z" class="colore19100 svgShape"/><path fill="url(#K)" d="M1398.355 661.974c-6.576 3.796-16.658 4.34-24.28 1.675v3.806c7.622 2.671 17.704 2.121 24.28-1.681 3.833-2.212 5.756-5.116 5.79-8.02l.003.007v-3.864c-.01 2.92-1.936 5.85-5.793 8.077Z"/><path fill="#00e100" d="M1413.045 637.302a16.26 16.26 0 0 0-14.69 0c-1.961 1.135-3.048 2.645-3.048 4.233a3.835 3.835 0 0 0 .54 1.914 6.656 6.656 0 0 1 2.508-2.331 16.243 16.243 0 0 1 14.69-.013 6.594 6.594 0 0 1 2.498 2.344c1.21-2.095.381-4.491-2.498-6.147Z" class="colore19100 svgShape"/></g></svg>